%TF.GenerationSoftware,KiCad,Pcbnew,9.0.6*%
%TF.CreationDate,2026-03-28T13:57:43+01:00*%
%TF.ProjectId,oled_keyboard,6f6c6564-5f6b-4657-9962-6f6172642e6b,rev?*%
%TF.SameCoordinates,Original*%
%TF.FileFunction,Soldermask,Bot*%
%TF.FilePolarity,Negative*%
%FSLAX46Y46*%
G04 Gerber Fmt 4.6, Leading zero omitted, Abs format (unit mm)*
G04 Created by KiCad (PCBNEW 9.0.6) date 2026-03-28 13:57:43*
%MOMM*%
%LPD*%
G01*
G04 APERTURE LIST*
G04 Aperture macros list*
%AMRoundRect*
0 Rectangle with rounded corners*
0 $1 Rounding radius*
0 $2 $3 $4 $5 $6 $7 $8 $9 X,Y pos of 4 corners*
0 Add a 4 corners polygon primitive as box body*
4,1,4,$2,$3,$4,$5,$6,$7,$8,$9,$2,$3,0*
0 Add four circle primitives for the rounded corners*
1,1,$1+$1,$2,$3*
1,1,$1+$1,$4,$5*
1,1,$1+$1,$6,$7*
1,1,$1+$1,$8,$9*
0 Add four rect primitives between the rounded corners*
20,1,$1+$1,$2,$3,$4,$5,0*
20,1,$1+$1,$4,$5,$6,$7,0*
20,1,$1+$1,$6,$7,$8,$9,0*
20,1,$1+$1,$8,$9,$2,$3,0*%
%AMFreePoly0*
4,1,37,0.603843,0.796157,0.639018,0.796157,0.711114,0.766294,0.766294,0.711114,0.796157,0.639018,0.796157,0.603843,0.800000,0.600000,0.800000,-0.600000,0.796157,-0.603843,0.796157,-0.639018,0.766294,-0.711114,0.711114,-0.766294,0.639018,-0.796157,0.603843,-0.796157,0.600000,-0.800000,0.000000,-0.800000,0.000000,-0.796148,-0.078414,-0.796148,-0.232228,-0.765552,-0.377117,-0.705537,
-0.507515,-0.618408,-0.618408,-0.507515,-0.705537,-0.377117,-0.765552,-0.232228,-0.796148,-0.078414,-0.796148,0.078414,-0.765552,0.232228,-0.705537,0.377117,-0.618408,0.507515,-0.507515,0.618408,-0.377117,0.705537,-0.232228,0.765552,-0.078414,0.796148,0.000000,0.796148,0.000000,0.800000,0.600000,0.800000,0.603843,0.796157,0.603843,0.796157,$1*%
%AMFreePoly1*
4,1,37,0.000000,0.796148,0.078414,0.796148,0.232228,0.765552,0.377117,0.705537,0.507515,0.618408,0.618408,0.507515,0.705537,0.377117,0.765552,0.232228,0.796148,0.078414,0.796148,-0.078414,0.765552,-0.232228,0.705537,-0.377117,0.618408,-0.507515,0.507515,-0.618408,0.377117,-0.705537,0.232228,-0.765552,0.078414,-0.796148,0.000000,-0.796148,0.000000,-0.800000,-0.600000,-0.800000,
-0.603843,-0.796157,-0.639018,-0.796157,-0.711114,-0.766294,-0.766294,-0.711114,-0.796157,-0.639018,-0.796157,-0.603843,-0.800000,-0.600000,-0.800000,0.600000,-0.796157,0.603843,-0.796157,0.639018,-0.766294,0.711114,-0.711114,0.766294,-0.639018,0.796157,-0.603843,0.796157,-0.600000,0.800000,0.000000,0.800000,0.000000,0.796148,0.000000,0.796148,$1*%
G04 Aperture macros list end*
%ADD10C,0.704000*%
%ADD11C,1.900000*%
%ADD12C,2.600000*%
%ADD13C,5.050000*%
%ADD14C,2.200000*%
%ADD15C,1.850000*%
%ADD16RoundRect,0.200000X-0.600000X-0.600000X0.600000X-0.600000X0.600000X0.600000X-0.600000X0.600000X0*%
%ADD17C,1.600000*%
%ADD18FreePoly0,0.000000*%
%ADD19FreePoly1,0.000000*%
G04 APERTURE END LIST*
D10*
%TO.C,U1*%
X189709500Y-102029000D03*
X188959500Y-101254000D03*
X188959500Y-102029000D03*
X188959500Y-102804000D03*
X187909500Y-101254000D03*
X187909500Y-102029000D03*
X187909500Y-102804000D03*
X187159500Y-102029000D03*
%TD*%
D11*
%TO.C,SW4*%
X93184500Y-72836000D03*
D12*
X93684500Y-77986000D03*
D13*
X98684500Y-72836000D03*
D11*
X104184500Y-72836000D03*
D14*
X98684500Y-66936000D03*
X103684500Y-69036000D03*
%TD*%
%TO.C,A1*%
X184599500Y-32429000D03*
D15*
X184899500Y-35459000D03*
X189749500Y-35459000D03*
D14*
X190049500Y-32429000D03*
D16*
X178434500Y-32299000D03*
D17*
X178434500Y-34839000D03*
D18*
X178434500Y-37379000D03*
D17*
X178434500Y-39919000D03*
X178434500Y-42459000D03*
X178434500Y-44999000D03*
X178434500Y-47539000D03*
D18*
X178434500Y-50079000D03*
D17*
X178434500Y-52619000D03*
X178434500Y-55159000D03*
X178434500Y-57699000D03*
X178434500Y-60239000D03*
D18*
X178434500Y-62779000D03*
D17*
X178434500Y-65319000D03*
X178434500Y-67859000D03*
X178434500Y-70399000D03*
X178434500Y-72939000D03*
D18*
X178434500Y-75479000D03*
D17*
X178434500Y-78019000D03*
X178434500Y-80559000D03*
X196214500Y-80559000D03*
X196214500Y-78019000D03*
D19*
X196214500Y-75479000D03*
D17*
X196214500Y-72939000D03*
X196214500Y-70399000D03*
X196214500Y-67859000D03*
X196214500Y-65319000D03*
D19*
X196214500Y-62779000D03*
D17*
X196214500Y-60239000D03*
X196214500Y-57699000D03*
X196214500Y-55159000D03*
X196214500Y-52619000D03*
D19*
X196214500Y-50079000D03*
D17*
X196214500Y-47539000D03*
X196214500Y-44999000D03*
X196214500Y-42459000D03*
X196214500Y-39919000D03*
D19*
X196214500Y-37379000D03*
D17*
X196214500Y-34839000D03*
X196214500Y-32299000D03*
%TD*%
D11*
%TO.C,SW11*%
X120209500Y-135931000D03*
D12*
X120709500Y-141081000D03*
D13*
X125709500Y-135931000D03*
D11*
X131209500Y-135931000D03*
D14*
X125709500Y-130031000D03*
X130709500Y-132131000D03*
%TD*%
D11*
%TO.C,SW1*%
X93184500Y-41288500D03*
D12*
X93684500Y-46438500D03*
D13*
X98684500Y-41288500D03*
D11*
X104184500Y-41288500D03*
D14*
X98684500Y-35388500D03*
X103684500Y-37488500D03*
%TD*%
D11*
%TO.C,SW5*%
X120209500Y-72836000D03*
D12*
X120709500Y-77986000D03*
D13*
X125709500Y-72836000D03*
D11*
X131209500Y-72836000D03*
D14*
X125709500Y-66936000D03*
X130709500Y-69036000D03*
%TD*%
D11*
%TO.C,SW9*%
X147184500Y-104383500D03*
D12*
X147684500Y-109533500D03*
D13*
X152684500Y-104383500D03*
D11*
X158184500Y-104383500D03*
D14*
X152684500Y-98483500D03*
X157684500Y-100583500D03*
%TD*%
D11*
%TO.C,SW3*%
X147184500Y-41288500D03*
D12*
X147684500Y-46438500D03*
D13*
X152684500Y-41288500D03*
D11*
X158184500Y-41288500D03*
D14*
X152684500Y-35388500D03*
X157684500Y-37488500D03*
%TD*%
D11*
%TO.C,SW8*%
X120209500Y-104383500D03*
D12*
X120709500Y-109533500D03*
D13*
X125709500Y-104383500D03*
D11*
X131209500Y-104383500D03*
D14*
X125709500Y-98483500D03*
X130709500Y-100583500D03*
%TD*%
D11*
%TO.C,SW2*%
X120184500Y-41288500D03*
D12*
X120684500Y-46438500D03*
D13*
X125684500Y-41288500D03*
D11*
X131184500Y-41288500D03*
D14*
X125684500Y-35388500D03*
X130684500Y-37488500D03*
%TD*%
D11*
%TO.C,SW7*%
X93184500Y-104383500D03*
D12*
X93684500Y-109533500D03*
D13*
X98684500Y-104383500D03*
D11*
X104184500Y-104383500D03*
D14*
X98684500Y-98483500D03*
X103684500Y-100583500D03*
%TD*%
D11*
%TO.C,SW12*%
X147184500Y-135931000D03*
D12*
X147684500Y-141081000D03*
D13*
X152684500Y-135931000D03*
D11*
X158184500Y-135931000D03*
D14*
X152684500Y-130031000D03*
X157684500Y-132131000D03*
%TD*%
D11*
%TO.C,SW10*%
X93184500Y-135931000D03*
D12*
X93684500Y-141081000D03*
D13*
X98684500Y-135931000D03*
D11*
X104184500Y-135931000D03*
D14*
X98684500Y-130031000D03*
X103684500Y-132131000D03*
%TD*%
D11*
%TO.C,SW6*%
X147209500Y-72836000D03*
D12*
X147709500Y-77986000D03*
D13*
X152709500Y-72836000D03*
D11*
X158209500Y-72836000D03*
D14*
X152709500Y-66936000D03*
X157709500Y-69036000D03*
%TD*%
M02*
