M48
; DRILL file {KiCad 9.0.6} date 2026-03-28T13:57:54+0100
; FORMAT={-:-/ absolute / metric / decimal}
; #@! TF.CreationDate,2026-03-28T13:57:54+01:00
; #@! TF.GenerationSoftware,Kicad,Pcbnew,9.0.6
; #@! TF.FileFunction,NonPlated,1,2,NPTH
FMAT,2
METRIC
; #@! TA.AperFunction,NonPlated,NPTH,ComponentDrill
T1C1.850
; #@! TA.AperFunction,NonPlated,NPTH,ComponentDrill
T2C1.900
; #@! TA.AperFunction,NonPlated,NPTH,ComponentDrill
T3C2.200
; #@! TA.AperFunction,NonPlated,NPTH,ComponentDrill
T4C5.050
%
G90
G05
T1
X184.899Y-35.459
X189.749Y-35.459
T2
X93.184Y-41.288
X93.184Y-72.836
X93.184Y-104.383
X93.184Y-135.931
X104.184Y-41.288
X104.184Y-72.836
X104.184Y-104.383
X104.184Y-135.931
X120.184Y-41.288
X120.209Y-72.836
X120.209Y-104.383
X120.209Y-135.931
X131.184Y-41.288
X131.209Y-72.836
X131.209Y-104.383
X131.209Y-135.931
X147.184Y-41.288
X147.184Y-104.383
X147.184Y-135.931
X147.209Y-72.836
X158.184Y-41.288
X158.184Y-104.383
X158.184Y-135.931
X158.209Y-72.836
T3
X184.599Y-32.429
X190.049Y-32.429
T4
X98.684Y-41.288
X98.684Y-72.836
X98.684Y-104.383
X98.684Y-135.931
X125.684Y-41.288
X125.709Y-72.836
X125.709Y-104.383
X125.709Y-135.931
X152.684Y-41.288
X152.684Y-104.383
X152.684Y-135.931
X152.709Y-72.836
M30
