M48
; DRILL file {KiCad 9.0.6} date 2026-03-28T13:57:54+0100
; FORMAT={-:-/ absolute / metric / decimal}
; #@! TF.CreationDate,2026-03-28T13:57:54+01:00
; #@! TF.GenerationSoftware,Kicad,Pcbnew,9.0.6
; #@! TF.FileFunction,Plated,1,2,PTH
FMAT,2
METRIC
; #@! TA.AperFunction,Plated,PTH,ComponentDrill
T1C0.200
; #@! TA.AperFunction,Plated,PTH,ViaDrill
T2C0.300
; #@! TA.AperFunction,Plated,PTH,ComponentDrill
T3C1.000
; #@! TA.AperFunction,Plated,PTH,ComponentDrill
T4C1.200
; #@! TA.AperFunction,Plated,PTH,ComponentDrill
T5C1.600
%
G90
G05
T1
X187.159Y-102.029
X187.909Y-101.254
X187.909Y-102.029
X187.909Y-102.804
X188.959Y-101.254
X188.959Y-102.029
X188.959Y-102.804
X189.709Y-102.029
T2
X89.434Y-95.96
X89.434Y-127.507
X89.434Y-146.065
X90.084Y-145.245
X91.26Y-95.96
X91.26Y-127.507
X93.65Y-125.9
X93.65Y-157.447
X93.675Y-62.805
X93.675Y-94.352
X97.285Y-60.47
X97.285Y-92.017
X97.285Y-123.565
X100.45Y-57.288
X100.45Y-88.836
X100.45Y-120.383
X100.45Y-151.931
X100.93Y-56.238
X100.93Y-87.786
X100.93Y-119.334
X100.93Y-150.881
X101.49Y-54.722
X101.49Y-86.27
X101.49Y-117.817
X101.49Y-149.365
X109.027Y-137.273
X109.049Y-74.201
X109.1Y-105.799
X109.398Y-43.002
X109.98Y-50.165
X116.434Y-127.407
X116.434Y-146.065
X116.459Y-95.96
X117.084Y-145.245
X118.26Y-127.407
X118.285Y-95.96
X120.675Y-125.885
X120.675Y-157.433
X120.7Y-62.79
X120.7Y-94.338
X124.31Y-60.47
X124.31Y-92.017
X124.335Y-123.565
X127.45Y-57.288
X127.475Y-88.836
X127.475Y-120.383
X127.475Y-151.931
X127.93Y-56.238
X127.955Y-87.786
X127.955Y-119.334
X127.955Y-150.881
X128.49Y-54.722
X128.515Y-86.27
X128.515Y-117.817
X128.515Y-149.365
X136.025Y-105.724
X136.052Y-137.298
X136.074Y-74.226
X136.398Y-43.002
X136.981Y-50.165
X143.434Y-127.507
X143.434Y-146.076
X143.459Y-95.96
X144.084Y-145.255
X145.26Y-127.507
X145.285Y-95.96
X147.65Y-125.9
X147.65Y-157.447
X147.675Y-62.805
X147.675Y-94.352
X151.285Y-60.47
X151.3Y-123.55
X151.31Y-92.017
X154.45Y-57.288
X154.45Y-120.383
X154.45Y-151.931
X154.475Y-88.836
X154.93Y-56.238
X154.93Y-119.334
X154.93Y-150.881
X154.955Y-87.786
X155.465Y-149.265
X155.49Y-54.722
X155.49Y-117.817
X155.515Y-86.27
X163.048Y-42.652
X163.049Y-74.201
X163.05Y-105.749
X163.052Y-137.298
X163.981Y-50.165
X166.334Y-59.0
X166.334Y-87.8
X166.334Y-119.3
X166.334Y-150.834
X167.15Y-151.9
X167.184Y-61.5
X167.184Y-88.836
X167.2Y-120.383
X168.109Y-147.069
X168.4Y-79.4
X168.623Y-84.308
X169.608Y-85.328
X169.891Y-147.291
X171.425Y-112.205
X171.517Y-114.117
X171.791Y-115.714
X171.791Y-147.261
X181.7Y-100.0
X185.875Y-126.275
X192.625Y-101.6
X195.55Y-100.0
T3
X178.434Y-32.299
X178.434Y-34.839
X178.434Y-37.379
X178.434Y-39.919
X178.434Y-42.459
X178.434Y-44.999
X178.434Y-47.539
X178.434Y-50.079
X178.434Y-52.619
X178.434Y-55.159
X178.434Y-57.699
X178.434Y-60.239
X178.434Y-62.779
X178.434Y-65.319
X178.434Y-67.859
X178.434Y-70.399
X178.434Y-72.939
X178.434Y-75.479
X178.434Y-78.019
X178.434Y-80.559
X196.214Y-32.299
X196.214Y-34.839
X196.214Y-37.379
X196.214Y-39.919
X196.214Y-42.459
X196.214Y-44.999
X196.214Y-47.539
X196.214Y-50.079
X196.214Y-52.619
X196.214Y-55.159
X196.214Y-57.699
X196.214Y-60.239
X196.214Y-62.779
X196.214Y-65.319
X196.214Y-67.859
X196.214Y-70.399
X196.214Y-72.939
X196.214Y-75.479
X196.214Y-78.019
X196.214Y-80.559
T4
X98.684Y-35.389
X98.684Y-66.936
X98.684Y-98.483
X98.684Y-130.031
X103.684Y-37.488
X103.684Y-69.036
X103.684Y-100.584
X103.684Y-132.131
X125.684Y-35.389
X125.709Y-66.936
X125.709Y-98.483
X125.709Y-130.031
X130.684Y-37.488
X130.709Y-69.036
X130.709Y-100.584
X130.709Y-132.131
X152.684Y-35.389
X152.684Y-98.483
X152.684Y-130.031
X152.709Y-66.936
X157.684Y-37.488
X157.684Y-100.584
X157.684Y-132.131
X157.709Y-69.036
T5
X93.684Y-46.438
X93.684Y-77.986
X93.684Y-109.533
X93.684Y-141.081
X120.684Y-46.438
X120.709Y-77.986
X120.709Y-109.533
X120.709Y-141.081
X147.684Y-46.438
X147.684Y-109.533
X147.684Y-141.081
X147.709Y-77.986
M30
