%TF.GenerationSoftware,KiCad,Pcbnew,9.0.6*%
%TF.CreationDate,2026-06-23T17:26:14+02:00*%
%TF.ProjectId,oled_keyboard,6f6c6564-5f6b-4657-9962-6f6172642e6b,rev?*%
%TF.SameCoordinates,PX4e0ee90PY7c745a0*%
%TF.FileFunction,Soldermask,Bot*%
%TF.FilePolarity,Negative*%
%FSLAX46Y46*%
G04 Gerber Fmt 4.6, Leading zero omitted, Abs format (unit mm)*
G04 Created by KiCad (PCBNEW 9.0.6) date 2026-06-23 17:26:14*
%MOMM*%
%LPD*%
G01*
G04 APERTURE LIST*
G04 Aperture macros list*
%AMRoundRect*
0 Rectangle with rounded corners*
0 $1 Rounding radius*
0 $2 $3 $4 $5 $6 $7 $8 $9 X,Y pos of 4 corners*
0 Add a 4 corners polygon primitive as box body*
4,1,4,$2,$3,$4,$5,$6,$7,$8,$9,$2,$3,0*
0 Add four circle primitives for the rounded corners*
1,1,$1+$1,$2,$3*
1,1,$1+$1,$4,$5*
1,1,$1+$1,$6,$7*
1,1,$1+$1,$8,$9*
0 Add four rect primitives between the rounded corners*
20,1,$1+$1,$2,$3,$4,$5,0*
20,1,$1+$1,$4,$5,$6,$7,0*
20,1,$1+$1,$6,$7,$8,$9,0*
20,1,$1+$1,$8,$9,$2,$3,0*%
%AMFreePoly0*
4,1,37,0.603843,0.796157,0.639018,0.796157,0.711114,0.766294,0.766294,0.711114,0.796157,0.639018,0.796157,0.603843,0.800000,0.600000,0.800000,-0.600000,0.796157,-0.603843,0.796157,-0.639018,0.766294,-0.711114,0.711114,-0.766294,0.639018,-0.796157,0.603843,-0.796157,0.600000,-0.800000,0.000000,-0.800000,0.000000,-0.796148,-0.078414,-0.796148,-0.232228,-0.765552,-0.377117,-0.705537,
-0.507515,-0.618408,-0.618408,-0.507515,-0.705537,-0.377117,-0.765552,-0.232228,-0.796148,-0.078414,-0.796148,0.078414,-0.765552,0.232228,-0.705537,0.377117,-0.618408,0.507515,-0.507515,0.618408,-0.377117,0.705537,-0.232228,0.765552,-0.078414,0.796148,0.000000,0.796148,0.000000,0.800000,0.600000,0.800000,0.603843,0.796157,0.603843,0.796157,$1*%
%AMFreePoly1*
4,1,37,0.000000,0.796148,0.078414,0.796148,0.232228,0.765552,0.377117,0.705537,0.507515,0.618408,0.618408,0.507515,0.705537,0.377117,0.765552,0.232228,0.796148,0.078414,0.796148,-0.078414,0.765552,-0.232228,0.705537,-0.377117,0.618408,-0.507515,0.507515,-0.618408,0.377117,-0.705537,0.232228,-0.765552,0.078414,-0.796148,0.000000,-0.796148,0.000000,-0.800000,-0.600000,-0.800000,
-0.603843,-0.796157,-0.639018,-0.796157,-0.711114,-0.766294,-0.766294,-0.711114,-0.796157,-0.639018,-0.796157,-0.603843,-0.800000,-0.600000,-0.800000,0.600000,-0.796157,0.603843,-0.796157,0.639018,-0.766294,0.711114,-0.711114,0.766294,-0.639018,0.796157,-0.603843,0.796157,-0.600000,0.800000,0.000000,0.800000,0.000000,0.796148,0.000000,0.796148,$1*%
G04 Aperture macros list end*
%ADD10C,2.200000*%
%ADD11C,1.850000*%
%ADD12RoundRect,0.200000X-0.600000X-0.600000X0.600000X-0.600000X0.600000X0.600000X-0.600000X0.600000X0*%
%ADD13C,1.600000*%
%ADD14FreePoly0,0.000000*%
%ADD15FreePoly1,0.000000*%
%ADD16C,1.900000*%
%ADD17C,5.050000*%
%ADD18C,0.504000*%
%ADD19RoundRect,0.102000X-0.150000X-0.650000X0.150000X-0.650000X0.150000X0.650000X-0.150000X0.650000X0*%
%ADD20RoundRect,0.102000X-0.950000X-1.100000X0.950000X-1.100000X0.950000X1.100000X-0.950000X1.100000X0*%
%ADD21RoundRect,0.225000X-0.225000X-0.250000X0.225000X-0.250000X0.225000X0.250000X-0.225000X0.250000X0*%
%ADD22RoundRect,0.225000X0.225000X0.250000X-0.225000X0.250000X-0.225000X-0.250000X0.225000X-0.250000X0*%
%ADD23RoundRect,0.225000X0.250000X-0.225000X0.250000X0.225000X-0.250000X0.225000X-0.250000X-0.225000X0*%
%ADD24RoundRect,0.200000X0.275000X-0.200000X0.275000X0.200000X-0.275000X0.200000X-0.275000X-0.200000X0*%
G04 APERTURE END LIST*
D10*
%TO.C,A1*%
X11925000Y97962500D03*
D11*
X12225000Y94932500D03*
X17075000Y94932500D03*
D10*
X17375000Y97962500D03*
D12*
X5760000Y98092500D03*
D13*
X5760000Y95552500D03*
D14*
X5760000Y93012500D03*
D13*
X5760000Y90472500D03*
X5760000Y87932500D03*
X5760000Y85392500D03*
X5760000Y82852500D03*
D14*
X5760000Y80312500D03*
D13*
X5760000Y77772500D03*
X5760000Y75232500D03*
X5760000Y72692500D03*
X5760000Y70152500D03*
D14*
X5760000Y67612500D03*
D13*
X5760000Y65072500D03*
X5760000Y62532500D03*
X5760000Y59992500D03*
X5760000Y57452500D03*
D14*
X5760000Y54912500D03*
D13*
X5760000Y52372500D03*
X5760000Y49832500D03*
X23540000Y49832500D03*
X23540000Y52372500D03*
D15*
X23540000Y54912500D03*
D13*
X23540000Y57452500D03*
X23540000Y59992500D03*
X23540000Y62532500D03*
X23540000Y65072500D03*
D15*
X23540000Y67612500D03*
D13*
X23540000Y70152500D03*
X23540000Y72692500D03*
X23540000Y75232500D03*
X23540000Y77772500D03*
D15*
X23540000Y80312500D03*
D13*
X23540000Y82852500D03*
X23540000Y85392500D03*
X23540000Y87932500D03*
X23540000Y90472500D03*
D15*
X23540000Y93012500D03*
D13*
X23540000Y95552500D03*
X23540000Y98092500D03*
%TD*%
D16*
%TO.C,SW4*%
X35625000Y59100000D03*
D17*
X41125000Y59100000D03*
D16*
X46625000Y59100000D03*
D10*
X41125000Y65000000D03*
X46125000Y62900000D03*
%TD*%
D16*
%TO.C,SW1*%
X35650000Y79900000D03*
D17*
X41150000Y79900000D03*
D16*
X46650000Y79900000D03*
D10*
X41150000Y85800000D03*
X46150000Y83700000D03*
%TD*%
D16*
%TO.C,SW5*%
X54825000Y59100000D03*
D17*
X60325000Y59100000D03*
D16*
X65825000Y59100000D03*
D10*
X60325000Y65000000D03*
X65325000Y62900000D03*
%TD*%
D16*
%TO.C,SW9*%
X74025000Y38300000D03*
D17*
X79525000Y38300000D03*
D16*
X85025000Y38300000D03*
D10*
X79525000Y44200000D03*
X84525000Y42100000D03*
%TD*%
D18*
%TO.C,U1*%
X14738500Y28800000D03*
X13988500Y29575000D03*
X13988500Y28800000D03*
X13988500Y28025000D03*
X12938500Y29575000D03*
X12938500Y28800000D03*
X12938500Y28025000D03*
X12188500Y28800000D03*
%TD*%
D16*
%TO.C,SW3*%
X74050000Y79900000D03*
D17*
X79550000Y79900000D03*
D16*
X85050000Y79900000D03*
D10*
X79550000Y85800000D03*
X84550000Y83700000D03*
%TD*%
D16*
%TO.C,SW8*%
X54825000Y38300000D03*
D17*
X60325000Y38300000D03*
D16*
X65825000Y38300000D03*
D10*
X60325000Y44200000D03*
X65325000Y42100000D03*
%TD*%
D16*
%TO.C,SW11*%
X54825000Y17500000D03*
D17*
X60325000Y17500000D03*
D16*
X65825000Y17500000D03*
D10*
X60325000Y23400000D03*
X65325000Y21300000D03*
%TD*%
D16*
%TO.C,SW2*%
X54850000Y79900000D03*
D17*
X60350000Y79900000D03*
D16*
X65850000Y79900000D03*
D10*
X60350000Y85800000D03*
X65350000Y83700000D03*
%TD*%
D16*
%TO.C,SW7*%
X35625000Y38300000D03*
D17*
X41125000Y38300000D03*
D16*
X46625000Y38300000D03*
D10*
X41125000Y44200000D03*
X46125000Y42100000D03*
%TD*%
D16*
%TO.C,SW12*%
X74025000Y17500000D03*
D17*
X79525000Y17500000D03*
D16*
X85025000Y17500000D03*
D10*
X79525000Y23400000D03*
X84525000Y21300000D03*
%TD*%
D16*
%TO.C,SW10*%
X35625000Y17500000D03*
D17*
X41125000Y17500000D03*
D16*
X46625000Y17500000D03*
D10*
X41125000Y23400000D03*
X46125000Y21300000D03*
%TD*%
D16*
%TO.C,SW6*%
X74025000Y59100000D03*
D17*
X79525000Y59100000D03*
D16*
X85025000Y59100000D03*
D10*
X79525000Y65000000D03*
X84525000Y62900000D03*
%TD*%
D19*
%TO.C,J8*%
X65125000Y13500000D03*
X64625000Y13500000D03*
X64125000Y13500000D03*
X63625000Y13500000D03*
X63125000Y13500000D03*
X62625000Y13500000D03*
X62125000Y13500000D03*
X61625000Y13500000D03*
X61125000Y13500000D03*
X60625000Y13500000D03*
X60125000Y13500000D03*
X59625000Y13500000D03*
X59125000Y13500000D03*
X58625000Y13500000D03*
X58125000Y13500000D03*
X57625000Y13500000D03*
X57125000Y13500000D03*
X56625000Y13500000D03*
X56125000Y13500000D03*
X55625000Y13500000D03*
D20*
X53675000Y10250000D03*
X67075000Y10250000D03*
%TD*%
D21*
%TO.C,C41*%
X67773223Y58500000D03*
X69323223Y58500000D03*
%TD*%
%TO.C,C37*%
X67773223Y56893705D03*
X69323223Y56893705D03*
%TD*%
D22*
%TO.C,C27*%
X35725000Y15356500D03*
X34175000Y15356500D03*
%TD*%
D19*
%TO.C,J2*%
X45925000Y55100000D03*
X45425000Y55100000D03*
X44925000Y55100000D03*
X44425000Y55100000D03*
X43925000Y55100000D03*
X43425000Y55100000D03*
X42925000Y55100000D03*
X42425000Y55100000D03*
X41925000Y55100000D03*
X41425000Y55100000D03*
X40925000Y55100000D03*
X40425000Y55100000D03*
X39925000Y55100000D03*
X39425000Y55100000D03*
X38925000Y55100000D03*
X38425000Y55100000D03*
X37925000Y55100000D03*
X37425000Y55100000D03*
X36925000Y55100000D03*
X36425000Y55100000D03*
D20*
X34475000Y51850000D03*
X47875000Y51850000D03*
%TD*%
D19*
%TO.C,J11*%
X84325000Y34300000D03*
X83825000Y34300000D03*
X83325000Y34300000D03*
X82825000Y34300000D03*
X82325000Y34300000D03*
X81825000Y34300000D03*
X81325000Y34300000D03*
X80825000Y34300000D03*
X80325000Y34300000D03*
X79825000Y34300000D03*
X79325000Y34300000D03*
X78825000Y34300000D03*
X78325000Y34300000D03*
X77825000Y34300000D03*
X77325000Y34300000D03*
X76825000Y34300000D03*
X76325000Y34300000D03*
X75825000Y34300000D03*
X75325000Y34300000D03*
X74825000Y34300000D03*
D20*
X72875000Y31050000D03*
X86275000Y31050000D03*
%TD*%
D21*
%TO.C,C21*%
X48573223Y16900000D03*
X50123223Y16900000D03*
%TD*%
D22*
%TO.C,C46*%
X74125000Y36156500D03*
X72575000Y36156500D03*
%TD*%
D21*
%TO.C,C57*%
X86973223Y56893705D03*
X88523223Y56893705D03*
%TD*%
D19*
%TO.C,J12*%
X84325000Y13500000D03*
X83825000Y13500000D03*
X83325000Y13500000D03*
X82825000Y13500000D03*
X82325000Y13500000D03*
X81825000Y13500000D03*
X81325000Y13500000D03*
X80825000Y13500000D03*
X80325000Y13500000D03*
X79825000Y13500000D03*
X79325000Y13500000D03*
X78825000Y13500000D03*
X78325000Y13500000D03*
X77825000Y13500000D03*
X77325000Y13500000D03*
X76825000Y13500000D03*
X76325000Y13500000D03*
X75825000Y13500000D03*
X75325000Y13500000D03*
X74825000Y13500000D03*
D20*
X72875000Y10250000D03*
X86275000Y10250000D03*
%TD*%
D22*
%TO.C,C43*%
X54925000Y15356500D03*
X53375000Y15356500D03*
%TD*%
D23*
%TO.C,C50*%
X75925000Y36500000D03*
X75925000Y38050000D03*
%TD*%
%TO.C,C25*%
X37525000Y15700000D03*
X37525000Y17250000D03*
%TD*%
D21*
%TO.C,C35*%
X67773223Y15293705D03*
X69323223Y15293705D03*
%TD*%
D19*
%TO.C,J6*%
X65125000Y55100000D03*
X64625000Y55100000D03*
X64125000Y55100000D03*
X63625000Y55100000D03*
X63125000Y55100000D03*
X62625000Y55100000D03*
X62125000Y55100000D03*
X61625000Y55100000D03*
X61125000Y55100000D03*
X60625000Y55100000D03*
X60125000Y55100000D03*
X59625000Y55100000D03*
X59125000Y55100000D03*
X58625000Y55100000D03*
X58125000Y55100000D03*
X57625000Y55100000D03*
X57125000Y55100000D03*
X56625000Y55100000D03*
X56125000Y55100000D03*
X55625000Y55100000D03*
D20*
X53675000Y51850000D03*
X67075000Y51850000D03*
%TD*%
D24*
%TO.C,R15*%
X83069531Y57250000D03*
X83069531Y58900000D03*
%TD*%
D23*
%TO.C,C39*%
X56725000Y15700000D03*
X56725000Y17250000D03*
%TD*%
D19*
%TO.C,J4*%
X45925000Y13500000D03*
X45425000Y13500000D03*
X44925000Y13500000D03*
X44425000Y13500000D03*
X43925000Y13500000D03*
X43425000Y13500000D03*
X42925000Y13500000D03*
X42425000Y13500000D03*
X41925000Y13500000D03*
X41425000Y13500000D03*
X40925000Y13500000D03*
X40425000Y13500000D03*
X39925000Y13500000D03*
X39425000Y13500000D03*
X38925000Y13500000D03*
X38425000Y13500000D03*
X37925000Y13500000D03*
X37425000Y13500000D03*
X36925000Y13500000D03*
X36425000Y13500000D03*
D20*
X34475000Y10250000D03*
X47875000Y10250000D03*
%TD*%
D21*
%TO.C,C26*%
X48573223Y37700000D03*
X50123223Y37700000D03*
%TD*%
D23*
%TO.C,C22*%
X37525000Y36500000D03*
X37525000Y38050000D03*
%TD*%
D21*
%TO.C,C58*%
X86973223Y37700000D03*
X88523223Y37700000D03*
%TD*%
D24*
%TO.C,R1*%
X44669531Y57250000D03*
X44669531Y58900000D03*
%TD*%
D22*
%TO.C,C5*%
X35725000Y56956500D03*
X34175000Y56956500D03*
%TD*%
%TO.C,C28*%
X54950000Y77756500D03*
X53400000Y77756500D03*
%TD*%
D23*
%TO.C,C1*%
X37550000Y78100000D03*
X37550000Y79650000D03*
%TD*%
D21*
%TO.C,C19*%
X48573223Y58500000D03*
X50123223Y58500000D03*
%TD*%
%TO.C,C53*%
X86973223Y58500000D03*
X88523223Y58500000D03*
%TD*%
%TO.C,C42*%
X67773223Y37700000D03*
X69323223Y37700000D03*
%TD*%
D24*
%TO.C,R16*%
X83069531Y36450000D03*
X83069531Y38100000D03*
%TD*%
%TO.C,R10*%
X63894531Y78050000D03*
X63894531Y79700000D03*
%TD*%
D21*
%TO.C,C51*%
X86973223Y15293705D03*
X88523223Y15293705D03*
%TD*%
D22*
%TO.C,C29*%
X54925000Y56956500D03*
X53375000Y56956500D03*
%TD*%
D23*
%TO.C,C17*%
X37525000Y57300000D03*
X37525000Y58850000D03*
%TD*%
%TO.C,C34*%
X56725000Y36500000D03*
X56725000Y38050000D03*
%TD*%
%TO.C,C33*%
X56725000Y57300000D03*
X56725000Y58850000D03*
%TD*%
%TO.C,C32*%
X56750000Y78100000D03*
X56750000Y79650000D03*
%TD*%
D19*
%TO.C,J7*%
X65125000Y34300000D03*
X64625000Y34300000D03*
X64125000Y34300000D03*
X63625000Y34300000D03*
X63125000Y34300000D03*
X62625000Y34300000D03*
X62125000Y34300000D03*
X61625000Y34300000D03*
X61125000Y34300000D03*
X60625000Y34300000D03*
X60125000Y34300000D03*
X59625000Y34300000D03*
X59125000Y34300000D03*
X58625000Y34300000D03*
X58125000Y34300000D03*
X57625000Y34300000D03*
X57125000Y34300000D03*
X56625000Y34300000D03*
X56125000Y34300000D03*
X55625000Y34300000D03*
D20*
X53675000Y31050000D03*
X67075000Y31050000D03*
%TD*%
D19*
%TO.C,J5*%
X65150000Y75900000D03*
X64650000Y75900000D03*
X64150000Y75900000D03*
X63650000Y75900000D03*
X63150000Y75900000D03*
X62650000Y75900000D03*
X62150000Y75900000D03*
X61650000Y75900000D03*
X61150000Y75900000D03*
X60650000Y75900000D03*
X60150000Y75900000D03*
X59650000Y75900000D03*
X59150000Y75900000D03*
X58650000Y75900000D03*
X58150000Y75900000D03*
X57650000Y75900000D03*
X57150000Y75900000D03*
X56650000Y75900000D03*
X56150000Y75900000D03*
X55650000Y75900000D03*
D20*
X53700000Y72650000D03*
X67100000Y72650000D03*
%TD*%
D24*
%TO.C,R11*%
X63869531Y57250000D03*
X63869531Y58900000D03*
%TD*%
D22*
%TO.C,C30*%
X54925000Y36156500D03*
X53375000Y36156500D03*
%TD*%
D21*
%TO.C,C56*%
X86998223Y79300000D03*
X88548223Y79300000D03*
%TD*%
%TO.C,C18*%
X48573223Y56893705D03*
X50123223Y56893705D03*
%TD*%
%TO.C,C23*%
X48573223Y15293705D03*
X50123223Y15293705D03*
%TD*%
%TO.C,C24*%
X48573223Y36093705D03*
X50123223Y36093705D03*
%TD*%
D24*
%TO.C,R14*%
X83094531Y78050000D03*
X83094531Y79700000D03*
%TD*%
%TO.C,R2*%
X44669531Y36450000D03*
X44669531Y38100000D03*
%TD*%
D21*
%TO.C,C54*%
X86973223Y36093705D03*
X88523223Y36093705D03*
%TD*%
D22*
%TO.C,C45*%
X74125000Y56956500D03*
X72575000Y56956500D03*
%TD*%
D19*
%TO.C,J10*%
X84325000Y55100000D03*
X83825000Y55100000D03*
X83325000Y55100000D03*
X82825000Y55100000D03*
X82325000Y55100000D03*
X81825000Y55100000D03*
X81325000Y55100000D03*
X80825000Y55100000D03*
X80325000Y55100000D03*
X79825000Y55100000D03*
X79325000Y55100000D03*
X78825000Y55100000D03*
X78325000Y55100000D03*
X77825000Y55100000D03*
X77325000Y55100000D03*
X76825000Y55100000D03*
X76325000Y55100000D03*
X75825000Y55100000D03*
X75325000Y55100000D03*
X74825000Y55100000D03*
D20*
X72875000Y51850000D03*
X86275000Y51850000D03*
%TD*%
D24*
%TO.C,R13*%
X63869531Y15650000D03*
X63869531Y17300000D03*
%TD*%
D22*
%TO.C,C3*%
X35750000Y77756500D03*
X34200000Y77756500D03*
%TD*%
D24*
%TO.C,R17*%
X83069531Y15650000D03*
X83069531Y17300000D03*
%TD*%
D21*
%TO.C,C40*%
X67798223Y79300000D03*
X69348223Y79300000D03*
%TD*%
%TO.C,C36*%
X67798223Y77693705D03*
X69348223Y77693705D03*
%TD*%
D19*
%TO.C,J9*%
X84350000Y75900000D03*
X83850000Y75900000D03*
X83350000Y75900000D03*
X82850000Y75900000D03*
X82350000Y75900000D03*
X81850000Y75900000D03*
X81350000Y75900000D03*
X80850000Y75900000D03*
X80350000Y75900000D03*
X79850000Y75900000D03*
X79350000Y75900000D03*
X78850000Y75900000D03*
X78350000Y75900000D03*
X77850000Y75900000D03*
X77350000Y75900000D03*
X76850000Y75900000D03*
X76350000Y75900000D03*
X75850000Y75900000D03*
X75350000Y75900000D03*
X74850000Y75900000D03*
D20*
X72900000Y72650000D03*
X86300000Y72650000D03*
%TD*%
D23*
%TO.C,C49*%
X75925000Y57300000D03*
X75925000Y58850000D03*
%TD*%
D21*
%TO.C,C31*%
X67773223Y16900000D03*
X69323223Y16900000D03*
%TD*%
D24*
%TO.C,R9*%
X44669531Y15650000D03*
X44669531Y17300000D03*
%TD*%
%TO.C,R12*%
X63869531Y36450000D03*
X63869531Y38100000D03*
%TD*%
D21*
%TO.C,C47*%
X86973223Y16900000D03*
X88523223Y16900000D03*
%TD*%
D19*
%TO.C,J1*%
X45950000Y75900000D03*
X45450000Y75900000D03*
X44950000Y75900000D03*
X44450000Y75900000D03*
X43950000Y75900000D03*
X43450000Y75900000D03*
X42950000Y75900000D03*
X42450000Y75900000D03*
X41950000Y75900000D03*
X41450000Y75900000D03*
X40950000Y75900000D03*
X40450000Y75900000D03*
X39950000Y75900000D03*
X39450000Y75900000D03*
X38950000Y75900000D03*
X38450000Y75900000D03*
X37950000Y75900000D03*
X37450000Y75900000D03*
X36950000Y75900000D03*
X36450000Y75900000D03*
D20*
X34500000Y72650000D03*
X47900000Y72650000D03*
%TD*%
D19*
%TO.C,J3*%
X45925000Y34300000D03*
X45425000Y34300000D03*
X44925000Y34300000D03*
X44425000Y34300000D03*
X43925000Y34300000D03*
X43425000Y34300000D03*
X42925000Y34300000D03*
X42425000Y34300000D03*
X41925000Y34300000D03*
X41425000Y34300000D03*
X40925000Y34300000D03*
X40425000Y34300000D03*
X39925000Y34300000D03*
X39425000Y34300000D03*
X38925000Y34300000D03*
X38425000Y34300000D03*
X37925000Y34300000D03*
X37425000Y34300000D03*
X36925000Y34300000D03*
X36425000Y34300000D03*
D20*
X34475000Y31050000D03*
X47875000Y31050000D03*
%TD*%
D21*
%TO.C,C52*%
X86998223Y77693705D03*
X88548223Y77693705D03*
%TD*%
D22*
%TO.C,C59*%
X74125000Y15356500D03*
X72575000Y15356500D03*
%TD*%
D21*
%TO.C,C38*%
X67773223Y36093705D03*
X69323223Y36093705D03*
%TD*%
%TO.C,C4*%
X48598223Y79300000D03*
X50148223Y79300000D03*
%TD*%
D24*
%TO.C,R3*%
X44694531Y78050000D03*
X44694531Y79700000D03*
%TD*%
D23*
%TO.C,C48*%
X75950000Y78100000D03*
X75950000Y79650000D03*
%TD*%
D21*
%TO.C,C2*%
X48598223Y77693705D03*
X50148223Y77693705D03*
%TD*%
D22*
%TO.C,C20*%
X35725000Y36156500D03*
X34175000Y36156500D03*
%TD*%
%TO.C,C44*%
X74150000Y77756500D03*
X72600000Y77756500D03*
%TD*%
D23*
%TO.C,C55*%
X75925000Y15700000D03*
X75925000Y17250000D03*
%TD*%
M02*
