%TF.GenerationSoftware,KiCad,Pcbnew,9.0.6*%
%TF.CreationDate,2026-06-23T17:26:14+02:00*%
%TF.ProjectId,oled_keyboard,6f6c6564-5f6b-4657-9962-6f6172642e6b,rev?*%
%TF.SameCoordinates,PX4e0ee90PY7c745a0*%
%TF.FileFunction,Legend,Bot*%
%TF.FilePolarity,Positive*%
%FSLAX46Y46*%
G04 Gerber Fmt 4.6, Leading zero omitted, Abs format (unit mm)*
G04 Created by KiCad (PCBNEW 9.0.6) date 2026-06-23 17:26:14*
%MOMM*%
%LPD*%
G01*
G04 APERTURE LIST*
%ADD10C,0.300000*%
%ADD11C,0.150000*%
%ADD12C,0.127000*%
%ADD13C,0.200000*%
%ADD14C,0.120000*%
G04 APERTURE END LIST*
D10*
X8877867Y42736252D02*
X8758820Y42974347D01*
X8758820Y42974347D02*
X8639772Y43093394D01*
X8639772Y43093394D02*
X8401677Y43212442D01*
X8401677Y43212442D02*
X7687391Y43212442D01*
X7687391Y43212442D02*
X7449296Y43093394D01*
X7449296Y43093394D02*
X7330248Y42974347D01*
X7330248Y42974347D02*
X7211200Y42736252D01*
X7211200Y42736252D02*
X7211200Y42379109D01*
X7211200Y42379109D02*
X7330248Y42141013D01*
X7330248Y42141013D02*
X7449296Y42021966D01*
X7449296Y42021966D02*
X7687391Y41902918D01*
X7687391Y41902918D02*
X8401677Y41902918D01*
X8401677Y41902918D02*
X8639772Y42021966D01*
X8639772Y42021966D02*
X8758820Y42141013D01*
X8758820Y42141013D02*
X8877867Y42379109D01*
X8877867Y42379109D02*
X8877867Y42736252D01*
X8877867Y40474347D02*
X8758820Y40712442D01*
X8758820Y40712442D02*
X8520724Y40831489D01*
X8520724Y40831489D02*
X6377867Y40831489D01*
X8758820Y38569584D02*
X8877867Y38807680D01*
X8877867Y38807680D02*
X8877867Y39283870D01*
X8877867Y39283870D02*
X8758820Y39521965D01*
X8758820Y39521965D02*
X8520724Y39641013D01*
X8520724Y39641013D02*
X7568343Y39641013D01*
X7568343Y39641013D02*
X7330248Y39521965D01*
X7330248Y39521965D02*
X7211200Y39283870D01*
X7211200Y39283870D02*
X7211200Y38807680D01*
X7211200Y38807680D02*
X7330248Y38569584D01*
X7330248Y38569584D02*
X7568343Y38450537D01*
X7568343Y38450537D02*
X7806439Y38450537D01*
X7806439Y38450537D02*
X8044534Y39641013D01*
X8877867Y36307680D02*
X6377867Y36307680D01*
X8758820Y36307680D02*
X8877867Y36545775D01*
X8877867Y36545775D02*
X8877867Y37021966D01*
X8877867Y37021966D02*
X8758820Y37260061D01*
X8758820Y37260061D02*
X8639772Y37379108D01*
X8639772Y37379108D02*
X8401677Y37498156D01*
X8401677Y37498156D02*
X7687391Y37498156D01*
X7687391Y37498156D02*
X7449296Y37379108D01*
X7449296Y37379108D02*
X7330248Y37260061D01*
X7330248Y37260061D02*
X7211200Y37021966D01*
X7211200Y37021966D02*
X7211200Y36545775D01*
X7211200Y36545775D02*
X7330248Y36307680D01*
X8877867Y33212441D02*
X6377867Y33212441D01*
X7925486Y32974346D02*
X8877867Y32260060D01*
X7211200Y32260060D02*
X8163581Y33212441D01*
X8758820Y30236250D02*
X8877867Y30474346D01*
X8877867Y30474346D02*
X8877867Y30950536D01*
X8877867Y30950536D02*
X8758820Y31188631D01*
X8758820Y31188631D02*
X8520724Y31307679D01*
X8520724Y31307679D02*
X7568343Y31307679D01*
X7568343Y31307679D02*
X7330248Y31188631D01*
X7330248Y31188631D02*
X7211200Y30950536D01*
X7211200Y30950536D02*
X7211200Y30474346D01*
X7211200Y30474346D02*
X7330248Y30236250D01*
X7330248Y30236250D02*
X7568343Y30117203D01*
X7568343Y30117203D02*
X7806439Y30117203D01*
X7806439Y30117203D02*
X8044534Y31307679D01*
X7211200Y29283870D02*
X8877867Y28688632D01*
X7211200Y28093393D02*
X8877867Y28688632D01*
X8877867Y28688632D02*
X9473105Y28926727D01*
X9473105Y28926727D02*
X9592153Y29045774D01*
X9592153Y29045774D02*
X9711200Y29283870D01*
X8877867Y27141012D02*
X6377867Y27141012D01*
X7330248Y27141012D02*
X7211200Y26902917D01*
X7211200Y26902917D02*
X7211200Y26426727D01*
X7211200Y26426727D02*
X7330248Y26188631D01*
X7330248Y26188631D02*
X7449296Y26069584D01*
X7449296Y26069584D02*
X7687391Y25950536D01*
X7687391Y25950536D02*
X8401677Y25950536D01*
X8401677Y25950536D02*
X8639772Y26069584D01*
X8639772Y26069584D02*
X8758820Y26188631D01*
X8758820Y26188631D02*
X8877867Y26426727D01*
X8877867Y26426727D02*
X8877867Y26902917D01*
X8877867Y26902917D02*
X8758820Y27141012D01*
X8877867Y24521965D02*
X8758820Y24760060D01*
X8758820Y24760060D02*
X8639772Y24879107D01*
X8639772Y24879107D02*
X8401677Y24998155D01*
X8401677Y24998155D02*
X7687391Y24998155D01*
X7687391Y24998155D02*
X7449296Y24879107D01*
X7449296Y24879107D02*
X7330248Y24760060D01*
X7330248Y24760060D02*
X7211200Y24521965D01*
X7211200Y24521965D02*
X7211200Y24164822D01*
X7211200Y24164822D02*
X7330248Y23926726D01*
X7330248Y23926726D02*
X7449296Y23807679D01*
X7449296Y23807679D02*
X7687391Y23688631D01*
X7687391Y23688631D02*
X8401677Y23688631D01*
X8401677Y23688631D02*
X8639772Y23807679D01*
X8639772Y23807679D02*
X8758820Y23926726D01*
X8758820Y23926726D02*
X8877867Y24164822D01*
X8877867Y24164822D02*
X8877867Y24521965D01*
X8877867Y21545774D02*
X7568343Y21545774D01*
X7568343Y21545774D02*
X7330248Y21664821D01*
X7330248Y21664821D02*
X7211200Y21902917D01*
X7211200Y21902917D02*
X7211200Y22379107D01*
X7211200Y22379107D02*
X7330248Y22617202D01*
X8758820Y21545774D02*
X8877867Y21783869D01*
X8877867Y21783869D02*
X8877867Y22379107D01*
X8877867Y22379107D02*
X8758820Y22617202D01*
X8758820Y22617202D02*
X8520724Y22736250D01*
X8520724Y22736250D02*
X8282629Y22736250D01*
X8282629Y22736250D02*
X8044534Y22617202D01*
X8044534Y22617202D02*
X7925486Y22379107D01*
X7925486Y22379107D02*
X7925486Y21783869D01*
X7925486Y21783869D02*
X7806439Y21545774D01*
X8877867Y20355297D02*
X7211200Y20355297D01*
X7687391Y20355297D02*
X7449296Y20236250D01*
X7449296Y20236250D02*
X7330248Y20117202D01*
X7330248Y20117202D02*
X7211200Y19879107D01*
X7211200Y19879107D02*
X7211200Y19641012D01*
X8877867Y17736250D02*
X6377867Y17736250D01*
X8758820Y17736250D02*
X8877867Y17974345D01*
X8877867Y17974345D02*
X8877867Y18450536D01*
X8877867Y18450536D02*
X8758820Y18688631D01*
X8758820Y18688631D02*
X8639772Y18807678D01*
X8639772Y18807678D02*
X8401677Y18926726D01*
X8401677Y18926726D02*
X7687391Y18926726D01*
X7687391Y18926726D02*
X7449296Y18807678D01*
X7449296Y18807678D02*
X7330248Y18688631D01*
X7330248Y18688631D02*
X7211200Y18450536D01*
X7211200Y18450536D02*
X7211200Y17974345D01*
X7211200Y17974345D02*
X7330248Y17736250D01*
X11236060Y43331490D02*
X12902727Y42736252D01*
X12902727Y42736252D02*
X11236060Y42141013D01*
X10402727Y41426728D02*
X10402727Y39879109D01*
X10402727Y39879109D02*
X11355108Y40712442D01*
X11355108Y40712442D02*
X11355108Y40355299D01*
X11355108Y40355299D02*
X11474156Y40117204D01*
X11474156Y40117204D02*
X11593203Y39998156D01*
X11593203Y39998156D02*
X11831299Y39879109D01*
X11831299Y39879109D02*
X12426537Y39879109D01*
X12426537Y39879109D02*
X12664632Y39998156D01*
X12664632Y39998156D02*
X12783680Y40117204D01*
X12783680Y40117204D02*
X12902727Y40355299D01*
X12902727Y40355299D02*
X12902727Y41069585D01*
X12902727Y41069585D02*
X12783680Y41307680D01*
X12783680Y41307680D02*
X12664632Y41426728D01*
X12664632Y38807680D02*
X12783680Y38688633D01*
X12783680Y38688633D02*
X12902727Y38807680D01*
X12902727Y38807680D02*
X12783680Y38926728D01*
X12783680Y38926728D02*
X12664632Y38807680D01*
X12664632Y38807680D02*
X12902727Y38807680D01*
X12902727Y36307681D02*
X12902727Y37736252D01*
X12902727Y37021966D02*
X10402727Y37021966D01*
X10402727Y37021966D02*
X10759870Y37260062D01*
X10759870Y37260062D02*
X10997965Y37498157D01*
X10997965Y37498157D02*
X11117013Y37736252D01*
X16927587Y43093394D02*
X14427587Y43093394D01*
X15379968Y43093394D02*
X15260920Y42855299D01*
X15260920Y42855299D02*
X15260920Y42379109D01*
X15260920Y42379109D02*
X15379968Y42141013D01*
X15379968Y42141013D02*
X15499016Y42021966D01*
X15499016Y42021966D02*
X15737111Y41902918D01*
X15737111Y41902918D02*
X16451397Y41902918D01*
X16451397Y41902918D02*
X16689492Y42021966D01*
X16689492Y42021966D02*
X16808540Y42141013D01*
X16808540Y42141013D02*
X16927587Y42379109D01*
X16927587Y42379109D02*
X16927587Y42855299D01*
X16927587Y42855299D02*
X16808540Y43093394D01*
X15260920Y41069585D02*
X16927587Y40474347D01*
X15260920Y39879108D02*
X16927587Y40474347D01*
X16927587Y40474347D02*
X17522825Y40712442D01*
X17522825Y40712442D02*
X17641873Y40831489D01*
X17641873Y40831489D02*
X17760920Y41069585D01*
X14427587Y37260061D02*
X16927587Y35593394D01*
X14427587Y35593394D02*
X16927587Y37260061D01*
X16927587Y34641013D02*
X15260920Y34641013D01*
X14427587Y34641013D02*
X14546635Y34760061D01*
X14546635Y34760061D02*
X14665682Y34641013D01*
X14665682Y34641013D02*
X14546635Y34521966D01*
X14546635Y34521966D02*
X14427587Y34641013D01*
X14427587Y34641013D02*
X14665682Y34641013D01*
X15260920Y33450537D02*
X16927587Y33450537D01*
X15499016Y33450537D02*
X15379968Y33331490D01*
X15379968Y33331490D02*
X15260920Y33093395D01*
X15260920Y33093395D02*
X15260920Y32736252D01*
X15260920Y32736252D02*
X15379968Y32498156D01*
X15379968Y32498156D02*
X15618063Y32379109D01*
X15618063Y32379109D02*
X16927587Y32379109D01*
X18690542Y43212442D02*
X18571495Y43093394D01*
X18571495Y43093394D02*
X18452447Y42855299D01*
X18452447Y42855299D02*
X18452447Y42260061D01*
X18452447Y42260061D02*
X18571495Y42021966D01*
X18571495Y42021966D02*
X18690542Y41902918D01*
X18690542Y41902918D02*
X18928638Y41783871D01*
X18928638Y41783871D02*
X19166733Y41783871D01*
X19166733Y41783871D02*
X19523876Y41902918D01*
X19523876Y41902918D02*
X20952447Y43331490D01*
X20952447Y43331490D02*
X20952447Y41783871D01*
X18452447Y40236252D02*
X18452447Y39998157D01*
X18452447Y39998157D02*
X18571495Y39760061D01*
X18571495Y39760061D02*
X18690542Y39641014D01*
X18690542Y39641014D02*
X18928638Y39521966D01*
X18928638Y39521966D02*
X19404828Y39402919D01*
X19404828Y39402919D02*
X20000066Y39402919D01*
X20000066Y39402919D02*
X20476257Y39521966D01*
X20476257Y39521966D02*
X20714352Y39641014D01*
X20714352Y39641014D02*
X20833400Y39760061D01*
X20833400Y39760061D02*
X20952447Y39998157D01*
X20952447Y39998157D02*
X20952447Y40236252D01*
X20952447Y40236252D02*
X20833400Y40474347D01*
X20833400Y40474347D02*
X20714352Y40593395D01*
X20714352Y40593395D02*
X20476257Y40712442D01*
X20476257Y40712442D02*
X20000066Y40831490D01*
X20000066Y40831490D02*
X19404828Y40831490D01*
X19404828Y40831490D02*
X18928638Y40712442D01*
X18928638Y40712442D02*
X18690542Y40593395D01*
X18690542Y40593395D02*
X18571495Y40474347D01*
X18571495Y40474347D02*
X18452447Y40236252D01*
X18690542Y38450538D02*
X18571495Y38331490D01*
X18571495Y38331490D02*
X18452447Y38093395D01*
X18452447Y38093395D02*
X18452447Y37498157D01*
X18452447Y37498157D02*
X18571495Y37260062D01*
X18571495Y37260062D02*
X18690542Y37141014D01*
X18690542Y37141014D02*
X18928638Y37021967D01*
X18928638Y37021967D02*
X19166733Y37021967D01*
X19166733Y37021967D02*
X19523876Y37141014D01*
X19523876Y37141014D02*
X20952447Y38569586D01*
X20952447Y38569586D02*
X20952447Y37021967D01*
X18452447Y34879110D02*
X18452447Y35355300D01*
X18452447Y35355300D02*
X18571495Y35593396D01*
X18571495Y35593396D02*
X18690542Y35712443D01*
X18690542Y35712443D02*
X19047685Y35950538D01*
X19047685Y35950538D02*
X19523876Y36069586D01*
X19523876Y36069586D02*
X20476257Y36069586D01*
X20476257Y36069586D02*
X20714352Y35950538D01*
X20714352Y35950538D02*
X20833400Y35831491D01*
X20833400Y35831491D02*
X20952447Y35593396D01*
X20952447Y35593396D02*
X20952447Y35117205D01*
X20952447Y35117205D02*
X20833400Y34879110D01*
X20833400Y34879110D02*
X20714352Y34760062D01*
X20714352Y34760062D02*
X20476257Y34641015D01*
X20476257Y34641015D02*
X19881019Y34641015D01*
X19881019Y34641015D02*
X19642923Y34760062D01*
X19642923Y34760062D02*
X19523876Y34879110D01*
X19523876Y34879110D02*
X19404828Y35117205D01*
X19404828Y35117205D02*
X19404828Y35593396D01*
X19404828Y35593396D02*
X19523876Y35831491D01*
X19523876Y35831491D02*
X19642923Y35950538D01*
X19642923Y35950538D02*
X19881019Y36069586D01*
X20714352Y33569586D02*
X20833400Y33450539D01*
X20833400Y33450539D02*
X20952447Y33569586D01*
X20952447Y33569586D02*
X20833400Y33688634D01*
X20833400Y33688634D02*
X20714352Y33569586D01*
X20714352Y33569586D02*
X20952447Y33569586D01*
X18452447Y31307682D02*
X18452447Y31783872D01*
X18452447Y31783872D02*
X18571495Y32021968D01*
X18571495Y32021968D02*
X18690542Y32141015D01*
X18690542Y32141015D02*
X19047685Y32379110D01*
X19047685Y32379110D02*
X19523876Y32498158D01*
X19523876Y32498158D02*
X20476257Y32498158D01*
X20476257Y32498158D02*
X20714352Y32379110D01*
X20714352Y32379110D02*
X20833400Y32260063D01*
X20833400Y32260063D02*
X20952447Y32021968D01*
X20952447Y32021968D02*
X20952447Y31545777D01*
X20952447Y31545777D02*
X20833400Y31307682D01*
X20833400Y31307682D02*
X20714352Y31188634D01*
X20714352Y31188634D02*
X20476257Y31069587D01*
X20476257Y31069587D02*
X19881019Y31069587D01*
X19881019Y31069587D02*
X19642923Y31188634D01*
X19642923Y31188634D02*
X19523876Y31307682D01*
X19523876Y31307682D02*
X19404828Y31545777D01*
X19404828Y31545777D02*
X19404828Y32021968D01*
X19404828Y32021968D02*
X19523876Y32260063D01*
X19523876Y32260063D02*
X19642923Y32379110D01*
X19642923Y32379110D02*
X19881019Y32498158D01*
X20714352Y29998158D02*
X20833400Y29879111D01*
X20833400Y29879111D02*
X20952447Y29998158D01*
X20952447Y29998158D02*
X20833400Y30117206D01*
X20833400Y30117206D02*
X20714352Y29998158D01*
X20714352Y29998158D02*
X20952447Y29998158D01*
X18690542Y28926730D02*
X18571495Y28807682D01*
X18571495Y28807682D02*
X18452447Y28569587D01*
X18452447Y28569587D02*
X18452447Y27974349D01*
X18452447Y27974349D02*
X18571495Y27736254D01*
X18571495Y27736254D02*
X18690542Y27617206D01*
X18690542Y27617206D02*
X18928638Y27498159D01*
X18928638Y27498159D02*
X19166733Y27498159D01*
X19166733Y27498159D02*
X19523876Y27617206D01*
X19523876Y27617206D02*
X20952447Y29045778D01*
X20952447Y29045778D02*
X20952447Y27498159D01*
X18452447Y26664826D02*
X18452447Y25117207D01*
X18452447Y25117207D02*
X19404828Y25950540D01*
X19404828Y25950540D02*
X19404828Y25593397D01*
X19404828Y25593397D02*
X19523876Y25355302D01*
X19523876Y25355302D02*
X19642923Y25236254D01*
X19642923Y25236254D02*
X19881019Y25117207D01*
X19881019Y25117207D02*
X20476257Y25117207D01*
X20476257Y25117207D02*
X20714352Y25236254D01*
X20714352Y25236254D02*
X20833400Y25355302D01*
X20833400Y25355302D02*
X20952447Y25593397D01*
X20952447Y25593397D02*
X20952447Y26307683D01*
X20952447Y26307683D02*
X20833400Y26545778D01*
X20833400Y26545778D02*
X20714352Y26664826D01*
D11*
X51683333Y12681181D02*
X51683333Y11966896D01*
X51683333Y11966896D02*
X51730952Y11824039D01*
X51730952Y11824039D02*
X51826190Y11728800D01*
X51826190Y11728800D02*
X51969047Y11681181D01*
X51969047Y11681181D02*
X52064285Y11681181D01*
X51064285Y12252610D02*
X51159523Y12300229D01*
X51159523Y12300229D02*
X51207142Y12347848D01*
X51207142Y12347848D02*
X51254761Y12443086D01*
X51254761Y12443086D02*
X51254761Y12490705D01*
X51254761Y12490705D02*
X51207142Y12585943D01*
X51207142Y12585943D02*
X51159523Y12633562D01*
X51159523Y12633562D02*
X51064285Y12681181D01*
X51064285Y12681181D02*
X50873809Y12681181D01*
X50873809Y12681181D02*
X50778571Y12633562D01*
X50778571Y12633562D02*
X50730952Y12585943D01*
X50730952Y12585943D02*
X50683333Y12490705D01*
X50683333Y12490705D02*
X50683333Y12443086D01*
X50683333Y12443086D02*
X50730952Y12347848D01*
X50730952Y12347848D02*
X50778571Y12300229D01*
X50778571Y12300229D02*
X50873809Y12252610D01*
X50873809Y12252610D02*
X51064285Y12252610D01*
X51064285Y12252610D02*
X51159523Y12204991D01*
X51159523Y12204991D02*
X51207142Y12157372D01*
X51207142Y12157372D02*
X51254761Y12062134D01*
X51254761Y12062134D02*
X51254761Y11871658D01*
X51254761Y11871658D02*
X51207142Y11776420D01*
X51207142Y11776420D02*
X51159523Y11728800D01*
X51159523Y11728800D02*
X51064285Y11681181D01*
X51064285Y11681181D02*
X50873809Y11681181D01*
X50873809Y11681181D02*
X50778571Y11728800D01*
X50778571Y11728800D02*
X50730952Y11776420D01*
X50730952Y11776420D02*
X50683333Y11871658D01*
X50683333Y11871658D02*
X50683333Y12062134D01*
X50683333Y12062134D02*
X50730952Y12157372D01*
X50730952Y12157372D02*
X50778571Y12204991D01*
X50778571Y12204991D02*
X50873809Y12252610D01*
X69264857Y61052420D02*
X69312476Y61004800D01*
X69312476Y61004800D02*
X69455333Y60957181D01*
X69455333Y60957181D02*
X69550571Y60957181D01*
X69550571Y60957181D02*
X69693428Y61004800D01*
X69693428Y61004800D02*
X69788666Y61100039D01*
X69788666Y61100039D02*
X69836285Y61195277D01*
X69836285Y61195277D02*
X69883904Y61385753D01*
X69883904Y61385753D02*
X69883904Y61528610D01*
X69883904Y61528610D02*
X69836285Y61719086D01*
X69836285Y61719086D02*
X69788666Y61814324D01*
X69788666Y61814324D02*
X69693428Y61909562D01*
X69693428Y61909562D02*
X69550571Y61957181D01*
X69550571Y61957181D02*
X69455333Y61957181D01*
X69455333Y61957181D02*
X69312476Y61909562D01*
X69312476Y61909562D02*
X69264857Y61861943D01*
X68407714Y61623848D02*
X68407714Y60957181D01*
X68645809Y62004800D02*
X68883904Y61290515D01*
X68883904Y61290515D02*
X68264857Y61290515D01*
X67360095Y60957181D02*
X67931523Y60957181D01*
X67645809Y60957181D02*
X67645809Y61957181D01*
X67645809Y61957181D02*
X67741047Y61814324D01*
X67741047Y61814324D02*
X67836285Y61719086D01*
X67836285Y61719086D02*
X67931523Y61671467D01*
X69264857Y59452420D02*
X69312476Y59404800D01*
X69312476Y59404800D02*
X69455333Y59357181D01*
X69455333Y59357181D02*
X69550571Y59357181D01*
X69550571Y59357181D02*
X69693428Y59404800D01*
X69693428Y59404800D02*
X69788666Y59500039D01*
X69788666Y59500039D02*
X69836285Y59595277D01*
X69836285Y59595277D02*
X69883904Y59785753D01*
X69883904Y59785753D02*
X69883904Y59928610D01*
X69883904Y59928610D02*
X69836285Y60119086D01*
X69836285Y60119086D02*
X69788666Y60214324D01*
X69788666Y60214324D02*
X69693428Y60309562D01*
X69693428Y60309562D02*
X69550571Y60357181D01*
X69550571Y60357181D02*
X69455333Y60357181D01*
X69455333Y60357181D02*
X69312476Y60309562D01*
X69312476Y60309562D02*
X69264857Y60261943D01*
X68931523Y60357181D02*
X68312476Y60357181D01*
X68312476Y60357181D02*
X68645809Y59976229D01*
X68645809Y59976229D02*
X68502952Y59976229D01*
X68502952Y59976229D02*
X68407714Y59928610D01*
X68407714Y59928610D02*
X68360095Y59880991D01*
X68360095Y59880991D02*
X68312476Y59785753D01*
X68312476Y59785753D02*
X68312476Y59547658D01*
X68312476Y59547658D02*
X68360095Y59452420D01*
X68360095Y59452420D02*
X68407714Y59404800D01*
X68407714Y59404800D02*
X68502952Y59357181D01*
X68502952Y59357181D02*
X68788666Y59357181D01*
X68788666Y59357181D02*
X68883904Y59404800D01*
X68883904Y59404800D02*
X68931523Y59452420D01*
X67979142Y60357181D02*
X67312476Y60357181D01*
X67312476Y60357181D02*
X67741047Y59357181D01*
X35517857Y13554420D02*
X35565476Y13506800D01*
X35565476Y13506800D02*
X35708333Y13459181D01*
X35708333Y13459181D02*
X35803571Y13459181D01*
X35803571Y13459181D02*
X35946428Y13506800D01*
X35946428Y13506800D02*
X36041666Y13602039D01*
X36041666Y13602039D02*
X36089285Y13697277D01*
X36089285Y13697277D02*
X36136904Y13887753D01*
X36136904Y13887753D02*
X36136904Y14030610D01*
X36136904Y14030610D02*
X36089285Y14221086D01*
X36089285Y14221086D02*
X36041666Y14316324D01*
X36041666Y14316324D02*
X35946428Y14411562D01*
X35946428Y14411562D02*
X35803571Y14459181D01*
X35803571Y14459181D02*
X35708333Y14459181D01*
X35708333Y14459181D02*
X35565476Y14411562D01*
X35565476Y14411562D02*
X35517857Y14363943D01*
X35136904Y14363943D02*
X35089285Y14411562D01*
X35089285Y14411562D02*
X34994047Y14459181D01*
X34994047Y14459181D02*
X34755952Y14459181D01*
X34755952Y14459181D02*
X34660714Y14411562D01*
X34660714Y14411562D02*
X34613095Y14363943D01*
X34613095Y14363943D02*
X34565476Y14268705D01*
X34565476Y14268705D02*
X34565476Y14173467D01*
X34565476Y14173467D02*
X34613095Y14030610D01*
X34613095Y14030610D02*
X35184523Y13459181D01*
X35184523Y13459181D02*
X34565476Y13459181D01*
X34232142Y14459181D02*
X33565476Y14459181D01*
X33565476Y14459181D02*
X33994047Y13459181D01*
X32125333Y54337181D02*
X32125333Y53622896D01*
X32125333Y53622896D02*
X32172952Y53480039D01*
X32172952Y53480039D02*
X32268190Y53384800D01*
X32268190Y53384800D02*
X32411047Y53337181D01*
X32411047Y53337181D02*
X32506285Y53337181D01*
X31696761Y54241943D02*
X31649142Y54289562D01*
X31649142Y54289562D02*
X31553904Y54337181D01*
X31553904Y54337181D02*
X31315809Y54337181D01*
X31315809Y54337181D02*
X31220571Y54289562D01*
X31220571Y54289562D02*
X31172952Y54241943D01*
X31172952Y54241943D02*
X31125333Y54146705D01*
X31125333Y54146705D02*
X31125333Y54051467D01*
X31125333Y54051467D02*
X31172952Y53908610D01*
X31172952Y53908610D02*
X31744380Y53337181D01*
X31744380Y53337181D02*
X31125333Y53337181D01*
X71255523Y33509181D02*
X71255523Y32794896D01*
X71255523Y32794896D02*
X71303142Y32652039D01*
X71303142Y32652039D02*
X71398380Y32556800D01*
X71398380Y32556800D02*
X71541237Y32509181D01*
X71541237Y32509181D02*
X71636475Y32509181D01*
X70255523Y32509181D02*
X70826951Y32509181D01*
X70541237Y32509181D02*
X70541237Y33509181D01*
X70541237Y33509181D02*
X70636475Y33366324D01*
X70636475Y33366324D02*
X70731713Y33271086D01*
X70731713Y33271086D02*
X70826951Y33223467D01*
X69303142Y32509181D02*
X69874570Y32509181D01*
X69588856Y32509181D02*
X69588856Y33509181D01*
X69588856Y33509181D02*
X69684094Y33366324D01*
X69684094Y33366324D02*
X69779332Y33271086D01*
X69779332Y33271086D02*
X69874570Y33223467D01*
X50064857Y19396420D02*
X50112476Y19348800D01*
X50112476Y19348800D02*
X50255333Y19301181D01*
X50255333Y19301181D02*
X50350571Y19301181D01*
X50350571Y19301181D02*
X50493428Y19348800D01*
X50493428Y19348800D02*
X50588666Y19444039D01*
X50588666Y19444039D02*
X50636285Y19539277D01*
X50636285Y19539277D02*
X50683904Y19729753D01*
X50683904Y19729753D02*
X50683904Y19872610D01*
X50683904Y19872610D02*
X50636285Y20063086D01*
X50636285Y20063086D02*
X50588666Y20158324D01*
X50588666Y20158324D02*
X50493428Y20253562D01*
X50493428Y20253562D02*
X50350571Y20301181D01*
X50350571Y20301181D02*
X50255333Y20301181D01*
X50255333Y20301181D02*
X50112476Y20253562D01*
X50112476Y20253562D02*
X50064857Y20205943D01*
X49683904Y20205943D02*
X49636285Y20253562D01*
X49636285Y20253562D02*
X49541047Y20301181D01*
X49541047Y20301181D02*
X49302952Y20301181D01*
X49302952Y20301181D02*
X49207714Y20253562D01*
X49207714Y20253562D02*
X49160095Y20205943D01*
X49160095Y20205943D02*
X49112476Y20110705D01*
X49112476Y20110705D02*
X49112476Y20015467D01*
X49112476Y20015467D02*
X49160095Y19872610D01*
X49160095Y19872610D02*
X49731523Y19301181D01*
X49731523Y19301181D02*
X49112476Y19301181D01*
X48160095Y19301181D02*
X48731523Y19301181D01*
X48445809Y19301181D02*
X48445809Y20301181D01*
X48445809Y20301181D02*
X48541047Y20158324D01*
X48541047Y20158324D02*
X48636285Y20063086D01*
X48636285Y20063086D02*
X48731523Y20015467D01*
X73917857Y34382420D02*
X73965476Y34334800D01*
X73965476Y34334800D02*
X74108333Y34287181D01*
X74108333Y34287181D02*
X74203571Y34287181D01*
X74203571Y34287181D02*
X74346428Y34334800D01*
X74346428Y34334800D02*
X74441666Y34430039D01*
X74441666Y34430039D02*
X74489285Y34525277D01*
X74489285Y34525277D02*
X74536904Y34715753D01*
X74536904Y34715753D02*
X74536904Y34858610D01*
X74536904Y34858610D02*
X74489285Y35049086D01*
X74489285Y35049086D02*
X74441666Y35144324D01*
X74441666Y35144324D02*
X74346428Y35239562D01*
X74346428Y35239562D02*
X74203571Y35287181D01*
X74203571Y35287181D02*
X74108333Y35287181D01*
X74108333Y35287181D02*
X73965476Y35239562D01*
X73965476Y35239562D02*
X73917857Y35191943D01*
X73060714Y34953848D02*
X73060714Y34287181D01*
X73298809Y35334800D02*
X73536904Y34620515D01*
X73536904Y34620515D02*
X72917857Y34620515D01*
X72108333Y35287181D02*
X72298809Y35287181D01*
X72298809Y35287181D02*
X72394047Y35239562D01*
X72394047Y35239562D02*
X72441666Y35191943D01*
X72441666Y35191943D02*
X72536904Y35049086D01*
X72536904Y35049086D02*
X72584523Y34858610D01*
X72584523Y34858610D02*
X72584523Y34477658D01*
X72584523Y34477658D02*
X72536904Y34382420D01*
X72536904Y34382420D02*
X72489285Y34334800D01*
X72489285Y34334800D02*
X72394047Y34287181D01*
X72394047Y34287181D02*
X72203571Y34287181D01*
X72203571Y34287181D02*
X72108333Y34334800D01*
X72108333Y34334800D02*
X72060714Y34382420D01*
X72060714Y34382420D02*
X72013095Y34477658D01*
X72013095Y34477658D02*
X72013095Y34715753D01*
X72013095Y34715753D02*
X72060714Y34810991D01*
X72060714Y34810991D02*
X72108333Y34858610D01*
X72108333Y34858610D02*
X72203571Y34906229D01*
X72203571Y34906229D02*
X72394047Y34906229D01*
X72394047Y34906229D02*
X72489285Y34858610D01*
X72489285Y34858610D02*
X72536904Y34810991D01*
X72536904Y34810991D02*
X72584523Y34715753D01*
X88464857Y59452420D02*
X88512476Y59404800D01*
X88512476Y59404800D02*
X88655333Y59357181D01*
X88655333Y59357181D02*
X88750571Y59357181D01*
X88750571Y59357181D02*
X88893428Y59404800D01*
X88893428Y59404800D02*
X88988666Y59500039D01*
X88988666Y59500039D02*
X89036285Y59595277D01*
X89036285Y59595277D02*
X89083904Y59785753D01*
X89083904Y59785753D02*
X89083904Y59928610D01*
X89083904Y59928610D02*
X89036285Y60119086D01*
X89036285Y60119086D02*
X88988666Y60214324D01*
X88988666Y60214324D02*
X88893428Y60309562D01*
X88893428Y60309562D02*
X88750571Y60357181D01*
X88750571Y60357181D02*
X88655333Y60357181D01*
X88655333Y60357181D02*
X88512476Y60309562D01*
X88512476Y60309562D02*
X88464857Y60261943D01*
X87560095Y60357181D02*
X88036285Y60357181D01*
X88036285Y60357181D02*
X88083904Y59880991D01*
X88083904Y59880991D02*
X88036285Y59928610D01*
X88036285Y59928610D02*
X87941047Y59976229D01*
X87941047Y59976229D02*
X87702952Y59976229D01*
X87702952Y59976229D02*
X87607714Y59928610D01*
X87607714Y59928610D02*
X87560095Y59880991D01*
X87560095Y59880991D02*
X87512476Y59785753D01*
X87512476Y59785753D02*
X87512476Y59547658D01*
X87512476Y59547658D02*
X87560095Y59452420D01*
X87560095Y59452420D02*
X87607714Y59404800D01*
X87607714Y59404800D02*
X87702952Y59357181D01*
X87702952Y59357181D02*
X87941047Y59357181D01*
X87941047Y59357181D02*
X88036285Y59404800D01*
X88036285Y59404800D02*
X88083904Y59452420D01*
X87179142Y60357181D02*
X86512476Y60357181D01*
X86512476Y60357181D02*
X86941047Y59357181D01*
X71359523Y12681181D02*
X71359523Y11966896D01*
X71359523Y11966896D02*
X71407142Y11824039D01*
X71407142Y11824039D02*
X71502380Y11728800D01*
X71502380Y11728800D02*
X71645237Y11681181D01*
X71645237Y11681181D02*
X71740475Y11681181D01*
X70359523Y11681181D02*
X70930951Y11681181D01*
X70645237Y11681181D02*
X70645237Y12681181D01*
X70645237Y12681181D02*
X70740475Y12538324D01*
X70740475Y12538324D02*
X70835713Y12443086D01*
X70835713Y12443086D02*
X70930951Y12395467D01*
X69978570Y12585943D02*
X69930951Y12633562D01*
X69930951Y12633562D02*
X69835713Y12681181D01*
X69835713Y12681181D02*
X69597618Y12681181D01*
X69597618Y12681181D02*
X69502380Y12633562D01*
X69502380Y12633562D02*
X69454761Y12585943D01*
X69454761Y12585943D02*
X69407142Y12490705D01*
X69407142Y12490705D02*
X69407142Y12395467D01*
X69407142Y12395467D02*
X69454761Y12252610D01*
X69454761Y12252610D02*
X70026189Y11681181D01*
X70026189Y11681181D02*
X69407142Y11681181D01*
X54717857Y13554420D02*
X54765476Y13506800D01*
X54765476Y13506800D02*
X54908333Y13459181D01*
X54908333Y13459181D02*
X55003571Y13459181D01*
X55003571Y13459181D02*
X55146428Y13506800D01*
X55146428Y13506800D02*
X55241666Y13602039D01*
X55241666Y13602039D02*
X55289285Y13697277D01*
X55289285Y13697277D02*
X55336904Y13887753D01*
X55336904Y13887753D02*
X55336904Y14030610D01*
X55336904Y14030610D02*
X55289285Y14221086D01*
X55289285Y14221086D02*
X55241666Y14316324D01*
X55241666Y14316324D02*
X55146428Y14411562D01*
X55146428Y14411562D02*
X55003571Y14459181D01*
X55003571Y14459181D02*
X54908333Y14459181D01*
X54908333Y14459181D02*
X54765476Y14411562D01*
X54765476Y14411562D02*
X54717857Y14363943D01*
X53860714Y14125848D02*
X53860714Y13459181D01*
X54098809Y14506800D02*
X54336904Y13792515D01*
X54336904Y13792515D02*
X53717857Y13792515D01*
X53432142Y14459181D02*
X52813095Y14459181D01*
X52813095Y14459181D02*
X53146428Y14078229D01*
X53146428Y14078229D02*
X53003571Y14078229D01*
X53003571Y14078229D02*
X52908333Y14030610D01*
X52908333Y14030610D02*
X52860714Y13982991D01*
X52860714Y13982991D02*
X52813095Y13887753D01*
X52813095Y13887753D02*
X52813095Y13649658D01*
X52813095Y13649658D02*
X52860714Y13554420D01*
X52860714Y13554420D02*
X52908333Y13506800D01*
X52908333Y13506800D02*
X53003571Y13459181D01*
X53003571Y13459181D02*
X53289285Y13459181D01*
X53289285Y13459181D02*
X53384523Y13506800D01*
X53384523Y13506800D02*
X53432142Y13554420D01*
X76243580Y40718858D02*
X76291200Y40766477D01*
X76291200Y40766477D02*
X76338819Y40909334D01*
X76338819Y40909334D02*
X76338819Y41004572D01*
X76338819Y41004572D02*
X76291200Y41147429D01*
X76291200Y41147429D02*
X76195961Y41242667D01*
X76195961Y41242667D02*
X76100723Y41290286D01*
X76100723Y41290286D02*
X75910247Y41337905D01*
X75910247Y41337905D02*
X75767390Y41337905D01*
X75767390Y41337905D02*
X75576914Y41290286D01*
X75576914Y41290286D02*
X75481676Y41242667D01*
X75481676Y41242667D02*
X75386438Y41147429D01*
X75386438Y41147429D02*
X75338819Y41004572D01*
X75338819Y41004572D02*
X75338819Y40909334D01*
X75338819Y40909334D02*
X75386438Y40766477D01*
X75386438Y40766477D02*
X75434057Y40718858D01*
X75338819Y39814096D02*
X75338819Y40290286D01*
X75338819Y40290286D02*
X75815009Y40337905D01*
X75815009Y40337905D02*
X75767390Y40290286D01*
X75767390Y40290286D02*
X75719771Y40195048D01*
X75719771Y40195048D02*
X75719771Y39956953D01*
X75719771Y39956953D02*
X75767390Y39861715D01*
X75767390Y39861715D02*
X75815009Y39814096D01*
X75815009Y39814096D02*
X75910247Y39766477D01*
X75910247Y39766477D02*
X76148342Y39766477D01*
X76148342Y39766477D02*
X76243580Y39814096D01*
X76243580Y39814096D02*
X76291200Y39861715D01*
X76291200Y39861715D02*
X76338819Y39956953D01*
X76338819Y39956953D02*
X76338819Y40195048D01*
X76338819Y40195048D02*
X76291200Y40290286D01*
X76291200Y40290286D02*
X76243580Y40337905D01*
X75338819Y39147429D02*
X75338819Y39052191D01*
X75338819Y39052191D02*
X75386438Y38956953D01*
X75386438Y38956953D02*
X75434057Y38909334D01*
X75434057Y38909334D02*
X75529295Y38861715D01*
X75529295Y38861715D02*
X75719771Y38814096D01*
X75719771Y38814096D02*
X75957866Y38814096D01*
X75957866Y38814096D02*
X76148342Y38861715D01*
X76148342Y38861715D02*
X76243580Y38909334D01*
X76243580Y38909334D02*
X76291200Y38956953D01*
X76291200Y38956953D02*
X76338819Y39052191D01*
X76338819Y39052191D02*
X76338819Y39147429D01*
X76338819Y39147429D02*
X76291200Y39242667D01*
X76291200Y39242667D02*
X76243580Y39290286D01*
X76243580Y39290286D02*
X76148342Y39337905D01*
X76148342Y39337905D02*
X75957866Y39385524D01*
X75957866Y39385524D02*
X75719771Y39385524D01*
X75719771Y39385524D02*
X75529295Y39337905D01*
X75529295Y39337905D02*
X75434057Y39290286D01*
X75434057Y39290286D02*
X75386438Y39242667D01*
X75386438Y39242667D02*
X75338819Y39147429D01*
X37739580Y19890858D02*
X37787200Y19938477D01*
X37787200Y19938477D02*
X37834819Y20081334D01*
X37834819Y20081334D02*
X37834819Y20176572D01*
X37834819Y20176572D02*
X37787200Y20319429D01*
X37787200Y20319429D02*
X37691961Y20414667D01*
X37691961Y20414667D02*
X37596723Y20462286D01*
X37596723Y20462286D02*
X37406247Y20509905D01*
X37406247Y20509905D02*
X37263390Y20509905D01*
X37263390Y20509905D02*
X37072914Y20462286D01*
X37072914Y20462286D02*
X36977676Y20414667D01*
X36977676Y20414667D02*
X36882438Y20319429D01*
X36882438Y20319429D02*
X36834819Y20176572D01*
X36834819Y20176572D02*
X36834819Y20081334D01*
X36834819Y20081334D02*
X36882438Y19938477D01*
X36882438Y19938477D02*
X36930057Y19890858D01*
X36930057Y19509905D02*
X36882438Y19462286D01*
X36882438Y19462286D02*
X36834819Y19367048D01*
X36834819Y19367048D02*
X36834819Y19128953D01*
X36834819Y19128953D02*
X36882438Y19033715D01*
X36882438Y19033715D02*
X36930057Y18986096D01*
X36930057Y18986096D02*
X37025295Y18938477D01*
X37025295Y18938477D02*
X37120533Y18938477D01*
X37120533Y18938477D02*
X37263390Y18986096D01*
X37263390Y18986096D02*
X37834819Y19557524D01*
X37834819Y19557524D02*
X37834819Y18938477D01*
X36834819Y18033715D02*
X36834819Y18509905D01*
X36834819Y18509905D02*
X37311009Y18557524D01*
X37311009Y18557524D02*
X37263390Y18509905D01*
X37263390Y18509905D02*
X37215771Y18414667D01*
X37215771Y18414667D02*
X37215771Y18176572D01*
X37215771Y18176572D02*
X37263390Y18081334D01*
X37263390Y18081334D02*
X37311009Y18033715D01*
X37311009Y18033715D02*
X37406247Y17986096D01*
X37406247Y17986096D02*
X37644342Y17986096D01*
X37644342Y17986096D02*
X37739580Y18033715D01*
X37739580Y18033715D02*
X37787200Y18081334D01*
X37787200Y18081334D02*
X37834819Y18176572D01*
X37834819Y18176572D02*
X37834819Y18414667D01*
X37834819Y18414667D02*
X37787200Y18509905D01*
X37787200Y18509905D02*
X37739580Y18557524D01*
X69264857Y17796420D02*
X69312476Y17748800D01*
X69312476Y17748800D02*
X69455333Y17701181D01*
X69455333Y17701181D02*
X69550571Y17701181D01*
X69550571Y17701181D02*
X69693428Y17748800D01*
X69693428Y17748800D02*
X69788666Y17844039D01*
X69788666Y17844039D02*
X69836285Y17939277D01*
X69836285Y17939277D02*
X69883904Y18129753D01*
X69883904Y18129753D02*
X69883904Y18272610D01*
X69883904Y18272610D02*
X69836285Y18463086D01*
X69836285Y18463086D02*
X69788666Y18558324D01*
X69788666Y18558324D02*
X69693428Y18653562D01*
X69693428Y18653562D02*
X69550571Y18701181D01*
X69550571Y18701181D02*
X69455333Y18701181D01*
X69455333Y18701181D02*
X69312476Y18653562D01*
X69312476Y18653562D02*
X69264857Y18605943D01*
X68931523Y18701181D02*
X68312476Y18701181D01*
X68312476Y18701181D02*
X68645809Y18320229D01*
X68645809Y18320229D02*
X68502952Y18320229D01*
X68502952Y18320229D02*
X68407714Y18272610D01*
X68407714Y18272610D02*
X68360095Y18224991D01*
X68360095Y18224991D02*
X68312476Y18129753D01*
X68312476Y18129753D02*
X68312476Y17891658D01*
X68312476Y17891658D02*
X68360095Y17796420D01*
X68360095Y17796420D02*
X68407714Y17748800D01*
X68407714Y17748800D02*
X68502952Y17701181D01*
X68502952Y17701181D02*
X68788666Y17701181D01*
X68788666Y17701181D02*
X68883904Y17748800D01*
X68883904Y17748800D02*
X68931523Y17796420D01*
X67407714Y18701181D02*
X67883904Y18701181D01*
X67883904Y18701181D02*
X67931523Y18224991D01*
X67931523Y18224991D02*
X67883904Y18272610D01*
X67883904Y18272610D02*
X67788666Y18320229D01*
X67788666Y18320229D02*
X67550571Y18320229D01*
X67550571Y18320229D02*
X67455333Y18272610D01*
X67455333Y18272610D02*
X67407714Y18224991D01*
X67407714Y18224991D02*
X67360095Y18129753D01*
X67360095Y18129753D02*
X67360095Y17891658D01*
X67360095Y17891658D02*
X67407714Y17796420D01*
X67407714Y17796420D02*
X67455333Y17748800D01*
X67455333Y17748800D02*
X67550571Y17701181D01*
X67550571Y17701181D02*
X67788666Y17701181D01*
X67788666Y17701181D02*
X67883904Y17748800D01*
X67883904Y17748800D02*
X67931523Y17796420D01*
X51325333Y54337181D02*
X51325333Y53622896D01*
X51325333Y53622896D02*
X51372952Y53480039D01*
X51372952Y53480039D02*
X51468190Y53384800D01*
X51468190Y53384800D02*
X51611047Y53337181D01*
X51611047Y53337181D02*
X51706285Y53337181D01*
X50420571Y54337181D02*
X50611047Y54337181D01*
X50611047Y54337181D02*
X50706285Y54289562D01*
X50706285Y54289562D02*
X50753904Y54241943D01*
X50753904Y54241943D02*
X50849142Y54099086D01*
X50849142Y54099086D02*
X50896761Y53908610D01*
X50896761Y53908610D02*
X50896761Y53527658D01*
X50896761Y53527658D02*
X50849142Y53432420D01*
X50849142Y53432420D02*
X50801523Y53384800D01*
X50801523Y53384800D02*
X50706285Y53337181D01*
X50706285Y53337181D02*
X50515809Y53337181D01*
X50515809Y53337181D02*
X50420571Y53384800D01*
X50420571Y53384800D02*
X50372952Y53432420D01*
X50372952Y53432420D02*
X50325333Y53527658D01*
X50325333Y53527658D02*
X50325333Y53765753D01*
X50325333Y53765753D02*
X50372952Y53860991D01*
X50372952Y53860991D02*
X50420571Y53908610D01*
X50420571Y53908610D02*
X50515809Y53956229D01*
X50515809Y53956229D02*
X50706285Y53956229D01*
X50706285Y53956229D02*
X50801523Y53908610D01*
X50801523Y53908610D02*
X50849142Y53860991D01*
X50849142Y53860991D02*
X50896761Y53765753D01*
X83704819Y61800858D02*
X83228628Y62134191D01*
X83704819Y62372286D02*
X82704819Y62372286D01*
X82704819Y62372286D02*
X82704819Y61991334D01*
X82704819Y61991334D02*
X82752438Y61896096D01*
X82752438Y61896096D02*
X82800057Y61848477D01*
X82800057Y61848477D02*
X82895295Y61800858D01*
X82895295Y61800858D02*
X83038152Y61800858D01*
X83038152Y61800858D02*
X83133390Y61848477D01*
X83133390Y61848477D02*
X83181009Y61896096D01*
X83181009Y61896096D02*
X83228628Y61991334D01*
X83228628Y61991334D02*
X83228628Y62372286D01*
X83704819Y60848477D02*
X83704819Y61419905D01*
X83704819Y61134191D02*
X82704819Y61134191D01*
X82704819Y61134191D02*
X82847676Y61229429D01*
X82847676Y61229429D02*
X82942914Y61324667D01*
X82942914Y61324667D02*
X82990533Y61419905D01*
X82704819Y59943715D02*
X82704819Y60419905D01*
X82704819Y60419905D02*
X83181009Y60467524D01*
X83181009Y60467524D02*
X83133390Y60419905D01*
X83133390Y60419905D02*
X83085771Y60324667D01*
X83085771Y60324667D02*
X83085771Y60086572D01*
X83085771Y60086572D02*
X83133390Y59991334D01*
X83133390Y59991334D02*
X83181009Y59943715D01*
X83181009Y59943715D02*
X83276247Y59896096D01*
X83276247Y59896096D02*
X83514342Y59896096D01*
X83514342Y59896096D02*
X83609580Y59943715D01*
X83609580Y59943715D02*
X83657200Y59991334D01*
X83657200Y59991334D02*
X83704819Y60086572D01*
X83704819Y60086572D02*
X83704819Y60324667D01*
X83704819Y60324667D02*
X83657200Y60419905D01*
X83657200Y60419905D02*
X83609580Y60467524D01*
X56939580Y19890858D02*
X56987200Y19938477D01*
X56987200Y19938477D02*
X57034819Y20081334D01*
X57034819Y20081334D02*
X57034819Y20176572D01*
X57034819Y20176572D02*
X56987200Y20319429D01*
X56987200Y20319429D02*
X56891961Y20414667D01*
X56891961Y20414667D02*
X56796723Y20462286D01*
X56796723Y20462286D02*
X56606247Y20509905D01*
X56606247Y20509905D02*
X56463390Y20509905D01*
X56463390Y20509905D02*
X56272914Y20462286D01*
X56272914Y20462286D02*
X56177676Y20414667D01*
X56177676Y20414667D02*
X56082438Y20319429D01*
X56082438Y20319429D02*
X56034819Y20176572D01*
X56034819Y20176572D02*
X56034819Y20081334D01*
X56034819Y20081334D02*
X56082438Y19938477D01*
X56082438Y19938477D02*
X56130057Y19890858D01*
X56034819Y19557524D02*
X56034819Y18938477D01*
X56034819Y18938477D02*
X56415771Y19271810D01*
X56415771Y19271810D02*
X56415771Y19128953D01*
X56415771Y19128953D02*
X56463390Y19033715D01*
X56463390Y19033715D02*
X56511009Y18986096D01*
X56511009Y18986096D02*
X56606247Y18938477D01*
X56606247Y18938477D02*
X56844342Y18938477D01*
X56844342Y18938477D02*
X56939580Y18986096D01*
X56939580Y18986096D02*
X56987200Y19033715D01*
X56987200Y19033715D02*
X57034819Y19128953D01*
X57034819Y19128953D02*
X57034819Y19414667D01*
X57034819Y19414667D02*
X56987200Y19509905D01*
X56987200Y19509905D02*
X56939580Y19557524D01*
X57034819Y18462286D02*
X57034819Y18271810D01*
X57034819Y18271810D02*
X56987200Y18176572D01*
X56987200Y18176572D02*
X56939580Y18128953D01*
X56939580Y18128953D02*
X56796723Y18033715D01*
X56796723Y18033715D02*
X56606247Y17986096D01*
X56606247Y17986096D02*
X56225295Y17986096D01*
X56225295Y17986096D02*
X56130057Y18033715D01*
X56130057Y18033715D02*
X56082438Y18081334D01*
X56082438Y18081334D02*
X56034819Y18176572D01*
X56034819Y18176572D02*
X56034819Y18367048D01*
X56034819Y18367048D02*
X56082438Y18462286D01*
X56082438Y18462286D02*
X56130057Y18509905D01*
X56130057Y18509905D02*
X56225295Y18557524D01*
X56225295Y18557524D02*
X56463390Y18557524D01*
X56463390Y18557524D02*
X56558628Y18509905D01*
X56558628Y18509905D02*
X56606247Y18462286D01*
X56606247Y18462286D02*
X56653866Y18367048D01*
X56653866Y18367048D02*
X56653866Y18176572D01*
X56653866Y18176572D02*
X56606247Y18081334D01*
X56606247Y18081334D02*
X56558628Y18033715D01*
X56558628Y18033715D02*
X56463390Y17986096D01*
X32483333Y12681181D02*
X32483333Y11966896D01*
X32483333Y11966896D02*
X32530952Y11824039D01*
X32530952Y11824039D02*
X32626190Y11728800D01*
X32626190Y11728800D02*
X32769047Y11681181D01*
X32769047Y11681181D02*
X32864285Y11681181D01*
X31578571Y12347848D02*
X31578571Y11681181D01*
X31816666Y12728800D02*
X32054761Y12014515D01*
X32054761Y12014515D02*
X31435714Y12014515D01*
X50064857Y40224420D02*
X50112476Y40176800D01*
X50112476Y40176800D02*
X50255333Y40129181D01*
X50255333Y40129181D02*
X50350571Y40129181D01*
X50350571Y40129181D02*
X50493428Y40176800D01*
X50493428Y40176800D02*
X50588666Y40272039D01*
X50588666Y40272039D02*
X50636285Y40367277D01*
X50636285Y40367277D02*
X50683904Y40557753D01*
X50683904Y40557753D02*
X50683904Y40700610D01*
X50683904Y40700610D02*
X50636285Y40891086D01*
X50636285Y40891086D02*
X50588666Y40986324D01*
X50588666Y40986324D02*
X50493428Y41081562D01*
X50493428Y41081562D02*
X50350571Y41129181D01*
X50350571Y41129181D02*
X50255333Y41129181D01*
X50255333Y41129181D02*
X50112476Y41081562D01*
X50112476Y41081562D02*
X50064857Y41033943D01*
X49683904Y41033943D02*
X49636285Y41081562D01*
X49636285Y41081562D02*
X49541047Y41129181D01*
X49541047Y41129181D02*
X49302952Y41129181D01*
X49302952Y41129181D02*
X49207714Y41081562D01*
X49207714Y41081562D02*
X49160095Y41033943D01*
X49160095Y41033943D02*
X49112476Y40938705D01*
X49112476Y40938705D02*
X49112476Y40843467D01*
X49112476Y40843467D02*
X49160095Y40700610D01*
X49160095Y40700610D02*
X49731523Y40129181D01*
X49731523Y40129181D02*
X49112476Y40129181D01*
X48255333Y41129181D02*
X48445809Y41129181D01*
X48445809Y41129181D02*
X48541047Y41081562D01*
X48541047Y41081562D02*
X48588666Y41033943D01*
X48588666Y41033943D02*
X48683904Y40891086D01*
X48683904Y40891086D02*
X48731523Y40700610D01*
X48731523Y40700610D02*
X48731523Y40319658D01*
X48731523Y40319658D02*
X48683904Y40224420D01*
X48683904Y40224420D02*
X48636285Y40176800D01*
X48636285Y40176800D02*
X48541047Y40129181D01*
X48541047Y40129181D02*
X48350571Y40129181D01*
X48350571Y40129181D02*
X48255333Y40176800D01*
X48255333Y40176800D02*
X48207714Y40224420D01*
X48207714Y40224420D02*
X48160095Y40319658D01*
X48160095Y40319658D02*
X48160095Y40557753D01*
X48160095Y40557753D02*
X48207714Y40652991D01*
X48207714Y40652991D02*
X48255333Y40700610D01*
X48255333Y40700610D02*
X48350571Y40748229D01*
X48350571Y40748229D02*
X48541047Y40748229D01*
X48541047Y40748229D02*
X48636285Y40700610D01*
X48636285Y40700610D02*
X48683904Y40652991D01*
X48683904Y40652991D02*
X48731523Y40557753D01*
X37843580Y40718858D02*
X37891200Y40766477D01*
X37891200Y40766477D02*
X37938819Y40909334D01*
X37938819Y40909334D02*
X37938819Y41004572D01*
X37938819Y41004572D02*
X37891200Y41147429D01*
X37891200Y41147429D02*
X37795961Y41242667D01*
X37795961Y41242667D02*
X37700723Y41290286D01*
X37700723Y41290286D02*
X37510247Y41337905D01*
X37510247Y41337905D02*
X37367390Y41337905D01*
X37367390Y41337905D02*
X37176914Y41290286D01*
X37176914Y41290286D02*
X37081676Y41242667D01*
X37081676Y41242667D02*
X36986438Y41147429D01*
X36986438Y41147429D02*
X36938819Y41004572D01*
X36938819Y41004572D02*
X36938819Y40909334D01*
X36938819Y40909334D02*
X36986438Y40766477D01*
X36986438Y40766477D02*
X37034057Y40718858D01*
X37034057Y40337905D02*
X36986438Y40290286D01*
X36986438Y40290286D02*
X36938819Y40195048D01*
X36938819Y40195048D02*
X36938819Y39956953D01*
X36938819Y39956953D02*
X36986438Y39861715D01*
X36986438Y39861715D02*
X37034057Y39814096D01*
X37034057Y39814096D02*
X37129295Y39766477D01*
X37129295Y39766477D02*
X37224533Y39766477D01*
X37224533Y39766477D02*
X37367390Y39814096D01*
X37367390Y39814096D02*
X37938819Y40385524D01*
X37938819Y40385524D02*
X37938819Y39766477D01*
X37034057Y39385524D02*
X36986438Y39337905D01*
X36986438Y39337905D02*
X36938819Y39242667D01*
X36938819Y39242667D02*
X36938819Y39004572D01*
X36938819Y39004572D02*
X36986438Y38909334D01*
X36986438Y38909334D02*
X37034057Y38861715D01*
X37034057Y38861715D02*
X37129295Y38814096D01*
X37129295Y38814096D02*
X37224533Y38814096D01*
X37224533Y38814096D02*
X37367390Y38861715D01*
X37367390Y38861715D02*
X37938819Y39433143D01*
X37938819Y39433143D02*
X37938819Y38814096D01*
X88464857Y40224420D02*
X88512476Y40176800D01*
X88512476Y40176800D02*
X88655333Y40129181D01*
X88655333Y40129181D02*
X88750571Y40129181D01*
X88750571Y40129181D02*
X88893428Y40176800D01*
X88893428Y40176800D02*
X88988666Y40272039D01*
X88988666Y40272039D02*
X89036285Y40367277D01*
X89036285Y40367277D02*
X89083904Y40557753D01*
X89083904Y40557753D02*
X89083904Y40700610D01*
X89083904Y40700610D02*
X89036285Y40891086D01*
X89036285Y40891086D02*
X88988666Y40986324D01*
X88988666Y40986324D02*
X88893428Y41081562D01*
X88893428Y41081562D02*
X88750571Y41129181D01*
X88750571Y41129181D02*
X88655333Y41129181D01*
X88655333Y41129181D02*
X88512476Y41081562D01*
X88512476Y41081562D02*
X88464857Y41033943D01*
X87560095Y41129181D02*
X88036285Y41129181D01*
X88036285Y41129181D02*
X88083904Y40652991D01*
X88083904Y40652991D02*
X88036285Y40700610D01*
X88036285Y40700610D02*
X87941047Y40748229D01*
X87941047Y40748229D02*
X87702952Y40748229D01*
X87702952Y40748229D02*
X87607714Y40700610D01*
X87607714Y40700610D02*
X87560095Y40652991D01*
X87560095Y40652991D02*
X87512476Y40557753D01*
X87512476Y40557753D02*
X87512476Y40319658D01*
X87512476Y40319658D02*
X87560095Y40224420D01*
X87560095Y40224420D02*
X87607714Y40176800D01*
X87607714Y40176800D02*
X87702952Y40129181D01*
X87702952Y40129181D02*
X87941047Y40129181D01*
X87941047Y40129181D02*
X88036285Y40176800D01*
X88036285Y40176800D02*
X88083904Y40224420D01*
X86941047Y40700610D02*
X87036285Y40748229D01*
X87036285Y40748229D02*
X87083904Y40795848D01*
X87083904Y40795848D02*
X87131523Y40891086D01*
X87131523Y40891086D02*
X87131523Y40938705D01*
X87131523Y40938705D02*
X87083904Y41033943D01*
X87083904Y41033943D02*
X87036285Y41081562D01*
X87036285Y41081562D02*
X86941047Y41129181D01*
X86941047Y41129181D02*
X86750571Y41129181D01*
X86750571Y41129181D02*
X86655333Y41081562D01*
X86655333Y41081562D02*
X86607714Y41033943D01*
X86607714Y41033943D02*
X86560095Y40938705D01*
X86560095Y40938705D02*
X86560095Y40891086D01*
X86560095Y40891086D02*
X86607714Y40795848D01*
X86607714Y40795848D02*
X86655333Y40748229D01*
X86655333Y40748229D02*
X86750571Y40700610D01*
X86750571Y40700610D02*
X86941047Y40700610D01*
X86941047Y40700610D02*
X87036285Y40652991D01*
X87036285Y40652991D02*
X87083904Y40605372D01*
X87083904Y40605372D02*
X87131523Y40510134D01*
X87131523Y40510134D02*
X87131523Y40319658D01*
X87131523Y40319658D02*
X87083904Y40224420D01*
X87083904Y40224420D02*
X87036285Y40176800D01*
X87036285Y40176800D02*
X86941047Y40129181D01*
X86941047Y40129181D02*
X86750571Y40129181D01*
X86750571Y40129181D02*
X86655333Y40176800D01*
X86655333Y40176800D02*
X86607714Y40224420D01*
X86607714Y40224420D02*
X86560095Y40319658D01*
X86560095Y40319658D02*
X86560095Y40510134D01*
X86560095Y40510134D02*
X86607714Y40605372D01*
X86607714Y40605372D02*
X86655333Y40652991D01*
X86655333Y40652991D02*
X86750571Y40700610D01*
X45200819Y61070667D02*
X44724628Y61404000D01*
X45200819Y61642095D02*
X44200819Y61642095D01*
X44200819Y61642095D02*
X44200819Y61261143D01*
X44200819Y61261143D02*
X44248438Y61165905D01*
X44248438Y61165905D02*
X44296057Y61118286D01*
X44296057Y61118286D02*
X44391295Y61070667D01*
X44391295Y61070667D02*
X44534152Y61070667D01*
X44534152Y61070667D02*
X44629390Y61118286D01*
X44629390Y61118286D02*
X44677009Y61165905D01*
X44677009Y61165905D02*
X44724628Y61261143D01*
X44724628Y61261143D02*
X44724628Y61642095D01*
X45200819Y60118286D02*
X45200819Y60689714D01*
X45200819Y60404000D02*
X44200819Y60404000D01*
X44200819Y60404000D02*
X44343676Y60499238D01*
X44343676Y60499238D02*
X44438914Y60594476D01*
X44438914Y60594476D02*
X44486533Y60689714D01*
X35110666Y55210420D02*
X35158285Y55162800D01*
X35158285Y55162800D02*
X35301142Y55115181D01*
X35301142Y55115181D02*
X35396380Y55115181D01*
X35396380Y55115181D02*
X35539237Y55162800D01*
X35539237Y55162800D02*
X35634475Y55258039D01*
X35634475Y55258039D02*
X35682094Y55353277D01*
X35682094Y55353277D02*
X35729713Y55543753D01*
X35729713Y55543753D02*
X35729713Y55686610D01*
X35729713Y55686610D02*
X35682094Y55877086D01*
X35682094Y55877086D02*
X35634475Y55972324D01*
X35634475Y55972324D02*
X35539237Y56067562D01*
X35539237Y56067562D02*
X35396380Y56115181D01*
X35396380Y56115181D02*
X35301142Y56115181D01*
X35301142Y56115181D02*
X35158285Y56067562D01*
X35158285Y56067562D02*
X35110666Y56019943D01*
X34205904Y56115181D02*
X34682094Y56115181D01*
X34682094Y56115181D02*
X34729713Y55638991D01*
X34729713Y55638991D02*
X34682094Y55686610D01*
X34682094Y55686610D02*
X34586856Y55734229D01*
X34586856Y55734229D02*
X34348761Y55734229D01*
X34348761Y55734229D02*
X34253523Y55686610D01*
X34253523Y55686610D02*
X34205904Y55638991D01*
X34205904Y55638991D02*
X34158285Y55543753D01*
X34158285Y55543753D02*
X34158285Y55305658D01*
X34158285Y55305658D02*
X34205904Y55210420D01*
X34205904Y55210420D02*
X34253523Y55162800D01*
X34253523Y55162800D02*
X34348761Y55115181D01*
X34348761Y55115181D02*
X34586856Y55115181D01*
X34586856Y55115181D02*
X34682094Y55162800D01*
X34682094Y55162800D02*
X34729713Y55210420D01*
X54682857Y76038420D02*
X54730476Y75990800D01*
X54730476Y75990800D02*
X54873333Y75943181D01*
X54873333Y75943181D02*
X54968571Y75943181D01*
X54968571Y75943181D02*
X55111428Y75990800D01*
X55111428Y75990800D02*
X55206666Y76086039D01*
X55206666Y76086039D02*
X55254285Y76181277D01*
X55254285Y76181277D02*
X55301904Y76371753D01*
X55301904Y76371753D02*
X55301904Y76514610D01*
X55301904Y76514610D02*
X55254285Y76705086D01*
X55254285Y76705086D02*
X55206666Y76800324D01*
X55206666Y76800324D02*
X55111428Y76895562D01*
X55111428Y76895562D02*
X54968571Y76943181D01*
X54968571Y76943181D02*
X54873333Y76943181D01*
X54873333Y76943181D02*
X54730476Y76895562D01*
X54730476Y76895562D02*
X54682857Y76847943D01*
X54301904Y76847943D02*
X54254285Y76895562D01*
X54254285Y76895562D02*
X54159047Y76943181D01*
X54159047Y76943181D02*
X53920952Y76943181D01*
X53920952Y76943181D02*
X53825714Y76895562D01*
X53825714Y76895562D02*
X53778095Y76847943D01*
X53778095Y76847943D02*
X53730476Y76752705D01*
X53730476Y76752705D02*
X53730476Y76657467D01*
X53730476Y76657467D02*
X53778095Y76514610D01*
X53778095Y76514610D02*
X54349523Y75943181D01*
X54349523Y75943181D02*
X53730476Y75943181D01*
X53159047Y76514610D02*
X53254285Y76562229D01*
X53254285Y76562229D02*
X53301904Y76609848D01*
X53301904Y76609848D02*
X53349523Y76705086D01*
X53349523Y76705086D02*
X53349523Y76752705D01*
X53349523Y76752705D02*
X53301904Y76847943D01*
X53301904Y76847943D02*
X53254285Y76895562D01*
X53254285Y76895562D02*
X53159047Y76943181D01*
X53159047Y76943181D02*
X52968571Y76943181D01*
X52968571Y76943181D02*
X52873333Y76895562D01*
X52873333Y76895562D02*
X52825714Y76847943D01*
X52825714Y76847943D02*
X52778095Y76752705D01*
X52778095Y76752705D02*
X52778095Y76705086D01*
X52778095Y76705086D02*
X52825714Y76609848D01*
X52825714Y76609848D02*
X52873333Y76562229D01*
X52873333Y76562229D02*
X52968571Y76514610D01*
X52968571Y76514610D02*
X53159047Y76514610D01*
X53159047Y76514610D02*
X53254285Y76466991D01*
X53254285Y76466991D02*
X53301904Y76419372D01*
X53301904Y76419372D02*
X53349523Y76324134D01*
X53349523Y76324134D02*
X53349523Y76133658D01*
X53349523Y76133658D02*
X53301904Y76038420D01*
X53301904Y76038420D02*
X53254285Y75990800D01*
X53254285Y75990800D02*
X53159047Y75943181D01*
X53159047Y75943181D02*
X52968571Y75943181D01*
X52968571Y75943181D02*
X52873333Y75990800D01*
X52873333Y75990800D02*
X52825714Y76038420D01*
X52825714Y76038420D02*
X52778095Y76133658D01*
X52778095Y76133658D02*
X52778095Y76324134D01*
X52778095Y76324134D02*
X52825714Y76419372D01*
X52825714Y76419372D02*
X52873333Y76466991D01*
X52873333Y76466991D02*
X52968571Y76514610D01*
X37635580Y81644667D02*
X37683200Y81692286D01*
X37683200Y81692286D02*
X37730819Y81835143D01*
X37730819Y81835143D02*
X37730819Y81930381D01*
X37730819Y81930381D02*
X37683200Y82073238D01*
X37683200Y82073238D02*
X37587961Y82168476D01*
X37587961Y82168476D02*
X37492723Y82216095D01*
X37492723Y82216095D02*
X37302247Y82263714D01*
X37302247Y82263714D02*
X37159390Y82263714D01*
X37159390Y82263714D02*
X36968914Y82216095D01*
X36968914Y82216095D02*
X36873676Y82168476D01*
X36873676Y82168476D02*
X36778438Y82073238D01*
X36778438Y82073238D02*
X36730819Y81930381D01*
X36730819Y81930381D02*
X36730819Y81835143D01*
X36730819Y81835143D02*
X36778438Y81692286D01*
X36778438Y81692286D02*
X36826057Y81644667D01*
X37730819Y80692286D02*
X37730819Y81263714D01*
X37730819Y80978000D02*
X36730819Y80978000D01*
X36730819Y80978000D02*
X36873676Y81073238D01*
X36873676Y81073238D02*
X36968914Y81168476D01*
X36968914Y81168476D02*
X37016533Y81263714D01*
X50064857Y61052420D02*
X50112476Y61004800D01*
X50112476Y61004800D02*
X50255333Y60957181D01*
X50255333Y60957181D02*
X50350571Y60957181D01*
X50350571Y60957181D02*
X50493428Y61004800D01*
X50493428Y61004800D02*
X50588666Y61100039D01*
X50588666Y61100039D02*
X50636285Y61195277D01*
X50636285Y61195277D02*
X50683904Y61385753D01*
X50683904Y61385753D02*
X50683904Y61528610D01*
X50683904Y61528610D02*
X50636285Y61719086D01*
X50636285Y61719086D02*
X50588666Y61814324D01*
X50588666Y61814324D02*
X50493428Y61909562D01*
X50493428Y61909562D02*
X50350571Y61957181D01*
X50350571Y61957181D02*
X50255333Y61957181D01*
X50255333Y61957181D02*
X50112476Y61909562D01*
X50112476Y61909562D02*
X50064857Y61861943D01*
X49112476Y60957181D02*
X49683904Y60957181D01*
X49398190Y60957181D02*
X49398190Y61957181D01*
X49398190Y61957181D02*
X49493428Y61814324D01*
X49493428Y61814324D02*
X49588666Y61719086D01*
X49588666Y61719086D02*
X49683904Y61671467D01*
X48636285Y60957181D02*
X48445809Y60957181D01*
X48445809Y60957181D02*
X48350571Y61004800D01*
X48350571Y61004800D02*
X48302952Y61052420D01*
X48302952Y61052420D02*
X48207714Y61195277D01*
X48207714Y61195277D02*
X48160095Y61385753D01*
X48160095Y61385753D02*
X48160095Y61766705D01*
X48160095Y61766705D02*
X48207714Y61861943D01*
X48207714Y61861943D02*
X48255333Y61909562D01*
X48255333Y61909562D02*
X48350571Y61957181D01*
X48350571Y61957181D02*
X48541047Y61957181D01*
X48541047Y61957181D02*
X48636285Y61909562D01*
X48636285Y61909562D02*
X48683904Y61861943D01*
X48683904Y61861943D02*
X48731523Y61766705D01*
X48731523Y61766705D02*
X48731523Y61528610D01*
X48731523Y61528610D02*
X48683904Y61433372D01*
X48683904Y61433372D02*
X48636285Y61385753D01*
X48636285Y61385753D02*
X48541047Y61338134D01*
X48541047Y61338134D02*
X48350571Y61338134D01*
X48350571Y61338134D02*
X48255333Y61385753D01*
X48255333Y61385753D02*
X48207714Y61433372D01*
X48207714Y61433372D02*
X48160095Y61528610D01*
X88464857Y61052420D02*
X88512476Y61004800D01*
X88512476Y61004800D02*
X88655333Y60957181D01*
X88655333Y60957181D02*
X88750571Y60957181D01*
X88750571Y60957181D02*
X88893428Y61004800D01*
X88893428Y61004800D02*
X88988666Y61100039D01*
X88988666Y61100039D02*
X89036285Y61195277D01*
X89036285Y61195277D02*
X89083904Y61385753D01*
X89083904Y61385753D02*
X89083904Y61528610D01*
X89083904Y61528610D02*
X89036285Y61719086D01*
X89036285Y61719086D02*
X88988666Y61814324D01*
X88988666Y61814324D02*
X88893428Y61909562D01*
X88893428Y61909562D02*
X88750571Y61957181D01*
X88750571Y61957181D02*
X88655333Y61957181D01*
X88655333Y61957181D02*
X88512476Y61909562D01*
X88512476Y61909562D02*
X88464857Y61861943D01*
X87560095Y61957181D02*
X88036285Y61957181D01*
X88036285Y61957181D02*
X88083904Y61480991D01*
X88083904Y61480991D02*
X88036285Y61528610D01*
X88036285Y61528610D02*
X87941047Y61576229D01*
X87941047Y61576229D02*
X87702952Y61576229D01*
X87702952Y61576229D02*
X87607714Y61528610D01*
X87607714Y61528610D02*
X87560095Y61480991D01*
X87560095Y61480991D02*
X87512476Y61385753D01*
X87512476Y61385753D02*
X87512476Y61147658D01*
X87512476Y61147658D02*
X87560095Y61052420D01*
X87560095Y61052420D02*
X87607714Y61004800D01*
X87607714Y61004800D02*
X87702952Y60957181D01*
X87702952Y60957181D02*
X87941047Y60957181D01*
X87941047Y60957181D02*
X88036285Y61004800D01*
X88036285Y61004800D02*
X88083904Y61052420D01*
X87179142Y61957181D02*
X86560095Y61957181D01*
X86560095Y61957181D02*
X86893428Y61576229D01*
X86893428Y61576229D02*
X86750571Y61576229D01*
X86750571Y61576229D02*
X86655333Y61528610D01*
X86655333Y61528610D02*
X86607714Y61480991D01*
X86607714Y61480991D02*
X86560095Y61385753D01*
X86560095Y61385753D02*
X86560095Y61147658D01*
X86560095Y61147658D02*
X86607714Y61052420D01*
X86607714Y61052420D02*
X86655333Y61004800D01*
X86655333Y61004800D02*
X86750571Y60957181D01*
X86750571Y60957181D02*
X87036285Y60957181D01*
X87036285Y60957181D02*
X87131523Y61004800D01*
X87131523Y61004800D02*
X87179142Y61052420D01*
X69264857Y40224420D02*
X69312476Y40176800D01*
X69312476Y40176800D02*
X69455333Y40129181D01*
X69455333Y40129181D02*
X69550571Y40129181D01*
X69550571Y40129181D02*
X69693428Y40176800D01*
X69693428Y40176800D02*
X69788666Y40272039D01*
X69788666Y40272039D02*
X69836285Y40367277D01*
X69836285Y40367277D02*
X69883904Y40557753D01*
X69883904Y40557753D02*
X69883904Y40700610D01*
X69883904Y40700610D02*
X69836285Y40891086D01*
X69836285Y40891086D02*
X69788666Y40986324D01*
X69788666Y40986324D02*
X69693428Y41081562D01*
X69693428Y41081562D02*
X69550571Y41129181D01*
X69550571Y41129181D02*
X69455333Y41129181D01*
X69455333Y41129181D02*
X69312476Y41081562D01*
X69312476Y41081562D02*
X69264857Y41033943D01*
X68407714Y40795848D02*
X68407714Y40129181D01*
X68645809Y41176800D02*
X68883904Y40462515D01*
X68883904Y40462515D02*
X68264857Y40462515D01*
X67931523Y41033943D02*
X67883904Y41081562D01*
X67883904Y41081562D02*
X67788666Y41129181D01*
X67788666Y41129181D02*
X67550571Y41129181D01*
X67550571Y41129181D02*
X67455333Y41081562D01*
X67455333Y41081562D02*
X67407714Y41033943D01*
X67407714Y41033943D02*
X67360095Y40938705D01*
X67360095Y40938705D02*
X67360095Y40843467D01*
X67360095Y40843467D02*
X67407714Y40700610D01*
X67407714Y40700610D02*
X67979142Y40129181D01*
X67979142Y40129181D02*
X67360095Y40129181D01*
X83450819Y40718858D02*
X82974628Y41052191D01*
X83450819Y41290286D02*
X82450819Y41290286D01*
X82450819Y41290286D02*
X82450819Y40909334D01*
X82450819Y40909334D02*
X82498438Y40814096D01*
X82498438Y40814096D02*
X82546057Y40766477D01*
X82546057Y40766477D02*
X82641295Y40718858D01*
X82641295Y40718858D02*
X82784152Y40718858D01*
X82784152Y40718858D02*
X82879390Y40766477D01*
X82879390Y40766477D02*
X82927009Y40814096D01*
X82927009Y40814096D02*
X82974628Y40909334D01*
X82974628Y40909334D02*
X82974628Y41290286D01*
X83450819Y39766477D02*
X83450819Y40337905D01*
X83450819Y40052191D02*
X82450819Y40052191D01*
X82450819Y40052191D02*
X82593676Y40147429D01*
X82593676Y40147429D02*
X82688914Y40242667D01*
X82688914Y40242667D02*
X82736533Y40337905D01*
X82450819Y38909334D02*
X82450819Y39099810D01*
X82450819Y39099810D02*
X82498438Y39195048D01*
X82498438Y39195048D02*
X82546057Y39242667D01*
X82546057Y39242667D02*
X82688914Y39337905D01*
X82688914Y39337905D02*
X82879390Y39385524D01*
X82879390Y39385524D02*
X83260342Y39385524D01*
X83260342Y39385524D02*
X83355580Y39337905D01*
X83355580Y39337905D02*
X83403200Y39290286D01*
X83403200Y39290286D02*
X83450819Y39195048D01*
X83450819Y39195048D02*
X83450819Y39004572D01*
X83450819Y39004572D02*
X83403200Y38909334D01*
X83403200Y38909334D02*
X83355580Y38861715D01*
X83355580Y38861715D02*
X83260342Y38814096D01*
X83260342Y38814096D02*
X83022247Y38814096D01*
X83022247Y38814096D02*
X82927009Y38861715D01*
X82927009Y38861715D02*
X82879390Y38909334D01*
X82879390Y38909334D02*
X82831771Y39004572D01*
X82831771Y39004572D02*
X82831771Y39195048D01*
X82831771Y39195048D02*
X82879390Y39290286D01*
X82879390Y39290286D02*
X82927009Y39337905D01*
X82927009Y39337905D02*
X83022247Y39385524D01*
X64400819Y82374858D02*
X63924628Y82708191D01*
X64400819Y82946286D02*
X63400819Y82946286D01*
X63400819Y82946286D02*
X63400819Y82565334D01*
X63400819Y82565334D02*
X63448438Y82470096D01*
X63448438Y82470096D02*
X63496057Y82422477D01*
X63496057Y82422477D02*
X63591295Y82374858D01*
X63591295Y82374858D02*
X63734152Y82374858D01*
X63734152Y82374858D02*
X63829390Y82422477D01*
X63829390Y82422477D02*
X63877009Y82470096D01*
X63877009Y82470096D02*
X63924628Y82565334D01*
X63924628Y82565334D02*
X63924628Y82946286D01*
X64400819Y81422477D02*
X64400819Y81993905D01*
X64400819Y81708191D02*
X63400819Y81708191D01*
X63400819Y81708191D02*
X63543676Y81803429D01*
X63543676Y81803429D02*
X63638914Y81898667D01*
X63638914Y81898667D02*
X63686533Y81993905D01*
X63400819Y80803429D02*
X63400819Y80708191D01*
X63400819Y80708191D02*
X63448438Y80612953D01*
X63448438Y80612953D02*
X63496057Y80565334D01*
X63496057Y80565334D02*
X63591295Y80517715D01*
X63591295Y80517715D02*
X63781771Y80470096D01*
X63781771Y80470096D02*
X64019866Y80470096D01*
X64019866Y80470096D02*
X64210342Y80517715D01*
X64210342Y80517715D02*
X64305580Y80565334D01*
X64305580Y80565334D02*
X64353200Y80612953D01*
X64353200Y80612953D02*
X64400819Y80708191D01*
X64400819Y80708191D02*
X64400819Y80803429D01*
X64400819Y80803429D02*
X64353200Y80898667D01*
X64353200Y80898667D02*
X64305580Y80946286D01*
X64305580Y80946286D02*
X64210342Y80993905D01*
X64210342Y80993905D02*
X64019866Y81041524D01*
X64019866Y81041524D02*
X63781771Y81041524D01*
X63781771Y81041524D02*
X63591295Y80993905D01*
X63591295Y80993905D02*
X63496057Y80946286D01*
X63496057Y80946286D02*
X63448438Y80898667D01*
X63448438Y80898667D02*
X63400819Y80803429D01*
X88464857Y17796420D02*
X88512476Y17748800D01*
X88512476Y17748800D02*
X88655333Y17701181D01*
X88655333Y17701181D02*
X88750571Y17701181D01*
X88750571Y17701181D02*
X88893428Y17748800D01*
X88893428Y17748800D02*
X88988666Y17844039D01*
X88988666Y17844039D02*
X89036285Y17939277D01*
X89036285Y17939277D02*
X89083904Y18129753D01*
X89083904Y18129753D02*
X89083904Y18272610D01*
X89083904Y18272610D02*
X89036285Y18463086D01*
X89036285Y18463086D02*
X88988666Y18558324D01*
X88988666Y18558324D02*
X88893428Y18653562D01*
X88893428Y18653562D02*
X88750571Y18701181D01*
X88750571Y18701181D02*
X88655333Y18701181D01*
X88655333Y18701181D02*
X88512476Y18653562D01*
X88512476Y18653562D02*
X88464857Y18605943D01*
X87560095Y18701181D02*
X88036285Y18701181D01*
X88036285Y18701181D02*
X88083904Y18224991D01*
X88083904Y18224991D02*
X88036285Y18272610D01*
X88036285Y18272610D02*
X87941047Y18320229D01*
X87941047Y18320229D02*
X87702952Y18320229D01*
X87702952Y18320229D02*
X87607714Y18272610D01*
X87607714Y18272610D02*
X87560095Y18224991D01*
X87560095Y18224991D02*
X87512476Y18129753D01*
X87512476Y18129753D02*
X87512476Y17891658D01*
X87512476Y17891658D02*
X87560095Y17796420D01*
X87560095Y17796420D02*
X87607714Y17748800D01*
X87607714Y17748800D02*
X87702952Y17701181D01*
X87702952Y17701181D02*
X87941047Y17701181D01*
X87941047Y17701181D02*
X88036285Y17748800D01*
X88036285Y17748800D02*
X88083904Y17796420D01*
X86560095Y17701181D02*
X87131523Y17701181D01*
X86845809Y17701181D02*
X86845809Y18701181D01*
X86845809Y18701181D02*
X86941047Y18558324D01*
X86941047Y18558324D02*
X87036285Y18463086D01*
X87036285Y18463086D02*
X87131523Y18415467D01*
X54786857Y55210420D02*
X54834476Y55162800D01*
X54834476Y55162800D02*
X54977333Y55115181D01*
X54977333Y55115181D02*
X55072571Y55115181D01*
X55072571Y55115181D02*
X55215428Y55162800D01*
X55215428Y55162800D02*
X55310666Y55258039D01*
X55310666Y55258039D02*
X55358285Y55353277D01*
X55358285Y55353277D02*
X55405904Y55543753D01*
X55405904Y55543753D02*
X55405904Y55686610D01*
X55405904Y55686610D02*
X55358285Y55877086D01*
X55358285Y55877086D02*
X55310666Y55972324D01*
X55310666Y55972324D02*
X55215428Y56067562D01*
X55215428Y56067562D02*
X55072571Y56115181D01*
X55072571Y56115181D02*
X54977333Y56115181D01*
X54977333Y56115181D02*
X54834476Y56067562D01*
X54834476Y56067562D02*
X54786857Y56019943D01*
X54405904Y56019943D02*
X54358285Y56067562D01*
X54358285Y56067562D02*
X54263047Y56115181D01*
X54263047Y56115181D02*
X54024952Y56115181D01*
X54024952Y56115181D02*
X53929714Y56067562D01*
X53929714Y56067562D02*
X53882095Y56019943D01*
X53882095Y56019943D02*
X53834476Y55924705D01*
X53834476Y55924705D02*
X53834476Y55829467D01*
X53834476Y55829467D02*
X53882095Y55686610D01*
X53882095Y55686610D02*
X54453523Y55115181D01*
X54453523Y55115181D02*
X53834476Y55115181D01*
X53358285Y55115181D02*
X53167809Y55115181D01*
X53167809Y55115181D02*
X53072571Y55162800D01*
X53072571Y55162800D02*
X53024952Y55210420D01*
X53024952Y55210420D02*
X52929714Y55353277D01*
X52929714Y55353277D02*
X52882095Y55543753D01*
X52882095Y55543753D02*
X52882095Y55924705D01*
X52882095Y55924705D02*
X52929714Y56019943D01*
X52929714Y56019943D02*
X52977333Y56067562D01*
X52977333Y56067562D02*
X53072571Y56115181D01*
X53072571Y56115181D02*
X53263047Y56115181D01*
X53263047Y56115181D02*
X53358285Y56067562D01*
X53358285Y56067562D02*
X53405904Y56019943D01*
X53405904Y56019943D02*
X53453523Y55924705D01*
X53453523Y55924705D02*
X53453523Y55686610D01*
X53453523Y55686610D02*
X53405904Y55591372D01*
X53405904Y55591372D02*
X53358285Y55543753D01*
X53358285Y55543753D02*
X53263047Y55496134D01*
X53263047Y55496134D02*
X53072571Y55496134D01*
X53072571Y55496134D02*
X52977333Y55543753D01*
X52977333Y55543753D02*
X52929714Y55591372D01*
X52929714Y55591372D02*
X52882095Y55686610D01*
X37993580Y61596495D02*
X38041200Y61644114D01*
X38041200Y61644114D02*
X38088819Y61786971D01*
X38088819Y61786971D02*
X38088819Y61882209D01*
X38088819Y61882209D02*
X38041200Y62025066D01*
X38041200Y62025066D02*
X37945961Y62120304D01*
X37945961Y62120304D02*
X37850723Y62167923D01*
X37850723Y62167923D02*
X37660247Y62215542D01*
X37660247Y62215542D02*
X37517390Y62215542D01*
X37517390Y62215542D02*
X37326914Y62167923D01*
X37326914Y62167923D02*
X37231676Y62120304D01*
X37231676Y62120304D02*
X37136438Y62025066D01*
X37136438Y62025066D02*
X37088819Y61882209D01*
X37088819Y61882209D02*
X37088819Y61786971D01*
X37088819Y61786971D02*
X37136438Y61644114D01*
X37136438Y61644114D02*
X37184057Y61596495D01*
X38088819Y60644114D02*
X38088819Y61215542D01*
X38088819Y60929828D02*
X37088819Y60929828D01*
X37088819Y60929828D02*
X37231676Y61025066D01*
X37231676Y61025066D02*
X37326914Y61120304D01*
X37326914Y61120304D02*
X37374533Y61215542D01*
X37088819Y60310780D02*
X37088819Y59644114D01*
X37088819Y59644114D02*
X38088819Y60072685D01*
X57043580Y40718858D02*
X57091200Y40766477D01*
X57091200Y40766477D02*
X57138819Y40909334D01*
X57138819Y40909334D02*
X57138819Y41004572D01*
X57138819Y41004572D02*
X57091200Y41147429D01*
X57091200Y41147429D02*
X56995961Y41242667D01*
X56995961Y41242667D02*
X56900723Y41290286D01*
X56900723Y41290286D02*
X56710247Y41337905D01*
X56710247Y41337905D02*
X56567390Y41337905D01*
X56567390Y41337905D02*
X56376914Y41290286D01*
X56376914Y41290286D02*
X56281676Y41242667D01*
X56281676Y41242667D02*
X56186438Y41147429D01*
X56186438Y41147429D02*
X56138819Y41004572D01*
X56138819Y41004572D02*
X56138819Y40909334D01*
X56138819Y40909334D02*
X56186438Y40766477D01*
X56186438Y40766477D02*
X56234057Y40718858D01*
X56138819Y40385524D02*
X56138819Y39766477D01*
X56138819Y39766477D02*
X56519771Y40099810D01*
X56519771Y40099810D02*
X56519771Y39956953D01*
X56519771Y39956953D02*
X56567390Y39861715D01*
X56567390Y39861715D02*
X56615009Y39814096D01*
X56615009Y39814096D02*
X56710247Y39766477D01*
X56710247Y39766477D02*
X56948342Y39766477D01*
X56948342Y39766477D02*
X57043580Y39814096D01*
X57043580Y39814096D02*
X57091200Y39861715D01*
X57091200Y39861715D02*
X57138819Y39956953D01*
X57138819Y39956953D02*
X57138819Y40242667D01*
X57138819Y40242667D02*
X57091200Y40337905D01*
X57091200Y40337905D02*
X57043580Y40385524D01*
X56472152Y38909334D02*
X57138819Y38909334D01*
X56091200Y39147429D02*
X56805485Y39385524D01*
X56805485Y39385524D02*
X56805485Y38766477D01*
X57193580Y61596495D02*
X57241200Y61644114D01*
X57241200Y61644114D02*
X57288819Y61786971D01*
X57288819Y61786971D02*
X57288819Y61882209D01*
X57288819Y61882209D02*
X57241200Y62025066D01*
X57241200Y62025066D02*
X57145961Y62120304D01*
X57145961Y62120304D02*
X57050723Y62167923D01*
X57050723Y62167923D02*
X56860247Y62215542D01*
X56860247Y62215542D02*
X56717390Y62215542D01*
X56717390Y62215542D02*
X56526914Y62167923D01*
X56526914Y62167923D02*
X56431676Y62120304D01*
X56431676Y62120304D02*
X56336438Y62025066D01*
X56336438Y62025066D02*
X56288819Y61882209D01*
X56288819Y61882209D02*
X56288819Y61786971D01*
X56288819Y61786971D02*
X56336438Y61644114D01*
X56336438Y61644114D02*
X56384057Y61596495D01*
X56288819Y61263161D02*
X56288819Y60644114D01*
X56288819Y60644114D02*
X56669771Y60977447D01*
X56669771Y60977447D02*
X56669771Y60834590D01*
X56669771Y60834590D02*
X56717390Y60739352D01*
X56717390Y60739352D02*
X56765009Y60691733D01*
X56765009Y60691733D02*
X56860247Y60644114D01*
X56860247Y60644114D02*
X57098342Y60644114D01*
X57098342Y60644114D02*
X57193580Y60691733D01*
X57193580Y60691733D02*
X57241200Y60739352D01*
X57241200Y60739352D02*
X57288819Y60834590D01*
X57288819Y60834590D02*
X57288819Y61120304D01*
X57288819Y61120304D02*
X57241200Y61215542D01*
X57241200Y61215542D02*
X57193580Y61263161D01*
X56288819Y60310780D02*
X56288819Y59691733D01*
X56288819Y59691733D02*
X56669771Y60025066D01*
X56669771Y60025066D02*
X56669771Y59882209D01*
X56669771Y59882209D02*
X56717390Y59786971D01*
X56717390Y59786971D02*
X56765009Y59739352D01*
X56765009Y59739352D02*
X56860247Y59691733D01*
X56860247Y59691733D02*
X57098342Y59691733D01*
X57098342Y59691733D02*
X57193580Y59739352D01*
X57193580Y59739352D02*
X57241200Y59786971D01*
X57241200Y59786971D02*
X57288819Y59882209D01*
X57288819Y59882209D02*
X57288819Y60167923D01*
X57288819Y60167923D02*
X57241200Y60263161D01*
X57241200Y60263161D02*
X57193580Y60310780D01*
X56939580Y82374858D02*
X56987200Y82422477D01*
X56987200Y82422477D02*
X57034819Y82565334D01*
X57034819Y82565334D02*
X57034819Y82660572D01*
X57034819Y82660572D02*
X56987200Y82803429D01*
X56987200Y82803429D02*
X56891961Y82898667D01*
X56891961Y82898667D02*
X56796723Y82946286D01*
X56796723Y82946286D02*
X56606247Y82993905D01*
X56606247Y82993905D02*
X56463390Y82993905D01*
X56463390Y82993905D02*
X56272914Y82946286D01*
X56272914Y82946286D02*
X56177676Y82898667D01*
X56177676Y82898667D02*
X56082438Y82803429D01*
X56082438Y82803429D02*
X56034819Y82660572D01*
X56034819Y82660572D02*
X56034819Y82565334D01*
X56034819Y82565334D02*
X56082438Y82422477D01*
X56082438Y82422477D02*
X56130057Y82374858D01*
X56034819Y82041524D02*
X56034819Y81422477D01*
X56034819Y81422477D02*
X56415771Y81755810D01*
X56415771Y81755810D02*
X56415771Y81612953D01*
X56415771Y81612953D02*
X56463390Y81517715D01*
X56463390Y81517715D02*
X56511009Y81470096D01*
X56511009Y81470096D02*
X56606247Y81422477D01*
X56606247Y81422477D02*
X56844342Y81422477D01*
X56844342Y81422477D02*
X56939580Y81470096D01*
X56939580Y81470096D02*
X56987200Y81517715D01*
X56987200Y81517715D02*
X57034819Y81612953D01*
X57034819Y81612953D02*
X57034819Y81898667D01*
X57034819Y81898667D02*
X56987200Y81993905D01*
X56987200Y81993905D02*
X56939580Y82041524D01*
X56130057Y81041524D02*
X56082438Y80993905D01*
X56082438Y80993905D02*
X56034819Y80898667D01*
X56034819Y80898667D02*
X56034819Y80660572D01*
X56034819Y80660572D02*
X56082438Y80565334D01*
X56082438Y80565334D02*
X56130057Y80517715D01*
X56130057Y80517715D02*
X56225295Y80470096D01*
X56225295Y80470096D02*
X56320533Y80470096D01*
X56320533Y80470096D02*
X56463390Y80517715D01*
X56463390Y80517715D02*
X57034819Y81089143D01*
X57034819Y81089143D02*
X57034819Y80470096D01*
X51579333Y33509181D02*
X51579333Y32794896D01*
X51579333Y32794896D02*
X51626952Y32652039D01*
X51626952Y32652039D02*
X51722190Y32556800D01*
X51722190Y32556800D02*
X51865047Y32509181D01*
X51865047Y32509181D02*
X51960285Y32509181D01*
X51198380Y33509181D02*
X50531714Y33509181D01*
X50531714Y33509181D02*
X50960285Y32509181D01*
X52348833Y75438181D02*
X52348833Y74723896D01*
X52348833Y74723896D02*
X52396452Y74581039D01*
X52396452Y74581039D02*
X52491690Y74485800D01*
X52491690Y74485800D02*
X52634547Y74438181D01*
X52634547Y74438181D02*
X52729785Y74438181D01*
X51396452Y75438181D02*
X51872642Y75438181D01*
X51872642Y75438181D02*
X51920261Y74961991D01*
X51920261Y74961991D02*
X51872642Y75009610D01*
X51872642Y75009610D02*
X51777404Y75057229D01*
X51777404Y75057229D02*
X51539309Y75057229D01*
X51539309Y75057229D02*
X51444071Y75009610D01*
X51444071Y75009610D02*
X51396452Y74961991D01*
X51396452Y74961991D02*
X51348833Y74866753D01*
X51348833Y74866753D02*
X51348833Y74628658D01*
X51348833Y74628658D02*
X51396452Y74533420D01*
X51396452Y74533420D02*
X51444071Y74485800D01*
X51444071Y74485800D02*
X51539309Y74438181D01*
X51539309Y74438181D02*
X51777404Y74438181D01*
X51777404Y74438181D02*
X51872642Y74485800D01*
X51872642Y74485800D02*
X51920261Y74533420D01*
X64400819Y61546858D02*
X63924628Y61880191D01*
X64400819Y62118286D02*
X63400819Y62118286D01*
X63400819Y62118286D02*
X63400819Y61737334D01*
X63400819Y61737334D02*
X63448438Y61642096D01*
X63448438Y61642096D02*
X63496057Y61594477D01*
X63496057Y61594477D02*
X63591295Y61546858D01*
X63591295Y61546858D02*
X63734152Y61546858D01*
X63734152Y61546858D02*
X63829390Y61594477D01*
X63829390Y61594477D02*
X63877009Y61642096D01*
X63877009Y61642096D02*
X63924628Y61737334D01*
X63924628Y61737334D02*
X63924628Y62118286D01*
X64400819Y60594477D02*
X64400819Y61165905D01*
X64400819Y60880191D02*
X63400819Y60880191D01*
X63400819Y60880191D02*
X63543676Y60975429D01*
X63543676Y60975429D02*
X63638914Y61070667D01*
X63638914Y61070667D02*
X63686533Y61165905D01*
X64400819Y59642096D02*
X64400819Y60213524D01*
X64400819Y59927810D02*
X63400819Y59927810D01*
X63400819Y59927810D02*
X63543676Y60023048D01*
X63543676Y60023048D02*
X63638914Y60118286D01*
X63638914Y60118286D02*
X63686533Y60213524D01*
X54717857Y34382420D02*
X54765476Y34334800D01*
X54765476Y34334800D02*
X54908333Y34287181D01*
X54908333Y34287181D02*
X55003571Y34287181D01*
X55003571Y34287181D02*
X55146428Y34334800D01*
X55146428Y34334800D02*
X55241666Y34430039D01*
X55241666Y34430039D02*
X55289285Y34525277D01*
X55289285Y34525277D02*
X55336904Y34715753D01*
X55336904Y34715753D02*
X55336904Y34858610D01*
X55336904Y34858610D02*
X55289285Y35049086D01*
X55289285Y35049086D02*
X55241666Y35144324D01*
X55241666Y35144324D02*
X55146428Y35239562D01*
X55146428Y35239562D02*
X55003571Y35287181D01*
X55003571Y35287181D02*
X54908333Y35287181D01*
X54908333Y35287181D02*
X54765476Y35239562D01*
X54765476Y35239562D02*
X54717857Y35191943D01*
X54384523Y35287181D02*
X53765476Y35287181D01*
X53765476Y35287181D02*
X54098809Y34906229D01*
X54098809Y34906229D02*
X53955952Y34906229D01*
X53955952Y34906229D02*
X53860714Y34858610D01*
X53860714Y34858610D02*
X53813095Y34810991D01*
X53813095Y34810991D02*
X53765476Y34715753D01*
X53765476Y34715753D02*
X53765476Y34477658D01*
X53765476Y34477658D02*
X53813095Y34382420D01*
X53813095Y34382420D02*
X53860714Y34334800D01*
X53860714Y34334800D02*
X53955952Y34287181D01*
X53955952Y34287181D02*
X54241666Y34287181D01*
X54241666Y34287181D02*
X54336904Y34334800D01*
X54336904Y34334800D02*
X54384523Y34382420D01*
X53146428Y35287181D02*
X53051190Y35287181D01*
X53051190Y35287181D02*
X52955952Y35239562D01*
X52955952Y35239562D02*
X52908333Y35191943D01*
X52908333Y35191943D02*
X52860714Y35096705D01*
X52860714Y35096705D02*
X52813095Y34906229D01*
X52813095Y34906229D02*
X52813095Y34668134D01*
X52813095Y34668134D02*
X52860714Y34477658D01*
X52860714Y34477658D02*
X52908333Y34382420D01*
X52908333Y34382420D02*
X52955952Y34334800D01*
X52955952Y34334800D02*
X53051190Y34287181D01*
X53051190Y34287181D02*
X53146428Y34287181D01*
X53146428Y34287181D02*
X53241666Y34334800D01*
X53241666Y34334800D02*
X53289285Y34382420D01*
X53289285Y34382420D02*
X53336904Y34477658D01*
X53336904Y34477658D02*
X53384523Y34668134D01*
X53384523Y34668134D02*
X53384523Y34906229D01*
X53384523Y34906229D02*
X53336904Y35096705D01*
X53336904Y35096705D02*
X53289285Y35191943D01*
X53289285Y35191943D02*
X53241666Y35239562D01*
X53241666Y35239562D02*
X53146428Y35287181D01*
X88464857Y81956420D02*
X88512476Y81908800D01*
X88512476Y81908800D02*
X88655333Y81861181D01*
X88655333Y81861181D02*
X88750571Y81861181D01*
X88750571Y81861181D02*
X88893428Y81908800D01*
X88893428Y81908800D02*
X88988666Y82004039D01*
X88988666Y82004039D02*
X89036285Y82099277D01*
X89036285Y82099277D02*
X89083904Y82289753D01*
X89083904Y82289753D02*
X89083904Y82432610D01*
X89083904Y82432610D02*
X89036285Y82623086D01*
X89036285Y82623086D02*
X88988666Y82718324D01*
X88988666Y82718324D02*
X88893428Y82813562D01*
X88893428Y82813562D02*
X88750571Y82861181D01*
X88750571Y82861181D02*
X88655333Y82861181D01*
X88655333Y82861181D02*
X88512476Y82813562D01*
X88512476Y82813562D02*
X88464857Y82765943D01*
X87560095Y82861181D02*
X88036285Y82861181D01*
X88036285Y82861181D02*
X88083904Y82384991D01*
X88083904Y82384991D02*
X88036285Y82432610D01*
X88036285Y82432610D02*
X87941047Y82480229D01*
X87941047Y82480229D02*
X87702952Y82480229D01*
X87702952Y82480229D02*
X87607714Y82432610D01*
X87607714Y82432610D02*
X87560095Y82384991D01*
X87560095Y82384991D02*
X87512476Y82289753D01*
X87512476Y82289753D02*
X87512476Y82051658D01*
X87512476Y82051658D02*
X87560095Y81956420D01*
X87560095Y81956420D02*
X87607714Y81908800D01*
X87607714Y81908800D02*
X87702952Y81861181D01*
X87702952Y81861181D02*
X87941047Y81861181D01*
X87941047Y81861181D02*
X88036285Y81908800D01*
X88036285Y81908800D02*
X88083904Y81956420D01*
X86655333Y82861181D02*
X86845809Y82861181D01*
X86845809Y82861181D02*
X86941047Y82813562D01*
X86941047Y82813562D02*
X86988666Y82765943D01*
X86988666Y82765943D02*
X87083904Y82623086D01*
X87083904Y82623086D02*
X87131523Y82432610D01*
X87131523Y82432610D02*
X87131523Y82051658D01*
X87131523Y82051658D02*
X87083904Y81956420D01*
X87083904Y81956420D02*
X87036285Y81908800D01*
X87036285Y81908800D02*
X86941047Y81861181D01*
X86941047Y81861181D02*
X86750571Y81861181D01*
X86750571Y81861181D02*
X86655333Y81908800D01*
X86655333Y81908800D02*
X86607714Y81956420D01*
X86607714Y81956420D02*
X86560095Y82051658D01*
X86560095Y82051658D02*
X86560095Y82289753D01*
X86560095Y82289753D02*
X86607714Y82384991D01*
X86607714Y82384991D02*
X86655333Y82432610D01*
X86655333Y82432610D02*
X86750571Y82480229D01*
X86750571Y82480229D02*
X86941047Y82480229D01*
X86941047Y82480229D02*
X87036285Y82432610D01*
X87036285Y82432610D02*
X87083904Y82384991D01*
X87083904Y82384991D02*
X87131523Y82289753D01*
X50064857Y59452420D02*
X50112476Y59404800D01*
X50112476Y59404800D02*
X50255333Y59357181D01*
X50255333Y59357181D02*
X50350571Y59357181D01*
X50350571Y59357181D02*
X50493428Y59404800D01*
X50493428Y59404800D02*
X50588666Y59500039D01*
X50588666Y59500039D02*
X50636285Y59595277D01*
X50636285Y59595277D02*
X50683904Y59785753D01*
X50683904Y59785753D02*
X50683904Y59928610D01*
X50683904Y59928610D02*
X50636285Y60119086D01*
X50636285Y60119086D02*
X50588666Y60214324D01*
X50588666Y60214324D02*
X50493428Y60309562D01*
X50493428Y60309562D02*
X50350571Y60357181D01*
X50350571Y60357181D02*
X50255333Y60357181D01*
X50255333Y60357181D02*
X50112476Y60309562D01*
X50112476Y60309562D02*
X50064857Y60261943D01*
X49112476Y59357181D02*
X49683904Y59357181D01*
X49398190Y59357181D02*
X49398190Y60357181D01*
X49398190Y60357181D02*
X49493428Y60214324D01*
X49493428Y60214324D02*
X49588666Y60119086D01*
X49588666Y60119086D02*
X49683904Y60071467D01*
X48541047Y59928610D02*
X48636285Y59976229D01*
X48636285Y59976229D02*
X48683904Y60023848D01*
X48683904Y60023848D02*
X48731523Y60119086D01*
X48731523Y60119086D02*
X48731523Y60166705D01*
X48731523Y60166705D02*
X48683904Y60261943D01*
X48683904Y60261943D02*
X48636285Y60309562D01*
X48636285Y60309562D02*
X48541047Y60357181D01*
X48541047Y60357181D02*
X48350571Y60357181D01*
X48350571Y60357181D02*
X48255333Y60309562D01*
X48255333Y60309562D02*
X48207714Y60261943D01*
X48207714Y60261943D02*
X48160095Y60166705D01*
X48160095Y60166705D02*
X48160095Y60119086D01*
X48160095Y60119086D02*
X48207714Y60023848D01*
X48207714Y60023848D02*
X48255333Y59976229D01*
X48255333Y59976229D02*
X48350571Y59928610D01*
X48350571Y59928610D02*
X48541047Y59928610D01*
X48541047Y59928610D02*
X48636285Y59880991D01*
X48636285Y59880991D02*
X48683904Y59833372D01*
X48683904Y59833372D02*
X48731523Y59738134D01*
X48731523Y59738134D02*
X48731523Y59547658D01*
X48731523Y59547658D02*
X48683904Y59452420D01*
X48683904Y59452420D02*
X48636285Y59404800D01*
X48636285Y59404800D02*
X48541047Y59357181D01*
X48541047Y59357181D02*
X48350571Y59357181D01*
X48350571Y59357181D02*
X48255333Y59404800D01*
X48255333Y59404800D02*
X48207714Y59452420D01*
X48207714Y59452420D02*
X48160095Y59547658D01*
X48160095Y59547658D02*
X48160095Y59738134D01*
X48160095Y59738134D02*
X48207714Y59833372D01*
X48207714Y59833372D02*
X48255333Y59880991D01*
X48255333Y59880991D02*
X48350571Y59928610D01*
X50064857Y17796420D02*
X50112476Y17748800D01*
X50112476Y17748800D02*
X50255333Y17701181D01*
X50255333Y17701181D02*
X50350571Y17701181D01*
X50350571Y17701181D02*
X50493428Y17748800D01*
X50493428Y17748800D02*
X50588666Y17844039D01*
X50588666Y17844039D02*
X50636285Y17939277D01*
X50636285Y17939277D02*
X50683904Y18129753D01*
X50683904Y18129753D02*
X50683904Y18272610D01*
X50683904Y18272610D02*
X50636285Y18463086D01*
X50636285Y18463086D02*
X50588666Y18558324D01*
X50588666Y18558324D02*
X50493428Y18653562D01*
X50493428Y18653562D02*
X50350571Y18701181D01*
X50350571Y18701181D02*
X50255333Y18701181D01*
X50255333Y18701181D02*
X50112476Y18653562D01*
X50112476Y18653562D02*
X50064857Y18605943D01*
X49683904Y18605943D02*
X49636285Y18653562D01*
X49636285Y18653562D02*
X49541047Y18701181D01*
X49541047Y18701181D02*
X49302952Y18701181D01*
X49302952Y18701181D02*
X49207714Y18653562D01*
X49207714Y18653562D02*
X49160095Y18605943D01*
X49160095Y18605943D02*
X49112476Y18510705D01*
X49112476Y18510705D02*
X49112476Y18415467D01*
X49112476Y18415467D02*
X49160095Y18272610D01*
X49160095Y18272610D02*
X49731523Y17701181D01*
X49731523Y17701181D02*
X49112476Y17701181D01*
X48779142Y18701181D02*
X48160095Y18701181D01*
X48160095Y18701181D02*
X48493428Y18320229D01*
X48493428Y18320229D02*
X48350571Y18320229D01*
X48350571Y18320229D02*
X48255333Y18272610D01*
X48255333Y18272610D02*
X48207714Y18224991D01*
X48207714Y18224991D02*
X48160095Y18129753D01*
X48160095Y18129753D02*
X48160095Y17891658D01*
X48160095Y17891658D02*
X48207714Y17796420D01*
X48207714Y17796420D02*
X48255333Y17748800D01*
X48255333Y17748800D02*
X48350571Y17701181D01*
X48350571Y17701181D02*
X48636285Y17701181D01*
X48636285Y17701181D02*
X48731523Y17748800D01*
X48731523Y17748800D02*
X48779142Y17796420D01*
X50064857Y38624420D02*
X50112476Y38576800D01*
X50112476Y38576800D02*
X50255333Y38529181D01*
X50255333Y38529181D02*
X50350571Y38529181D01*
X50350571Y38529181D02*
X50493428Y38576800D01*
X50493428Y38576800D02*
X50588666Y38672039D01*
X50588666Y38672039D02*
X50636285Y38767277D01*
X50636285Y38767277D02*
X50683904Y38957753D01*
X50683904Y38957753D02*
X50683904Y39100610D01*
X50683904Y39100610D02*
X50636285Y39291086D01*
X50636285Y39291086D02*
X50588666Y39386324D01*
X50588666Y39386324D02*
X50493428Y39481562D01*
X50493428Y39481562D02*
X50350571Y39529181D01*
X50350571Y39529181D02*
X50255333Y39529181D01*
X50255333Y39529181D02*
X50112476Y39481562D01*
X50112476Y39481562D02*
X50064857Y39433943D01*
X49683904Y39433943D02*
X49636285Y39481562D01*
X49636285Y39481562D02*
X49541047Y39529181D01*
X49541047Y39529181D02*
X49302952Y39529181D01*
X49302952Y39529181D02*
X49207714Y39481562D01*
X49207714Y39481562D02*
X49160095Y39433943D01*
X49160095Y39433943D02*
X49112476Y39338705D01*
X49112476Y39338705D02*
X49112476Y39243467D01*
X49112476Y39243467D02*
X49160095Y39100610D01*
X49160095Y39100610D02*
X49731523Y38529181D01*
X49731523Y38529181D02*
X49112476Y38529181D01*
X48255333Y39195848D02*
X48255333Y38529181D01*
X48493428Y39576800D02*
X48731523Y38862515D01*
X48731523Y38862515D02*
X48112476Y38862515D01*
X83450819Y82374858D02*
X82974628Y82708191D01*
X83450819Y82946286D02*
X82450819Y82946286D01*
X82450819Y82946286D02*
X82450819Y82565334D01*
X82450819Y82565334D02*
X82498438Y82470096D01*
X82498438Y82470096D02*
X82546057Y82422477D01*
X82546057Y82422477D02*
X82641295Y82374858D01*
X82641295Y82374858D02*
X82784152Y82374858D01*
X82784152Y82374858D02*
X82879390Y82422477D01*
X82879390Y82422477D02*
X82927009Y82470096D01*
X82927009Y82470096D02*
X82974628Y82565334D01*
X82974628Y82565334D02*
X82974628Y82946286D01*
X83450819Y81422477D02*
X83450819Y81993905D01*
X83450819Y81708191D02*
X82450819Y81708191D01*
X82450819Y81708191D02*
X82593676Y81803429D01*
X82593676Y81803429D02*
X82688914Y81898667D01*
X82688914Y81898667D02*
X82736533Y81993905D01*
X82784152Y80565334D02*
X83450819Y80565334D01*
X82403200Y80803429D02*
X83117485Y81041524D01*
X83117485Y81041524D02*
X83117485Y80422477D01*
X45050819Y40242667D02*
X44574628Y40576000D01*
X45050819Y40814095D02*
X44050819Y40814095D01*
X44050819Y40814095D02*
X44050819Y40433143D01*
X44050819Y40433143D02*
X44098438Y40337905D01*
X44098438Y40337905D02*
X44146057Y40290286D01*
X44146057Y40290286D02*
X44241295Y40242667D01*
X44241295Y40242667D02*
X44384152Y40242667D01*
X44384152Y40242667D02*
X44479390Y40290286D01*
X44479390Y40290286D02*
X44527009Y40337905D01*
X44527009Y40337905D02*
X44574628Y40433143D01*
X44574628Y40433143D02*
X44574628Y40814095D01*
X44146057Y39861714D02*
X44098438Y39814095D01*
X44098438Y39814095D02*
X44050819Y39718857D01*
X44050819Y39718857D02*
X44050819Y39480762D01*
X44050819Y39480762D02*
X44098438Y39385524D01*
X44098438Y39385524D02*
X44146057Y39337905D01*
X44146057Y39337905D02*
X44241295Y39290286D01*
X44241295Y39290286D02*
X44336533Y39290286D01*
X44336533Y39290286D02*
X44479390Y39337905D01*
X44479390Y39337905D02*
X45050819Y39909333D01*
X45050819Y39909333D02*
X45050819Y39290286D01*
X88464857Y38624420D02*
X88512476Y38576800D01*
X88512476Y38576800D02*
X88655333Y38529181D01*
X88655333Y38529181D02*
X88750571Y38529181D01*
X88750571Y38529181D02*
X88893428Y38576800D01*
X88893428Y38576800D02*
X88988666Y38672039D01*
X88988666Y38672039D02*
X89036285Y38767277D01*
X89036285Y38767277D02*
X89083904Y38957753D01*
X89083904Y38957753D02*
X89083904Y39100610D01*
X89083904Y39100610D02*
X89036285Y39291086D01*
X89036285Y39291086D02*
X88988666Y39386324D01*
X88988666Y39386324D02*
X88893428Y39481562D01*
X88893428Y39481562D02*
X88750571Y39529181D01*
X88750571Y39529181D02*
X88655333Y39529181D01*
X88655333Y39529181D02*
X88512476Y39481562D01*
X88512476Y39481562D02*
X88464857Y39433943D01*
X87560095Y39529181D02*
X88036285Y39529181D01*
X88036285Y39529181D02*
X88083904Y39052991D01*
X88083904Y39052991D02*
X88036285Y39100610D01*
X88036285Y39100610D02*
X87941047Y39148229D01*
X87941047Y39148229D02*
X87702952Y39148229D01*
X87702952Y39148229D02*
X87607714Y39100610D01*
X87607714Y39100610D02*
X87560095Y39052991D01*
X87560095Y39052991D02*
X87512476Y38957753D01*
X87512476Y38957753D02*
X87512476Y38719658D01*
X87512476Y38719658D02*
X87560095Y38624420D01*
X87560095Y38624420D02*
X87607714Y38576800D01*
X87607714Y38576800D02*
X87702952Y38529181D01*
X87702952Y38529181D02*
X87941047Y38529181D01*
X87941047Y38529181D02*
X88036285Y38576800D01*
X88036285Y38576800D02*
X88083904Y38624420D01*
X86655333Y39195848D02*
X86655333Y38529181D01*
X86893428Y39576800D02*
X87131523Y38862515D01*
X87131523Y38862515D02*
X86512476Y38862515D01*
X73986857Y55210420D02*
X74034476Y55162800D01*
X74034476Y55162800D02*
X74177333Y55115181D01*
X74177333Y55115181D02*
X74272571Y55115181D01*
X74272571Y55115181D02*
X74415428Y55162800D01*
X74415428Y55162800D02*
X74510666Y55258039D01*
X74510666Y55258039D02*
X74558285Y55353277D01*
X74558285Y55353277D02*
X74605904Y55543753D01*
X74605904Y55543753D02*
X74605904Y55686610D01*
X74605904Y55686610D02*
X74558285Y55877086D01*
X74558285Y55877086D02*
X74510666Y55972324D01*
X74510666Y55972324D02*
X74415428Y56067562D01*
X74415428Y56067562D02*
X74272571Y56115181D01*
X74272571Y56115181D02*
X74177333Y56115181D01*
X74177333Y56115181D02*
X74034476Y56067562D01*
X74034476Y56067562D02*
X73986857Y56019943D01*
X73129714Y55781848D02*
X73129714Y55115181D01*
X73367809Y56162800D02*
X73605904Y55448515D01*
X73605904Y55448515D02*
X72986857Y55448515D01*
X72129714Y56115181D02*
X72605904Y56115181D01*
X72605904Y56115181D02*
X72653523Y55638991D01*
X72653523Y55638991D02*
X72605904Y55686610D01*
X72605904Y55686610D02*
X72510666Y55734229D01*
X72510666Y55734229D02*
X72272571Y55734229D01*
X72272571Y55734229D02*
X72177333Y55686610D01*
X72177333Y55686610D02*
X72129714Y55638991D01*
X72129714Y55638991D02*
X72082095Y55543753D01*
X72082095Y55543753D02*
X72082095Y55305658D01*
X72082095Y55305658D02*
X72129714Y55210420D01*
X72129714Y55210420D02*
X72177333Y55162800D01*
X72177333Y55162800D02*
X72272571Y55115181D01*
X72272571Y55115181D02*
X72510666Y55115181D01*
X72510666Y55115181D02*
X72605904Y55162800D01*
X72605904Y55162800D02*
X72653523Y55210420D01*
X71001523Y54337181D02*
X71001523Y53622896D01*
X71001523Y53622896D02*
X71049142Y53480039D01*
X71049142Y53480039D02*
X71144380Y53384800D01*
X71144380Y53384800D02*
X71287237Y53337181D01*
X71287237Y53337181D02*
X71382475Y53337181D01*
X70001523Y53337181D02*
X70572951Y53337181D01*
X70287237Y53337181D02*
X70287237Y54337181D01*
X70287237Y54337181D02*
X70382475Y54194324D01*
X70382475Y54194324D02*
X70477713Y54099086D01*
X70477713Y54099086D02*
X70572951Y54051467D01*
X69382475Y54337181D02*
X69287237Y54337181D01*
X69287237Y54337181D02*
X69191999Y54289562D01*
X69191999Y54289562D02*
X69144380Y54241943D01*
X69144380Y54241943D02*
X69096761Y54146705D01*
X69096761Y54146705D02*
X69049142Y53956229D01*
X69049142Y53956229D02*
X69049142Y53718134D01*
X69049142Y53718134D02*
X69096761Y53527658D01*
X69096761Y53527658D02*
X69144380Y53432420D01*
X69144380Y53432420D02*
X69191999Y53384800D01*
X69191999Y53384800D02*
X69287237Y53337181D01*
X69287237Y53337181D02*
X69382475Y53337181D01*
X69382475Y53337181D02*
X69477713Y53384800D01*
X69477713Y53384800D02*
X69525332Y53432420D01*
X69525332Y53432420D02*
X69572951Y53527658D01*
X69572951Y53527658D02*
X69620570Y53718134D01*
X69620570Y53718134D02*
X69620570Y53956229D01*
X69620570Y53956229D02*
X69572951Y54146705D01*
X69572951Y54146705D02*
X69525332Y54241943D01*
X69525332Y54241943D02*
X69477713Y54289562D01*
X69477713Y54289562D02*
X69382475Y54337181D01*
X64296819Y19636858D02*
X63820628Y19970191D01*
X64296819Y20208286D02*
X63296819Y20208286D01*
X63296819Y20208286D02*
X63296819Y19827334D01*
X63296819Y19827334D02*
X63344438Y19732096D01*
X63344438Y19732096D02*
X63392057Y19684477D01*
X63392057Y19684477D02*
X63487295Y19636858D01*
X63487295Y19636858D02*
X63630152Y19636858D01*
X63630152Y19636858D02*
X63725390Y19684477D01*
X63725390Y19684477D02*
X63773009Y19732096D01*
X63773009Y19732096D02*
X63820628Y19827334D01*
X63820628Y19827334D02*
X63820628Y20208286D01*
X64296819Y18684477D02*
X64296819Y19255905D01*
X64296819Y18970191D02*
X63296819Y18970191D01*
X63296819Y18970191D02*
X63439676Y19065429D01*
X63439676Y19065429D02*
X63534914Y19160667D01*
X63534914Y19160667D02*
X63582533Y19255905D01*
X63296819Y18351143D02*
X63296819Y17732096D01*
X63296819Y17732096D02*
X63677771Y18065429D01*
X63677771Y18065429D02*
X63677771Y17922572D01*
X63677771Y17922572D02*
X63725390Y17827334D01*
X63725390Y17827334D02*
X63773009Y17779715D01*
X63773009Y17779715D02*
X63868247Y17732096D01*
X63868247Y17732096D02*
X64106342Y17732096D01*
X64106342Y17732096D02*
X64201580Y17779715D01*
X64201580Y17779715D02*
X64249200Y17827334D01*
X64249200Y17827334D02*
X64296819Y17922572D01*
X64296819Y17922572D02*
X64296819Y18208286D01*
X64296819Y18208286D02*
X64249200Y18303524D01*
X64249200Y18303524D02*
X64201580Y18351143D01*
X35066666Y76038420D02*
X35114285Y75990800D01*
X35114285Y75990800D02*
X35257142Y75943181D01*
X35257142Y75943181D02*
X35352380Y75943181D01*
X35352380Y75943181D02*
X35495237Y75990800D01*
X35495237Y75990800D02*
X35590475Y76086039D01*
X35590475Y76086039D02*
X35638094Y76181277D01*
X35638094Y76181277D02*
X35685713Y76371753D01*
X35685713Y76371753D02*
X35685713Y76514610D01*
X35685713Y76514610D02*
X35638094Y76705086D01*
X35638094Y76705086D02*
X35590475Y76800324D01*
X35590475Y76800324D02*
X35495237Y76895562D01*
X35495237Y76895562D02*
X35352380Y76943181D01*
X35352380Y76943181D02*
X35257142Y76943181D01*
X35257142Y76943181D02*
X35114285Y76895562D01*
X35114285Y76895562D02*
X35066666Y76847943D01*
X34733332Y76943181D02*
X34114285Y76943181D01*
X34114285Y76943181D02*
X34447618Y76562229D01*
X34447618Y76562229D02*
X34304761Y76562229D01*
X34304761Y76562229D02*
X34209523Y76514610D01*
X34209523Y76514610D02*
X34161904Y76466991D01*
X34161904Y76466991D02*
X34114285Y76371753D01*
X34114285Y76371753D02*
X34114285Y76133658D01*
X34114285Y76133658D02*
X34161904Y76038420D01*
X34161904Y76038420D02*
X34209523Y75990800D01*
X34209523Y75990800D02*
X34304761Y75943181D01*
X34304761Y75943181D02*
X34590475Y75943181D01*
X34590475Y75943181D02*
X34685713Y75990800D01*
X34685713Y75990800D02*
X34733332Y76038420D01*
X83496819Y19636858D02*
X83020628Y19970191D01*
X83496819Y20208286D02*
X82496819Y20208286D01*
X82496819Y20208286D02*
X82496819Y19827334D01*
X82496819Y19827334D02*
X82544438Y19732096D01*
X82544438Y19732096D02*
X82592057Y19684477D01*
X82592057Y19684477D02*
X82687295Y19636858D01*
X82687295Y19636858D02*
X82830152Y19636858D01*
X82830152Y19636858D02*
X82925390Y19684477D01*
X82925390Y19684477D02*
X82973009Y19732096D01*
X82973009Y19732096D02*
X83020628Y19827334D01*
X83020628Y19827334D02*
X83020628Y20208286D01*
X83496819Y18684477D02*
X83496819Y19255905D01*
X83496819Y18970191D02*
X82496819Y18970191D01*
X82496819Y18970191D02*
X82639676Y19065429D01*
X82639676Y19065429D02*
X82734914Y19160667D01*
X82734914Y19160667D02*
X82782533Y19255905D01*
X82496819Y18351143D02*
X82496819Y17684477D01*
X82496819Y17684477D02*
X83496819Y18113048D01*
X69160857Y81880420D02*
X69208476Y81832800D01*
X69208476Y81832800D02*
X69351333Y81785181D01*
X69351333Y81785181D02*
X69446571Y81785181D01*
X69446571Y81785181D02*
X69589428Y81832800D01*
X69589428Y81832800D02*
X69684666Y81928039D01*
X69684666Y81928039D02*
X69732285Y82023277D01*
X69732285Y82023277D02*
X69779904Y82213753D01*
X69779904Y82213753D02*
X69779904Y82356610D01*
X69779904Y82356610D02*
X69732285Y82547086D01*
X69732285Y82547086D02*
X69684666Y82642324D01*
X69684666Y82642324D02*
X69589428Y82737562D01*
X69589428Y82737562D02*
X69446571Y82785181D01*
X69446571Y82785181D02*
X69351333Y82785181D01*
X69351333Y82785181D02*
X69208476Y82737562D01*
X69208476Y82737562D02*
X69160857Y82689943D01*
X68303714Y82451848D02*
X68303714Y81785181D01*
X68541809Y82832800D02*
X68779904Y82118515D01*
X68779904Y82118515D02*
X68160857Y82118515D01*
X67589428Y82785181D02*
X67494190Y82785181D01*
X67494190Y82785181D02*
X67398952Y82737562D01*
X67398952Y82737562D02*
X67351333Y82689943D01*
X67351333Y82689943D02*
X67303714Y82594705D01*
X67303714Y82594705D02*
X67256095Y82404229D01*
X67256095Y82404229D02*
X67256095Y82166134D01*
X67256095Y82166134D02*
X67303714Y81975658D01*
X67303714Y81975658D02*
X67351333Y81880420D01*
X67351333Y81880420D02*
X67398952Y81832800D01*
X67398952Y81832800D02*
X67494190Y81785181D01*
X67494190Y81785181D02*
X67589428Y81785181D01*
X67589428Y81785181D02*
X67684666Y81832800D01*
X67684666Y81832800D02*
X67732285Y81880420D01*
X67732285Y81880420D02*
X67779904Y81975658D01*
X67779904Y81975658D02*
X67827523Y82166134D01*
X67827523Y82166134D02*
X67827523Y82404229D01*
X67827523Y82404229D02*
X67779904Y82594705D01*
X67779904Y82594705D02*
X67732285Y82689943D01*
X67732285Y82689943D02*
X67684666Y82737562D01*
X67684666Y82737562D02*
X67589428Y82785181D01*
X69160857Y80356420D02*
X69208476Y80308800D01*
X69208476Y80308800D02*
X69351333Y80261181D01*
X69351333Y80261181D02*
X69446571Y80261181D01*
X69446571Y80261181D02*
X69589428Y80308800D01*
X69589428Y80308800D02*
X69684666Y80404039D01*
X69684666Y80404039D02*
X69732285Y80499277D01*
X69732285Y80499277D02*
X69779904Y80689753D01*
X69779904Y80689753D02*
X69779904Y80832610D01*
X69779904Y80832610D02*
X69732285Y81023086D01*
X69732285Y81023086D02*
X69684666Y81118324D01*
X69684666Y81118324D02*
X69589428Y81213562D01*
X69589428Y81213562D02*
X69446571Y81261181D01*
X69446571Y81261181D02*
X69351333Y81261181D01*
X69351333Y81261181D02*
X69208476Y81213562D01*
X69208476Y81213562D02*
X69160857Y81165943D01*
X68827523Y81261181D02*
X68208476Y81261181D01*
X68208476Y81261181D02*
X68541809Y80880229D01*
X68541809Y80880229D02*
X68398952Y80880229D01*
X68398952Y80880229D02*
X68303714Y80832610D01*
X68303714Y80832610D02*
X68256095Y80784991D01*
X68256095Y80784991D02*
X68208476Y80689753D01*
X68208476Y80689753D02*
X68208476Y80451658D01*
X68208476Y80451658D02*
X68256095Y80356420D01*
X68256095Y80356420D02*
X68303714Y80308800D01*
X68303714Y80308800D02*
X68398952Y80261181D01*
X68398952Y80261181D02*
X68684666Y80261181D01*
X68684666Y80261181D02*
X68779904Y80308800D01*
X68779904Y80308800D02*
X68827523Y80356420D01*
X67351333Y81261181D02*
X67541809Y81261181D01*
X67541809Y81261181D02*
X67637047Y81213562D01*
X67637047Y81213562D02*
X67684666Y81165943D01*
X67684666Y81165943D02*
X67779904Y81023086D01*
X67779904Y81023086D02*
X67827523Y80832610D01*
X67827523Y80832610D02*
X67827523Y80451658D01*
X67827523Y80451658D02*
X67779904Y80356420D01*
X67779904Y80356420D02*
X67732285Y80308800D01*
X67732285Y80308800D02*
X67637047Y80261181D01*
X67637047Y80261181D02*
X67446571Y80261181D01*
X67446571Y80261181D02*
X67351333Y80308800D01*
X67351333Y80308800D02*
X67303714Y80356420D01*
X67303714Y80356420D02*
X67256095Y80451658D01*
X67256095Y80451658D02*
X67256095Y80689753D01*
X67256095Y80689753D02*
X67303714Y80784991D01*
X67303714Y80784991D02*
X67351333Y80832610D01*
X67351333Y80832610D02*
X67446571Y80880229D01*
X67446571Y80880229D02*
X67637047Y80880229D01*
X67637047Y80880229D02*
X67732285Y80832610D01*
X67732285Y80832610D02*
X67779904Y80784991D01*
X67779904Y80784991D02*
X67827523Y80689753D01*
X71548833Y75438181D02*
X71548833Y74723896D01*
X71548833Y74723896D02*
X71596452Y74581039D01*
X71596452Y74581039D02*
X71691690Y74485800D01*
X71691690Y74485800D02*
X71834547Y74438181D01*
X71834547Y74438181D02*
X71929785Y74438181D01*
X71025023Y74438181D02*
X70834547Y74438181D01*
X70834547Y74438181D02*
X70739309Y74485800D01*
X70739309Y74485800D02*
X70691690Y74533420D01*
X70691690Y74533420D02*
X70596452Y74676277D01*
X70596452Y74676277D02*
X70548833Y74866753D01*
X70548833Y74866753D02*
X70548833Y75247705D01*
X70548833Y75247705D02*
X70596452Y75342943D01*
X70596452Y75342943D02*
X70644071Y75390562D01*
X70644071Y75390562D02*
X70739309Y75438181D01*
X70739309Y75438181D02*
X70929785Y75438181D01*
X70929785Y75438181D02*
X71025023Y75390562D01*
X71025023Y75390562D02*
X71072642Y75342943D01*
X71072642Y75342943D02*
X71120261Y75247705D01*
X71120261Y75247705D02*
X71120261Y75009610D01*
X71120261Y75009610D02*
X71072642Y74914372D01*
X71072642Y74914372D02*
X71025023Y74866753D01*
X71025023Y74866753D02*
X70929785Y74819134D01*
X70929785Y74819134D02*
X70739309Y74819134D01*
X70739309Y74819134D02*
X70644071Y74866753D01*
X70644071Y74866753D02*
X70596452Y74914372D01*
X70596452Y74914372D02*
X70548833Y75009610D01*
X76243580Y61800858D02*
X76291200Y61848477D01*
X76291200Y61848477D02*
X76338819Y61991334D01*
X76338819Y61991334D02*
X76338819Y62086572D01*
X76338819Y62086572D02*
X76291200Y62229429D01*
X76291200Y62229429D02*
X76195961Y62324667D01*
X76195961Y62324667D02*
X76100723Y62372286D01*
X76100723Y62372286D02*
X75910247Y62419905D01*
X75910247Y62419905D02*
X75767390Y62419905D01*
X75767390Y62419905D02*
X75576914Y62372286D01*
X75576914Y62372286D02*
X75481676Y62324667D01*
X75481676Y62324667D02*
X75386438Y62229429D01*
X75386438Y62229429D02*
X75338819Y62086572D01*
X75338819Y62086572D02*
X75338819Y61991334D01*
X75338819Y61991334D02*
X75386438Y61848477D01*
X75386438Y61848477D02*
X75434057Y61800858D01*
X75672152Y60943715D02*
X76338819Y60943715D01*
X75291200Y61181810D02*
X76005485Y61419905D01*
X76005485Y61419905D02*
X76005485Y60800858D01*
X76338819Y60372286D02*
X76338819Y60181810D01*
X76338819Y60181810D02*
X76291200Y60086572D01*
X76291200Y60086572D02*
X76243580Y60038953D01*
X76243580Y60038953D02*
X76100723Y59943715D01*
X76100723Y59943715D02*
X75910247Y59896096D01*
X75910247Y59896096D02*
X75529295Y59896096D01*
X75529295Y59896096D02*
X75434057Y59943715D01*
X75434057Y59943715D02*
X75386438Y59991334D01*
X75386438Y59991334D02*
X75338819Y60086572D01*
X75338819Y60086572D02*
X75338819Y60277048D01*
X75338819Y60277048D02*
X75386438Y60372286D01*
X75386438Y60372286D02*
X75434057Y60419905D01*
X75434057Y60419905D02*
X75529295Y60467524D01*
X75529295Y60467524D02*
X75767390Y60467524D01*
X75767390Y60467524D02*
X75862628Y60419905D01*
X75862628Y60419905D02*
X75910247Y60372286D01*
X75910247Y60372286D02*
X75957866Y60277048D01*
X75957866Y60277048D02*
X75957866Y60086572D01*
X75957866Y60086572D02*
X75910247Y59991334D01*
X75910247Y59991334D02*
X75862628Y59943715D01*
X75862628Y59943715D02*
X75767390Y59896096D01*
X69264857Y19396420D02*
X69312476Y19348800D01*
X69312476Y19348800D02*
X69455333Y19301181D01*
X69455333Y19301181D02*
X69550571Y19301181D01*
X69550571Y19301181D02*
X69693428Y19348800D01*
X69693428Y19348800D02*
X69788666Y19444039D01*
X69788666Y19444039D02*
X69836285Y19539277D01*
X69836285Y19539277D02*
X69883904Y19729753D01*
X69883904Y19729753D02*
X69883904Y19872610D01*
X69883904Y19872610D02*
X69836285Y20063086D01*
X69836285Y20063086D02*
X69788666Y20158324D01*
X69788666Y20158324D02*
X69693428Y20253562D01*
X69693428Y20253562D02*
X69550571Y20301181D01*
X69550571Y20301181D02*
X69455333Y20301181D01*
X69455333Y20301181D02*
X69312476Y20253562D01*
X69312476Y20253562D02*
X69264857Y20205943D01*
X68931523Y20301181D02*
X68312476Y20301181D01*
X68312476Y20301181D02*
X68645809Y19920229D01*
X68645809Y19920229D02*
X68502952Y19920229D01*
X68502952Y19920229D02*
X68407714Y19872610D01*
X68407714Y19872610D02*
X68360095Y19824991D01*
X68360095Y19824991D02*
X68312476Y19729753D01*
X68312476Y19729753D02*
X68312476Y19491658D01*
X68312476Y19491658D02*
X68360095Y19396420D01*
X68360095Y19396420D02*
X68407714Y19348800D01*
X68407714Y19348800D02*
X68502952Y19301181D01*
X68502952Y19301181D02*
X68788666Y19301181D01*
X68788666Y19301181D02*
X68883904Y19348800D01*
X68883904Y19348800D02*
X68931523Y19396420D01*
X67360095Y19301181D02*
X67931523Y19301181D01*
X67645809Y19301181D02*
X67645809Y20301181D01*
X67645809Y20301181D02*
X67741047Y20158324D01*
X67741047Y20158324D02*
X67836285Y20063086D01*
X67836285Y20063086D02*
X67931523Y20015467D01*
X45096819Y19160667D02*
X44620628Y19494000D01*
X45096819Y19732095D02*
X44096819Y19732095D01*
X44096819Y19732095D02*
X44096819Y19351143D01*
X44096819Y19351143D02*
X44144438Y19255905D01*
X44144438Y19255905D02*
X44192057Y19208286D01*
X44192057Y19208286D02*
X44287295Y19160667D01*
X44287295Y19160667D02*
X44430152Y19160667D01*
X44430152Y19160667D02*
X44525390Y19208286D01*
X44525390Y19208286D02*
X44573009Y19255905D01*
X44573009Y19255905D02*
X44620628Y19351143D01*
X44620628Y19351143D02*
X44620628Y19732095D01*
X45096819Y18684476D02*
X45096819Y18494000D01*
X45096819Y18494000D02*
X45049200Y18398762D01*
X45049200Y18398762D02*
X45001580Y18351143D01*
X45001580Y18351143D02*
X44858723Y18255905D01*
X44858723Y18255905D02*
X44668247Y18208286D01*
X44668247Y18208286D02*
X44287295Y18208286D01*
X44287295Y18208286D02*
X44192057Y18255905D01*
X44192057Y18255905D02*
X44144438Y18303524D01*
X44144438Y18303524D02*
X44096819Y18398762D01*
X44096819Y18398762D02*
X44096819Y18589238D01*
X44096819Y18589238D02*
X44144438Y18684476D01*
X44144438Y18684476D02*
X44192057Y18732095D01*
X44192057Y18732095D02*
X44287295Y18779714D01*
X44287295Y18779714D02*
X44525390Y18779714D01*
X44525390Y18779714D02*
X44620628Y18732095D01*
X44620628Y18732095D02*
X44668247Y18684476D01*
X44668247Y18684476D02*
X44715866Y18589238D01*
X44715866Y18589238D02*
X44715866Y18398762D01*
X44715866Y18398762D02*
X44668247Y18303524D01*
X44668247Y18303524D02*
X44620628Y18255905D01*
X44620628Y18255905D02*
X44525390Y18208286D01*
X64250819Y40718858D02*
X63774628Y41052191D01*
X64250819Y41290286D02*
X63250819Y41290286D01*
X63250819Y41290286D02*
X63250819Y40909334D01*
X63250819Y40909334D02*
X63298438Y40814096D01*
X63298438Y40814096D02*
X63346057Y40766477D01*
X63346057Y40766477D02*
X63441295Y40718858D01*
X63441295Y40718858D02*
X63584152Y40718858D01*
X63584152Y40718858D02*
X63679390Y40766477D01*
X63679390Y40766477D02*
X63727009Y40814096D01*
X63727009Y40814096D02*
X63774628Y40909334D01*
X63774628Y40909334D02*
X63774628Y41290286D01*
X64250819Y39766477D02*
X64250819Y40337905D01*
X64250819Y40052191D02*
X63250819Y40052191D01*
X63250819Y40052191D02*
X63393676Y40147429D01*
X63393676Y40147429D02*
X63488914Y40242667D01*
X63488914Y40242667D02*
X63536533Y40337905D01*
X63346057Y39385524D02*
X63298438Y39337905D01*
X63298438Y39337905D02*
X63250819Y39242667D01*
X63250819Y39242667D02*
X63250819Y39004572D01*
X63250819Y39004572D02*
X63298438Y38909334D01*
X63298438Y38909334D02*
X63346057Y38861715D01*
X63346057Y38861715D02*
X63441295Y38814096D01*
X63441295Y38814096D02*
X63536533Y38814096D01*
X63536533Y38814096D02*
X63679390Y38861715D01*
X63679390Y38861715D02*
X64250819Y39433143D01*
X64250819Y39433143D02*
X64250819Y38814096D01*
X88464857Y19396420D02*
X88512476Y19348800D01*
X88512476Y19348800D02*
X88655333Y19301181D01*
X88655333Y19301181D02*
X88750571Y19301181D01*
X88750571Y19301181D02*
X88893428Y19348800D01*
X88893428Y19348800D02*
X88988666Y19444039D01*
X88988666Y19444039D02*
X89036285Y19539277D01*
X89036285Y19539277D02*
X89083904Y19729753D01*
X89083904Y19729753D02*
X89083904Y19872610D01*
X89083904Y19872610D02*
X89036285Y20063086D01*
X89036285Y20063086D02*
X88988666Y20158324D01*
X88988666Y20158324D02*
X88893428Y20253562D01*
X88893428Y20253562D02*
X88750571Y20301181D01*
X88750571Y20301181D02*
X88655333Y20301181D01*
X88655333Y20301181D02*
X88512476Y20253562D01*
X88512476Y20253562D02*
X88464857Y20205943D01*
X87607714Y19967848D02*
X87607714Y19301181D01*
X87845809Y20348800D02*
X88083904Y19634515D01*
X88083904Y19634515D02*
X87464857Y19634515D01*
X87179142Y20301181D02*
X86512476Y20301181D01*
X86512476Y20301181D02*
X86941047Y19301181D01*
X33037333Y75419181D02*
X33037333Y74704896D01*
X33037333Y74704896D02*
X33084952Y74562039D01*
X33084952Y74562039D02*
X33180190Y74466800D01*
X33180190Y74466800D02*
X33323047Y74419181D01*
X33323047Y74419181D02*
X33418285Y74419181D01*
X32037333Y74419181D02*
X32608761Y74419181D01*
X32323047Y74419181D02*
X32323047Y75419181D01*
X32323047Y75419181D02*
X32418285Y75276324D01*
X32418285Y75276324D02*
X32513523Y75181086D01*
X32513523Y75181086D02*
X32608761Y75133467D01*
X32379333Y33509181D02*
X32379333Y32794896D01*
X32379333Y32794896D02*
X32426952Y32652039D01*
X32426952Y32652039D02*
X32522190Y32556800D01*
X32522190Y32556800D02*
X32665047Y32509181D01*
X32665047Y32509181D02*
X32760285Y32509181D01*
X31998380Y33509181D02*
X31379333Y33509181D01*
X31379333Y33509181D02*
X31712666Y33128229D01*
X31712666Y33128229D02*
X31569809Y33128229D01*
X31569809Y33128229D02*
X31474571Y33080610D01*
X31474571Y33080610D02*
X31426952Y33032991D01*
X31426952Y33032991D02*
X31379333Y32937753D01*
X31379333Y32937753D02*
X31379333Y32699658D01*
X31379333Y32699658D02*
X31426952Y32604420D01*
X31426952Y32604420D02*
X31474571Y32556800D01*
X31474571Y32556800D02*
X31569809Y32509181D01*
X31569809Y32509181D02*
X31855523Y32509181D01*
X31855523Y32509181D02*
X31950761Y32556800D01*
X31950761Y32556800D02*
X31998380Y32604420D01*
X88464857Y80356420D02*
X88512476Y80308800D01*
X88512476Y80308800D02*
X88655333Y80261181D01*
X88655333Y80261181D02*
X88750571Y80261181D01*
X88750571Y80261181D02*
X88893428Y80308800D01*
X88893428Y80308800D02*
X88988666Y80404039D01*
X88988666Y80404039D02*
X89036285Y80499277D01*
X89036285Y80499277D02*
X89083904Y80689753D01*
X89083904Y80689753D02*
X89083904Y80832610D01*
X89083904Y80832610D02*
X89036285Y81023086D01*
X89036285Y81023086D02*
X88988666Y81118324D01*
X88988666Y81118324D02*
X88893428Y81213562D01*
X88893428Y81213562D02*
X88750571Y81261181D01*
X88750571Y81261181D02*
X88655333Y81261181D01*
X88655333Y81261181D02*
X88512476Y81213562D01*
X88512476Y81213562D02*
X88464857Y81165943D01*
X87560095Y81261181D02*
X88036285Y81261181D01*
X88036285Y81261181D02*
X88083904Y80784991D01*
X88083904Y80784991D02*
X88036285Y80832610D01*
X88036285Y80832610D02*
X87941047Y80880229D01*
X87941047Y80880229D02*
X87702952Y80880229D01*
X87702952Y80880229D02*
X87607714Y80832610D01*
X87607714Y80832610D02*
X87560095Y80784991D01*
X87560095Y80784991D02*
X87512476Y80689753D01*
X87512476Y80689753D02*
X87512476Y80451658D01*
X87512476Y80451658D02*
X87560095Y80356420D01*
X87560095Y80356420D02*
X87607714Y80308800D01*
X87607714Y80308800D02*
X87702952Y80261181D01*
X87702952Y80261181D02*
X87941047Y80261181D01*
X87941047Y80261181D02*
X88036285Y80308800D01*
X88036285Y80308800D02*
X88083904Y80356420D01*
X87131523Y81165943D02*
X87083904Y81213562D01*
X87083904Y81213562D02*
X86988666Y81261181D01*
X86988666Y81261181D02*
X86750571Y81261181D01*
X86750571Y81261181D02*
X86655333Y81213562D01*
X86655333Y81213562D02*
X86607714Y81165943D01*
X86607714Y81165943D02*
X86560095Y81070705D01*
X86560095Y81070705D02*
X86560095Y80975467D01*
X86560095Y80975467D02*
X86607714Y80832610D01*
X86607714Y80832610D02*
X87179142Y80261181D01*
X87179142Y80261181D02*
X86560095Y80261181D01*
X73917857Y13554420D02*
X73965476Y13506800D01*
X73965476Y13506800D02*
X74108333Y13459181D01*
X74108333Y13459181D02*
X74203571Y13459181D01*
X74203571Y13459181D02*
X74346428Y13506800D01*
X74346428Y13506800D02*
X74441666Y13602039D01*
X74441666Y13602039D02*
X74489285Y13697277D01*
X74489285Y13697277D02*
X74536904Y13887753D01*
X74536904Y13887753D02*
X74536904Y14030610D01*
X74536904Y14030610D02*
X74489285Y14221086D01*
X74489285Y14221086D02*
X74441666Y14316324D01*
X74441666Y14316324D02*
X74346428Y14411562D01*
X74346428Y14411562D02*
X74203571Y14459181D01*
X74203571Y14459181D02*
X74108333Y14459181D01*
X74108333Y14459181D02*
X73965476Y14411562D01*
X73965476Y14411562D02*
X73917857Y14363943D01*
X73013095Y14459181D02*
X73489285Y14459181D01*
X73489285Y14459181D02*
X73536904Y13982991D01*
X73536904Y13982991D02*
X73489285Y14030610D01*
X73489285Y14030610D02*
X73394047Y14078229D01*
X73394047Y14078229D02*
X73155952Y14078229D01*
X73155952Y14078229D02*
X73060714Y14030610D01*
X73060714Y14030610D02*
X73013095Y13982991D01*
X73013095Y13982991D02*
X72965476Y13887753D01*
X72965476Y13887753D02*
X72965476Y13649658D01*
X72965476Y13649658D02*
X73013095Y13554420D01*
X73013095Y13554420D02*
X73060714Y13506800D01*
X73060714Y13506800D02*
X73155952Y13459181D01*
X73155952Y13459181D02*
X73394047Y13459181D01*
X73394047Y13459181D02*
X73489285Y13506800D01*
X73489285Y13506800D02*
X73536904Y13554420D01*
X72489285Y13459181D02*
X72298809Y13459181D01*
X72298809Y13459181D02*
X72203571Y13506800D01*
X72203571Y13506800D02*
X72155952Y13554420D01*
X72155952Y13554420D02*
X72060714Y13697277D01*
X72060714Y13697277D02*
X72013095Y13887753D01*
X72013095Y13887753D02*
X72013095Y14268705D01*
X72013095Y14268705D02*
X72060714Y14363943D01*
X72060714Y14363943D02*
X72108333Y14411562D01*
X72108333Y14411562D02*
X72203571Y14459181D01*
X72203571Y14459181D02*
X72394047Y14459181D01*
X72394047Y14459181D02*
X72489285Y14411562D01*
X72489285Y14411562D02*
X72536904Y14363943D01*
X72536904Y14363943D02*
X72584523Y14268705D01*
X72584523Y14268705D02*
X72584523Y14030610D01*
X72584523Y14030610D02*
X72536904Y13935372D01*
X72536904Y13935372D02*
X72489285Y13887753D01*
X72489285Y13887753D02*
X72394047Y13840134D01*
X72394047Y13840134D02*
X72203571Y13840134D01*
X72203571Y13840134D02*
X72108333Y13887753D01*
X72108333Y13887753D02*
X72060714Y13935372D01*
X72060714Y13935372D02*
X72013095Y14030610D01*
X69264857Y38624420D02*
X69312476Y38576800D01*
X69312476Y38576800D02*
X69455333Y38529181D01*
X69455333Y38529181D02*
X69550571Y38529181D01*
X69550571Y38529181D02*
X69693428Y38576800D01*
X69693428Y38576800D02*
X69788666Y38672039D01*
X69788666Y38672039D02*
X69836285Y38767277D01*
X69836285Y38767277D02*
X69883904Y38957753D01*
X69883904Y38957753D02*
X69883904Y39100610D01*
X69883904Y39100610D02*
X69836285Y39291086D01*
X69836285Y39291086D02*
X69788666Y39386324D01*
X69788666Y39386324D02*
X69693428Y39481562D01*
X69693428Y39481562D02*
X69550571Y39529181D01*
X69550571Y39529181D02*
X69455333Y39529181D01*
X69455333Y39529181D02*
X69312476Y39481562D01*
X69312476Y39481562D02*
X69264857Y39433943D01*
X68931523Y39529181D02*
X68312476Y39529181D01*
X68312476Y39529181D02*
X68645809Y39148229D01*
X68645809Y39148229D02*
X68502952Y39148229D01*
X68502952Y39148229D02*
X68407714Y39100610D01*
X68407714Y39100610D02*
X68360095Y39052991D01*
X68360095Y39052991D02*
X68312476Y38957753D01*
X68312476Y38957753D02*
X68312476Y38719658D01*
X68312476Y38719658D02*
X68360095Y38624420D01*
X68360095Y38624420D02*
X68407714Y38576800D01*
X68407714Y38576800D02*
X68502952Y38529181D01*
X68502952Y38529181D02*
X68788666Y38529181D01*
X68788666Y38529181D02*
X68883904Y38576800D01*
X68883904Y38576800D02*
X68931523Y38624420D01*
X67741047Y39100610D02*
X67836285Y39148229D01*
X67836285Y39148229D02*
X67883904Y39195848D01*
X67883904Y39195848D02*
X67931523Y39291086D01*
X67931523Y39291086D02*
X67931523Y39338705D01*
X67931523Y39338705D02*
X67883904Y39433943D01*
X67883904Y39433943D02*
X67836285Y39481562D01*
X67836285Y39481562D02*
X67741047Y39529181D01*
X67741047Y39529181D02*
X67550571Y39529181D01*
X67550571Y39529181D02*
X67455333Y39481562D01*
X67455333Y39481562D02*
X67407714Y39433943D01*
X67407714Y39433943D02*
X67360095Y39338705D01*
X67360095Y39338705D02*
X67360095Y39291086D01*
X67360095Y39291086D02*
X67407714Y39195848D01*
X67407714Y39195848D02*
X67455333Y39148229D01*
X67455333Y39148229D02*
X67550571Y39100610D01*
X67550571Y39100610D02*
X67741047Y39100610D01*
X67741047Y39100610D02*
X67836285Y39052991D01*
X67836285Y39052991D02*
X67883904Y39005372D01*
X67883904Y39005372D02*
X67931523Y38910134D01*
X67931523Y38910134D02*
X67931523Y38719658D01*
X67931523Y38719658D02*
X67883904Y38624420D01*
X67883904Y38624420D02*
X67836285Y38576800D01*
X67836285Y38576800D02*
X67741047Y38529181D01*
X67741047Y38529181D02*
X67550571Y38529181D01*
X67550571Y38529181D02*
X67455333Y38576800D01*
X67455333Y38576800D02*
X67407714Y38624420D01*
X67407714Y38624420D02*
X67360095Y38719658D01*
X67360095Y38719658D02*
X67360095Y38910134D01*
X67360095Y38910134D02*
X67407714Y39005372D01*
X67407714Y39005372D02*
X67455333Y39052991D01*
X67455333Y39052991D02*
X67550571Y39100610D01*
X49634666Y81880420D02*
X49682285Y81832800D01*
X49682285Y81832800D02*
X49825142Y81785181D01*
X49825142Y81785181D02*
X49920380Y81785181D01*
X49920380Y81785181D02*
X50063237Y81832800D01*
X50063237Y81832800D02*
X50158475Y81928039D01*
X50158475Y81928039D02*
X50206094Y82023277D01*
X50206094Y82023277D02*
X50253713Y82213753D01*
X50253713Y82213753D02*
X50253713Y82356610D01*
X50253713Y82356610D02*
X50206094Y82547086D01*
X50206094Y82547086D02*
X50158475Y82642324D01*
X50158475Y82642324D02*
X50063237Y82737562D01*
X50063237Y82737562D02*
X49920380Y82785181D01*
X49920380Y82785181D02*
X49825142Y82785181D01*
X49825142Y82785181D02*
X49682285Y82737562D01*
X49682285Y82737562D02*
X49634666Y82689943D01*
X48777523Y82451848D02*
X48777523Y81785181D01*
X49015618Y82832800D02*
X49253713Y82118515D01*
X49253713Y82118515D02*
X48634666Y82118515D01*
X45350819Y81644667D02*
X44874628Y81978000D01*
X45350819Y82216095D02*
X44350819Y82216095D01*
X44350819Y82216095D02*
X44350819Y81835143D01*
X44350819Y81835143D02*
X44398438Y81739905D01*
X44398438Y81739905D02*
X44446057Y81692286D01*
X44446057Y81692286D02*
X44541295Y81644667D01*
X44541295Y81644667D02*
X44684152Y81644667D01*
X44684152Y81644667D02*
X44779390Y81692286D01*
X44779390Y81692286D02*
X44827009Y81739905D01*
X44827009Y81739905D02*
X44874628Y81835143D01*
X44874628Y81835143D02*
X44874628Y82216095D01*
X44350819Y81311333D02*
X44350819Y80692286D01*
X44350819Y80692286D02*
X44731771Y81025619D01*
X44731771Y81025619D02*
X44731771Y80882762D01*
X44731771Y80882762D02*
X44779390Y80787524D01*
X44779390Y80787524D02*
X44827009Y80739905D01*
X44827009Y80739905D02*
X44922247Y80692286D01*
X44922247Y80692286D02*
X45160342Y80692286D01*
X45160342Y80692286D02*
X45255580Y80739905D01*
X45255580Y80739905D02*
X45303200Y80787524D01*
X45303200Y80787524D02*
X45350819Y80882762D01*
X45350819Y80882762D02*
X45350819Y81168476D01*
X45350819Y81168476D02*
X45303200Y81263714D01*
X45303200Y81263714D02*
X45255580Y81311333D01*
X76243580Y82628858D02*
X76291200Y82676477D01*
X76291200Y82676477D02*
X76338819Y82819334D01*
X76338819Y82819334D02*
X76338819Y82914572D01*
X76338819Y82914572D02*
X76291200Y83057429D01*
X76291200Y83057429D02*
X76195961Y83152667D01*
X76195961Y83152667D02*
X76100723Y83200286D01*
X76100723Y83200286D02*
X75910247Y83247905D01*
X75910247Y83247905D02*
X75767390Y83247905D01*
X75767390Y83247905D02*
X75576914Y83200286D01*
X75576914Y83200286D02*
X75481676Y83152667D01*
X75481676Y83152667D02*
X75386438Y83057429D01*
X75386438Y83057429D02*
X75338819Y82914572D01*
X75338819Y82914572D02*
X75338819Y82819334D01*
X75338819Y82819334D02*
X75386438Y82676477D01*
X75386438Y82676477D02*
X75434057Y82628858D01*
X75672152Y81771715D02*
X76338819Y81771715D01*
X75291200Y82009810D02*
X76005485Y82247905D01*
X76005485Y82247905D02*
X76005485Y81628858D01*
X75767390Y81105048D02*
X75719771Y81200286D01*
X75719771Y81200286D02*
X75672152Y81247905D01*
X75672152Y81247905D02*
X75576914Y81295524D01*
X75576914Y81295524D02*
X75529295Y81295524D01*
X75529295Y81295524D02*
X75434057Y81247905D01*
X75434057Y81247905D02*
X75386438Y81200286D01*
X75386438Y81200286D02*
X75338819Y81105048D01*
X75338819Y81105048D02*
X75338819Y80914572D01*
X75338819Y80914572D02*
X75386438Y80819334D01*
X75386438Y80819334D02*
X75434057Y80771715D01*
X75434057Y80771715D02*
X75529295Y80724096D01*
X75529295Y80724096D02*
X75576914Y80724096D01*
X75576914Y80724096D02*
X75672152Y80771715D01*
X75672152Y80771715D02*
X75719771Y80819334D01*
X75719771Y80819334D02*
X75767390Y80914572D01*
X75767390Y80914572D02*
X75767390Y81105048D01*
X75767390Y81105048D02*
X75815009Y81200286D01*
X75815009Y81200286D02*
X75862628Y81247905D01*
X75862628Y81247905D02*
X75957866Y81295524D01*
X75957866Y81295524D02*
X76148342Y81295524D01*
X76148342Y81295524D02*
X76243580Y81247905D01*
X76243580Y81247905D02*
X76291200Y81200286D01*
X76291200Y81200286D02*
X76338819Y81105048D01*
X76338819Y81105048D02*
X76338819Y80914572D01*
X76338819Y80914572D02*
X76291200Y80819334D01*
X76291200Y80819334D02*
X76243580Y80771715D01*
X76243580Y80771715D02*
X76148342Y80724096D01*
X76148342Y80724096D02*
X75957866Y80724096D01*
X75957866Y80724096D02*
X75862628Y80771715D01*
X75862628Y80771715D02*
X75815009Y80819334D01*
X75815009Y80819334D02*
X75767390Y80914572D01*
X49634666Y80280420D02*
X49682285Y80232800D01*
X49682285Y80232800D02*
X49825142Y80185181D01*
X49825142Y80185181D02*
X49920380Y80185181D01*
X49920380Y80185181D02*
X50063237Y80232800D01*
X50063237Y80232800D02*
X50158475Y80328039D01*
X50158475Y80328039D02*
X50206094Y80423277D01*
X50206094Y80423277D02*
X50253713Y80613753D01*
X50253713Y80613753D02*
X50253713Y80756610D01*
X50253713Y80756610D02*
X50206094Y80947086D01*
X50206094Y80947086D02*
X50158475Y81042324D01*
X50158475Y81042324D02*
X50063237Y81137562D01*
X50063237Y81137562D02*
X49920380Y81185181D01*
X49920380Y81185181D02*
X49825142Y81185181D01*
X49825142Y81185181D02*
X49682285Y81137562D01*
X49682285Y81137562D02*
X49634666Y81089943D01*
X49253713Y81089943D02*
X49206094Y81137562D01*
X49206094Y81137562D02*
X49110856Y81185181D01*
X49110856Y81185181D02*
X48872761Y81185181D01*
X48872761Y81185181D02*
X48777523Y81137562D01*
X48777523Y81137562D02*
X48729904Y81089943D01*
X48729904Y81089943D02*
X48682285Y80994705D01*
X48682285Y80994705D02*
X48682285Y80899467D01*
X48682285Y80899467D02*
X48729904Y80756610D01*
X48729904Y80756610D02*
X49301332Y80185181D01*
X49301332Y80185181D02*
X48682285Y80185181D01*
X35517857Y34382420D02*
X35565476Y34334800D01*
X35565476Y34334800D02*
X35708333Y34287181D01*
X35708333Y34287181D02*
X35803571Y34287181D01*
X35803571Y34287181D02*
X35946428Y34334800D01*
X35946428Y34334800D02*
X36041666Y34430039D01*
X36041666Y34430039D02*
X36089285Y34525277D01*
X36089285Y34525277D02*
X36136904Y34715753D01*
X36136904Y34715753D02*
X36136904Y34858610D01*
X36136904Y34858610D02*
X36089285Y35049086D01*
X36089285Y35049086D02*
X36041666Y35144324D01*
X36041666Y35144324D02*
X35946428Y35239562D01*
X35946428Y35239562D02*
X35803571Y35287181D01*
X35803571Y35287181D02*
X35708333Y35287181D01*
X35708333Y35287181D02*
X35565476Y35239562D01*
X35565476Y35239562D02*
X35517857Y35191943D01*
X35136904Y35191943D02*
X35089285Y35239562D01*
X35089285Y35239562D02*
X34994047Y35287181D01*
X34994047Y35287181D02*
X34755952Y35287181D01*
X34755952Y35287181D02*
X34660714Y35239562D01*
X34660714Y35239562D02*
X34613095Y35191943D01*
X34613095Y35191943D02*
X34565476Y35096705D01*
X34565476Y35096705D02*
X34565476Y35001467D01*
X34565476Y35001467D02*
X34613095Y34858610D01*
X34613095Y34858610D02*
X35184523Y34287181D01*
X35184523Y34287181D02*
X34565476Y34287181D01*
X33946428Y35287181D02*
X33851190Y35287181D01*
X33851190Y35287181D02*
X33755952Y35239562D01*
X33755952Y35239562D02*
X33708333Y35191943D01*
X33708333Y35191943D02*
X33660714Y35096705D01*
X33660714Y35096705D02*
X33613095Y34906229D01*
X33613095Y34906229D02*
X33613095Y34668134D01*
X33613095Y34668134D02*
X33660714Y34477658D01*
X33660714Y34477658D02*
X33708333Y34382420D01*
X33708333Y34382420D02*
X33755952Y34334800D01*
X33755952Y34334800D02*
X33851190Y34287181D01*
X33851190Y34287181D02*
X33946428Y34287181D01*
X33946428Y34287181D02*
X34041666Y34334800D01*
X34041666Y34334800D02*
X34089285Y34382420D01*
X34089285Y34382420D02*
X34136904Y34477658D01*
X34136904Y34477658D02*
X34184523Y34668134D01*
X34184523Y34668134D02*
X34184523Y34906229D01*
X34184523Y34906229D02*
X34136904Y35096705D01*
X34136904Y35096705D02*
X34089285Y35191943D01*
X34089285Y35191943D02*
X34041666Y35239562D01*
X34041666Y35239562D02*
X33946428Y35287181D01*
X73478857Y75784420D02*
X73526476Y75736800D01*
X73526476Y75736800D02*
X73669333Y75689181D01*
X73669333Y75689181D02*
X73764571Y75689181D01*
X73764571Y75689181D02*
X73907428Y75736800D01*
X73907428Y75736800D02*
X74002666Y75832039D01*
X74002666Y75832039D02*
X74050285Y75927277D01*
X74050285Y75927277D02*
X74097904Y76117753D01*
X74097904Y76117753D02*
X74097904Y76260610D01*
X74097904Y76260610D02*
X74050285Y76451086D01*
X74050285Y76451086D02*
X74002666Y76546324D01*
X74002666Y76546324D02*
X73907428Y76641562D01*
X73907428Y76641562D02*
X73764571Y76689181D01*
X73764571Y76689181D02*
X73669333Y76689181D01*
X73669333Y76689181D02*
X73526476Y76641562D01*
X73526476Y76641562D02*
X73478857Y76593943D01*
X72621714Y76355848D02*
X72621714Y75689181D01*
X72859809Y76736800D02*
X73097904Y76022515D01*
X73097904Y76022515D02*
X72478857Y76022515D01*
X71669333Y76355848D02*
X71669333Y75689181D01*
X71907428Y76736800D02*
X72145523Y76022515D01*
X72145523Y76022515D02*
X71526476Y76022515D01*
X76139580Y19890858D02*
X76187200Y19938477D01*
X76187200Y19938477D02*
X76234819Y20081334D01*
X76234819Y20081334D02*
X76234819Y20176572D01*
X76234819Y20176572D02*
X76187200Y20319429D01*
X76187200Y20319429D02*
X76091961Y20414667D01*
X76091961Y20414667D02*
X75996723Y20462286D01*
X75996723Y20462286D02*
X75806247Y20509905D01*
X75806247Y20509905D02*
X75663390Y20509905D01*
X75663390Y20509905D02*
X75472914Y20462286D01*
X75472914Y20462286D02*
X75377676Y20414667D01*
X75377676Y20414667D02*
X75282438Y20319429D01*
X75282438Y20319429D02*
X75234819Y20176572D01*
X75234819Y20176572D02*
X75234819Y20081334D01*
X75234819Y20081334D02*
X75282438Y19938477D01*
X75282438Y19938477D02*
X75330057Y19890858D01*
X75234819Y18986096D02*
X75234819Y19462286D01*
X75234819Y19462286D02*
X75711009Y19509905D01*
X75711009Y19509905D02*
X75663390Y19462286D01*
X75663390Y19462286D02*
X75615771Y19367048D01*
X75615771Y19367048D02*
X75615771Y19128953D01*
X75615771Y19128953D02*
X75663390Y19033715D01*
X75663390Y19033715D02*
X75711009Y18986096D01*
X75711009Y18986096D02*
X75806247Y18938477D01*
X75806247Y18938477D02*
X76044342Y18938477D01*
X76044342Y18938477D02*
X76139580Y18986096D01*
X76139580Y18986096D02*
X76187200Y19033715D01*
X76187200Y19033715D02*
X76234819Y19128953D01*
X76234819Y19128953D02*
X76234819Y19367048D01*
X76234819Y19367048D02*
X76187200Y19462286D01*
X76187200Y19462286D02*
X76139580Y19509905D01*
X75234819Y18033715D02*
X75234819Y18509905D01*
X75234819Y18509905D02*
X75711009Y18557524D01*
X75711009Y18557524D02*
X75663390Y18509905D01*
X75663390Y18509905D02*
X75615771Y18414667D01*
X75615771Y18414667D02*
X75615771Y18176572D01*
X75615771Y18176572D02*
X75663390Y18081334D01*
X75663390Y18081334D02*
X75711009Y18033715D01*
X75711009Y18033715D02*
X75806247Y17986096D01*
X75806247Y17986096D02*
X76044342Y17986096D01*
X76044342Y17986096D02*
X76139580Y18033715D01*
X76139580Y18033715D02*
X76187200Y18081334D01*
X76187200Y18081334D02*
X76234819Y18176572D01*
X76234819Y18176572D02*
X76234819Y18414667D01*
X76234819Y18414667D02*
X76187200Y18509905D01*
X76187200Y18509905D02*
X76139580Y18557524D01*
D12*
%TO.C,J8*%
X53225000Y12800000D02*
X55125000Y12800000D01*
X53225000Y11700000D02*
X53225000Y12800000D01*
X53225000Y7800000D02*
X53225000Y8800000D01*
X65625000Y12800000D02*
X67525000Y12800000D01*
X67525000Y12800000D02*
X67525000Y11700000D01*
X67525000Y8800000D02*
X67525000Y7800000D01*
X67525000Y7800000D02*
X53225000Y7800000D01*
D13*
X65225000Y14865000D02*
G75*
G02*
X65025000Y14865000I-100000J0D01*
G01*
X65025000Y14865000D02*
G75*
G02*
X65225000Y14865000I100000J0D01*
G01*
D14*
%TO.C,C41*%
X68407643Y59010000D02*
X68688803Y59010000D01*
X68407643Y57990000D02*
X68688803Y57990000D01*
%TO.C,C37*%
X68407643Y57403705D02*
X68688803Y57403705D01*
X68407643Y56383705D02*
X68688803Y56383705D01*
%TO.C,C27*%
X35090580Y15866500D02*
X34809420Y15866500D01*
X35090580Y14846500D02*
X34809420Y14846500D01*
D12*
%TO.C,J2*%
X34025000Y54400000D02*
X35925000Y54400000D01*
X34025000Y53300000D02*
X34025000Y54400000D01*
X34025000Y49400000D02*
X34025000Y50400000D01*
X46425000Y54400000D02*
X48325000Y54400000D01*
X48325000Y54400000D02*
X48325000Y53300000D01*
X48325000Y50400000D02*
X48325000Y49400000D01*
X48325000Y49400000D02*
X34025000Y49400000D01*
D13*
X46025000Y56465000D02*
G75*
G02*
X45825000Y56465000I-100000J0D01*
G01*
X45825000Y56465000D02*
G75*
G02*
X46025000Y56465000I100000J0D01*
G01*
D12*
%TO.C,J11*%
X72425000Y33600000D02*
X74325000Y33600000D01*
X72425000Y32500000D02*
X72425000Y33600000D01*
X72425000Y28600000D02*
X72425000Y29600000D01*
X84825000Y33600000D02*
X86725000Y33600000D01*
X86725000Y33600000D02*
X86725000Y32500000D01*
X86725000Y29600000D02*
X86725000Y28600000D01*
X86725000Y28600000D02*
X72425000Y28600000D01*
D13*
X84425000Y35665000D02*
G75*
G02*
X84225000Y35665000I-100000J0D01*
G01*
X84225000Y35665000D02*
G75*
G02*
X84425000Y35665000I100000J0D01*
G01*
D14*
%TO.C,C21*%
X49207643Y17410000D02*
X49488803Y17410000D01*
X49207643Y16390000D02*
X49488803Y16390000D01*
%TO.C,C46*%
X73490580Y36666500D02*
X73209420Y36666500D01*
X73490580Y35646500D02*
X73209420Y35646500D01*
%TO.C,C57*%
X87607643Y57403705D02*
X87888803Y57403705D01*
X87607643Y56383705D02*
X87888803Y56383705D01*
D12*
%TO.C,J12*%
X72425000Y12800000D02*
X74325000Y12800000D01*
X72425000Y11700000D02*
X72425000Y12800000D01*
X72425000Y7800000D02*
X72425000Y8800000D01*
X84825000Y12800000D02*
X86725000Y12800000D01*
X86725000Y12800000D02*
X86725000Y11700000D01*
X86725000Y8800000D02*
X86725000Y7800000D01*
X86725000Y7800000D02*
X72425000Y7800000D01*
D13*
X84425000Y14865000D02*
G75*
G02*
X84225000Y14865000I-100000J0D01*
G01*
X84225000Y14865000D02*
G75*
G02*
X84425000Y14865000I100000J0D01*
G01*
D14*
%TO.C,C43*%
X54290580Y15866500D02*
X54009420Y15866500D01*
X54290580Y14846500D02*
X54009420Y14846500D01*
%TO.C,C50*%
X75415000Y37134420D02*
X75415000Y37415580D01*
X76435000Y37134420D02*
X76435000Y37415580D01*
%TO.C,C25*%
X37015000Y16334420D02*
X37015000Y16615580D01*
X38035000Y16334420D02*
X38035000Y16615580D01*
%TO.C,C35*%
X68407643Y15803705D02*
X68688803Y15803705D01*
X68407643Y14783705D02*
X68688803Y14783705D01*
D12*
%TO.C,J6*%
X53225000Y54400000D02*
X55125000Y54400000D01*
X53225000Y53300000D02*
X53225000Y54400000D01*
X53225000Y49400000D02*
X53225000Y50400000D01*
X65625000Y54400000D02*
X67525000Y54400000D01*
X67525000Y54400000D02*
X67525000Y53300000D01*
X67525000Y50400000D02*
X67525000Y49400000D01*
X67525000Y49400000D02*
X53225000Y49400000D01*
D13*
X65225000Y56465000D02*
G75*
G02*
X65025000Y56465000I-100000J0D01*
G01*
X65025000Y56465000D02*
G75*
G02*
X65225000Y56465000I100000J0D01*
G01*
D14*
%TO.C,R15*%
X82547031Y57837742D02*
X82547031Y58312258D01*
X83592031Y57837742D02*
X83592031Y58312258D01*
%TO.C,C39*%
X56215000Y16334420D02*
X56215000Y16615580D01*
X57235000Y16334420D02*
X57235000Y16615580D01*
D12*
%TO.C,J4*%
X34025000Y12800000D02*
X35925000Y12800000D01*
X34025000Y11700000D02*
X34025000Y12800000D01*
X34025000Y7800000D02*
X34025000Y8800000D01*
X46425000Y12800000D02*
X48325000Y12800000D01*
X48325000Y12800000D02*
X48325000Y11700000D01*
X48325000Y8800000D02*
X48325000Y7800000D01*
X48325000Y7800000D02*
X34025000Y7800000D01*
D13*
X46025000Y14865000D02*
G75*
G02*
X45825000Y14865000I-100000J0D01*
G01*
X45825000Y14865000D02*
G75*
G02*
X46025000Y14865000I100000J0D01*
G01*
D14*
%TO.C,C26*%
X49207643Y38210000D02*
X49488803Y38210000D01*
X49207643Y37190000D02*
X49488803Y37190000D01*
%TO.C,C22*%
X37015000Y37134420D02*
X37015000Y37415580D01*
X38035000Y37134420D02*
X38035000Y37415580D01*
%TO.C,C58*%
X87607643Y38210000D02*
X87888803Y38210000D01*
X87607643Y37190000D02*
X87888803Y37190000D01*
%TO.C,R1*%
X44147031Y57837742D02*
X44147031Y58312258D01*
X45192031Y57837742D02*
X45192031Y58312258D01*
%TO.C,C5*%
X35090580Y57466500D02*
X34809420Y57466500D01*
X35090580Y56446500D02*
X34809420Y56446500D01*
%TO.C,C28*%
X54315580Y78266500D02*
X54034420Y78266500D01*
X54315580Y77246500D02*
X54034420Y77246500D01*
%TO.C,C1*%
X37040000Y78734420D02*
X37040000Y79015580D01*
X38060000Y78734420D02*
X38060000Y79015580D01*
%TO.C,C19*%
X49207643Y59010000D02*
X49488803Y59010000D01*
X49207643Y57990000D02*
X49488803Y57990000D01*
%TO.C,C53*%
X87607643Y59010000D02*
X87888803Y59010000D01*
X87607643Y57990000D02*
X87888803Y57990000D01*
%TO.C,C42*%
X68407643Y38210000D02*
X68688803Y38210000D01*
X68407643Y37190000D02*
X68688803Y37190000D01*
%TO.C,R16*%
X82547031Y37037742D02*
X82547031Y37512258D01*
X83592031Y37037742D02*
X83592031Y37512258D01*
%TO.C,R10*%
X63372031Y78637742D02*
X63372031Y79112258D01*
X64417031Y78637742D02*
X64417031Y79112258D01*
%TO.C,C51*%
X87607643Y15803705D02*
X87888803Y15803705D01*
X87607643Y14783705D02*
X87888803Y14783705D01*
%TO.C,C29*%
X54290580Y57466500D02*
X54009420Y57466500D01*
X54290580Y56446500D02*
X54009420Y56446500D01*
%TO.C,C17*%
X37015000Y57934420D02*
X37015000Y58215580D01*
X38035000Y57934420D02*
X38035000Y58215580D01*
%TO.C,C34*%
X56215000Y37134420D02*
X56215000Y37415580D01*
X57235000Y37134420D02*
X57235000Y37415580D01*
%TO.C,C33*%
X56215000Y57934420D02*
X56215000Y58215580D01*
X57235000Y57934420D02*
X57235000Y58215580D01*
%TO.C,C32*%
X56240000Y78734420D02*
X56240000Y79015580D01*
X57260000Y78734420D02*
X57260000Y79015580D01*
D12*
%TO.C,J7*%
X53225000Y33600000D02*
X55125000Y33600000D01*
X53225000Y32500000D02*
X53225000Y33600000D01*
X53225000Y28600000D02*
X53225000Y29600000D01*
X65625000Y33600000D02*
X67525000Y33600000D01*
X67525000Y33600000D02*
X67525000Y32500000D01*
X67525000Y29600000D02*
X67525000Y28600000D01*
X67525000Y28600000D02*
X53225000Y28600000D01*
D13*
X65225000Y35665000D02*
G75*
G02*
X65025000Y35665000I-100000J0D01*
G01*
X65025000Y35665000D02*
G75*
G02*
X65225000Y35665000I100000J0D01*
G01*
D12*
%TO.C,J5*%
X53250000Y75200000D02*
X55150000Y75200000D01*
X53250000Y74100000D02*
X53250000Y75200000D01*
X53250000Y70200000D02*
X53250000Y71200000D01*
X65650000Y75200000D02*
X67550000Y75200000D01*
X67550000Y75200000D02*
X67550000Y74100000D01*
X67550000Y71200000D02*
X67550000Y70200000D01*
X67550000Y70200000D02*
X53250000Y70200000D01*
D13*
X65250000Y77265000D02*
G75*
G02*
X65050000Y77265000I-100000J0D01*
G01*
X65050000Y77265000D02*
G75*
G02*
X65250000Y77265000I100000J0D01*
G01*
D14*
%TO.C,R11*%
X63347031Y57837742D02*
X63347031Y58312258D01*
X64392031Y57837742D02*
X64392031Y58312258D01*
%TO.C,C30*%
X54290580Y36666500D02*
X54009420Y36666500D01*
X54290580Y35646500D02*
X54009420Y35646500D01*
%TO.C,C56*%
X87632643Y79810000D02*
X87913803Y79810000D01*
X87632643Y78790000D02*
X87913803Y78790000D01*
%TO.C,C18*%
X49207643Y57403705D02*
X49488803Y57403705D01*
X49207643Y56383705D02*
X49488803Y56383705D01*
%TO.C,C23*%
X49207643Y15803705D02*
X49488803Y15803705D01*
X49207643Y14783705D02*
X49488803Y14783705D01*
%TO.C,C24*%
X49207643Y36603705D02*
X49488803Y36603705D01*
X49207643Y35583705D02*
X49488803Y35583705D01*
%TO.C,R14*%
X82572031Y78637742D02*
X82572031Y79112258D01*
X83617031Y78637742D02*
X83617031Y79112258D01*
%TO.C,R2*%
X44147031Y37037742D02*
X44147031Y37512258D01*
X45192031Y37037742D02*
X45192031Y37512258D01*
%TO.C,C54*%
X87607643Y36603705D02*
X87888803Y36603705D01*
X87607643Y35583705D02*
X87888803Y35583705D01*
%TO.C,C45*%
X73490580Y57466500D02*
X73209420Y57466500D01*
X73490580Y56446500D02*
X73209420Y56446500D01*
D12*
%TO.C,J10*%
X72425000Y54400000D02*
X74325000Y54400000D01*
X72425000Y53300000D02*
X72425000Y54400000D01*
X72425000Y49400000D02*
X72425000Y50400000D01*
X84825000Y54400000D02*
X86725000Y54400000D01*
X86725000Y54400000D02*
X86725000Y53300000D01*
X86725000Y50400000D02*
X86725000Y49400000D01*
X86725000Y49400000D02*
X72425000Y49400000D01*
D13*
X84425000Y56465000D02*
G75*
G02*
X84225000Y56465000I-100000J0D01*
G01*
X84225000Y56465000D02*
G75*
G02*
X84425000Y56465000I100000J0D01*
G01*
D14*
%TO.C,R13*%
X63347031Y16237742D02*
X63347031Y16712258D01*
X64392031Y16237742D02*
X64392031Y16712258D01*
%TO.C,C3*%
X35115580Y78266500D02*
X34834420Y78266500D01*
X35115580Y77246500D02*
X34834420Y77246500D01*
%TO.C,R17*%
X82547031Y16237742D02*
X82547031Y16712258D01*
X83592031Y16237742D02*
X83592031Y16712258D01*
%TO.C,C40*%
X68432643Y79810000D02*
X68713803Y79810000D01*
X68432643Y78790000D02*
X68713803Y78790000D01*
%TO.C,C36*%
X68432643Y78203705D02*
X68713803Y78203705D01*
X68432643Y77183705D02*
X68713803Y77183705D01*
D12*
%TO.C,J9*%
X72450000Y75200000D02*
X74350000Y75200000D01*
X72450000Y74100000D02*
X72450000Y75200000D01*
X72450000Y70200000D02*
X72450000Y71200000D01*
X84850000Y75200000D02*
X86750000Y75200000D01*
X86750000Y75200000D02*
X86750000Y74100000D01*
X86750000Y71200000D02*
X86750000Y70200000D01*
X86750000Y70200000D02*
X72450000Y70200000D01*
D13*
X84450000Y77265000D02*
G75*
G02*
X84250000Y77265000I-100000J0D01*
G01*
X84250000Y77265000D02*
G75*
G02*
X84450000Y77265000I100000J0D01*
G01*
D14*
%TO.C,C49*%
X75415000Y57934420D02*
X75415000Y58215580D01*
X76435000Y57934420D02*
X76435000Y58215580D01*
%TO.C,C31*%
X68407643Y17410000D02*
X68688803Y17410000D01*
X68407643Y16390000D02*
X68688803Y16390000D01*
%TO.C,R9*%
X44147031Y16237742D02*
X44147031Y16712258D01*
X45192031Y16237742D02*
X45192031Y16712258D01*
%TO.C,R12*%
X63347031Y37037742D02*
X63347031Y37512258D01*
X64392031Y37037742D02*
X64392031Y37512258D01*
%TO.C,C47*%
X87607643Y17410000D02*
X87888803Y17410000D01*
X87607643Y16390000D02*
X87888803Y16390000D01*
D12*
%TO.C,J1*%
X34050000Y75200000D02*
X35950000Y75200000D01*
X34050000Y74100000D02*
X34050000Y75200000D01*
X34050000Y70200000D02*
X34050000Y71200000D01*
X46450000Y75200000D02*
X48350000Y75200000D01*
X48350000Y75200000D02*
X48350000Y74100000D01*
X48350000Y71200000D02*
X48350000Y70200000D01*
X48350000Y70200000D02*
X34050000Y70200000D01*
D13*
X46050000Y77265000D02*
G75*
G02*
X45850000Y77265000I-100000J0D01*
G01*
X45850000Y77265000D02*
G75*
G02*
X46050000Y77265000I100000J0D01*
G01*
D12*
%TO.C,J3*%
X34025000Y33600000D02*
X35925000Y33600000D01*
X34025000Y32500000D02*
X34025000Y33600000D01*
X34025000Y28600000D02*
X34025000Y29600000D01*
X46425000Y33600000D02*
X48325000Y33600000D01*
X48325000Y33600000D02*
X48325000Y32500000D01*
X48325000Y29600000D02*
X48325000Y28600000D01*
X48325000Y28600000D02*
X34025000Y28600000D01*
D13*
X46025000Y35665000D02*
G75*
G02*
X45825000Y35665000I-100000J0D01*
G01*
X45825000Y35665000D02*
G75*
G02*
X46025000Y35665000I100000J0D01*
G01*
D14*
%TO.C,C52*%
X87632643Y78203705D02*
X87913803Y78203705D01*
X87632643Y77183705D02*
X87913803Y77183705D01*
%TO.C,C59*%
X73490580Y15866500D02*
X73209420Y15866500D01*
X73490580Y14846500D02*
X73209420Y14846500D01*
%TO.C,C38*%
X68407643Y36603705D02*
X68688803Y36603705D01*
X68407643Y35583705D02*
X68688803Y35583705D01*
%TO.C,C4*%
X49232643Y79810000D02*
X49513803Y79810000D01*
X49232643Y78790000D02*
X49513803Y78790000D01*
%TO.C,R3*%
X44172031Y78637742D02*
X44172031Y79112258D01*
X45217031Y78637742D02*
X45217031Y79112258D01*
%TO.C,C48*%
X75440000Y78734420D02*
X75440000Y79015580D01*
X76460000Y78734420D02*
X76460000Y79015580D01*
%TO.C,C2*%
X49232643Y78203705D02*
X49513803Y78203705D01*
X49232643Y77183705D02*
X49513803Y77183705D01*
%TO.C,C20*%
X35090580Y36666500D02*
X34809420Y36666500D01*
X35090580Y35646500D02*
X34809420Y35646500D01*
%TO.C,C44*%
X73515580Y78266500D02*
X73234420Y78266500D01*
X73515580Y77246500D02*
X73234420Y77246500D01*
%TO.C,C55*%
X75415000Y16334420D02*
X75415000Y16615580D01*
X76435000Y16334420D02*
X76435000Y16615580D01*
%TD*%
M02*
