%TF.GenerationSoftware,KiCad,Pcbnew,9.0.6*%
%TF.CreationDate,2026-06-23T17:26:14+02:00*%
%TF.ProjectId,oled_keyboard,6f6c6564-5f6b-4657-9962-6f6172642e6b,rev?*%
%TF.SameCoordinates,PX4e0ee90PY7c745a0*%
%TF.FileFunction,Profile,NP*%
%FSLAX46Y46*%
G04 Gerber Fmt 4.6, Leading zero omitted, Abs format (unit mm)*
G04 Created by KiCad (PCBNEW 9.0.6) date 2026-06-23 17:26:14*
%MOMM*%
%LPD*%
G01*
G04 APERTURE LIST*
%TA.AperFunction,Profile*%
%ADD10C,0.050000*%
%TD*%
G04 APERTURE END LIST*
D10*
X71950000Y8700000D02*
X87150000Y8700000D01*
X87150000Y5200000D01*
X71950000Y5200000D01*
X71950000Y8700000D01*
X52750000Y29500000D02*
X67950000Y29500000D01*
X67950000Y26000000D01*
X52750000Y26000000D01*
X52750000Y29500000D01*
X71950000Y29500000D02*
X87150000Y29500000D01*
X87150000Y26000000D01*
X71950000Y26000000D01*
X71950000Y29500000D01*
X33550000Y50300000D02*
X48750000Y50300000D01*
X48750000Y46800000D01*
X33550000Y46800000D01*
X33550000Y50300000D01*
X52750000Y50300000D02*
X67950000Y50300000D01*
X67950000Y46800000D01*
X52750000Y46800000D01*
X52750000Y50300000D01*
X52750000Y8700000D02*
X67950000Y8700000D01*
X67950000Y5200000D01*
X52750000Y5200000D01*
X52750000Y8700000D01*
X0Y100000000D02*
X100000000Y100000000D01*
X100000000Y0D01*
X0Y0D01*
X0Y100000000D01*
X71950000Y50300000D02*
X87150000Y50300000D01*
X87150000Y46800000D01*
X71950000Y46800000D01*
X71950000Y50300000D01*
X71950000Y71100000D02*
X87150000Y71100000D01*
X87150000Y67600000D01*
X71950000Y67600000D01*
X71950000Y71100000D01*
X33550000Y71100000D02*
X48750000Y71100000D01*
X48750000Y67600000D01*
X33550000Y67600000D01*
X33550000Y71100000D01*
X33550000Y29500000D02*
X48750000Y29500000D01*
X48750000Y26000000D01*
X33550000Y26000000D01*
X33550000Y29500000D01*
X52750000Y71100000D02*
X67950000Y71100000D01*
X67950000Y67600000D01*
X52750000Y67600000D01*
X52750000Y71100000D01*
X33550000Y8700000D02*
X48750000Y8700000D01*
X48750000Y5200000D01*
X33550000Y5200000D01*
X33550000Y8700000D01*
M02*
