%TF.GenerationSoftware,KiCad,Pcbnew,9.0.6*%
%TF.CreationDate,2026-06-23T17:26:14+02:00*%
%TF.ProjectId,oled_keyboard,6f6c6564-5f6b-4657-9962-6f6172642e6b,rev?*%
%TF.SameCoordinates,PX4e0ee90PY7c745a0*%
%TF.FileFunction,Legend,Top*%
%TF.FilePolarity,Positive*%
%FSLAX46Y46*%
G04 Gerber Fmt 4.6, Leading zero omitted, Abs format (unit mm)*
G04 Created by KiCad (PCBNEW 9.0.6) date 2026-06-23 17:26:14*
%MOMM*%
%LPD*%
G01*
G04 APERTURE LIST*
%ADD10C,0.100000*%
%ADD11C,0.150000*%
%ADD12C,0.120000*%
%ADD13C,0.127000*%
%ADD14C,0.200000*%
G04 APERTURE END LIST*
D10*
X4950000Y43850000D02*
X24950000Y43850000D01*
X24950000Y3850000D01*
X4950000Y3850000D01*
X4950000Y43850000D01*
D11*
X69049905Y61155181D02*
X69049905Y62155181D01*
X69049905Y62155181D02*
X69288000Y62155181D01*
X69288000Y62155181D02*
X69430857Y62107562D01*
X69430857Y62107562D02*
X69526095Y62012324D01*
X69526095Y62012324D02*
X69573714Y61917086D01*
X69573714Y61917086D02*
X69621333Y61726610D01*
X69621333Y61726610D02*
X69621333Y61583753D01*
X69621333Y61583753D02*
X69573714Y61393277D01*
X69573714Y61393277D02*
X69526095Y61298039D01*
X69526095Y61298039D02*
X69430857Y61202800D01*
X69430857Y61202800D02*
X69288000Y61155181D01*
X69288000Y61155181D02*
X69049905Y61155181D01*
X70526095Y62155181D02*
X70049905Y62155181D01*
X70049905Y62155181D02*
X70002286Y61678991D01*
X70002286Y61678991D02*
X70049905Y61726610D01*
X70049905Y61726610D02*
X70145143Y61774229D01*
X70145143Y61774229D02*
X70383238Y61774229D01*
X70383238Y61774229D02*
X70478476Y61726610D01*
X70478476Y61726610D02*
X70526095Y61678991D01*
X70526095Y61678991D02*
X70573714Y61583753D01*
X70573714Y61583753D02*
X70573714Y61345658D01*
X70573714Y61345658D02*
X70526095Y61250420D01*
X70526095Y61250420D02*
X70478476Y61202800D01*
X70478476Y61202800D02*
X70383238Y61155181D01*
X70383238Y61155181D02*
X70145143Y61155181D01*
X70145143Y61155181D02*
X70049905Y61202800D01*
X70049905Y61202800D02*
X70002286Y61250420D01*
X88328905Y60985181D02*
X88328905Y61985181D01*
X88328905Y61985181D02*
X88567000Y61985181D01*
X88567000Y61985181D02*
X88709857Y61937562D01*
X88709857Y61937562D02*
X88805095Y61842324D01*
X88805095Y61842324D02*
X88852714Y61747086D01*
X88852714Y61747086D02*
X88900333Y61556610D01*
X88900333Y61556610D02*
X88900333Y61413753D01*
X88900333Y61413753D02*
X88852714Y61223277D01*
X88852714Y61223277D02*
X88805095Y61128039D01*
X88805095Y61128039D02*
X88709857Y61032800D01*
X88709857Y61032800D02*
X88567000Y60985181D01*
X88567000Y60985181D02*
X88328905Y60985181D01*
X89757476Y61985181D02*
X89567000Y61985181D01*
X89567000Y61985181D02*
X89471762Y61937562D01*
X89471762Y61937562D02*
X89424143Y61889943D01*
X89424143Y61889943D02*
X89328905Y61747086D01*
X89328905Y61747086D02*
X89281286Y61556610D01*
X89281286Y61556610D02*
X89281286Y61175658D01*
X89281286Y61175658D02*
X89328905Y61080420D01*
X89328905Y61080420D02*
X89376524Y61032800D01*
X89376524Y61032800D02*
X89471762Y60985181D01*
X89471762Y60985181D02*
X89662238Y60985181D01*
X89662238Y60985181D02*
X89757476Y61032800D01*
X89757476Y61032800D02*
X89805095Y61080420D01*
X89805095Y61080420D02*
X89852714Y61175658D01*
X89852714Y61175658D02*
X89852714Y61413753D01*
X89852714Y61413753D02*
X89805095Y61508991D01*
X89805095Y61508991D02*
X89757476Y61556610D01*
X89757476Y61556610D02*
X89662238Y61604229D01*
X89662238Y61604229D02*
X89471762Y61604229D01*
X89471762Y61604229D02*
X89376524Y61556610D01*
X89376524Y61556610D02*
X89328905Y61508991D01*
X89328905Y61508991D02*
X89281286Y61413753D01*
X8321833Y29035420D02*
X8274214Y28987800D01*
X8274214Y28987800D02*
X8131357Y28940181D01*
X8131357Y28940181D02*
X8036119Y28940181D01*
X8036119Y28940181D02*
X7893262Y28987800D01*
X7893262Y28987800D02*
X7798024Y29083039D01*
X7798024Y29083039D02*
X7750405Y29178277D01*
X7750405Y29178277D02*
X7702786Y29368753D01*
X7702786Y29368753D02*
X7702786Y29511610D01*
X7702786Y29511610D02*
X7750405Y29702086D01*
X7750405Y29702086D02*
X7798024Y29797324D01*
X7798024Y29797324D02*
X7893262Y29892562D01*
X7893262Y29892562D02*
X8036119Y29940181D01*
X8036119Y29940181D02*
X8131357Y29940181D01*
X8131357Y29940181D02*
X8274214Y29892562D01*
X8274214Y29892562D02*
X8321833Y29844943D01*
X8893262Y29511610D02*
X8798024Y29559229D01*
X8798024Y29559229D02*
X8750405Y29606848D01*
X8750405Y29606848D02*
X8702786Y29702086D01*
X8702786Y29702086D02*
X8702786Y29749705D01*
X8702786Y29749705D02*
X8750405Y29844943D01*
X8750405Y29844943D02*
X8798024Y29892562D01*
X8798024Y29892562D02*
X8893262Y29940181D01*
X8893262Y29940181D02*
X9083738Y29940181D01*
X9083738Y29940181D02*
X9178976Y29892562D01*
X9178976Y29892562D02*
X9226595Y29844943D01*
X9226595Y29844943D02*
X9274214Y29749705D01*
X9274214Y29749705D02*
X9274214Y29702086D01*
X9274214Y29702086D02*
X9226595Y29606848D01*
X9226595Y29606848D02*
X9178976Y29559229D01*
X9178976Y29559229D02*
X9083738Y29511610D01*
X9083738Y29511610D02*
X8893262Y29511610D01*
X8893262Y29511610D02*
X8798024Y29463991D01*
X8798024Y29463991D02*
X8750405Y29416372D01*
X8750405Y29416372D02*
X8702786Y29321134D01*
X8702786Y29321134D02*
X8702786Y29130658D01*
X8702786Y29130658D02*
X8750405Y29035420D01*
X8750405Y29035420D02*
X8798024Y28987800D01*
X8798024Y28987800D02*
X8893262Y28940181D01*
X8893262Y28940181D02*
X9083738Y28940181D01*
X9083738Y28940181D02*
X9178976Y28987800D01*
X9178976Y28987800D02*
X9226595Y29035420D01*
X9226595Y29035420D02*
X9274214Y29130658D01*
X9274214Y29130658D02*
X9274214Y29321134D01*
X9274214Y29321134D02*
X9226595Y29416372D01*
X9226595Y29416372D02*
X9178976Y29463991D01*
X9178976Y29463991D02*
X9083738Y29511610D01*
X30491819Y58991143D02*
X30015628Y58657810D01*
X30491819Y58419715D02*
X29491819Y58419715D01*
X29491819Y58419715D02*
X29491819Y58800667D01*
X29491819Y58800667D02*
X29539438Y58895905D01*
X29539438Y58895905D02*
X29587057Y58943524D01*
X29587057Y58943524D02*
X29682295Y58991143D01*
X29682295Y58991143D02*
X29825152Y58991143D01*
X29825152Y58991143D02*
X29920390Y58943524D01*
X29920390Y58943524D02*
X29968009Y58895905D01*
X29968009Y58895905D02*
X30015628Y58800667D01*
X30015628Y58800667D02*
X30015628Y58419715D01*
X30491819Y59943524D02*
X30491819Y59372096D01*
X30491819Y59657810D02*
X29491819Y59657810D01*
X29491819Y59657810D02*
X29634676Y59562572D01*
X29634676Y59562572D02*
X29729914Y59467334D01*
X29729914Y59467334D02*
X29777533Y59372096D01*
X29920390Y60514953D02*
X29872771Y60419715D01*
X29872771Y60419715D02*
X29825152Y60372096D01*
X29825152Y60372096D02*
X29729914Y60324477D01*
X29729914Y60324477D02*
X29682295Y60324477D01*
X29682295Y60324477D02*
X29587057Y60372096D01*
X29587057Y60372096D02*
X29539438Y60419715D01*
X29539438Y60419715D02*
X29491819Y60514953D01*
X29491819Y60514953D02*
X29491819Y60705429D01*
X29491819Y60705429D02*
X29539438Y60800667D01*
X29539438Y60800667D02*
X29587057Y60848286D01*
X29587057Y60848286D02*
X29682295Y60895905D01*
X29682295Y60895905D02*
X29729914Y60895905D01*
X29729914Y60895905D02*
X29825152Y60848286D01*
X29825152Y60848286D02*
X29872771Y60800667D01*
X29872771Y60800667D02*
X29920390Y60705429D01*
X29920390Y60705429D02*
X29920390Y60514953D01*
X29920390Y60514953D02*
X29968009Y60419715D01*
X29968009Y60419715D02*
X30015628Y60372096D01*
X30015628Y60372096D02*
X30110866Y60324477D01*
X30110866Y60324477D02*
X30301342Y60324477D01*
X30301342Y60324477D02*
X30396580Y60372096D01*
X30396580Y60372096D02*
X30444200Y60419715D01*
X30444200Y60419715D02*
X30491819Y60514953D01*
X30491819Y60514953D02*
X30491819Y60705429D01*
X30491819Y60705429D02*
X30444200Y60800667D01*
X30444200Y60800667D02*
X30396580Y60848286D01*
X30396580Y60848286D02*
X30301342Y60895905D01*
X30301342Y60895905D02*
X30110866Y60895905D01*
X30110866Y60895905D02*
X30015628Y60848286D01*
X30015628Y60848286D02*
X29968009Y60800667D01*
X29968009Y60800667D02*
X29920390Y60705429D01*
X69049905Y40355181D02*
X69049905Y41355181D01*
X69049905Y41355181D02*
X69288000Y41355181D01*
X69288000Y41355181D02*
X69430857Y41307562D01*
X69430857Y41307562D02*
X69526095Y41212324D01*
X69526095Y41212324D02*
X69573714Y41117086D01*
X69573714Y41117086D02*
X69621333Y40926610D01*
X69621333Y40926610D02*
X69621333Y40783753D01*
X69621333Y40783753D02*
X69573714Y40593277D01*
X69573714Y40593277D02*
X69526095Y40498039D01*
X69526095Y40498039D02*
X69430857Y40402800D01*
X69430857Y40402800D02*
X69288000Y40355181D01*
X69288000Y40355181D02*
X69049905Y40355181D01*
X70192762Y40926610D02*
X70097524Y40974229D01*
X70097524Y40974229D02*
X70049905Y41021848D01*
X70049905Y41021848D02*
X70002286Y41117086D01*
X70002286Y41117086D02*
X70002286Y41164705D01*
X70002286Y41164705D02*
X70049905Y41259943D01*
X70049905Y41259943D02*
X70097524Y41307562D01*
X70097524Y41307562D02*
X70192762Y41355181D01*
X70192762Y41355181D02*
X70383238Y41355181D01*
X70383238Y41355181D02*
X70478476Y41307562D01*
X70478476Y41307562D02*
X70526095Y41259943D01*
X70526095Y41259943D02*
X70573714Y41164705D01*
X70573714Y41164705D02*
X70573714Y41117086D01*
X70573714Y41117086D02*
X70526095Y41021848D01*
X70526095Y41021848D02*
X70478476Y40974229D01*
X70478476Y40974229D02*
X70383238Y40926610D01*
X70383238Y40926610D02*
X70192762Y40926610D01*
X70192762Y40926610D02*
X70097524Y40878991D01*
X70097524Y40878991D02*
X70049905Y40831372D01*
X70049905Y40831372D02*
X70002286Y40736134D01*
X70002286Y40736134D02*
X70002286Y40545658D01*
X70002286Y40545658D02*
X70049905Y40450420D01*
X70049905Y40450420D02*
X70097524Y40402800D01*
X70097524Y40402800D02*
X70192762Y40355181D01*
X70192762Y40355181D02*
X70383238Y40355181D01*
X70383238Y40355181D02*
X70478476Y40402800D01*
X70478476Y40402800D02*
X70526095Y40450420D01*
X70526095Y40450420D02*
X70573714Y40545658D01*
X70573714Y40545658D02*
X70573714Y40736134D01*
X70573714Y40736134D02*
X70526095Y40831372D01*
X70526095Y40831372D02*
X70478476Y40878991D01*
X70478476Y40878991D02*
X70383238Y40926610D01*
X92402095Y13697181D02*
X92973523Y13697181D01*
X92687809Y12697181D02*
X92687809Y13697181D01*
X93306857Y12697181D02*
X93306857Y13697181D01*
X93306857Y13697181D02*
X93687809Y13697181D01*
X93687809Y13697181D02*
X93783047Y13649562D01*
X93783047Y13649562D02*
X93830666Y13601943D01*
X93830666Y13601943D02*
X93878285Y13506705D01*
X93878285Y13506705D02*
X93878285Y13363848D01*
X93878285Y13363848D02*
X93830666Y13268610D01*
X93830666Y13268610D02*
X93783047Y13220991D01*
X93783047Y13220991D02*
X93687809Y13173372D01*
X93687809Y13173372D02*
X93306857Y13173372D01*
X94735428Y13363848D02*
X94735428Y12697181D01*
X94497333Y13744800D02*
X94259238Y13030515D01*
X94259238Y13030515D02*
X94878285Y13030515D01*
X91138095Y79943181D02*
X91709523Y79943181D01*
X91423809Y78943181D02*
X91423809Y79943181D01*
X92042857Y78943181D02*
X92042857Y79943181D01*
X92042857Y79943181D02*
X92423809Y79943181D01*
X92423809Y79943181D02*
X92519047Y79895562D01*
X92519047Y79895562D02*
X92566666Y79847943D01*
X92566666Y79847943D02*
X92614285Y79752705D01*
X92614285Y79752705D02*
X92614285Y79609848D01*
X92614285Y79609848D02*
X92566666Y79514610D01*
X92566666Y79514610D02*
X92519047Y79466991D01*
X92519047Y79466991D02*
X92423809Y79419372D01*
X92423809Y79419372D02*
X92042857Y79419372D01*
X93090476Y78943181D02*
X93280952Y78943181D01*
X93280952Y78943181D02*
X93376190Y78990800D01*
X93376190Y78990800D02*
X93423809Y79038420D01*
X93423809Y79038420D02*
X93519047Y79181277D01*
X93519047Y79181277D02*
X93566666Y79371753D01*
X93566666Y79371753D02*
X93566666Y79752705D01*
X93566666Y79752705D02*
X93519047Y79847943D01*
X93519047Y79847943D02*
X93471428Y79895562D01*
X93471428Y79895562D02*
X93376190Y79943181D01*
X93376190Y79943181D02*
X93185714Y79943181D01*
X93185714Y79943181D02*
X93090476Y79895562D01*
X93090476Y79895562D02*
X93042857Y79847943D01*
X93042857Y79847943D02*
X92995238Y79752705D01*
X92995238Y79752705D02*
X92995238Y79514610D01*
X92995238Y79514610D02*
X93042857Y79419372D01*
X93042857Y79419372D02*
X93090476Y79371753D01*
X93090476Y79371753D02*
X93185714Y79324134D01*
X93185714Y79324134D02*
X93376190Y79324134D01*
X93376190Y79324134D02*
X93471428Y79371753D01*
X93471428Y79371753D02*
X93519047Y79419372D01*
X93519047Y79419372D02*
X93566666Y79514610D01*
X3688095Y47693181D02*
X4259523Y47693181D01*
X3973809Y46693181D02*
X3973809Y47693181D01*
X4592857Y46693181D02*
X4592857Y47693181D01*
X4592857Y47693181D02*
X4973809Y47693181D01*
X4973809Y47693181D02*
X5069047Y47645562D01*
X5069047Y47645562D02*
X5116666Y47597943D01*
X5116666Y47597943D02*
X5164285Y47502705D01*
X5164285Y47502705D02*
X5164285Y47359848D01*
X5164285Y47359848D02*
X5116666Y47264610D01*
X5116666Y47264610D02*
X5069047Y47216991D01*
X5069047Y47216991D02*
X4973809Y47169372D01*
X4973809Y47169372D02*
X4592857Y47169372D01*
X5735714Y47264610D02*
X5640476Y47312229D01*
X5640476Y47312229D02*
X5592857Y47359848D01*
X5592857Y47359848D02*
X5545238Y47455086D01*
X5545238Y47455086D02*
X5545238Y47502705D01*
X5545238Y47502705D02*
X5592857Y47597943D01*
X5592857Y47597943D02*
X5640476Y47645562D01*
X5640476Y47645562D02*
X5735714Y47693181D01*
X5735714Y47693181D02*
X5926190Y47693181D01*
X5926190Y47693181D02*
X6021428Y47645562D01*
X6021428Y47645562D02*
X6069047Y47597943D01*
X6069047Y47597943D02*
X6116666Y47502705D01*
X6116666Y47502705D02*
X6116666Y47455086D01*
X6116666Y47455086D02*
X6069047Y47359848D01*
X6069047Y47359848D02*
X6021428Y47312229D01*
X6021428Y47312229D02*
X5926190Y47264610D01*
X5926190Y47264610D02*
X5735714Y47264610D01*
X5735714Y47264610D02*
X5640476Y47216991D01*
X5640476Y47216991D02*
X5592857Y47169372D01*
X5592857Y47169372D02*
X5545238Y47074134D01*
X5545238Y47074134D02*
X5545238Y46883658D01*
X5545238Y46883658D02*
X5592857Y46788420D01*
X5592857Y46788420D02*
X5640476Y46740800D01*
X5640476Y46740800D02*
X5735714Y46693181D01*
X5735714Y46693181D02*
X5926190Y46693181D01*
X5926190Y46693181D02*
X6021428Y46740800D01*
X6021428Y46740800D02*
X6069047Y46788420D01*
X6069047Y46788420D02*
X6116666Y46883658D01*
X6116666Y46883658D02*
X6116666Y47074134D01*
X6116666Y47074134D02*
X6069047Y47169372D01*
X6069047Y47169372D02*
X6021428Y47216991D01*
X6021428Y47216991D02*
X5926190Y47264610D01*
X87877714Y19301181D02*
X87877714Y20301181D01*
X87877714Y20301181D02*
X88115809Y20301181D01*
X88115809Y20301181D02*
X88258666Y20253562D01*
X88258666Y20253562D02*
X88353904Y20158324D01*
X88353904Y20158324D02*
X88401523Y20063086D01*
X88401523Y20063086D02*
X88449142Y19872610D01*
X88449142Y19872610D02*
X88449142Y19729753D01*
X88449142Y19729753D02*
X88401523Y19539277D01*
X88401523Y19539277D02*
X88353904Y19444039D01*
X88353904Y19444039D02*
X88258666Y19348800D01*
X88258666Y19348800D02*
X88115809Y19301181D01*
X88115809Y19301181D02*
X87877714Y19301181D01*
X89401523Y19301181D02*
X88830095Y19301181D01*
X89115809Y19301181D02*
X89115809Y20301181D01*
X89115809Y20301181D02*
X89020571Y20158324D01*
X89020571Y20158324D02*
X88925333Y20063086D01*
X88925333Y20063086D02*
X88830095Y20015467D01*
X89782476Y20205943D02*
X89830095Y20253562D01*
X89830095Y20253562D02*
X89925333Y20301181D01*
X89925333Y20301181D02*
X90163428Y20301181D01*
X90163428Y20301181D02*
X90258666Y20253562D01*
X90258666Y20253562D02*
X90306285Y20205943D01*
X90306285Y20205943D02*
X90353904Y20110705D01*
X90353904Y20110705D02*
X90353904Y20015467D01*
X90353904Y20015467D02*
X90306285Y19872610D01*
X90306285Y19872610D02*
X89734857Y19301181D01*
X89734857Y19301181D02*
X90353904Y19301181D01*
X26686660Y49028396D02*
X27162850Y49028396D01*
X26591422Y48742681D02*
X26924755Y49742681D01*
X26924755Y49742681D02*
X27258088Y48742681D01*
X28115231Y48742681D02*
X27543803Y48742681D01*
X27829517Y48742681D02*
X27829517Y49742681D01*
X27829517Y49742681D02*
X27734279Y49599824D01*
X27734279Y49599824D02*
X27639041Y49504586D01*
X27639041Y49504586D02*
X27543803Y49456967D01*
X49316667Y59342800D02*
X49459524Y59295181D01*
X49459524Y59295181D02*
X49697619Y59295181D01*
X49697619Y59295181D02*
X49792857Y59342800D01*
X49792857Y59342800D02*
X49840476Y59390420D01*
X49840476Y59390420D02*
X49888095Y59485658D01*
X49888095Y59485658D02*
X49888095Y59580896D01*
X49888095Y59580896D02*
X49840476Y59676134D01*
X49840476Y59676134D02*
X49792857Y59723753D01*
X49792857Y59723753D02*
X49697619Y59771372D01*
X49697619Y59771372D02*
X49507143Y59818991D01*
X49507143Y59818991D02*
X49411905Y59866610D01*
X49411905Y59866610D02*
X49364286Y59914229D01*
X49364286Y59914229D02*
X49316667Y60009467D01*
X49316667Y60009467D02*
X49316667Y60104705D01*
X49316667Y60104705D02*
X49364286Y60199943D01*
X49364286Y60199943D02*
X49411905Y60247562D01*
X49411905Y60247562D02*
X49507143Y60295181D01*
X49507143Y60295181D02*
X49745238Y60295181D01*
X49745238Y60295181D02*
X49888095Y60247562D01*
X50221429Y60295181D02*
X50459524Y59295181D01*
X50459524Y59295181D02*
X50650000Y60009467D01*
X50650000Y60009467D02*
X50840476Y59295181D01*
X50840476Y59295181D02*
X51078572Y60295181D01*
X51888095Y59961848D02*
X51888095Y59295181D01*
X51650000Y60342800D02*
X51411905Y59628515D01*
X51411905Y59628515D02*
X52030952Y59628515D01*
X49316667Y80092800D02*
X49459524Y80045181D01*
X49459524Y80045181D02*
X49697619Y80045181D01*
X49697619Y80045181D02*
X49792857Y80092800D01*
X49792857Y80092800D02*
X49840476Y80140420D01*
X49840476Y80140420D02*
X49888095Y80235658D01*
X49888095Y80235658D02*
X49888095Y80330896D01*
X49888095Y80330896D02*
X49840476Y80426134D01*
X49840476Y80426134D02*
X49792857Y80473753D01*
X49792857Y80473753D02*
X49697619Y80521372D01*
X49697619Y80521372D02*
X49507143Y80568991D01*
X49507143Y80568991D02*
X49411905Y80616610D01*
X49411905Y80616610D02*
X49364286Y80664229D01*
X49364286Y80664229D02*
X49316667Y80759467D01*
X49316667Y80759467D02*
X49316667Y80854705D01*
X49316667Y80854705D02*
X49364286Y80949943D01*
X49364286Y80949943D02*
X49411905Y80997562D01*
X49411905Y80997562D02*
X49507143Y81045181D01*
X49507143Y81045181D02*
X49745238Y81045181D01*
X49745238Y81045181D02*
X49888095Y80997562D01*
X50221429Y81045181D02*
X50459524Y80045181D01*
X50459524Y80045181D02*
X50650000Y80759467D01*
X50650000Y80759467D02*
X50840476Y80045181D01*
X50840476Y80045181D02*
X51078572Y81045181D01*
X51983333Y80045181D02*
X51411905Y80045181D01*
X51697619Y80045181D02*
X51697619Y81045181D01*
X51697619Y81045181D02*
X51602381Y80902324D01*
X51602381Y80902324D02*
X51507143Y80807086D01*
X51507143Y80807086D02*
X51411905Y80759467D01*
X7996333Y24551420D02*
X7948714Y24503800D01*
X7948714Y24503800D02*
X7805857Y24456181D01*
X7805857Y24456181D02*
X7710619Y24456181D01*
X7710619Y24456181D02*
X7567762Y24503800D01*
X7567762Y24503800D02*
X7472524Y24599039D01*
X7472524Y24599039D02*
X7424905Y24694277D01*
X7424905Y24694277D02*
X7377286Y24884753D01*
X7377286Y24884753D02*
X7377286Y25027610D01*
X7377286Y25027610D02*
X7424905Y25218086D01*
X7424905Y25218086D02*
X7472524Y25313324D01*
X7472524Y25313324D02*
X7567762Y25408562D01*
X7567762Y25408562D02*
X7710619Y25456181D01*
X7710619Y25456181D02*
X7805857Y25456181D01*
X7805857Y25456181D02*
X7948714Y25408562D01*
X7948714Y25408562D02*
X7996333Y25360943D01*
X8853476Y25456181D02*
X8663000Y25456181D01*
X8663000Y25456181D02*
X8567762Y25408562D01*
X8567762Y25408562D02*
X8520143Y25360943D01*
X8520143Y25360943D02*
X8424905Y25218086D01*
X8424905Y25218086D02*
X8377286Y25027610D01*
X8377286Y25027610D02*
X8377286Y24646658D01*
X8377286Y24646658D02*
X8424905Y24551420D01*
X8424905Y24551420D02*
X8472524Y24503800D01*
X8472524Y24503800D02*
X8567762Y24456181D01*
X8567762Y24456181D02*
X8758238Y24456181D01*
X8758238Y24456181D02*
X8853476Y24503800D01*
X8853476Y24503800D02*
X8901095Y24551420D01*
X8901095Y24551420D02*
X8948714Y24646658D01*
X8948714Y24646658D02*
X8948714Y24884753D01*
X8948714Y24884753D02*
X8901095Y24979991D01*
X8901095Y24979991D02*
X8853476Y25027610D01*
X8853476Y25027610D02*
X8758238Y25075229D01*
X8758238Y25075229D02*
X8567762Y25075229D01*
X8567762Y25075229D02*
X8472524Y25027610D01*
X8472524Y25027610D02*
X8424905Y24979991D01*
X8424905Y24979991D02*
X8377286Y24884753D01*
X68516667Y59342800D02*
X68659524Y59295181D01*
X68659524Y59295181D02*
X68897619Y59295181D01*
X68897619Y59295181D02*
X68992857Y59342800D01*
X68992857Y59342800D02*
X69040476Y59390420D01*
X69040476Y59390420D02*
X69088095Y59485658D01*
X69088095Y59485658D02*
X69088095Y59580896D01*
X69088095Y59580896D02*
X69040476Y59676134D01*
X69040476Y59676134D02*
X68992857Y59723753D01*
X68992857Y59723753D02*
X68897619Y59771372D01*
X68897619Y59771372D02*
X68707143Y59818991D01*
X68707143Y59818991D02*
X68611905Y59866610D01*
X68611905Y59866610D02*
X68564286Y59914229D01*
X68564286Y59914229D02*
X68516667Y60009467D01*
X68516667Y60009467D02*
X68516667Y60104705D01*
X68516667Y60104705D02*
X68564286Y60199943D01*
X68564286Y60199943D02*
X68611905Y60247562D01*
X68611905Y60247562D02*
X68707143Y60295181D01*
X68707143Y60295181D02*
X68945238Y60295181D01*
X68945238Y60295181D02*
X69088095Y60247562D01*
X69421429Y60295181D02*
X69659524Y59295181D01*
X69659524Y59295181D02*
X69850000Y60009467D01*
X69850000Y60009467D02*
X70040476Y59295181D01*
X70040476Y59295181D02*
X70278572Y60295181D01*
X71135714Y60295181D02*
X70659524Y60295181D01*
X70659524Y60295181D02*
X70611905Y59818991D01*
X70611905Y59818991D02*
X70659524Y59866610D01*
X70659524Y59866610D02*
X70754762Y59914229D01*
X70754762Y59914229D02*
X70992857Y59914229D01*
X70992857Y59914229D02*
X71088095Y59866610D01*
X71088095Y59866610D02*
X71135714Y59818991D01*
X71135714Y59818991D02*
X71183333Y59723753D01*
X71183333Y59723753D02*
X71183333Y59485658D01*
X71183333Y59485658D02*
X71135714Y59390420D01*
X71135714Y59390420D02*
X71088095Y59342800D01*
X71088095Y59342800D02*
X70992857Y59295181D01*
X70992857Y59295181D02*
X70754762Y59295181D01*
X70754762Y59295181D02*
X70659524Y59342800D01*
X70659524Y59342800D02*
X70611905Y59390420D01*
X87966667Y38342800D02*
X88109524Y38295181D01*
X88109524Y38295181D02*
X88347619Y38295181D01*
X88347619Y38295181D02*
X88442857Y38342800D01*
X88442857Y38342800D02*
X88490476Y38390420D01*
X88490476Y38390420D02*
X88538095Y38485658D01*
X88538095Y38485658D02*
X88538095Y38580896D01*
X88538095Y38580896D02*
X88490476Y38676134D01*
X88490476Y38676134D02*
X88442857Y38723753D01*
X88442857Y38723753D02*
X88347619Y38771372D01*
X88347619Y38771372D02*
X88157143Y38818991D01*
X88157143Y38818991D02*
X88061905Y38866610D01*
X88061905Y38866610D02*
X88014286Y38914229D01*
X88014286Y38914229D02*
X87966667Y39009467D01*
X87966667Y39009467D02*
X87966667Y39104705D01*
X87966667Y39104705D02*
X88014286Y39199943D01*
X88014286Y39199943D02*
X88061905Y39247562D01*
X88061905Y39247562D02*
X88157143Y39295181D01*
X88157143Y39295181D02*
X88395238Y39295181D01*
X88395238Y39295181D02*
X88538095Y39247562D01*
X88871429Y39295181D02*
X89109524Y38295181D01*
X89109524Y38295181D02*
X89300000Y39009467D01*
X89300000Y39009467D02*
X89490476Y38295181D01*
X89490476Y38295181D02*
X89728572Y39295181D01*
X90157143Y38295181D02*
X90347619Y38295181D01*
X90347619Y38295181D02*
X90442857Y38342800D01*
X90442857Y38342800D02*
X90490476Y38390420D01*
X90490476Y38390420D02*
X90585714Y38533277D01*
X90585714Y38533277D02*
X90633333Y38723753D01*
X90633333Y38723753D02*
X90633333Y39104705D01*
X90633333Y39104705D02*
X90585714Y39199943D01*
X90585714Y39199943D02*
X90538095Y39247562D01*
X90538095Y39247562D02*
X90442857Y39295181D01*
X90442857Y39295181D02*
X90252381Y39295181D01*
X90252381Y39295181D02*
X90157143Y39247562D01*
X90157143Y39247562D02*
X90109524Y39199943D01*
X90109524Y39199943D02*
X90061905Y39104705D01*
X90061905Y39104705D02*
X90061905Y38866610D01*
X90061905Y38866610D02*
X90109524Y38771372D01*
X90109524Y38771372D02*
X90157143Y38723753D01*
X90157143Y38723753D02*
X90252381Y38676134D01*
X90252381Y38676134D02*
X90442857Y38676134D01*
X90442857Y38676134D02*
X90538095Y38723753D01*
X90538095Y38723753D02*
X90585714Y38771372D01*
X90585714Y38771372D02*
X90633333Y38866610D01*
X5488142Y16677420D02*
X5440523Y16629800D01*
X5440523Y16629800D02*
X5297666Y16582181D01*
X5297666Y16582181D02*
X5202428Y16582181D01*
X5202428Y16582181D02*
X5059571Y16629800D01*
X5059571Y16629800D02*
X4964333Y16725039D01*
X4964333Y16725039D02*
X4916714Y16820277D01*
X4916714Y16820277D02*
X4869095Y17010753D01*
X4869095Y17010753D02*
X4869095Y17153610D01*
X4869095Y17153610D02*
X4916714Y17344086D01*
X4916714Y17344086D02*
X4964333Y17439324D01*
X4964333Y17439324D02*
X5059571Y17534562D01*
X5059571Y17534562D02*
X5202428Y17582181D01*
X5202428Y17582181D02*
X5297666Y17582181D01*
X5297666Y17582181D02*
X5440523Y17534562D01*
X5440523Y17534562D02*
X5488142Y17486943D01*
X6440523Y16582181D02*
X5869095Y16582181D01*
X6154809Y16582181D02*
X6154809Y17582181D01*
X6154809Y17582181D02*
X6059571Y17439324D01*
X6059571Y17439324D02*
X5964333Y17344086D01*
X5964333Y17344086D02*
X5869095Y17296467D01*
X7297666Y17248848D02*
X7297666Y16582181D01*
X7059571Y17629800D02*
X6821476Y16915515D01*
X6821476Y16915515D02*
X7440523Y16915515D01*
X16618838Y27889500D02*
X16618838Y27240683D01*
X16618838Y27240683D02*
X16657004Y27164351D01*
X16657004Y27164351D02*
X16695170Y27126185D01*
X16695170Y27126185D02*
X16771501Y27088020D01*
X16771501Y27088020D02*
X16924164Y27088020D01*
X16924164Y27088020D02*
X17000495Y27126185D01*
X17000495Y27126185D02*
X17038661Y27164351D01*
X17038661Y27164351D02*
X17076827Y27240683D01*
X17076827Y27240683D02*
X17076827Y27889500D01*
X17878307Y27088020D02*
X17420318Y27088020D01*
X17649313Y27088020D02*
X17649313Y27889500D01*
X17649313Y27889500D02*
X17572981Y27775003D01*
X17572981Y27775003D02*
X17496650Y27698671D01*
X17496650Y27698671D02*
X17420318Y27660505D01*
X26870095Y3199181D02*
X27441523Y3199181D01*
X27155809Y2199181D02*
X27155809Y3199181D01*
X27774857Y2199181D02*
X27774857Y3199181D01*
X27774857Y3199181D02*
X28155809Y3199181D01*
X28155809Y3199181D02*
X28251047Y3151562D01*
X28251047Y3151562D02*
X28298666Y3103943D01*
X28298666Y3103943D02*
X28346285Y3008705D01*
X28346285Y3008705D02*
X28346285Y2865848D01*
X28346285Y2865848D02*
X28298666Y2770610D01*
X28298666Y2770610D02*
X28251047Y2722991D01*
X28251047Y2722991D02*
X28155809Y2675372D01*
X28155809Y2675372D02*
X27774857Y2675372D01*
X29298666Y2199181D02*
X28727238Y2199181D01*
X29012952Y2199181D02*
X29012952Y3199181D01*
X29012952Y3199181D02*
X28917714Y3056324D01*
X28917714Y3056324D02*
X28822476Y2961086D01*
X28822476Y2961086D02*
X28727238Y2913467D01*
X88328905Y40185181D02*
X88328905Y41185181D01*
X88328905Y41185181D02*
X88567000Y41185181D01*
X88567000Y41185181D02*
X88709857Y41137562D01*
X88709857Y41137562D02*
X88805095Y41042324D01*
X88805095Y41042324D02*
X88852714Y40947086D01*
X88852714Y40947086D02*
X88900333Y40756610D01*
X88900333Y40756610D02*
X88900333Y40613753D01*
X88900333Y40613753D02*
X88852714Y40423277D01*
X88852714Y40423277D02*
X88805095Y40328039D01*
X88805095Y40328039D02*
X88709857Y40232800D01*
X88709857Y40232800D02*
X88567000Y40185181D01*
X88567000Y40185181D02*
X88328905Y40185181D01*
X89376524Y40185181D02*
X89567000Y40185181D01*
X89567000Y40185181D02*
X89662238Y40232800D01*
X89662238Y40232800D02*
X89709857Y40280420D01*
X89709857Y40280420D02*
X89805095Y40423277D01*
X89805095Y40423277D02*
X89852714Y40613753D01*
X89852714Y40613753D02*
X89852714Y40994705D01*
X89852714Y40994705D02*
X89805095Y41089943D01*
X89805095Y41089943D02*
X89757476Y41137562D01*
X89757476Y41137562D02*
X89662238Y41185181D01*
X89662238Y41185181D02*
X89471762Y41185181D01*
X89471762Y41185181D02*
X89376524Y41137562D01*
X89376524Y41137562D02*
X89328905Y41089943D01*
X89328905Y41089943D02*
X89281286Y40994705D01*
X89281286Y40994705D02*
X89281286Y40756610D01*
X89281286Y40756610D02*
X89328905Y40661372D01*
X89328905Y40661372D02*
X89376524Y40613753D01*
X89376524Y40613753D02*
X89471762Y40566134D01*
X89471762Y40566134D02*
X89662238Y40566134D01*
X89662238Y40566134D02*
X89757476Y40613753D01*
X89757476Y40613753D02*
X89805095Y40661372D01*
X89805095Y40661372D02*
X89852714Y40756610D01*
X5488142Y19217420D02*
X5440523Y19169800D01*
X5440523Y19169800D02*
X5297666Y19122181D01*
X5297666Y19122181D02*
X5202428Y19122181D01*
X5202428Y19122181D02*
X5059571Y19169800D01*
X5059571Y19169800D02*
X4964333Y19265039D01*
X4964333Y19265039D02*
X4916714Y19360277D01*
X4916714Y19360277D02*
X4869095Y19550753D01*
X4869095Y19550753D02*
X4869095Y19693610D01*
X4869095Y19693610D02*
X4916714Y19884086D01*
X4916714Y19884086D02*
X4964333Y19979324D01*
X4964333Y19979324D02*
X5059571Y20074562D01*
X5059571Y20074562D02*
X5202428Y20122181D01*
X5202428Y20122181D02*
X5297666Y20122181D01*
X5297666Y20122181D02*
X5440523Y20074562D01*
X5440523Y20074562D02*
X5488142Y20026943D01*
X6440523Y19122181D02*
X5869095Y19122181D01*
X6154809Y19122181D02*
X6154809Y20122181D01*
X6154809Y20122181D02*
X6059571Y19979324D01*
X6059571Y19979324D02*
X5964333Y19884086D01*
X5964333Y19884086D02*
X5869095Y19836467D01*
X7345285Y20122181D02*
X6869095Y20122181D01*
X6869095Y20122181D02*
X6821476Y19645991D01*
X6821476Y19645991D02*
X6869095Y19693610D01*
X6869095Y19693610D02*
X6964333Y19741229D01*
X6964333Y19741229D02*
X7202428Y19741229D01*
X7202428Y19741229D02*
X7297666Y19693610D01*
X7297666Y19693610D02*
X7345285Y19645991D01*
X7345285Y19645991D02*
X7392904Y19550753D01*
X7392904Y19550753D02*
X7392904Y19312658D01*
X7392904Y19312658D02*
X7345285Y19217420D01*
X7345285Y19217420D02*
X7297666Y19169800D01*
X7297666Y19169800D02*
X7202428Y19122181D01*
X7202428Y19122181D02*
X6964333Y19122181D01*
X6964333Y19122181D02*
X6869095Y19169800D01*
X6869095Y19169800D02*
X6821476Y19217420D01*
X5488142Y21757420D02*
X5440523Y21709800D01*
X5440523Y21709800D02*
X5297666Y21662181D01*
X5297666Y21662181D02*
X5202428Y21662181D01*
X5202428Y21662181D02*
X5059571Y21709800D01*
X5059571Y21709800D02*
X4964333Y21805039D01*
X4964333Y21805039D02*
X4916714Y21900277D01*
X4916714Y21900277D02*
X4869095Y22090753D01*
X4869095Y22090753D02*
X4869095Y22233610D01*
X4869095Y22233610D02*
X4916714Y22424086D01*
X4916714Y22424086D02*
X4964333Y22519324D01*
X4964333Y22519324D02*
X5059571Y22614562D01*
X5059571Y22614562D02*
X5202428Y22662181D01*
X5202428Y22662181D02*
X5297666Y22662181D01*
X5297666Y22662181D02*
X5440523Y22614562D01*
X5440523Y22614562D02*
X5488142Y22566943D01*
X6440523Y21662181D02*
X5869095Y21662181D01*
X6154809Y21662181D02*
X6154809Y22662181D01*
X6154809Y22662181D02*
X6059571Y22519324D01*
X6059571Y22519324D02*
X5964333Y22424086D01*
X5964333Y22424086D02*
X5869095Y22376467D01*
X7297666Y22662181D02*
X7107190Y22662181D01*
X7107190Y22662181D02*
X7011952Y22614562D01*
X7011952Y22614562D02*
X6964333Y22566943D01*
X6964333Y22566943D02*
X6869095Y22424086D01*
X6869095Y22424086D02*
X6821476Y22233610D01*
X6821476Y22233610D02*
X6821476Y21852658D01*
X6821476Y21852658D02*
X6869095Y21757420D01*
X6869095Y21757420D02*
X6916714Y21709800D01*
X6916714Y21709800D02*
X7011952Y21662181D01*
X7011952Y21662181D02*
X7202428Y21662181D01*
X7202428Y21662181D02*
X7297666Y21709800D01*
X7297666Y21709800D02*
X7345285Y21757420D01*
X7345285Y21757420D02*
X7392904Y21852658D01*
X7392904Y21852658D02*
X7392904Y22090753D01*
X7392904Y22090753D02*
X7345285Y22185991D01*
X7345285Y22185991D02*
X7297666Y22233610D01*
X7297666Y22233610D02*
X7202428Y22281229D01*
X7202428Y22281229D02*
X7011952Y22281229D01*
X7011952Y22281229D02*
X6916714Y22233610D01*
X6916714Y22233610D02*
X6869095Y22185991D01*
X6869095Y22185991D02*
X6821476Y22090753D01*
X87716667Y80092800D02*
X87859524Y80045181D01*
X87859524Y80045181D02*
X88097619Y80045181D01*
X88097619Y80045181D02*
X88192857Y80092800D01*
X88192857Y80092800D02*
X88240476Y80140420D01*
X88240476Y80140420D02*
X88288095Y80235658D01*
X88288095Y80235658D02*
X88288095Y80330896D01*
X88288095Y80330896D02*
X88240476Y80426134D01*
X88240476Y80426134D02*
X88192857Y80473753D01*
X88192857Y80473753D02*
X88097619Y80521372D01*
X88097619Y80521372D02*
X87907143Y80568991D01*
X87907143Y80568991D02*
X87811905Y80616610D01*
X87811905Y80616610D02*
X87764286Y80664229D01*
X87764286Y80664229D02*
X87716667Y80759467D01*
X87716667Y80759467D02*
X87716667Y80854705D01*
X87716667Y80854705D02*
X87764286Y80949943D01*
X87764286Y80949943D02*
X87811905Y80997562D01*
X87811905Y80997562D02*
X87907143Y81045181D01*
X87907143Y81045181D02*
X88145238Y81045181D01*
X88145238Y81045181D02*
X88288095Y80997562D01*
X88621429Y81045181D02*
X88859524Y80045181D01*
X88859524Y80045181D02*
X89050000Y80759467D01*
X89050000Y80759467D02*
X89240476Y80045181D01*
X89240476Y80045181D02*
X89478572Y81045181D01*
X89764286Y81045181D02*
X90383333Y81045181D01*
X90383333Y81045181D02*
X90050000Y80664229D01*
X90050000Y80664229D02*
X90192857Y80664229D01*
X90192857Y80664229D02*
X90288095Y80616610D01*
X90288095Y80616610D02*
X90335714Y80568991D01*
X90335714Y80568991D02*
X90383333Y80473753D01*
X90383333Y80473753D02*
X90383333Y80235658D01*
X90383333Y80235658D02*
X90335714Y80140420D01*
X90335714Y80140420D02*
X90288095Y80092800D01*
X90288095Y80092800D02*
X90192857Y80045181D01*
X90192857Y80045181D02*
X89907143Y80045181D01*
X89907143Y80045181D02*
X89811905Y80092800D01*
X89811905Y80092800D02*
X89764286Y80140420D01*
X28902095Y10903181D02*
X29473523Y10903181D01*
X29187809Y9903181D02*
X29187809Y10903181D01*
X29806857Y9903181D02*
X29806857Y10903181D01*
X29806857Y10903181D02*
X30187809Y10903181D01*
X30187809Y10903181D02*
X30283047Y10855562D01*
X30283047Y10855562D02*
X30330666Y10807943D01*
X30330666Y10807943D02*
X30378285Y10712705D01*
X30378285Y10712705D02*
X30378285Y10569848D01*
X30378285Y10569848D02*
X30330666Y10474610D01*
X30330666Y10474610D02*
X30283047Y10426991D01*
X30283047Y10426991D02*
X30187809Y10379372D01*
X30187809Y10379372D02*
X29806857Y10379372D01*
X30711619Y10903181D02*
X31378285Y10903181D01*
X31378285Y10903181D02*
X30949714Y9903181D01*
X28902095Y15221181D02*
X29473523Y15221181D01*
X29187809Y14221181D02*
X29187809Y15221181D01*
X29806857Y14221181D02*
X29806857Y15221181D01*
X29806857Y15221181D02*
X30187809Y15221181D01*
X30187809Y15221181D02*
X30283047Y15173562D01*
X30283047Y15173562D02*
X30330666Y15125943D01*
X30330666Y15125943D02*
X30378285Y15030705D01*
X30378285Y15030705D02*
X30378285Y14887848D01*
X30378285Y14887848D02*
X30330666Y14792610D01*
X30330666Y14792610D02*
X30283047Y14744991D01*
X30283047Y14744991D02*
X30187809Y14697372D01*
X30187809Y14697372D02*
X29806857Y14697372D01*
X31235428Y15221181D02*
X31044952Y15221181D01*
X31044952Y15221181D02*
X30949714Y15173562D01*
X30949714Y15173562D02*
X30902095Y15125943D01*
X30902095Y15125943D02*
X30806857Y14983086D01*
X30806857Y14983086D02*
X30759238Y14792610D01*
X30759238Y14792610D02*
X30759238Y14411658D01*
X30759238Y14411658D02*
X30806857Y14316420D01*
X30806857Y14316420D02*
X30854476Y14268800D01*
X30854476Y14268800D02*
X30949714Y14221181D01*
X30949714Y14221181D02*
X31140190Y14221181D01*
X31140190Y14221181D02*
X31235428Y14268800D01*
X31235428Y14268800D02*
X31283047Y14316420D01*
X31283047Y14316420D02*
X31330666Y14411658D01*
X31330666Y14411658D02*
X31330666Y14649753D01*
X31330666Y14649753D02*
X31283047Y14744991D01*
X31283047Y14744991D02*
X31235428Y14792610D01*
X31235428Y14792610D02*
X31140190Y14840229D01*
X31140190Y14840229D02*
X30949714Y14840229D01*
X30949714Y14840229D02*
X30854476Y14792610D01*
X30854476Y14792610D02*
X30806857Y14744991D01*
X30806857Y14744991D02*
X30759238Y14649753D01*
X9012333Y32679420D02*
X8964714Y32631800D01*
X8964714Y32631800D02*
X8821857Y32584181D01*
X8821857Y32584181D02*
X8726619Y32584181D01*
X8726619Y32584181D02*
X8583762Y32631800D01*
X8583762Y32631800D02*
X8488524Y32727039D01*
X8488524Y32727039D02*
X8440905Y32822277D01*
X8440905Y32822277D02*
X8393286Y33012753D01*
X8393286Y33012753D02*
X8393286Y33155610D01*
X8393286Y33155610D02*
X8440905Y33346086D01*
X8440905Y33346086D02*
X8488524Y33441324D01*
X8488524Y33441324D02*
X8583762Y33536562D01*
X8583762Y33536562D02*
X8726619Y33584181D01*
X8726619Y33584181D02*
X8821857Y33584181D01*
X8821857Y33584181D02*
X8964714Y33536562D01*
X8964714Y33536562D02*
X9012333Y33488943D01*
X9488524Y32584181D02*
X9679000Y32584181D01*
X9679000Y32584181D02*
X9774238Y32631800D01*
X9774238Y32631800D02*
X9821857Y32679420D01*
X9821857Y32679420D02*
X9917095Y32822277D01*
X9917095Y32822277D02*
X9964714Y33012753D01*
X9964714Y33012753D02*
X9964714Y33393705D01*
X9964714Y33393705D02*
X9917095Y33488943D01*
X9917095Y33488943D02*
X9869476Y33536562D01*
X9869476Y33536562D02*
X9774238Y33584181D01*
X9774238Y33584181D02*
X9583762Y33584181D01*
X9583762Y33584181D02*
X9488524Y33536562D01*
X9488524Y33536562D02*
X9440905Y33488943D01*
X9440905Y33488943D02*
X9393286Y33393705D01*
X9393286Y33393705D02*
X9393286Y33155610D01*
X9393286Y33155610D02*
X9440905Y33060372D01*
X9440905Y33060372D02*
X9488524Y33012753D01*
X9488524Y33012753D02*
X9583762Y32965134D01*
X9583762Y32965134D02*
X9774238Y32965134D01*
X9774238Y32965134D02*
X9869476Y33012753D01*
X9869476Y33012753D02*
X9917095Y33060372D01*
X9917095Y33060372D02*
X9964714Y33155610D01*
X88084095Y13697181D02*
X88655523Y13697181D01*
X88369809Y12697181D02*
X88369809Y13697181D01*
X88988857Y12697181D02*
X88988857Y13697181D01*
X88988857Y13697181D02*
X89369809Y13697181D01*
X89369809Y13697181D02*
X89465047Y13649562D01*
X89465047Y13649562D02*
X89512666Y13601943D01*
X89512666Y13601943D02*
X89560285Y13506705D01*
X89560285Y13506705D02*
X89560285Y13363848D01*
X89560285Y13363848D02*
X89512666Y13268610D01*
X89512666Y13268610D02*
X89465047Y13220991D01*
X89465047Y13220991D02*
X89369809Y13173372D01*
X89369809Y13173372D02*
X88988857Y13173372D01*
X90465047Y13697181D02*
X89988857Y13697181D01*
X89988857Y13697181D02*
X89941238Y13220991D01*
X89941238Y13220991D02*
X89988857Y13268610D01*
X89988857Y13268610D02*
X90084095Y13316229D01*
X90084095Y13316229D02*
X90322190Y13316229D01*
X90322190Y13316229D02*
X90417428Y13268610D01*
X90417428Y13268610D02*
X90465047Y13220991D01*
X90465047Y13220991D02*
X90512666Y13125753D01*
X90512666Y13125753D02*
X90512666Y12887658D01*
X90512666Y12887658D02*
X90465047Y12792420D01*
X90465047Y12792420D02*
X90417428Y12744800D01*
X90417428Y12744800D02*
X90322190Y12697181D01*
X90322190Y12697181D02*
X90084095Y12697181D01*
X90084095Y12697181D02*
X89988857Y12744800D01*
X89988857Y12744800D02*
X89941238Y12792420D01*
X20728142Y30393420D02*
X20680523Y30345800D01*
X20680523Y30345800D02*
X20537666Y30298181D01*
X20537666Y30298181D02*
X20442428Y30298181D01*
X20442428Y30298181D02*
X20299571Y30345800D01*
X20299571Y30345800D02*
X20204333Y30441039D01*
X20204333Y30441039D02*
X20156714Y30536277D01*
X20156714Y30536277D02*
X20109095Y30726753D01*
X20109095Y30726753D02*
X20109095Y30869610D01*
X20109095Y30869610D02*
X20156714Y31060086D01*
X20156714Y31060086D02*
X20204333Y31155324D01*
X20204333Y31155324D02*
X20299571Y31250562D01*
X20299571Y31250562D02*
X20442428Y31298181D01*
X20442428Y31298181D02*
X20537666Y31298181D01*
X20537666Y31298181D02*
X20680523Y31250562D01*
X20680523Y31250562D02*
X20728142Y31202943D01*
X21680523Y30298181D02*
X21109095Y30298181D01*
X21394809Y30298181D02*
X21394809Y31298181D01*
X21394809Y31298181D02*
X21299571Y31155324D01*
X21299571Y31155324D02*
X21204333Y31060086D01*
X21204333Y31060086D02*
X21109095Y31012467D01*
X22061476Y31202943D02*
X22109095Y31250562D01*
X22109095Y31250562D02*
X22204333Y31298181D01*
X22204333Y31298181D02*
X22442428Y31298181D01*
X22442428Y31298181D02*
X22537666Y31250562D01*
X22537666Y31250562D02*
X22585285Y31202943D01*
X22585285Y31202943D02*
X22632904Y31107705D01*
X22632904Y31107705D02*
X22632904Y31012467D01*
X22632904Y31012467D02*
X22585285Y30869610D01*
X22585285Y30869610D02*
X22013857Y30298181D01*
X22013857Y30298181D02*
X22632904Y30298181D01*
X68766667Y38342800D02*
X68909524Y38295181D01*
X68909524Y38295181D02*
X69147619Y38295181D01*
X69147619Y38295181D02*
X69242857Y38342800D01*
X69242857Y38342800D02*
X69290476Y38390420D01*
X69290476Y38390420D02*
X69338095Y38485658D01*
X69338095Y38485658D02*
X69338095Y38580896D01*
X69338095Y38580896D02*
X69290476Y38676134D01*
X69290476Y38676134D02*
X69242857Y38723753D01*
X69242857Y38723753D02*
X69147619Y38771372D01*
X69147619Y38771372D02*
X68957143Y38818991D01*
X68957143Y38818991D02*
X68861905Y38866610D01*
X68861905Y38866610D02*
X68814286Y38914229D01*
X68814286Y38914229D02*
X68766667Y39009467D01*
X68766667Y39009467D02*
X68766667Y39104705D01*
X68766667Y39104705D02*
X68814286Y39199943D01*
X68814286Y39199943D02*
X68861905Y39247562D01*
X68861905Y39247562D02*
X68957143Y39295181D01*
X68957143Y39295181D02*
X69195238Y39295181D01*
X69195238Y39295181D02*
X69338095Y39247562D01*
X69671429Y39295181D02*
X69909524Y38295181D01*
X69909524Y38295181D02*
X70100000Y39009467D01*
X70100000Y39009467D02*
X70290476Y38295181D01*
X70290476Y38295181D02*
X70528572Y39295181D01*
X71052381Y38866610D02*
X70957143Y38914229D01*
X70957143Y38914229D02*
X70909524Y38961848D01*
X70909524Y38961848D02*
X70861905Y39057086D01*
X70861905Y39057086D02*
X70861905Y39104705D01*
X70861905Y39104705D02*
X70909524Y39199943D01*
X70909524Y39199943D02*
X70957143Y39247562D01*
X70957143Y39247562D02*
X71052381Y39295181D01*
X71052381Y39295181D02*
X71242857Y39295181D01*
X71242857Y39295181D02*
X71338095Y39247562D01*
X71338095Y39247562D02*
X71385714Y39199943D01*
X71385714Y39199943D02*
X71433333Y39104705D01*
X71433333Y39104705D02*
X71433333Y39057086D01*
X71433333Y39057086D02*
X71385714Y38961848D01*
X71385714Y38961848D02*
X71338095Y38914229D01*
X71338095Y38914229D02*
X71242857Y38866610D01*
X71242857Y38866610D02*
X71052381Y38866610D01*
X71052381Y38866610D02*
X70957143Y38818991D01*
X70957143Y38818991D02*
X70909524Y38771372D01*
X70909524Y38771372D02*
X70861905Y38676134D01*
X70861905Y38676134D02*
X70861905Y38485658D01*
X70861905Y38485658D02*
X70909524Y38390420D01*
X70909524Y38390420D02*
X70957143Y38342800D01*
X70957143Y38342800D02*
X71052381Y38295181D01*
X71052381Y38295181D02*
X71242857Y38295181D01*
X71242857Y38295181D02*
X71338095Y38342800D01*
X71338095Y38342800D02*
X71385714Y38390420D01*
X71385714Y38390420D02*
X71433333Y38485658D01*
X71433333Y38485658D02*
X71433333Y38676134D01*
X71433333Y38676134D02*
X71385714Y38771372D01*
X71385714Y38771372D02*
X71338095Y38818991D01*
X71338095Y38818991D02*
X71242857Y38866610D01*
X88353905Y81785181D02*
X88353905Y82785181D01*
X88353905Y82785181D02*
X88592000Y82785181D01*
X88592000Y82785181D02*
X88734857Y82737562D01*
X88734857Y82737562D02*
X88830095Y82642324D01*
X88830095Y82642324D02*
X88877714Y82547086D01*
X88877714Y82547086D02*
X88925333Y82356610D01*
X88925333Y82356610D02*
X88925333Y82213753D01*
X88925333Y82213753D02*
X88877714Y82023277D01*
X88877714Y82023277D02*
X88830095Y81928039D01*
X88830095Y81928039D02*
X88734857Y81832800D01*
X88734857Y81832800D02*
X88592000Y81785181D01*
X88592000Y81785181D02*
X88353905Y81785181D01*
X89258667Y82785181D02*
X89877714Y82785181D01*
X89877714Y82785181D02*
X89544381Y82404229D01*
X89544381Y82404229D02*
X89687238Y82404229D01*
X89687238Y82404229D02*
X89782476Y82356610D01*
X89782476Y82356610D02*
X89830095Y82308991D01*
X89830095Y82308991D02*
X89877714Y82213753D01*
X89877714Y82213753D02*
X89877714Y81975658D01*
X89877714Y81975658D02*
X89830095Y81880420D01*
X89830095Y81880420D02*
X89782476Y81832800D01*
X89782476Y81832800D02*
X89687238Y81785181D01*
X89687238Y81785181D02*
X89401524Y81785181D01*
X89401524Y81785181D02*
X89306286Y81832800D01*
X89306286Y81832800D02*
X89258667Y81880420D01*
X68040476Y17842800D02*
X68183333Y17795181D01*
X68183333Y17795181D02*
X68421428Y17795181D01*
X68421428Y17795181D02*
X68516666Y17842800D01*
X68516666Y17842800D02*
X68564285Y17890420D01*
X68564285Y17890420D02*
X68611904Y17985658D01*
X68611904Y17985658D02*
X68611904Y18080896D01*
X68611904Y18080896D02*
X68564285Y18176134D01*
X68564285Y18176134D02*
X68516666Y18223753D01*
X68516666Y18223753D02*
X68421428Y18271372D01*
X68421428Y18271372D02*
X68230952Y18318991D01*
X68230952Y18318991D02*
X68135714Y18366610D01*
X68135714Y18366610D02*
X68088095Y18414229D01*
X68088095Y18414229D02*
X68040476Y18509467D01*
X68040476Y18509467D02*
X68040476Y18604705D01*
X68040476Y18604705D02*
X68088095Y18699943D01*
X68088095Y18699943D02*
X68135714Y18747562D01*
X68135714Y18747562D02*
X68230952Y18795181D01*
X68230952Y18795181D02*
X68469047Y18795181D01*
X68469047Y18795181D02*
X68611904Y18747562D01*
X68945238Y18795181D02*
X69183333Y17795181D01*
X69183333Y17795181D02*
X69373809Y18509467D01*
X69373809Y18509467D02*
X69564285Y17795181D01*
X69564285Y17795181D02*
X69802381Y18795181D01*
X70707142Y17795181D02*
X70135714Y17795181D01*
X70421428Y17795181D02*
X70421428Y18795181D01*
X70421428Y18795181D02*
X70326190Y18652324D01*
X70326190Y18652324D02*
X70230952Y18557086D01*
X70230952Y18557086D02*
X70135714Y18509467D01*
X71659523Y17795181D02*
X71088095Y17795181D01*
X71373809Y17795181D02*
X71373809Y18795181D01*
X71373809Y18795181D02*
X71278571Y18652324D01*
X71278571Y18652324D02*
X71183333Y18557086D01*
X71183333Y18557086D02*
X71088095Y18509467D01*
X68516667Y80092800D02*
X68659524Y80045181D01*
X68659524Y80045181D02*
X68897619Y80045181D01*
X68897619Y80045181D02*
X68992857Y80092800D01*
X68992857Y80092800D02*
X69040476Y80140420D01*
X69040476Y80140420D02*
X69088095Y80235658D01*
X69088095Y80235658D02*
X69088095Y80330896D01*
X69088095Y80330896D02*
X69040476Y80426134D01*
X69040476Y80426134D02*
X68992857Y80473753D01*
X68992857Y80473753D02*
X68897619Y80521372D01*
X68897619Y80521372D02*
X68707143Y80568991D01*
X68707143Y80568991D02*
X68611905Y80616610D01*
X68611905Y80616610D02*
X68564286Y80664229D01*
X68564286Y80664229D02*
X68516667Y80759467D01*
X68516667Y80759467D02*
X68516667Y80854705D01*
X68516667Y80854705D02*
X68564286Y80949943D01*
X68564286Y80949943D02*
X68611905Y80997562D01*
X68611905Y80997562D02*
X68707143Y81045181D01*
X68707143Y81045181D02*
X68945238Y81045181D01*
X68945238Y81045181D02*
X69088095Y80997562D01*
X69421429Y81045181D02*
X69659524Y80045181D01*
X69659524Y80045181D02*
X69850000Y80759467D01*
X69850000Y80759467D02*
X70040476Y80045181D01*
X70040476Y80045181D02*
X70278572Y81045181D01*
X70611905Y80949943D02*
X70659524Y80997562D01*
X70659524Y80997562D02*
X70754762Y81045181D01*
X70754762Y81045181D02*
X70992857Y81045181D01*
X70992857Y81045181D02*
X71088095Y80997562D01*
X71088095Y80997562D02*
X71135714Y80949943D01*
X71135714Y80949943D02*
X71183333Y80854705D01*
X71183333Y80854705D02*
X71183333Y80759467D01*
X71183333Y80759467D02*
X71135714Y80616610D01*
X71135714Y80616610D02*
X70564286Y80045181D01*
X70564286Y80045181D02*
X71183333Y80045181D01*
X20950333Y25218181D02*
X20617000Y25694372D01*
X20378905Y25218181D02*
X20378905Y26218181D01*
X20378905Y26218181D02*
X20759857Y26218181D01*
X20759857Y26218181D02*
X20855095Y26170562D01*
X20855095Y26170562D02*
X20902714Y26122943D01*
X20902714Y26122943D02*
X20950333Y26027705D01*
X20950333Y26027705D02*
X20950333Y25884848D01*
X20950333Y25884848D02*
X20902714Y25789610D01*
X20902714Y25789610D02*
X20855095Y25741991D01*
X20855095Y25741991D02*
X20759857Y25694372D01*
X20759857Y25694372D02*
X20378905Y25694372D01*
X21283667Y26218181D02*
X21950333Y26218181D01*
X21950333Y26218181D02*
X21521762Y25218181D01*
X15296833Y34025181D02*
X14963500Y34501372D01*
X14725405Y34025181D02*
X14725405Y35025181D01*
X14725405Y35025181D02*
X15106357Y35025181D01*
X15106357Y35025181D02*
X15201595Y34977562D01*
X15201595Y34977562D02*
X15249214Y34929943D01*
X15249214Y34929943D02*
X15296833Y34834705D01*
X15296833Y34834705D02*
X15296833Y34691848D01*
X15296833Y34691848D02*
X15249214Y34596610D01*
X15249214Y34596610D02*
X15201595Y34548991D01*
X15201595Y34548991D02*
X15106357Y34501372D01*
X15106357Y34501372D02*
X14725405Y34501372D01*
X15868262Y34596610D02*
X15773024Y34644229D01*
X15773024Y34644229D02*
X15725405Y34691848D01*
X15725405Y34691848D02*
X15677786Y34787086D01*
X15677786Y34787086D02*
X15677786Y34834705D01*
X15677786Y34834705D02*
X15725405Y34929943D01*
X15725405Y34929943D02*
X15773024Y34977562D01*
X15773024Y34977562D02*
X15868262Y35025181D01*
X15868262Y35025181D02*
X16058738Y35025181D01*
X16058738Y35025181D02*
X16153976Y34977562D01*
X16153976Y34977562D02*
X16201595Y34929943D01*
X16201595Y34929943D02*
X16249214Y34834705D01*
X16249214Y34834705D02*
X16249214Y34787086D01*
X16249214Y34787086D02*
X16201595Y34691848D01*
X16201595Y34691848D02*
X16153976Y34644229D01*
X16153976Y34644229D02*
X16058738Y34596610D01*
X16058738Y34596610D02*
X15868262Y34596610D01*
X15868262Y34596610D02*
X15773024Y34548991D01*
X15773024Y34548991D02*
X15725405Y34501372D01*
X15725405Y34501372D02*
X15677786Y34406134D01*
X15677786Y34406134D02*
X15677786Y34215658D01*
X15677786Y34215658D02*
X15725405Y34120420D01*
X15725405Y34120420D02*
X15773024Y34072800D01*
X15773024Y34072800D02*
X15868262Y34025181D01*
X15868262Y34025181D02*
X16058738Y34025181D01*
X16058738Y34025181D02*
X16153976Y34072800D01*
X16153976Y34072800D02*
X16201595Y34120420D01*
X16201595Y34120420D02*
X16249214Y34215658D01*
X16249214Y34215658D02*
X16249214Y34406134D01*
X16249214Y34406134D02*
X16201595Y34501372D01*
X16201595Y34501372D02*
X16153976Y34548991D01*
X16153976Y34548991D02*
X16058738Y34596610D01*
X49566667Y38342800D02*
X49709524Y38295181D01*
X49709524Y38295181D02*
X49947619Y38295181D01*
X49947619Y38295181D02*
X50042857Y38342800D01*
X50042857Y38342800D02*
X50090476Y38390420D01*
X50090476Y38390420D02*
X50138095Y38485658D01*
X50138095Y38485658D02*
X50138095Y38580896D01*
X50138095Y38580896D02*
X50090476Y38676134D01*
X50090476Y38676134D02*
X50042857Y38723753D01*
X50042857Y38723753D02*
X49947619Y38771372D01*
X49947619Y38771372D02*
X49757143Y38818991D01*
X49757143Y38818991D02*
X49661905Y38866610D01*
X49661905Y38866610D02*
X49614286Y38914229D01*
X49614286Y38914229D02*
X49566667Y39009467D01*
X49566667Y39009467D02*
X49566667Y39104705D01*
X49566667Y39104705D02*
X49614286Y39199943D01*
X49614286Y39199943D02*
X49661905Y39247562D01*
X49661905Y39247562D02*
X49757143Y39295181D01*
X49757143Y39295181D02*
X49995238Y39295181D01*
X49995238Y39295181D02*
X50138095Y39247562D01*
X50471429Y39295181D02*
X50709524Y38295181D01*
X50709524Y38295181D02*
X50900000Y39009467D01*
X50900000Y39009467D02*
X51090476Y38295181D01*
X51090476Y38295181D02*
X51328572Y39295181D01*
X51614286Y39295181D02*
X52280952Y39295181D01*
X52280952Y39295181D02*
X51852381Y38295181D01*
X87590476Y17842800D02*
X87733333Y17795181D01*
X87733333Y17795181D02*
X87971428Y17795181D01*
X87971428Y17795181D02*
X88066666Y17842800D01*
X88066666Y17842800D02*
X88114285Y17890420D01*
X88114285Y17890420D02*
X88161904Y17985658D01*
X88161904Y17985658D02*
X88161904Y18080896D01*
X88161904Y18080896D02*
X88114285Y18176134D01*
X88114285Y18176134D02*
X88066666Y18223753D01*
X88066666Y18223753D02*
X87971428Y18271372D01*
X87971428Y18271372D02*
X87780952Y18318991D01*
X87780952Y18318991D02*
X87685714Y18366610D01*
X87685714Y18366610D02*
X87638095Y18414229D01*
X87638095Y18414229D02*
X87590476Y18509467D01*
X87590476Y18509467D02*
X87590476Y18604705D01*
X87590476Y18604705D02*
X87638095Y18699943D01*
X87638095Y18699943D02*
X87685714Y18747562D01*
X87685714Y18747562D02*
X87780952Y18795181D01*
X87780952Y18795181D02*
X88019047Y18795181D01*
X88019047Y18795181D02*
X88161904Y18747562D01*
X88495238Y18795181D02*
X88733333Y17795181D01*
X88733333Y17795181D02*
X88923809Y18509467D01*
X88923809Y18509467D02*
X89114285Y17795181D01*
X89114285Y17795181D02*
X89352381Y18795181D01*
X90257142Y17795181D02*
X89685714Y17795181D01*
X89971428Y17795181D02*
X89971428Y18795181D01*
X89971428Y18795181D02*
X89876190Y18652324D01*
X89876190Y18652324D02*
X89780952Y18557086D01*
X89780952Y18557086D02*
X89685714Y18509467D01*
X90638095Y18699943D02*
X90685714Y18747562D01*
X90685714Y18747562D02*
X90780952Y18795181D01*
X90780952Y18795181D02*
X91019047Y18795181D01*
X91019047Y18795181D02*
X91114285Y18747562D01*
X91114285Y18747562D02*
X91161904Y18699943D01*
X91161904Y18699943D02*
X91209523Y18604705D01*
X91209523Y18604705D02*
X91209523Y18509467D01*
X91209523Y18509467D02*
X91161904Y18366610D01*
X91161904Y18366610D02*
X90590476Y17795181D01*
X90590476Y17795181D02*
X91209523Y17795181D01*
X68573714Y19555181D02*
X68573714Y20555181D01*
X68573714Y20555181D02*
X68811809Y20555181D01*
X68811809Y20555181D02*
X68954666Y20507562D01*
X68954666Y20507562D02*
X69049904Y20412324D01*
X69049904Y20412324D02*
X69097523Y20317086D01*
X69097523Y20317086D02*
X69145142Y20126610D01*
X69145142Y20126610D02*
X69145142Y19983753D01*
X69145142Y19983753D02*
X69097523Y19793277D01*
X69097523Y19793277D02*
X69049904Y19698039D01*
X69049904Y19698039D02*
X68954666Y19602800D01*
X68954666Y19602800D02*
X68811809Y19555181D01*
X68811809Y19555181D02*
X68573714Y19555181D01*
X70097523Y19555181D02*
X69526095Y19555181D01*
X69811809Y19555181D02*
X69811809Y20555181D01*
X69811809Y20555181D02*
X69716571Y20412324D01*
X69716571Y20412324D02*
X69621333Y20317086D01*
X69621333Y20317086D02*
X69526095Y20269467D01*
X71049904Y19555181D02*
X70478476Y19555181D01*
X70764190Y19555181D02*
X70764190Y20555181D01*
X70764190Y20555181D02*
X70668952Y20412324D01*
X70668952Y20412324D02*
X70573714Y20317086D01*
X70573714Y20317086D02*
X70478476Y20269467D01*
X48840476Y17842800D02*
X48983333Y17795181D01*
X48983333Y17795181D02*
X49221428Y17795181D01*
X49221428Y17795181D02*
X49316666Y17842800D01*
X49316666Y17842800D02*
X49364285Y17890420D01*
X49364285Y17890420D02*
X49411904Y17985658D01*
X49411904Y17985658D02*
X49411904Y18080896D01*
X49411904Y18080896D02*
X49364285Y18176134D01*
X49364285Y18176134D02*
X49316666Y18223753D01*
X49316666Y18223753D02*
X49221428Y18271372D01*
X49221428Y18271372D02*
X49030952Y18318991D01*
X49030952Y18318991D02*
X48935714Y18366610D01*
X48935714Y18366610D02*
X48888095Y18414229D01*
X48888095Y18414229D02*
X48840476Y18509467D01*
X48840476Y18509467D02*
X48840476Y18604705D01*
X48840476Y18604705D02*
X48888095Y18699943D01*
X48888095Y18699943D02*
X48935714Y18747562D01*
X48935714Y18747562D02*
X49030952Y18795181D01*
X49030952Y18795181D02*
X49269047Y18795181D01*
X49269047Y18795181D02*
X49411904Y18747562D01*
X49745238Y18795181D02*
X49983333Y17795181D01*
X49983333Y17795181D02*
X50173809Y18509467D01*
X50173809Y18509467D02*
X50364285Y17795181D01*
X50364285Y17795181D02*
X50602381Y18795181D01*
X51507142Y17795181D02*
X50935714Y17795181D01*
X51221428Y17795181D02*
X51221428Y18795181D01*
X51221428Y18795181D02*
X51126190Y18652324D01*
X51126190Y18652324D02*
X51030952Y18557086D01*
X51030952Y18557086D02*
X50935714Y18509467D01*
X52126190Y18795181D02*
X52221428Y18795181D01*
X52221428Y18795181D02*
X52316666Y18747562D01*
X52316666Y18747562D02*
X52364285Y18699943D01*
X52364285Y18699943D02*
X52411904Y18604705D01*
X52411904Y18604705D02*
X52459523Y18414229D01*
X52459523Y18414229D02*
X52459523Y18176134D01*
X52459523Y18176134D02*
X52411904Y17985658D01*
X52411904Y17985658D02*
X52364285Y17890420D01*
X52364285Y17890420D02*
X52316666Y17842800D01*
X52316666Y17842800D02*
X52221428Y17795181D01*
X52221428Y17795181D02*
X52126190Y17795181D01*
X52126190Y17795181D02*
X52030952Y17842800D01*
X52030952Y17842800D02*
X51983333Y17890420D01*
X51983333Y17890420D02*
X51935714Y17985658D01*
X51935714Y17985658D02*
X51888095Y18176134D01*
X51888095Y18176134D02*
X51888095Y18414229D01*
X51888095Y18414229D02*
X51935714Y18604705D01*
X51935714Y18604705D02*
X51983333Y18699943D01*
X51983333Y18699943D02*
X52030952Y18747562D01*
X52030952Y18747562D02*
X52126190Y18795181D01*
X15773333Y16253181D02*
X15440000Y16729372D01*
X15201905Y16253181D02*
X15201905Y17253181D01*
X15201905Y17253181D02*
X15582857Y17253181D01*
X15582857Y17253181D02*
X15678095Y17205562D01*
X15678095Y17205562D02*
X15725714Y17157943D01*
X15725714Y17157943D02*
X15773333Y17062705D01*
X15773333Y17062705D02*
X15773333Y16919848D01*
X15773333Y16919848D02*
X15725714Y16824610D01*
X15725714Y16824610D02*
X15678095Y16776991D01*
X15678095Y16776991D02*
X15582857Y16729372D01*
X15582857Y16729372D02*
X15201905Y16729372D01*
X16678095Y17253181D02*
X16201905Y17253181D01*
X16201905Y17253181D02*
X16154286Y16776991D01*
X16154286Y16776991D02*
X16201905Y16824610D01*
X16201905Y16824610D02*
X16297143Y16872229D01*
X16297143Y16872229D02*
X16535238Y16872229D01*
X16535238Y16872229D02*
X16630476Y16824610D01*
X16630476Y16824610D02*
X16678095Y16776991D01*
X16678095Y16776991D02*
X16725714Y16681753D01*
X16725714Y16681753D02*
X16725714Y16443658D01*
X16725714Y16443658D02*
X16678095Y16348420D01*
X16678095Y16348420D02*
X16630476Y16300800D01*
X16630476Y16300800D02*
X16535238Y16253181D01*
X16535238Y16253181D02*
X16297143Y16253181D01*
X16297143Y16253181D02*
X16201905Y16300800D01*
X16201905Y16300800D02*
X16154286Y16348420D01*
X49498714Y19385181D02*
X49498714Y20385181D01*
X49498714Y20385181D02*
X49736809Y20385181D01*
X49736809Y20385181D02*
X49879666Y20337562D01*
X49879666Y20337562D02*
X49974904Y20242324D01*
X49974904Y20242324D02*
X50022523Y20147086D01*
X50022523Y20147086D02*
X50070142Y19956610D01*
X50070142Y19956610D02*
X50070142Y19813753D01*
X50070142Y19813753D02*
X50022523Y19623277D01*
X50022523Y19623277D02*
X49974904Y19528039D01*
X49974904Y19528039D02*
X49879666Y19432800D01*
X49879666Y19432800D02*
X49736809Y19385181D01*
X49736809Y19385181D02*
X49498714Y19385181D01*
X51022523Y19385181D02*
X50451095Y19385181D01*
X50736809Y19385181D02*
X50736809Y20385181D01*
X50736809Y20385181D02*
X50641571Y20242324D01*
X50641571Y20242324D02*
X50546333Y20147086D01*
X50546333Y20147086D02*
X50451095Y20099467D01*
X51641571Y20385181D02*
X51736809Y20385181D01*
X51736809Y20385181D02*
X51832047Y20337562D01*
X51832047Y20337562D02*
X51879666Y20289943D01*
X51879666Y20289943D02*
X51927285Y20194705D01*
X51927285Y20194705D02*
X51974904Y20004229D01*
X51974904Y20004229D02*
X51974904Y19766134D01*
X51974904Y19766134D02*
X51927285Y19575658D01*
X51927285Y19575658D02*
X51879666Y19480420D01*
X51879666Y19480420D02*
X51832047Y19432800D01*
X51832047Y19432800D02*
X51736809Y19385181D01*
X51736809Y19385181D02*
X51641571Y19385181D01*
X51641571Y19385181D02*
X51546333Y19432800D01*
X51546333Y19432800D02*
X51498714Y19480420D01*
X51498714Y19480420D02*
X51451095Y19575658D01*
X51451095Y19575658D02*
X51403476Y19766134D01*
X51403476Y19766134D02*
X51403476Y20004229D01*
X51403476Y20004229D02*
X51451095Y20194705D01*
X51451095Y20194705D02*
X51498714Y20289943D01*
X51498714Y20289943D02*
X51546333Y20337562D01*
X51546333Y20337562D02*
X51641571Y20385181D01*
X28332819Y58991143D02*
X27856628Y58657810D01*
X28332819Y58419715D02*
X27332819Y58419715D01*
X27332819Y58419715D02*
X27332819Y58800667D01*
X27332819Y58800667D02*
X27380438Y58895905D01*
X27380438Y58895905D02*
X27428057Y58943524D01*
X27428057Y58943524D02*
X27523295Y58991143D01*
X27523295Y58991143D02*
X27666152Y58991143D01*
X27666152Y58991143D02*
X27761390Y58943524D01*
X27761390Y58943524D02*
X27809009Y58895905D01*
X27809009Y58895905D02*
X27856628Y58800667D01*
X27856628Y58800667D02*
X27856628Y58419715D01*
X28332819Y59943524D02*
X28332819Y59372096D01*
X28332819Y59657810D02*
X27332819Y59657810D01*
X27332819Y59657810D02*
X27475676Y59562572D01*
X27475676Y59562572D02*
X27570914Y59467334D01*
X27570914Y59467334D02*
X27618533Y59372096D01*
X28332819Y60419715D02*
X28332819Y60610191D01*
X28332819Y60610191D02*
X28285200Y60705429D01*
X28285200Y60705429D02*
X28237580Y60753048D01*
X28237580Y60753048D02*
X28094723Y60848286D01*
X28094723Y60848286D02*
X27904247Y60895905D01*
X27904247Y60895905D02*
X27523295Y60895905D01*
X27523295Y60895905D02*
X27428057Y60848286D01*
X27428057Y60848286D02*
X27380438Y60800667D01*
X27380438Y60800667D02*
X27332819Y60705429D01*
X27332819Y60705429D02*
X27332819Y60514953D01*
X27332819Y60514953D02*
X27380438Y60419715D01*
X27380438Y60419715D02*
X27428057Y60372096D01*
X27428057Y60372096D02*
X27523295Y60324477D01*
X27523295Y60324477D02*
X27761390Y60324477D01*
X27761390Y60324477D02*
X27856628Y60372096D01*
X27856628Y60372096D02*
X27904247Y60419715D01*
X27904247Y60419715D02*
X27951866Y60514953D01*
X27951866Y60514953D02*
X27951866Y60705429D01*
X27951866Y60705429D02*
X27904247Y60800667D01*
X27904247Y60800667D02*
X27856628Y60848286D01*
X27856628Y60848286D02*
X27761390Y60895905D01*
X23691975Y47693181D02*
X24263403Y47693181D01*
X23977689Y46693181D02*
X23977689Y47693181D01*
X24596737Y46693181D02*
X24596737Y47693181D01*
X24596737Y47693181D02*
X24977689Y47693181D01*
X24977689Y47693181D02*
X25072927Y47645562D01*
X25072927Y47645562D02*
X25120546Y47597943D01*
X25120546Y47597943D02*
X25168165Y47502705D01*
X25168165Y47502705D02*
X25168165Y47359848D01*
X25168165Y47359848D02*
X25120546Y47264610D01*
X25120546Y47264610D02*
X25072927Y47216991D01*
X25072927Y47216991D02*
X24977689Y47169372D01*
X24977689Y47169372D02*
X24596737Y47169372D01*
X25549118Y47597943D02*
X25596737Y47645562D01*
X25596737Y47645562D02*
X25691975Y47693181D01*
X25691975Y47693181D02*
X25930070Y47693181D01*
X25930070Y47693181D02*
X26025308Y47645562D01*
X26025308Y47645562D02*
X26072927Y47597943D01*
X26072927Y47597943D02*
X26120546Y47502705D01*
X26120546Y47502705D02*
X26120546Y47407467D01*
X26120546Y47407467D02*
X26072927Y47264610D01*
X26072927Y47264610D02*
X25501499Y46693181D01*
X25501499Y46693181D02*
X26120546Y46693181D01*
X7774142Y35473420D02*
X7726523Y35425800D01*
X7726523Y35425800D02*
X7583666Y35378181D01*
X7583666Y35378181D02*
X7488428Y35378181D01*
X7488428Y35378181D02*
X7345571Y35425800D01*
X7345571Y35425800D02*
X7250333Y35521039D01*
X7250333Y35521039D02*
X7202714Y35616277D01*
X7202714Y35616277D02*
X7155095Y35806753D01*
X7155095Y35806753D02*
X7155095Y35949610D01*
X7155095Y35949610D02*
X7202714Y36140086D01*
X7202714Y36140086D02*
X7250333Y36235324D01*
X7250333Y36235324D02*
X7345571Y36330562D01*
X7345571Y36330562D02*
X7488428Y36378181D01*
X7488428Y36378181D02*
X7583666Y36378181D01*
X7583666Y36378181D02*
X7726523Y36330562D01*
X7726523Y36330562D02*
X7774142Y36282943D01*
X8726523Y35378181D02*
X8155095Y35378181D01*
X8440809Y35378181D02*
X8440809Y36378181D01*
X8440809Y36378181D02*
X8345571Y36235324D01*
X8345571Y36235324D02*
X8250333Y36140086D01*
X8250333Y36140086D02*
X8155095Y36092467D01*
X9345571Y36378181D02*
X9440809Y36378181D01*
X9440809Y36378181D02*
X9536047Y36330562D01*
X9536047Y36330562D02*
X9583666Y36282943D01*
X9583666Y36282943D02*
X9631285Y36187705D01*
X9631285Y36187705D02*
X9678904Y35997229D01*
X9678904Y35997229D02*
X9678904Y35759134D01*
X9678904Y35759134D02*
X9631285Y35568658D01*
X9631285Y35568658D02*
X9583666Y35473420D01*
X9583666Y35473420D02*
X9536047Y35425800D01*
X9536047Y35425800D02*
X9440809Y35378181D01*
X9440809Y35378181D02*
X9345571Y35378181D01*
X9345571Y35378181D02*
X9250333Y35425800D01*
X9250333Y35425800D02*
X9202714Y35473420D01*
X9202714Y35473420D02*
X9155095Y35568658D01*
X9155095Y35568658D02*
X9107476Y35759134D01*
X9107476Y35759134D02*
X9107476Y35997229D01*
X9107476Y35997229D02*
X9155095Y36187705D01*
X9155095Y36187705D02*
X9202714Y36282943D01*
X9202714Y36282943D02*
X9250333Y36330562D01*
X9250333Y36330562D02*
X9345571Y36378181D01*
X19680333Y35378181D02*
X19204143Y35378181D01*
X19204143Y35378181D02*
X19204143Y36378181D01*
X20537476Y35378181D02*
X19966048Y35378181D01*
X20251762Y35378181D02*
X20251762Y36378181D01*
X20251762Y36378181D02*
X20156524Y36235324D01*
X20156524Y36235324D02*
X20061286Y36140086D01*
X20061286Y36140086D02*
X19966048Y36092467D01*
X15138333Y18614181D02*
X14805000Y19090372D01*
X14566905Y18614181D02*
X14566905Y19614181D01*
X14566905Y19614181D02*
X14947857Y19614181D01*
X14947857Y19614181D02*
X15043095Y19566562D01*
X15043095Y19566562D02*
X15090714Y19518943D01*
X15090714Y19518943D02*
X15138333Y19423705D01*
X15138333Y19423705D02*
X15138333Y19280848D01*
X15138333Y19280848D02*
X15090714Y19185610D01*
X15090714Y19185610D02*
X15043095Y19137991D01*
X15043095Y19137991D02*
X14947857Y19090372D01*
X14947857Y19090372D02*
X14566905Y19090372D01*
X15995476Y19280848D02*
X15995476Y18614181D01*
X15757381Y19661800D02*
X15519286Y18947515D01*
X15519286Y18947515D02*
X16138333Y18947515D01*
X69074905Y81955181D02*
X69074905Y82955181D01*
X69074905Y82955181D02*
X69313000Y82955181D01*
X69313000Y82955181D02*
X69455857Y82907562D01*
X69455857Y82907562D02*
X69551095Y82812324D01*
X69551095Y82812324D02*
X69598714Y82717086D01*
X69598714Y82717086D02*
X69646333Y82526610D01*
X69646333Y82526610D02*
X69646333Y82383753D01*
X69646333Y82383753D02*
X69598714Y82193277D01*
X69598714Y82193277D02*
X69551095Y82098039D01*
X69551095Y82098039D02*
X69455857Y82002800D01*
X69455857Y82002800D02*
X69313000Y81955181D01*
X69313000Y81955181D02*
X69074905Y81955181D01*
X70027286Y82859943D02*
X70074905Y82907562D01*
X70074905Y82907562D02*
X70170143Y82955181D01*
X70170143Y82955181D02*
X70408238Y82955181D01*
X70408238Y82955181D02*
X70503476Y82907562D01*
X70503476Y82907562D02*
X70551095Y82859943D01*
X70551095Y82859943D02*
X70598714Y82764705D01*
X70598714Y82764705D02*
X70598714Y82669467D01*
X70598714Y82669467D02*
X70551095Y82526610D01*
X70551095Y82526610D02*
X69979667Y81955181D01*
X69979667Y81955181D02*
X70598714Y81955181D01*
X49974905Y40185181D02*
X49974905Y41185181D01*
X49974905Y41185181D02*
X50213000Y41185181D01*
X50213000Y41185181D02*
X50355857Y41137562D01*
X50355857Y41137562D02*
X50451095Y41042324D01*
X50451095Y41042324D02*
X50498714Y40947086D01*
X50498714Y40947086D02*
X50546333Y40756610D01*
X50546333Y40756610D02*
X50546333Y40613753D01*
X50546333Y40613753D02*
X50498714Y40423277D01*
X50498714Y40423277D02*
X50451095Y40328039D01*
X50451095Y40328039D02*
X50355857Y40232800D01*
X50355857Y40232800D02*
X50213000Y40185181D01*
X50213000Y40185181D02*
X49974905Y40185181D01*
X50879667Y41185181D02*
X51546333Y41185181D01*
X51546333Y41185181D02*
X51117762Y40185181D01*
X49999905Y81785181D02*
X49999905Y82785181D01*
X49999905Y82785181D02*
X50238000Y82785181D01*
X50238000Y82785181D02*
X50380857Y82737562D01*
X50380857Y82737562D02*
X50476095Y82642324D01*
X50476095Y82642324D02*
X50523714Y82547086D01*
X50523714Y82547086D02*
X50571333Y82356610D01*
X50571333Y82356610D02*
X50571333Y82213753D01*
X50571333Y82213753D02*
X50523714Y82023277D01*
X50523714Y82023277D02*
X50476095Y81928039D01*
X50476095Y81928039D02*
X50380857Y81832800D01*
X50380857Y81832800D02*
X50238000Y81785181D01*
X50238000Y81785181D02*
X49999905Y81785181D01*
X51523714Y81785181D02*
X50952286Y81785181D01*
X51238000Y81785181D02*
X51238000Y82785181D01*
X51238000Y82785181D02*
X51142762Y82642324D01*
X51142762Y82642324D02*
X51047524Y82547086D01*
X51047524Y82547086D02*
X50952286Y82499467D01*
X13488319Y23908334D02*
X13012128Y23575001D01*
X13488319Y23336906D02*
X12488319Y23336906D01*
X12488319Y23336906D02*
X12488319Y23717858D01*
X12488319Y23717858D02*
X12535938Y23813096D01*
X12535938Y23813096D02*
X12583557Y23860715D01*
X12583557Y23860715D02*
X12678795Y23908334D01*
X12678795Y23908334D02*
X12821652Y23908334D01*
X12821652Y23908334D02*
X12916890Y23860715D01*
X12916890Y23860715D02*
X12964509Y23813096D01*
X12964509Y23813096D02*
X13012128Y23717858D01*
X13012128Y23717858D02*
X13012128Y23336906D01*
X12488319Y24765477D02*
X12488319Y24575001D01*
X12488319Y24575001D02*
X12535938Y24479763D01*
X12535938Y24479763D02*
X12583557Y24432144D01*
X12583557Y24432144D02*
X12726414Y24336906D01*
X12726414Y24336906D02*
X12916890Y24289287D01*
X12916890Y24289287D02*
X13297842Y24289287D01*
X13297842Y24289287D02*
X13393080Y24336906D01*
X13393080Y24336906D02*
X13440700Y24384525D01*
X13440700Y24384525D02*
X13488319Y24479763D01*
X13488319Y24479763D02*
X13488319Y24670239D01*
X13488319Y24670239D02*
X13440700Y24765477D01*
X13440700Y24765477D02*
X13393080Y24813096D01*
X13393080Y24813096D02*
X13297842Y24860715D01*
X13297842Y24860715D02*
X13059747Y24860715D01*
X13059747Y24860715D02*
X12964509Y24813096D01*
X12964509Y24813096D02*
X12916890Y24765477D01*
X12916890Y24765477D02*
X12869271Y24670239D01*
X12869271Y24670239D02*
X12869271Y24479763D01*
X12869271Y24479763D02*
X12916890Y24384525D01*
X12916890Y24384525D02*
X12964509Y24336906D01*
X12964509Y24336906D02*
X13059747Y24289287D01*
X87716667Y59342800D02*
X87859524Y59295181D01*
X87859524Y59295181D02*
X88097619Y59295181D01*
X88097619Y59295181D02*
X88192857Y59342800D01*
X88192857Y59342800D02*
X88240476Y59390420D01*
X88240476Y59390420D02*
X88288095Y59485658D01*
X88288095Y59485658D02*
X88288095Y59580896D01*
X88288095Y59580896D02*
X88240476Y59676134D01*
X88240476Y59676134D02*
X88192857Y59723753D01*
X88192857Y59723753D02*
X88097619Y59771372D01*
X88097619Y59771372D02*
X87907143Y59818991D01*
X87907143Y59818991D02*
X87811905Y59866610D01*
X87811905Y59866610D02*
X87764286Y59914229D01*
X87764286Y59914229D02*
X87716667Y60009467D01*
X87716667Y60009467D02*
X87716667Y60104705D01*
X87716667Y60104705D02*
X87764286Y60199943D01*
X87764286Y60199943D02*
X87811905Y60247562D01*
X87811905Y60247562D02*
X87907143Y60295181D01*
X87907143Y60295181D02*
X88145238Y60295181D01*
X88145238Y60295181D02*
X88288095Y60247562D01*
X88621429Y60295181D02*
X88859524Y59295181D01*
X88859524Y59295181D02*
X89050000Y60009467D01*
X89050000Y60009467D02*
X89240476Y59295181D01*
X89240476Y59295181D02*
X89478572Y60295181D01*
X90288095Y60295181D02*
X90097619Y60295181D01*
X90097619Y60295181D02*
X90002381Y60247562D01*
X90002381Y60247562D02*
X89954762Y60199943D01*
X89954762Y60199943D02*
X89859524Y60057086D01*
X89859524Y60057086D02*
X89811905Y59866610D01*
X89811905Y59866610D02*
X89811905Y59485658D01*
X89811905Y59485658D02*
X89859524Y59390420D01*
X89859524Y59390420D02*
X89907143Y59342800D01*
X89907143Y59342800D02*
X90002381Y59295181D01*
X90002381Y59295181D02*
X90192857Y59295181D01*
X90192857Y59295181D02*
X90288095Y59342800D01*
X90288095Y59342800D02*
X90335714Y59390420D01*
X90335714Y59390420D02*
X90383333Y59485658D01*
X90383333Y59485658D02*
X90383333Y59723753D01*
X90383333Y59723753D02*
X90335714Y59818991D01*
X90335714Y59818991D02*
X90288095Y59866610D01*
X90288095Y59866610D02*
X90192857Y59914229D01*
X90192857Y59914229D02*
X90002381Y59914229D01*
X90002381Y59914229D02*
X89907143Y59866610D01*
X89907143Y59866610D02*
X89859524Y59818991D01*
X89859524Y59818991D02*
X89811905Y59723753D01*
X49974905Y60985181D02*
X49974905Y61985181D01*
X49974905Y61985181D02*
X50213000Y61985181D01*
X50213000Y61985181D02*
X50355857Y61937562D01*
X50355857Y61937562D02*
X50451095Y61842324D01*
X50451095Y61842324D02*
X50498714Y61747086D01*
X50498714Y61747086D02*
X50546333Y61556610D01*
X50546333Y61556610D02*
X50546333Y61413753D01*
X50546333Y61413753D02*
X50498714Y61223277D01*
X50498714Y61223277D02*
X50451095Y61128039D01*
X50451095Y61128039D02*
X50355857Y61032800D01*
X50355857Y61032800D02*
X50213000Y60985181D01*
X50213000Y60985181D02*
X49974905Y60985181D01*
X51403476Y61651848D02*
X51403476Y60985181D01*
X51165381Y62032800D02*
X50927286Y61318515D01*
X50927286Y61318515D02*
X51546333Y61318515D01*
X7774142Y37505420D02*
X7726523Y37457800D01*
X7726523Y37457800D02*
X7583666Y37410181D01*
X7583666Y37410181D02*
X7488428Y37410181D01*
X7488428Y37410181D02*
X7345571Y37457800D01*
X7345571Y37457800D02*
X7250333Y37553039D01*
X7250333Y37553039D02*
X7202714Y37648277D01*
X7202714Y37648277D02*
X7155095Y37838753D01*
X7155095Y37838753D02*
X7155095Y37981610D01*
X7155095Y37981610D02*
X7202714Y38172086D01*
X7202714Y38172086D02*
X7250333Y38267324D01*
X7250333Y38267324D02*
X7345571Y38362562D01*
X7345571Y38362562D02*
X7488428Y38410181D01*
X7488428Y38410181D02*
X7583666Y38410181D01*
X7583666Y38410181D02*
X7726523Y38362562D01*
X7726523Y38362562D02*
X7774142Y38314943D01*
X8726523Y37410181D02*
X8155095Y37410181D01*
X8440809Y37410181D02*
X8440809Y38410181D01*
X8440809Y38410181D02*
X8345571Y38267324D01*
X8345571Y38267324D02*
X8250333Y38172086D01*
X8250333Y38172086D02*
X8155095Y38124467D01*
X9678904Y37410181D02*
X9107476Y37410181D01*
X9393190Y37410181D02*
X9393190Y38410181D01*
X9393190Y38410181D02*
X9297952Y38267324D01*
X9297952Y38267324D02*
X9202714Y38172086D01*
X9202714Y38172086D02*
X9107476Y38124467D01*
X20982142Y21757420D02*
X20934523Y21709800D01*
X20934523Y21709800D02*
X20791666Y21662181D01*
X20791666Y21662181D02*
X20696428Y21662181D01*
X20696428Y21662181D02*
X20553571Y21709800D01*
X20553571Y21709800D02*
X20458333Y21805039D01*
X20458333Y21805039D02*
X20410714Y21900277D01*
X20410714Y21900277D02*
X20363095Y22090753D01*
X20363095Y22090753D02*
X20363095Y22233610D01*
X20363095Y22233610D02*
X20410714Y22424086D01*
X20410714Y22424086D02*
X20458333Y22519324D01*
X20458333Y22519324D02*
X20553571Y22614562D01*
X20553571Y22614562D02*
X20696428Y22662181D01*
X20696428Y22662181D02*
X20791666Y22662181D01*
X20791666Y22662181D02*
X20934523Y22614562D01*
X20934523Y22614562D02*
X20982142Y22566943D01*
X21934523Y21662181D02*
X21363095Y21662181D01*
X21648809Y21662181D02*
X21648809Y22662181D01*
X21648809Y22662181D02*
X21553571Y22519324D01*
X21553571Y22519324D02*
X21458333Y22424086D01*
X21458333Y22424086D02*
X21363095Y22376467D01*
X22267857Y22662181D02*
X22886904Y22662181D01*
X22886904Y22662181D02*
X22553571Y22281229D01*
X22553571Y22281229D02*
X22696428Y22281229D01*
X22696428Y22281229D02*
X22791666Y22233610D01*
X22791666Y22233610D02*
X22839285Y22185991D01*
X22839285Y22185991D02*
X22886904Y22090753D01*
X22886904Y22090753D02*
X22886904Y21852658D01*
X22886904Y21852658D02*
X22839285Y21757420D01*
X22839285Y21757420D02*
X22791666Y21709800D01*
X22791666Y21709800D02*
X22696428Y21662181D01*
X22696428Y21662181D02*
X22410714Y21662181D01*
X22410714Y21662181D02*
X22315476Y21709800D01*
X22315476Y21709800D02*
X22267857Y21757420D01*
X430025Y3444326D02*
X1001453Y3444326D01*
X715739Y2444326D02*
X715739Y3444326D01*
X1334787Y2444326D02*
X1334787Y3444326D01*
X1334787Y3444326D02*
X1715739Y3444326D01*
X1715739Y3444326D02*
X1810977Y3396707D01*
X1810977Y3396707D02*
X1858596Y3349088D01*
X1858596Y3349088D02*
X1906215Y3253850D01*
X1906215Y3253850D02*
X1906215Y3110993D01*
X1906215Y3110993D02*
X1858596Y3015755D01*
X1858596Y3015755D02*
X1810977Y2968136D01*
X1810977Y2968136D02*
X1715739Y2920517D01*
X1715739Y2920517D02*
X1334787Y2920517D01*
X2239549Y3444326D02*
X2858596Y3444326D01*
X2858596Y3444326D02*
X2525263Y3063374D01*
X2525263Y3063374D02*
X2668120Y3063374D01*
X2668120Y3063374D02*
X2763358Y3015755D01*
X2763358Y3015755D02*
X2810977Y2968136D01*
X2810977Y2968136D02*
X2858596Y2872898D01*
X2858596Y2872898D02*
X2858596Y2634803D01*
X2858596Y2634803D02*
X2810977Y2539565D01*
X2810977Y2539565D02*
X2763358Y2491945D01*
X2763358Y2491945D02*
X2668120Y2444326D01*
X2668120Y2444326D02*
X2382406Y2444326D01*
X2382406Y2444326D02*
X2287168Y2491945D01*
X2287168Y2491945D02*
X2239549Y2539565D01*
X20950333Y23535420D02*
X20902714Y23487800D01*
X20902714Y23487800D02*
X20759857Y23440181D01*
X20759857Y23440181D02*
X20664619Y23440181D01*
X20664619Y23440181D02*
X20521762Y23487800D01*
X20521762Y23487800D02*
X20426524Y23583039D01*
X20426524Y23583039D02*
X20378905Y23678277D01*
X20378905Y23678277D02*
X20331286Y23868753D01*
X20331286Y23868753D02*
X20331286Y24011610D01*
X20331286Y24011610D02*
X20378905Y24202086D01*
X20378905Y24202086D02*
X20426524Y24297324D01*
X20426524Y24297324D02*
X20521762Y24392562D01*
X20521762Y24392562D02*
X20664619Y24440181D01*
X20664619Y24440181D02*
X20759857Y24440181D01*
X20759857Y24440181D02*
X20902714Y24392562D01*
X20902714Y24392562D02*
X20950333Y24344943D01*
X21283667Y24440181D02*
X21950333Y24440181D01*
X21950333Y24440181D02*
X21521762Y23440181D01*
D12*
%TO.C,D5*%
X68925000Y62490000D02*
X68925000Y66350000D01*
X68925000Y62490000D02*
X70925000Y62490000D01*
X70925000Y62490000D02*
X70925000Y66350000D01*
%TO.C,D6*%
X88125000Y62490000D02*
X88125000Y66350000D01*
X88125000Y62490000D02*
X90125000Y62490000D01*
X90125000Y62490000D02*
X90125000Y66350000D01*
%TO.C,C8*%
X8629080Y31335000D02*
X8347920Y31335000D01*
X8629080Y30315000D02*
X8347920Y30315000D01*
%TO.C,R18*%
X29485054Y62703097D02*
X29485054Y62228581D01*
X30530054Y62703097D02*
X30530054Y62228581D01*
%TO.C,D8*%
X68925000Y41690000D02*
X68925000Y45550000D01*
X68925000Y41690000D02*
X70925000Y41690000D01*
X70925000Y41690000D02*
X70925000Y45550000D01*
%TO.C,TP4*%
X95050000Y15800000D02*
G75*
G02*
X92150000Y15800000I-1450000J0D01*
G01*
X92150000Y15800000D02*
G75*
G02*
X95050000Y15800000I1450000J0D01*
G01*
%TO.C,TP9*%
X93850000Y77250000D02*
G75*
G02*
X90950000Y77250000I-1450000J0D01*
G01*
X90950000Y77250000D02*
G75*
G02*
X93850000Y77250000I1450000J0D01*
G01*
%TO.C,TP8*%
X6400000Y45000000D02*
G75*
G02*
X3500000Y45000000I-1450000J0D01*
G01*
X3500000Y45000000D02*
G75*
G02*
X6400000Y45000000I1450000J0D01*
G01*
%TO.C,D12*%
X88125000Y20890000D02*
X88125000Y24750000D01*
X88125000Y20890000D02*
X90125000Y20890000D01*
X90125000Y20890000D02*
X90125000Y24750000D01*
%TO.C,A1*%
X4040000Y97032500D02*
X3560000Y97032500D01*
X4040000Y97032500D02*
X4040000Y96612500D01*
X4040000Y94492500D02*
X4040000Y94072500D01*
X4040000Y91952500D02*
X4040000Y91532500D01*
X4040000Y89412500D02*
X4040000Y88992500D01*
X4040000Y86872500D02*
X4040000Y86452500D01*
X4040000Y84332500D02*
X4040000Y83912500D01*
X4040000Y81792500D02*
X4040000Y81372500D01*
X4040000Y79252500D02*
X4040000Y78832500D01*
X4040000Y76712500D02*
X4040000Y76292500D01*
X4040000Y74172500D02*
X4040000Y73752500D01*
X4040000Y71632500D02*
X4040000Y71212500D01*
X4040000Y69092500D02*
X4040000Y68672500D01*
X4040000Y66552500D02*
X4040000Y66132500D01*
X4040000Y64012500D02*
X4040000Y63592500D01*
X4040000Y61472500D02*
X4040000Y61052500D01*
X4040000Y58932500D02*
X4040000Y58512500D01*
X4040000Y56392500D02*
X4040000Y55972500D01*
X4040000Y53852500D02*
X4040000Y53432500D01*
X4040000Y51312500D02*
X4040000Y50892500D01*
X4070324Y99152500D02*
X3560000Y99152500D01*
X4380000Y99152437D02*
X4380000Y99509500D01*
X4380000Y97032500D02*
X4380000Y96612500D01*
X4380000Y94492500D02*
X4380000Y94072500D01*
X4380000Y91952500D02*
X4380000Y91532500D01*
X4380000Y89412500D02*
X4380000Y88992500D01*
X4380000Y86872500D02*
X4380000Y86452500D01*
X4380000Y84332500D02*
X4380000Y83912500D01*
X4380000Y81792500D02*
X4380000Y81372500D01*
X4380000Y79252500D02*
X4380000Y78832500D01*
X4380000Y76712500D02*
X4380000Y76292500D01*
X4380000Y74172500D02*
X4380000Y73752500D01*
X4380000Y71632500D02*
X4380000Y71212500D01*
X4380000Y69092500D02*
X4380000Y68672500D01*
X4380000Y66552500D02*
X4380000Y66132500D01*
X4380000Y64012500D02*
X4380000Y63592500D01*
X4380000Y61472500D02*
X4380000Y61052500D01*
X4380000Y58932500D02*
X4380000Y58512500D01*
X4380000Y56392500D02*
X4380000Y55972500D01*
X4380000Y53852500D02*
X4380000Y53432500D01*
X4380000Y51312500D02*
X4380000Y50892500D01*
X4380000Y48772563D02*
X4380000Y48415500D01*
X4650000Y99572500D02*
X7140000Y99572500D01*
X4650000Y48352500D02*
X8487939Y48352500D01*
X7140000Y99572500D02*
X7140000Y98658980D01*
X7140000Y99572500D02*
X8487940Y99572500D01*
X7140000Y96266020D02*
X7140000Y51658980D01*
X7140000Y49266020D02*
X7140000Y48352500D01*
X9412061Y99572500D02*
X10415000Y99572500D01*
X10415000Y99572500D02*
X18885000Y99572500D01*
X10750000Y99572500D02*
X10750000Y98656500D01*
X10750000Y96268500D02*
X10750000Y95052500D01*
X10750000Y95052500D02*
X11046090Y95052500D01*
X11050000Y48352500D02*
X9412061Y48352500D01*
X13403910Y95052500D02*
X15896090Y95052500D01*
X18250000Y48352500D02*
X11050000Y48352500D01*
X18253910Y95052500D02*
X18550000Y95052500D01*
X18550000Y99572500D02*
X18550000Y98656500D01*
X18550000Y96268500D02*
X18550000Y95052500D01*
X18885000Y99572500D02*
X19887939Y99572500D01*
X19887939Y48352500D02*
X18250000Y48352500D01*
X20812061Y99572500D02*
X22160000Y99572500D01*
X20812061Y48352500D02*
X24650000Y48352500D01*
X22160000Y99572500D02*
X22160000Y98658980D01*
X22160000Y96266020D02*
X22160000Y51658980D01*
X22160000Y49266020D02*
X22160000Y48352500D01*
X24650000Y99572500D02*
X22160000Y99572500D01*
X24920000Y99152437D02*
X24920000Y99509500D01*
X24920000Y97032500D02*
X24920000Y96612500D01*
X24920000Y94492500D02*
X24920000Y94072500D01*
X24920000Y91952500D02*
X24920000Y91532500D01*
X24920000Y89412500D02*
X24920000Y88992500D01*
X24920000Y86872500D02*
X24920000Y86452500D01*
X24920000Y84332500D02*
X24920000Y83912500D01*
X24920000Y81792500D02*
X24920000Y81372500D01*
X24920000Y79252500D02*
X24920000Y78832500D01*
X24920000Y76712500D02*
X24920000Y76292500D01*
X24920000Y74172500D02*
X24920000Y73752500D01*
X24920000Y71632500D02*
X24920000Y71212500D01*
X24920000Y69092500D02*
X24920000Y68672500D01*
X24920000Y66552500D02*
X24920000Y66132500D01*
X24920000Y64012500D02*
X24920000Y63592500D01*
X24920000Y61472500D02*
X24920000Y61052500D01*
X24920000Y58932500D02*
X24920000Y58512500D01*
X24920000Y56392500D02*
X24920000Y55972500D01*
X24920000Y53852500D02*
X24920000Y53432500D01*
X24920000Y51312500D02*
X24920000Y50892500D01*
X24920000Y48772563D02*
X24920000Y48415500D01*
X25260000Y97032500D02*
X25260000Y96612500D01*
X25260000Y94492500D02*
X25260000Y94072500D01*
X25260000Y91952500D02*
X25260000Y91532500D01*
X25260000Y89412500D02*
X25260000Y88992500D01*
X25260000Y86872500D02*
X25260000Y86452500D01*
X25260000Y84332500D02*
X25260000Y83912500D01*
X25260000Y81792500D02*
X25260000Y81372500D01*
X25260000Y79252500D02*
X25260000Y78832500D01*
X25260000Y76712500D02*
X25260000Y76292500D01*
X25260000Y74172500D02*
X25260000Y73752500D01*
X25260000Y71632500D02*
X25260000Y71212500D01*
X25260000Y69092500D02*
X25260000Y68672500D01*
X25260000Y66552500D02*
X25260000Y66132500D01*
X25260000Y64012500D02*
X25260000Y63592500D01*
X25260000Y61472500D02*
X25260000Y61052500D01*
X25260000Y58932500D02*
X25260000Y58512500D01*
X25260000Y56392500D02*
X25260000Y55972500D01*
X25260000Y53852500D02*
X25260000Y53432500D01*
X25260000Y51312500D02*
X25260000Y50892500D01*
X4070324Y99152500D02*
G75*
G02*
X4650000Y99572500I579692J-190051D01*
G01*
X4650000Y48352500D02*
G75*
G02*
X4070324Y48772563I1J610002D01*
G01*
X24650000Y99572500D02*
G75*
G02*
X25229676Y99152437I0J-610000D01*
G01*
X25229676Y48772563D02*
G75*
G02*
X24650000Y48352431I-579676J189837D01*
G01*
%TO.C,SW4*%
X33525000Y66700000D02*
X33525000Y51500000D01*
X33525000Y51500000D02*
X48725000Y51500000D01*
X48725000Y66700000D02*
X33525000Y66700000D01*
X48725000Y51500000D02*
X48725000Y66700000D01*
%TO.C,SW1*%
X33550000Y87500000D02*
X33550000Y72300000D01*
X33550000Y72300000D02*
X48750000Y72300000D01*
X48750000Y87500000D02*
X33550000Y87500000D01*
X48750000Y72300000D02*
X48750000Y87500000D01*
%TO.C,C6*%
X10879080Y25310000D02*
X10597920Y25310000D01*
X10879080Y24290000D02*
X10597920Y24290000D01*
%TO.C,SW5*%
X52725000Y66700000D02*
X52725000Y51500000D01*
X52725000Y51500000D02*
X67925000Y51500000D01*
X67925000Y66700000D02*
X52725000Y66700000D01*
X67925000Y51500000D02*
X67925000Y66700000D01*
%TO.C,SW9*%
X71925000Y45900000D02*
X71925000Y30700000D01*
X71925000Y30700000D02*
X87125000Y30700000D01*
X87125000Y45900000D02*
X71925000Y45900000D01*
X87125000Y30700000D02*
X87125000Y45900000D01*
%TO.C,C14*%
X10674752Y17685000D02*
X9252248Y17685000D01*
X10674752Y15865000D02*
X9252248Y15865000D01*
D13*
%TO.C,U1*%
X11213500Y30550000D02*
X11213500Y29900000D01*
X11213500Y27700000D02*
X11213500Y27050000D01*
X11213500Y27050000D02*
X11363500Y27050000D01*
X11363500Y30550000D02*
X11213500Y30550000D01*
X15563500Y30550000D02*
X15713500Y30550000D01*
X15713500Y30550000D02*
X15713500Y29900000D01*
X15713500Y27700000D02*
X15713500Y27050000D01*
X15713500Y27050000D02*
X15563500Y27050000D01*
D14*
X16563500Y29550000D02*
G75*
G02*
X16363500Y29550000I-100000J0D01*
G01*
X16363500Y29550000D02*
G75*
G02*
X16563500Y29550000I100000J0D01*
G01*
D12*
%TO.C,TP1*%
X26400000Y2750000D02*
G75*
G02*
X23500000Y2750000I-1450000J0D01*
G01*
X23500000Y2750000D02*
G75*
G02*
X26400000Y2750000I1450000J0D01*
G01*
%TO.C,D9*%
X88125000Y41690000D02*
X88125000Y45550000D01*
X88125000Y41690000D02*
X90125000Y41690000D01*
X90125000Y41690000D02*
X90125000Y45550000D01*
%TO.C,C15*%
X10674752Y20435000D02*
X9252248Y20435000D01*
X10674752Y18615000D02*
X9252248Y18615000D01*
%TO.C,C16*%
X10674752Y23185000D02*
X9252248Y23185000D01*
X10674752Y21365000D02*
X9252248Y21365000D01*
%TO.C,SW3*%
X71950000Y87500000D02*
X71950000Y72300000D01*
X71950000Y72300000D02*
X87150000Y72300000D01*
X87150000Y87500000D02*
X71950000Y87500000D01*
X87150000Y72300000D02*
X87150000Y87500000D01*
%TO.C,TP7*%
X28479811Y10611496D02*
G75*
G02*
X25579811Y10611496I-1450000J0D01*
G01*
X25579811Y10611496D02*
G75*
G02*
X28479811Y10611496I1450000J0D01*
G01*
%TO.C,TP6*%
X28479811Y14691339D02*
G75*
G02*
X25579811Y14691339I-1450000J0D01*
G01*
X25579811Y14691339D02*
G75*
G02*
X28479811Y14691339I1450000J0D01*
G01*
%TO.C,C9*%
X11572920Y33560000D02*
X11854080Y33560000D01*
X11572920Y32540000D02*
X11854080Y32540000D01*
%TO.C,TP5*%
X90600000Y15800000D02*
G75*
G02*
X87700000Y15800000I-1450000J0D01*
G01*
X87700000Y15800000D02*
G75*
G02*
X90600000Y15800000I1450000J0D01*
G01*
%TO.C,C12*%
X18322920Y31335000D02*
X18604080Y31335000D01*
X18322920Y30315000D02*
X18604080Y30315000D01*
%TO.C,SW8*%
X52725000Y45900000D02*
X52725000Y30700000D01*
X52725000Y30700000D02*
X67925000Y30700000D01*
X67925000Y45900000D02*
X52725000Y45900000D01*
X67925000Y30700000D02*
X67925000Y45900000D01*
%TO.C,D3*%
X88150000Y83290000D02*
X88150000Y87150000D01*
X88150000Y83290000D02*
X90150000Y83290000D01*
X90150000Y83290000D02*
X90150000Y87150000D01*
%TO.C,SW11*%
X52725000Y25100000D02*
X52725000Y9900000D01*
X52725000Y9900000D02*
X67925000Y9900000D01*
X67925000Y25100000D02*
X52725000Y25100000D01*
X67925000Y9900000D02*
X67925000Y25100000D01*
%TO.C,SW2*%
X52750000Y87500000D02*
X52750000Y72300000D01*
X52750000Y72300000D02*
X67950000Y72300000D01*
X67950000Y87500000D02*
X52750000Y87500000D01*
X67950000Y72300000D02*
X67950000Y87500000D01*
%TO.C,R7*%
X18666258Y26201500D02*
X18191742Y26201500D01*
X18666258Y25156500D02*
X18191742Y25156500D01*
%TO.C,R8*%
X15226242Y33572500D02*
X15700758Y33572500D01*
X15226242Y32527500D02*
X15700758Y32527500D01*
%TO.C,SW7*%
X33525000Y45900000D02*
X33525000Y30700000D01*
X33525000Y30700000D02*
X48725000Y30700000D01*
X48725000Y45900000D02*
X33525000Y45900000D01*
X48725000Y30700000D02*
X48725000Y45900000D01*
%TO.C,SW12*%
X71925000Y25100000D02*
X71925000Y9900000D01*
X71925000Y9900000D02*
X87125000Y9900000D01*
X87125000Y25100000D02*
X71925000Y25100000D01*
X87125000Y9900000D02*
X87125000Y25100000D01*
%TO.C,D11*%
X68925000Y20890000D02*
X68925000Y24750000D01*
X68925000Y20890000D02*
X70925000Y20890000D01*
X70925000Y20890000D02*
X70925000Y24750000D01*
%TO.C,SW10*%
X33525000Y25100000D02*
X33525000Y9900000D01*
X33525000Y9900000D02*
X48725000Y9900000D01*
X48725000Y25100000D02*
X33525000Y25100000D01*
X48725000Y9900000D02*
X48725000Y25100000D01*
%TO.C,R5*%
X13941000Y17537258D02*
X13941000Y17062742D01*
X14986000Y17537258D02*
X14986000Y17062742D01*
%TO.C,D10*%
X49725000Y20890000D02*
X49725000Y24750000D01*
X49725000Y20890000D02*
X51725000Y20890000D01*
X51725000Y20890000D02*
X51725000Y24750000D01*
%TO.C,R19*%
X27330471Y62691176D02*
X27330471Y62216660D01*
X28375471Y62691176D02*
X28375471Y62216660D01*
%TO.C,TP2*%
X26403880Y45000000D02*
G75*
G02*
X23503880Y45000000I-1450000J0D01*
G01*
X23503880Y45000000D02*
G75*
G02*
X26403880Y45000000I1450000J0D01*
G01*
%TO.C,C10*%
X11072920Y36310000D02*
X11354080Y36310000D01*
X11072920Y35290000D02*
X11354080Y35290000D01*
%TO.C,L1*%
X14363500Y39300000D02*
X14363500Y35300000D01*
X18563500Y39300000D02*
X18563500Y35300000D01*
%TO.C,R4*%
X15450758Y21072500D02*
X14976242Y21072500D01*
X15450758Y20027500D02*
X14976242Y20027500D01*
%TO.C,D2*%
X68950000Y83290000D02*
X68950000Y87150000D01*
X68950000Y83290000D02*
X70950000Y83290000D01*
X70950000Y83290000D02*
X70950000Y87150000D01*
%TO.C,D7*%
X49725000Y41690000D02*
X49725000Y45550000D01*
X49725000Y41690000D02*
X51725000Y41690000D01*
X51725000Y41690000D02*
X51725000Y45550000D01*
%TO.C,D1*%
X49750000Y83290000D02*
X49750000Y87150000D01*
X49750000Y83290000D02*
X51750000Y83290000D01*
X51750000Y83290000D02*
X51750000Y87150000D01*
%TO.C,R6*%
X13941000Y23837742D02*
X13941000Y24312258D01*
X14986000Y23837742D02*
X14986000Y24312258D01*
%TO.C,SW6*%
X71925000Y66700000D02*
X71925000Y51500000D01*
X71925000Y51500000D02*
X87125000Y51500000D01*
X87125000Y66700000D02*
X71925000Y66700000D01*
X87125000Y51500000D02*
X87125000Y66700000D01*
%TO.C,D4*%
X49725000Y62490000D02*
X49725000Y66350000D01*
X49725000Y62490000D02*
X51725000Y62490000D01*
X51725000Y62490000D02*
X51725000Y66350000D01*
%TO.C,C11*%
X11072920Y38060000D02*
X11354080Y38060000D01*
X11072920Y37040000D02*
X11354080Y37040000D01*
%TO.C,C13*%
X18288420Y22768000D02*
X18569580Y22768000D01*
X18288420Y21748000D02*
X18569580Y21748000D01*
%TO.C,TP3*%
X6400000Y2750000D02*
G75*
G02*
X3500000Y2750000I-1450000J0D01*
G01*
X3500000Y2750000D02*
G75*
G02*
X6400000Y2750000I1450000J0D01*
G01*
%TO.C,C7*%
X18288420Y24439000D02*
X18569580Y24439000D01*
X18288420Y23419000D02*
X18569580Y23419000D01*
%TD*%
M02*
