M48
; DRILL file {KiCad 9.0.6} date 2026-06-23T17:26:25+0200
; FORMAT={-:-/ absolute / metric / decimal}
; #@! TF.CreationDate,2026-06-23T17:26:25+02:00
; #@! TF.GenerationSoftware,Kicad,Pcbnew,9.0.6
; #@! TF.FileFunction,Plated,1,4,PTH
FMAT,2
METRIC
; #@! TA.AperFunction,Plated,PTH,ComponentDrill
T1C0.200
; #@! TA.AperFunction,Plated,PTH,ViaDrill
T2C0.300
; #@! TA.AperFunction,Plated,PTH,ViaDrill
T3C0.500
; #@! TA.AperFunction,Plated,PTH,ComponentDrill
T4C1.000
; #@! TA.AperFunction,Plated,PTH,ComponentDrill
T5C1.200
%
G90
G05
T1
X12.188Y28.8
X12.938Y29.575
X12.938Y28.8
X12.938Y28.025
X13.989Y29.575
X13.989Y28.8
X13.989Y28.025
X14.739Y28.8
T2
X6.35Y30.85
X9.178Y19.366
X20.7Y30.85
X30.426Y68.049
X30.439Y5.647
X30.45Y72.3
X30.45Y65.072
X30.45Y51.5
X30.45Y48.2
X30.45Y47.2
X30.45Y30.7
X30.45Y27.25
X30.45Y26.4
X30.45Y9.9
X30.45Y6.5
X30.457Y68.848
X31.5Y41.8
X32.3Y73.499
X32.3Y52.7
X32.3Y31.899
X32.3Y11.1
X32.9Y72.898
X32.9Y31.298
X32.901Y52.085
X32.904Y10.486
X35.425Y54.95
X35.425Y34.15
X35.425Y13.35
X35.475Y75.75
X40.725Y33.167
X40.75Y74.767
X40.825Y53.3
X40.825Y11.7
X41.525Y32.5
X41.55Y74.1
X41.625Y53.967
X41.625Y12.367
X42.707Y52.699
X42.707Y31.899
X42.707Y11.099
X42.732Y73.499
X43.473Y52.098
X43.473Y31.298
X43.473Y10.498
X43.498Y72.898
X44.172Y51.497
X44.172Y30.697
X44.172Y9.897
X44.197Y72.297
X48.625Y55.7
X48.625Y34.9
X48.625Y14.1
X48.65Y76.5
X54.6Y54.95
X54.6Y34.15
X54.6Y13.35
X54.65Y75.75
X59.925Y33.167
X59.95Y74.767
X60.025Y53.3
X60.025Y11.7
X60.725Y32.5
X60.75Y74.1
X60.825Y53.967
X60.825Y12.367
X61.907Y52.699
X61.907Y31.899
X61.907Y11.099
X61.932Y73.499
X62.673Y52.098
X62.673Y31.298
X62.673Y10.498
X62.698Y72.898
X63.372Y51.497
X63.372Y30.697
X63.372Y9.897
X63.397Y72.297
X67.825Y55.7
X67.825Y34.9
X67.825Y14.1
X67.85Y76.5
X73.85Y54.95
X73.85Y34.15
X73.85Y13.35
X73.9Y75.75
X79.125Y33.167
X79.15Y74.767
X79.225Y53.3
X79.225Y11.7
X79.925Y32.5
X79.95Y74.1
X80.025Y53.967
X80.025Y12.367
X81.107Y52.699
X81.107Y31.899
X81.107Y11.099
X81.132Y73.499
X81.873Y52.098
X81.873Y31.298
X81.873Y10.498
X81.898Y72.898
X82.572Y51.497
X82.572Y30.697
X82.572Y9.897
X82.597Y72.297
X87.025Y55.7
X87.025Y34.9
X87.025Y14.1
X87.05Y76.5
X88.15Y13.35
X90.139Y14.1
X90.9Y75.75
X91.026Y54.774
X91.05Y34.0
X91.875Y34.9
X91.9Y76.5
X91.9Y56.0
T3
X19.55Y38.7
T4
X5.76Y98.093
X5.76Y95.552
X5.76Y93.013
X5.76Y90.472
X5.76Y87.932
X5.76Y85.392
X5.76Y82.852
X5.76Y80.312
X5.76Y77.772
X5.76Y75.233
X5.76Y72.692
X5.76Y70.153
X5.76Y67.612
X5.76Y65.072
X5.76Y62.532
X5.76Y59.992
X5.76Y57.453
X5.76Y54.912
X5.76Y52.372
X5.76Y49.832
X23.54Y98.093
X23.54Y95.552
X23.54Y93.013
X23.54Y90.472
X23.54Y87.932
X23.54Y85.392
X23.54Y82.852
X23.54Y80.312
X23.54Y77.772
X23.54Y75.233
X23.54Y72.692
X23.54Y70.153
X23.54Y67.612
X23.54Y65.072
X23.54Y62.532
X23.54Y59.992
X23.54Y57.453
X23.54Y54.912
X23.54Y52.372
X23.54Y49.832
T5
X41.125Y65.0
X41.125Y44.2
X41.125Y23.4
X41.15Y85.8
X46.125Y62.9
X46.125Y42.1
X46.125Y21.3
X46.15Y83.7
X60.325Y65.0
X60.325Y44.2
X60.325Y23.4
X60.35Y85.8
X65.325Y62.9
X65.325Y42.1
X65.325Y21.3
X65.35Y83.7
X79.525Y65.0
X79.525Y44.2
X79.525Y23.4
X79.55Y85.8
X84.525Y62.9
X84.525Y42.1
X84.525Y21.3
X84.55Y83.7
M30
