%TF.GenerationSoftware,KiCad,Pcbnew,9.0.6*%
%TF.CreationDate,2026-06-23T17:26:14+02:00*%
%TF.ProjectId,oled_keyboard,6f6c6564-5f6b-4657-9962-6f6172642e6b,rev?*%
%TF.SameCoordinates,PX4e0ee90PY7c745a0*%
%TF.FileFunction,Paste,Top*%
%TF.FilePolarity,Positive*%
%FSLAX46Y46*%
G04 Gerber Fmt 4.6, Leading zero omitted, Abs format (unit mm)*
G04 Created by KiCad (PCBNEW 9.0.6) date 2026-06-23 17:26:14*
%MOMM*%
%LPD*%
G01*
G04 APERTURE LIST*
G04 Aperture macros list*
%AMRoundRect*
0 Rectangle with rounded corners*
0 $1 Rounding radius*
0 $2 $3 $4 $5 $6 $7 $8 $9 X,Y pos of 4 corners*
0 Add a 4 corners polygon primitive as box body*
4,1,4,$2,$3,$4,$5,$6,$7,$8,$9,$2,$3,0*
0 Add four circle primitives for the rounded corners*
1,1,$1+$1,$2,$3*
1,1,$1+$1,$4,$5*
1,1,$1+$1,$6,$7*
1,1,$1+$1,$8,$9*
0 Add four rect primitives between the rounded corners*
20,1,$1+$1,$2,$3,$4,$5,0*
20,1,$1+$1,$4,$5,$6,$7,0*
20,1,$1+$1,$6,$7,$8,$9,0*
20,1,$1+$1,$8,$9,$2,$3,0*%
G04 Aperture macros list end*
%ADD10C,0.010000*%
%ADD11RoundRect,0.250000X0.300000X-0.300000X0.300000X0.300000X-0.300000X0.300000X-0.300000X-0.300000X0*%
%ADD12RoundRect,0.225000X0.225000X0.250000X-0.225000X0.250000X-0.225000X-0.250000X0.225000X-0.250000X0*%
%ADD13RoundRect,0.200000X-0.275000X0.200000X-0.275000X-0.200000X0.275000X-0.200000X0.275000X0.200000X0*%
%ADD14RoundRect,0.250000X0.325000X0.650000X-0.325000X0.650000X-0.325000X-0.650000X0.325000X-0.650000X0*%
%ADD15RoundRect,0.050400X-0.249600X0.069600X-0.249600X-0.069600X0.249600X-0.069600X0.249600X0.069600X0*%
%ADD16RoundRect,0.050400X-0.069600X0.249600X-0.069600X-0.249600X0.069600X-0.249600X0.069600X0.249600X0*%
%ADD17RoundRect,0.225000X-0.225000X-0.250000X0.225000X-0.250000X0.225000X0.250000X-0.225000X0.250000X0*%
%ADD18RoundRect,0.200000X0.200000X0.275000X-0.200000X0.275000X-0.200000X-0.275000X0.200000X-0.275000X0*%
%ADD19RoundRect,0.200000X-0.200000X-0.275000X0.200000X-0.275000X0.200000X0.275000X-0.200000X0.275000X0*%
%ADD20R,3.700000X1.200000*%
%ADD21RoundRect,0.200000X0.275000X-0.200000X0.275000X0.200000X-0.275000X0.200000X-0.275000X-0.200000X0*%
G04 APERTURE END LIST*
D10*
%TO.C,U1*%
X12838500Y28900000D02*
X11988500Y28900000D01*
X11988500Y29820000D01*
X12838500Y29820000D01*
X12838500Y28900000D01*
G36*
X12838500Y28900000D02*
G01*
X11988500Y28900000D01*
X11988500Y29820000D01*
X12838500Y29820000D01*
X12838500Y28900000D01*
G37*
X12838500Y27780000D02*
X11988500Y27780000D01*
X11988500Y28700000D01*
X12838500Y28700000D01*
X12838500Y27780000D01*
G36*
X12838500Y27780000D02*
G01*
X11988500Y27780000D01*
X11988500Y28700000D01*
X12838500Y28700000D01*
X12838500Y27780000D01*
G37*
X13888500Y28900000D02*
X13038500Y28900000D01*
X13038500Y29820000D01*
X13888500Y29820000D01*
X13888500Y28900000D01*
G36*
X13888500Y28900000D02*
G01*
X13038500Y28900000D01*
X13038500Y29820000D01*
X13888500Y29820000D01*
X13888500Y28900000D01*
G37*
X13888500Y27780000D02*
X13038500Y27780000D01*
X13038500Y28700000D01*
X13888500Y28700000D01*
X13888500Y27780000D01*
G36*
X13888500Y27780000D02*
G01*
X13038500Y27780000D01*
X13038500Y28700000D01*
X13888500Y28700000D01*
X13888500Y27780000D01*
G37*
X14938500Y28900000D02*
X14088500Y28900000D01*
X14088500Y29820000D01*
X14938500Y29820000D01*
X14938500Y28900000D01*
G36*
X14938500Y28900000D02*
G01*
X14088500Y28900000D01*
X14088500Y29820000D01*
X14938500Y29820000D01*
X14938500Y28900000D01*
G37*
X14938500Y27780000D02*
X14088500Y27780000D01*
X14088500Y28700000D01*
X14938500Y28700000D01*
X14938500Y27780000D01*
G36*
X14938500Y27780000D02*
G01*
X14088500Y27780000D01*
X14088500Y28700000D01*
X14938500Y28700000D01*
X14938500Y27780000D01*
G37*
X11788500Y28425000D02*
X11063500Y28425000D01*
X11060500Y28425000D01*
X11058500Y28425000D01*
X11055500Y28426000D01*
X11053500Y28426000D01*
X11050500Y28427000D01*
X11048500Y28427000D01*
X11045500Y28428000D01*
X11043500Y28429000D01*
X11040500Y28430000D01*
X11038500Y28432000D01*
X11036500Y28433000D01*
X11034500Y28435000D01*
X11032500Y28436000D01*
X11030500Y28438000D01*
X11028500Y28440000D01*
X11026500Y28442000D01*
X11024500Y28444000D01*
X11023500Y28446000D01*
X11021500Y28448000D01*
X11020500Y28450000D01*
X11018500Y28452000D01*
X11017500Y28455000D01*
X11016500Y28457000D01*
X11015500Y28460000D01*
X11015500Y28462000D01*
X11014500Y28465000D01*
X11014500Y28467000D01*
X11013500Y28470000D01*
X11013500Y28472000D01*
X11013500Y28475000D01*
X11013500Y28575000D01*
X11013500Y28578000D01*
X11013500Y28580000D01*
X11014500Y28583000D01*
X11014500Y28585000D01*
X11015500Y28588000D01*
X11015500Y28590000D01*
X11016500Y28593000D01*
X11017500Y28595000D01*
X11018500Y28598000D01*
X11020500Y28600000D01*
X11021500Y28602000D01*
X11023500Y28604000D01*
X11024500Y28606000D01*
X11026500Y28608000D01*
X11028500Y28610000D01*
X11030500Y28612000D01*
X11032500Y28614000D01*
X11034500Y28615000D01*
X11036500Y28617000D01*
X11038500Y28618000D01*
X11040500Y28620000D01*
X11043500Y28621000D01*
X11045500Y28622000D01*
X11048500Y28623000D01*
X11050500Y28623000D01*
X11053500Y28624000D01*
X11055500Y28624000D01*
X11058500Y28625000D01*
X11060500Y28625000D01*
X11063500Y28625000D01*
X11538500Y28625000D01*
X11538500Y28975000D01*
X11063500Y28975000D01*
X11060500Y28975000D01*
X11058500Y28975000D01*
X11055500Y28976000D01*
X11053500Y28976000D01*
X11050500Y28977000D01*
X11048500Y28977000D01*
X11045500Y28978000D01*
X11043500Y28979000D01*
X11040500Y28980000D01*
X11038500Y28982000D01*
X11036500Y28983000D01*
X11034500Y28985000D01*
X11032500Y28986000D01*
X11030500Y28988000D01*
X11028500Y28990000D01*
X11026500Y28992000D01*
X11024500Y28994000D01*
X11023500Y28996000D01*
X11021500Y28998000D01*
X11020500Y29000000D01*
X11018500Y29002000D01*
X11017500Y29005000D01*
X11016500Y29007000D01*
X11015500Y29010000D01*
X11015500Y29012000D01*
X11014500Y29015000D01*
X11014500Y29017000D01*
X11013500Y29020000D01*
X11013500Y29022000D01*
X11013500Y29025000D01*
X11013500Y29125000D01*
X11013500Y29128000D01*
X11013500Y29130000D01*
X11014500Y29133000D01*
X11014500Y29135000D01*
X11015500Y29138000D01*
X11015500Y29140000D01*
X11016500Y29143000D01*
X11017500Y29145000D01*
X11018500Y29148000D01*
X11020500Y29150000D01*
X11021500Y29152000D01*
X11023500Y29154000D01*
X11024500Y29156000D01*
X11026500Y29158000D01*
X11028500Y29160000D01*
X11030500Y29162000D01*
X11032500Y29164000D01*
X11034500Y29165000D01*
X11036500Y29167000D01*
X11038500Y29168000D01*
X11040500Y29170000D01*
X11043500Y29171000D01*
X11045500Y29172000D01*
X11048500Y29173000D01*
X11050500Y29173000D01*
X11053500Y29174000D01*
X11055500Y29174000D01*
X11058500Y29175000D01*
X11060500Y29175000D01*
X11063500Y29175000D01*
X11788500Y29175000D01*
X11788500Y28425000D01*
G36*
X11788500Y28425000D02*
G01*
X11063500Y28425000D01*
X11060500Y28425000D01*
X11058500Y28425000D01*
X11055500Y28426000D01*
X11053500Y28426000D01*
X11050500Y28427000D01*
X11048500Y28427000D01*
X11045500Y28428000D01*
X11043500Y28429000D01*
X11040500Y28430000D01*
X11038500Y28432000D01*
X11036500Y28433000D01*
X11034500Y28435000D01*
X11032500Y28436000D01*
X11030500Y28438000D01*
X11028500Y28440000D01*
X11026500Y28442000D01*
X11024500Y28444000D01*
X11023500Y28446000D01*
X11021500Y28448000D01*
X11020500Y28450000D01*
X11018500Y28452000D01*
X11017500Y28455000D01*
X11016500Y28457000D01*
X11015500Y28460000D01*
X11015500Y28462000D01*
X11014500Y28465000D01*
X11014500Y28467000D01*
X11013500Y28470000D01*
X11013500Y28472000D01*
X11013500Y28475000D01*
X11013500Y28575000D01*
X11013500Y28578000D01*
X11013500Y28580000D01*
X11014500Y28583000D01*
X11014500Y28585000D01*
X11015500Y28588000D01*
X11015500Y28590000D01*
X11016500Y28593000D01*
X11017500Y28595000D01*
X11018500Y28598000D01*
X11020500Y28600000D01*
X11021500Y28602000D01*
X11023500Y28604000D01*
X11024500Y28606000D01*
X11026500Y28608000D01*
X11028500Y28610000D01*
X11030500Y28612000D01*
X11032500Y28614000D01*
X11034500Y28615000D01*
X11036500Y28617000D01*
X11038500Y28618000D01*
X11040500Y28620000D01*
X11043500Y28621000D01*
X11045500Y28622000D01*
X11048500Y28623000D01*
X11050500Y28623000D01*
X11053500Y28624000D01*
X11055500Y28624000D01*
X11058500Y28625000D01*
X11060500Y28625000D01*
X11063500Y28625000D01*
X11538500Y28625000D01*
X11538500Y28975000D01*
X11063500Y28975000D01*
X11060500Y28975000D01*
X11058500Y28975000D01*
X11055500Y28976000D01*
X11053500Y28976000D01*
X11050500Y28977000D01*
X11048500Y28977000D01*
X11045500Y28978000D01*
X11043500Y28979000D01*
X11040500Y28980000D01*
X11038500Y28982000D01*
X11036500Y28983000D01*
X11034500Y28985000D01*
X11032500Y28986000D01*
X11030500Y28988000D01*
X11028500Y28990000D01*
X11026500Y28992000D01*
X11024500Y28994000D01*
X11023500Y28996000D01*
X11021500Y28998000D01*
X11020500Y29000000D01*
X11018500Y29002000D01*
X11017500Y29005000D01*
X11016500Y29007000D01*
X11015500Y29010000D01*
X11015500Y29012000D01*
X11014500Y29015000D01*
X11014500Y29017000D01*
X11013500Y29020000D01*
X11013500Y29022000D01*
X11013500Y29025000D01*
X11013500Y29125000D01*
X11013500Y29128000D01*
X11013500Y29130000D01*
X11014500Y29133000D01*
X11014500Y29135000D01*
X11015500Y29138000D01*
X11015500Y29140000D01*
X11016500Y29143000D01*
X11017500Y29145000D01*
X11018500Y29148000D01*
X11020500Y29150000D01*
X11021500Y29152000D01*
X11023500Y29154000D01*
X11024500Y29156000D01*
X11026500Y29158000D01*
X11028500Y29160000D01*
X11030500Y29162000D01*
X11032500Y29164000D01*
X11034500Y29165000D01*
X11036500Y29167000D01*
X11038500Y29168000D01*
X11040500Y29170000D01*
X11043500Y29171000D01*
X11045500Y29172000D01*
X11048500Y29173000D01*
X11050500Y29173000D01*
X11053500Y29174000D01*
X11055500Y29174000D01*
X11058500Y29175000D01*
X11060500Y29175000D01*
X11063500Y29175000D01*
X11788500Y29175000D01*
X11788500Y28425000D01*
G37*
X15871500Y29174000D02*
X15873500Y29174000D01*
X15876500Y29173000D01*
X15878500Y29173000D01*
X15881500Y29172000D01*
X15883500Y29171000D01*
X15886500Y29170000D01*
X15888500Y29168000D01*
X15890500Y29167000D01*
X15892500Y29165000D01*
X15894500Y29164000D01*
X15896500Y29162000D01*
X15898500Y29160000D01*
X15900500Y29158000D01*
X15902500Y29156000D01*
X15903500Y29154000D01*
X15905500Y29152000D01*
X15906500Y29150000D01*
X15908500Y29148000D01*
X15909500Y29145000D01*
X15910500Y29143000D01*
X15911500Y29140000D01*
X15911500Y29138000D01*
X15912500Y29135000D01*
X15912500Y29133000D01*
X15913500Y29130000D01*
X15913500Y29128000D01*
X15913500Y29125000D01*
X15913500Y29025000D01*
X15913500Y29022000D01*
X15913500Y29020000D01*
X15912500Y29017000D01*
X15912500Y29015000D01*
X15911500Y29012000D01*
X15911500Y29010000D01*
X15910500Y29007000D01*
X15909500Y29005000D01*
X15908500Y29002000D01*
X15906500Y29000000D01*
X15905500Y28998000D01*
X15903500Y28996000D01*
X15902500Y28994000D01*
X15900500Y28992000D01*
X15898500Y28990000D01*
X15896500Y28988000D01*
X15894500Y28986000D01*
X15892500Y28985000D01*
X15890500Y28983000D01*
X15888500Y28982000D01*
X15886500Y28980000D01*
X15883500Y28979000D01*
X15881500Y28978000D01*
X15878500Y28977000D01*
X15876500Y28977000D01*
X15873500Y28976000D01*
X15871500Y28976000D01*
X15868500Y28975000D01*
X15866500Y28975000D01*
X15863500Y28975000D01*
X15388500Y28975000D01*
X15388500Y28625000D01*
X15863500Y28625000D01*
X15866500Y28625000D01*
X15868500Y28625000D01*
X15871500Y28624000D01*
X15873500Y28624000D01*
X15876500Y28623000D01*
X15878500Y28623000D01*
X15881500Y28622000D01*
X15883500Y28621000D01*
X15886500Y28620000D01*
X15888500Y28618000D01*
X15890500Y28617000D01*
X15892500Y28615000D01*
X15894500Y28614000D01*
X15896500Y28612000D01*
X15898500Y28610000D01*
X15900500Y28608000D01*
X15902500Y28606000D01*
X15903500Y28604000D01*
X15905500Y28602000D01*
X15906500Y28600000D01*
X15908500Y28598000D01*
X15909500Y28595000D01*
X15910500Y28593000D01*
X15911500Y28590000D01*
X15911500Y28588000D01*
X15912500Y28585000D01*
X15912500Y28583000D01*
X15913500Y28580000D01*
X15913500Y28578000D01*
X15913500Y28575000D01*
X15913500Y28475000D01*
X15913500Y28472000D01*
X15913500Y28470000D01*
X15912500Y28467000D01*
X15912500Y28465000D01*
X15911500Y28462000D01*
X15911500Y28460000D01*
X15910500Y28457000D01*
X15909500Y28455000D01*
X15908500Y28452000D01*
X15906500Y28450000D01*
X15905500Y28448000D01*
X15903500Y28446000D01*
X15902500Y28444000D01*
X15900500Y28442000D01*
X15898500Y28440000D01*
X15896500Y28438000D01*
X15894500Y28436000D01*
X15892500Y28435000D01*
X15890500Y28433000D01*
X15888500Y28432000D01*
X15886500Y28430000D01*
X15883500Y28429000D01*
X15881500Y28428000D01*
X15878500Y28427000D01*
X15876500Y28427000D01*
X15873500Y28426000D01*
X15871500Y28426000D01*
X15868500Y28425000D01*
X15866500Y28425000D01*
X15863500Y28425000D01*
X15138500Y28425000D01*
X15138500Y29175000D01*
X15863500Y29175000D01*
X15866500Y29175000D01*
X15868500Y29175000D01*
X15871500Y29174000D01*
G36*
X15871500Y29174000D02*
G01*
X15873500Y29174000D01*
X15876500Y29173000D01*
X15878500Y29173000D01*
X15881500Y29172000D01*
X15883500Y29171000D01*
X15886500Y29170000D01*
X15888500Y29168000D01*
X15890500Y29167000D01*
X15892500Y29165000D01*
X15894500Y29164000D01*
X15896500Y29162000D01*
X15898500Y29160000D01*
X15900500Y29158000D01*
X15902500Y29156000D01*
X15903500Y29154000D01*
X15905500Y29152000D01*
X15906500Y29150000D01*
X15908500Y29148000D01*
X15909500Y29145000D01*
X15910500Y29143000D01*
X15911500Y29140000D01*
X15911500Y29138000D01*
X15912500Y29135000D01*
X15912500Y29133000D01*
X15913500Y29130000D01*
X15913500Y29128000D01*
X15913500Y29125000D01*
X15913500Y29025000D01*
X15913500Y29022000D01*
X15913500Y29020000D01*
X15912500Y29017000D01*
X15912500Y29015000D01*
X15911500Y29012000D01*
X15911500Y29010000D01*
X15910500Y29007000D01*
X15909500Y29005000D01*
X15908500Y29002000D01*
X15906500Y29000000D01*
X15905500Y28998000D01*
X15903500Y28996000D01*
X15902500Y28994000D01*
X15900500Y28992000D01*
X15898500Y28990000D01*
X15896500Y28988000D01*
X15894500Y28986000D01*
X15892500Y28985000D01*
X15890500Y28983000D01*
X15888500Y28982000D01*
X15886500Y28980000D01*
X15883500Y28979000D01*
X15881500Y28978000D01*
X15878500Y28977000D01*
X15876500Y28977000D01*
X15873500Y28976000D01*
X15871500Y28976000D01*
X15868500Y28975000D01*
X15866500Y28975000D01*
X15863500Y28975000D01*
X15388500Y28975000D01*
X15388500Y28625000D01*
X15863500Y28625000D01*
X15866500Y28625000D01*
X15868500Y28625000D01*
X15871500Y28624000D01*
X15873500Y28624000D01*
X15876500Y28623000D01*
X15878500Y28623000D01*
X15881500Y28622000D01*
X15883500Y28621000D01*
X15886500Y28620000D01*
X15888500Y28618000D01*
X15890500Y28617000D01*
X15892500Y28615000D01*
X15894500Y28614000D01*
X15896500Y28612000D01*
X15898500Y28610000D01*
X15900500Y28608000D01*
X15902500Y28606000D01*
X15903500Y28604000D01*
X15905500Y28602000D01*
X15906500Y28600000D01*
X15908500Y28598000D01*
X15909500Y28595000D01*
X15910500Y28593000D01*
X15911500Y28590000D01*
X15911500Y28588000D01*
X15912500Y28585000D01*
X15912500Y28583000D01*
X15913500Y28580000D01*
X15913500Y28578000D01*
X15913500Y28575000D01*
X15913500Y28475000D01*
X15913500Y28472000D01*
X15913500Y28470000D01*
X15912500Y28467000D01*
X15912500Y28465000D01*
X15911500Y28462000D01*
X15911500Y28460000D01*
X15910500Y28457000D01*
X15909500Y28455000D01*
X15908500Y28452000D01*
X15906500Y28450000D01*
X15905500Y28448000D01*
X15903500Y28446000D01*
X15902500Y28444000D01*
X15900500Y28442000D01*
X15898500Y28440000D01*
X15896500Y28438000D01*
X15894500Y28436000D01*
X15892500Y28435000D01*
X15890500Y28433000D01*
X15888500Y28432000D01*
X15886500Y28430000D01*
X15883500Y28429000D01*
X15881500Y28428000D01*
X15878500Y28427000D01*
X15876500Y28427000D01*
X15873500Y28426000D01*
X15871500Y28426000D01*
X15868500Y28425000D01*
X15866500Y28425000D01*
X15863500Y28425000D01*
X15138500Y28425000D01*
X15138500Y29175000D01*
X15863500Y29175000D01*
X15866500Y29175000D01*
X15868500Y29175000D01*
X15871500Y29174000D01*
G37*
%TD*%
D11*
%TO.C,D5*%
X69925000Y63300000D03*
X69925000Y66100000D03*
%TD*%
%TO.C,D6*%
X89125000Y63300000D03*
X89125000Y66100000D03*
%TD*%
D12*
%TO.C,C8*%
X9263500Y30825000D03*
X7713500Y30825000D03*
%TD*%
D13*
%TO.C,R18*%
X30007554Y63290839D03*
X30007554Y61640839D03*
%TD*%
D11*
%TO.C,D8*%
X69925000Y42500000D03*
X69925000Y45300000D03*
%TD*%
%TO.C,D12*%
X89125000Y21700000D03*
X89125000Y24500000D03*
%TD*%
D12*
%TO.C,C6*%
X11513500Y24800000D03*
X9963500Y24800000D03*
%TD*%
D14*
%TO.C,C14*%
X11438500Y16775000D03*
X8488500Y16775000D03*
%TD*%
D15*
%TO.C,U1*%
X15613500Y29550000D03*
D16*
X15213500Y30450000D03*
X14713500Y30450000D03*
X14213500Y30450000D03*
X13713500Y30450000D03*
X13213500Y30450000D03*
X12713500Y30450000D03*
X12213500Y30450000D03*
X11713500Y30450000D03*
D15*
X11313500Y29550000D03*
X11313500Y28050000D03*
D16*
X11713500Y27150000D03*
X12213500Y27150000D03*
X12713500Y27150000D03*
X13213500Y27150000D03*
X13713500Y27150000D03*
X14213500Y27150000D03*
X14713500Y27150000D03*
X15213500Y27150000D03*
D15*
X15613500Y28050000D03*
%TD*%
D11*
%TO.C,D9*%
X89125000Y42500000D03*
X89125000Y45300000D03*
%TD*%
D14*
%TO.C,C15*%
X11438500Y19525000D03*
X8488500Y19525000D03*
%TD*%
%TO.C,C16*%
X11438500Y22275000D03*
X8488500Y22275000D03*
%TD*%
D17*
%TO.C,C9*%
X10938500Y33050000D03*
X12488500Y33050000D03*
%TD*%
%TO.C,C12*%
X17688500Y30825000D03*
X19238500Y30825000D03*
%TD*%
D11*
%TO.C,D3*%
X89150000Y84100000D03*
X89150000Y86900000D03*
%TD*%
D18*
%TO.C,R7*%
X19254000Y25679000D03*
X17604000Y25679000D03*
%TD*%
D19*
%TO.C,R8*%
X14638500Y33050000D03*
X16288500Y33050000D03*
%TD*%
D11*
%TO.C,D11*%
X69925000Y21700000D03*
X69925000Y24500000D03*
%TD*%
D13*
%TO.C,R5*%
X14463500Y18125000D03*
X14463500Y16475000D03*
%TD*%
D11*
%TO.C,D10*%
X50725000Y21700000D03*
X50725000Y24500000D03*
%TD*%
D13*
%TO.C,R19*%
X27852971Y63278918D03*
X27852971Y61628918D03*
%TD*%
D17*
%TO.C,C10*%
X10438500Y35800000D03*
X11988500Y35800000D03*
%TD*%
D20*
%TO.C,L1*%
X16463500Y38700000D03*
X16463500Y35900000D03*
%TD*%
D18*
%TO.C,R4*%
X16038500Y20550000D03*
X14388500Y20550000D03*
%TD*%
D11*
%TO.C,D2*%
X69950000Y84100000D03*
X69950000Y86900000D03*
%TD*%
%TO.C,D7*%
X50725000Y42500000D03*
X50725000Y45300000D03*
%TD*%
%TO.C,D1*%
X50750000Y84100000D03*
X50750000Y86900000D03*
%TD*%
D21*
%TO.C,R6*%
X14463500Y23250000D03*
X14463500Y24900000D03*
%TD*%
D11*
%TO.C,D4*%
X50725000Y63300000D03*
X50725000Y66100000D03*
%TD*%
D17*
%TO.C,C11*%
X10438500Y37550000D03*
X11988500Y37550000D03*
%TD*%
%TO.C,C13*%
X17654000Y22258000D03*
X19204000Y22258000D03*
%TD*%
%TO.C,C7*%
X17654000Y23929000D03*
X19204000Y23929000D03*
%TD*%
M02*
