%TF.GenerationSoftware,KiCad,Pcbnew,10.0.5*%
%TF.CreationDate,2026-08-23T10:24:32+02:00*%
%TF.ProjectId,oled_keyboard,6f6c6564-5f6b-4657-9962-6f6172642e6b,rev?*%
%TF.SameCoordinates,PX4e0ee90PY7c745a0*%
%TF.FileFunction,Legend,Bot*%
%TF.FilePolarity,Positive*%
%FSLAX46Y46*%
G04 Gerber Fmt 4.6, Leading zero omitted, Abs format (unit mm)*
G04 Created by KiCad (PCBNEW 10.0.5) date 2026-08-23 10:24:32*
%MOMM*%
%LPD*%
G01*
G04 APERTURE LIST*
%ADD10C,0.300000*%
%ADD11C,0.150000*%
%ADD12C,0.120000*%
G04 APERTURE END LIST*
D10*
X8877867Y42736252D02*
X8758820Y42974347D01*
X8758820Y42974347D02*
X8639772Y43093394D01*
X8639772Y43093394D02*
X8401677Y43212442D01*
X8401677Y43212442D02*
X7687391Y43212442D01*
X7687391Y43212442D02*
X7449296Y43093394D01*
X7449296Y43093394D02*
X7330248Y42974347D01*
X7330248Y42974347D02*
X7211200Y42736252D01*
X7211200Y42736252D02*
X7211200Y42379109D01*
X7211200Y42379109D02*
X7330248Y42141013D01*
X7330248Y42141013D02*
X7449296Y42021966D01*
X7449296Y42021966D02*
X7687391Y41902918D01*
X7687391Y41902918D02*
X8401677Y41902918D01*
X8401677Y41902918D02*
X8639772Y42021966D01*
X8639772Y42021966D02*
X8758820Y42141013D01*
X8758820Y42141013D02*
X8877867Y42379109D01*
X8877867Y42379109D02*
X8877867Y42736252D01*
X8877867Y40474347D02*
X8758820Y40712442D01*
X8758820Y40712442D02*
X8520724Y40831489D01*
X8520724Y40831489D02*
X6377867Y40831489D01*
X8758820Y38569584D02*
X8877867Y38807680D01*
X8877867Y38807680D02*
X8877867Y39283870D01*
X8877867Y39283870D02*
X8758820Y39521965D01*
X8758820Y39521965D02*
X8520724Y39641013D01*
X8520724Y39641013D02*
X7568343Y39641013D01*
X7568343Y39641013D02*
X7330248Y39521965D01*
X7330248Y39521965D02*
X7211200Y39283870D01*
X7211200Y39283870D02*
X7211200Y38807680D01*
X7211200Y38807680D02*
X7330248Y38569584D01*
X7330248Y38569584D02*
X7568343Y38450537D01*
X7568343Y38450537D02*
X7806439Y38450537D01*
X7806439Y38450537D02*
X8044534Y39641013D01*
X8877867Y36307680D02*
X6377867Y36307680D01*
X8758820Y36307680D02*
X8877867Y36545775D01*
X8877867Y36545775D02*
X8877867Y37021966D01*
X8877867Y37021966D02*
X8758820Y37260061D01*
X8758820Y37260061D02*
X8639772Y37379108D01*
X8639772Y37379108D02*
X8401677Y37498156D01*
X8401677Y37498156D02*
X7687391Y37498156D01*
X7687391Y37498156D02*
X7449296Y37379108D01*
X7449296Y37379108D02*
X7330248Y37260061D01*
X7330248Y37260061D02*
X7211200Y37021966D01*
X7211200Y37021966D02*
X7211200Y36545775D01*
X7211200Y36545775D02*
X7330248Y36307680D01*
X8877867Y33212441D02*
X6377867Y33212441D01*
X7925486Y32974346D02*
X8877867Y32260060D01*
X7211200Y32260060D02*
X8163581Y33212441D01*
X8758820Y30236250D02*
X8877867Y30474346D01*
X8877867Y30474346D02*
X8877867Y30950536D01*
X8877867Y30950536D02*
X8758820Y31188631D01*
X8758820Y31188631D02*
X8520724Y31307679D01*
X8520724Y31307679D02*
X7568343Y31307679D01*
X7568343Y31307679D02*
X7330248Y31188631D01*
X7330248Y31188631D02*
X7211200Y30950536D01*
X7211200Y30950536D02*
X7211200Y30474346D01*
X7211200Y30474346D02*
X7330248Y30236250D01*
X7330248Y30236250D02*
X7568343Y30117203D01*
X7568343Y30117203D02*
X7806439Y30117203D01*
X7806439Y30117203D02*
X8044534Y31307679D01*
X7211200Y29283870D02*
X8877867Y28688632D01*
X7211200Y28093393D02*
X8877867Y28688632D01*
X8877867Y28688632D02*
X9473105Y28926727D01*
X9473105Y28926727D02*
X9592153Y29045774D01*
X9592153Y29045774D02*
X9711200Y29283870D01*
X8877867Y27141012D02*
X6377867Y27141012D01*
X7330248Y27141012D02*
X7211200Y26902917D01*
X7211200Y26902917D02*
X7211200Y26426727D01*
X7211200Y26426727D02*
X7330248Y26188631D01*
X7330248Y26188631D02*
X7449296Y26069584D01*
X7449296Y26069584D02*
X7687391Y25950536D01*
X7687391Y25950536D02*
X8401677Y25950536D01*
X8401677Y25950536D02*
X8639772Y26069584D01*
X8639772Y26069584D02*
X8758820Y26188631D01*
X8758820Y26188631D02*
X8877867Y26426727D01*
X8877867Y26426727D02*
X8877867Y26902917D01*
X8877867Y26902917D02*
X8758820Y27141012D01*
X8877867Y24521965D02*
X8758820Y24760060D01*
X8758820Y24760060D02*
X8639772Y24879107D01*
X8639772Y24879107D02*
X8401677Y24998155D01*
X8401677Y24998155D02*
X7687391Y24998155D01*
X7687391Y24998155D02*
X7449296Y24879107D01*
X7449296Y24879107D02*
X7330248Y24760060D01*
X7330248Y24760060D02*
X7211200Y24521965D01*
X7211200Y24521965D02*
X7211200Y24164822D01*
X7211200Y24164822D02*
X7330248Y23926726D01*
X7330248Y23926726D02*
X7449296Y23807679D01*
X7449296Y23807679D02*
X7687391Y23688631D01*
X7687391Y23688631D02*
X8401677Y23688631D01*
X8401677Y23688631D02*
X8639772Y23807679D01*
X8639772Y23807679D02*
X8758820Y23926726D01*
X8758820Y23926726D02*
X8877867Y24164822D01*
X8877867Y24164822D02*
X8877867Y24521965D01*
X8877867Y21545774D02*
X7568343Y21545774D01*
X7568343Y21545774D02*
X7330248Y21664821D01*
X7330248Y21664821D02*
X7211200Y21902917D01*
X7211200Y21902917D02*
X7211200Y22379107D01*
X7211200Y22379107D02*
X7330248Y22617202D01*
X8758820Y21545774D02*
X8877867Y21783869D01*
X8877867Y21783869D02*
X8877867Y22379107D01*
X8877867Y22379107D02*
X8758820Y22617202D01*
X8758820Y22617202D02*
X8520724Y22736250D01*
X8520724Y22736250D02*
X8282629Y22736250D01*
X8282629Y22736250D02*
X8044534Y22617202D01*
X8044534Y22617202D02*
X7925486Y22379107D01*
X7925486Y22379107D02*
X7925486Y21783869D01*
X7925486Y21783869D02*
X7806439Y21545774D01*
X8877867Y20355297D02*
X7211200Y20355297D01*
X7687391Y20355297D02*
X7449296Y20236250D01*
X7449296Y20236250D02*
X7330248Y20117202D01*
X7330248Y20117202D02*
X7211200Y19879107D01*
X7211200Y19879107D02*
X7211200Y19641012D01*
X8877867Y17736250D02*
X6377867Y17736250D01*
X8758820Y17736250D02*
X8877867Y17974345D01*
X8877867Y17974345D02*
X8877867Y18450536D01*
X8877867Y18450536D02*
X8758820Y18688631D01*
X8758820Y18688631D02*
X8639772Y18807678D01*
X8639772Y18807678D02*
X8401677Y18926726D01*
X8401677Y18926726D02*
X7687391Y18926726D01*
X7687391Y18926726D02*
X7449296Y18807678D01*
X7449296Y18807678D02*
X7330248Y18688631D01*
X7330248Y18688631D02*
X7211200Y18450536D01*
X7211200Y18450536D02*
X7211200Y17974345D01*
X7211200Y17974345D02*
X7330248Y17736250D01*
X11236060Y43331490D02*
X12902727Y42736252D01*
X12902727Y42736252D02*
X11236060Y42141013D01*
X10402727Y39998156D02*
X10402727Y41188632D01*
X10402727Y41188632D02*
X11593203Y41307680D01*
X11593203Y41307680D02*
X11474156Y41188632D01*
X11474156Y41188632D02*
X11355108Y40950537D01*
X11355108Y40950537D02*
X11355108Y40355299D01*
X11355108Y40355299D02*
X11474156Y40117204D01*
X11474156Y40117204D02*
X11593203Y39998156D01*
X11593203Y39998156D02*
X11831299Y39879109D01*
X11831299Y39879109D02*
X12426537Y39879109D01*
X12426537Y39879109D02*
X12664632Y39998156D01*
X12664632Y39998156D02*
X12783680Y40117204D01*
X12783680Y40117204D02*
X12902727Y40355299D01*
X12902727Y40355299D02*
X12902727Y40950537D01*
X12902727Y40950537D02*
X12783680Y41188632D01*
X12783680Y41188632D02*
X12664632Y41307680D01*
X12664632Y38807680D02*
X12783680Y38688633D01*
X12783680Y38688633D02*
X12902727Y38807680D01*
X12902727Y38807680D02*
X12783680Y38926728D01*
X12783680Y38926728D02*
X12664632Y38807680D01*
X12664632Y38807680D02*
X12902727Y38807680D01*
X10402727Y37141014D02*
X10402727Y36902919D01*
X10402727Y36902919D02*
X10521775Y36664823D01*
X10521775Y36664823D02*
X10640822Y36545776D01*
X10640822Y36545776D02*
X10878918Y36426728D01*
X10878918Y36426728D02*
X11355108Y36307681D01*
X11355108Y36307681D02*
X11950346Y36307681D01*
X11950346Y36307681D02*
X12426537Y36426728D01*
X12426537Y36426728D02*
X12664632Y36545776D01*
X12664632Y36545776D02*
X12783680Y36664823D01*
X12783680Y36664823D02*
X12902727Y36902919D01*
X12902727Y36902919D02*
X12902727Y37141014D01*
X12902727Y37141014D02*
X12783680Y37379109D01*
X12783680Y37379109D02*
X12664632Y37498157D01*
X12664632Y37498157D02*
X12426537Y37617204D01*
X12426537Y37617204D02*
X11950346Y37736252D01*
X11950346Y37736252D02*
X11355108Y37736252D01*
X11355108Y37736252D02*
X10878918Y37617204D01*
X10878918Y37617204D02*
X10640822Y37498157D01*
X10640822Y37498157D02*
X10521775Y37379109D01*
X10521775Y37379109D02*
X10402727Y37141014D01*
X16927587Y43093394D02*
X14427587Y43093394D01*
X15379968Y43093394D02*
X15260920Y42855299D01*
X15260920Y42855299D02*
X15260920Y42379109D01*
X15260920Y42379109D02*
X15379968Y42141013D01*
X15379968Y42141013D02*
X15499016Y42021966D01*
X15499016Y42021966D02*
X15737111Y41902918D01*
X15737111Y41902918D02*
X16451397Y41902918D01*
X16451397Y41902918D02*
X16689492Y42021966D01*
X16689492Y42021966D02*
X16808540Y42141013D01*
X16808540Y42141013D02*
X16927587Y42379109D01*
X16927587Y42379109D02*
X16927587Y42855299D01*
X16927587Y42855299D02*
X16808540Y43093394D01*
X15260920Y41069585D02*
X16927587Y40474347D01*
X15260920Y39879108D02*
X16927587Y40474347D01*
X16927587Y40474347D02*
X17522825Y40712442D01*
X17522825Y40712442D02*
X17641873Y40831489D01*
X17641873Y40831489D02*
X17760920Y41069585D01*
X14427587Y37260061D02*
X16927587Y35593394D01*
X14427587Y35593394D02*
X16927587Y37260061D01*
X16927587Y34641013D02*
X15260920Y34641013D01*
X14427587Y34641013D02*
X14546635Y34760061D01*
X14546635Y34760061D02*
X14665682Y34641013D01*
X14665682Y34641013D02*
X14546635Y34521966D01*
X14546635Y34521966D02*
X14427587Y34641013D01*
X14427587Y34641013D02*
X14665682Y34641013D01*
X15260920Y33450537D02*
X16927587Y33450537D01*
X15499016Y33450537D02*
X15379968Y33331490D01*
X15379968Y33331490D02*
X15260920Y33093395D01*
X15260920Y33093395D02*
X15260920Y32736252D01*
X15260920Y32736252D02*
X15379968Y32498156D01*
X15379968Y32498156D02*
X15618063Y32379109D01*
X15618063Y32379109D02*
X16927587Y32379109D01*
X18690542Y43212442D02*
X18571495Y43093394D01*
X18571495Y43093394D02*
X18452447Y42855299D01*
X18452447Y42855299D02*
X18452447Y42260061D01*
X18452447Y42260061D02*
X18571495Y42021966D01*
X18571495Y42021966D02*
X18690542Y41902918D01*
X18690542Y41902918D02*
X18928638Y41783871D01*
X18928638Y41783871D02*
X19166733Y41783871D01*
X19166733Y41783871D02*
X19523876Y41902918D01*
X19523876Y41902918D02*
X20952447Y43331490D01*
X20952447Y43331490D02*
X20952447Y41783871D01*
X18452447Y40236252D02*
X18452447Y39998157D01*
X18452447Y39998157D02*
X18571495Y39760061D01*
X18571495Y39760061D02*
X18690542Y39641014D01*
X18690542Y39641014D02*
X18928638Y39521966D01*
X18928638Y39521966D02*
X19404828Y39402919D01*
X19404828Y39402919D02*
X20000066Y39402919D01*
X20000066Y39402919D02*
X20476257Y39521966D01*
X20476257Y39521966D02*
X20714352Y39641014D01*
X20714352Y39641014D02*
X20833400Y39760061D01*
X20833400Y39760061D02*
X20952447Y39998157D01*
X20952447Y39998157D02*
X20952447Y40236252D01*
X20952447Y40236252D02*
X20833400Y40474347D01*
X20833400Y40474347D02*
X20714352Y40593395D01*
X20714352Y40593395D02*
X20476257Y40712442D01*
X20476257Y40712442D02*
X20000066Y40831490D01*
X20000066Y40831490D02*
X19404828Y40831490D01*
X19404828Y40831490D02*
X18928638Y40712442D01*
X18928638Y40712442D02*
X18690542Y40593395D01*
X18690542Y40593395D02*
X18571495Y40474347D01*
X18571495Y40474347D02*
X18452447Y40236252D01*
X18690542Y38450538D02*
X18571495Y38331490D01*
X18571495Y38331490D02*
X18452447Y38093395D01*
X18452447Y38093395D02*
X18452447Y37498157D01*
X18452447Y37498157D02*
X18571495Y37260062D01*
X18571495Y37260062D02*
X18690542Y37141014D01*
X18690542Y37141014D02*
X18928638Y37021967D01*
X18928638Y37021967D02*
X19166733Y37021967D01*
X19166733Y37021967D02*
X19523876Y37141014D01*
X19523876Y37141014D02*
X20952447Y38569586D01*
X20952447Y38569586D02*
X20952447Y37021967D01*
X18452447Y34879110D02*
X18452447Y35355300D01*
X18452447Y35355300D02*
X18571495Y35593396D01*
X18571495Y35593396D02*
X18690542Y35712443D01*
X18690542Y35712443D02*
X19047685Y35950538D01*
X19047685Y35950538D02*
X19523876Y36069586D01*
X19523876Y36069586D02*
X20476257Y36069586D01*
X20476257Y36069586D02*
X20714352Y35950538D01*
X20714352Y35950538D02*
X20833400Y35831491D01*
X20833400Y35831491D02*
X20952447Y35593396D01*
X20952447Y35593396D02*
X20952447Y35117205D01*
X20952447Y35117205D02*
X20833400Y34879110D01*
X20833400Y34879110D02*
X20714352Y34760062D01*
X20714352Y34760062D02*
X20476257Y34641015D01*
X20476257Y34641015D02*
X19881019Y34641015D01*
X19881019Y34641015D02*
X19642923Y34760062D01*
X19642923Y34760062D02*
X19523876Y34879110D01*
X19523876Y34879110D02*
X19404828Y35117205D01*
X19404828Y35117205D02*
X19404828Y35593396D01*
X19404828Y35593396D02*
X19523876Y35831491D01*
X19523876Y35831491D02*
X19642923Y35950538D01*
X19642923Y35950538D02*
X19881019Y36069586D01*
X20714352Y33569586D02*
X20833400Y33450539D01*
X20833400Y33450539D02*
X20952447Y33569586D01*
X20952447Y33569586D02*
X20833400Y33688634D01*
X20833400Y33688634D02*
X20714352Y33569586D01*
X20714352Y33569586D02*
X20952447Y33569586D01*
X19523876Y32021968D02*
X19404828Y32260063D01*
X19404828Y32260063D02*
X19285780Y32379110D01*
X19285780Y32379110D02*
X19047685Y32498158D01*
X19047685Y32498158D02*
X18928638Y32498158D01*
X18928638Y32498158D02*
X18690542Y32379110D01*
X18690542Y32379110D02*
X18571495Y32260063D01*
X18571495Y32260063D02*
X18452447Y32021968D01*
X18452447Y32021968D02*
X18452447Y31545777D01*
X18452447Y31545777D02*
X18571495Y31307682D01*
X18571495Y31307682D02*
X18690542Y31188634D01*
X18690542Y31188634D02*
X18928638Y31069587D01*
X18928638Y31069587D02*
X19047685Y31069587D01*
X19047685Y31069587D02*
X19285780Y31188634D01*
X19285780Y31188634D02*
X19404828Y31307682D01*
X19404828Y31307682D02*
X19523876Y31545777D01*
X19523876Y31545777D02*
X19523876Y32021968D01*
X19523876Y32021968D02*
X19642923Y32260063D01*
X19642923Y32260063D02*
X19761971Y32379110D01*
X19761971Y32379110D02*
X20000066Y32498158D01*
X20000066Y32498158D02*
X20476257Y32498158D01*
X20476257Y32498158D02*
X20714352Y32379110D01*
X20714352Y32379110D02*
X20833400Y32260063D01*
X20833400Y32260063D02*
X20952447Y32021968D01*
X20952447Y32021968D02*
X20952447Y31545777D01*
X20952447Y31545777D02*
X20833400Y31307682D01*
X20833400Y31307682D02*
X20714352Y31188634D01*
X20714352Y31188634D02*
X20476257Y31069587D01*
X20476257Y31069587D02*
X20000066Y31069587D01*
X20000066Y31069587D02*
X19761971Y31188634D01*
X19761971Y31188634D02*
X19642923Y31307682D01*
X19642923Y31307682D02*
X19523876Y31545777D01*
X20714352Y29998158D02*
X20833400Y29879111D01*
X20833400Y29879111D02*
X20952447Y29998158D01*
X20952447Y29998158D02*
X20833400Y30117206D01*
X20833400Y30117206D02*
X20714352Y29998158D01*
X20714352Y29998158D02*
X20952447Y29998158D01*
X18690542Y28926730D02*
X18571495Y28807682D01*
X18571495Y28807682D02*
X18452447Y28569587D01*
X18452447Y28569587D02*
X18452447Y27974349D01*
X18452447Y27974349D02*
X18571495Y27736254D01*
X18571495Y27736254D02*
X18690542Y27617206D01*
X18690542Y27617206D02*
X18928638Y27498159D01*
X18928638Y27498159D02*
X19166733Y27498159D01*
X19166733Y27498159D02*
X19523876Y27617206D01*
X19523876Y27617206D02*
X20952447Y29045778D01*
X20952447Y29045778D02*
X20952447Y27498159D01*
X18452447Y26664826D02*
X18452447Y25117207D01*
X18452447Y25117207D02*
X19404828Y25950540D01*
X19404828Y25950540D02*
X19404828Y25593397D01*
X19404828Y25593397D02*
X19523876Y25355302D01*
X19523876Y25355302D02*
X19642923Y25236254D01*
X19642923Y25236254D02*
X19881019Y25117207D01*
X19881019Y25117207D02*
X20476257Y25117207D01*
X20476257Y25117207D02*
X20714352Y25236254D01*
X20714352Y25236254D02*
X20833400Y25355302D01*
X20833400Y25355302D02*
X20952447Y25593397D01*
X20952447Y25593397D02*
X20952447Y26307683D01*
X20952447Y26307683D02*
X20833400Y26545778D01*
X20833400Y26545778D02*
X20714352Y26664826D01*
D11*
X41997080Y37497599D02*
X42044700Y37545218D01*
X42044700Y37545218D02*
X42092319Y37688075D01*
X42092319Y37688075D02*
X42092319Y37783313D01*
X42092319Y37783313D02*
X42044700Y37926170D01*
X42044700Y37926170D02*
X41949461Y38021408D01*
X41949461Y38021408D02*
X41854223Y38069027D01*
X41854223Y38069027D02*
X41663747Y38116646D01*
X41663747Y38116646D02*
X41520890Y38116646D01*
X41520890Y38116646D02*
X41330414Y38069027D01*
X41330414Y38069027D02*
X41235176Y38021408D01*
X41235176Y38021408D02*
X41139938Y37926170D01*
X41139938Y37926170D02*
X41092319Y37783313D01*
X41092319Y37783313D02*
X41092319Y37688075D01*
X41092319Y37688075D02*
X41139938Y37545218D01*
X41139938Y37545218D02*
X41187557Y37497599D01*
X41187557Y37116646D02*
X41139938Y37069027D01*
X41139938Y37069027D02*
X41092319Y36973789D01*
X41092319Y36973789D02*
X41092319Y36735694D01*
X41092319Y36735694D02*
X41139938Y36640456D01*
X41139938Y36640456D02*
X41187557Y36592837D01*
X41187557Y36592837D02*
X41282795Y36545218D01*
X41282795Y36545218D02*
X41378033Y36545218D01*
X41378033Y36545218D02*
X41520890Y36592837D01*
X41520890Y36592837D02*
X42092319Y37164265D01*
X42092319Y37164265D02*
X42092319Y36545218D01*
X41092319Y35926170D02*
X41092319Y35830932D01*
X41092319Y35830932D02*
X41139938Y35735694D01*
X41139938Y35735694D02*
X41187557Y35688075D01*
X41187557Y35688075D02*
X41282795Y35640456D01*
X41282795Y35640456D02*
X41473271Y35592837D01*
X41473271Y35592837D02*
X41711366Y35592837D01*
X41711366Y35592837D02*
X41901842Y35640456D01*
X41901842Y35640456D02*
X41997080Y35688075D01*
X41997080Y35688075D02*
X42044700Y35735694D01*
X42044700Y35735694D02*
X42092319Y35830932D01*
X42092319Y35830932D02*
X42092319Y35926170D01*
X42092319Y35926170D02*
X42044700Y36021408D01*
X42044700Y36021408D02*
X41997080Y36069027D01*
X41997080Y36069027D02*
X41901842Y36116646D01*
X41901842Y36116646D02*
X41711366Y36164265D01*
X41711366Y36164265D02*
X41473271Y36164265D01*
X41473271Y36164265D02*
X41282795Y36116646D01*
X41282795Y36116646D02*
X41187557Y36069027D01*
X41187557Y36069027D02*
X41139938Y36021408D01*
X41139938Y36021408D02*
X41092319Y35926170D01*
X91687327Y37497599D02*
X91734947Y37545218D01*
X91734947Y37545218D02*
X91782566Y37688075D01*
X91782566Y37688075D02*
X91782566Y37783313D01*
X91782566Y37783313D02*
X91734947Y37926170D01*
X91734947Y37926170D02*
X91639708Y38021408D01*
X91639708Y38021408D02*
X91544470Y38069027D01*
X91544470Y38069027D02*
X91353994Y38116646D01*
X91353994Y38116646D02*
X91211137Y38116646D01*
X91211137Y38116646D02*
X91020661Y38069027D01*
X91020661Y38069027D02*
X90925423Y38021408D01*
X90925423Y38021408D02*
X90830185Y37926170D01*
X90830185Y37926170D02*
X90782566Y37783313D01*
X90782566Y37783313D02*
X90782566Y37688075D01*
X90782566Y37688075D02*
X90830185Y37545218D01*
X90830185Y37545218D02*
X90877804Y37497599D01*
X90782566Y36592837D02*
X90782566Y37069027D01*
X90782566Y37069027D02*
X91258756Y37116646D01*
X91258756Y37116646D02*
X91211137Y37069027D01*
X91211137Y37069027D02*
X91163518Y36973789D01*
X91163518Y36973789D02*
X91163518Y36735694D01*
X91163518Y36735694D02*
X91211137Y36640456D01*
X91211137Y36640456D02*
X91258756Y36592837D01*
X91258756Y36592837D02*
X91353994Y36545218D01*
X91353994Y36545218D02*
X91592089Y36545218D01*
X91592089Y36545218D02*
X91687327Y36592837D01*
X91687327Y36592837D02*
X91734947Y36640456D01*
X91734947Y36640456D02*
X91782566Y36735694D01*
X91782566Y36735694D02*
X91782566Y36973789D01*
X91782566Y36973789D02*
X91734947Y37069027D01*
X91734947Y37069027D02*
X91687327Y37116646D01*
X91115899Y35688075D02*
X91782566Y35688075D01*
X90734947Y35926170D02*
X91449232Y36164265D01*
X91449232Y36164265D02*
X91449232Y35545218D01*
X50180319Y59514858D02*
X49704128Y59848191D01*
X50180319Y60086286D02*
X49180319Y60086286D01*
X49180319Y60086286D02*
X49180319Y59705334D01*
X49180319Y59705334D02*
X49227938Y59610096D01*
X49227938Y59610096D02*
X49275557Y59562477D01*
X49275557Y59562477D02*
X49370795Y59514858D01*
X49370795Y59514858D02*
X49513652Y59514858D01*
X49513652Y59514858D02*
X49608890Y59562477D01*
X49608890Y59562477D02*
X49656509Y59610096D01*
X49656509Y59610096D02*
X49704128Y59705334D01*
X49704128Y59705334D02*
X49704128Y60086286D01*
X49275557Y59133905D02*
X49227938Y59086286D01*
X49227938Y59086286D02*
X49180319Y58991048D01*
X49180319Y58991048D02*
X49180319Y58752953D01*
X49180319Y58752953D02*
X49227938Y58657715D01*
X49227938Y58657715D02*
X49275557Y58610096D01*
X49275557Y58610096D02*
X49370795Y58562477D01*
X49370795Y58562477D02*
X49466033Y58562477D01*
X49466033Y58562477D02*
X49608890Y58610096D01*
X49608890Y58610096D02*
X50180319Y59181524D01*
X50180319Y59181524D02*
X50180319Y58562477D01*
X49180319Y58229143D02*
X49180319Y57610096D01*
X49180319Y57610096D02*
X49561271Y57943429D01*
X49561271Y57943429D02*
X49561271Y57800572D01*
X49561271Y57800572D02*
X49608890Y57705334D01*
X49608890Y57705334D02*
X49656509Y57657715D01*
X49656509Y57657715D02*
X49751747Y57610096D01*
X49751747Y57610096D02*
X49989842Y57610096D01*
X49989842Y57610096D02*
X50085080Y57657715D01*
X50085080Y57657715D02*
X50132700Y57705334D01*
X50132700Y57705334D02*
X50180319Y57800572D01*
X50180319Y57800572D02*
X50180319Y58086286D01*
X50180319Y58086286D02*
X50132700Y58181524D01*
X50132700Y58181524D02*
X50085080Y58229143D01*
X65067580Y81612858D02*
X65115200Y81660477D01*
X65115200Y81660477D02*
X65162819Y81803334D01*
X65162819Y81803334D02*
X65162819Y81898572D01*
X65162819Y81898572D02*
X65115200Y82041429D01*
X65115200Y82041429D02*
X65019961Y82136667D01*
X65019961Y82136667D02*
X64924723Y82184286D01*
X64924723Y82184286D02*
X64734247Y82231905D01*
X64734247Y82231905D02*
X64591390Y82231905D01*
X64591390Y82231905D02*
X64400914Y82184286D01*
X64400914Y82184286D02*
X64305676Y82136667D01*
X64305676Y82136667D02*
X64210438Y82041429D01*
X64210438Y82041429D02*
X64162819Y81898572D01*
X64162819Y81898572D02*
X64162819Y81803334D01*
X64162819Y81803334D02*
X64210438Y81660477D01*
X64210438Y81660477D02*
X64258057Y81612858D01*
X64162819Y80755715D02*
X64162819Y80946191D01*
X64162819Y80946191D02*
X64210438Y81041429D01*
X64210438Y81041429D02*
X64258057Y81089048D01*
X64258057Y81089048D02*
X64400914Y81184286D01*
X64400914Y81184286D02*
X64591390Y81231905D01*
X64591390Y81231905D02*
X64972342Y81231905D01*
X64972342Y81231905D02*
X65067580Y81184286D01*
X65067580Y81184286D02*
X65115200Y81136667D01*
X65115200Y81136667D02*
X65162819Y81041429D01*
X65162819Y81041429D02*
X65162819Y80850953D01*
X65162819Y80850953D02*
X65115200Y80755715D01*
X65115200Y80755715D02*
X65067580Y80708096D01*
X65067580Y80708096D02*
X64972342Y80660477D01*
X64972342Y80660477D02*
X64734247Y80660477D01*
X64734247Y80660477D02*
X64639009Y80708096D01*
X64639009Y80708096D02*
X64591390Y80755715D01*
X64591390Y80755715D02*
X64543771Y80850953D01*
X64543771Y80850953D02*
X64543771Y81041429D01*
X64543771Y81041429D02*
X64591390Y81136667D01*
X64591390Y81136667D02*
X64639009Y81184286D01*
X64639009Y81184286D02*
X64734247Y81231905D01*
X64496152Y79803334D02*
X65162819Y79803334D01*
X64115200Y80041429D02*
X64829485Y80279524D01*
X64829485Y80279524D02*
X64829485Y79660477D01*
X85133580Y81358858D02*
X85181200Y81406477D01*
X85181200Y81406477D02*
X85228819Y81549334D01*
X85228819Y81549334D02*
X85228819Y81644572D01*
X85228819Y81644572D02*
X85181200Y81787429D01*
X85181200Y81787429D02*
X85085961Y81882667D01*
X85085961Y81882667D02*
X84990723Y81930286D01*
X84990723Y81930286D02*
X84800247Y81977905D01*
X84800247Y81977905D02*
X84657390Y81977905D01*
X84657390Y81977905D02*
X84466914Y81930286D01*
X84466914Y81930286D02*
X84371676Y81882667D01*
X84371676Y81882667D02*
X84276438Y81787429D01*
X84276438Y81787429D02*
X84228819Y81644572D01*
X84228819Y81644572D02*
X84228819Y81549334D01*
X84228819Y81549334D02*
X84276438Y81406477D01*
X84276438Y81406477D02*
X84324057Y81358858D01*
X84228819Y81025524D02*
X84228819Y80358858D01*
X84228819Y80358858D02*
X85228819Y80787429D01*
X85228819Y79454096D02*
X85228819Y80025524D01*
X85228819Y79739810D02*
X84228819Y79739810D01*
X84228819Y79739810D02*
X84371676Y79835048D01*
X84371676Y79835048D02*
X84466914Y79930286D01*
X84466914Y79930286D02*
X84514533Y80025524D01*
X68713359Y81475567D02*
X68237168Y81808900D01*
X68713359Y82046995D02*
X67713359Y82046995D01*
X67713359Y82046995D02*
X67713359Y81666043D01*
X67713359Y81666043D02*
X67760978Y81570805D01*
X67760978Y81570805D02*
X67808597Y81523186D01*
X67808597Y81523186D02*
X67903835Y81475567D01*
X67903835Y81475567D02*
X68046692Y81475567D01*
X68046692Y81475567D02*
X68141930Y81523186D01*
X68141930Y81523186D02*
X68189549Y81570805D01*
X68189549Y81570805D02*
X68237168Y81666043D01*
X68237168Y81666043D02*
X68237168Y82046995D01*
X68713359Y80523186D02*
X68713359Y81094614D01*
X68713359Y80808900D02*
X67713359Y80808900D01*
X67713359Y80808900D02*
X67856216Y80904138D01*
X67856216Y80904138D02*
X67951454Y80999376D01*
X67951454Y80999376D02*
X67999073Y81094614D01*
X67713359Y79904138D02*
X67713359Y79808900D01*
X67713359Y79808900D02*
X67760978Y79713662D01*
X67760978Y79713662D02*
X67808597Y79666043D01*
X67808597Y79666043D02*
X67903835Y79618424D01*
X67903835Y79618424D02*
X68094311Y79570805D01*
X68094311Y79570805D02*
X68332406Y79570805D01*
X68332406Y79570805D02*
X68522882Y79618424D01*
X68522882Y79618424D02*
X68618120Y79666043D01*
X68618120Y79666043D02*
X68665740Y79713662D01*
X68665740Y79713662D02*
X68713359Y79808900D01*
X68713359Y79808900D02*
X68713359Y79904138D01*
X68713359Y79904138D02*
X68665740Y79999376D01*
X68665740Y79999376D02*
X68618120Y80046995D01*
X68618120Y80046995D02*
X68522882Y80094614D01*
X68522882Y80094614D02*
X68332406Y80142233D01*
X68332406Y80142233D02*
X68094311Y80142233D01*
X68094311Y80142233D02*
X67903835Y80094614D01*
X67903835Y80094614D02*
X67808597Y80046995D01*
X67808597Y80046995D02*
X67760978Y79999376D01*
X67760978Y79999376D02*
X67713359Y79904138D01*
X83522080Y81475567D02*
X83569700Y81523186D01*
X83569700Y81523186D02*
X83617319Y81666043D01*
X83617319Y81666043D02*
X83617319Y81761281D01*
X83617319Y81761281D02*
X83569700Y81904138D01*
X83569700Y81904138D02*
X83474461Y81999376D01*
X83474461Y81999376D02*
X83379223Y82046995D01*
X83379223Y82046995D02*
X83188747Y82094614D01*
X83188747Y82094614D02*
X83045890Y82094614D01*
X83045890Y82094614D02*
X82855414Y82046995D01*
X82855414Y82046995D02*
X82760176Y81999376D01*
X82760176Y81999376D02*
X82664938Y81904138D01*
X82664938Y81904138D02*
X82617319Y81761281D01*
X82617319Y81761281D02*
X82617319Y81666043D01*
X82617319Y81666043D02*
X82664938Y81523186D01*
X82664938Y81523186D02*
X82712557Y81475567D01*
X82950652Y80618424D02*
X83617319Y80618424D01*
X82569700Y80856519D02*
X83283985Y81094614D01*
X83283985Y81094614D02*
X83283985Y80475567D01*
X83045890Y79951757D02*
X82998271Y80046995D01*
X82998271Y80046995D02*
X82950652Y80094614D01*
X82950652Y80094614D02*
X82855414Y80142233D01*
X82855414Y80142233D02*
X82807795Y80142233D01*
X82807795Y80142233D02*
X82712557Y80094614D01*
X82712557Y80094614D02*
X82664938Y80046995D01*
X82664938Y80046995D02*
X82617319Y79951757D01*
X82617319Y79951757D02*
X82617319Y79761281D01*
X82617319Y79761281D02*
X82664938Y79666043D01*
X82664938Y79666043D02*
X82712557Y79618424D01*
X82712557Y79618424D02*
X82807795Y79570805D01*
X82807795Y79570805D02*
X82855414Y79570805D01*
X82855414Y79570805D02*
X82950652Y79618424D01*
X82950652Y79618424D02*
X82998271Y79666043D01*
X82998271Y79666043D02*
X83045890Y79761281D01*
X83045890Y79761281D02*
X83045890Y79951757D01*
X83045890Y79951757D02*
X83093509Y80046995D01*
X83093509Y80046995D02*
X83141128Y80094614D01*
X83141128Y80094614D02*
X83236366Y80142233D01*
X83236366Y80142233D02*
X83426842Y80142233D01*
X83426842Y80142233D02*
X83522080Y80094614D01*
X83522080Y80094614D02*
X83569700Y80046995D01*
X83569700Y80046995D02*
X83617319Y79951757D01*
X83617319Y79951757D02*
X83617319Y79761281D01*
X83617319Y79761281D02*
X83569700Y79666043D01*
X83569700Y79666043D02*
X83522080Y79618424D01*
X83522080Y79618424D02*
X83426842Y79570805D01*
X83426842Y79570805D02*
X83236366Y79570805D01*
X83236366Y79570805D02*
X83141128Y79618424D01*
X83141128Y79618424D02*
X83093509Y79666043D01*
X83093509Y79666043D02*
X83045890Y79761281D01*
X73112336Y15497615D02*
X73159956Y15545234D01*
X73159956Y15545234D02*
X73207575Y15688091D01*
X73207575Y15688091D02*
X73207575Y15783329D01*
X73207575Y15783329D02*
X73159956Y15926186D01*
X73159956Y15926186D02*
X73064717Y16021424D01*
X73064717Y16021424D02*
X72969479Y16069043D01*
X72969479Y16069043D02*
X72779003Y16116662D01*
X72779003Y16116662D02*
X72636146Y16116662D01*
X72636146Y16116662D02*
X72445670Y16069043D01*
X72445670Y16069043D02*
X72350432Y16021424D01*
X72350432Y16021424D02*
X72255194Y15926186D01*
X72255194Y15926186D02*
X72207575Y15783329D01*
X72207575Y15783329D02*
X72207575Y15688091D01*
X72207575Y15688091D02*
X72255194Y15545234D01*
X72255194Y15545234D02*
X72302813Y15497615D01*
X72207575Y15164281D02*
X72207575Y14545234D01*
X72207575Y14545234D02*
X72588527Y14878567D01*
X72588527Y14878567D02*
X72588527Y14735710D01*
X72588527Y14735710D02*
X72636146Y14640472D01*
X72636146Y14640472D02*
X72683765Y14592853D01*
X72683765Y14592853D02*
X72779003Y14545234D01*
X72779003Y14545234D02*
X73017098Y14545234D01*
X73017098Y14545234D02*
X73112336Y14592853D01*
X73112336Y14592853D02*
X73159956Y14640472D01*
X73159956Y14640472D02*
X73207575Y14735710D01*
X73207575Y14735710D02*
X73207575Y15021424D01*
X73207575Y15021424D02*
X73159956Y15116662D01*
X73159956Y15116662D02*
X73112336Y15164281D01*
X72207575Y13640472D02*
X72207575Y14116662D01*
X72207575Y14116662D02*
X72683765Y14164281D01*
X72683765Y14164281D02*
X72636146Y14116662D01*
X72636146Y14116662D02*
X72588527Y14021424D01*
X72588527Y14021424D02*
X72588527Y13783329D01*
X72588527Y13783329D02*
X72636146Y13688091D01*
X72636146Y13688091D02*
X72683765Y13640472D01*
X72683765Y13640472D02*
X72779003Y13592853D01*
X72779003Y13592853D02*
X73017098Y13592853D01*
X73017098Y13592853D02*
X73112336Y13640472D01*
X73112336Y13640472D02*
X73159956Y13688091D01*
X73159956Y13688091D02*
X73207575Y13783329D01*
X73207575Y13783329D02*
X73207575Y14021424D01*
X73207575Y14021424D02*
X73159956Y14116662D01*
X73159956Y14116662D02*
X73112336Y14164281D01*
X68713359Y37475599D02*
X68237168Y37808932D01*
X68713359Y38047027D02*
X67713359Y38047027D01*
X67713359Y38047027D02*
X67713359Y37666075D01*
X67713359Y37666075D02*
X67760978Y37570837D01*
X67760978Y37570837D02*
X67808597Y37523218D01*
X67808597Y37523218D02*
X67903835Y37475599D01*
X67903835Y37475599D02*
X68046692Y37475599D01*
X68046692Y37475599D02*
X68141930Y37523218D01*
X68141930Y37523218D02*
X68189549Y37570837D01*
X68189549Y37570837D02*
X68237168Y37666075D01*
X68237168Y37666075D02*
X68237168Y38047027D01*
X68713359Y36523218D02*
X68713359Y37094646D01*
X68713359Y36808932D02*
X67713359Y36808932D01*
X67713359Y36808932D02*
X67856216Y36904170D01*
X67856216Y36904170D02*
X67951454Y36999408D01*
X67951454Y36999408D02*
X67999073Y37094646D01*
X67808597Y36142265D02*
X67760978Y36094646D01*
X67760978Y36094646D02*
X67713359Y35999408D01*
X67713359Y35999408D02*
X67713359Y35761313D01*
X67713359Y35761313D02*
X67760978Y35666075D01*
X67760978Y35666075D02*
X67808597Y35618456D01*
X67808597Y35618456D02*
X67903835Y35570837D01*
X67903835Y35570837D02*
X67999073Y35570837D01*
X67999073Y35570837D02*
X68141930Y35618456D01*
X68141930Y35618456D02*
X68713359Y36189884D01*
X68713359Y36189884D02*
X68713359Y35570837D01*
X70242819Y59514858D02*
X69766628Y59848191D01*
X70242819Y60086286D02*
X69242819Y60086286D01*
X69242819Y60086286D02*
X69242819Y59705334D01*
X69242819Y59705334D02*
X69290438Y59610096D01*
X69290438Y59610096D02*
X69338057Y59562477D01*
X69338057Y59562477D02*
X69433295Y59514858D01*
X69433295Y59514858D02*
X69576152Y59514858D01*
X69576152Y59514858D02*
X69671390Y59562477D01*
X69671390Y59562477D02*
X69719009Y59610096D01*
X69719009Y59610096D02*
X69766628Y59705334D01*
X69766628Y59705334D02*
X69766628Y60086286D01*
X69338057Y59133905D02*
X69290438Y59086286D01*
X69290438Y59086286D02*
X69242819Y58991048D01*
X69242819Y58991048D02*
X69242819Y58752953D01*
X69242819Y58752953D02*
X69290438Y58657715D01*
X69290438Y58657715D02*
X69338057Y58610096D01*
X69338057Y58610096D02*
X69433295Y58562477D01*
X69433295Y58562477D02*
X69528533Y58562477D01*
X69528533Y58562477D02*
X69671390Y58610096D01*
X69671390Y58610096D02*
X70242819Y59181524D01*
X70242819Y59181524D02*
X70242819Y58562477D01*
X69576152Y57705334D02*
X70242819Y57705334D01*
X69195200Y57943429D02*
X69909485Y58181524D01*
X69909485Y58181524D02*
X69909485Y57562477D01*
X93174836Y15497615D02*
X93222456Y15545234D01*
X93222456Y15545234D02*
X93270075Y15688091D01*
X93270075Y15688091D02*
X93270075Y15783329D01*
X93270075Y15783329D02*
X93222456Y15926186D01*
X93222456Y15926186D02*
X93127217Y16021424D01*
X93127217Y16021424D02*
X93031979Y16069043D01*
X93031979Y16069043D02*
X92841503Y16116662D01*
X92841503Y16116662D02*
X92698646Y16116662D01*
X92698646Y16116662D02*
X92508170Y16069043D01*
X92508170Y16069043D02*
X92412932Y16021424D01*
X92412932Y16021424D02*
X92317694Y15926186D01*
X92317694Y15926186D02*
X92270075Y15783329D01*
X92270075Y15783329D02*
X92270075Y15688091D01*
X92270075Y15688091D02*
X92317694Y15545234D01*
X92317694Y15545234D02*
X92365313Y15497615D01*
X92270075Y14592853D02*
X92270075Y15069043D01*
X92270075Y15069043D02*
X92746265Y15116662D01*
X92746265Y15116662D02*
X92698646Y15069043D01*
X92698646Y15069043D02*
X92651027Y14973805D01*
X92651027Y14973805D02*
X92651027Y14735710D01*
X92651027Y14735710D02*
X92698646Y14640472D01*
X92698646Y14640472D02*
X92746265Y14592853D01*
X92746265Y14592853D02*
X92841503Y14545234D01*
X92841503Y14545234D02*
X93079598Y14545234D01*
X93079598Y14545234D02*
X93174836Y14592853D01*
X93174836Y14592853D02*
X93222456Y14640472D01*
X93222456Y14640472D02*
X93270075Y14735710D01*
X93270075Y14735710D02*
X93270075Y14973805D01*
X93270075Y14973805D02*
X93222456Y15069043D01*
X93222456Y15069043D02*
X93174836Y15116662D01*
X93270075Y13592853D02*
X93270075Y14164281D01*
X93270075Y13878567D02*
X92270075Y13878567D01*
X92270075Y13878567D02*
X92412932Y13973805D01*
X92412932Y13973805D02*
X92508170Y14069043D01*
X92508170Y14069043D02*
X92555789Y14164281D01*
X93174836Y81497567D02*
X93222456Y81545186D01*
X93222456Y81545186D02*
X93270075Y81688043D01*
X93270075Y81688043D02*
X93270075Y81783281D01*
X93270075Y81783281D02*
X93222456Y81926138D01*
X93222456Y81926138D02*
X93127217Y82021376D01*
X93127217Y82021376D02*
X93031979Y82068995D01*
X93031979Y82068995D02*
X92841503Y82116614D01*
X92841503Y82116614D02*
X92698646Y82116614D01*
X92698646Y82116614D02*
X92508170Y82068995D01*
X92508170Y82068995D02*
X92412932Y82021376D01*
X92412932Y82021376D02*
X92317694Y81926138D01*
X92317694Y81926138D02*
X92270075Y81783281D01*
X92270075Y81783281D02*
X92270075Y81688043D01*
X92270075Y81688043D02*
X92317694Y81545186D01*
X92317694Y81545186D02*
X92365313Y81497567D01*
X92270075Y80592805D02*
X92270075Y81068995D01*
X92270075Y81068995D02*
X92746265Y81116614D01*
X92746265Y81116614D02*
X92698646Y81068995D01*
X92698646Y81068995D02*
X92651027Y80973757D01*
X92651027Y80973757D02*
X92651027Y80735662D01*
X92651027Y80735662D02*
X92698646Y80640424D01*
X92698646Y80640424D02*
X92746265Y80592805D01*
X92746265Y80592805D02*
X92841503Y80545186D01*
X92841503Y80545186D02*
X93079598Y80545186D01*
X93079598Y80545186D02*
X93174836Y80592805D01*
X93174836Y80592805D02*
X93222456Y80640424D01*
X93222456Y80640424D02*
X93270075Y80735662D01*
X93270075Y80735662D02*
X93270075Y80973757D01*
X93270075Y80973757D02*
X93222456Y81068995D01*
X93222456Y81068995D02*
X93174836Y81116614D01*
X92270075Y79688043D02*
X92270075Y79878519D01*
X92270075Y79878519D02*
X92317694Y79973757D01*
X92317694Y79973757D02*
X92365313Y80021376D01*
X92365313Y80021376D02*
X92508170Y80116614D01*
X92508170Y80116614D02*
X92698646Y80164233D01*
X92698646Y80164233D02*
X93079598Y80164233D01*
X93079598Y80164233D02*
X93174836Y80116614D01*
X93174836Y80116614D02*
X93222456Y80068995D01*
X93222456Y80068995D02*
X93270075Y79973757D01*
X93270075Y79973757D02*
X93270075Y79783281D01*
X93270075Y79783281D02*
X93222456Y79688043D01*
X93222456Y79688043D02*
X93174836Y79640424D01*
X93174836Y79640424D02*
X93079598Y79592805D01*
X93079598Y79592805D02*
X92841503Y79592805D01*
X92841503Y79592805D02*
X92746265Y79640424D01*
X92746265Y79640424D02*
X92698646Y79688043D01*
X92698646Y79688043D02*
X92651027Y79783281D01*
X92651027Y79783281D02*
X92651027Y79973757D01*
X92651027Y79973757D02*
X92698646Y80068995D01*
X92698646Y80068995D02*
X92746265Y80116614D01*
X92746265Y80116614D02*
X92841503Y80164233D01*
X90305319Y81612858D02*
X89829128Y81946191D01*
X90305319Y82184286D02*
X89305319Y82184286D01*
X89305319Y82184286D02*
X89305319Y81803334D01*
X89305319Y81803334D02*
X89352938Y81708096D01*
X89352938Y81708096D02*
X89400557Y81660477D01*
X89400557Y81660477D02*
X89495795Y81612858D01*
X89495795Y81612858D02*
X89638652Y81612858D01*
X89638652Y81612858D02*
X89733890Y81660477D01*
X89733890Y81660477D02*
X89781509Y81708096D01*
X89781509Y81708096D02*
X89829128Y81803334D01*
X89829128Y81803334D02*
X89829128Y82184286D01*
X89400557Y81231905D02*
X89352938Y81184286D01*
X89352938Y81184286D02*
X89305319Y81089048D01*
X89305319Y81089048D02*
X89305319Y80850953D01*
X89305319Y80850953D02*
X89352938Y80755715D01*
X89352938Y80755715D02*
X89400557Y80708096D01*
X89400557Y80708096D02*
X89495795Y80660477D01*
X89495795Y80660477D02*
X89591033Y80660477D01*
X89591033Y80660477D02*
X89733890Y80708096D01*
X89733890Y80708096D02*
X90305319Y81279524D01*
X90305319Y81279524D02*
X90305319Y80660477D01*
X89400557Y80279524D02*
X89352938Y80231905D01*
X89352938Y80231905D02*
X89305319Y80136667D01*
X89305319Y80136667D02*
X89305319Y79898572D01*
X89305319Y79898572D02*
X89352938Y79803334D01*
X89352938Y79803334D02*
X89400557Y79755715D01*
X89400557Y79755715D02*
X89495795Y79708096D01*
X89495795Y79708096D02*
X89591033Y79708096D01*
X89591033Y79708096D02*
X89733890Y79755715D01*
X89733890Y79755715D02*
X90305319Y80327143D01*
X90305319Y80327143D02*
X90305319Y79708096D01*
X93174836Y37497599D02*
X93222456Y37545218D01*
X93222456Y37545218D02*
X93270075Y37688075D01*
X93270075Y37688075D02*
X93270075Y37783313D01*
X93270075Y37783313D02*
X93222456Y37926170D01*
X93222456Y37926170D02*
X93127217Y38021408D01*
X93127217Y38021408D02*
X93031979Y38069027D01*
X93031979Y38069027D02*
X92841503Y38116646D01*
X92841503Y38116646D02*
X92698646Y38116646D01*
X92698646Y38116646D02*
X92508170Y38069027D01*
X92508170Y38069027D02*
X92412932Y38021408D01*
X92412932Y38021408D02*
X92317694Y37926170D01*
X92317694Y37926170D02*
X92270075Y37783313D01*
X92270075Y37783313D02*
X92270075Y37688075D01*
X92270075Y37688075D02*
X92317694Y37545218D01*
X92317694Y37545218D02*
X92365313Y37497599D01*
X92270075Y36592837D02*
X92270075Y37069027D01*
X92270075Y37069027D02*
X92746265Y37116646D01*
X92746265Y37116646D02*
X92698646Y37069027D01*
X92698646Y37069027D02*
X92651027Y36973789D01*
X92651027Y36973789D02*
X92651027Y36735694D01*
X92651027Y36735694D02*
X92698646Y36640456D01*
X92698646Y36640456D02*
X92746265Y36592837D01*
X92746265Y36592837D02*
X92841503Y36545218D01*
X92841503Y36545218D02*
X93079598Y36545218D01*
X93079598Y36545218D02*
X93174836Y36592837D01*
X93174836Y36592837D02*
X93222456Y36640456D01*
X93222456Y36640456D02*
X93270075Y36735694D01*
X93270075Y36735694D02*
X93270075Y36973789D01*
X93270075Y36973789D02*
X93222456Y37069027D01*
X93222456Y37069027D02*
X93174836Y37116646D01*
X92698646Y35973789D02*
X92651027Y36069027D01*
X92651027Y36069027D02*
X92603408Y36116646D01*
X92603408Y36116646D02*
X92508170Y36164265D01*
X92508170Y36164265D02*
X92460551Y36164265D01*
X92460551Y36164265D02*
X92365313Y36116646D01*
X92365313Y36116646D02*
X92317694Y36069027D01*
X92317694Y36069027D02*
X92270075Y35973789D01*
X92270075Y35973789D02*
X92270075Y35783313D01*
X92270075Y35783313D02*
X92317694Y35688075D01*
X92317694Y35688075D02*
X92365313Y35640456D01*
X92365313Y35640456D02*
X92460551Y35592837D01*
X92460551Y35592837D02*
X92508170Y35592837D01*
X92508170Y35592837D02*
X92603408Y35640456D01*
X92603408Y35640456D02*
X92651027Y35688075D01*
X92651027Y35688075D02*
X92698646Y35783313D01*
X92698646Y35783313D02*
X92698646Y35973789D01*
X92698646Y35973789D02*
X92746265Y36069027D01*
X92746265Y36069027D02*
X92793884Y36116646D01*
X92793884Y36116646D02*
X92889122Y36164265D01*
X92889122Y36164265D02*
X93079598Y36164265D01*
X93079598Y36164265D02*
X93174836Y36116646D01*
X93174836Y36116646D02*
X93222456Y36069027D01*
X93222456Y36069027D02*
X93270075Y35973789D01*
X93270075Y35973789D02*
X93270075Y35783313D01*
X93270075Y35783313D02*
X93222456Y35688075D01*
X93222456Y35688075D02*
X93174836Y35640456D01*
X93174836Y35640456D02*
X93079598Y35592837D01*
X93079598Y35592837D02*
X92889122Y35592837D01*
X92889122Y35592837D02*
X92793884Y35640456D01*
X92793884Y35640456D02*
X92746265Y35688075D01*
X92746265Y35688075D02*
X92698646Y35783313D01*
X63459580Y59475583D02*
X63507200Y59523202D01*
X63507200Y59523202D02*
X63554819Y59666059D01*
X63554819Y59666059D02*
X63554819Y59761297D01*
X63554819Y59761297D02*
X63507200Y59904154D01*
X63507200Y59904154D02*
X63411961Y59999392D01*
X63411961Y59999392D02*
X63316723Y60047011D01*
X63316723Y60047011D02*
X63126247Y60094630D01*
X63126247Y60094630D02*
X62983390Y60094630D01*
X62983390Y60094630D02*
X62792914Y60047011D01*
X62792914Y60047011D02*
X62697676Y59999392D01*
X62697676Y59999392D02*
X62602438Y59904154D01*
X62602438Y59904154D02*
X62554819Y59761297D01*
X62554819Y59761297D02*
X62554819Y59666059D01*
X62554819Y59666059D02*
X62602438Y59523202D01*
X62602438Y59523202D02*
X62650057Y59475583D01*
X62554819Y59142249D02*
X62554819Y58523202D01*
X62554819Y58523202D02*
X62935771Y58856535D01*
X62935771Y58856535D02*
X62935771Y58713678D01*
X62935771Y58713678D02*
X62983390Y58618440D01*
X62983390Y58618440D02*
X63031009Y58570821D01*
X63031009Y58570821D02*
X63126247Y58523202D01*
X63126247Y58523202D02*
X63364342Y58523202D01*
X63364342Y58523202D02*
X63459580Y58570821D01*
X63459580Y58570821D02*
X63507200Y58618440D01*
X63507200Y58618440D02*
X63554819Y58713678D01*
X63554819Y58713678D02*
X63554819Y58999392D01*
X63554819Y58999392D02*
X63507200Y59094630D01*
X63507200Y59094630D02*
X63459580Y59142249D01*
X62554819Y58189868D02*
X62554819Y57570821D01*
X62554819Y57570821D02*
X62935771Y57904154D01*
X62935771Y57904154D02*
X62935771Y57761297D01*
X62935771Y57761297D02*
X62983390Y57666059D01*
X62983390Y57666059D02*
X63031009Y57618440D01*
X63031009Y57618440D02*
X63126247Y57570821D01*
X63126247Y57570821D02*
X63364342Y57570821D01*
X63364342Y57570821D02*
X63459580Y57618440D01*
X63459580Y57618440D02*
X63507200Y57666059D01*
X63507200Y57666059D02*
X63554819Y57761297D01*
X63554819Y57761297D02*
X63554819Y58047011D01*
X63554819Y58047011D02*
X63507200Y58142249D01*
X63507200Y58142249D02*
X63459580Y58189868D01*
X88775859Y81475567D02*
X88299668Y81808900D01*
X88775859Y82046995D02*
X87775859Y82046995D01*
X87775859Y82046995D02*
X87775859Y81666043D01*
X87775859Y81666043D02*
X87823478Y81570805D01*
X87823478Y81570805D02*
X87871097Y81523186D01*
X87871097Y81523186D02*
X87966335Y81475567D01*
X87966335Y81475567D02*
X88109192Y81475567D01*
X88109192Y81475567D02*
X88204430Y81523186D01*
X88204430Y81523186D02*
X88252049Y81570805D01*
X88252049Y81570805D02*
X88299668Y81666043D01*
X88299668Y81666043D02*
X88299668Y82046995D01*
X88775859Y80523186D02*
X88775859Y81094614D01*
X88775859Y80808900D02*
X87775859Y80808900D01*
X87775859Y80808900D02*
X87918716Y80904138D01*
X87918716Y80904138D02*
X88013954Y80999376D01*
X88013954Y80999376D02*
X88061573Y81094614D01*
X88109192Y79666043D02*
X88775859Y79666043D01*
X87728240Y79904138D02*
X88442525Y80142233D01*
X88442525Y80142233D02*
X88442525Y79523186D01*
X88775859Y59475583D02*
X88299668Y59808916D01*
X88775859Y60047011D02*
X87775859Y60047011D01*
X87775859Y60047011D02*
X87775859Y59666059D01*
X87775859Y59666059D02*
X87823478Y59570821D01*
X87823478Y59570821D02*
X87871097Y59523202D01*
X87871097Y59523202D02*
X87966335Y59475583D01*
X87966335Y59475583D02*
X88109192Y59475583D01*
X88109192Y59475583D02*
X88204430Y59523202D01*
X88204430Y59523202D02*
X88252049Y59570821D01*
X88252049Y59570821D02*
X88299668Y59666059D01*
X88299668Y59666059D02*
X88299668Y60047011D01*
X88775859Y58523202D02*
X88775859Y59094630D01*
X88775859Y58808916D02*
X87775859Y58808916D01*
X87775859Y58808916D02*
X87918716Y58904154D01*
X87918716Y58904154D02*
X88013954Y58999392D01*
X88013954Y58999392D02*
X88061573Y59094630D01*
X87775859Y57618440D02*
X87775859Y58094630D01*
X87775859Y58094630D02*
X88252049Y58142249D01*
X88252049Y58142249D02*
X88204430Y58094630D01*
X88204430Y58094630D02*
X88156811Y57999392D01*
X88156811Y57999392D02*
X88156811Y57761297D01*
X88156811Y57761297D02*
X88204430Y57666059D01*
X88204430Y57666059D02*
X88252049Y57618440D01*
X88252049Y57618440D02*
X88347287Y57570821D01*
X88347287Y57570821D02*
X88585382Y57570821D01*
X88585382Y57570821D02*
X88680620Y57618440D01*
X88680620Y57618440D02*
X88728240Y57666059D01*
X88728240Y57666059D02*
X88775859Y57761297D01*
X88775859Y57761297D02*
X88775859Y57999392D01*
X88775859Y57999392D02*
X88728240Y58094630D01*
X88728240Y58094630D02*
X88680620Y58142249D01*
X51562327Y37497599D02*
X51609947Y37545218D01*
X51609947Y37545218D02*
X51657566Y37688075D01*
X51657566Y37688075D02*
X51657566Y37783313D01*
X51657566Y37783313D02*
X51609947Y37926170D01*
X51609947Y37926170D02*
X51514708Y38021408D01*
X51514708Y38021408D02*
X51419470Y38069027D01*
X51419470Y38069027D02*
X51228994Y38116646D01*
X51228994Y38116646D02*
X51086137Y38116646D01*
X51086137Y38116646D02*
X50895661Y38069027D01*
X50895661Y38069027D02*
X50800423Y38021408D01*
X50800423Y38021408D02*
X50705185Y37926170D01*
X50705185Y37926170D02*
X50657566Y37783313D01*
X50657566Y37783313D02*
X50657566Y37688075D01*
X50657566Y37688075D02*
X50705185Y37545218D01*
X50705185Y37545218D02*
X50752804Y37497599D01*
X50752804Y37116646D02*
X50705185Y37069027D01*
X50705185Y37069027D02*
X50657566Y36973789D01*
X50657566Y36973789D02*
X50657566Y36735694D01*
X50657566Y36735694D02*
X50705185Y36640456D01*
X50705185Y36640456D02*
X50752804Y36592837D01*
X50752804Y36592837D02*
X50848042Y36545218D01*
X50848042Y36545218D02*
X50943280Y36545218D01*
X50943280Y36545218D02*
X51086137Y36592837D01*
X51086137Y36592837D02*
X51657566Y37164265D01*
X51657566Y37164265D02*
X51657566Y36545218D01*
X50990899Y35688075D02*
X51657566Y35688075D01*
X50609947Y35926170D02*
X51324232Y36164265D01*
X51324232Y36164265D02*
X51324232Y35545218D01*
X45001580Y15572858D02*
X45049200Y15620477D01*
X45049200Y15620477D02*
X45096819Y15763334D01*
X45096819Y15763334D02*
X45096819Y15858572D01*
X45096819Y15858572D02*
X45049200Y16001429D01*
X45049200Y16001429D02*
X44953961Y16096667D01*
X44953961Y16096667D02*
X44858723Y16144286D01*
X44858723Y16144286D02*
X44668247Y16191905D01*
X44668247Y16191905D02*
X44525390Y16191905D01*
X44525390Y16191905D02*
X44334914Y16144286D01*
X44334914Y16144286D02*
X44239676Y16096667D01*
X44239676Y16096667D02*
X44144438Y16001429D01*
X44144438Y16001429D02*
X44096819Y15858572D01*
X44096819Y15858572D02*
X44096819Y15763334D01*
X44096819Y15763334D02*
X44144438Y15620477D01*
X44144438Y15620477D02*
X44192057Y15572858D01*
X44096819Y14715715D02*
X44096819Y14906191D01*
X44096819Y14906191D02*
X44144438Y15001429D01*
X44144438Y15001429D02*
X44192057Y15049048D01*
X44192057Y15049048D02*
X44334914Y15144286D01*
X44334914Y15144286D02*
X44525390Y15191905D01*
X44525390Y15191905D02*
X44906342Y15191905D01*
X44906342Y15191905D02*
X45001580Y15144286D01*
X45001580Y15144286D02*
X45049200Y15096667D01*
X45049200Y15096667D02*
X45096819Y15001429D01*
X45096819Y15001429D02*
X45096819Y14810953D01*
X45096819Y14810953D02*
X45049200Y14715715D01*
X45049200Y14715715D02*
X45001580Y14668096D01*
X45001580Y14668096D02*
X44906342Y14620477D01*
X44906342Y14620477D02*
X44668247Y14620477D01*
X44668247Y14620477D02*
X44573009Y14668096D01*
X44573009Y14668096D02*
X44525390Y14715715D01*
X44525390Y14715715D02*
X44477771Y14810953D01*
X44477771Y14810953D02*
X44477771Y15001429D01*
X44477771Y15001429D02*
X44525390Y15096667D01*
X44525390Y15096667D02*
X44573009Y15144286D01*
X44573009Y15144286D02*
X44668247Y15191905D01*
X44096819Y14287143D02*
X44096819Y13668096D01*
X44096819Y13668096D02*
X44477771Y14001429D01*
X44477771Y14001429D02*
X44477771Y13858572D01*
X44477771Y13858572D02*
X44525390Y13763334D01*
X44525390Y13763334D02*
X44573009Y13715715D01*
X44573009Y13715715D02*
X44668247Y13668096D01*
X44668247Y13668096D02*
X44906342Y13668096D01*
X44906342Y13668096D02*
X45001580Y13715715D01*
X45001580Y13715715D02*
X45049200Y13763334D01*
X45049200Y13763334D02*
X45096819Y13858572D01*
X45096819Y13858572D02*
X45096819Y14144286D01*
X45096819Y14144286D02*
X45049200Y14239524D01*
X45049200Y14239524D02*
X45001580Y14287143D01*
X62059580Y59497583D02*
X62107200Y59545202D01*
X62107200Y59545202D02*
X62154819Y59688059D01*
X62154819Y59688059D02*
X62154819Y59783297D01*
X62154819Y59783297D02*
X62107200Y59926154D01*
X62107200Y59926154D02*
X62011961Y60021392D01*
X62011961Y60021392D02*
X61916723Y60069011D01*
X61916723Y60069011D02*
X61726247Y60116630D01*
X61726247Y60116630D02*
X61583390Y60116630D01*
X61583390Y60116630D02*
X61392914Y60069011D01*
X61392914Y60069011D02*
X61297676Y60021392D01*
X61297676Y60021392D02*
X61202438Y59926154D01*
X61202438Y59926154D02*
X61154819Y59783297D01*
X61154819Y59783297D02*
X61154819Y59688059D01*
X61154819Y59688059D02*
X61202438Y59545202D01*
X61202438Y59545202D02*
X61250057Y59497583D01*
X61250057Y59116630D02*
X61202438Y59069011D01*
X61202438Y59069011D02*
X61154819Y58973773D01*
X61154819Y58973773D02*
X61154819Y58735678D01*
X61154819Y58735678D02*
X61202438Y58640440D01*
X61202438Y58640440D02*
X61250057Y58592821D01*
X61250057Y58592821D02*
X61345295Y58545202D01*
X61345295Y58545202D02*
X61440533Y58545202D01*
X61440533Y58545202D02*
X61583390Y58592821D01*
X61583390Y58592821D02*
X62154819Y59164249D01*
X62154819Y59164249D02*
X62154819Y58545202D01*
X62154819Y58069011D02*
X62154819Y57878535D01*
X62154819Y57878535D02*
X62107200Y57783297D01*
X62107200Y57783297D02*
X62059580Y57735678D01*
X62059580Y57735678D02*
X61916723Y57640440D01*
X61916723Y57640440D02*
X61726247Y57592821D01*
X61726247Y57592821D02*
X61345295Y57592821D01*
X61345295Y57592821D02*
X61250057Y57640440D01*
X61250057Y57640440D02*
X61202438Y57688059D01*
X61202438Y57688059D02*
X61154819Y57783297D01*
X61154819Y57783297D02*
X61154819Y57973773D01*
X61154819Y57973773D02*
X61202438Y58069011D01*
X61202438Y58069011D02*
X61250057Y58116630D01*
X61250057Y58116630D02*
X61345295Y58164249D01*
X61345295Y58164249D02*
X61583390Y58164249D01*
X61583390Y58164249D02*
X61678628Y58116630D01*
X61678628Y58116630D02*
X61726247Y58069011D01*
X61726247Y58069011D02*
X61773866Y57973773D01*
X61773866Y57973773D02*
X61773866Y57783297D01*
X61773866Y57783297D02*
X61726247Y57688059D01*
X61726247Y57688059D02*
X61678628Y57640440D01*
X61678628Y57640440D02*
X61583390Y57592821D01*
X65067580Y59514858D02*
X65115200Y59562477D01*
X65115200Y59562477D02*
X65162819Y59705334D01*
X65162819Y59705334D02*
X65162819Y59800572D01*
X65162819Y59800572D02*
X65115200Y59943429D01*
X65115200Y59943429D02*
X65019961Y60038667D01*
X65019961Y60038667D02*
X64924723Y60086286D01*
X64924723Y60086286D02*
X64734247Y60133905D01*
X64734247Y60133905D02*
X64591390Y60133905D01*
X64591390Y60133905D02*
X64400914Y60086286D01*
X64400914Y60086286D02*
X64305676Y60038667D01*
X64305676Y60038667D02*
X64210438Y59943429D01*
X64210438Y59943429D02*
X64162819Y59800572D01*
X64162819Y59800572D02*
X64162819Y59705334D01*
X64162819Y59705334D02*
X64210438Y59562477D01*
X64210438Y59562477D02*
X64258057Y59514858D01*
X64162819Y58657715D02*
X64162819Y58848191D01*
X64162819Y58848191D02*
X64210438Y58943429D01*
X64210438Y58943429D02*
X64258057Y58991048D01*
X64258057Y58991048D02*
X64400914Y59086286D01*
X64400914Y59086286D02*
X64591390Y59133905D01*
X64591390Y59133905D02*
X64972342Y59133905D01*
X64972342Y59133905D02*
X65067580Y59086286D01*
X65067580Y59086286D02*
X65115200Y59038667D01*
X65115200Y59038667D02*
X65162819Y58943429D01*
X65162819Y58943429D02*
X65162819Y58752953D01*
X65162819Y58752953D02*
X65115200Y58657715D01*
X65115200Y58657715D02*
X65067580Y58610096D01*
X65067580Y58610096D02*
X64972342Y58562477D01*
X64972342Y58562477D02*
X64734247Y58562477D01*
X64734247Y58562477D02*
X64639009Y58610096D01*
X64639009Y58610096D02*
X64591390Y58657715D01*
X64591390Y58657715D02*
X64543771Y58752953D01*
X64543771Y58752953D02*
X64543771Y58943429D01*
X64543771Y58943429D02*
X64591390Y59038667D01*
X64591390Y59038667D02*
X64639009Y59086286D01*
X64639009Y59086286D02*
X64734247Y59133905D01*
X64162819Y57657715D02*
X64162819Y58133905D01*
X64162819Y58133905D02*
X64639009Y58181524D01*
X64639009Y58181524D02*
X64591390Y58133905D01*
X64591390Y58133905D02*
X64543771Y58038667D01*
X64543771Y58038667D02*
X64543771Y57800572D01*
X64543771Y57800572D02*
X64591390Y57705334D01*
X64591390Y57705334D02*
X64639009Y57657715D01*
X64639009Y57657715D02*
X64734247Y57610096D01*
X64734247Y57610096D02*
X64972342Y57610096D01*
X64972342Y57610096D02*
X65067580Y57657715D01*
X65067580Y57657715D02*
X65115200Y57705334D01*
X65115200Y57705334D02*
X65162819Y57800572D01*
X65162819Y57800572D02*
X65162819Y58038667D01*
X65162819Y58038667D02*
X65115200Y58133905D01*
X65115200Y58133905D02*
X65067580Y58181524D01*
X73112336Y81497567D02*
X73159956Y81545186D01*
X73159956Y81545186D02*
X73207575Y81688043D01*
X73207575Y81688043D02*
X73207575Y81783281D01*
X73207575Y81783281D02*
X73159956Y81926138D01*
X73159956Y81926138D02*
X73064717Y82021376D01*
X73064717Y82021376D02*
X72969479Y82068995D01*
X72969479Y82068995D02*
X72779003Y82116614D01*
X72779003Y82116614D02*
X72636146Y82116614D01*
X72636146Y82116614D02*
X72445670Y82068995D01*
X72445670Y82068995D02*
X72350432Y82021376D01*
X72350432Y82021376D02*
X72255194Y81926138D01*
X72255194Y81926138D02*
X72207575Y81783281D01*
X72207575Y81783281D02*
X72207575Y81688043D01*
X72207575Y81688043D02*
X72255194Y81545186D01*
X72255194Y81545186D02*
X72302813Y81497567D01*
X72540908Y80640424D02*
X73207575Y80640424D01*
X72159956Y80878519D02*
X72874241Y81116614D01*
X72874241Y81116614D02*
X72874241Y80497567D01*
X72207575Y79926138D02*
X72207575Y79830900D01*
X72207575Y79830900D02*
X72255194Y79735662D01*
X72255194Y79735662D02*
X72302813Y79688043D01*
X72302813Y79688043D02*
X72398051Y79640424D01*
X72398051Y79640424D02*
X72588527Y79592805D01*
X72588527Y79592805D02*
X72826622Y79592805D01*
X72826622Y79592805D02*
X73017098Y79640424D01*
X73017098Y79640424D02*
X73112336Y79688043D01*
X73112336Y79688043D02*
X73159956Y79735662D01*
X73159956Y79735662D02*
X73207575Y79830900D01*
X73207575Y79830900D02*
X73207575Y79926138D01*
X73207575Y79926138D02*
X73159956Y80021376D01*
X73159956Y80021376D02*
X73112336Y80068995D01*
X73112336Y80068995D02*
X73017098Y80116614D01*
X73017098Y80116614D02*
X72826622Y80164233D01*
X72826622Y80164233D02*
X72588527Y80164233D01*
X72588527Y80164233D02*
X72398051Y80116614D01*
X72398051Y80116614D02*
X72302813Y80068995D01*
X72302813Y80068995D02*
X72255194Y80021376D01*
X72255194Y80021376D02*
X72207575Y79926138D01*
X48650859Y58999392D02*
X48174668Y59332725D01*
X48650859Y59570820D02*
X47650859Y59570820D01*
X47650859Y59570820D02*
X47650859Y59189868D01*
X47650859Y59189868D02*
X47698478Y59094630D01*
X47698478Y59094630D02*
X47746097Y59047011D01*
X47746097Y59047011D02*
X47841335Y58999392D01*
X47841335Y58999392D02*
X47984192Y58999392D01*
X47984192Y58999392D02*
X48079430Y59047011D01*
X48079430Y59047011D02*
X48127049Y59094630D01*
X48127049Y59094630D02*
X48174668Y59189868D01*
X48174668Y59189868D02*
X48174668Y59570820D01*
X48650859Y58047011D02*
X48650859Y58618439D01*
X48650859Y58332725D02*
X47650859Y58332725D01*
X47650859Y58332725D02*
X47793716Y58427963D01*
X47793716Y58427963D02*
X47888954Y58523201D01*
X47888954Y58523201D02*
X47936573Y58618439D01*
X91687327Y59497583D02*
X91734947Y59545202D01*
X91734947Y59545202D02*
X91782566Y59688059D01*
X91782566Y59688059D02*
X91782566Y59783297D01*
X91782566Y59783297D02*
X91734947Y59926154D01*
X91734947Y59926154D02*
X91639708Y60021392D01*
X91639708Y60021392D02*
X91544470Y60069011D01*
X91544470Y60069011D02*
X91353994Y60116630D01*
X91353994Y60116630D02*
X91211137Y60116630D01*
X91211137Y60116630D02*
X91020661Y60069011D01*
X91020661Y60069011D02*
X90925423Y60021392D01*
X90925423Y60021392D02*
X90830185Y59926154D01*
X90830185Y59926154D02*
X90782566Y59783297D01*
X90782566Y59783297D02*
X90782566Y59688059D01*
X90782566Y59688059D02*
X90830185Y59545202D01*
X90830185Y59545202D02*
X90877804Y59497583D01*
X90782566Y58592821D02*
X90782566Y59069011D01*
X90782566Y59069011D02*
X91258756Y59116630D01*
X91258756Y59116630D02*
X91211137Y59069011D01*
X91211137Y59069011D02*
X91163518Y58973773D01*
X91163518Y58973773D02*
X91163518Y58735678D01*
X91163518Y58735678D02*
X91211137Y58640440D01*
X91211137Y58640440D02*
X91258756Y58592821D01*
X91258756Y58592821D02*
X91353994Y58545202D01*
X91353994Y58545202D02*
X91592089Y58545202D01*
X91592089Y58545202D02*
X91687327Y58592821D01*
X91687327Y58592821D02*
X91734947Y58640440D01*
X91734947Y58640440D02*
X91782566Y58735678D01*
X91782566Y58735678D02*
X91782566Y58973773D01*
X91782566Y58973773D02*
X91734947Y59069011D01*
X91734947Y59069011D02*
X91687327Y59116630D01*
X90782566Y58211868D02*
X90782566Y57592821D01*
X90782566Y57592821D02*
X91163518Y57926154D01*
X91163518Y57926154D02*
X91163518Y57783297D01*
X91163518Y57783297D02*
X91211137Y57688059D01*
X91211137Y57688059D02*
X91258756Y57640440D01*
X91258756Y57640440D02*
X91353994Y57592821D01*
X91353994Y57592821D02*
X91592089Y57592821D01*
X91592089Y57592821D02*
X91687327Y57640440D01*
X91687327Y57640440D02*
X91734947Y57688059D01*
X91734947Y57688059D02*
X91782566Y57783297D01*
X91782566Y57783297D02*
X91782566Y58069011D01*
X91782566Y58069011D02*
X91734947Y58164249D01*
X91734947Y58164249D02*
X91687327Y58211868D01*
X49922819Y37416858D02*
X49446628Y37750191D01*
X49922819Y37988286D02*
X48922819Y37988286D01*
X48922819Y37988286D02*
X48922819Y37607334D01*
X48922819Y37607334D02*
X48970438Y37512096D01*
X48970438Y37512096D02*
X49018057Y37464477D01*
X49018057Y37464477D02*
X49113295Y37416858D01*
X49113295Y37416858D02*
X49256152Y37416858D01*
X49256152Y37416858D02*
X49351390Y37464477D01*
X49351390Y37464477D02*
X49399009Y37512096D01*
X49399009Y37512096D02*
X49446628Y37607334D01*
X49446628Y37607334D02*
X49446628Y37988286D01*
X49018057Y37035905D02*
X48970438Y36988286D01*
X48970438Y36988286D02*
X48922819Y36893048D01*
X48922819Y36893048D02*
X48922819Y36654953D01*
X48922819Y36654953D02*
X48970438Y36559715D01*
X48970438Y36559715D02*
X49018057Y36512096D01*
X49018057Y36512096D02*
X49113295Y36464477D01*
X49113295Y36464477D02*
X49208533Y36464477D01*
X49208533Y36464477D02*
X49351390Y36512096D01*
X49351390Y36512096D02*
X49922819Y37083524D01*
X49922819Y37083524D02*
X49922819Y36464477D01*
X48922819Y35607334D02*
X48922819Y35797810D01*
X48922819Y35797810D02*
X48970438Y35893048D01*
X48970438Y35893048D02*
X49018057Y35940667D01*
X49018057Y35940667D02*
X49160914Y36035905D01*
X49160914Y36035905D02*
X49351390Y36083524D01*
X49351390Y36083524D02*
X49732342Y36083524D01*
X49732342Y36083524D02*
X49827580Y36035905D01*
X49827580Y36035905D02*
X49875200Y35988286D01*
X49875200Y35988286D02*
X49922819Y35893048D01*
X49922819Y35893048D02*
X49922819Y35702572D01*
X49922819Y35702572D02*
X49875200Y35607334D01*
X49875200Y35607334D02*
X49827580Y35559715D01*
X49827580Y35559715D02*
X49732342Y35512096D01*
X49732342Y35512096D02*
X49494247Y35512096D01*
X49494247Y35512096D02*
X49399009Y35559715D01*
X49399009Y35559715D02*
X49351390Y35607334D01*
X49351390Y35607334D02*
X49303771Y35702572D01*
X49303771Y35702572D02*
X49303771Y35893048D01*
X49303771Y35893048D02*
X49351390Y35988286D01*
X49351390Y35988286D02*
X49399009Y36035905D01*
X49399009Y36035905D02*
X49494247Y36083524D01*
X71624827Y81497567D02*
X71672447Y81545186D01*
X71672447Y81545186D02*
X71720066Y81688043D01*
X71720066Y81688043D02*
X71720066Y81783281D01*
X71720066Y81783281D02*
X71672447Y81926138D01*
X71672447Y81926138D02*
X71577208Y82021376D01*
X71577208Y82021376D02*
X71481970Y82068995D01*
X71481970Y82068995D02*
X71291494Y82116614D01*
X71291494Y82116614D02*
X71148637Y82116614D01*
X71148637Y82116614D02*
X70958161Y82068995D01*
X70958161Y82068995D02*
X70862923Y82021376D01*
X70862923Y82021376D02*
X70767685Y81926138D01*
X70767685Y81926138D02*
X70720066Y81783281D01*
X70720066Y81783281D02*
X70720066Y81688043D01*
X70720066Y81688043D02*
X70767685Y81545186D01*
X70767685Y81545186D02*
X70815304Y81497567D01*
X70720066Y81164233D02*
X70720066Y80545186D01*
X70720066Y80545186D02*
X71101018Y80878519D01*
X71101018Y80878519D02*
X71101018Y80735662D01*
X71101018Y80735662D02*
X71148637Y80640424D01*
X71148637Y80640424D02*
X71196256Y80592805D01*
X71196256Y80592805D02*
X71291494Y80545186D01*
X71291494Y80545186D02*
X71529589Y80545186D01*
X71529589Y80545186D02*
X71624827Y80592805D01*
X71624827Y80592805D02*
X71672447Y80640424D01*
X71672447Y80640424D02*
X71720066Y80735662D01*
X71720066Y80735662D02*
X71720066Y81021376D01*
X71720066Y81021376D02*
X71672447Y81116614D01*
X71672447Y81116614D02*
X71624827Y81164233D01*
X70720066Y79688043D02*
X70720066Y79878519D01*
X70720066Y79878519D02*
X70767685Y79973757D01*
X70767685Y79973757D02*
X70815304Y80021376D01*
X70815304Y80021376D02*
X70958161Y80116614D01*
X70958161Y80116614D02*
X71148637Y80164233D01*
X71148637Y80164233D02*
X71529589Y80164233D01*
X71529589Y80164233D02*
X71624827Y80116614D01*
X71624827Y80116614D02*
X71672447Y80068995D01*
X71672447Y80068995D02*
X71720066Y79973757D01*
X71720066Y79973757D02*
X71720066Y79783281D01*
X71720066Y79783281D02*
X71672447Y79688043D01*
X71672447Y79688043D02*
X71624827Y79640424D01*
X71624827Y79640424D02*
X71529589Y79592805D01*
X71529589Y79592805D02*
X71291494Y79592805D01*
X71291494Y79592805D02*
X71196256Y79640424D01*
X71196256Y79640424D02*
X71148637Y79688043D01*
X71148637Y79688043D02*
X71101018Y79783281D01*
X71101018Y79783281D02*
X71101018Y79973757D01*
X71101018Y79973757D02*
X71148637Y80068995D01*
X71148637Y80068995D02*
X71196256Y80116614D01*
X71196256Y80116614D02*
X71291494Y80164233D01*
X62059580Y15497615D02*
X62107200Y15545234D01*
X62107200Y15545234D02*
X62154819Y15688091D01*
X62154819Y15688091D02*
X62154819Y15783329D01*
X62154819Y15783329D02*
X62107200Y15926186D01*
X62107200Y15926186D02*
X62011961Y16021424D01*
X62011961Y16021424D02*
X61916723Y16069043D01*
X61916723Y16069043D02*
X61726247Y16116662D01*
X61726247Y16116662D02*
X61583390Y16116662D01*
X61583390Y16116662D02*
X61392914Y16069043D01*
X61392914Y16069043D02*
X61297676Y16021424D01*
X61297676Y16021424D02*
X61202438Y15926186D01*
X61202438Y15926186D02*
X61154819Y15783329D01*
X61154819Y15783329D02*
X61154819Y15688091D01*
X61154819Y15688091D02*
X61202438Y15545234D01*
X61202438Y15545234D02*
X61250057Y15497615D01*
X61488152Y14640472D02*
X62154819Y14640472D01*
X61107200Y14878567D02*
X61821485Y15116662D01*
X61821485Y15116662D02*
X61821485Y14497615D01*
X61154819Y14211900D02*
X61154819Y13592853D01*
X61154819Y13592853D02*
X61535771Y13926186D01*
X61535771Y13926186D02*
X61535771Y13783329D01*
X61535771Y13783329D02*
X61583390Y13688091D01*
X61583390Y13688091D02*
X61631009Y13640472D01*
X61631009Y13640472D02*
X61726247Y13592853D01*
X61726247Y13592853D02*
X61964342Y13592853D01*
X61964342Y13592853D02*
X62059580Y13640472D01*
X62059580Y13640472D02*
X62107200Y13688091D01*
X62107200Y13688091D02*
X62154819Y13783329D01*
X62154819Y13783329D02*
X62154819Y14069043D01*
X62154819Y14069043D02*
X62107200Y14164281D01*
X62107200Y14164281D02*
X62059580Y14211900D01*
X91687327Y15497615D02*
X91734947Y15545234D01*
X91734947Y15545234D02*
X91782566Y15688091D01*
X91782566Y15688091D02*
X91782566Y15783329D01*
X91782566Y15783329D02*
X91734947Y15926186D01*
X91734947Y15926186D02*
X91639708Y16021424D01*
X91639708Y16021424D02*
X91544470Y16069043D01*
X91544470Y16069043D02*
X91353994Y16116662D01*
X91353994Y16116662D02*
X91211137Y16116662D01*
X91211137Y16116662D02*
X91020661Y16069043D01*
X91020661Y16069043D02*
X90925423Y16021424D01*
X90925423Y16021424D02*
X90830185Y15926186D01*
X90830185Y15926186D02*
X90782566Y15783329D01*
X90782566Y15783329D02*
X90782566Y15688091D01*
X90782566Y15688091D02*
X90830185Y15545234D01*
X90830185Y15545234D02*
X90877804Y15497615D01*
X91115899Y14640472D02*
X91782566Y14640472D01*
X90734947Y14878567D02*
X91449232Y15116662D01*
X91449232Y15116662D02*
X91449232Y14497615D01*
X90782566Y14211900D02*
X90782566Y13545234D01*
X90782566Y13545234D02*
X91782566Y13973805D01*
X82122080Y59497583D02*
X82169700Y59545202D01*
X82169700Y59545202D02*
X82217319Y59688059D01*
X82217319Y59688059D02*
X82217319Y59783297D01*
X82217319Y59783297D02*
X82169700Y59926154D01*
X82169700Y59926154D02*
X82074461Y60021392D01*
X82074461Y60021392D02*
X81979223Y60069011D01*
X81979223Y60069011D02*
X81788747Y60116630D01*
X81788747Y60116630D02*
X81645890Y60116630D01*
X81645890Y60116630D02*
X81455414Y60069011D01*
X81455414Y60069011D02*
X81360176Y60021392D01*
X81360176Y60021392D02*
X81264938Y59926154D01*
X81264938Y59926154D02*
X81217319Y59783297D01*
X81217319Y59783297D02*
X81217319Y59688059D01*
X81217319Y59688059D02*
X81264938Y59545202D01*
X81264938Y59545202D02*
X81312557Y59497583D01*
X81550652Y58640440D02*
X82217319Y58640440D01*
X81169700Y58878535D02*
X81883985Y59116630D01*
X81883985Y59116630D02*
X81883985Y58497583D01*
X81217319Y57640440D02*
X81217319Y58116630D01*
X81217319Y58116630D02*
X81693509Y58164249D01*
X81693509Y58164249D02*
X81645890Y58116630D01*
X81645890Y58116630D02*
X81598271Y58021392D01*
X81598271Y58021392D02*
X81598271Y57783297D01*
X81598271Y57783297D02*
X81645890Y57688059D01*
X81645890Y57688059D02*
X81693509Y57640440D01*
X81693509Y57640440D02*
X81788747Y57592821D01*
X81788747Y57592821D02*
X82026842Y57592821D01*
X82026842Y57592821D02*
X82122080Y57640440D01*
X82122080Y57640440D02*
X82169700Y57688059D01*
X82169700Y57688059D02*
X82217319Y57783297D01*
X82217319Y57783297D02*
X82217319Y58021392D01*
X82217319Y58021392D02*
X82169700Y58116630D01*
X82169700Y58116630D02*
X82122080Y58164249D01*
X53049836Y37497599D02*
X53097456Y37545218D01*
X53097456Y37545218D02*
X53145075Y37688075D01*
X53145075Y37688075D02*
X53145075Y37783313D01*
X53145075Y37783313D02*
X53097456Y37926170D01*
X53097456Y37926170D02*
X53002217Y38021408D01*
X53002217Y38021408D02*
X52906979Y38069027D01*
X52906979Y38069027D02*
X52716503Y38116646D01*
X52716503Y38116646D02*
X52573646Y38116646D01*
X52573646Y38116646D02*
X52383170Y38069027D01*
X52383170Y38069027D02*
X52287932Y38021408D01*
X52287932Y38021408D02*
X52192694Y37926170D01*
X52192694Y37926170D02*
X52145075Y37783313D01*
X52145075Y37783313D02*
X52145075Y37688075D01*
X52145075Y37688075D02*
X52192694Y37545218D01*
X52192694Y37545218D02*
X52240313Y37497599D01*
X52240313Y37116646D02*
X52192694Y37069027D01*
X52192694Y37069027D02*
X52145075Y36973789D01*
X52145075Y36973789D02*
X52145075Y36735694D01*
X52145075Y36735694D02*
X52192694Y36640456D01*
X52192694Y36640456D02*
X52240313Y36592837D01*
X52240313Y36592837D02*
X52335551Y36545218D01*
X52335551Y36545218D02*
X52430789Y36545218D01*
X52430789Y36545218D02*
X52573646Y36592837D01*
X52573646Y36592837D02*
X53145075Y37164265D01*
X53145075Y37164265D02*
X53145075Y36545218D01*
X52145075Y35688075D02*
X52145075Y35878551D01*
X52145075Y35878551D02*
X52192694Y35973789D01*
X52192694Y35973789D02*
X52240313Y36021408D01*
X52240313Y36021408D02*
X52383170Y36116646D01*
X52383170Y36116646D02*
X52573646Y36164265D01*
X52573646Y36164265D02*
X52954598Y36164265D01*
X52954598Y36164265D02*
X53049836Y36116646D01*
X53049836Y36116646D02*
X53097456Y36069027D01*
X53097456Y36069027D02*
X53145075Y35973789D01*
X53145075Y35973789D02*
X53145075Y35783313D01*
X53145075Y35783313D02*
X53097456Y35688075D01*
X53097456Y35688075D02*
X53049836Y35640456D01*
X53049836Y35640456D02*
X52954598Y35592837D01*
X52954598Y35592837D02*
X52716503Y35592837D01*
X52716503Y35592837D02*
X52621265Y35640456D01*
X52621265Y35640456D02*
X52573646Y35688075D01*
X52573646Y35688075D02*
X52526027Y35783313D01*
X52526027Y35783313D02*
X52526027Y35973789D01*
X52526027Y35973789D02*
X52573646Y36069027D01*
X52573646Y36069027D02*
X52621265Y36116646D01*
X52621265Y36116646D02*
X52716503Y36164265D01*
X48650859Y36999408D02*
X48174668Y37332741D01*
X48650859Y37570836D02*
X47650859Y37570836D01*
X47650859Y37570836D02*
X47650859Y37189884D01*
X47650859Y37189884D02*
X47698478Y37094646D01*
X47698478Y37094646D02*
X47746097Y37047027D01*
X47746097Y37047027D02*
X47841335Y36999408D01*
X47841335Y36999408D02*
X47984192Y36999408D01*
X47984192Y36999408D02*
X48079430Y37047027D01*
X48079430Y37047027D02*
X48127049Y37094646D01*
X48127049Y37094646D02*
X48174668Y37189884D01*
X48174668Y37189884D02*
X48174668Y37570836D01*
X47746097Y36618455D02*
X47698478Y36570836D01*
X47698478Y36570836D02*
X47650859Y36475598D01*
X47650859Y36475598D02*
X47650859Y36237503D01*
X47650859Y36237503D02*
X47698478Y36142265D01*
X47698478Y36142265D02*
X47746097Y36094646D01*
X47746097Y36094646D02*
X47841335Y36047027D01*
X47841335Y36047027D02*
X47936573Y36047027D01*
X47936573Y36047027D02*
X48079430Y36094646D01*
X48079430Y36094646D02*
X48650859Y36666074D01*
X48650859Y36666074D02*
X48650859Y36047027D01*
X90250380Y37416858D02*
X89774189Y37750191D01*
X90250380Y37988286D02*
X89250380Y37988286D01*
X89250380Y37988286D02*
X89250380Y37607334D01*
X89250380Y37607334D02*
X89297999Y37512096D01*
X89297999Y37512096D02*
X89345618Y37464477D01*
X89345618Y37464477D02*
X89440856Y37416858D01*
X89440856Y37416858D02*
X89583713Y37416858D01*
X89583713Y37416858D02*
X89678951Y37464477D01*
X89678951Y37464477D02*
X89726570Y37512096D01*
X89726570Y37512096D02*
X89774189Y37607334D01*
X89774189Y37607334D02*
X89774189Y37988286D01*
X89345618Y37035905D02*
X89297999Y36988286D01*
X89297999Y36988286D02*
X89250380Y36893048D01*
X89250380Y36893048D02*
X89250380Y36654953D01*
X89250380Y36654953D02*
X89297999Y36559715D01*
X89297999Y36559715D02*
X89345618Y36512096D01*
X89345618Y36512096D02*
X89440856Y36464477D01*
X89440856Y36464477D02*
X89536094Y36464477D01*
X89536094Y36464477D02*
X89678951Y36512096D01*
X89678951Y36512096D02*
X90250380Y37083524D01*
X90250380Y37083524D02*
X90250380Y36464477D01*
X89678951Y35893048D02*
X89631332Y35988286D01*
X89631332Y35988286D02*
X89583713Y36035905D01*
X89583713Y36035905D02*
X89488475Y36083524D01*
X89488475Y36083524D02*
X89440856Y36083524D01*
X89440856Y36083524D02*
X89345618Y36035905D01*
X89345618Y36035905D02*
X89297999Y35988286D01*
X89297999Y35988286D02*
X89250380Y35893048D01*
X89250380Y35893048D02*
X89250380Y35702572D01*
X89250380Y35702572D02*
X89297999Y35607334D01*
X89297999Y35607334D02*
X89345618Y35559715D01*
X89345618Y35559715D02*
X89440856Y35512096D01*
X89440856Y35512096D02*
X89488475Y35512096D01*
X89488475Y35512096D02*
X89583713Y35559715D01*
X89583713Y35559715D02*
X89631332Y35607334D01*
X89631332Y35607334D02*
X89678951Y35702572D01*
X89678951Y35702572D02*
X89678951Y35893048D01*
X89678951Y35893048D02*
X89726570Y35988286D01*
X89726570Y35988286D02*
X89774189Y36035905D01*
X89774189Y36035905D02*
X89869427Y36083524D01*
X89869427Y36083524D02*
X90059903Y36083524D01*
X90059903Y36083524D02*
X90155141Y36035905D01*
X90155141Y36035905D02*
X90202761Y35988286D01*
X90202761Y35988286D02*
X90250380Y35893048D01*
X90250380Y35893048D02*
X90250380Y35702572D01*
X90250380Y35702572D02*
X90202761Y35607334D01*
X90202761Y35607334D02*
X90155141Y35559715D01*
X90155141Y35559715D02*
X90059903Y35512096D01*
X90059903Y35512096D02*
X89869427Y35512096D01*
X89869427Y35512096D02*
X89774189Y35559715D01*
X89774189Y35559715D02*
X89726570Y35607334D01*
X89726570Y35607334D02*
X89678951Y35702572D01*
X70242819Y81612858D02*
X69766628Y81946191D01*
X70242819Y82184286D02*
X69242819Y82184286D01*
X69242819Y82184286D02*
X69242819Y81803334D01*
X69242819Y81803334D02*
X69290438Y81708096D01*
X69290438Y81708096D02*
X69338057Y81660477D01*
X69338057Y81660477D02*
X69433295Y81612858D01*
X69433295Y81612858D02*
X69576152Y81612858D01*
X69576152Y81612858D02*
X69671390Y81660477D01*
X69671390Y81660477D02*
X69719009Y81708096D01*
X69719009Y81708096D02*
X69766628Y81803334D01*
X69766628Y81803334D02*
X69766628Y82184286D01*
X69338057Y81231905D02*
X69290438Y81184286D01*
X69290438Y81184286D02*
X69242819Y81089048D01*
X69242819Y81089048D02*
X69242819Y80850953D01*
X69242819Y80850953D02*
X69290438Y80755715D01*
X69290438Y80755715D02*
X69338057Y80708096D01*
X69338057Y80708096D02*
X69433295Y80660477D01*
X69433295Y80660477D02*
X69528533Y80660477D01*
X69528533Y80660477D02*
X69671390Y80708096D01*
X69671390Y80708096D02*
X70242819Y81279524D01*
X70242819Y81279524D02*
X70242819Y80660477D01*
X70242819Y79708096D02*
X70242819Y80279524D01*
X70242819Y79993810D02*
X69242819Y79993810D01*
X69242819Y79993810D02*
X69385676Y80089048D01*
X69385676Y80089048D02*
X69480914Y80184286D01*
X69480914Y80184286D02*
X69528533Y80279524D01*
X41997080Y15497615D02*
X42044700Y15545234D01*
X42044700Y15545234D02*
X42092319Y15688091D01*
X42092319Y15688091D02*
X42092319Y15783329D01*
X42092319Y15783329D02*
X42044700Y15926186D01*
X42044700Y15926186D02*
X41949461Y16021424D01*
X41949461Y16021424D02*
X41854223Y16069043D01*
X41854223Y16069043D02*
X41663747Y16116662D01*
X41663747Y16116662D02*
X41520890Y16116662D01*
X41520890Y16116662D02*
X41330414Y16069043D01*
X41330414Y16069043D02*
X41235176Y16021424D01*
X41235176Y16021424D02*
X41139938Y15926186D01*
X41139938Y15926186D02*
X41092319Y15783329D01*
X41092319Y15783329D02*
X41092319Y15688091D01*
X41092319Y15688091D02*
X41139938Y15545234D01*
X41139938Y15545234D02*
X41187557Y15497615D01*
X41187557Y15116662D02*
X41139938Y15069043D01*
X41139938Y15069043D02*
X41092319Y14973805D01*
X41092319Y14973805D02*
X41092319Y14735710D01*
X41092319Y14735710D02*
X41139938Y14640472D01*
X41139938Y14640472D02*
X41187557Y14592853D01*
X41187557Y14592853D02*
X41282795Y14545234D01*
X41282795Y14545234D02*
X41378033Y14545234D01*
X41378033Y14545234D02*
X41520890Y14592853D01*
X41520890Y14592853D02*
X42092319Y15164281D01*
X42092319Y15164281D02*
X42092319Y14545234D01*
X41092319Y14211900D02*
X41092319Y13545234D01*
X41092319Y13545234D02*
X42092319Y13973805D01*
X62059580Y81497567D02*
X62107200Y81545186D01*
X62107200Y81545186D02*
X62154819Y81688043D01*
X62154819Y81688043D02*
X62154819Y81783281D01*
X62154819Y81783281D02*
X62107200Y81926138D01*
X62107200Y81926138D02*
X62011961Y82021376D01*
X62011961Y82021376D02*
X61916723Y82068995D01*
X61916723Y82068995D02*
X61726247Y82116614D01*
X61726247Y82116614D02*
X61583390Y82116614D01*
X61583390Y82116614D02*
X61392914Y82068995D01*
X61392914Y82068995D02*
X61297676Y82021376D01*
X61297676Y82021376D02*
X61202438Y81926138D01*
X61202438Y81926138D02*
X61154819Y81783281D01*
X61154819Y81783281D02*
X61154819Y81688043D01*
X61154819Y81688043D02*
X61202438Y81545186D01*
X61202438Y81545186D02*
X61250057Y81497567D01*
X61250057Y81116614D02*
X61202438Y81068995D01*
X61202438Y81068995D02*
X61154819Y80973757D01*
X61154819Y80973757D02*
X61154819Y80735662D01*
X61154819Y80735662D02*
X61202438Y80640424D01*
X61202438Y80640424D02*
X61250057Y80592805D01*
X61250057Y80592805D02*
X61345295Y80545186D01*
X61345295Y80545186D02*
X61440533Y80545186D01*
X61440533Y80545186D02*
X61583390Y80592805D01*
X61583390Y80592805D02*
X62154819Y81164233D01*
X62154819Y81164233D02*
X62154819Y80545186D01*
X61583390Y79973757D02*
X61535771Y80068995D01*
X61535771Y80068995D02*
X61488152Y80116614D01*
X61488152Y80116614D02*
X61392914Y80164233D01*
X61392914Y80164233D02*
X61345295Y80164233D01*
X61345295Y80164233D02*
X61250057Y80116614D01*
X61250057Y80116614D02*
X61202438Y80068995D01*
X61202438Y80068995D02*
X61154819Y79973757D01*
X61154819Y79973757D02*
X61154819Y79783281D01*
X61154819Y79783281D02*
X61202438Y79688043D01*
X61202438Y79688043D02*
X61250057Y79640424D01*
X61250057Y79640424D02*
X61345295Y79592805D01*
X61345295Y79592805D02*
X61392914Y79592805D01*
X61392914Y79592805D02*
X61488152Y79640424D01*
X61488152Y79640424D02*
X61535771Y79688043D01*
X61535771Y79688043D02*
X61583390Y79783281D01*
X61583390Y79783281D02*
X61583390Y79973757D01*
X61583390Y79973757D02*
X61631009Y80068995D01*
X61631009Y80068995D02*
X61678628Y80116614D01*
X61678628Y80116614D02*
X61773866Y80164233D01*
X61773866Y80164233D02*
X61964342Y80164233D01*
X61964342Y80164233D02*
X62059580Y80116614D01*
X62059580Y80116614D02*
X62107200Y80068995D01*
X62107200Y80068995D02*
X62154819Y79973757D01*
X62154819Y79973757D02*
X62154819Y79783281D01*
X62154819Y79783281D02*
X62107200Y79688043D01*
X62107200Y79688043D02*
X62059580Y79640424D01*
X62059580Y79640424D02*
X61964342Y79592805D01*
X61964342Y79592805D02*
X61773866Y79592805D01*
X61773866Y79592805D02*
X61678628Y79640424D01*
X61678628Y79640424D02*
X61631009Y79688043D01*
X61631009Y79688043D02*
X61583390Y79783281D01*
X73112336Y37497599D02*
X73159956Y37545218D01*
X73159956Y37545218D02*
X73207575Y37688075D01*
X73207575Y37688075D02*
X73207575Y37783313D01*
X73207575Y37783313D02*
X73159956Y37926170D01*
X73159956Y37926170D02*
X73064717Y38021408D01*
X73064717Y38021408D02*
X72969479Y38069027D01*
X72969479Y38069027D02*
X72779003Y38116646D01*
X72779003Y38116646D02*
X72636146Y38116646D01*
X72636146Y38116646D02*
X72445670Y38069027D01*
X72445670Y38069027D02*
X72350432Y38021408D01*
X72350432Y38021408D02*
X72255194Y37926170D01*
X72255194Y37926170D02*
X72207575Y37783313D01*
X72207575Y37783313D02*
X72207575Y37688075D01*
X72207575Y37688075D02*
X72255194Y37545218D01*
X72255194Y37545218D02*
X72302813Y37497599D01*
X72540908Y36640456D02*
X73207575Y36640456D01*
X72159956Y36878551D02*
X72874241Y37116646D01*
X72874241Y37116646D02*
X72874241Y36497599D01*
X72302813Y36164265D02*
X72255194Y36116646D01*
X72255194Y36116646D02*
X72207575Y36021408D01*
X72207575Y36021408D02*
X72207575Y35783313D01*
X72207575Y35783313D02*
X72255194Y35688075D01*
X72255194Y35688075D02*
X72302813Y35640456D01*
X72302813Y35640456D02*
X72398051Y35592837D01*
X72398051Y35592837D02*
X72493289Y35592837D01*
X72493289Y35592837D02*
X72636146Y35640456D01*
X72636146Y35640456D02*
X73207575Y36211884D01*
X73207575Y36211884D02*
X73207575Y35592837D01*
X51562327Y81021376D02*
X51609947Y81068995D01*
X51609947Y81068995D02*
X51657566Y81211852D01*
X51657566Y81211852D02*
X51657566Y81307090D01*
X51657566Y81307090D02*
X51609947Y81449947D01*
X51609947Y81449947D02*
X51514708Y81545185D01*
X51514708Y81545185D02*
X51419470Y81592804D01*
X51419470Y81592804D02*
X51228994Y81640423D01*
X51228994Y81640423D02*
X51086137Y81640423D01*
X51086137Y81640423D02*
X50895661Y81592804D01*
X50895661Y81592804D02*
X50800423Y81545185D01*
X50800423Y81545185D02*
X50705185Y81449947D01*
X50705185Y81449947D02*
X50657566Y81307090D01*
X50657566Y81307090D02*
X50657566Y81211852D01*
X50657566Y81211852D02*
X50705185Y81068995D01*
X50705185Y81068995D02*
X50752804Y81021376D01*
X50752804Y80640423D02*
X50705185Y80592804D01*
X50705185Y80592804D02*
X50657566Y80497566D01*
X50657566Y80497566D02*
X50657566Y80259471D01*
X50657566Y80259471D02*
X50705185Y80164233D01*
X50705185Y80164233D02*
X50752804Y80116614D01*
X50752804Y80116614D02*
X50848042Y80068995D01*
X50848042Y80068995D02*
X50943280Y80068995D01*
X50943280Y80068995D02*
X51086137Y80116614D01*
X51086137Y80116614D02*
X51657566Y80688042D01*
X51657566Y80688042D02*
X51657566Y80068995D01*
X43397080Y59475583D02*
X43444700Y59523202D01*
X43444700Y59523202D02*
X43492319Y59666059D01*
X43492319Y59666059D02*
X43492319Y59761297D01*
X43492319Y59761297D02*
X43444700Y59904154D01*
X43444700Y59904154D02*
X43349461Y59999392D01*
X43349461Y59999392D02*
X43254223Y60047011D01*
X43254223Y60047011D02*
X43063747Y60094630D01*
X43063747Y60094630D02*
X42920890Y60094630D01*
X42920890Y60094630D02*
X42730414Y60047011D01*
X42730414Y60047011D02*
X42635176Y59999392D01*
X42635176Y59999392D02*
X42539938Y59904154D01*
X42539938Y59904154D02*
X42492319Y59761297D01*
X42492319Y59761297D02*
X42492319Y59666059D01*
X42492319Y59666059D02*
X42539938Y59523202D01*
X42539938Y59523202D02*
X42587557Y59475583D01*
X43492319Y58523202D02*
X43492319Y59094630D01*
X43492319Y58808916D02*
X42492319Y58808916D01*
X42492319Y58808916D02*
X42635176Y58904154D01*
X42635176Y58904154D02*
X42730414Y58999392D01*
X42730414Y58999392D02*
X42778033Y59094630D01*
X42492319Y58189868D02*
X42492319Y57523202D01*
X42492319Y57523202D02*
X43492319Y57951773D01*
X85133580Y37416858D02*
X85181200Y37464477D01*
X85181200Y37464477D02*
X85228819Y37607334D01*
X85228819Y37607334D02*
X85228819Y37702572D01*
X85228819Y37702572D02*
X85181200Y37845429D01*
X85181200Y37845429D02*
X85085961Y37940667D01*
X85085961Y37940667D02*
X84990723Y37988286D01*
X84990723Y37988286D02*
X84800247Y38035905D01*
X84800247Y38035905D02*
X84657390Y38035905D01*
X84657390Y38035905D02*
X84466914Y37988286D01*
X84466914Y37988286D02*
X84371676Y37940667D01*
X84371676Y37940667D02*
X84276438Y37845429D01*
X84276438Y37845429D02*
X84228819Y37702572D01*
X84228819Y37702572D02*
X84228819Y37607334D01*
X84228819Y37607334D02*
X84276438Y37464477D01*
X84276438Y37464477D02*
X84324057Y37416858D01*
X84228819Y36559715D02*
X84228819Y36750191D01*
X84228819Y36750191D02*
X84276438Y36845429D01*
X84276438Y36845429D02*
X84324057Y36893048D01*
X84324057Y36893048D02*
X84466914Y36988286D01*
X84466914Y36988286D02*
X84657390Y37035905D01*
X84657390Y37035905D02*
X85038342Y37035905D01*
X85038342Y37035905D02*
X85133580Y36988286D01*
X85133580Y36988286D02*
X85181200Y36940667D01*
X85181200Y36940667D02*
X85228819Y36845429D01*
X85228819Y36845429D02*
X85228819Y36654953D01*
X85228819Y36654953D02*
X85181200Y36559715D01*
X85181200Y36559715D02*
X85133580Y36512096D01*
X85133580Y36512096D02*
X85038342Y36464477D01*
X85038342Y36464477D02*
X84800247Y36464477D01*
X84800247Y36464477D02*
X84705009Y36512096D01*
X84705009Y36512096D02*
X84657390Y36559715D01*
X84657390Y36559715D02*
X84609771Y36654953D01*
X84609771Y36654953D02*
X84609771Y36845429D01*
X84609771Y36845429D02*
X84657390Y36940667D01*
X84657390Y36940667D02*
X84705009Y36988286D01*
X84705009Y36988286D02*
X84800247Y37035905D01*
X85228819Y35988286D02*
X85228819Y35797810D01*
X85228819Y35797810D02*
X85181200Y35702572D01*
X85181200Y35702572D02*
X85133580Y35654953D01*
X85133580Y35654953D02*
X84990723Y35559715D01*
X84990723Y35559715D02*
X84800247Y35512096D01*
X84800247Y35512096D02*
X84419295Y35512096D01*
X84419295Y35512096D02*
X84324057Y35559715D01*
X84324057Y35559715D02*
X84276438Y35607334D01*
X84276438Y35607334D02*
X84228819Y35702572D01*
X84228819Y35702572D02*
X84228819Y35893048D01*
X84228819Y35893048D02*
X84276438Y35988286D01*
X84276438Y35988286D02*
X84324057Y36035905D01*
X84324057Y36035905D02*
X84419295Y36083524D01*
X84419295Y36083524D02*
X84657390Y36083524D01*
X84657390Y36083524D02*
X84752628Y36035905D01*
X84752628Y36035905D02*
X84800247Y35988286D01*
X84800247Y35988286D02*
X84847866Y35893048D01*
X84847866Y35893048D02*
X84847866Y35702572D01*
X84847866Y35702572D02*
X84800247Y35607334D01*
X84800247Y35607334D02*
X84752628Y35559715D01*
X84752628Y35559715D02*
X84657390Y35512096D01*
X83522080Y15475615D02*
X83569700Y15523234D01*
X83569700Y15523234D02*
X83617319Y15666091D01*
X83617319Y15666091D02*
X83617319Y15761329D01*
X83617319Y15761329D02*
X83569700Y15904186D01*
X83569700Y15904186D02*
X83474461Y15999424D01*
X83474461Y15999424D02*
X83379223Y16047043D01*
X83379223Y16047043D02*
X83188747Y16094662D01*
X83188747Y16094662D02*
X83045890Y16094662D01*
X83045890Y16094662D02*
X82855414Y16047043D01*
X82855414Y16047043D02*
X82760176Y15999424D01*
X82760176Y15999424D02*
X82664938Y15904186D01*
X82664938Y15904186D02*
X82617319Y15761329D01*
X82617319Y15761329D02*
X82617319Y15666091D01*
X82617319Y15666091D02*
X82664938Y15523234D01*
X82664938Y15523234D02*
X82712557Y15475615D01*
X82617319Y14570853D02*
X82617319Y15047043D01*
X82617319Y15047043D02*
X83093509Y15094662D01*
X83093509Y15094662D02*
X83045890Y15047043D01*
X83045890Y15047043D02*
X82998271Y14951805D01*
X82998271Y14951805D02*
X82998271Y14713710D01*
X82998271Y14713710D02*
X83045890Y14618472D01*
X83045890Y14618472D02*
X83093509Y14570853D01*
X83093509Y14570853D02*
X83188747Y14523234D01*
X83188747Y14523234D02*
X83426842Y14523234D01*
X83426842Y14523234D02*
X83522080Y14570853D01*
X83522080Y14570853D02*
X83569700Y14618472D01*
X83569700Y14618472D02*
X83617319Y14713710D01*
X83617319Y14713710D02*
X83617319Y14951805D01*
X83617319Y14951805D02*
X83569700Y15047043D01*
X83569700Y15047043D02*
X83522080Y15094662D01*
X82617319Y13618472D02*
X82617319Y14094662D01*
X82617319Y14094662D02*
X83093509Y14142281D01*
X83093509Y14142281D02*
X83045890Y14094662D01*
X83045890Y14094662D02*
X82998271Y13999424D01*
X82998271Y13999424D02*
X82998271Y13761329D01*
X82998271Y13761329D02*
X83045890Y13666091D01*
X83045890Y13666091D02*
X83093509Y13618472D01*
X83093509Y13618472D02*
X83188747Y13570853D01*
X83188747Y13570853D02*
X83426842Y13570853D01*
X83426842Y13570853D02*
X83522080Y13618472D01*
X83522080Y13618472D02*
X83569700Y13666091D01*
X83569700Y13666091D02*
X83617319Y13761329D01*
X83617319Y13761329D02*
X83617319Y13999424D01*
X83617319Y13999424D02*
X83569700Y14094662D01*
X83569700Y14094662D02*
X83522080Y14142281D01*
X88775859Y37475599D02*
X88299668Y37808932D01*
X88775859Y38047027D02*
X87775859Y38047027D01*
X87775859Y38047027D02*
X87775859Y37666075D01*
X87775859Y37666075D02*
X87823478Y37570837D01*
X87823478Y37570837D02*
X87871097Y37523218D01*
X87871097Y37523218D02*
X87966335Y37475599D01*
X87966335Y37475599D02*
X88109192Y37475599D01*
X88109192Y37475599D02*
X88204430Y37523218D01*
X88204430Y37523218D02*
X88252049Y37570837D01*
X88252049Y37570837D02*
X88299668Y37666075D01*
X88299668Y37666075D02*
X88299668Y38047027D01*
X88775859Y36523218D02*
X88775859Y37094646D01*
X88775859Y36808932D02*
X87775859Y36808932D01*
X87775859Y36808932D02*
X87918716Y36904170D01*
X87918716Y36904170D02*
X88013954Y36999408D01*
X88013954Y36999408D02*
X88061573Y37094646D01*
X87775859Y35666075D02*
X87775859Y35856551D01*
X87775859Y35856551D02*
X87823478Y35951789D01*
X87823478Y35951789D02*
X87871097Y35999408D01*
X87871097Y35999408D02*
X88013954Y36094646D01*
X88013954Y36094646D02*
X88204430Y36142265D01*
X88204430Y36142265D02*
X88585382Y36142265D01*
X88585382Y36142265D02*
X88680620Y36094646D01*
X88680620Y36094646D02*
X88728240Y36047027D01*
X88728240Y36047027D02*
X88775859Y35951789D01*
X88775859Y35951789D02*
X88775859Y35761313D01*
X88775859Y35761313D02*
X88728240Y35666075D01*
X88728240Y35666075D02*
X88680620Y35618456D01*
X88680620Y35618456D02*
X88585382Y35570837D01*
X88585382Y35570837D02*
X88347287Y35570837D01*
X88347287Y35570837D02*
X88252049Y35618456D01*
X88252049Y35618456D02*
X88204430Y35666075D01*
X88204430Y35666075D02*
X88156811Y35761313D01*
X88156811Y35761313D02*
X88156811Y35951789D01*
X88156811Y35951789D02*
X88204430Y36047027D01*
X88204430Y36047027D02*
X88252049Y36094646D01*
X88252049Y36094646D02*
X88347287Y36142265D01*
X71624827Y59497583D02*
X71672447Y59545202D01*
X71672447Y59545202D02*
X71720066Y59688059D01*
X71720066Y59688059D02*
X71720066Y59783297D01*
X71720066Y59783297D02*
X71672447Y59926154D01*
X71672447Y59926154D02*
X71577208Y60021392D01*
X71577208Y60021392D02*
X71481970Y60069011D01*
X71481970Y60069011D02*
X71291494Y60116630D01*
X71291494Y60116630D02*
X71148637Y60116630D01*
X71148637Y60116630D02*
X70958161Y60069011D01*
X70958161Y60069011D02*
X70862923Y60021392D01*
X70862923Y60021392D02*
X70767685Y59926154D01*
X70767685Y59926154D02*
X70720066Y59783297D01*
X70720066Y59783297D02*
X70720066Y59688059D01*
X70720066Y59688059D02*
X70767685Y59545202D01*
X70767685Y59545202D02*
X70815304Y59497583D01*
X70720066Y59164249D02*
X70720066Y58545202D01*
X70720066Y58545202D02*
X71101018Y58878535D01*
X71101018Y58878535D02*
X71101018Y58735678D01*
X71101018Y58735678D02*
X71148637Y58640440D01*
X71148637Y58640440D02*
X71196256Y58592821D01*
X71196256Y58592821D02*
X71291494Y58545202D01*
X71291494Y58545202D02*
X71529589Y58545202D01*
X71529589Y58545202D02*
X71624827Y58592821D01*
X71624827Y58592821D02*
X71672447Y58640440D01*
X71672447Y58640440D02*
X71720066Y58735678D01*
X71720066Y58735678D02*
X71720066Y59021392D01*
X71720066Y59021392D02*
X71672447Y59116630D01*
X71672447Y59116630D02*
X71624827Y59164249D01*
X70720066Y58211868D02*
X70720066Y57545202D01*
X70720066Y57545202D02*
X71720066Y57973773D01*
X48650859Y14999424D02*
X48174668Y15332757D01*
X48650859Y15570852D02*
X47650859Y15570852D01*
X47650859Y15570852D02*
X47650859Y15189900D01*
X47650859Y15189900D02*
X47698478Y15094662D01*
X47698478Y15094662D02*
X47746097Y15047043D01*
X47746097Y15047043D02*
X47841335Y14999424D01*
X47841335Y14999424D02*
X47984192Y14999424D01*
X47984192Y14999424D02*
X48079430Y15047043D01*
X48079430Y15047043D02*
X48127049Y15094662D01*
X48127049Y15094662D02*
X48174668Y15189900D01*
X48174668Y15189900D02*
X48174668Y15570852D01*
X48650859Y14523233D02*
X48650859Y14332757D01*
X48650859Y14332757D02*
X48603240Y14237519D01*
X48603240Y14237519D02*
X48555620Y14189900D01*
X48555620Y14189900D02*
X48412763Y14094662D01*
X48412763Y14094662D02*
X48222287Y14047043D01*
X48222287Y14047043D02*
X47841335Y14047043D01*
X47841335Y14047043D02*
X47746097Y14094662D01*
X47746097Y14094662D02*
X47698478Y14142281D01*
X47698478Y14142281D02*
X47650859Y14237519D01*
X47650859Y14237519D02*
X47650859Y14427995D01*
X47650859Y14427995D02*
X47698478Y14523233D01*
X47698478Y14523233D02*
X47746097Y14570852D01*
X47746097Y14570852D02*
X47841335Y14618471D01*
X47841335Y14618471D02*
X48079430Y14618471D01*
X48079430Y14618471D02*
X48174668Y14570852D01*
X48174668Y14570852D02*
X48222287Y14523233D01*
X48222287Y14523233D02*
X48269906Y14427995D01*
X48269906Y14427995D02*
X48269906Y14237519D01*
X48269906Y14237519D02*
X48222287Y14142281D01*
X48222287Y14142281D02*
X48174668Y14094662D01*
X48174668Y14094662D02*
X48079430Y14047043D01*
X93174836Y59497583D02*
X93222456Y59545202D01*
X93222456Y59545202D02*
X93270075Y59688059D01*
X93270075Y59688059D02*
X93270075Y59783297D01*
X93270075Y59783297D02*
X93222456Y59926154D01*
X93222456Y59926154D02*
X93127217Y60021392D01*
X93127217Y60021392D02*
X93031979Y60069011D01*
X93031979Y60069011D02*
X92841503Y60116630D01*
X92841503Y60116630D02*
X92698646Y60116630D01*
X92698646Y60116630D02*
X92508170Y60069011D01*
X92508170Y60069011D02*
X92412932Y60021392D01*
X92412932Y60021392D02*
X92317694Y59926154D01*
X92317694Y59926154D02*
X92270075Y59783297D01*
X92270075Y59783297D02*
X92270075Y59688059D01*
X92270075Y59688059D02*
X92317694Y59545202D01*
X92317694Y59545202D02*
X92365313Y59497583D01*
X92270075Y58592821D02*
X92270075Y59069011D01*
X92270075Y59069011D02*
X92746265Y59116630D01*
X92746265Y59116630D02*
X92698646Y59069011D01*
X92698646Y59069011D02*
X92651027Y58973773D01*
X92651027Y58973773D02*
X92651027Y58735678D01*
X92651027Y58735678D02*
X92698646Y58640440D01*
X92698646Y58640440D02*
X92746265Y58592821D01*
X92746265Y58592821D02*
X92841503Y58545202D01*
X92841503Y58545202D02*
X93079598Y58545202D01*
X93079598Y58545202D02*
X93174836Y58592821D01*
X93174836Y58592821D02*
X93222456Y58640440D01*
X93222456Y58640440D02*
X93270075Y58735678D01*
X93270075Y58735678D02*
X93270075Y58973773D01*
X93270075Y58973773D02*
X93222456Y59069011D01*
X93222456Y59069011D02*
X93174836Y59116630D01*
X92270075Y58211868D02*
X92270075Y57545202D01*
X92270075Y57545202D02*
X93270075Y57973773D01*
X82122080Y81497567D02*
X82169700Y81545186D01*
X82169700Y81545186D02*
X82217319Y81688043D01*
X82217319Y81688043D02*
X82217319Y81783281D01*
X82217319Y81783281D02*
X82169700Y81926138D01*
X82169700Y81926138D02*
X82074461Y82021376D01*
X82074461Y82021376D02*
X81979223Y82068995D01*
X81979223Y82068995D02*
X81788747Y82116614D01*
X81788747Y82116614D02*
X81645890Y82116614D01*
X81645890Y82116614D02*
X81455414Y82068995D01*
X81455414Y82068995D02*
X81360176Y82021376D01*
X81360176Y82021376D02*
X81264938Y81926138D01*
X81264938Y81926138D02*
X81217319Y81783281D01*
X81217319Y81783281D02*
X81217319Y81688043D01*
X81217319Y81688043D02*
X81264938Y81545186D01*
X81264938Y81545186D02*
X81312557Y81497567D01*
X81550652Y80640424D02*
X82217319Y80640424D01*
X81169700Y80878519D02*
X81883985Y81116614D01*
X81883985Y81116614D02*
X81883985Y80497567D01*
X81550652Y79688043D02*
X82217319Y79688043D01*
X81169700Y79926138D02*
X81883985Y80164233D01*
X81883985Y80164233D02*
X81883985Y79545186D01*
X83522080Y37475599D02*
X83569700Y37523218D01*
X83569700Y37523218D02*
X83617319Y37666075D01*
X83617319Y37666075D02*
X83617319Y37761313D01*
X83617319Y37761313D02*
X83569700Y37904170D01*
X83569700Y37904170D02*
X83474461Y37999408D01*
X83474461Y37999408D02*
X83379223Y38047027D01*
X83379223Y38047027D02*
X83188747Y38094646D01*
X83188747Y38094646D02*
X83045890Y38094646D01*
X83045890Y38094646D02*
X82855414Y38047027D01*
X82855414Y38047027D02*
X82760176Y37999408D01*
X82760176Y37999408D02*
X82664938Y37904170D01*
X82664938Y37904170D02*
X82617319Y37761313D01*
X82617319Y37761313D02*
X82617319Y37666075D01*
X82617319Y37666075D02*
X82664938Y37523218D01*
X82664938Y37523218D02*
X82712557Y37475599D01*
X82617319Y36570837D02*
X82617319Y37047027D01*
X82617319Y37047027D02*
X83093509Y37094646D01*
X83093509Y37094646D02*
X83045890Y37047027D01*
X83045890Y37047027D02*
X82998271Y36951789D01*
X82998271Y36951789D02*
X82998271Y36713694D01*
X82998271Y36713694D02*
X83045890Y36618456D01*
X83045890Y36618456D02*
X83093509Y36570837D01*
X83093509Y36570837D02*
X83188747Y36523218D01*
X83188747Y36523218D02*
X83426842Y36523218D01*
X83426842Y36523218D02*
X83522080Y36570837D01*
X83522080Y36570837D02*
X83569700Y36618456D01*
X83569700Y36618456D02*
X83617319Y36713694D01*
X83617319Y36713694D02*
X83617319Y36951789D01*
X83617319Y36951789D02*
X83569700Y37047027D01*
X83569700Y37047027D02*
X83522080Y37094646D01*
X82617319Y35904170D02*
X82617319Y35808932D01*
X82617319Y35808932D02*
X82664938Y35713694D01*
X82664938Y35713694D02*
X82712557Y35666075D01*
X82712557Y35666075D02*
X82807795Y35618456D01*
X82807795Y35618456D02*
X82998271Y35570837D01*
X82998271Y35570837D02*
X83236366Y35570837D01*
X83236366Y35570837D02*
X83426842Y35618456D01*
X83426842Y35618456D02*
X83522080Y35666075D01*
X83522080Y35666075D02*
X83569700Y35713694D01*
X83569700Y35713694D02*
X83617319Y35808932D01*
X83617319Y35808932D02*
X83617319Y35904170D01*
X83617319Y35904170D02*
X83569700Y35999408D01*
X83569700Y35999408D02*
X83522080Y36047027D01*
X83522080Y36047027D02*
X83426842Y36094646D01*
X83426842Y36094646D02*
X83236366Y36142265D01*
X83236366Y36142265D02*
X82998271Y36142265D01*
X82998271Y36142265D02*
X82807795Y36094646D01*
X82807795Y36094646D02*
X82712557Y36047027D01*
X82712557Y36047027D02*
X82664938Y35999408D01*
X82664938Y35999408D02*
X82617319Y35904170D01*
X45005080Y59514858D02*
X45052700Y59562477D01*
X45052700Y59562477D02*
X45100319Y59705334D01*
X45100319Y59705334D02*
X45100319Y59800572D01*
X45100319Y59800572D02*
X45052700Y59943429D01*
X45052700Y59943429D02*
X44957461Y60038667D01*
X44957461Y60038667D02*
X44862223Y60086286D01*
X44862223Y60086286D02*
X44671747Y60133905D01*
X44671747Y60133905D02*
X44528890Y60133905D01*
X44528890Y60133905D02*
X44338414Y60086286D01*
X44338414Y60086286D02*
X44243176Y60038667D01*
X44243176Y60038667D02*
X44147938Y59943429D01*
X44147938Y59943429D02*
X44100319Y59800572D01*
X44100319Y59800572D02*
X44100319Y59705334D01*
X44100319Y59705334D02*
X44147938Y59562477D01*
X44147938Y59562477D02*
X44195557Y59514858D01*
X44100319Y58657715D02*
X44100319Y58848191D01*
X44100319Y58848191D02*
X44147938Y58943429D01*
X44147938Y58943429D02*
X44195557Y58991048D01*
X44195557Y58991048D02*
X44338414Y59086286D01*
X44338414Y59086286D02*
X44528890Y59133905D01*
X44528890Y59133905D02*
X44909842Y59133905D01*
X44909842Y59133905D02*
X45005080Y59086286D01*
X45005080Y59086286D02*
X45052700Y59038667D01*
X45052700Y59038667D02*
X45100319Y58943429D01*
X45100319Y58943429D02*
X45100319Y58752953D01*
X45100319Y58752953D02*
X45052700Y58657715D01*
X45052700Y58657715D02*
X45005080Y58610096D01*
X45005080Y58610096D02*
X44909842Y58562477D01*
X44909842Y58562477D02*
X44671747Y58562477D01*
X44671747Y58562477D02*
X44576509Y58610096D01*
X44576509Y58610096D02*
X44528890Y58657715D01*
X44528890Y58657715D02*
X44481271Y58752953D01*
X44481271Y58752953D02*
X44481271Y58943429D01*
X44481271Y58943429D02*
X44528890Y59038667D01*
X44528890Y59038667D02*
X44576509Y59086286D01*
X44576509Y59086286D02*
X44671747Y59133905D01*
X45100319Y57610096D02*
X45100319Y58181524D01*
X45100319Y57895810D02*
X44100319Y57895810D01*
X44100319Y57895810D02*
X44243176Y57991048D01*
X44243176Y57991048D02*
X44338414Y58086286D01*
X44338414Y58086286D02*
X44386033Y58181524D01*
X53049836Y81021376D02*
X53097456Y81068995D01*
X53097456Y81068995D02*
X53145075Y81211852D01*
X53145075Y81211852D02*
X53145075Y81307090D01*
X53145075Y81307090D02*
X53097456Y81449947D01*
X53097456Y81449947D02*
X53002217Y81545185D01*
X53002217Y81545185D02*
X52906979Y81592804D01*
X52906979Y81592804D02*
X52716503Y81640423D01*
X52716503Y81640423D02*
X52573646Y81640423D01*
X52573646Y81640423D02*
X52383170Y81592804D01*
X52383170Y81592804D02*
X52287932Y81545185D01*
X52287932Y81545185D02*
X52192694Y81449947D01*
X52192694Y81449947D02*
X52145075Y81307090D01*
X52145075Y81307090D02*
X52145075Y81211852D01*
X52145075Y81211852D02*
X52192694Y81068995D01*
X52192694Y81068995D02*
X52240313Y81021376D01*
X52478408Y80164233D02*
X53145075Y80164233D01*
X52097456Y80402328D02*
X52811741Y80640423D01*
X52811741Y80640423D02*
X52811741Y80021376D01*
X73112336Y59497583D02*
X73159956Y59545202D01*
X73159956Y59545202D02*
X73207575Y59688059D01*
X73207575Y59688059D02*
X73207575Y59783297D01*
X73207575Y59783297D02*
X73159956Y59926154D01*
X73159956Y59926154D02*
X73064717Y60021392D01*
X73064717Y60021392D02*
X72969479Y60069011D01*
X72969479Y60069011D02*
X72779003Y60116630D01*
X72779003Y60116630D02*
X72636146Y60116630D01*
X72636146Y60116630D02*
X72445670Y60069011D01*
X72445670Y60069011D02*
X72350432Y60021392D01*
X72350432Y60021392D02*
X72255194Y59926154D01*
X72255194Y59926154D02*
X72207575Y59783297D01*
X72207575Y59783297D02*
X72207575Y59688059D01*
X72207575Y59688059D02*
X72255194Y59545202D01*
X72255194Y59545202D02*
X72302813Y59497583D01*
X72540908Y58640440D02*
X73207575Y58640440D01*
X72159956Y58878535D02*
X72874241Y59116630D01*
X72874241Y59116630D02*
X72874241Y58497583D01*
X73207575Y57592821D02*
X73207575Y58164249D01*
X73207575Y57878535D02*
X72207575Y57878535D01*
X72207575Y57878535D02*
X72350432Y57973773D01*
X72350432Y57973773D02*
X72445670Y58069011D01*
X72445670Y58069011D02*
X72493289Y58164249D01*
X71624827Y37497599D02*
X71672447Y37545218D01*
X71672447Y37545218D02*
X71720066Y37688075D01*
X71720066Y37688075D02*
X71720066Y37783313D01*
X71720066Y37783313D02*
X71672447Y37926170D01*
X71672447Y37926170D02*
X71577208Y38021408D01*
X71577208Y38021408D02*
X71481970Y38069027D01*
X71481970Y38069027D02*
X71291494Y38116646D01*
X71291494Y38116646D02*
X71148637Y38116646D01*
X71148637Y38116646D02*
X70958161Y38069027D01*
X70958161Y38069027D02*
X70862923Y38021408D01*
X70862923Y38021408D02*
X70767685Y37926170D01*
X70767685Y37926170D02*
X70720066Y37783313D01*
X70720066Y37783313D02*
X70720066Y37688075D01*
X70720066Y37688075D02*
X70767685Y37545218D01*
X70767685Y37545218D02*
X70815304Y37497599D01*
X70720066Y37164265D02*
X70720066Y36545218D01*
X70720066Y36545218D02*
X71101018Y36878551D01*
X71101018Y36878551D02*
X71101018Y36735694D01*
X71101018Y36735694D02*
X71148637Y36640456D01*
X71148637Y36640456D02*
X71196256Y36592837D01*
X71196256Y36592837D02*
X71291494Y36545218D01*
X71291494Y36545218D02*
X71529589Y36545218D01*
X71529589Y36545218D02*
X71624827Y36592837D01*
X71624827Y36592837D02*
X71672447Y36640456D01*
X71672447Y36640456D02*
X71720066Y36735694D01*
X71720066Y36735694D02*
X71720066Y37021408D01*
X71720066Y37021408D02*
X71672447Y37116646D01*
X71672447Y37116646D02*
X71624827Y37164265D01*
X71148637Y35973789D02*
X71101018Y36069027D01*
X71101018Y36069027D02*
X71053399Y36116646D01*
X71053399Y36116646D02*
X70958161Y36164265D01*
X70958161Y36164265D02*
X70910542Y36164265D01*
X70910542Y36164265D02*
X70815304Y36116646D01*
X70815304Y36116646D02*
X70767685Y36069027D01*
X70767685Y36069027D02*
X70720066Y35973789D01*
X70720066Y35973789D02*
X70720066Y35783313D01*
X70720066Y35783313D02*
X70767685Y35688075D01*
X70767685Y35688075D02*
X70815304Y35640456D01*
X70815304Y35640456D02*
X70910542Y35592837D01*
X70910542Y35592837D02*
X70958161Y35592837D01*
X70958161Y35592837D02*
X71053399Y35640456D01*
X71053399Y35640456D02*
X71101018Y35688075D01*
X71101018Y35688075D02*
X71148637Y35783313D01*
X71148637Y35783313D02*
X71148637Y35973789D01*
X71148637Y35973789D02*
X71196256Y36069027D01*
X71196256Y36069027D02*
X71243875Y36116646D01*
X71243875Y36116646D02*
X71339113Y36164265D01*
X71339113Y36164265D02*
X71529589Y36164265D01*
X71529589Y36164265D02*
X71624827Y36116646D01*
X71624827Y36116646D02*
X71672447Y36069027D01*
X71672447Y36069027D02*
X71720066Y35973789D01*
X71720066Y35973789D02*
X71720066Y35783313D01*
X71720066Y35783313D02*
X71672447Y35688075D01*
X71672447Y35688075D02*
X71624827Y35640456D01*
X71624827Y35640456D02*
X71529589Y35592837D01*
X71529589Y35592837D02*
X71339113Y35592837D01*
X71339113Y35592837D02*
X71243875Y35640456D01*
X71243875Y35640456D02*
X71196256Y35688075D01*
X71196256Y35688075D02*
X71148637Y35783313D01*
X41997080Y59021392D02*
X42044700Y59069011D01*
X42044700Y59069011D02*
X42092319Y59211868D01*
X42092319Y59211868D02*
X42092319Y59307106D01*
X42092319Y59307106D02*
X42044700Y59449963D01*
X42044700Y59449963D02*
X41949461Y59545201D01*
X41949461Y59545201D02*
X41854223Y59592820D01*
X41854223Y59592820D02*
X41663747Y59640439D01*
X41663747Y59640439D02*
X41520890Y59640439D01*
X41520890Y59640439D02*
X41330414Y59592820D01*
X41330414Y59592820D02*
X41235176Y59545201D01*
X41235176Y59545201D02*
X41139938Y59449963D01*
X41139938Y59449963D02*
X41092319Y59307106D01*
X41092319Y59307106D02*
X41092319Y59211868D01*
X41092319Y59211868D02*
X41139938Y59069011D01*
X41139938Y59069011D02*
X41187557Y59021392D01*
X41092319Y58116630D02*
X41092319Y58592820D01*
X41092319Y58592820D02*
X41568509Y58640439D01*
X41568509Y58640439D02*
X41520890Y58592820D01*
X41520890Y58592820D02*
X41473271Y58497582D01*
X41473271Y58497582D02*
X41473271Y58259487D01*
X41473271Y58259487D02*
X41520890Y58164249D01*
X41520890Y58164249D02*
X41568509Y58116630D01*
X41568509Y58116630D02*
X41663747Y58069011D01*
X41663747Y58069011D02*
X41901842Y58069011D01*
X41901842Y58069011D02*
X41997080Y58116630D01*
X41997080Y58116630D02*
X42044700Y58164249D01*
X42044700Y58164249D02*
X42092319Y58259487D01*
X42092319Y58259487D02*
X42092319Y58497582D01*
X42092319Y58497582D02*
X42044700Y58592820D01*
X42044700Y58592820D02*
X41997080Y58640439D01*
X41997080Y81021376D02*
X42044700Y81068995D01*
X42044700Y81068995D02*
X42092319Y81211852D01*
X42092319Y81211852D02*
X42092319Y81307090D01*
X42092319Y81307090D02*
X42044700Y81449947D01*
X42044700Y81449947D02*
X41949461Y81545185D01*
X41949461Y81545185D02*
X41854223Y81592804D01*
X41854223Y81592804D02*
X41663747Y81640423D01*
X41663747Y81640423D02*
X41520890Y81640423D01*
X41520890Y81640423D02*
X41330414Y81592804D01*
X41330414Y81592804D02*
X41235176Y81545185D01*
X41235176Y81545185D02*
X41139938Y81449947D01*
X41139938Y81449947D02*
X41092319Y81307090D01*
X41092319Y81307090D02*
X41092319Y81211852D01*
X41092319Y81211852D02*
X41139938Y81068995D01*
X41139938Y81068995D02*
X41187557Y81021376D01*
X41092319Y80688042D02*
X41092319Y80068995D01*
X41092319Y80068995D02*
X41473271Y80402328D01*
X41473271Y80402328D02*
X41473271Y80259471D01*
X41473271Y80259471D02*
X41520890Y80164233D01*
X41520890Y80164233D02*
X41568509Y80116614D01*
X41568509Y80116614D02*
X41663747Y80068995D01*
X41663747Y80068995D02*
X41901842Y80068995D01*
X41901842Y80068995D02*
X41997080Y80116614D01*
X41997080Y80116614D02*
X42044700Y80164233D01*
X42044700Y80164233D02*
X42092319Y80259471D01*
X42092319Y80259471D02*
X42092319Y80545185D01*
X42092319Y80545185D02*
X42044700Y80640423D01*
X42044700Y80640423D02*
X41997080Y80688042D01*
X91687327Y81497567D02*
X91734947Y81545186D01*
X91734947Y81545186D02*
X91782566Y81688043D01*
X91782566Y81688043D02*
X91782566Y81783281D01*
X91782566Y81783281D02*
X91734947Y81926138D01*
X91734947Y81926138D02*
X91639708Y82021376D01*
X91639708Y82021376D02*
X91544470Y82068995D01*
X91544470Y82068995D02*
X91353994Y82116614D01*
X91353994Y82116614D02*
X91211137Y82116614D01*
X91211137Y82116614D02*
X91020661Y82068995D01*
X91020661Y82068995D02*
X90925423Y82021376D01*
X90925423Y82021376D02*
X90830185Y81926138D01*
X90830185Y81926138D02*
X90782566Y81783281D01*
X90782566Y81783281D02*
X90782566Y81688043D01*
X90782566Y81688043D02*
X90830185Y81545186D01*
X90830185Y81545186D02*
X90877804Y81497567D01*
X90782566Y80592805D02*
X90782566Y81068995D01*
X90782566Y81068995D02*
X91258756Y81116614D01*
X91258756Y81116614D02*
X91211137Y81068995D01*
X91211137Y81068995D02*
X91163518Y80973757D01*
X91163518Y80973757D02*
X91163518Y80735662D01*
X91163518Y80735662D02*
X91211137Y80640424D01*
X91211137Y80640424D02*
X91258756Y80592805D01*
X91258756Y80592805D02*
X91353994Y80545186D01*
X91353994Y80545186D02*
X91592089Y80545186D01*
X91592089Y80545186D02*
X91687327Y80592805D01*
X91687327Y80592805D02*
X91734947Y80640424D01*
X91734947Y80640424D02*
X91782566Y80735662D01*
X91782566Y80735662D02*
X91782566Y80973757D01*
X91782566Y80973757D02*
X91734947Y81068995D01*
X91734947Y81068995D02*
X91687327Y81116614D01*
X90877804Y80164233D02*
X90830185Y80116614D01*
X90830185Y80116614D02*
X90782566Y80021376D01*
X90782566Y80021376D02*
X90782566Y79783281D01*
X90782566Y79783281D02*
X90830185Y79688043D01*
X90830185Y79688043D02*
X90877804Y79640424D01*
X90877804Y79640424D02*
X90973042Y79592805D01*
X90973042Y79592805D02*
X91068280Y79592805D01*
X91068280Y79592805D02*
X91211137Y79640424D01*
X91211137Y79640424D02*
X91782566Y80211852D01*
X91782566Y80211852D02*
X91782566Y79592805D01*
X50118380Y15572858D02*
X49642189Y15906191D01*
X50118380Y16144286D02*
X49118380Y16144286D01*
X49118380Y16144286D02*
X49118380Y15763334D01*
X49118380Y15763334D02*
X49165999Y15668096D01*
X49165999Y15668096D02*
X49213618Y15620477D01*
X49213618Y15620477D02*
X49308856Y15572858D01*
X49308856Y15572858D02*
X49451713Y15572858D01*
X49451713Y15572858D02*
X49546951Y15620477D01*
X49546951Y15620477D02*
X49594570Y15668096D01*
X49594570Y15668096D02*
X49642189Y15763334D01*
X49642189Y15763334D02*
X49642189Y16144286D01*
X49213618Y15191905D02*
X49165999Y15144286D01*
X49165999Y15144286D02*
X49118380Y15049048D01*
X49118380Y15049048D02*
X49118380Y14810953D01*
X49118380Y14810953D02*
X49165999Y14715715D01*
X49165999Y14715715D02*
X49213618Y14668096D01*
X49213618Y14668096D02*
X49308856Y14620477D01*
X49308856Y14620477D02*
X49404094Y14620477D01*
X49404094Y14620477D02*
X49546951Y14668096D01*
X49546951Y14668096D02*
X50118380Y15239524D01*
X50118380Y15239524D02*
X50118380Y14620477D01*
X50118380Y14144286D02*
X50118380Y13953810D01*
X50118380Y13953810D02*
X50070761Y13858572D01*
X50070761Y13858572D02*
X50023141Y13810953D01*
X50023141Y13810953D02*
X49880284Y13715715D01*
X49880284Y13715715D02*
X49689808Y13668096D01*
X49689808Y13668096D02*
X49308856Y13668096D01*
X49308856Y13668096D02*
X49213618Y13715715D01*
X49213618Y13715715D02*
X49165999Y13763334D01*
X49165999Y13763334D02*
X49118380Y13858572D01*
X49118380Y13858572D02*
X49118380Y14049048D01*
X49118380Y14049048D02*
X49165999Y14144286D01*
X49165999Y14144286D02*
X49213618Y14191905D01*
X49213618Y14191905D02*
X49308856Y14239524D01*
X49308856Y14239524D02*
X49546951Y14239524D01*
X49546951Y14239524D02*
X49642189Y14191905D01*
X49642189Y14191905D02*
X49689808Y14144286D01*
X49689808Y14144286D02*
X49737427Y14049048D01*
X49737427Y14049048D02*
X49737427Y13858572D01*
X49737427Y13858572D02*
X49689808Y13763334D01*
X49689808Y13763334D02*
X49642189Y13715715D01*
X49642189Y13715715D02*
X49546951Y13668096D01*
X43397080Y80999376D02*
X43444700Y81046995D01*
X43444700Y81046995D02*
X43492319Y81189852D01*
X43492319Y81189852D02*
X43492319Y81285090D01*
X43492319Y81285090D02*
X43444700Y81427947D01*
X43444700Y81427947D02*
X43349461Y81523185D01*
X43349461Y81523185D02*
X43254223Y81570804D01*
X43254223Y81570804D02*
X43063747Y81618423D01*
X43063747Y81618423D02*
X42920890Y81618423D01*
X42920890Y81618423D02*
X42730414Y81570804D01*
X42730414Y81570804D02*
X42635176Y81523185D01*
X42635176Y81523185D02*
X42539938Y81427947D01*
X42539938Y81427947D02*
X42492319Y81285090D01*
X42492319Y81285090D02*
X42492319Y81189852D01*
X42492319Y81189852D02*
X42539938Y81046995D01*
X42539938Y81046995D02*
X42587557Y80999376D01*
X43492319Y80046995D02*
X43492319Y80618423D01*
X43492319Y80332709D02*
X42492319Y80332709D01*
X42492319Y80332709D02*
X42635176Y80427947D01*
X42635176Y80427947D02*
X42730414Y80523185D01*
X42730414Y80523185D02*
X42778033Y80618423D01*
X53049836Y15497615D02*
X53097456Y15545234D01*
X53097456Y15545234D02*
X53145075Y15688091D01*
X53145075Y15688091D02*
X53145075Y15783329D01*
X53145075Y15783329D02*
X53097456Y15926186D01*
X53097456Y15926186D02*
X53002217Y16021424D01*
X53002217Y16021424D02*
X52906979Y16069043D01*
X52906979Y16069043D02*
X52716503Y16116662D01*
X52716503Y16116662D02*
X52573646Y16116662D01*
X52573646Y16116662D02*
X52383170Y16069043D01*
X52383170Y16069043D02*
X52287932Y16021424D01*
X52287932Y16021424D02*
X52192694Y15926186D01*
X52192694Y15926186D02*
X52145075Y15783329D01*
X52145075Y15783329D02*
X52145075Y15688091D01*
X52145075Y15688091D02*
X52192694Y15545234D01*
X52192694Y15545234D02*
X52240313Y15497615D01*
X52240313Y15116662D02*
X52192694Y15069043D01*
X52192694Y15069043D02*
X52145075Y14973805D01*
X52145075Y14973805D02*
X52145075Y14735710D01*
X52145075Y14735710D02*
X52192694Y14640472D01*
X52192694Y14640472D02*
X52240313Y14592853D01*
X52240313Y14592853D02*
X52335551Y14545234D01*
X52335551Y14545234D02*
X52430789Y14545234D01*
X52430789Y14545234D02*
X52573646Y14592853D01*
X52573646Y14592853D02*
X53145075Y15164281D01*
X53145075Y15164281D02*
X53145075Y14545234D01*
X52145075Y14211900D02*
X52145075Y13592853D01*
X52145075Y13592853D02*
X52526027Y13926186D01*
X52526027Y13926186D02*
X52526027Y13783329D01*
X52526027Y13783329D02*
X52573646Y13688091D01*
X52573646Y13688091D02*
X52621265Y13640472D01*
X52621265Y13640472D02*
X52716503Y13592853D01*
X52716503Y13592853D02*
X52954598Y13592853D01*
X52954598Y13592853D02*
X53049836Y13640472D01*
X53049836Y13640472D02*
X53097456Y13688091D01*
X53097456Y13688091D02*
X53145075Y13783329D01*
X53145075Y13783329D02*
X53145075Y14069043D01*
X53145075Y14069043D02*
X53097456Y14164281D01*
X53097456Y14164281D02*
X53049836Y14211900D01*
X63459580Y15475615D02*
X63507200Y15523234D01*
X63507200Y15523234D02*
X63554819Y15666091D01*
X63554819Y15666091D02*
X63554819Y15761329D01*
X63554819Y15761329D02*
X63507200Y15904186D01*
X63507200Y15904186D02*
X63411961Y15999424D01*
X63411961Y15999424D02*
X63316723Y16047043D01*
X63316723Y16047043D02*
X63126247Y16094662D01*
X63126247Y16094662D02*
X62983390Y16094662D01*
X62983390Y16094662D02*
X62792914Y16047043D01*
X62792914Y16047043D02*
X62697676Y15999424D01*
X62697676Y15999424D02*
X62602438Y15904186D01*
X62602438Y15904186D02*
X62554819Y15761329D01*
X62554819Y15761329D02*
X62554819Y15666091D01*
X62554819Y15666091D02*
X62602438Y15523234D01*
X62602438Y15523234D02*
X62650057Y15475615D01*
X62554819Y15142281D02*
X62554819Y14523234D01*
X62554819Y14523234D02*
X62935771Y14856567D01*
X62935771Y14856567D02*
X62935771Y14713710D01*
X62935771Y14713710D02*
X62983390Y14618472D01*
X62983390Y14618472D02*
X63031009Y14570853D01*
X63031009Y14570853D02*
X63126247Y14523234D01*
X63126247Y14523234D02*
X63364342Y14523234D01*
X63364342Y14523234D02*
X63459580Y14570853D01*
X63459580Y14570853D02*
X63507200Y14618472D01*
X63507200Y14618472D02*
X63554819Y14713710D01*
X63554819Y14713710D02*
X63554819Y14999424D01*
X63554819Y14999424D02*
X63507200Y15094662D01*
X63507200Y15094662D02*
X63459580Y15142281D01*
X63554819Y14047043D02*
X63554819Y13856567D01*
X63554819Y13856567D02*
X63507200Y13761329D01*
X63507200Y13761329D02*
X63459580Y13713710D01*
X63459580Y13713710D02*
X63316723Y13618472D01*
X63316723Y13618472D02*
X63126247Y13570853D01*
X63126247Y13570853D02*
X62745295Y13570853D01*
X62745295Y13570853D02*
X62650057Y13618472D01*
X62650057Y13618472D02*
X62602438Y13666091D01*
X62602438Y13666091D02*
X62554819Y13761329D01*
X62554819Y13761329D02*
X62554819Y13951805D01*
X62554819Y13951805D02*
X62602438Y14047043D01*
X62602438Y14047043D02*
X62650057Y14094662D01*
X62650057Y14094662D02*
X62745295Y14142281D01*
X62745295Y14142281D02*
X62983390Y14142281D01*
X62983390Y14142281D02*
X63078628Y14094662D01*
X63078628Y14094662D02*
X63126247Y14047043D01*
X63126247Y14047043D02*
X63173866Y13951805D01*
X63173866Y13951805D02*
X63173866Y13761329D01*
X63173866Y13761329D02*
X63126247Y13666091D01*
X63126247Y13666091D02*
X63078628Y13618472D01*
X63078628Y13618472D02*
X62983390Y13570853D01*
X82122080Y15497615D02*
X82169700Y15545234D01*
X82169700Y15545234D02*
X82217319Y15688091D01*
X82217319Y15688091D02*
X82217319Y15783329D01*
X82217319Y15783329D02*
X82169700Y15926186D01*
X82169700Y15926186D02*
X82074461Y16021424D01*
X82074461Y16021424D02*
X81979223Y16069043D01*
X81979223Y16069043D02*
X81788747Y16116662D01*
X81788747Y16116662D02*
X81645890Y16116662D01*
X81645890Y16116662D02*
X81455414Y16069043D01*
X81455414Y16069043D02*
X81360176Y16021424D01*
X81360176Y16021424D02*
X81264938Y15926186D01*
X81264938Y15926186D02*
X81217319Y15783329D01*
X81217319Y15783329D02*
X81217319Y15688091D01*
X81217319Y15688091D02*
X81264938Y15545234D01*
X81264938Y15545234D02*
X81312557Y15497615D01*
X81217319Y14592853D02*
X81217319Y15069043D01*
X81217319Y15069043D02*
X81693509Y15116662D01*
X81693509Y15116662D02*
X81645890Y15069043D01*
X81645890Y15069043D02*
X81598271Y14973805D01*
X81598271Y14973805D02*
X81598271Y14735710D01*
X81598271Y14735710D02*
X81645890Y14640472D01*
X81645890Y14640472D02*
X81693509Y14592853D01*
X81693509Y14592853D02*
X81788747Y14545234D01*
X81788747Y14545234D02*
X82026842Y14545234D01*
X82026842Y14545234D02*
X82122080Y14592853D01*
X82122080Y14592853D02*
X82169700Y14640472D01*
X82169700Y14640472D02*
X82217319Y14735710D01*
X82217319Y14735710D02*
X82217319Y14973805D01*
X82217319Y14973805D02*
X82169700Y15069043D01*
X82169700Y15069043D02*
X82122080Y15116662D01*
X82217319Y14069043D02*
X82217319Y13878567D01*
X82217319Y13878567D02*
X82169700Y13783329D01*
X82169700Y13783329D02*
X82122080Y13735710D01*
X82122080Y13735710D02*
X81979223Y13640472D01*
X81979223Y13640472D02*
X81788747Y13592853D01*
X81788747Y13592853D02*
X81407795Y13592853D01*
X81407795Y13592853D02*
X81312557Y13640472D01*
X81312557Y13640472D02*
X81264938Y13688091D01*
X81264938Y13688091D02*
X81217319Y13783329D01*
X81217319Y13783329D02*
X81217319Y13973805D01*
X81217319Y13973805D02*
X81264938Y14069043D01*
X81264938Y14069043D02*
X81312557Y14116662D01*
X81312557Y14116662D02*
X81407795Y14164281D01*
X81407795Y14164281D02*
X81645890Y14164281D01*
X81645890Y14164281D02*
X81741128Y14116662D01*
X81741128Y14116662D02*
X81788747Y14069043D01*
X81788747Y14069043D02*
X81836366Y13973805D01*
X81836366Y13973805D02*
X81836366Y13783329D01*
X81836366Y13783329D02*
X81788747Y13688091D01*
X81788747Y13688091D02*
X81741128Y13640472D01*
X81741128Y13640472D02*
X81645890Y13592853D01*
X44806019Y37416858D02*
X44853639Y37464477D01*
X44853639Y37464477D02*
X44901258Y37607334D01*
X44901258Y37607334D02*
X44901258Y37702572D01*
X44901258Y37702572D02*
X44853639Y37845429D01*
X44853639Y37845429D02*
X44758400Y37940667D01*
X44758400Y37940667D02*
X44663162Y37988286D01*
X44663162Y37988286D02*
X44472686Y38035905D01*
X44472686Y38035905D02*
X44329829Y38035905D01*
X44329829Y38035905D02*
X44139353Y37988286D01*
X44139353Y37988286D02*
X44044115Y37940667D01*
X44044115Y37940667D02*
X43948877Y37845429D01*
X43948877Y37845429D02*
X43901258Y37702572D01*
X43901258Y37702572D02*
X43901258Y37607334D01*
X43901258Y37607334D02*
X43948877Y37464477D01*
X43948877Y37464477D02*
X43996496Y37416858D01*
X43901258Y36559715D02*
X43901258Y36750191D01*
X43901258Y36750191D02*
X43948877Y36845429D01*
X43948877Y36845429D02*
X43996496Y36893048D01*
X43996496Y36893048D02*
X44139353Y36988286D01*
X44139353Y36988286D02*
X44329829Y37035905D01*
X44329829Y37035905D02*
X44710781Y37035905D01*
X44710781Y37035905D02*
X44806019Y36988286D01*
X44806019Y36988286D02*
X44853639Y36940667D01*
X44853639Y36940667D02*
X44901258Y36845429D01*
X44901258Y36845429D02*
X44901258Y36654953D01*
X44901258Y36654953D02*
X44853639Y36559715D01*
X44853639Y36559715D02*
X44806019Y36512096D01*
X44806019Y36512096D02*
X44710781Y36464477D01*
X44710781Y36464477D02*
X44472686Y36464477D01*
X44472686Y36464477D02*
X44377448Y36512096D01*
X44377448Y36512096D02*
X44329829Y36559715D01*
X44329829Y36559715D02*
X44282210Y36654953D01*
X44282210Y36654953D02*
X44282210Y36845429D01*
X44282210Y36845429D02*
X44329829Y36940667D01*
X44329829Y36940667D02*
X44377448Y36988286D01*
X44377448Y36988286D02*
X44472686Y37035905D01*
X43996496Y36083524D02*
X43948877Y36035905D01*
X43948877Y36035905D02*
X43901258Y35940667D01*
X43901258Y35940667D02*
X43901258Y35702572D01*
X43901258Y35702572D02*
X43948877Y35607334D01*
X43948877Y35607334D02*
X43996496Y35559715D01*
X43996496Y35559715D02*
X44091734Y35512096D01*
X44091734Y35512096D02*
X44186972Y35512096D01*
X44186972Y35512096D02*
X44329829Y35559715D01*
X44329829Y35559715D02*
X44901258Y36131143D01*
X44901258Y36131143D02*
X44901258Y35512096D01*
X85130080Y59514858D02*
X85177700Y59562477D01*
X85177700Y59562477D02*
X85225319Y59705334D01*
X85225319Y59705334D02*
X85225319Y59800572D01*
X85225319Y59800572D02*
X85177700Y59943429D01*
X85177700Y59943429D02*
X85082461Y60038667D01*
X85082461Y60038667D02*
X84987223Y60086286D01*
X84987223Y60086286D02*
X84796747Y60133905D01*
X84796747Y60133905D02*
X84653890Y60133905D01*
X84653890Y60133905D02*
X84463414Y60086286D01*
X84463414Y60086286D02*
X84368176Y60038667D01*
X84368176Y60038667D02*
X84272938Y59943429D01*
X84272938Y59943429D02*
X84225319Y59800572D01*
X84225319Y59800572D02*
X84225319Y59705334D01*
X84225319Y59705334D02*
X84272938Y59562477D01*
X84272938Y59562477D02*
X84320557Y59514858D01*
X84225319Y59181524D02*
X84225319Y58514858D01*
X84225319Y58514858D02*
X85225319Y58943429D01*
X84225319Y57943429D02*
X84225319Y57848191D01*
X84225319Y57848191D02*
X84272938Y57752953D01*
X84272938Y57752953D02*
X84320557Y57705334D01*
X84320557Y57705334D02*
X84415795Y57657715D01*
X84415795Y57657715D02*
X84606271Y57610096D01*
X84606271Y57610096D02*
X84844366Y57610096D01*
X84844366Y57610096D02*
X85034842Y57657715D01*
X85034842Y57657715D02*
X85130080Y57705334D01*
X85130080Y57705334D02*
X85177700Y57752953D01*
X85177700Y57752953D02*
X85225319Y57848191D01*
X85225319Y57848191D02*
X85225319Y57943429D01*
X85225319Y57943429D02*
X85177700Y58038667D01*
X85177700Y58038667D02*
X85130080Y58086286D01*
X85130080Y58086286D02*
X85034842Y58133905D01*
X85034842Y58133905D02*
X84844366Y58181524D01*
X84844366Y58181524D02*
X84606271Y58181524D01*
X84606271Y58181524D02*
X84415795Y58133905D01*
X84415795Y58133905D02*
X84320557Y58086286D01*
X84320557Y58086286D02*
X84272938Y58038667D01*
X84272938Y58038667D02*
X84225319Y57943429D01*
X83522080Y59475583D02*
X83569700Y59523202D01*
X83569700Y59523202D02*
X83617319Y59666059D01*
X83617319Y59666059D02*
X83617319Y59761297D01*
X83617319Y59761297D02*
X83569700Y59904154D01*
X83569700Y59904154D02*
X83474461Y59999392D01*
X83474461Y59999392D02*
X83379223Y60047011D01*
X83379223Y60047011D02*
X83188747Y60094630D01*
X83188747Y60094630D02*
X83045890Y60094630D01*
X83045890Y60094630D02*
X82855414Y60047011D01*
X82855414Y60047011D02*
X82760176Y59999392D01*
X82760176Y59999392D02*
X82664938Y59904154D01*
X82664938Y59904154D02*
X82617319Y59761297D01*
X82617319Y59761297D02*
X82617319Y59666059D01*
X82617319Y59666059D02*
X82664938Y59523202D01*
X82664938Y59523202D02*
X82712557Y59475583D01*
X82950652Y58618440D02*
X83617319Y58618440D01*
X82569700Y58856535D02*
X83283985Y59094630D01*
X83283985Y59094630D02*
X83283985Y58475583D01*
X83617319Y58047011D02*
X83617319Y57856535D01*
X83617319Y57856535D02*
X83569700Y57761297D01*
X83569700Y57761297D02*
X83522080Y57713678D01*
X83522080Y57713678D02*
X83379223Y57618440D01*
X83379223Y57618440D02*
X83188747Y57570821D01*
X83188747Y57570821D02*
X82807795Y57570821D01*
X82807795Y57570821D02*
X82712557Y57618440D01*
X82712557Y57618440D02*
X82664938Y57666059D01*
X82664938Y57666059D02*
X82617319Y57761297D01*
X82617319Y57761297D02*
X82617319Y57951773D01*
X82617319Y57951773D02*
X82664938Y58047011D01*
X82664938Y58047011D02*
X82712557Y58094630D01*
X82712557Y58094630D02*
X82807795Y58142249D01*
X82807795Y58142249D02*
X83045890Y58142249D01*
X83045890Y58142249D02*
X83141128Y58094630D01*
X83141128Y58094630D02*
X83188747Y58047011D01*
X83188747Y58047011D02*
X83236366Y57951773D01*
X83236366Y57951773D02*
X83236366Y57761297D01*
X83236366Y57761297D02*
X83188747Y57666059D01*
X83188747Y57666059D02*
X83141128Y57618440D01*
X83141128Y57618440D02*
X83045890Y57570821D01*
X85192019Y15572858D02*
X85239639Y15620477D01*
X85239639Y15620477D02*
X85287258Y15763334D01*
X85287258Y15763334D02*
X85287258Y15858572D01*
X85287258Y15858572D02*
X85239639Y16001429D01*
X85239639Y16001429D02*
X85144400Y16096667D01*
X85144400Y16096667D02*
X85049162Y16144286D01*
X85049162Y16144286D02*
X84858686Y16191905D01*
X84858686Y16191905D02*
X84715829Y16191905D01*
X84715829Y16191905D02*
X84525353Y16144286D01*
X84525353Y16144286D02*
X84430115Y16096667D01*
X84430115Y16096667D02*
X84334877Y16001429D01*
X84334877Y16001429D02*
X84287258Y15858572D01*
X84287258Y15858572D02*
X84287258Y15763334D01*
X84287258Y15763334D02*
X84334877Y15620477D01*
X84334877Y15620477D02*
X84382496Y15572858D01*
X84287258Y14715715D02*
X84287258Y14906191D01*
X84287258Y14906191D02*
X84334877Y15001429D01*
X84334877Y15001429D02*
X84382496Y15049048D01*
X84382496Y15049048D02*
X84525353Y15144286D01*
X84525353Y15144286D02*
X84715829Y15191905D01*
X84715829Y15191905D02*
X85096781Y15191905D01*
X85096781Y15191905D02*
X85192019Y15144286D01*
X85192019Y15144286D02*
X85239639Y15096667D01*
X85239639Y15096667D02*
X85287258Y15001429D01*
X85287258Y15001429D02*
X85287258Y14810953D01*
X85287258Y14810953D02*
X85239639Y14715715D01*
X85239639Y14715715D02*
X85192019Y14668096D01*
X85192019Y14668096D02*
X85096781Y14620477D01*
X85096781Y14620477D02*
X84858686Y14620477D01*
X84858686Y14620477D02*
X84763448Y14668096D01*
X84763448Y14668096D02*
X84715829Y14715715D01*
X84715829Y14715715D02*
X84668210Y14810953D01*
X84668210Y14810953D02*
X84668210Y15001429D01*
X84668210Y15001429D02*
X84715829Y15096667D01*
X84715829Y15096667D02*
X84763448Y15144286D01*
X84763448Y15144286D02*
X84858686Y15191905D01*
X84715829Y14049048D02*
X84668210Y14144286D01*
X84668210Y14144286D02*
X84620591Y14191905D01*
X84620591Y14191905D02*
X84525353Y14239524D01*
X84525353Y14239524D02*
X84477734Y14239524D01*
X84477734Y14239524D02*
X84382496Y14191905D01*
X84382496Y14191905D02*
X84334877Y14144286D01*
X84334877Y14144286D02*
X84287258Y14049048D01*
X84287258Y14049048D02*
X84287258Y13858572D01*
X84287258Y13858572D02*
X84334877Y13763334D01*
X84334877Y13763334D02*
X84382496Y13715715D01*
X84382496Y13715715D02*
X84477734Y13668096D01*
X84477734Y13668096D02*
X84525353Y13668096D01*
X84525353Y13668096D02*
X84620591Y13715715D01*
X84620591Y13715715D02*
X84668210Y13763334D01*
X84668210Y13763334D02*
X84715829Y13858572D01*
X84715829Y13858572D02*
X84715829Y14049048D01*
X84715829Y14049048D02*
X84763448Y14144286D01*
X84763448Y14144286D02*
X84811067Y14191905D01*
X84811067Y14191905D02*
X84906305Y14239524D01*
X84906305Y14239524D02*
X85096781Y14239524D01*
X85096781Y14239524D02*
X85192019Y14191905D01*
X85192019Y14191905D02*
X85239639Y14144286D01*
X85239639Y14144286D02*
X85287258Y14049048D01*
X85287258Y14049048D02*
X85287258Y13858572D01*
X85287258Y13858572D02*
X85239639Y13763334D01*
X85239639Y13763334D02*
X85192019Y13715715D01*
X85192019Y13715715D02*
X85096781Y13668096D01*
X85096781Y13668096D02*
X84906305Y13668096D01*
X84906305Y13668096D02*
X84811067Y13715715D01*
X84811067Y13715715D02*
X84763448Y13763334D01*
X84763448Y13763334D02*
X84715829Y13858572D01*
X43397080Y15475615D02*
X43444700Y15523234D01*
X43444700Y15523234D02*
X43492319Y15666091D01*
X43492319Y15666091D02*
X43492319Y15761329D01*
X43492319Y15761329D02*
X43444700Y15904186D01*
X43444700Y15904186D02*
X43349461Y15999424D01*
X43349461Y15999424D02*
X43254223Y16047043D01*
X43254223Y16047043D02*
X43063747Y16094662D01*
X43063747Y16094662D02*
X42920890Y16094662D01*
X42920890Y16094662D02*
X42730414Y16047043D01*
X42730414Y16047043D02*
X42635176Y15999424D01*
X42635176Y15999424D02*
X42539938Y15904186D01*
X42539938Y15904186D02*
X42492319Y15761329D01*
X42492319Y15761329D02*
X42492319Y15666091D01*
X42492319Y15666091D02*
X42539938Y15523234D01*
X42539938Y15523234D02*
X42587557Y15475615D01*
X42587557Y15094662D02*
X42539938Y15047043D01*
X42539938Y15047043D02*
X42492319Y14951805D01*
X42492319Y14951805D02*
X42492319Y14713710D01*
X42492319Y14713710D02*
X42539938Y14618472D01*
X42539938Y14618472D02*
X42587557Y14570853D01*
X42587557Y14570853D02*
X42682795Y14523234D01*
X42682795Y14523234D02*
X42778033Y14523234D01*
X42778033Y14523234D02*
X42920890Y14570853D01*
X42920890Y14570853D02*
X43492319Y15142281D01*
X43492319Y15142281D02*
X43492319Y14523234D01*
X42492319Y13618472D02*
X42492319Y14094662D01*
X42492319Y14094662D02*
X42968509Y14142281D01*
X42968509Y14142281D02*
X42920890Y14094662D01*
X42920890Y14094662D02*
X42873271Y13999424D01*
X42873271Y13999424D02*
X42873271Y13761329D01*
X42873271Y13761329D02*
X42920890Y13666091D01*
X42920890Y13666091D02*
X42968509Y13618472D01*
X42968509Y13618472D02*
X43063747Y13570853D01*
X43063747Y13570853D02*
X43301842Y13570853D01*
X43301842Y13570853D02*
X43397080Y13618472D01*
X43397080Y13618472D02*
X43444700Y13666091D01*
X43444700Y13666091D02*
X43492319Y13761329D01*
X43492319Y13761329D02*
X43492319Y13999424D01*
X43492319Y13999424D02*
X43444700Y14094662D01*
X43444700Y14094662D02*
X43397080Y14142281D01*
X48650859Y80999376D02*
X48174668Y81332709D01*
X48650859Y81570804D02*
X47650859Y81570804D01*
X47650859Y81570804D02*
X47650859Y81189852D01*
X47650859Y81189852D02*
X47698478Y81094614D01*
X47698478Y81094614D02*
X47746097Y81046995D01*
X47746097Y81046995D02*
X47841335Y80999376D01*
X47841335Y80999376D02*
X47984192Y80999376D01*
X47984192Y80999376D02*
X48079430Y81046995D01*
X48079430Y81046995D02*
X48127049Y81094614D01*
X48127049Y81094614D02*
X48174668Y81189852D01*
X48174668Y81189852D02*
X48174668Y81570804D01*
X47650859Y80666042D02*
X47650859Y80046995D01*
X47650859Y80046995D02*
X48031811Y80380328D01*
X48031811Y80380328D02*
X48031811Y80237471D01*
X48031811Y80237471D02*
X48079430Y80142233D01*
X48079430Y80142233D02*
X48127049Y80094614D01*
X48127049Y80094614D02*
X48222287Y80046995D01*
X48222287Y80046995D02*
X48460382Y80046995D01*
X48460382Y80046995D02*
X48555620Y80094614D01*
X48555620Y80094614D02*
X48603240Y80142233D01*
X48603240Y80142233D02*
X48650859Y80237471D01*
X48650859Y80237471D02*
X48650859Y80523185D01*
X48650859Y80523185D02*
X48603240Y80618423D01*
X48603240Y80618423D02*
X48555620Y80666042D01*
X68713359Y59475583D02*
X68237168Y59808916D01*
X68713359Y60047011D02*
X67713359Y60047011D01*
X67713359Y60047011D02*
X67713359Y59666059D01*
X67713359Y59666059D02*
X67760978Y59570821D01*
X67760978Y59570821D02*
X67808597Y59523202D01*
X67808597Y59523202D02*
X67903835Y59475583D01*
X67903835Y59475583D02*
X68046692Y59475583D01*
X68046692Y59475583D02*
X68141930Y59523202D01*
X68141930Y59523202D02*
X68189549Y59570821D01*
X68189549Y59570821D02*
X68237168Y59666059D01*
X68237168Y59666059D02*
X68237168Y60047011D01*
X68713359Y58523202D02*
X68713359Y59094630D01*
X68713359Y58808916D02*
X67713359Y58808916D01*
X67713359Y58808916D02*
X67856216Y58904154D01*
X67856216Y58904154D02*
X67951454Y58999392D01*
X67951454Y58999392D02*
X67999073Y59094630D01*
X68713359Y57570821D02*
X68713359Y58142249D01*
X68713359Y57856535D02*
X67713359Y57856535D01*
X67713359Y57856535D02*
X67856216Y57951773D01*
X67856216Y57951773D02*
X67951454Y58047011D01*
X67951454Y58047011D02*
X67999073Y58142249D01*
X88775859Y15475615D02*
X88299668Y15808948D01*
X88775859Y16047043D02*
X87775859Y16047043D01*
X87775859Y16047043D02*
X87775859Y15666091D01*
X87775859Y15666091D02*
X87823478Y15570853D01*
X87823478Y15570853D02*
X87871097Y15523234D01*
X87871097Y15523234D02*
X87966335Y15475615D01*
X87966335Y15475615D02*
X88109192Y15475615D01*
X88109192Y15475615D02*
X88204430Y15523234D01*
X88204430Y15523234D02*
X88252049Y15570853D01*
X88252049Y15570853D02*
X88299668Y15666091D01*
X88299668Y15666091D02*
X88299668Y16047043D01*
X88775859Y14523234D02*
X88775859Y15094662D01*
X88775859Y14808948D02*
X87775859Y14808948D01*
X87775859Y14808948D02*
X87918716Y14904186D01*
X87918716Y14904186D02*
X88013954Y14999424D01*
X88013954Y14999424D02*
X88061573Y15094662D01*
X87775859Y14189900D02*
X87775859Y13523234D01*
X87775859Y13523234D02*
X88775859Y13951805D01*
X63459580Y81475567D02*
X63507200Y81523186D01*
X63507200Y81523186D02*
X63554819Y81666043D01*
X63554819Y81666043D02*
X63554819Y81761281D01*
X63554819Y81761281D02*
X63507200Y81904138D01*
X63507200Y81904138D02*
X63411961Y81999376D01*
X63411961Y81999376D02*
X63316723Y82046995D01*
X63316723Y82046995D02*
X63126247Y82094614D01*
X63126247Y82094614D02*
X62983390Y82094614D01*
X62983390Y82094614D02*
X62792914Y82046995D01*
X62792914Y82046995D02*
X62697676Y81999376D01*
X62697676Y81999376D02*
X62602438Y81904138D01*
X62602438Y81904138D02*
X62554819Y81761281D01*
X62554819Y81761281D02*
X62554819Y81666043D01*
X62554819Y81666043D02*
X62602438Y81523186D01*
X62602438Y81523186D02*
X62650057Y81475567D01*
X62554819Y81142233D02*
X62554819Y80523186D01*
X62554819Y80523186D02*
X62935771Y80856519D01*
X62935771Y80856519D02*
X62935771Y80713662D01*
X62935771Y80713662D02*
X62983390Y80618424D01*
X62983390Y80618424D02*
X63031009Y80570805D01*
X63031009Y80570805D02*
X63126247Y80523186D01*
X63126247Y80523186D02*
X63364342Y80523186D01*
X63364342Y80523186D02*
X63459580Y80570805D01*
X63459580Y80570805D02*
X63507200Y80618424D01*
X63507200Y80618424D02*
X63554819Y80713662D01*
X63554819Y80713662D02*
X63554819Y80999376D01*
X63554819Y80999376D02*
X63507200Y81094614D01*
X63507200Y81094614D02*
X63459580Y81142233D01*
X62650057Y80142233D02*
X62602438Y80094614D01*
X62602438Y80094614D02*
X62554819Y79999376D01*
X62554819Y79999376D02*
X62554819Y79761281D01*
X62554819Y79761281D02*
X62602438Y79666043D01*
X62602438Y79666043D02*
X62650057Y79618424D01*
X62650057Y79618424D02*
X62745295Y79570805D01*
X62745295Y79570805D02*
X62840533Y79570805D01*
X62840533Y79570805D02*
X62983390Y79618424D01*
X62983390Y79618424D02*
X63554819Y80189852D01*
X63554819Y80189852D02*
X63554819Y79570805D01*
X51562327Y15497615D02*
X51609947Y15545234D01*
X51609947Y15545234D02*
X51657566Y15688091D01*
X51657566Y15688091D02*
X51657566Y15783329D01*
X51657566Y15783329D02*
X51609947Y15926186D01*
X51609947Y15926186D02*
X51514708Y16021424D01*
X51514708Y16021424D02*
X51419470Y16069043D01*
X51419470Y16069043D02*
X51228994Y16116662D01*
X51228994Y16116662D02*
X51086137Y16116662D01*
X51086137Y16116662D02*
X50895661Y16069043D01*
X50895661Y16069043D02*
X50800423Y16021424D01*
X50800423Y16021424D02*
X50705185Y15926186D01*
X50705185Y15926186D02*
X50657566Y15783329D01*
X50657566Y15783329D02*
X50657566Y15688091D01*
X50657566Y15688091D02*
X50705185Y15545234D01*
X50705185Y15545234D02*
X50752804Y15497615D01*
X50752804Y15116662D02*
X50705185Y15069043D01*
X50705185Y15069043D02*
X50657566Y14973805D01*
X50657566Y14973805D02*
X50657566Y14735710D01*
X50657566Y14735710D02*
X50705185Y14640472D01*
X50705185Y14640472D02*
X50752804Y14592853D01*
X50752804Y14592853D02*
X50848042Y14545234D01*
X50848042Y14545234D02*
X50943280Y14545234D01*
X50943280Y14545234D02*
X51086137Y14592853D01*
X51086137Y14592853D02*
X51657566Y15164281D01*
X51657566Y15164281D02*
X51657566Y14545234D01*
X51657566Y13592853D02*
X51657566Y14164281D01*
X51657566Y13878567D02*
X50657566Y13878567D01*
X50657566Y13878567D02*
X50800423Y13973805D01*
X50800423Y13973805D02*
X50895661Y14069043D01*
X50895661Y14069043D02*
X50943280Y14164281D01*
X43397080Y37475599D02*
X43444700Y37523218D01*
X43444700Y37523218D02*
X43492319Y37666075D01*
X43492319Y37666075D02*
X43492319Y37761313D01*
X43492319Y37761313D02*
X43444700Y37904170D01*
X43444700Y37904170D02*
X43349461Y37999408D01*
X43349461Y37999408D02*
X43254223Y38047027D01*
X43254223Y38047027D02*
X43063747Y38094646D01*
X43063747Y38094646D02*
X42920890Y38094646D01*
X42920890Y38094646D02*
X42730414Y38047027D01*
X42730414Y38047027D02*
X42635176Y37999408D01*
X42635176Y37999408D02*
X42539938Y37904170D01*
X42539938Y37904170D02*
X42492319Y37761313D01*
X42492319Y37761313D02*
X42492319Y37666075D01*
X42492319Y37666075D02*
X42539938Y37523218D01*
X42539938Y37523218D02*
X42587557Y37475599D01*
X42587557Y37094646D02*
X42539938Y37047027D01*
X42539938Y37047027D02*
X42492319Y36951789D01*
X42492319Y36951789D02*
X42492319Y36713694D01*
X42492319Y36713694D02*
X42539938Y36618456D01*
X42539938Y36618456D02*
X42587557Y36570837D01*
X42587557Y36570837D02*
X42682795Y36523218D01*
X42682795Y36523218D02*
X42778033Y36523218D01*
X42778033Y36523218D02*
X42920890Y36570837D01*
X42920890Y36570837D02*
X43492319Y37142265D01*
X43492319Y37142265D02*
X43492319Y36523218D01*
X42587557Y36142265D02*
X42539938Y36094646D01*
X42539938Y36094646D02*
X42492319Y35999408D01*
X42492319Y35999408D02*
X42492319Y35761313D01*
X42492319Y35761313D02*
X42539938Y35666075D01*
X42539938Y35666075D02*
X42587557Y35618456D01*
X42587557Y35618456D02*
X42682795Y35570837D01*
X42682795Y35570837D02*
X42778033Y35570837D01*
X42778033Y35570837D02*
X42920890Y35618456D01*
X42920890Y35618456D02*
X43492319Y36189884D01*
X43492319Y36189884D02*
X43492319Y35570837D01*
X90308819Y59768858D02*
X89832628Y60102191D01*
X90308819Y60340286D02*
X89308819Y60340286D01*
X89308819Y60340286D02*
X89308819Y59959334D01*
X89308819Y59959334D02*
X89356438Y59864096D01*
X89356438Y59864096D02*
X89404057Y59816477D01*
X89404057Y59816477D02*
X89499295Y59768858D01*
X89499295Y59768858D02*
X89642152Y59768858D01*
X89642152Y59768858D02*
X89737390Y59816477D01*
X89737390Y59816477D02*
X89785009Y59864096D01*
X89785009Y59864096D02*
X89832628Y59959334D01*
X89832628Y59959334D02*
X89832628Y60340286D01*
X89404057Y59387905D02*
X89356438Y59340286D01*
X89356438Y59340286D02*
X89308819Y59245048D01*
X89308819Y59245048D02*
X89308819Y59006953D01*
X89308819Y59006953D02*
X89356438Y58911715D01*
X89356438Y58911715D02*
X89404057Y58864096D01*
X89404057Y58864096D02*
X89499295Y58816477D01*
X89499295Y58816477D02*
X89594533Y58816477D01*
X89594533Y58816477D02*
X89737390Y58864096D01*
X89737390Y58864096D02*
X90308819Y59435524D01*
X90308819Y59435524D02*
X90308819Y58816477D01*
X89308819Y57911715D02*
X89308819Y58387905D01*
X89308819Y58387905D02*
X89785009Y58435524D01*
X89785009Y58435524D02*
X89737390Y58387905D01*
X89737390Y58387905D02*
X89689771Y58292667D01*
X89689771Y58292667D02*
X89689771Y58054572D01*
X89689771Y58054572D02*
X89737390Y57959334D01*
X89737390Y57959334D02*
X89785009Y57911715D01*
X89785009Y57911715D02*
X89880247Y57864096D01*
X89880247Y57864096D02*
X90118342Y57864096D01*
X90118342Y57864096D02*
X90213580Y57911715D01*
X90213580Y57911715D02*
X90261200Y57959334D01*
X90261200Y57959334D02*
X90308819Y58054572D01*
X90308819Y58054572D02*
X90308819Y58292667D01*
X90308819Y58292667D02*
X90261200Y58387905D01*
X90261200Y58387905D02*
X90213580Y58435524D01*
X45001580Y81358858D02*
X45049200Y81406477D01*
X45049200Y81406477D02*
X45096819Y81549334D01*
X45096819Y81549334D02*
X45096819Y81644572D01*
X45096819Y81644572D02*
X45049200Y81787429D01*
X45049200Y81787429D02*
X44953961Y81882667D01*
X44953961Y81882667D02*
X44858723Y81930286D01*
X44858723Y81930286D02*
X44668247Y81977905D01*
X44668247Y81977905D02*
X44525390Y81977905D01*
X44525390Y81977905D02*
X44334914Y81930286D01*
X44334914Y81930286D02*
X44239676Y81882667D01*
X44239676Y81882667D02*
X44144438Y81787429D01*
X44144438Y81787429D02*
X44096819Y81644572D01*
X44096819Y81644572D02*
X44096819Y81549334D01*
X44096819Y81549334D02*
X44144438Y81406477D01*
X44144438Y81406477D02*
X44192057Y81358858D01*
X44096819Y80501715D02*
X44096819Y80692191D01*
X44096819Y80692191D02*
X44144438Y80787429D01*
X44144438Y80787429D02*
X44192057Y80835048D01*
X44192057Y80835048D02*
X44334914Y80930286D01*
X44334914Y80930286D02*
X44525390Y80977905D01*
X44525390Y80977905D02*
X44906342Y80977905D01*
X44906342Y80977905D02*
X45001580Y80930286D01*
X45001580Y80930286D02*
X45049200Y80882667D01*
X45049200Y80882667D02*
X45096819Y80787429D01*
X45096819Y80787429D02*
X45096819Y80596953D01*
X45096819Y80596953D02*
X45049200Y80501715D01*
X45049200Y80501715D02*
X45001580Y80454096D01*
X45001580Y80454096D02*
X44906342Y80406477D01*
X44906342Y80406477D02*
X44668247Y80406477D01*
X44668247Y80406477D02*
X44573009Y80454096D01*
X44573009Y80454096D02*
X44525390Y80501715D01*
X44525390Y80501715D02*
X44477771Y80596953D01*
X44477771Y80596953D02*
X44477771Y80787429D01*
X44477771Y80787429D02*
X44525390Y80882667D01*
X44525390Y80882667D02*
X44573009Y80930286D01*
X44573009Y80930286D02*
X44668247Y80977905D01*
X44096819Y79787429D02*
X44096819Y79692191D01*
X44096819Y79692191D02*
X44144438Y79596953D01*
X44144438Y79596953D02*
X44192057Y79549334D01*
X44192057Y79549334D02*
X44287295Y79501715D01*
X44287295Y79501715D02*
X44477771Y79454096D01*
X44477771Y79454096D02*
X44715866Y79454096D01*
X44715866Y79454096D02*
X44906342Y79501715D01*
X44906342Y79501715D02*
X45001580Y79549334D01*
X45001580Y79549334D02*
X45049200Y79596953D01*
X45049200Y79596953D02*
X45096819Y79692191D01*
X45096819Y79692191D02*
X45096819Y79787429D01*
X45096819Y79787429D02*
X45049200Y79882667D01*
X45049200Y79882667D02*
X45001580Y79930286D01*
X45001580Y79930286D02*
X44906342Y79977905D01*
X44906342Y79977905D02*
X44715866Y80025524D01*
X44715866Y80025524D02*
X44477771Y80025524D01*
X44477771Y80025524D02*
X44287295Y79977905D01*
X44287295Y79977905D02*
X44192057Y79930286D01*
X44192057Y79930286D02*
X44144438Y79882667D01*
X44144438Y79882667D02*
X44096819Y79787429D01*
X65071080Y37416858D02*
X65118700Y37464477D01*
X65118700Y37464477D02*
X65166319Y37607334D01*
X65166319Y37607334D02*
X65166319Y37702572D01*
X65166319Y37702572D02*
X65118700Y37845429D01*
X65118700Y37845429D02*
X65023461Y37940667D01*
X65023461Y37940667D02*
X64928223Y37988286D01*
X64928223Y37988286D02*
X64737747Y38035905D01*
X64737747Y38035905D02*
X64594890Y38035905D01*
X64594890Y38035905D02*
X64404414Y37988286D01*
X64404414Y37988286D02*
X64309176Y37940667D01*
X64309176Y37940667D02*
X64213938Y37845429D01*
X64213938Y37845429D02*
X64166319Y37702572D01*
X64166319Y37702572D02*
X64166319Y37607334D01*
X64166319Y37607334D02*
X64213938Y37464477D01*
X64213938Y37464477D02*
X64261557Y37416858D01*
X64166319Y36559715D02*
X64166319Y36750191D01*
X64166319Y36750191D02*
X64213938Y36845429D01*
X64213938Y36845429D02*
X64261557Y36893048D01*
X64261557Y36893048D02*
X64404414Y36988286D01*
X64404414Y36988286D02*
X64594890Y37035905D01*
X64594890Y37035905D02*
X64975842Y37035905D01*
X64975842Y37035905D02*
X65071080Y36988286D01*
X65071080Y36988286D02*
X65118700Y36940667D01*
X65118700Y36940667D02*
X65166319Y36845429D01*
X65166319Y36845429D02*
X65166319Y36654953D01*
X65166319Y36654953D02*
X65118700Y36559715D01*
X65118700Y36559715D02*
X65071080Y36512096D01*
X65071080Y36512096D02*
X64975842Y36464477D01*
X64975842Y36464477D02*
X64737747Y36464477D01*
X64737747Y36464477D02*
X64642509Y36512096D01*
X64642509Y36512096D02*
X64594890Y36559715D01*
X64594890Y36559715D02*
X64547271Y36654953D01*
X64547271Y36654953D02*
X64547271Y36845429D01*
X64547271Y36845429D02*
X64594890Y36940667D01*
X64594890Y36940667D02*
X64642509Y36988286D01*
X64642509Y36988286D02*
X64737747Y37035905D01*
X64166319Y35607334D02*
X64166319Y35797810D01*
X64166319Y35797810D02*
X64213938Y35893048D01*
X64213938Y35893048D02*
X64261557Y35940667D01*
X64261557Y35940667D02*
X64404414Y36035905D01*
X64404414Y36035905D02*
X64594890Y36083524D01*
X64594890Y36083524D02*
X64975842Y36083524D01*
X64975842Y36083524D02*
X65071080Y36035905D01*
X65071080Y36035905D02*
X65118700Y35988286D01*
X65118700Y35988286D02*
X65166319Y35893048D01*
X65166319Y35893048D02*
X65166319Y35702572D01*
X65166319Y35702572D02*
X65118700Y35607334D01*
X65118700Y35607334D02*
X65071080Y35559715D01*
X65071080Y35559715D02*
X64975842Y35512096D01*
X64975842Y35512096D02*
X64737747Y35512096D01*
X64737747Y35512096D02*
X64642509Y35559715D01*
X64642509Y35559715D02*
X64594890Y35607334D01*
X64594890Y35607334D02*
X64547271Y35702572D01*
X64547271Y35702572D02*
X64547271Y35893048D01*
X64547271Y35893048D02*
X64594890Y35988286D01*
X64594890Y35988286D02*
X64642509Y36035905D01*
X64642509Y36035905D02*
X64737747Y36083524D01*
X51562327Y59497583D02*
X51609947Y59545202D01*
X51609947Y59545202D02*
X51657566Y59688059D01*
X51657566Y59688059D02*
X51657566Y59783297D01*
X51657566Y59783297D02*
X51609947Y59926154D01*
X51609947Y59926154D02*
X51514708Y60021392D01*
X51514708Y60021392D02*
X51419470Y60069011D01*
X51419470Y60069011D02*
X51228994Y60116630D01*
X51228994Y60116630D02*
X51086137Y60116630D01*
X51086137Y60116630D02*
X50895661Y60069011D01*
X50895661Y60069011D02*
X50800423Y60021392D01*
X50800423Y60021392D02*
X50705185Y59926154D01*
X50705185Y59926154D02*
X50657566Y59783297D01*
X50657566Y59783297D02*
X50657566Y59688059D01*
X50657566Y59688059D02*
X50705185Y59545202D01*
X50705185Y59545202D02*
X50752804Y59497583D01*
X51657566Y58545202D02*
X51657566Y59116630D01*
X51657566Y58830916D02*
X50657566Y58830916D01*
X50657566Y58830916D02*
X50800423Y58926154D01*
X50800423Y58926154D02*
X50895661Y59021392D01*
X50895661Y59021392D02*
X50943280Y59116630D01*
X51086137Y57973773D02*
X51038518Y58069011D01*
X51038518Y58069011D02*
X50990899Y58116630D01*
X50990899Y58116630D02*
X50895661Y58164249D01*
X50895661Y58164249D02*
X50848042Y58164249D01*
X50848042Y58164249D02*
X50752804Y58116630D01*
X50752804Y58116630D02*
X50705185Y58069011D01*
X50705185Y58069011D02*
X50657566Y57973773D01*
X50657566Y57973773D02*
X50657566Y57783297D01*
X50657566Y57783297D02*
X50705185Y57688059D01*
X50705185Y57688059D02*
X50752804Y57640440D01*
X50752804Y57640440D02*
X50848042Y57592821D01*
X50848042Y57592821D02*
X50895661Y57592821D01*
X50895661Y57592821D02*
X50990899Y57640440D01*
X50990899Y57640440D02*
X51038518Y57688059D01*
X51038518Y57688059D02*
X51086137Y57783297D01*
X51086137Y57783297D02*
X51086137Y57973773D01*
X51086137Y57973773D02*
X51133756Y58069011D01*
X51133756Y58069011D02*
X51181375Y58116630D01*
X51181375Y58116630D02*
X51276613Y58164249D01*
X51276613Y58164249D02*
X51467089Y58164249D01*
X51467089Y58164249D02*
X51562327Y58116630D01*
X51562327Y58116630D02*
X51609947Y58069011D01*
X51609947Y58069011D02*
X51657566Y57973773D01*
X51657566Y57973773D02*
X51657566Y57783297D01*
X51657566Y57783297D02*
X51609947Y57688059D01*
X51609947Y57688059D02*
X51562327Y57640440D01*
X51562327Y57640440D02*
X51467089Y57592821D01*
X51467089Y57592821D02*
X51276613Y57592821D01*
X51276613Y57592821D02*
X51181375Y57640440D01*
X51181375Y57640440D02*
X51133756Y57688059D01*
X51133756Y57688059D02*
X51086137Y57783297D01*
X90308819Y15572858D02*
X89832628Y15906191D01*
X90308819Y16144286D02*
X89308819Y16144286D01*
X89308819Y16144286D02*
X89308819Y15763334D01*
X89308819Y15763334D02*
X89356438Y15668096D01*
X89356438Y15668096D02*
X89404057Y15620477D01*
X89404057Y15620477D02*
X89499295Y15572858D01*
X89499295Y15572858D02*
X89642152Y15572858D01*
X89642152Y15572858D02*
X89737390Y15620477D01*
X89737390Y15620477D02*
X89785009Y15668096D01*
X89785009Y15668096D02*
X89832628Y15763334D01*
X89832628Y15763334D02*
X89832628Y16144286D01*
X89308819Y15239524D02*
X89308819Y14620477D01*
X89308819Y14620477D02*
X89689771Y14953810D01*
X89689771Y14953810D02*
X89689771Y14810953D01*
X89689771Y14810953D02*
X89737390Y14715715D01*
X89737390Y14715715D02*
X89785009Y14668096D01*
X89785009Y14668096D02*
X89880247Y14620477D01*
X89880247Y14620477D02*
X90118342Y14620477D01*
X90118342Y14620477D02*
X90213580Y14668096D01*
X90213580Y14668096D02*
X90261200Y14715715D01*
X90261200Y14715715D02*
X90308819Y14810953D01*
X90308819Y14810953D02*
X90308819Y15096667D01*
X90308819Y15096667D02*
X90261200Y15191905D01*
X90261200Y15191905D02*
X90213580Y15239524D01*
X90308819Y13668096D02*
X90308819Y14239524D01*
X90308819Y13953810D02*
X89308819Y13953810D01*
X89308819Y13953810D02*
X89451676Y14049048D01*
X89451676Y14049048D02*
X89546914Y14144286D01*
X89546914Y14144286D02*
X89594533Y14239524D01*
X53049836Y59497583D02*
X53097456Y59545202D01*
X53097456Y59545202D02*
X53145075Y59688059D01*
X53145075Y59688059D02*
X53145075Y59783297D01*
X53145075Y59783297D02*
X53097456Y59926154D01*
X53097456Y59926154D02*
X53002217Y60021392D01*
X53002217Y60021392D02*
X52906979Y60069011D01*
X52906979Y60069011D02*
X52716503Y60116630D01*
X52716503Y60116630D02*
X52573646Y60116630D01*
X52573646Y60116630D02*
X52383170Y60069011D01*
X52383170Y60069011D02*
X52287932Y60021392D01*
X52287932Y60021392D02*
X52192694Y59926154D01*
X52192694Y59926154D02*
X52145075Y59783297D01*
X52145075Y59783297D02*
X52145075Y59688059D01*
X52145075Y59688059D02*
X52192694Y59545202D01*
X52192694Y59545202D02*
X52240313Y59497583D01*
X53145075Y58545202D02*
X53145075Y59116630D01*
X53145075Y58830916D02*
X52145075Y58830916D01*
X52145075Y58830916D02*
X52287932Y58926154D01*
X52287932Y58926154D02*
X52383170Y59021392D01*
X52383170Y59021392D02*
X52430789Y59116630D01*
X53145075Y58069011D02*
X53145075Y57878535D01*
X53145075Y57878535D02*
X53097456Y57783297D01*
X53097456Y57783297D02*
X53049836Y57735678D01*
X53049836Y57735678D02*
X52906979Y57640440D01*
X52906979Y57640440D02*
X52716503Y57592821D01*
X52716503Y57592821D02*
X52335551Y57592821D01*
X52335551Y57592821D02*
X52240313Y57640440D01*
X52240313Y57640440D02*
X52192694Y57688059D01*
X52192694Y57688059D02*
X52145075Y57783297D01*
X52145075Y57783297D02*
X52145075Y57973773D01*
X52145075Y57973773D02*
X52192694Y58069011D01*
X52192694Y58069011D02*
X52240313Y58116630D01*
X52240313Y58116630D02*
X52335551Y58164249D01*
X52335551Y58164249D02*
X52573646Y58164249D01*
X52573646Y58164249D02*
X52668884Y58116630D01*
X52668884Y58116630D02*
X52716503Y58069011D01*
X52716503Y58069011D02*
X52764122Y57973773D01*
X52764122Y57973773D02*
X52764122Y57783297D01*
X52764122Y57783297D02*
X52716503Y57688059D01*
X52716503Y57688059D02*
X52668884Y57640440D01*
X52668884Y57640440D02*
X52573646Y57592821D01*
X68713359Y15475615D02*
X68237168Y15808948D01*
X68713359Y16047043D02*
X67713359Y16047043D01*
X67713359Y16047043D02*
X67713359Y15666091D01*
X67713359Y15666091D02*
X67760978Y15570853D01*
X67760978Y15570853D02*
X67808597Y15523234D01*
X67808597Y15523234D02*
X67903835Y15475615D01*
X67903835Y15475615D02*
X68046692Y15475615D01*
X68046692Y15475615D02*
X68141930Y15523234D01*
X68141930Y15523234D02*
X68189549Y15570853D01*
X68189549Y15570853D02*
X68237168Y15666091D01*
X68237168Y15666091D02*
X68237168Y16047043D01*
X68713359Y14523234D02*
X68713359Y15094662D01*
X68713359Y14808948D02*
X67713359Y14808948D01*
X67713359Y14808948D02*
X67856216Y14904186D01*
X67856216Y14904186D02*
X67951454Y14999424D01*
X67951454Y14999424D02*
X67999073Y15094662D01*
X67713359Y14189900D02*
X67713359Y13570853D01*
X67713359Y13570853D02*
X68094311Y13904186D01*
X68094311Y13904186D02*
X68094311Y13761329D01*
X68094311Y13761329D02*
X68141930Y13666091D01*
X68141930Y13666091D02*
X68189549Y13618472D01*
X68189549Y13618472D02*
X68284787Y13570853D01*
X68284787Y13570853D02*
X68522882Y13570853D01*
X68522882Y13570853D02*
X68618120Y13618472D01*
X68618120Y13618472D02*
X68665740Y13666091D01*
X68665740Y13666091D02*
X68713359Y13761329D01*
X68713359Y13761329D02*
X68713359Y14047043D01*
X68713359Y14047043D02*
X68665740Y14142281D01*
X68665740Y14142281D02*
X68618120Y14189900D01*
X65126019Y15572858D02*
X65173639Y15620477D01*
X65173639Y15620477D02*
X65221258Y15763334D01*
X65221258Y15763334D02*
X65221258Y15858572D01*
X65221258Y15858572D02*
X65173639Y16001429D01*
X65173639Y16001429D02*
X65078400Y16096667D01*
X65078400Y16096667D02*
X64983162Y16144286D01*
X64983162Y16144286D02*
X64792686Y16191905D01*
X64792686Y16191905D02*
X64649829Y16191905D01*
X64649829Y16191905D02*
X64459353Y16144286D01*
X64459353Y16144286D02*
X64364115Y16096667D01*
X64364115Y16096667D02*
X64268877Y16001429D01*
X64268877Y16001429D02*
X64221258Y15858572D01*
X64221258Y15858572D02*
X64221258Y15763334D01*
X64221258Y15763334D02*
X64268877Y15620477D01*
X64268877Y15620477D02*
X64316496Y15572858D01*
X64221258Y14715715D02*
X64221258Y14906191D01*
X64221258Y14906191D02*
X64268877Y15001429D01*
X64268877Y15001429D02*
X64316496Y15049048D01*
X64316496Y15049048D02*
X64459353Y15144286D01*
X64459353Y15144286D02*
X64649829Y15191905D01*
X64649829Y15191905D02*
X65030781Y15191905D01*
X65030781Y15191905D02*
X65126019Y15144286D01*
X65126019Y15144286D02*
X65173639Y15096667D01*
X65173639Y15096667D02*
X65221258Y15001429D01*
X65221258Y15001429D02*
X65221258Y14810953D01*
X65221258Y14810953D02*
X65173639Y14715715D01*
X65173639Y14715715D02*
X65126019Y14668096D01*
X65126019Y14668096D02*
X65030781Y14620477D01*
X65030781Y14620477D02*
X64792686Y14620477D01*
X64792686Y14620477D02*
X64697448Y14668096D01*
X64697448Y14668096D02*
X64649829Y14715715D01*
X64649829Y14715715D02*
X64602210Y14810953D01*
X64602210Y14810953D02*
X64602210Y15001429D01*
X64602210Y15001429D02*
X64649829Y15096667D01*
X64649829Y15096667D02*
X64697448Y15144286D01*
X64697448Y15144286D02*
X64792686Y15191905D01*
X64221258Y14287143D02*
X64221258Y13620477D01*
X64221258Y13620477D02*
X65221258Y14049048D01*
X50176819Y81866858D02*
X49700628Y82200191D01*
X50176819Y82438286D02*
X49176819Y82438286D01*
X49176819Y82438286D02*
X49176819Y82057334D01*
X49176819Y82057334D02*
X49224438Y81962096D01*
X49224438Y81962096D02*
X49272057Y81914477D01*
X49272057Y81914477D02*
X49367295Y81866858D01*
X49367295Y81866858D02*
X49510152Y81866858D01*
X49510152Y81866858D02*
X49605390Y81914477D01*
X49605390Y81914477D02*
X49653009Y81962096D01*
X49653009Y81962096D02*
X49700628Y82057334D01*
X49700628Y82057334D02*
X49700628Y82438286D01*
X49272057Y81485905D02*
X49224438Y81438286D01*
X49224438Y81438286D02*
X49176819Y81343048D01*
X49176819Y81343048D02*
X49176819Y81104953D01*
X49176819Y81104953D02*
X49224438Y81009715D01*
X49224438Y81009715D02*
X49272057Y80962096D01*
X49272057Y80962096D02*
X49367295Y80914477D01*
X49367295Y80914477D02*
X49462533Y80914477D01*
X49462533Y80914477D02*
X49605390Y80962096D01*
X49605390Y80962096D02*
X50176819Y81533524D01*
X50176819Y81533524D02*
X50176819Y80914477D01*
X49176819Y80295429D02*
X49176819Y80200191D01*
X49176819Y80200191D02*
X49224438Y80104953D01*
X49224438Y80104953D02*
X49272057Y80057334D01*
X49272057Y80057334D02*
X49367295Y80009715D01*
X49367295Y80009715D02*
X49557771Y79962096D01*
X49557771Y79962096D02*
X49795866Y79962096D01*
X49795866Y79962096D02*
X49986342Y80009715D01*
X49986342Y80009715D02*
X50081580Y80057334D01*
X50081580Y80057334D02*
X50129200Y80104953D01*
X50129200Y80104953D02*
X50176819Y80200191D01*
X50176819Y80200191D02*
X50176819Y80295429D01*
X50176819Y80295429D02*
X50129200Y80390667D01*
X50129200Y80390667D02*
X50081580Y80438286D01*
X50081580Y80438286D02*
X49986342Y80485905D01*
X49986342Y80485905D02*
X49795866Y80533524D01*
X49795866Y80533524D02*
X49557771Y80533524D01*
X49557771Y80533524D02*
X49367295Y80485905D01*
X49367295Y80485905D02*
X49272057Y80438286D01*
X49272057Y80438286D02*
X49224438Y80390667D01*
X49224438Y80390667D02*
X49176819Y80295429D01*
X71624827Y15497615D02*
X71672447Y15545234D01*
X71672447Y15545234D02*
X71720066Y15688091D01*
X71720066Y15688091D02*
X71720066Y15783329D01*
X71720066Y15783329D02*
X71672447Y15926186D01*
X71672447Y15926186D02*
X71577208Y16021424D01*
X71577208Y16021424D02*
X71481970Y16069043D01*
X71481970Y16069043D02*
X71291494Y16116662D01*
X71291494Y16116662D02*
X71148637Y16116662D01*
X71148637Y16116662D02*
X70958161Y16069043D01*
X70958161Y16069043D02*
X70862923Y16021424D01*
X70862923Y16021424D02*
X70767685Y15926186D01*
X70767685Y15926186D02*
X70720066Y15783329D01*
X70720066Y15783329D02*
X70720066Y15688091D01*
X70720066Y15688091D02*
X70767685Y15545234D01*
X70767685Y15545234D02*
X70815304Y15497615D01*
X70720066Y15164281D02*
X70720066Y14545234D01*
X70720066Y14545234D02*
X71101018Y14878567D01*
X71101018Y14878567D02*
X71101018Y14735710D01*
X71101018Y14735710D02*
X71148637Y14640472D01*
X71148637Y14640472D02*
X71196256Y14592853D01*
X71196256Y14592853D02*
X71291494Y14545234D01*
X71291494Y14545234D02*
X71529589Y14545234D01*
X71529589Y14545234D02*
X71624827Y14592853D01*
X71624827Y14592853D02*
X71672447Y14640472D01*
X71672447Y14640472D02*
X71720066Y14735710D01*
X71720066Y14735710D02*
X71720066Y15021424D01*
X71720066Y15021424D02*
X71672447Y15116662D01*
X71672447Y15116662D02*
X71624827Y15164281D01*
X71720066Y13592853D02*
X71720066Y14164281D01*
X71720066Y13878567D02*
X70720066Y13878567D01*
X70720066Y13878567D02*
X70862923Y13973805D01*
X70862923Y13973805D02*
X70958161Y14069043D01*
X70958161Y14069043D02*
X71005780Y14164281D01*
X70242819Y15572858D02*
X69766628Y15906191D01*
X70242819Y16144286D02*
X69242819Y16144286D01*
X69242819Y16144286D02*
X69242819Y15763334D01*
X69242819Y15763334D02*
X69290438Y15668096D01*
X69290438Y15668096D02*
X69338057Y15620477D01*
X69338057Y15620477D02*
X69433295Y15572858D01*
X69433295Y15572858D02*
X69576152Y15572858D01*
X69576152Y15572858D02*
X69671390Y15620477D01*
X69671390Y15620477D02*
X69719009Y15668096D01*
X69719009Y15668096D02*
X69766628Y15763334D01*
X69766628Y15763334D02*
X69766628Y16144286D01*
X69242819Y15239524D02*
X69242819Y14620477D01*
X69242819Y14620477D02*
X69623771Y14953810D01*
X69623771Y14953810D02*
X69623771Y14810953D01*
X69623771Y14810953D02*
X69671390Y14715715D01*
X69671390Y14715715D02*
X69719009Y14668096D01*
X69719009Y14668096D02*
X69814247Y14620477D01*
X69814247Y14620477D02*
X70052342Y14620477D01*
X70052342Y14620477D02*
X70147580Y14668096D01*
X70147580Y14668096D02*
X70195200Y14715715D01*
X70195200Y14715715D02*
X70242819Y14810953D01*
X70242819Y14810953D02*
X70242819Y15096667D01*
X70242819Y15096667D02*
X70195200Y15191905D01*
X70195200Y15191905D02*
X70147580Y15239524D01*
X69242819Y14001429D02*
X69242819Y13906191D01*
X69242819Y13906191D02*
X69290438Y13810953D01*
X69290438Y13810953D02*
X69338057Y13763334D01*
X69338057Y13763334D02*
X69433295Y13715715D01*
X69433295Y13715715D02*
X69623771Y13668096D01*
X69623771Y13668096D02*
X69861866Y13668096D01*
X69861866Y13668096D02*
X70052342Y13715715D01*
X70052342Y13715715D02*
X70147580Y13763334D01*
X70147580Y13763334D02*
X70195200Y13810953D01*
X70195200Y13810953D02*
X70242819Y13906191D01*
X70242819Y13906191D02*
X70242819Y14001429D01*
X70242819Y14001429D02*
X70195200Y14096667D01*
X70195200Y14096667D02*
X70147580Y14144286D01*
X70147580Y14144286D02*
X70052342Y14191905D01*
X70052342Y14191905D02*
X69861866Y14239524D01*
X69861866Y14239524D02*
X69623771Y14239524D01*
X69623771Y14239524D02*
X69433295Y14191905D01*
X69433295Y14191905D02*
X69338057Y14144286D01*
X69338057Y14144286D02*
X69290438Y14096667D01*
X69290438Y14096667D02*
X69242819Y14001429D01*
X82122080Y37497599D02*
X82169700Y37545218D01*
X82169700Y37545218D02*
X82217319Y37688075D01*
X82217319Y37688075D02*
X82217319Y37783313D01*
X82217319Y37783313D02*
X82169700Y37926170D01*
X82169700Y37926170D02*
X82074461Y38021408D01*
X82074461Y38021408D02*
X81979223Y38069027D01*
X81979223Y38069027D02*
X81788747Y38116646D01*
X81788747Y38116646D02*
X81645890Y38116646D01*
X81645890Y38116646D02*
X81455414Y38069027D01*
X81455414Y38069027D02*
X81360176Y38021408D01*
X81360176Y38021408D02*
X81264938Y37926170D01*
X81264938Y37926170D02*
X81217319Y37783313D01*
X81217319Y37783313D02*
X81217319Y37688075D01*
X81217319Y37688075D02*
X81264938Y37545218D01*
X81264938Y37545218D02*
X81312557Y37497599D01*
X81550652Y36640456D02*
X82217319Y36640456D01*
X81169700Y36878551D02*
X81883985Y37116646D01*
X81883985Y37116646D02*
X81883985Y36497599D01*
X81217319Y35688075D02*
X81217319Y35878551D01*
X81217319Y35878551D02*
X81264938Y35973789D01*
X81264938Y35973789D02*
X81312557Y36021408D01*
X81312557Y36021408D02*
X81455414Y36116646D01*
X81455414Y36116646D02*
X81645890Y36164265D01*
X81645890Y36164265D02*
X82026842Y36164265D01*
X82026842Y36164265D02*
X82122080Y36116646D01*
X82122080Y36116646D02*
X82169700Y36069027D01*
X82169700Y36069027D02*
X82217319Y35973789D01*
X82217319Y35973789D02*
X82217319Y35783313D01*
X82217319Y35783313D02*
X82169700Y35688075D01*
X82169700Y35688075D02*
X82122080Y35640456D01*
X82122080Y35640456D02*
X82026842Y35592837D01*
X82026842Y35592837D02*
X81788747Y35592837D01*
X81788747Y35592837D02*
X81693509Y35640456D01*
X81693509Y35640456D02*
X81645890Y35688075D01*
X81645890Y35688075D02*
X81598271Y35783313D01*
X81598271Y35783313D02*
X81598271Y35973789D01*
X81598271Y35973789D02*
X81645890Y36069027D01*
X81645890Y36069027D02*
X81693509Y36116646D01*
X81693509Y36116646D02*
X81788747Y36164265D01*
X70187880Y37416858D02*
X69711689Y37750191D01*
X70187880Y37988286D02*
X69187880Y37988286D01*
X69187880Y37988286D02*
X69187880Y37607334D01*
X69187880Y37607334D02*
X69235499Y37512096D01*
X69235499Y37512096D02*
X69283118Y37464477D01*
X69283118Y37464477D02*
X69378356Y37416858D01*
X69378356Y37416858D02*
X69521213Y37416858D01*
X69521213Y37416858D02*
X69616451Y37464477D01*
X69616451Y37464477D02*
X69664070Y37512096D01*
X69664070Y37512096D02*
X69711689Y37607334D01*
X69711689Y37607334D02*
X69711689Y37988286D01*
X69283118Y37035905D02*
X69235499Y36988286D01*
X69235499Y36988286D02*
X69187880Y36893048D01*
X69187880Y36893048D02*
X69187880Y36654953D01*
X69187880Y36654953D02*
X69235499Y36559715D01*
X69235499Y36559715D02*
X69283118Y36512096D01*
X69283118Y36512096D02*
X69378356Y36464477D01*
X69378356Y36464477D02*
X69473594Y36464477D01*
X69473594Y36464477D02*
X69616451Y36512096D01*
X69616451Y36512096D02*
X70187880Y37083524D01*
X70187880Y37083524D02*
X70187880Y36464477D01*
X69187880Y36131143D02*
X69187880Y35464477D01*
X69187880Y35464477D02*
X70187880Y35893048D01*
X62059580Y37497599D02*
X62107200Y37545218D01*
X62107200Y37545218D02*
X62154819Y37688075D01*
X62154819Y37688075D02*
X62154819Y37783313D01*
X62154819Y37783313D02*
X62107200Y37926170D01*
X62107200Y37926170D02*
X62011961Y38021408D01*
X62011961Y38021408D02*
X61916723Y38069027D01*
X61916723Y38069027D02*
X61726247Y38116646D01*
X61726247Y38116646D02*
X61583390Y38116646D01*
X61583390Y38116646D02*
X61392914Y38069027D01*
X61392914Y38069027D02*
X61297676Y38021408D01*
X61297676Y38021408D02*
X61202438Y37926170D01*
X61202438Y37926170D02*
X61154819Y37783313D01*
X61154819Y37783313D02*
X61154819Y37688075D01*
X61154819Y37688075D02*
X61202438Y37545218D01*
X61202438Y37545218D02*
X61250057Y37497599D01*
X61154819Y37164265D02*
X61154819Y36545218D01*
X61154819Y36545218D02*
X61535771Y36878551D01*
X61535771Y36878551D02*
X61535771Y36735694D01*
X61535771Y36735694D02*
X61583390Y36640456D01*
X61583390Y36640456D02*
X61631009Y36592837D01*
X61631009Y36592837D02*
X61726247Y36545218D01*
X61726247Y36545218D02*
X61964342Y36545218D01*
X61964342Y36545218D02*
X62059580Y36592837D01*
X62059580Y36592837D02*
X62107200Y36640456D01*
X62107200Y36640456D02*
X62154819Y36735694D01*
X62154819Y36735694D02*
X62154819Y37021408D01*
X62154819Y37021408D02*
X62107200Y37116646D01*
X62107200Y37116646D02*
X62059580Y37164265D01*
X61154819Y35926170D02*
X61154819Y35830932D01*
X61154819Y35830932D02*
X61202438Y35735694D01*
X61202438Y35735694D02*
X61250057Y35688075D01*
X61250057Y35688075D02*
X61345295Y35640456D01*
X61345295Y35640456D02*
X61535771Y35592837D01*
X61535771Y35592837D02*
X61773866Y35592837D01*
X61773866Y35592837D02*
X61964342Y35640456D01*
X61964342Y35640456D02*
X62059580Y35688075D01*
X62059580Y35688075D02*
X62107200Y35735694D01*
X62107200Y35735694D02*
X62154819Y35830932D01*
X62154819Y35830932D02*
X62154819Y35926170D01*
X62154819Y35926170D02*
X62107200Y36021408D01*
X62107200Y36021408D02*
X62059580Y36069027D01*
X62059580Y36069027D02*
X61964342Y36116646D01*
X61964342Y36116646D02*
X61773866Y36164265D01*
X61773866Y36164265D02*
X61535771Y36164265D01*
X61535771Y36164265D02*
X61345295Y36116646D01*
X61345295Y36116646D02*
X61250057Y36069027D01*
X61250057Y36069027D02*
X61202438Y36021408D01*
X61202438Y36021408D02*
X61154819Y35926170D01*
X63459580Y37475599D02*
X63507200Y37523218D01*
X63507200Y37523218D02*
X63554819Y37666075D01*
X63554819Y37666075D02*
X63554819Y37761313D01*
X63554819Y37761313D02*
X63507200Y37904170D01*
X63507200Y37904170D02*
X63411961Y37999408D01*
X63411961Y37999408D02*
X63316723Y38047027D01*
X63316723Y38047027D02*
X63126247Y38094646D01*
X63126247Y38094646D02*
X62983390Y38094646D01*
X62983390Y38094646D02*
X62792914Y38047027D01*
X62792914Y38047027D02*
X62697676Y37999408D01*
X62697676Y37999408D02*
X62602438Y37904170D01*
X62602438Y37904170D02*
X62554819Y37761313D01*
X62554819Y37761313D02*
X62554819Y37666075D01*
X62554819Y37666075D02*
X62602438Y37523218D01*
X62602438Y37523218D02*
X62650057Y37475599D01*
X62554819Y37142265D02*
X62554819Y36523218D01*
X62554819Y36523218D02*
X62935771Y36856551D01*
X62935771Y36856551D02*
X62935771Y36713694D01*
X62935771Y36713694D02*
X62983390Y36618456D01*
X62983390Y36618456D02*
X63031009Y36570837D01*
X63031009Y36570837D02*
X63126247Y36523218D01*
X63126247Y36523218D02*
X63364342Y36523218D01*
X63364342Y36523218D02*
X63459580Y36570837D01*
X63459580Y36570837D02*
X63507200Y36618456D01*
X63507200Y36618456D02*
X63554819Y36713694D01*
X63554819Y36713694D02*
X63554819Y36999408D01*
X63554819Y36999408D02*
X63507200Y37094646D01*
X63507200Y37094646D02*
X63459580Y37142265D01*
X62888152Y35666075D02*
X63554819Y35666075D01*
X62507200Y35904170D02*
X63221485Y36142265D01*
X63221485Y36142265D02*
X63221485Y35523218D01*
%TO.C,C20*%
D12*
X41027500Y34089161D02*
X41027500Y34370321D01*
X42047500Y34089161D02*
X42047500Y34370321D01*
%TO.C,C54*%
X90667747Y34089161D02*
X90667747Y34370321D01*
X91687747Y34089161D02*
X91687747Y34370321D01*
%TO.C,R23*%
X49049034Y55992467D02*
X49049034Y56466983D01*
X50094034Y55992467D02*
X50094034Y56466983D01*
%TO.C,C64*%
X64102473Y78089129D02*
X64102473Y78370289D01*
X65122473Y78089129D02*
X65122473Y78370289D01*
%TO.C,C71*%
X84164973Y78089129D02*
X84164973Y78370289D01*
X85184973Y78089129D02*
X85184973Y78370289D01*
%TO.C,R10*%
X67534571Y77992451D02*
X67534571Y78466967D01*
X68579571Y77992451D02*
X68579571Y78466967D01*
%TO.C,C48*%
X82652500Y78089129D02*
X82652500Y78370289D01*
X83672500Y78089129D02*
X83672500Y78370289D01*
%TO.C,C35*%
X72086461Y12089177D02*
X72086461Y12370337D01*
X73106461Y12089177D02*
X73106461Y12370337D01*
%TO.C,R12*%
X67534571Y33992483D02*
X67534571Y34466999D01*
X68579571Y33992483D02*
X68579571Y34466999D01*
%TO.C,R24*%
X69111534Y55992467D02*
X69111534Y56466983D01*
X70156534Y55992467D02*
X70156534Y56466983D01*
%TO.C,C51*%
X92148961Y12089177D02*
X92148961Y12370337D01*
X93168961Y12089177D02*
X93168961Y12370337D01*
%TO.C,C56*%
X92148961Y78089129D02*
X92148961Y78370289D01*
X93168961Y78089129D02*
X93168961Y78370289D01*
%TO.C,R22*%
X89174034Y77992451D02*
X89174034Y78466967D01*
X90219034Y77992451D02*
X90219034Y78466967D01*
%TO.C,C58*%
X92148961Y34089161D02*
X92148961Y34370321D01*
X93168961Y34089161D02*
X93168961Y34370321D01*
%TO.C,C33*%
X62590000Y56089145D02*
X62590000Y56370305D01*
X63610000Y56089145D02*
X63610000Y56370305D01*
%TO.C,R14*%
X87597071Y77992451D02*
X87597071Y78466967D01*
X88642071Y77992451D02*
X88642071Y78466967D01*
%TO.C,R15*%
X87597071Y55992467D02*
X87597071Y56466983D01*
X88642071Y55992467D02*
X88642071Y56466983D01*
%TO.C,C24*%
X50542747Y34089161D02*
X50542747Y34370321D01*
X51562747Y34089161D02*
X51562747Y34370321D01*
%TO.C,C63*%
X44039973Y12089177D02*
X44039973Y12370337D01*
X45059973Y12089177D02*
X45059973Y12370337D01*
%TO.C,C29*%
X61090000Y56089145D02*
X61090000Y56370305D01*
X62110000Y56089145D02*
X62110000Y56370305D01*
%TO.C,C65*%
X64102473Y56089145D02*
X64102473Y56370305D01*
X65122473Y56089145D02*
X65122473Y56370305D01*
%TO.C,C40*%
X72086461Y78089129D02*
X72086461Y78370289D01*
X73106461Y78089129D02*
X73106461Y78370289D01*
%TO.C,R1*%
X47472071Y55992467D02*
X47472071Y56466983D01*
X48517071Y55992467D02*
X48517071Y56466983D01*
%TO.C,C53*%
X90667747Y56089145D02*
X90667747Y56370305D01*
X91687747Y56089145D02*
X91687747Y56370305D01*
%TO.C,R26*%
X49049034Y33992483D02*
X49049034Y34466999D01*
X50094034Y33992483D02*
X50094034Y34466999D01*
%TO.C,C36*%
X70605247Y78089129D02*
X70605247Y78370289D01*
X71625247Y78089129D02*
X71625247Y78370289D01*
%TO.C,C43*%
X61090000Y12089177D02*
X61090000Y12370337D01*
X62110000Y12089177D02*
X62110000Y12370337D01*
%TO.C,C47*%
X90667747Y12089177D02*
X90667747Y12370337D01*
X91687747Y12089177D02*
X91687747Y12370337D01*
%TO.C,C45*%
X81152500Y56089145D02*
X81152500Y56370305D01*
X82172500Y56089145D02*
X82172500Y56370305D01*
%TO.C,C26*%
X52023961Y34089161D02*
X52023961Y34370321D01*
X53043961Y34089161D02*
X53043961Y34370321D01*
%TO.C,R2*%
X47472071Y33992483D02*
X47472071Y34466999D01*
X48517071Y33992483D02*
X48517071Y34466999D01*
%TO.C,R28*%
X89174034Y33992483D02*
X89174034Y34466999D01*
X90219034Y33992483D02*
X90219034Y34466999D01*
%TO.C,R21*%
X69111534Y77992451D02*
X69111534Y78466967D01*
X70156534Y77992451D02*
X70156534Y78466967D01*
%TO.C,C27*%
X41027500Y12089177D02*
X41027500Y12370337D01*
X42047500Y12089177D02*
X42047500Y12370337D01*
%TO.C,C28*%
X61090000Y78089129D02*
X61090000Y78370289D01*
X62110000Y78089129D02*
X62110000Y78370289D01*
%TO.C,C42*%
X72086461Y34089161D02*
X72086461Y34370321D01*
X73106461Y34089161D02*
X73106461Y34370321D01*
%TO.C,C2*%
X50542747Y78089129D02*
X50542747Y78370289D01*
X51562747Y78089129D02*
X51562747Y78370289D01*
%TO.C,C17*%
X42527500Y56089145D02*
X42527500Y56370305D01*
X43547500Y56089145D02*
X43547500Y56370305D01*
%TO.C,C69*%
X84164973Y34089161D02*
X84164973Y34370321D01*
X85184973Y34089161D02*
X85184973Y34370321D01*
%TO.C,C55*%
X82652500Y12089177D02*
X82652500Y12370337D01*
X83672500Y12089177D02*
X83672500Y12370337D01*
%TO.C,R16*%
X87597071Y33992483D02*
X87597071Y34466999D01*
X88642071Y33992483D02*
X88642071Y34466999D01*
%TO.C,C37*%
X70605247Y56089145D02*
X70605247Y56370305D01*
X71625247Y56089145D02*
X71625247Y56370305D01*
%TO.C,R9*%
X47472071Y11992499D02*
X47472071Y12467015D01*
X48517071Y11992499D02*
X48517071Y12467015D01*
%TO.C,C57*%
X92148961Y56089145D02*
X92148961Y56370305D01*
X93168961Y56089145D02*
X93168961Y56370305D01*
%TO.C,C44*%
X81152500Y78089129D02*
X81152500Y78370289D01*
X82172500Y78089129D02*
X82172500Y78370289D01*
%TO.C,C50*%
X82652500Y34089161D02*
X82652500Y34370321D01*
X83672500Y34089161D02*
X83672500Y34370321D01*
%TO.C,C61*%
X44039973Y56089145D02*
X44039973Y56370305D01*
X45059973Y56089145D02*
X45059973Y56370305D01*
%TO.C,C4*%
X52023961Y78089129D02*
X52023961Y78370289D01*
X53043961Y78089129D02*
X53043961Y78370289D01*
%TO.C,C41*%
X72086461Y56089145D02*
X72086461Y56370305D01*
X73106461Y56089145D02*
X73106461Y56370305D01*
%TO.C,C38*%
X70605247Y34089161D02*
X70605247Y34370321D01*
X71625247Y34089161D02*
X71625247Y34370321D01*
%TO.C,C5*%
X41027500Y56089145D02*
X41027500Y56370305D01*
X42047500Y56089145D02*
X42047500Y56370305D01*
%TO.C,C3*%
X41027500Y78089129D02*
X41027500Y78370289D01*
X42047500Y78089129D02*
X42047500Y78370289D01*
%TO.C,C52*%
X90667747Y78089129D02*
X90667747Y78370289D01*
X91687747Y78089129D02*
X91687747Y78370289D01*
%TO.C,R29*%
X49049034Y11992499D02*
X49049034Y12467015D01*
X50094034Y11992499D02*
X50094034Y12467015D01*
%TO.C,C1*%
X42527500Y78089129D02*
X42527500Y78370289D01*
X43547500Y78089129D02*
X43547500Y78370289D01*
%TO.C,C23*%
X52023961Y12089177D02*
X52023961Y12370337D01*
X53043961Y12089177D02*
X53043961Y12370337D01*
%TO.C,C39*%
X62590000Y12089177D02*
X62590000Y12370337D01*
X63610000Y12089177D02*
X63610000Y12370337D01*
%TO.C,C59*%
X81152500Y12089177D02*
X81152500Y12370337D01*
X82172500Y12089177D02*
X82172500Y12370337D01*
%TO.C,C62*%
X44039973Y34089161D02*
X44039973Y34370321D01*
X45059973Y34089161D02*
X45059973Y34370321D01*
%TO.C,C70*%
X84164973Y56089145D02*
X84164973Y56370305D01*
X85184973Y56089145D02*
X85184973Y56370305D01*
%TO.C,C49*%
X82652500Y56089145D02*
X82652500Y56370305D01*
X83672500Y56089145D02*
X83672500Y56370305D01*
%TO.C,C68*%
X84164973Y12089177D02*
X84164973Y12370337D01*
X85184973Y12089177D02*
X85184973Y12370337D01*
%TO.C,C25*%
X42527500Y12089177D02*
X42527500Y12370337D01*
X43547500Y12089177D02*
X43547500Y12370337D01*
%TO.C,R3*%
X47472071Y77992451D02*
X47472071Y78466967D01*
X48517071Y77992451D02*
X48517071Y78466967D01*
%TO.C,R11*%
X67534571Y55992467D02*
X67534571Y56466983D01*
X68579571Y55992467D02*
X68579571Y56466983D01*
%TO.C,R17*%
X87597071Y11992499D02*
X87597071Y12467015D01*
X88642071Y11992499D02*
X88642071Y12467015D01*
%TO.C,C32*%
X62590000Y78089129D02*
X62590000Y78370289D01*
X63610000Y78089129D02*
X63610000Y78370289D01*
%TO.C,C21*%
X50542747Y12089177D02*
X50542747Y12370337D01*
X51562747Y12089177D02*
X51562747Y12370337D01*
%TO.C,C22*%
X42527500Y34089161D02*
X42527500Y34370321D01*
X43547500Y34089161D02*
X43547500Y34370321D01*
%TO.C,R25*%
X89174034Y55992467D02*
X89174034Y56466983D01*
X90219034Y55992467D02*
X90219034Y56466983D01*
%TO.C,C60*%
X44039973Y78089129D02*
X44039973Y78370289D01*
X45059973Y78089129D02*
X45059973Y78370289D01*
%TO.C,C66*%
X64102473Y34089161D02*
X64102473Y34370321D01*
X65122473Y34089161D02*
X65122473Y34370321D01*
%TO.C,C18*%
X50542747Y56089145D02*
X50542747Y56370305D01*
X51562747Y56089145D02*
X51562747Y56370305D01*
%TO.C,R31*%
X89174034Y11992499D02*
X89174034Y12467015D01*
X90219034Y11992499D02*
X90219034Y12467015D01*
%TO.C,C19*%
X52023961Y56089145D02*
X52023961Y56370305D01*
X53043961Y56089145D02*
X53043961Y56370305D01*
%TO.C,R13*%
X67534571Y11992499D02*
X67534571Y12467015D01*
X68579571Y11992499D02*
X68579571Y12467015D01*
%TO.C,C67*%
X64102473Y12089177D02*
X64102473Y12370337D01*
X65122473Y12089177D02*
X65122473Y12370337D01*
%TO.C,R20*%
X49049034Y77992451D02*
X49049034Y78466967D01*
X50094034Y77992451D02*
X50094034Y78466967D01*
%TO.C,C31*%
X70605247Y12089177D02*
X70605247Y12370337D01*
X71625247Y12089177D02*
X71625247Y12370337D01*
%TO.C,R30*%
X69111534Y11992499D02*
X69111534Y12467015D01*
X70156534Y11992499D02*
X70156534Y12467015D01*
%TO.C,C46*%
X81152500Y34089161D02*
X81152500Y34370321D01*
X82172500Y34089161D02*
X82172500Y34370321D01*
%TO.C,R27*%
X69111534Y33992483D02*
X69111534Y34466999D01*
X70156534Y33992483D02*
X70156534Y34466999D01*
%TO.C,C30*%
X61090000Y34089161D02*
X61090000Y34370321D01*
X62110000Y34089161D02*
X62110000Y34370321D01*
%TO.C,C34*%
X62590000Y34089161D02*
X62590000Y34370321D01*
X63610000Y34089161D02*
X63610000Y34370321D01*
%TD*%
M02*
