M48
; DRILL file KiCad 10.0.5 date 2026-08-23T10:24:43
; FORMAT={-:-/ absolute / metric / decimal}
; #@! TF.CreationDate,2026-08-23T10:24:43+02:00
; #@! TF.GenerationSoftware,Kicad,Pcbnew,10.0.5
; #@! TF.FileFunction,NonPlated,1,4,NPTH
FMAT,2
METRIC
; #@! TA.AperFunction,NonPlated,NPTH,ComponentDrill
T1C1.850
; #@! TA.AperFunction,NonPlated,NPTH,ComponentDrill
T2C1.900
; #@! TA.AperFunction,NonPlated,NPTH,ComponentDrill
T3C2.200
; #@! TA.AperFunction,NonPlated,NPTH,ComponentDrill
T4C2.700
; #@! TA.AperFunction,NonPlated,NPTH,ComponentDrill
T5C5.050
%
G90
G05
T1
X10.674Y94.932
X15.524Y94.932
T2
X40.237Y84.555
X40.237Y62.555
X40.237Y40.555
X40.237Y18.555
X51.237Y84.555
X51.237Y62.555
X51.237Y40.555
X51.237Y18.555
X60.3Y84.555
X60.3Y62.555
X60.3Y40.555
X60.3Y18.555
X71.3Y84.555
X71.3Y62.555
X71.3Y40.555
X71.3Y18.555
X80.362Y84.555
X80.362Y62.555
X80.362Y40.555
X80.362Y18.555
X91.362Y84.555
X91.362Y62.555
X91.362Y40.555
X91.362Y18.555
T3
X10.374Y97.962
X15.824Y97.962
T4
X31.75Y96.0
X31.75Y4.0
X96.0Y96.0
X96.0Y4.0
T5
X45.737Y84.555
X45.737Y62.555
X45.737Y40.555
X45.737Y18.555
X65.8Y84.555
X65.8Y62.555
X65.8Y40.555
X65.8Y18.555
X85.862Y84.555
X85.862Y62.555
X85.862Y40.555
X85.862Y18.555
M30
