%TF.GenerationSoftware,KiCad,Pcbnew,10.0.5*%
%TF.CreationDate,2026-09-12T01:20:30+02:00*%
%TF.ProjectId,oled_keyboard,6f6c6564-5f6b-4657-9962-6f6172642e6b,rev?*%
%TF.SameCoordinates,PX4e0ee90PY7c745a0*%
%TF.FileFunction,Paste,Top*%
%TF.FilePolarity,Positive*%
%FSLAX46Y46*%
G04 Gerber Fmt 4.6, Leading zero omitted, Abs format (unit mm)*
G04 Created by KiCad (PCBNEW 10.0.5) date 2026-09-12 01:20:30*
%MOMM*%
%LPD*%
G01*
G04 APERTURE LIST*
G04 Aperture macros list*
%AMRoundRect*
0 Rectangle with rounded corners*
0 $1 Rounding radius*
0 $2 $3 $4 $5 $6 $7 $8 $9 X,Y pos of 4 corners*
0 Add a 4 corners polygon primitive as box body*
4,1,4,$2,$3,$4,$5,$6,$7,$8,$9,$2,$3,0*
0 Add four circle primitives for the rounded corners*
1,1,$1+$1,$2,$3*
1,1,$1+$1,$4,$5*
1,1,$1+$1,$6,$7*
1,1,$1+$1,$8,$9*
0 Add four rect primitives between the rounded corners*
20,1,$1+$1,$2,$3,$4,$5,0*
20,1,$1+$1,$4,$5,$6,$7,0*
20,1,$1+$1,$6,$7,$8,$9,0*
20,1,$1+$1,$8,$9,$2,$3,0*%
G04 Aperture macros list end*
%ADD10C,0.010000*%
%ADD11R,0.400000X1.600000*%
%ADD12R,1.400000X2.900000*%
%ADD13RoundRect,0.250000X0.300000X-0.300000X0.300000X0.300000X-0.300000X0.300000X-0.300000X-0.300000X0*%
%ADD14RoundRect,0.225000X0.225000X0.250000X-0.225000X0.250000X-0.225000X-0.250000X0.225000X-0.250000X0*%
%ADD15RoundRect,0.200000X-0.200000X-0.275000X0.200000X-0.275000X0.200000X0.275000X-0.200000X0.275000X0*%
%ADD16RoundRect,0.250000X0.325000X0.650000X-0.325000X0.650000X-0.325000X-0.650000X0.325000X-0.650000X0*%
%ADD17RoundRect,0.050400X-0.249600X0.069600X-0.249600X-0.069600X0.249600X-0.069600X0.249600X0.069600X0*%
%ADD18RoundRect,0.050400X-0.069600X0.249600X-0.069600X-0.249600X0.069600X-0.249600X0.069600X0.249600X0*%
%ADD19RoundRect,0.225000X-0.225000X-0.250000X0.225000X-0.250000X0.225000X0.250000X-0.225000X0.250000X0*%
%ADD20RoundRect,0.200000X0.200000X0.275000X-0.200000X0.275000X-0.200000X-0.275000X0.200000X-0.275000X0*%
%ADD21RoundRect,0.200000X-0.275000X0.200000X-0.275000X-0.200000X0.275000X-0.200000X0.275000X0.200000X0*%
%ADD22R,3.700000X1.200000*%
%ADD23RoundRect,0.200000X0.275000X-0.200000X0.275000X0.200000X-0.275000X0.200000X-0.275000X-0.200000X0*%
G04 APERTURE END LIST*
D10*
%TO.C,U1*%
X10437500Y29820000D02*
X10437500Y28900000D01*
X11287500Y28900000D01*
X11287500Y29820000D01*
X10437500Y29820000D01*
G36*
X11287500Y28900000D02*
G01*
X10437500Y28900000D01*
X10437500Y29820000D01*
X11287500Y29820000D01*
X11287500Y28900000D01*
G37*
X10437500Y28700000D02*
X10437500Y27780000D01*
X11287500Y27780000D01*
X11287500Y28700000D01*
X10437500Y28700000D01*
G36*
X11287500Y27780000D02*
G01*
X10437500Y27780000D01*
X10437500Y28700000D01*
X11287500Y28700000D01*
X11287500Y27780000D01*
G37*
X11487500Y29820000D02*
X11487500Y28900000D01*
X12337500Y28900000D01*
X12337500Y29820000D01*
X11487500Y29820000D01*
G36*
X12337500Y28900000D02*
G01*
X11487500Y28900000D01*
X11487500Y29820000D01*
X12337500Y29820000D01*
X12337500Y28900000D01*
G37*
X11487500Y28700000D02*
X11487500Y27780000D01*
X12337500Y27780000D01*
X12337500Y28700000D01*
X11487500Y28700000D01*
G36*
X12337500Y27780000D02*
G01*
X11487500Y27780000D01*
X11487500Y28700000D01*
X12337500Y28700000D01*
X12337500Y27780000D01*
G37*
X12537500Y29820000D02*
X12537500Y28900000D01*
X13387500Y28900000D01*
X13387500Y29820000D01*
X12537500Y29820000D01*
G36*
X13387500Y28900000D02*
G01*
X12537500Y28900000D01*
X12537500Y29820000D01*
X13387500Y29820000D01*
X13387500Y28900000D01*
G37*
X12537500Y28700000D02*
X12537500Y27780000D01*
X13387500Y27780000D01*
X13387500Y28700000D01*
X12537500Y28700000D01*
G36*
X13387500Y27780000D02*
G01*
X12537500Y27780000D01*
X12537500Y28700000D01*
X13387500Y28700000D01*
X13387500Y27780000D01*
G37*
X10237500Y28425000D02*
X9512500Y28425000D01*
X9509500Y28425000D01*
X9507500Y28425000D01*
X9504500Y28426000D01*
X9502500Y28426000D01*
X9499500Y28427000D01*
X9497500Y28427000D01*
X9494500Y28428000D01*
X9492500Y28429000D01*
X9489500Y28430000D01*
X9487500Y28432000D01*
X9485500Y28433000D01*
X9483500Y28435000D01*
X9481500Y28436000D01*
X9479500Y28438000D01*
X9477500Y28440000D01*
X9475500Y28442000D01*
X9473500Y28444000D01*
X9472500Y28446000D01*
X9470500Y28448000D01*
X9469500Y28450000D01*
X9467500Y28452000D01*
X9466500Y28455000D01*
X9465500Y28457000D01*
X9464500Y28460000D01*
X9464500Y28462000D01*
X9463500Y28465000D01*
X9463500Y28467000D01*
X9462500Y28470000D01*
X9462500Y28472000D01*
X9462500Y28475000D01*
X9462500Y28575000D01*
X9462500Y28578000D01*
X9462500Y28580000D01*
X9463500Y28583000D01*
X9463500Y28585000D01*
X9464500Y28588000D01*
X9464500Y28590000D01*
X9465500Y28593000D01*
X9466500Y28595000D01*
X9467500Y28598000D01*
X9469500Y28600000D01*
X9470500Y28602000D01*
X9472500Y28604000D01*
X9473500Y28606000D01*
X9475500Y28608000D01*
X9477500Y28610000D01*
X9479500Y28612000D01*
X9481500Y28614000D01*
X9483500Y28615000D01*
X9485500Y28617000D01*
X9487500Y28618000D01*
X9489500Y28620000D01*
X9492500Y28621000D01*
X9494500Y28622000D01*
X9497500Y28623000D01*
X9499500Y28623000D01*
X9502500Y28624000D01*
X9504500Y28624000D01*
X9507500Y28625000D01*
X9509500Y28625000D01*
X9512500Y28625000D01*
X9987500Y28625000D01*
X9987500Y28975000D01*
X9512500Y28975000D01*
X9509500Y28975000D01*
X9507500Y28975000D01*
X9504500Y28976000D01*
X9502500Y28976000D01*
X9499500Y28977000D01*
X9497500Y28977000D01*
X9494500Y28978000D01*
X9492500Y28979000D01*
X9489500Y28980000D01*
X9487500Y28982000D01*
X9485500Y28983000D01*
X9483500Y28985000D01*
X9481500Y28986000D01*
X9479500Y28988000D01*
X9477500Y28990000D01*
X9475500Y28992000D01*
X9473500Y28994000D01*
X9472500Y28996000D01*
X9470500Y28998000D01*
X9469500Y29000000D01*
X9467500Y29002000D01*
X9466500Y29005000D01*
X9465500Y29007000D01*
X9464500Y29010000D01*
X9464500Y29012000D01*
X9463500Y29015000D01*
X9463500Y29017000D01*
X9462500Y29020000D01*
X9462500Y29022000D01*
X9462500Y29025000D01*
X9462500Y29125000D01*
X9462500Y29128000D01*
X9462500Y29130000D01*
X9463500Y29133000D01*
X9463500Y29135000D01*
X9464500Y29138000D01*
X9464500Y29140000D01*
X9465500Y29143000D01*
X9466500Y29145000D01*
X9467500Y29148000D01*
X9469500Y29150000D01*
X9470500Y29152000D01*
X9472500Y29154000D01*
X9473500Y29156000D01*
X9475500Y29158000D01*
X9477500Y29160000D01*
X9479500Y29162000D01*
X9481500Y29164000D01*
X9483500Y29165000D01*
X9485500Y29167000D01*
X9487500Y29168000D01*
X9489500Y29170000D01*
X9492500Y29171000D01*
X9494500Y29172000D01*
X9497500Y29173000D01*
X9499500Y29173000D01*
X9502500Y29174000D01*
X9504500Y29174000D01*
X9507500Y29175000D01*
X9509500Y29175000D01*
X9512500Y29175000D01*
X10237500Y29175000D01*
X10237500Y28425000D01*
G36*
X10237500Y28425000D02*
G01*
X9512500Y28425000D01*
X9509500Y28425000D01*
X9507500Y28425000D01*
X9504500Y28426000D01*
X9502500Y28426000D01*
X9499500Y28427000D01*
X9497500Y28427000D01*
X9494500Y28428000D01*
X9492500Y28429000D01*
X9489500Y28430000D01*
X9487500Y28432000D01*
X9485500Y28433000D01*
X9483500Y28435000D01*
X9481500Y28436000D01*
X9479500Y28438000D01*
X9477500Y28440000D01*
X9475500Y28442000D01*
X9473500Y28444000D01*
X9472500Y28446000D01*
X9470500Y28448000D01*
X9469500Y28450000D01*
X9467500Y28452000D01*
X9466500Y28455000D01*
X9465500Y28457000D01*
X9464500Y28460000D01*
X9464500Y28462000D01*
X9463500Y28465000D01*
X9463500Y28467000D01*
X9462500Y28470000D01*
X9462500Y28472000D01*
X9462500Y28475000D01*
X9462500Y28575000D01*
X9462500Y28578000D01*
X9462500Y28580000D01*
X9463500Y28583000D01*
X9463500Y28585000D01*
X9464500Y28588000D01*
X9464500Y28590000D01*
X9465500Y28593000D01*
X9466500Y28595000D01*
X9467500Y28598000D01*
X9469500Y28600000D01*
X9470500Y28602000D01*
X9472500Y28604000D01*
X9473500Y28606000D01*
X9475500Y28608000D01*
X9477500Y28610000D01*
X9479500Y28612000D01*
X9481500Y28614000D01*
X9483500Y28615000D01*
X9485500Y28617000D01*
X9487500Y28618000D01*
X9489500Y28620000D01*
X9492500Y28621000D01*
X9494500Y28622000D01*
X9497500Y28623000D01*
X9499500Y28623000D01*
X9502500Y28624000D01*
X9504500Y28624000D01*
X9507500Y28625000D01*
X9509500Y28625000D01*
X9512500Y28625000D01*
X9987500Y28625000D01*
X9987500Y28975000D01*
X9512500Y28975000D01*
X9509500Y28975000D01*
X9507500Y28975000D01*
X9504500Y28976000D01*
X9502500Y28976000D01*
X9499500Y28977000D01*
X9497500Y28977000D01*
X9494500Y28978000D01*
X9492500Y28979000D01*
X9489500Y28980000D01*
X9487500Y28982000D01*
X9485500Y28983000D01*
X9483500Y28985000D01*
X9481500Y28986000D01*
X9479500Y28988000D01*
X9477500Y28990000D01*
X9475500Y28992000D01*
X9473500Y28994000D01*
X9472500Y28996000D01*
X9470500Y28998000D01*
X9469500Y29000000D01*
X9467500Y29002000D01*
X9466500Y29005000D01*
X9465500Y29007000D01*
X9464500Y29010000D01*
X9464500Y29012000D01*
X9463500Y29015000D01*
X9463500Y29017000D01*
X9462500Y29020000D01*
X9462500Y29022000D01*
X9462500Y29025000D01*
X9462500Y29125000D01*
X9462500Y29128000D01*
X9462500Y29130000D01*
X9463500Y29133000D01*
X9463500Y29135000D01*
X9464500Y29138000D01*
X9464500Y29140000D01*
X9465500Y29143000D01*
X9466500Y29145000D01*
X9467500Y29148000D01*
X9469500Y29150000D01*
X9470500Y29152000D01*
X9472500Y29154000D01*
X9473500Y29156000D01*
X9475500Y29158000D01*
X9477500Y29160000D01*
X9479500Y29162000D01*
X9481500Y29164000D01*
X9483500Y29165000D01*
X9485500Y29167000D01*
X9487500Y29168000D01*
X9489500Y29170000D01*
X9492500Y29171000D01*
X9494500Y29172000D01*
X9497500Y29173000D01*
X9499500Y29173000D01*
X9502500Y29174000D01*
X9504500Y29174000D01*
X9507500Y29175000D01*
X9509500Y29175000D01*
X9512500Y29175000D01*
X10237500Y29175000D01*
X10237500Y28425000D01*
G37*
X13587500Y29175000D02*
X14312500Y29175000D01*
X14315500Y29175000D01*
X14317500Y29175000D01*
X14320500Y29174000D01*
X14322500Y29174000D01*
X14325500Y29173000D01*
X14327500Y29173000D01*
X14330500Y29172000D01*
X14332500Y29171000D01*
X14335500Y29170000D01*
X14337500Y29168000D01*
X14339500Y29167000D01*
X14341500Y29165000D01*
X14343500Y29164000D01*
X14345500Y29162000D01*
X14347500Y29160000D01*
X14349500Y29158000D01*
X14351500Y29156000D01*
X14352500Y29154000D01*
X14354500Y29152000D01*
X14355500Y29150000D01*
X14357500Y29148000D01*
X14358500Y29145000D01*
X14359500Y29143000D01*
X14360500Y29140000D01*
X14360500Y29138000D01*
X14361500Y29135000D01*
X14361500Y29133000D01*
X14362500Y29130000D01*
X14362500Y29128000D01*
X14362500Y29125000D01*
X14362500Y29025000D01*
X14362500Y29022000D01*
X14362500Y29020000D01*
X14361500Y29017000D01*
X14361500Y29015000D01*
X14360500Y29012000D01*
X14360500Y29010000D01*
X14359500Y29007000D01*
X14358500Y29005000D01*
X14357500Y29002000D01*
X14355500Y29000000D01*
X14354500Y28998000D01*
X14352500Y28996000D01*
X14351500Y28994000D01*
X14349500Y28992000D01*
X14347500Y28990000D01*
X14345500Y28988000D01*
X14343500Y28986000D01*
X14341500Y28985000D01*
X14339500Y28983000D01*
X14337500Y28982000D01*
X14335500Y28980000D01*
X14332500Y28979000D01*
X14330500Y28978000D01*
X14327500Y28977000D01*
X14325500Y28977000D01*
X14322500Y28976000D01*
X14320500Y28976000D01*
X14317500Y28975000D01*
X14315500Y28975000D01*
X14312500Y28975000D01*
X13837500Y28975000D01*
X13837500Y28625000D01*
X14312500Y28625000D01*
X14315500Y28625000D01*
X14317500Y28625000D01*
X14320500Y28624000D01*
X14322500Y28624000D01*
X14325500Y28623000D01*
X14327500Y28623000D01*
X14330500Y28622000D01*
X14332500Y28621000D01*
X14335500Y28620000D01*
X14337500Y28618000D01*
X14339500Y28617000D01*
X14341500Y28615000D01*
X14343500Y28614000D01*
X14345500Y28612000D01*
X14347500Y28610000D01*
X14349500Y28608000D01*
X14351500Y28606000D01*
X14352500Y28604000D01*
X14354500Y28602000D01*
X14355500Y28600000D01*
X14357500Y28598000D01*
X14358500Y28595000D01*
X14359500Y28593000D01*
X14360500Y28590000D01*
X14360500Y28588000D01*
X14361500Y28585000D01*
X14361500Y28583000D01*
X14362500Y28580000D01*
X14362500Y28578000D01*
X14362500Y28575000D01*
X14362500Y28475000D01*
X14362500Y28472000D01*
X14362500Y28470000D01*
X14361500Y28467000D01*
X14361500Y28465000D01*
X14360500Y28462000D01*
X14360500Y28460000D01*
X14359500Y28457000D01*
X14358500Y28455000D01*
X14357500Y28452000D01*
X14355500Y28450000D01*
X14354500Y28448000D01*
X14352500Y28446000D01*
X14351500Y28444000D01*
X14349500Y28442000D01*
X14347500Y28440000D01*
X14345500Y28438000D01*
X14343500Y28436000D01*
X14341500Y28435000D01*
X14339500Y28433000D01*
X14337500Y28432000D01*
X14335500Y28430000D01*
X14332500Y28429000D01*
X14330500Y28428000D01*
X14327500Y28427000D01*
X14325500Y28427000D01*
X14322500Y28426000D01*
X14320500Y28426000D01*
X14317500Y28425000D01*
X14315500Y28425000D01*
X14312500Y28425000D01*
X13587500Y28425000D01*
X13587500Y29175000D01*
G36*
X14320500Y29174000D02*
G01*
X14322500Y29174000D01*
X14325500Y29173000D01*
X14327500Y29173000D01*
X14330500Y29172000D01*
X14332500Y29171000D01*
X14335500Y29170000D01*
X14337500Y29168000D01*
X14339500Y29167000D01*
X14341500Y29165000D01*
X14343500Y29164000D01*
X14345500Y29162000D01*
X14347500Y29160000D01*
X14349500Y29158000D01*
X14351500Y29156000D01*
X14352500Y29154000D01*
X14354500Y29152000D01*
X14355500Y29150000D01*
X14357500Y29148000D01*
X14358500Y29145000D01*
X14359500Y29143000D01*
X14360500Y29140000D01*
X14360500Y29138000D01*
X14361500Y29135000D01*
X14361500Y29133000D01*
X14362500Y29130000D01*
X14362500Y29128000D01*
X14362500Y29125000D01*
X14362500Y29025000D01*
X14362500Y29022000D01*
X14362500Y29020000D01*
X14361500Y29017000D01*
X14361500Y29015000D01*
X14360500Y29012000D01*
X14360500Y29010000D01*
X14359500Y29007000D01*
X14358500Y29005000D01*
X14357500Y29002000D01*
X14355500Y29000000D01*
X14354500Y28998000D01*
X14352500Y28996000D01*
X14351500Y28994000D01*
X14349500Y28992000D01*
X14347500Y28990000D01*
X14345500Y28988000D01*
X14343500Y28986000D01*
X14341500Y28985000D01*
X14339500Y28983000D01*
X14337500Y28982000D01*
X14335500Y28980000D01*
X14332500Y28979000D01*
X14330500Y28978000D01*
X14327500Y28977000D01*
X14325500Y28977000D01*
X14322500Y28976000D01*
X14320500Y28976000D01*
X14317500Y28975000D01*
X14315500Y28975000D01*
X14312500Y28975000D01*
X13837500Y28975000D01*
X13837500Y28625000D01*
X14312500Y28625000D01*
X14315500Y28625000D01*
X14317500Y28625000D01*
X14320500Y28624000D01*
X14322500Y28624000D01*
X14325500Y28623000D01*
X14327500Y28623000D01*
X14330500Y28622000D01*
X14332500Y28621000D01*
X14335500Y28620000D01*
X14337500Y28618000D01*
X14339500Y28617000D01*
X14341500Y28615000D01*
X14343500Y28614000D01*
X14345500Y28612000D01*
X14347500Y28610000D01*
X14349500Y28608000D01*
X14351500Y28606000D01*
X14352500Y28604000D01*
X14354500Y28602000D01*
X14355500Y28600000D01*
X14357500Y28598000D01*
X14358500Y28595000D01*
X14359500Y28593000D01*
X14360500Y28590000D01*
X14360500Y28588000D01*
X14361500Y28585000D01*
X14361500Y28583000D01*
X14362500Y28580000D01*
X14362500Y28578000D01*
X14362500Y28575000D01*
X14362500Y28475000D01*
X14362500Y28472000D01*
X14362500Y28470000D01*
X14361500Y28467000D01*
X14361500Y28465000D01*
X14360500Y28462000D01*
X14360500Y28460000D01*
X14359500Y28457000D01*
X14358500Y28455000D01*
X14357500Y28452000D01*
X14355500Y28450000D01*
X14354500Y28448000D01*
X14352500Y28446000D01*
X14351500Y28444000D01*
X14349500Y28442000D01*
X14347500Y28440000D01*
X14345500Y28438000D01*
X14343500Y28436000D01*
X14341500Y28435000D01*
X14339500Y28433000D01*
X14337500Y28432000D01*
X14335500Y28430000D01*
X14332500Y28429000D01*
X14330500Y28428000D01*
X14327500Y28427000D01*
X14325500Y28427000D01*
X14322500Y28426000D01*
X14320500Y28426000D01*
X14317500Y28425000D01*
X14315500Y28425000D01*
X14312500Y28425000D01*
X13587500Y28425000D01*
X13587500Y29175000D01*
X14312500Y29175000D01*
X14315500Y29175000D01*
X14317500Y29175000D01*
X14320500Y29174000D01*
G37*
%TD*%
D11*
%TO.C,J1*%
X50487500Y75555000D03*
X49987500Y73155000D03*
X49487500Y75555000D03*
X48987500Y73155000D03*
X48487500Y75555000D03*
X47987500Y73155000D03*
X47487500Y75555000D03*
X46987500Y73155000D03*
X46487500Y75555000D03*
X45987500Y73155000D03*
X45487500Y75555000D03*
X44987500Y73155000D03*
X44487500Y75555000D03*
X43987500Y73155000D03*
X43487500Y75555000D03*
X42987500Y73155000D03*
X42487500Y75555000D03*
X41987500Y73155000D03*
X41487500Y75555000D03*
X40987500Y73155000D03*
D12*
X52187500Y74355000D03*
X39287500Y74355000D03*
%TD*%
D11*
%TO.C,J2*%
X50487500Y53555016D03*
X49987500Y51155016D03*
X49487500Y53555016D03*
X48987500Y51155016D03*
X48487500Y53555016D03*
X47987500Y51155016D03*
X47487500Y53555016D03*
X46987500Y51155016D03*
X46487500Y53555016D03*
X45987500Y51155016D03*
X45487500Y53555016D03*
X44987500Y51155016D03*
X44487500Y53555016D03*
X43987500Y51155016D03*
X43487500Y53555016D03*
X42987500Y51155016D03*
X42487500Y53555016D03*
X41987500Y51155016D03*
X41487500Y53555016D03*
X40987500Y51155016D03*
D12*
X52187500Y52355016D03*
X39287500Y52355016D03*
%TD*%
D11*
%TO.C,J3*%
X50487500Y31555032D03*
X49987500Y29155032D03*
X49487500Y31555032D03*
X48987500Y29155032D03*
X48487500Y31555032D03*
X47987500Y29155032D03*
X47487500Y31555032D03*
X46987500Y29155032D03*
X46487500Y31555032D03*
X45987500Y29155032D03*
X45487500Y31555032D03*
X44987500Y29155032D03*
X44487500Y31555032D03*
X43987500Y29155032D03*
X43487500Y31555032D03*
X42987500Y29155032D03*
X42487500Y31555032D03*
X41987500Y29155032D03*
X41487500Y31555032D03*
X40987500Y29155032D03*
D12*
X52187500Y30355032D03*
X39287500Y30355032D03*
%TD*%
D11*
%TO.C,J4*%
X50487500Y9555048D03*
X49987500Y7155048D03*
X49487500Y9555048D03*
X48987500Y7155048D03*
X48487500Y9555048D03*
X47987500Y7155048D03*
X47487500Y9555048D03*
X46987500Y7155048D03*
X46487500Y9555048D03*
X45987500Y7155048D03*
X45487500Y9555048D03*
X44987500Y7155048D03*
X44487500Y9555048D03*
X43987500Y7155048D03*
X43487500Y9555048D03*
X42987500Y7155048D03*
X42487500Y9555048D03*
X41987500Y7155048D03*
X41487500Y9555048D03*
X40987500Y7155048D03*
D12*
X52187500Y8355048D03*
X39287500Y8355048D03*
%TD*%
D11*
%TO.C,J5*%
X70550000Y75555000D03*
X70050000Y73155000D03*
X69550000Y75555000D03*
X69050000Y73155000D03*
X68550000Y75555000D03*
X68050000Y73155000D03*
X67550000Y75555000D03*
X67050000Y73155000D03*
X66550000Y75555000D03*
X66050000Y73155000D03*
X65550000Y75555000D03*
X65050000Y73155000D03*
X64550000Y75555000D03*
X64050000Y73155000D03*
X63550000Y75555000D03*
X63050000Y73155000D03*
X62550000Y75555000D03*
X62050000Y73155000D03*
X61550000Y75555000D03*
X61050000Y73155000D03*
D12*
X72250000Y74355000D03*
X59350000Y74355000D03*
%TD*%
D11*
%TO.C,J6*%
X70550000Y53555016D03*
X70050000Y51155016D03*
X69550000Y53555016D03*
X69050000Y51155016D03*
X68550000Y53555016D03*
X68050000Y51155016D03*
X67550000Y53555016D03*
X67050000Y51155016D03*
X66550000Y53555016D03*
X66050000Y51155016D03*
X65550000Y53555016D03*
X65050000Y51155016D03*
X64550000Y53555016D03*
X64050000Y51155016D03*
X63550000Y53555016D03*
X63050000Y51155016D03*
X62550000Y53555016D03*
X62050000Y51155016D03*
X61550000Y53555016D03*
X61050000Y51155016D03*
D12*
X72250000Y52355016D03*
X59350000Y52355016D03*
%TD*%
D11*
%TO.C,J7*%
X70550000Y31555032D03*
X70050000Y29155032D03*
X69550000Y31555032D03*
X69050000Y29155032D03*
X68550000Y31555032D03*
X68050000Y29155032D03*
X67550000Y31555032D03*
X67050000Y29155032D03*
X66550000Y31555032D03*
X66050000Y29155032D03*
X65550000Y31555032D03*
X65050000Y29155032D03*
X64550000Y31555032D03*
X64050000Y29155032D03*
X63550000Y31555032D03*
X63050000Y29155032D03*
X62550000Y31555032D03*
X62050000Y29155032D03*
X61550000Y31555032D03*
X61050000Y29155032D03*
D12*
X72250000Y30355032D03*
X59350000Y30355032D03*
%TD*%
D11*
%TO.C,J8*%
X70550000Y9555048D03*
X70050000Y7155048D03*
X69550000Y9555048D03*
X69050000Y7155048D03*
X68550000Y9555048D03*
X68050000Y7155048D03*
X67550000Y9555048D03*
X67050000Y7155048D03*
X66550000Y9555048D03*
X66050000Y7155048D03*
X65550000Y9555048D03*
X65050000Y7155048D03*
X64550000Y9555048D03*
X64050000Y7155048D03*
X63550000Y9555048D03*
X63050000Y7155048D03*
X62550000Y9555048D03*
X62050000Y7155048D03*
X61550000Y9555048D03*
X61050000Y7155048D03*
D12*
X72250000Y8355048D03*
X59350000Y8355048D03*
%TD*%
D11*
%TO.C,J9*%
X90612500Y75555000D03*
X90112500Y73155000D03*
X89612500Y75555000D03*
X89112500Y73155000D03*
X88612500Y75555000D03*
X88112500Y73155000D03*
X87612500Y75555000D03*
X87112500Y73155000D03*
X86612500Y75555000D03*
X86112500Y73155000D03*
X85612500Y75555000D03*
X85112500Y73155000D03*
X84612500Y75555000D03*
X84112500Y73155000D03*
X83612500Y75555000D03*
X83112500Y73155000D03*
X82612500Y75555000D03*
X82112500Y73155000D03*
X81612500Y75555000D03*
X81112500Y73155000D03*
D12*
X92312500Y74355000D03*
X79412500Y74355000D03*
%TD*%
D11*
%TO.C,J10*%
X90612500Y53555016D03*
X90112500Y51155016D03*
X89612500Y53555016D03*
X89112500Y51155016D03*
X88612500Y53555016D03*
X88112500Y51155016D03*
X87612500Y53555016D03*
X87112500Y51155016D03*
X86612500Y53555016D03*
X86112500Y51155016D03*
X85612500Y53555016D03*
X85112500Y51155016D03*
X84612500Y53555016D03*
X84112500Y51155016D03*
X83612500Y53555016D03*
X83112500Y51155016D03*
X82612500Y53555016D03*
X82112500Y51155016D03*
X81612500Y53555016D03*
X81112500Y51155016D03*
D12*
X92312500Y52355016D03*
X79412500Y52355016D03*
%TD*%
D11*
%TO.C,J11*%
X90612500Y31555032D03*
X90112500Y29155032D03*
X89612500Y31555032D03*
X89112500Y29155032D03*
X88612500Y31555032D03*
X88112500Y29155032D03*
X87612500Y31555032D03*
X87112500Y29155032D03*
X86612500Y31555032D03*
X86112500Y29155032D03*
X85612500Y31555032D03*
X85112500Y29155032D03*
X84612500Y31555032D03*
X84112500Y29155032D03*
X83612500Y31555032D03*
X83112500Y29155032D03*
X82612500Y31555032D03*
X82112500Y29155032D03*
X81612500Y31555032D03*
X81112500Y29155032D03*
D12*
X92312500Y30355032D03*
X79412500Y30355032D03*
%TD*%
D11*
%TO.C,J12*%
X90612500Y9555048D03*
X90112500Y7155048D03*
X89612500Y9555048D03*
X89112500Y7155048D03*
X88612500Y9555048D03*
X88112500Y7155048D03*
X87612500Y9555048D03*
X87112500Y7155048D03*
X86612500Y9555048D03*
X86112500Y7155048D03*
X85612500Y9555048D03*
X85112500Y7155048D03*
X84612500Y9555048D03*
X84112500Y7155048D03*
X83612500Y9555048D03*
X83112500Y7155048D03*
X82612500Y9555048D03*
X82112500Y7155048D03*
X81612500Y9555048D03*
X81112500Y7155048D03*
D12*
X92312500Y8355048D03*
X79412500Y8355048D03*
%TD*%
D13*
%TO.C,D3*%
X96573189Y88368366D03*
X96573189Y91168366D03*
%TD*%
%TO.C,D11*%
X76510689Y22368414D03*
X76510689Y25168414D03*
%TD*%
D14*
%TO.C,C8*%
X7712500Y30825000D03*
X6162500Y30825000D03*
%TD*%
D15*
%TO.C,R18*%
X26741821Y57712454D03*
X28391821Y57712454D03*
%TD*%
D13*
%TO.C,D7*%
X56448189Y44368398D03*
X56448189Y47168398D03*
%TD*%
%TO.C,D8*%
X76510689Y44368398D03*
X76510689Y47168398D03*
%TD*%
%TO.C,D12*%
X96573189Y22368414D03*
X96573189Y25168414D03*
%TD*%
D14*
%TO.C,C6*%
X9962500Y24800000D03*
X8412500Y24800000D03*
%TD*%
D13*
%TO.C,D1*%
X56448189Y88368366D03*
X56448189Y91168366D03*
%TD*%
D16*
%TO.C,C14*%
X9887500Y16775000D03*
X6937500Y16775000D03*
%TD*%
D17*
%TO.C,U1*%
X14062500Y29550000D03*
D18*
X13662500Y30450000D03*
X13162500Y30450000D03*
X12662500Y30450000D03*
X12162500Y30450000D03*
X11662500Y30450000D03*
X11162500Y30450000D03*
X10662500Y30450000D03*
X10162500Y30450000D03*
D17*
X9762500Y29550000D03*
X9762500Y28050000D03*
D18*
X10162500Y27150000D03*
X10662500Y27150000D03*
X11162500Y27150000D03*
X11662500Y27150000D03*
X12162500Y27150000D03*
X12662500Y27150000D03*
X13162500Y27150000D03*
X13662500Y27150000D03*
D17*
X14062500Y28050000D03*
%TD*%
D16*
%TO.C,C15*%
X9887500Y19525000D03*
X6937500Y19525000D03*
%TD*%
%TO.C,C16*%
X9887500Y22275000D03*
X6937500Y22275000D03*
%TD*%
D13*
%TO.C,D2*%
X76510689Y88368366D03*
X76510689Y91168366D03*
%TD*%
%TO.C,D6*%
X96573189Y66368382D03*
X96573189Y69168382D03*
%TD*%
%TO.C,D10*%
X56448189Y22368414D03*
X56448189Y25168414D03*
%TD*%
D19*
%TO.C,C9*%
X9387500Y33050000D03*
X10937500Y33050000D03*
%TD*%
%TO.C,C12*%
X16137500Y30825000D03*
X17687500Y30825000D03*
%TD*%
D20*
%TO.C,R7*%
X17703000Y25679000D03*
X16053000Y25679000D03*
%TD*%
D15*
%TO.C,R8*%
X13087500Y33050000D03*
X14737500Y33050000D03*
%TD*%
D21*
%TO.C,R5*%
X12912500Y18125000D03*
X12912500Y16475000D03*
%TD*%
D15*
%TO.C,R19*%
X26729900Y59867037D03*
X28379900Y59867037D03*
%TD*%
D19*
%TO.C,C10*%
X8887500Y35800000D03*
X10437500Y35800000D03*
%TD*%
D22*
%TO.C,L1*%
X14912500Y38700000D03*
X14912500Y35900000D03*
%TD*%
D20*
%TO.C,R4*%
X14487500Y20550000D03*
X12837500Y20550000D03*
%TD*%
D23*
%TO.C,R6*%
X12912500Y23250000D03*
X12912500Y24900000D03*
%TD*%
D13*
%TO.C,D5*%
X76510689Y66368382D03*
X76510689Y69168382D03*
%TD*%
D19*
%TO.C,C11*%
X8887500Y37550000D03*
X10437500Y37550000D03*
%TD*%
%TO.C,C13*%
X16103000Y22258000D03*
X17653000Y22258000D03*
%TD*%
D13*
%TO.C,D4*%
X56448189Y66368382D03*
X56448189Y69168382D03*
%TD*%
D19*
%TO.C,C7*%
X16103000Y23929000D03*
X17653000Y23929000D03*
%TD*%
D13*
%TO.C,D9*%
X96573189Y44368398D03*
X96573189Y47168398D03*
%TD*%
M02*
