%TF.GenerationSoftware,KiCad,Pcbnew,10.0.5*%
%TF.CreationDate,2026-09-12T01:20:30+02:00*%
%TF.ProjectId,oled_keyboard,6f6c6564-5f6b-4657-9962-6f6172642e6b,rev?*%
%TF.SameCoordinates,PX4e0ee90PY7c745a0*%
%TF.FileFunction,Legend,Bot*%
%TF.FilePolarity,Positive*%
%FSLAX46Y46*%
G04 Gerber Fmt 4.6, Leading zero omitted, Abs format (unit mm)*
G04 Created by KiCad (PCBNEW 10.0.5) date 2026-09-12 01:20:30*
%MOMM*%
%LPD*%
G01*
G04 APERTURE LIST*
%ADD10C,0.300000*%
%ADD11C,0.150000*%
%ADD12C,0.120000*%
G04 APERTURE END LIST*
D10*
X8877867Y42736252D02*
X8758820Y42974347D01*
X8758820Y42974347D02*
X8639772Y43093394D01*
X8639772Y43093394D02*
X8401677Y43212442D01*
X8401677Y43212442D02*
X7687391Y43212442D01*
X7687391Y43212442D02*
X7449296Y43093394D01*
X7449296Y43093394D02*
X7330248Y42974347D01*
X7330248Y42974347D02*
X7211200Y42736252D01*
X7211200Y42736252D02*
X7211200Y42379109D01*
X7211200Y42379109D02*
X7330248Y42141013D01*
X7330248Y42141013D02*
X7449296Y42021966D01*
X7449296Y42021966D02*
X7687391Y41902918D01*
X7687391Y41902918D02*
X8401677Y41902918D01*
X8401677Y41902918D02*
X8639772Y42021966D01*
X8639772Y42021966D02*
X8758820Y42141013D01*
X8758820Y42141013D02*
X8877867Y42379109D01*
X8877867Y42379109D02*
X8877867Y42736252D01*
X8877867Y40474347D02*
X8758820Y40712442D01*
X8758820Y40712442D02*
X8520724Y40831489D01*
X8520724Y40831489D02*
X6377867Y40831489D01*
X8758820Y38569584D02*
X8877867Y38807680D01*
X8877867Y38807680D02*
X8877867Y39283870D01*
X8877867Y39283870D02*
X8758820Y39521965D01*
X8758820Y39521965D02*
X8520724Y39641013D01*
X8520724Y39641013D02*
X7568343Y39641013D01*
X7568343Y39641013D02*
X7330248Y39521965D01*
X7330248Y39521965D02*
X7211200Y39283870D01*
X7211200Y39283870D02*
X7211200Y38807680D01*
X7211200Y38807680D02*
X7330248Y38569584D01*
X7330248Y38569584D02*
X7568343Y38450537D01*
X7568343Y38450537D02*
X7806439Y38450537D01*
X7806439Y38450537D02*
X8044534Y39641013D01*
X8877867Y36307680D02*
X6377867Y36307680D01*
X8758820Y36307680D02*
X8877867Y36545775D01*
X8877867Y36545775D02*
X8877867Y37021966D01*
X8877867Y37021966D02*
X8758820Y37260061D01*
X8758820Y37260061D02*
X8639772Y37379108D01*
X8639772Y37379108D02*
X8401677Y37498156D01*
X8401677Y37498156D02*
X7687391Y37498156D01*
X7687391Y37498156D02*
X7449296Y37379108D01*
X7449296Y37379108D02*
X7330248Y37260061D01*
X7330248Y37260061D02*
X7211200Y37021966D01*
X7211200Y37021966D02*
X7211200Y36545775D01*
X7211200Y36545775D02*
X7330248Y36307680D01*
X8877867Y33212441D02*
X6377867Y33212441D01*
X7925486Y32974346D02*
X8877867Y32260060D01*
X7211200Y32260060D02*
X8163581Y33212441D01*
X8758820Y30236250D02*
X8877867Y30474346D01*
X8877867Y30474346D02*
X8877867Y30950536D01*
X8877867Y30950536D02*
X8758820Y31188631D01*
X8758820Y31188631D02*
X8520724Y31307679D01*
X8520724Y31307679D02*
X7568343Y31307679D01*
X7568343Y31307679D02*
X7330248Y31188631D01*
X7330248Y31188631D02*
X7211200Y30950536D01*
X7211200Y30950536D02*
X7211200Y30474346D01*
X7211200Y30474346D02*
X7330248Y30236250D01*
X7330248Y30236250D02*
X7568343Y30117203D01*
X7568343Y30117203D02*
X7806439Y30117203D01*
X7806439Y30117203D02*
X8044534Y31307679D01*
X7211200Y29283870D02*
X8877867Y28688632D01*
X7211200Y28093393D02*
X8877867Y28688632D01*
X8877867Y28688632D02*
X9473105Y28926727D01*
X9473105Y28926727D02*
X9592153Y29045774D01*
X9592153Y29045774D02*
X9711200Y29283870D01*
X8877867Y27141012D02*
X6377867Y27141012D01*
X7330248Y27141012D02*
X7211200Y26902917D01*
X7211200Y26902917D02*
X7211200Y26426727D01*
X7211200Y26426727D02*
X7330248Y26188631D01*
X7330248Y26188631D02*
X7449296Y26069584D01*
X7449296Y26069584D02*
X7687391Y25950536D01*
X7687391Y25950536D02*
X8401677Y25950536D01*
X8401677Y25950536D02*
X8639772Y26069584D01*
X8639772Y26069584D02*
X8758820Y26188631D01*
X8758820Y26188631D02*
X8877867Y26426727D01*
X8877867Y26426727D02*
X8877867Y26902917D01*
X8877867Y26902917D02*
X8758820Y27141012D01*
X8877867Y24521965D02*
X8758820Y24760060D01*
X8758820Y24760060D02*
X8639772Y24879107D01*
X8639772Y24879107D02*
X8401677Y24998155D01*
X8401677Y24998155D02*
X7687391Y24998155D01*
X7687391Y24998155D02*
X7449296Y24879107D01*
X7449296Y24879107D02*
X7330248Y24760060D01*
X7330248Y24760060D02*
X7211200Y24521965D01*
X7211200Y24521965D02*
X7211200Y24164822D01*
X7211200Y24164822D02*
X7330248Y23926726D01*
X7330248Y23926726D02*
X7449296Y23807679D01*
X7449296Y23807679D02*
X7687391Y23688631D01*
X7687391Y23688631D02*
X8401677Y23688631D01*
X8401677Y23688631D02*
X8639772Y23807679D01*
X8639772Y23807679D02*
X8758820Y23926726D01*
X8758820Y23926726D02*
X8877867Y24164822D01*
X8877867Y24164822D02*
X8877867Y24521965D01*
X8877867Y21545774D02*
X7568343Y21545774D01*
X7568343Y21545774D02*
X7330248Y21664821D01*
X7330248Y21664821D02*
X7211200Y21902917D01*
X7211200Y21902917D02*
X7211200Y22379107D01*
X7211200Y22379107D02*
X7330248Y22617202D01*
X8758820Y21545774D02*
X8877867Y21783869D01*
X8877867Y21783869D02*
X8877867Y22379107D01*
X8877867Y22379107D02*
X8758820Y22617202D01*
X8758820Y22617202D02*
X8520724Y22736250D01*
X8520724Y22736250D02*
X8282629Y22736250D01*
X8282629Y22736250D02*
X8044534Y22617202D01*
X8044534Y22617202D02*
X7925486Y22379107D01*
X7925486Y22379107D02*
X7925486Y21783869D01*
X7925486Y21783869D02*
X7806439Y21545774D01*
X8877867Y20355297D02*
X7211200Y20355297D01*
X7687391Y20355297D02*
X7449296Y20236250D01*
X7449296Y20236250D02*
X7330248Y20117202D01*
X7330248Y20117202D02*
X7211200Y19879107D01*
X7211200Y19879107D02*
X7211200Y19641012D01*
X8877867Y17736250D02*
X6377867Y17736250D01*
X8758820Y17736250D02*
X8877867Y17974345D01*
X8877867Y17974345D02*
X8877867Y18450536D01*
X8877867Y18450536D02*
X8758820Y18688631D01*
X8758820Y18688631D02*
X8639772Y18807678D01*
X8639772Y18807678D02*
X8401677Y18926726D01*
X8401677Y18926726D02*
X7687391Y18926726D01*
X7687391Y18926726D02*
X7449296Y18807678D01*
X7449296Y18807678D02*
X7330248Y18688631D01*
X7330248Y18688631D02*
X7211200Y18450536D01*
X7211200Y18450536D02*
X7211200Y17974345D01*
X7211200Y17974345D02*
X7330248Y17736250D01*
X11236060Y43331490D02*
X12902727Y42736252D01*
X12902727Y42736252D02*
X11236060Y42141013D01*
X10402727Y39998156D02*
X10402727Y41188632D01*
X10402727Y41188632D02*
X11593203Y41307680D01*
X11593203Y41307680D02*
X11474156Y41188632D01*
X11474156Y41188632D02*
X11355108Y40950537D01*
X11355108Y40950537D02*
X11355108Y40355299D01*
X11355108Y40355299D02*
X11474156Y40117204D01*
X11474156Y40117204D02*
X11593203Y39998156D01*
X11593203Y39998156D02*
X11831299Y39879109D01*
X11831299Y39879109D02*
X12426537Y39879109D01*
X12426537Y39879109D02*
X12664632Y39998156D01*
X12664632Y39998156D02*
X12783680Y40117204D01*
X12783680Y40117204D02*
X12902727Y40355299D01*
X12902727Y40355299D02*
X12902727Y40950537D01*
X12902727Y40950537D02*
X12783680Y41188632D01*
X12783680Y41188632D02*
X12664632Y41307680D01*
X12664632Y38807680D02*
X12783680Y38688633D01*
X12783680Y38688633D02*
X12902727Y38807680D01*
X12902727Y38807680D02*
X12783680Y38926728D01*
X12783680Y38926728D02*
X12664632Y38807680D01*
X12664632Y38807680D02*
X12902727Y38807680D01*
X12902727Y36307681D02*
X12902727Y37736252D01*
X12902727Y37021966D02*
X10402727Y37021966D01*
X10402727Y37021966D02*
X10759870Y37260062D01*
X10759870Y37260062D02*
X10997965Y37498157D01*
X10997965Y37498157D02*
X11117013Y37736252D01*
X16927587Y43093394D02*
X14427587Y43093394D01*
X15379968Y43093394D02*
X15260920Y42855299D01*
X15260920Y42855299D02*
X15260920Y42379109D01*
X15260920Y42379109D02*
X15379968Y42141013D01*
X15379968Y42141013D02*
X15499016Y42021966D01*
X15499016Y42021966D02*
X15737111Y41902918D01*
X15737111Y41902918D02*
X16451397Y41902918D01*
X16451397Y41902918D02*
X16689492Y42021966D01*
X16689492Y42021966D02*
X16808540Y42141013D01*
X16808540Y42141013D02*
X16927587Y42379109D01*
X16927587Y42379109D02*
X16927587Y42855299D01*
X16927587Y42855299D02*
X16808540Y43093394D01*
X15260920Y41069585D02*
X16927587Y40474347D01*
X15260920Y39879108D02*
X16927587Y40474347D01*
X16927587Y40474347D02*
X17522825Y40712442D01*
X17522825Y40712442D02*
X17641873Y40831489D01*
X17641873Y40831489D02*
X17760920Y41069585D01*
X14427587Y37260061D02*
X16927587Y35593394D01*
X14427587Y35593394D02*
X16927587Y37260061D01*
X16927587Y34641013D02*
X15260920Y34641013D01*
X14427587Y34641013D02*
X14546635Y34760061D01*
X14546635Y34760061D02*
X14665682Y34641013D01*
X14665682Y34641013D02*
X14546635Y34521966D01*
X14546635Y34521966D02*
X14427587Y34641013D01*
X14427587Y34641013D02*
X14665682Y34641013D01*
X15260920Y33450537D02*
X16927587Y33450537D01*
X15499016Y33450537D02*
X15379968Y33331490D01*
X15379968Y33331490D02*
X15260920Y33093395D01*
X15260920Y33093395D02*
X15260920Y32736252D01*
X15260920Y32736252D02*
X15379968Y32498156D01*
X15379968Y32498156D02*
X15618063Y32379109D01*
X15618063Y32379109D02*
X16927587Y32379109D01*
X18690542Y43212442D02*
X18571495Y43093394D01*
X18571495Y43093394D02*
X18452447Y42855299D01*
X18452447Y42855299D02*
X18452447Y42260061D01*
X18452447Y42260061D02*
X18571495Y42021966D01*
X18571495Y42021966D02*
X18690542Y41902918D01*
X18690542Y41902918D02*
X18928638Y41783871D01*
X18928638Y41783871D02*
X19166733Y41783871D01*
X19166733Y41783871D02*
X19523876Y41902918D01*
X19523876Y41902918D02*
X20952447Y43331490D01*
X20952447Y43331490D02*
X20952447Y41783871D01*
X18452447Y40236252D02*
X18452447Y39998157D01*
X18452447Y39998157D02*
X18571495Y39760061D01*
X18571495Y39760061D02*
X18690542Y39641014D01*
X18690542Y39641014D02*
X18928638Y39521966D01*
X18928638Y39521966D02*
X19404828Y39402919D01*
X19404828Y39402919D02*
X20000066Y39402919D01*
X20000066Y39402919D02*
X20476257Y39521966D01*
X20476257Y39521966D02*
X20714352Y39641014D01*
X20714352Y39641014D02*
X20833400Y39760061D01*
X20833400Y39760061D02*
X20952447Y39998157D01*
X20952447Y39998157D02*
X20952447Y40236252D01*
X20952447Y40236252D02*
X20833400Y40474347D01*
X20833400Y40474347D02*
X20714352Y40593395D01*
X20714352Y40593395D02*
X20476257Y40712442D01*
X20476257Y40712442D02*
X20000066Y40831490D01*
X20000066Y40831490D02*
X19404828Y40831490D01*
X19404828Y40831490D02*
X18928638Y40712442D01*
X18928638Y40712442D02*
X18690542Y40593395D01*
X18690542Y40593395D02*
X18571495Y40474347D01*
X18571495Y40474347D02*
X18452447Y40236252D01*
X18690542Y38450538D02*
X18571495Y38331490D01*
X18571495Y38331490D02*
X18452447Y38093395D01*
X18452447Y38093395D02*
X18452447Y37498157D01*
X18452447Y37498157D02*
X18571495Y37260062D01*
X18571495Y37260062D02*
X18690542Y37141014D01*
X18690542Y37141014D02*
X18928638Y37021967D01*
X18928638Y37021967D02*
X19166733Y37021967D01*
X19166733Y37021967D02*
X19523876Y37141014D01*
X19523876Y37141014D02*
X20952447Y38569586D01*
X20952447Y38569586D02*
X20952447Y37021967D01*
X18452447Y34879110D02*
X18452447Y35355300D01*
X18452447Y35355300D02*
X18571495Y35593396D01*
X18571495Y35593396D02*
X18690542Y35712443D01*
X18690542Y35712443D02*
X19047685Y35950538D01*
X19047685Y35950538D02*
X19523876Y36069586D01*
X19523876Y36069586D02*
X20476257Y36069586D01*
X20476257Y36069586D02*
X20714352Y35950538D01*
X20714352Y35950538D02*
X20833400Y35831491D01*
X20833400Y35831491D02*
X20952447Y35593396D01*
X20952447Y35593396D02*
X20952447Y35117205D01*
X20952447Y35117205D02*
X20833400Y34879110D01*
X20833400Y34879110D02*
X20714352Y34760062D01*
X20714352Y34760062D02*
X20476257Y34641015D01*
X20476257Y34641015D02*
X19881019Y34641015D01*
X19881019Y34641015D02*
X19642923Y34760062D01*
X19642923Y34760062D02*
X19523876Y34879110D01*
X19523876Y34879110D02*
X19404828Y35117205D01*
X19404828Y35117205D02*
X19404828Y35593396D01*
X19404828Y35593396D02*
X19523876Y35831491D01*
X19523876Y35831491D02*
X19642923Y35950538D01*
X19642923Y35950538D02*
X19881019Y36069586D01*
X20714352Y33569586D02*
X20833400Y33450539D01*
X20833400Y33450539D02*
X20952447Y33569586D01*
X20952447Y33569586D02*
X20833400Y33688634D01*
X20833400Y33688634D02*
X20714352Y33569586D01*
X20714352Y33569586D02*
X20952447Y33569586D01*
X20952447Y32260063D02*
X20952447Y31783872D01*
X20952447Y31783872D02*
X20833400Y31545777D01*
X20833400Y31545777D02*
X20714352Y31426729D01*
X20714352Y31426729D02*
X20357209Y31188634D01*
X20357209Y31188634D02*
X19881019Y31069587D01*
X19881019Y31069587D02*
X18928638Y31069587D01*
X18928638Y31069587D02*
X18690542Y31188634D01*
X18690542Y31188634D02*
X18571495Y31307682D01*
X18571495Y31307682D02*
X18452447Y31545777D01*
X18452447Y31545777D02*
X18452447Y32021968D01*
X18452447Y32021968D02*
X18571495Y32260063D01*
X18571495Y32260063D02*
X18690542Y32379110D01*
X18690542Y32379110D02*
X18928638Y32498158D01*
X18928638Y32498158D02*
X19523876Y32498158D01*
X19523876Y32498158D02*
X19761971Y32379110D01*
X19761971Y32379110D02*
X19881019Y32260063D01*
X19881019Y32260063D02*
X20000066Y32021968D01*
X20000066Y32021968D02*
X20000066Y31545777D01*
X20000066Y31545777D02*
X19881019Y31307682D01*
X19881019Y31307682D02*
X19761971Y31188634D01*
X19761971Y31188634D02*
X19523876Y31069587D01*
X20714352Y29998158D02*
X20833400Y29879111D01*
X20833400Y29879111D02*
X20952447Y29998158D01*
X20952447Y29998158D02*
X20833400Y30117206D01*
X20833400Y30117206D02*
X20714352Y29998158D01*
X20714352Y29998158D02*
X20952447Y29998158D01*
X20952447Y27498159D02*
X20952447Y28926730D01*
X20952447Y28212444D02*
X18452447Y28212444D01*
X18452447Y28212444D02*
X18809590Y28450540D01*
X18809590Y28450540D02*
X19047685Y28688635D01*
X19047685Y28688635D02*
X19166733Y28926730D01*
X18690542Y26545778D02*
X18571495Y26426730D01*
X18571495Y26426730D02*
X18452447Y26188635D01*
X18452447Y26188635D02*
X18452447Y25593397D01*
X18452447Y25593397D02*
X18571495Y25355302D01*
X18571495Y25355302D02*
X18690542Y25236254D01*
X18690542Y25236254D02*
X18928638Y25117207D01*
X18928638Y25117207D02*
X19166733Y25117207D01*
X19166733Y25117207D02*
X19523876Y25236254D01*
X19523876Y25236254D02*
X20952447Y26664826D01*
X20952447Y26664826D02*
X20952447Y25117207D01*
D11*
X91687327Y37497599D02*
X91734947Y37545218D01*
X91734947Y37545218D02*
X91782566Y37688075D01*
X91782566Y37688075D02*
X91782566Y37783313D01*
X91782566Y37783313D02*
X91734947Y37926170D01*
X91734947Y37926170D02*
X91639708Y38021408D01*
X91639708Y38021408D02*
X91544470Y38069027D01*
X91544470Y38069027D02*
X91353994Y38116646D01*
X91353994Y38116646D02*
X91211137Y38116646D01*
X91211137Y38116646D02*
X91020661Y38069027D01*
X91020661Y38069027D02*
X90925423Y38021408D01*
X90925423Y38021408D02*
X90830185Y37926170D01*
X90830185Y37926170D02*
X90782566Y37783313D01*
X90782566Y37783313D02*
X90782566Y37688075D01*
X90782566Y37688075D02*
X90830185Y37545218D01*
X90830185Y37545218D02*
X90877804Y37497599D01*
X90782566Y36592837D02*
X90782566Y37069027D01*
X90782566Y37069027D02*
X91258756Y37116646D01*
X91258756Y37116646D02*
X91211137Y37069027D01*
X91211137Y37069027D02*
X91163518Y36973789D01*
X91163518Y36973789D02*
X91163518Y36735694D01*
X91163518Y36735694D02*
X91211137Y36640456D01*
X91211137Y36640456D02*
X91258756Y36592837D01*
X91258756Y36592837D02*
X91353994Y36545218D01*
X91353994Y36545218D02*
X91592089Y36545218D01*
X91592089Y36545218D02*
X91687327Y36592837D01*
X91687327Y36592837D02*
X91734947Y36640456D01*
X91734947Y36640456D02*
X91782566Y36735694D01*
X91782566Y36735694D02*
X91782566Y36973789D01*
X91782566Y36973789D02*
X91734947Y37069027D01*
X91734947Y37069027D02*
X91687327Y37116646D01*
X91115899Y35688075D02*
X91782566Y35688075D01*
X90734947Y35926170D02*
X91449232Y36164265D01*
X91449232Y36164265D02*
X91449232Y35545218D01*
X50180319Y59514858D02*
X49704128Y59848191D01*
X50180319Y60086286D02*
X49180319Y60086286D01*
X49180319Y60086286D02*
X49180319Y59705334D01*
X49180319Y59705334D02*
X49227938Y59610096D01*
X49227938Y59610096D02*
X49275557Y59562477D01*
X49275557Y59562477D02*
X49370795Y59514858D01*
X49370795Y59514858D02*
X49513652Y59514858D01*
X49513652Y59514858D02*
X49608890Y59562477D01*
X49608890Y59562477D02*
X49656509Y59610096D01*
X49656509Y59610096D02*
X49704128Y59705334D01*
X49704128Y59705334D02*
X49704128Y60086286D01*
X49275557Y59133905D02*
X49227938Y59086286D01*
X49227938Y59086286D02*
X49180319Y58991048D01*
X49180319Y58991048D02*
X49180319Y58752953D01*
X49180319Y58752953D02*
X49227938Y58657715D01*
X49227938Y58657715D02*
X49275557Y58610096D01*
X49275557Y58610096D02*
X49370795Y58562477D01*
X49370795Y58562477D02*
X49466033Y58562477D01*
X49466033Y58562477D02*
X49608890Y58610096D01*
X49608890Y58610096D02*
X50180319Y59181524D01*
X50180319Y59181524D02*
X50180319Y58562477D01*
X49180319Y58229143D02*
X49180319Y57610096D01*
X49180319Y57610096D02*
X49561271Y57943429D01*
X49561271Y57943429D02*
X49561271Y57800572D01*
X49561271Y57800572D02*
X49608890Y57705334D01*
X49608890Y57705334D02*
X49656509Y57657715D01*
X49656509Y57657715D02*
X49751747Y57610096D01*
X49751747Y57610096D02*
X49989842Y57610096D01*
X49989842Y57610096D02*
X50085080Y57657715D01*
X50085080Y57657715D02*
X50132700Y57705334D01*
X50132700Y57705334D02*
X50180319Y57800572D01*
X50180319Y57800572D02*
X50180319Y58086286D01*
X50180319Y58086286D02*
X50132700Y58181524D01*
X50132700Y58181524D02*
X50085080Y58229143D01*
X68713359Y81475567D02*
X68237168Y81808900D01*
X68713359Y82046995D02*
X67713359Y82046995D01*
X67713359Y82046995D02*
X67713359Y81666043D01*
X67713359Y81666043D02*
X67760978Y81570805D01*
X67760978Y81570805D02*
X67808597Y81523186D01*
X67808597Y81523186D02*
X67903835Y81475567D01*
X67903835Y81475567D02*
X68046692Y81475567D01*
X68046692Y81475567D02*
X68141930Y81523186D01*
X68141930Y81523186D02*
X68189549Y81570805D01*
X68189549Y81570805D02*
X68237168Y81666043D01*
X68237168Y81666043D02*
X68237168Y82046995D01*
X68713359Y80523186D02*
X68713359Y81094614D01*
X68713359Y80808900D02*
X67713359Y80808900D01*
X67713359Y80808900D02*
X67856216Y80904138D01*
X67856216Y80904138D02*
X67951454Y80999376D01*
X67951454Y80999376D02*
X67999073Y81094614D01*
X67713359Y79904138D02*
X67713359Y79808900D01*
X67713359Y79808900D02*
X67760978Y79713662D01*
X67760978Y79713662D02*
X67808597Y79666043D01*
X67808597Y79666043D02*
X67903835Y79618424D01*
X67903835Y79618424D02*
X68094311Y79570805D01*
X68094311Y79570805D02*
X68332406Y79570805D01*
X68332406Y79570805D02*
X68522882Y79618424D01*
X68522882Y79618424D02*
X68618120Y79666043D01*
X68618120Y79666043D02*
X68665740Y79713662D01*
X68665740Y79713662D02*
X68713359Y79808900D01*
X68713359Y79808900D02*
X68713359Y79904138D01*
X68713359Y79904138D02*
X68665740Y79999376D01*
X68665740Y79999376D02*
X68618120Y80046995D01*
X68618120Y80046995D02*
X68522882Y80094614D01*
X68522882Y80094614D02*
X68332406Y80142233D01*
X68332406Y80142233D02*
X68094311Y80142233D01*
X68094311Y80142233D02*
X67903835Y80094614D01*
X67903835Y80094614D02*
X67808597Y80046995D01*
X67808597Y80046995D02*
X67760978Y79999376D01*
X67760978Y79999376D02*
X67713359Y79904138D01*
X73112336Y15497615D02*
X73159956Y15545234D01*
X73159956Y15545234D02*
X73207575Y15688091D01*
X73207575Y15688091D02*
X73207575Y15783329D01*
X73207575Y15783329D02*
X73159956Y15926186D01*
X73159956Y15926186D02*
X73064717Y16021424D01*
X73064717Y16021424D02*
X72969479Y16069043D01*
X72969479Y16069043D02*
X72779003Y16116662D01*
X72779003Y16116662D02*
X72636146Y16116662D01*
X72636146Y16116662D02*
X72445670Y16069043D01*
X72445670Y16069043D02*
X72350432Y16021424D01*
X72350432Y16021424D02*
X72255194Y15926186D01*
X72255194Y15926186D02*
X72207575Y15783329D01*
X72207575Y15783329D02*
X72207575Y15688091D01*
X72207575Y15688091D02*
X72255194Y15545234D01*
X72255194Y15545234D02*
X72302813Y15497615D01*
X72207575Y15164281D02*
X72207575Y14545234D01*
X72207575Y14545234D02*
X72588527Y14878567D01*
X72588527Y14878567D02*
X72588527Y14735710D01*
X72588527Y14735710D02*
X72636146Y14640472D01*
X72636146Y14640472D02*
X72683765Y14592853D01*
X72683765Y14592853D02*
X72779003Y14545234D01*
X72779003Y14545234D02*
X73017098Y14545234D01*
X73017098Y14545234D02*
X73112336Y14592853D01*
X73112336Y14592853D02*
X73159956Y14640472D01*
X73159956Y14640472D02*
X73207575Y14735710D01*
X73207575Y14735710D02*
X73207575Y15021424D01*
X73207575Y15021424D02*
X73159956Y15116662D01*
X73159956Y15116662D02*
X73112336Y15164281D01*
X72207575Y13640472D02*
X72207575Y14116662D01*
X72207575Y14116662D02*
X72683765Y14164281D01*
X72683765Y14164281D02*
X72636146Y14116662D01*
X72636146Y14116662D02*
X72588527Y14021424D01*
X72588527Y14021424D02*
X72588527Y13783329D01*
X72588527Y13783329D02*
X72636146Y13688091D01*
X72636146Y13688091D02*
X72683765Y13640472D01*
X72683765Y13640472D02*
X72779003Y13592853D01*
X72779003Y13592853D02*
X73017098Y13592853D01*
X73017098Y13592853D02*
X73112336Y13640472D01*
X73112336Y13640472D02*
X73159956Y13688091D01*
X73159956Y13688091D02*
X73207575Y13783329D01*
X73207575Y13783329D02*
X73207575Y14021424D01*
X73207575Y14021424D02*
X73159956Y14116662D01*
X73159956Y14116662D02*
X73112336Y14164281D01*
X68713359Y37475599D02*
X68237168Y37808932D01*
X68713359Y38047027D02*
X67713359Y38047027D01*
X67713359Y38047027D02*
X67713359Y37666075D01*
X67713359Y37666075D02*
X67760978Y37570837D01*
X67760978Y37570837D02*
X67808597Y37523218D01*
X67808597Y37523218D02*
X67903835Y37475599D01*
X67903835Y37475599D02*
X68046692Y37475599D01*
X68046692Y37475599D02*
X68141930Y37523218D01*
X68141930Y37523218D02*
X68189549Y37570837D01*
X68189549Y37570837D02*
X68237168Y37666075D01*
X68237168Y37666075D02*
X68237168Y38047027D01*
X68713359Y36523218D02*
X68713359Y37094646D01*
X68713359Y36808932D02*
X67713359Y36808932D01*
X67713359Y36808932D02*
X67856216Y36904170D01*
X67856216Y36904170D02*
X67951454Y36999408D01*
X67951454Y36999408D02*
X67999073Y37094646D01*
X67808597Y36142265D02*
X67760978Y36094646D01*
X67760978Y36094646D02*
X67713359Y35999408D01*
X67713359Y35999408D02*
X67713359Y35761313D01*
X67713359Y35761313D02*
X67760978Y35666075D01*
X67760978Y35666075D02*
X67808597Y35618456D01*
X67808597Y35618456D02*
X67903835Y35570837D01*
X67903835Y35570837D02*
X67999073Y35570837D01*
X67999073Y35570837D02*
X68141930Y35618456D01*
X68141930Y35618456D02*
X68713359Y36189884D01*
X68713359Y36189884D02*
X68713359Y35570837D01*
X70242819Y59514858D02*
X69766628Y59848191D01*
X70242819Y60086286D02*
X69242819Y60086286D01*
X69242819Y60086286D02*
X69242819Y59705334D01*
X69242819Y59705334D02*
X69290438Y59610096D01*
X69290438Y59610096D02*
X69338057Y59562477D01*
X69338057Y59562477D02*
X69433295Y59514858D01*
X69433295Y59514858D02*
X69576152Y59514858D01*
X69576152Y59514858D02*
X69671390Y59562477D01*
X69671390Y59562477D02*
X69719009Y59610096D01*
X69719009Y59610096D02*
X69766628Y59705334D01*
X69766628Y59705334D02*
X69766628Y60086286D01*
X69338057Y59133905D02*
X69290438Y59086286D01*
X69290438Y59086286D02*
X69242819Y58991048D01*
X69242819Y58991048D02*
X69242819Y58752953D01*
X69242819Y58752953D02*
X69290438Y58657715D01*
X69290438Y58657715D02*
X69338057Y58610096D01*
X69338057Y58610096D02*
X69433295Y58562477D01*
X69433295Y58562477D02*
X69528533Y58562477D01*
X69528533Y58562477D02*
X69671390Y58610096D01*
X69671390Y58610096D02*
X70242819Y59181524D01*
X70242819Y59181524D02*
X70242819Y58562477D01*
X69576152Y57705334D02*
X70242819Y57705334D01*
X69195200Y57943429D02*
X69909485Y58181524D01*
X69909485Y58181524D02*
X69909485Y57562477D01*
X93174836Y15497615D02*
X93222456Y15545234D01*
X93222456Y15545234D02*
X93270075Y15688091D01*
X93270075Y15688091D02*
X93270075Y15783329D01*
X93270075Y15783329D02*
X93222456Y15926186D01*
X93222456Y15926186D02*
X93127217Y16021424D01*
X93127217Y16021424D02*
X93031979Y16069043D01*
X93031979Y16069043D02*
X92841503Y16116662D01*
X92841503Y16116662D02*
X92698646Y16116662D01*
X92698646Y16116662D02*
X92508170Y16069043D01*
X92508170Y16069043D02*
X92412932Y16021424D01*
X92412932Y16021424D02*
X92317694Y15926186D01*
X92317694Y15926186D02*
X92270075Y15783329D01*
X92270075Y15783329D02*
X92270075Y15688091D01*
X92270075Y15688091D02*
X92317694Y15545234D01*
X92317694Y15545234D02*
X92365313Y15497615D01*
X92270075Y14592853D02*
X92270075Y15069043D01*
X92270075Y15069043D02*
X92746265Y15116662D01*
X92746265Y15116662D02*
X92698646Y15069043D01*
X92698646Y15069043D02*
X92651027Y14973805D01*
X92651027Y14973805D02*
X92651027Y14735710D01*
X92651027Y14735710D02*
X92698646Y14640472D01*
X92698646Y14640472D02*
X92746265Y14592853D01*
X92746265Y14592853D02*
X92841503Y14545234D01*
X92841503Y14545234D02*
X93079598Y14545234D01*
X93079598Y14545234D02*
X93174836Y14592853D01*
X93174836Y14592853D02*
X93222456Y14640472D01*
X93222456Y14640472D02*
X93270075Y14735710D01*
X93270075Y14735710D02*
X93270075Y14973805D01*
X93270075Y14973805D02*
X93222456Y15069043D01*
X93222456Y15069043D02*
X93174836Y15116662D01*
X93270075Y13592853D02*
X93270075Y14164281D01*
X93270075Y13878567D02*
X92270075Y13878567D01*
X92270075Y13878567D02*
X92412932Y13973805D01*
X92412932Y13973805D02*
X92508170Y14069043D01*
X92508170Y14069043D02*
X92555789Y14164281D01*
X93174836Y81497567D02*
X93222456Y81545186D01*
X93222456Y81545186D02*
X93270075Y81688043D01*
X93270075Y81688043D02*
X93270075Y81783281D01*
X93270075Y81783281D02*
X93222456Y81926138D01*
X93222456Y81926138D02*
X93127217Y82021376D01*
X93127217Y82021376D02*
X93031979Y82068995D01*
X93031979Y82068995D02*
X92841503Y82116614D01*
X92841503Y82116614D02*
X92698646Y82116614D01*
X92698646Y82116614D02*
X92508170Y82068995D01*
X92508170Y82068995D02*
X92412932Y82021376D01*
X92412932Y82021376D02*
X92317694Y81926138D01*
X92317694Y81926138D02*
X92270075Y81783281D01*
X92270075Y81783281D02*
X92270075Y81688043D01*
X92270075Y81688043D02*
X92317694Y81545186D01*
X92317694Y81545186D02*
X92365313Y81497567D01*
X92270075Y80592805D02*
X92270075Y81068995D01*
X92270075Y81068995D02*
X92746265Y81116614D01*
X92746265Y81116614D02*
X92698646Y81068995D01*
X92698646Y81068995D02*
X92651027Y80973757D01*
X92651027Y80973757D02*
X92651027Y80735662D01*
X92651027Y80735662D02*
X92698646Y80640424D01*
X92698646Y80640424D02*
X92746265Y80592805D01*
X92746265Y80592805D02*
X92841503Y80545186D01*
X92841503Y80545186D02*
X93079598Y80545186D01*
X93079598Y80545186D02*
X93174836Y80592805D01*
X93174836Y80592805D02*
X93222456Y80640424D01*
X93222456Y80640424D02*
X93270075Y80735662D01*
X93270075Y80735662D02*
X93270075Y80973757D01*
X93270075Y80973757D02*
X93222456Y81068995D01*
X93222456Y81068995D02*
X93174836Y81116614D01*
X92270075Y79688043D02*
X92270075Y79878519D01*
X92270075Y79878519D02*
X92317694Y79973757D01*
X92317694Y79973757D02*
X92365313Y80021376D01*
X92365313Y80021376D02*
X92508170Y80116614D01*
X92508170Y80116614D02*
X92698646Y80164233D01*
X92698646Y80164233D02*
X93079598Y80164233D01*
X93079598Y80164233D02*
X93174836Y80116614D01*
X93174836Y80116614D02*
X93222456Y80068995D01*
X93222456Y80068995D02*
X93270075Y79973757D01*
X93270075Y79973757D02*
X93270075Y79783281D01*
X93270075Y79783281D02*
X93222456Y79688043D01*
X93222456Y79688043D02*
X93174836Y79640424D01*
X93174836Y79640424D02*
X93079598Y79592805D01*
X93079598Y79592805D02*
X92841503Y79592805D01*
X92841503Y79592805D02*
X92746265Y79640424D01*
X92746265Y79640424D02*
X92698646Y79688043D01*
X92698646Y79688043D02*
X92651027Y79783281D01*
X92651027Y79783281D02*
X92651027Y79973757D01*
X92651027Y79973757D02*
X92698646Y80068995D01*
X92698646Y80068995D02*
X92746265Y80116614D01*
X92746265Y80116614D02*
X92841503Y80164233D01*
X90305319Y81612858D02*
X89829128Y81946191D01*
X90305319Y82184286D02*
X89305319Y82184286D01*
X89305319Y82184286D02*
X89305319Y81803334D01*
X89305319Y81803334D02*
X89352938Y81708096D01*
X89352938Y81708096D02*
X89400557Y81660477D01*
X89400557Y81660477D02*
X89495795Y81612858D01*
X89495795Y81612858D02*
X89638652Y81612858D01*
X89638652Y81612858D02*
X89733890Y81660477D01*
X89733890Y81660477D02*
X89781509Y81708096D01*
X89781509Y81708096D02*
X89829128Y81803334D01*
X89829128Y81803334D02*
X89829128Y82184286D01*
X89400557Y81231905D02*
X89352938Y81184286D01*
X89352938Y81184286D02*
X89305319Y81089048D01*
X89305319Y81089048D02*
X89305319Y80850953D01*
X89305319Y80850953D02*
X89352938Y80755715D01*
X89352938Y80755715D02*
X89400557Y80708096D01*
X89400557Y80708096D02*
X89495795Y80660477D01*
X89495795Y80660477D02*
X89591033Y80660477D01*
X89591033Y80660477D02*
X89733890Y80708096D01*
X89733890Y80708096D02*
X90305319Y81279524D01*
X90305319Y81279524D02*
X90305319Y80660477D01*
X89400557Y80279524D02*
X89352938Y80231905D01*
X89352938Y80231905D02*
X89305319Y80136667D01*
X89305319Y80136667D02*
X89305319Y79898572D01*
X89305319Y79898572D02*
X89352938Y79803334D01*
X89352938Y79803334D02*
X89400557Y79755715D01*
X89400557Y79755715D02*
X89495795Y79708096D01*
X89495795Y79708096D02*
X89591033Y79708096D01*
X89591033Y79708096D02*
X89733890Y79755715D01*
X89733890Y79755715D02*
X90305319Y80327143D01*
X90305319Y80327143D02*
X90305319Y79708096D01*
X93174836Y37497599D02*
X93222456Y37545218D01*
X93222456Y37545218D02*
X93270075Y37688075D01*
X93270075Y37688075D02*
X93270075Y37783313D01*
X93270075Y37783313D02*
X93222456Y37926170D01*
X93222456Y37926170D02*
X93127217Y38021408D01*
X93127217Y38021408D02*
X93031979Y38069027D01*
X93031979Y38069027D02*
X92841503Y38116646D01*
X92841503Y38116646D02*
X92698646Y38116646D01*
X92698646Y38116646D02*
X92508170Y38069027D01*
X92508170Y38069027D02*
X92412932Y38021408D01*
X92412932Y38021408D02*
X92317694Y37926170D01*
X92317694Y37926170D02*
X92270075Y37783313D01*
X92270075Y37783313D02*
X92270075Y37688075D01*
X92270075Y37688075D02*
X92317694Y37545218D01*
X92317694Y37545218D02*
X92365313Y37497599D01*
X92270075Y36592837D02*
X92270075Y37069027D01*
X92270075Y37069027D02*
X92746265Y37116646D01*
X92746265Y37116646D02*
X92698646Y37069027D01*
X92698646Y37069027D02*
X92651027Y36973789D01*
X92651027Y36973789D02*
X92651027Y36735694D01*
X92651027Y36735694D02*
X92698646Y36640456D01*
X92698646Y36640456D02*
X92746265Y36592837D01*
X92746265Y36592837D02*
X92841503Y36545218D01*
X92841503Y36545218D02*
X93079598Y36545218D01*
X93079598Y36545218D02*
X93174836Y36592837D01*
X93174836Y36592837D02*
X93222456Y36640456D01*
X93222456Y36640456D02*
X93270075Y36735694D01*
X93270075Y36735694D02*
X93270075Y36973789D01*
X93270075Y36973789D02*
X93222456Y37069027D01*
X93222456Y37069027D02*
X93174836Y37116646D01*
X92698646Y35973789D02*
X92651027Y36069027D01*
X92651027Y36069027D02*
X92603408Y36116646D01*
X92603408Y36116646D02*
X92508170Y36164265D01*
X92508170Y36164265D02*
X92460551Y36164265D01*
X92460551Y36164265D02*
X92365313Y36116646D01*
X92365313Y36116646D02*
X92317694Y36069027D01*
X92317694Y36069027D02*
X92270075Y35973789D01*
X92270075Y35973789D02*
X92270075Y35783313D01*
X92270075Y35783313D02*
X92317694Y35688075D01*
X92317694Y35688075D02*
X92365313Y35640456D01*
X92365313Y35640456D02*
X92460551Y35592837D01*
X92460551Y35592837D02*
X92508170Y35592837D01*
X92508170Y35592837D02*
X92603408Y35640456D01*
X92603408Y35640456D02*
X92651027Y35688075D01*
X92651027Y35688075D02*
X92698646Y35783313D01*
X92698646Y35783313D02*
X92698646Y35973789D01*
X92698646Y35973789D02*
X92746265Y36069027D01*
X92746265Y36069027D02*
X92793884Y36116646D01*
X92793884Y36116646D02*
X92889122Y36164265D01*
X92889122Y36164265D02*
X93079598Y36164265D01*
X93079598Y36164265D02*
X93174836Y36116646D01*
X93174836Y36116646D02*
X93222456Y36069027D01*
X93222456Y36069027D02*
X93270075Y35973789D01*
X93270075Y35973789D02*
X93270075Y35783313D01*
X93270075Y35783313D02*
X93222456Y35688075D01*
X93222456Y35688075D02*
X93174836Y35640456D01*
X93174836Y35640456D02*
X93079598Y35592837D01*
X93079598Y35592837D02*
X92889122Y35592837D01*
X92889122Y35592837D02*
X92793884Y35640456D01*
X92793884Y35640456D02*
X92746265Y35688075D01*
X92746265Y35688075D02*
X92698646Y35783313D01*
X88775859Y81475567D02*
X88299668Y81808900D01*
X88775859Y82046995D02*
X87775859Y82046995D01*
X87775859Y82046995D02*
X87775859Y81666043D01*
X87775859Y81666043D02*
X87823478Y81570805D01*
X87823478Y81570805D02*
X87871097Y81523186D01*
X87871097Y81523186D02*
X87966335Y81475567D01*
X87966335Y81475567D02*
X88109192Y81475567D01*
X88109192Y81475567D02*
X88204430Y81523186D01*
X88204430Y81523186D02*
X88252049Y81570805D01*
X88252049Y81570805D02*
X88299668Y81666043D01*
X88299668Y81666043D02*
X88299668Y82046995D01*
X88775859Y80523186D02*
X88775859Y81094614D01*
X88775859Y80808900D02*
X87775859Y80808900D01*
X87775859Y80808900D02*
X87918716Y80904138D01*
X87918716Y80904138D02*
X88013954Y80999376D01*
X88013954Y80999376D02*
X88061573Y81094614D01*
X88109192Y79666043D02*
X88775859Y79666043D01*
X87728240Y79904138D02*
X88442525Y80142233D01*
X88442525Y80142233D02*
X88442525Y79523186D01*
X88775859Y59475583D02*
X88299668Y59808916D01*
X88775859Y60047011D02*
X87775859Y60047011D01*
X87775859Y60047011D02*
X87775859Y59666059D01*
X87775859Y59666059D02*
X87823478Y59570821D01*
X87823478Y59570821D02*
X87871097Y59523202D01*
X87871097Y59523202D02*
X87966335Y59475583D01*
X87966335Y59475583D02*
X88109192Y59475583D01*
X88109192Y59475583D02*
X88204430Y59523202D01*
X88204430Y59523202D02*
X88252049Y59570821D01*
X88252049Y59570821D02*
X88299668Y59666059D01*
X88299668Y59666059D02*
X88299668Y60047011D01*
X88775859Y58523202D02*
X88775859Y59094630D01*
X88775859Y58808916D02*
X87775859Y58808916D01*
X87775859Y58808916D02*
X87918716Y58904154D01*
X87918716Y58904154D02*
X88013954Y58999392D01*
X88013954Y58999392D02*
X88061573Y59094630D01*
X87775859Y57618440D02*
X87775859Y58094630D01*
X87775859Y58094630D02*
X88252049Y58142249D01*
X88252049Y58142249D02*
X88204430Y58094630D01*
X88204430Y58094630D02*
X88156811Y57999392D01*
X88156811Y57999392D02*
X88156811Y57761297D01*
X88156811Y57761297D02*
X88204430Y57666059D01*
X88204430Y57666059D02*
X88252049Y57618440D01*
X88252049Y57618440D02*
X88347287Y57570821D01*
X88347287Y57570821D02*
X88585382Y57570821D01*
X88585382Y57570821D02*
X88680620Y57618440D01*
X88680620Y57618440D02*
X88728240Y57666059D01*
X88728240Y57666059D02*
X88775859Y57761297D01*
X88775859Y57761297D02*
X88775859Y57999392D01*
X88775859Y57999392D02*
X88728240Y58094630D01*
X88728240Y58094630D02*
X88680620Y58142249D01*
X51562327Y37497599D02*
X51609947Y37545218D01*
X51609947Y37545218D02*
X51657566Y37688075D01*
X51657566Y37688075D02*
X51657566Y37783313D01*
X51657566Y37783313D02*
X51609947Y37926170D01*
X51609947Y37926170D02*
X51514708Y38021408D01*
X51514708Y38021408D02*
X51419470Y38069027D01*
X51419470Y38069027D02*
X51228994Y38116646D01*
X51228994Y38116646D02*
X51086137Y38116646D01*
X51086137Y38116646D02*
X50895661Y38069027D01*
X50895661Y38069027D02*
X50800423Y38021408D01*
X50800423Y38021408D02*
X50705185Y37926170D01*
X50705185Y37926170D02*
X50657566Y37783313D01*
X50657566Y37783313D02*
X50657566Y37688075D01*
X50657566Y37688075D02*
X50705185Y37545218D01*
X50705185Y37545218D02*
X50752804Y37497599D01*
X50752804Y37116646D02*
X50705185Y37069027D01*
X50705185Y37069027D02*
X50657566Y36973789D01*
X50657566Y36973789D02*
X50657566Y36735694D01*
X50657566Y36735694D02*
X50705185Y36640456D01*
X50705185Y36640456D02*
X50752804Y36592837D01*
X50752804Y36592837D02*
X50848042Y36545218D01*
X50848042Y36545218D02*
X50943280Y36545218D01*
X50943280Y36545218D02*
X51086137Y36592837D01*
X51086137Y36592837D02*
X51657566Y37164265D01*
X51657566Y37164265D02*
X51657566Y36545218D01*
X50990899Y35688075D02*
X51657566Y35688075D01*
X50609947Y35926170D02*
X51324232Y36164265D01*
X51324232Y36164265D02*
X51324232Y35545218D01*
X73112336Y81497567D02*
X73159956Y81545186D01*
X73159956Y81545186D02*
X73207575Y81688043D01*
X73207575Y81688043D02*
X73207575Y81783281D01*
X73207575Y81783281D02*
X73159956Y81926138D01*
X73159956Y81926138D02*
X73064717Y82021376D01*
X73064717Y82021376D02*
X72969479Y82068995D01*
X72969479Y82068995D02*
X72779003Y82116614D01*
X72779003Y82116614D02*
X72636146Y82116614D01*
X72636146Y82116614D02*
X72445670Y82068995D01*
X72445670Y82068995D02*
X72350432Y82021376D01*
X72350432Y82021376D02*
X72255194Y81926138D01*
X72255194Y81926138D02*
X72207575Y81783281D01*
X72207575Y81783281D02*
X72207575Y81688043D01*
X72207575Y81688043D02*
X72255194Y81545186D01*
X72255194Y81545186D02*
X72302813Y81497567D01*
X72540908Y80640424D02*
X73207575Y80640424D01*
X72159956Y80878519D02*
X72874241Y81116614D01*
X72874241Y81116614D02*
X72874241Y80497567D01*
X72207575Y79926138D02*
X72207575Y79830900D01*
X72207575Y79830900D02*
X72255194Y79735662D01*
X72255194Y79735662D02*
X72302813Y79688043D01*
X72302813Y79688043D02*
X72398051Y79640424D01*
X72398051Y79640424D02*
X72588527Y79592805D01*
X72588527Y79592805D02*
X72826622Y79592805D01*
X72826622Y79592805D02*
X73017098Y79640424D01*
X73017098Y79640424D02*
X73112336Y79688043D01*
X73112336Y79688043D02*
X73159956Y79735662D01*
X73159956Y79735662D02*
X73207575Y79830900D01*
X73207575Y79830900D02*
X73207575Y79926138D01*
X73207575Y79926138D02*
X73159956Y80021376D01*
X73159956Y80021376D02*
X73112336Y80068995D01*
X73112336Y80068995D02*
X73017098Y80116614D01*
X73017098Y80116614D02*
X72826622Y80164233D01*
X72826622Y80164233D02*
X72588527Y80164233D01*
X72588527Y80164233D02*
X72398051Y80116614D01*
X72398051Y80116614D02*
X72302813Y80068995D01*
X72302813Y80068995D02*
X72255194Y80021376D01*
X72255194Y80021376D02*
X72207575Y79926138D01*
X48650859Y58999392D02*
X48174668Y59332725D01*
X48650859Y59570820D02*
X47650859Y59570820D01*
X47650859Y59570820D02*
X47650859Y59189868D01*
X47650859Y59189868D02*
X47698478Y59094630D01*
X47698478Y59094630D02*
X47746097Y59047011D01*
X47746097Y59047011D02*
X47841335Y58999392D01*
X47841335Y58999392D02*
X47984192Y58999392D01*
X47984192Y58999392D02*
X48079430Y59047011D01*
X48079430Y59047011D02*
X48127049Y59094630D01*
X48127049Y59094630D02*
X48174668Y59189868D01*
X48174668Y59189868D02*
X48174668Y59570820D01*
X48650859Y58047011D02*
X48650859Y58618439D01*
X48650859Y58332725D02*
X47650859Y58332725D01*
X47650859Y58332725D02*
X47793716Y58427963D01*
X47793716Y58427963D02*
X47888954Y58523201D01*
X47888954Y58523201D02*
X47936573Y58618439D01*
X91687327Y59497583D02*
X91734947Y59545202D01*
X91734947Y59545202D02*
X91782566Y59688059D01*
X91782566Y59688059D02*
X91782566Y59783297D01*
X91782566Y59783297D02*
X91734947Y59926154D01*
X91734947Y59926154D02*
X91639708Y60021392D01*
X91639708Y60021392D02*
X91544470Y60069011D01*
X91544470Y60069011D02*
X91353994Y60116630D01*
X91353994Y60116630D02*
X91211137Y60116630D01*
X91211137Y60116630D02*
X91020661Y60069011D01*
X91020661Y60069011D02*
X90925423Y60021392D01*
X90925423Y60021392D02*
X90830185Y59926154D01*
X90830185Y59926154D02*
X90782566Y59783297D01*
X90782566Y59783297D02*
X90782566Y59688059D01*
X90782566Y59688059D02*
X90830185Y59545202D01*
X90830185Y59545202D02*
X90877804Y59497583D01*
X90782566Y58592821D02*
X90782566Y59069011D01*
X90782566Y59069011D02*
X91258756Y59116630D01*
X91258756Y59116630D02*
X91211137Y59069011D01*
X91211137Y59069011D02*
X91163518Y58973773D01*
X91163518Y58973773D02*
X91163518Y58735678D01*
X91163518Y58735678D02*
X91211137Y58640440D01*
X91211137Y58640440D02*
X91258756Y58592821D01*
X91258756Y58592821D02*
X91353994Y58545202D01*
X91353994Y58545202D02*
X91592089Y58545202D01*
X91592089Y58545202D02*
X91687327Y58592821D01*
X91687327Y58592821D02*
X91734947Y58640440D01*
X91734947Y58640440D02*
X91782566Y58735678D01*
X91782566Y58735678D02*
X91782566Y58973773D01*
X91782566Y58973773D02*
X91734947Y59069011D01*
X91734947Y59069011D02*
X91687327Y59116630D01*
X90782566Y58211868D02*
X90782566Y57592821D01*
X90782566Y57592821D02*
X91163518Y57926154D01*
X91163518Y57926154D02*
X91163518Y57783297D01*
X91163518Y57783297D02*
X91211137Y57688059D01*
X91211137Y57688059D02*
X91258756Y57640440D01*
X91258756Y57640440D02*
X91353994Y57592821D01*
X91353994Y57592821D02*
X91592089Y57592821D01*
X91592089Y57592821D02*
X91687327Y57640440D01*
X91687327Y57640440D02*
X91734947Y57688059D01*
X91734947Y57688059D02*
X91782566Y57783297D01*
X91782566Y57783297D02*
X91782566Y58069011D01*
X91782566Y58069011D02*
X91734947Y58164249D01*
X91734947Y58164249D02*
X91687327Y58211868D01*
X49922819Y37416858D02*
X49446628Y37750191D01*
X49922819Y37988286D02*
X48922819Y37988286D01*
X48922819Y37988286D02*
X48922819Y37607334D01*
X48922819Y37607334D02*
X48970438Y37512096D01*
X48970438Y37512096D02*
X49018057Y37464477D01*
X49018057Y37464477D02*
X49113295Y37416858D01*
X49113295Y37416858D02*
X49256152Y37416858D01*
X49256152Y37416858D02*
X49351390Y37464477D01*
X49351390Y37464477D02*
X49399009Y37512096D01*
X49399009Y37512096D02*
X49446628Y37607334D01*
X49446628Y37607334D02*
X49446628Y37988286D01*
X49018057Y37035905D02*
X48970438Y36988286D01*
X48970438Y36988286D02*
X48922819Y36893048D01*
X48922819Y36893048D02*
X48922819Y36654953D01*
X48922819Y36654953D02*
X48970438Y36559715D01*
X48970438Y36559715D02*
X49018057Y36512096D01*
X49018057Y36512096D02*
X49113295Y36464477D01*
X49113295Y36464477D02*
X49208533Y36464477D01*
X49208533Y36464477D02*
X49351390Y36512096D01*
X49351390Y36512096D02*
X49922819Y37083524D01*
X49922819Y37083524D02*
X49922819Y36464477D01*
X48922819Y35607334D02*
X48922819Y35797810D01*
X48922819Y35797810D02*
X48970438Y35893048D01*
X48970438Y35893048D02*
X49018057Y35940667D01*
X49018057Y35940667D02*
X49160914Y36035905D01*
X49160914Y36035905D02*
X49351390Y36083524D01*
X49351390Y36083524D02*
X49732342Y36083524D01*
X49732342Y36083524D02*
X49827580Y36035905D01*
X49827580Y36035905D02*
X49875200Y35988286D01*
X49875200Y35988286D02*
X49922819Y35893048D01*
X49922819Y35893048D02*
X49922819Y35702572D01*
X49922819Y35702572D02*
X49875200Y35607334D01*
X49875200Y35607334D02*
X49827580Y35559715D01*
X49827580Y35559715D02*
X49732342Y35512096D01*
X49732342Y35512096D02*
X49494247Y35512096D01*
X49494247Y35512096D02*
X49399009Y35559715D01*
X49399009Y35559715D02*
X49351390Y35607334D01*
X49351390Y35607334D02*
X49303771Y35702572D01*
X49303771Y35702572D02*
X49303771Y35893048D01*
X49303771Y35893048D02*
X49351390Y35988286D01*
X49351390Y35988286D02*
X49399009Y36035905D01*
X49399009Y36035905D02*
X49494247Y36083524D01*
X71624827Y81497567D02*
X71672447Y81545186D01*
X71672447Y81545186D02*
X71720066Y81688043D01*
X71720066Y81688043D02*
X71720066Y81783281D01*
X71720066Y81783281D02*
X71672447Y81926138D01*
X71672447Y81926138D02*
X71577208Y82021376D01*
X71577208Y82021376D02*
X71481970Y82068995D01*
X71481970Y82068995D02*
X71291494Y82116614D01*
X71291494Y82116614D02*
X71148637Y82116614D01*
X71148637Y82116614D02*
X70958161Y82068995D01*
X70958161Y82068995D02*
X70862923Y82021376D01*
X70862923Y82021376D02*
X70767685Y81926138D01*
X70767685Y81926138D02*
X70720066Y81783281D01*
X70720066Y81783281D02*
X70720066Y81688043D01*
X70720066Y81688043D02*
X70767685Y81545186D01*
X70767685Y81545186D02*
X70815304Y81497567D01*
X70720066Y81164233D02*
X70720066Y80545186D01*
X70720066Y80545186D02*
X71101018Y80878519D01*
X71101018Y80878519D02*
X71101018Y80735662D01*
X71101018Y80735662D02*
X71148637Y80640424D01*
X71148637Y80640424D02*
X71196256Y80592805D01*
X71196256Y80592805D02*
X71291494Y80545186D01*
X71291494Y80545186D02*
X71529589Y80545186D01*
X71529589Y80545186D02*
X71624827Y80592805D01*
X71624827Y80592805D02*
X71672447Y80640424D01*
X71672447Y80640424D02*
X71720066Y80735662D01*
X71720066Y80735662D02*
X71720066Y81021376D01*
X71720066Y81021376D02*
X71672447Y81116614D01*
X71672447Y81116614D02*
X71624827Y81164233D01*
X70720066Y79688043D02*
X70720066Y79878519D01*
X70720066Y79878519D02*
X70767685Y79973757D01*
X70767685Y79973757D02*
X70815304Y80021376D01*
X70815304Y80021376D02*
X70958161Y80116614D01*
X70958161Y80116614D02*
X71148637Y80164233D01*
X71148637Y80164233D02*
X71529589Y80164233D01*
X71529589Y80164233D02*
X71624827Y80116614D01*
X71624827Y80116614D02*
X71672447Y80068995D01*
X71672447Y80068995D02*
X71720066Y79973757D01*
X71720066Y79973757D02*
X71720066Y79783281D01*
X71720066Y79783281D02*
X71672447Y79688043D01*
X71672447Y79688043D02*
X71624827Y79640424D01*
X71624827Y79640424D02*
X71529589Y79592805D01*
X71529589Y79592805D02*
X71291494Y79592805D01*
X71291494Y79592805D02*
X71196256Y79640424D01*
X71196256Y79640424D02*
X71148637Y79688043D01*
X71148637Y79688043D02*
X71101018Y79783281D01*
X71101018Y79783281D02*
X71101018Y79973757D01*
X71101018Y79973757D02*
X71148637Y80068995D01*
X71148637Y80068995D02*
X71196256Y80116614D01*
X71196256Y80116614D02*
X71291494Y80164233D01*
X91687327Y15497615D02*
X91734947Y15545234D01*
X91734947Y15545234D02*
X91782566Y15688091D01*
X91782566Y15688091D02*
X91782566Y15783329D01*
X91782566Y15783329D02*
X91734947Y15926186D01*
X91734947Y15926186D02*
X91639708Y16021424D01*
X91639708Y16021424D02*
X91544470Y16069043D01*
X91544470Y16069043D02*
X91353994Y16116662D01*
X91353994Y16116662D02*
X91211137Y16116662D01*
X91211137Y16116662D02*
X91020661Y16069043D01*
X91020661Y16069043D02*
X90925423Y16021424D01*
X90925423Y16021424D02*
X90830185Y15926186D01*
X90830185Y15926186D02*
X90782566Y15783329D01*
X90782566Y15783329D02*
X90782566Y15688091D01*
X90782566Y15688091D02*
X90830185Y15545234D01*
X90830185Y15545234D02*
X90877804Y15497615D01*
X91115899Y14640472D02*
X91782566Y14640472D01*
X90734947Y14878567D02*
X91449232Y15116662D01*
X91449232Y15116662D02*
X91449232Y14497615D01*
X90782566Y14211900D02*
X90782566Y13545234D01*
X90782566Y13545234D02*
X91782566Y13973805D01*
X53049836Y37497599D02*
X53097456Y37545218D01*
X53097456Y37545218D02*
X53145075Y37688075D01*
X53145075Y37688075D02*
X53145075Y37783313D01*
X53145075Y37783313D02*
X53097456Y37926170D01*
X53097456Y37926170D02*
X53002217Y38021408D01*
X53002217Y38021408D02*
X52906979Y38069027D01*
X52906979Y38069027D02*
X52716503Y38116646D01*
X52716503Y38116646D02*
X52573646Y38116646D01*
X52573646Y38116646D02*
X52383170Y38069027D01*
X52383170Y38069027D02*
X52287932Y38021408D01*
X52287932Y38021408D02*
X52192694Y37926170D01*
X52192694Y37926170D02*
X52145075Y37783313D01*
X52145075Y37783313D02*
X52145075Y37688075D01*
X52145075Y37688075D02*
X52192694Y37545218D01*
X52192694Y37545218D02*
X52240313Y37497599D01*
X52240313Y37116646D02*
X52192694Y37069027D01*
X52192694Y37069027D02*
X52145075Y36973789D01*
X52145075Y36973789D02*
X52145075Y36735694D01*
X52145075Y36735694D02*
X52192694Y36640456D01*
X52192694Y36640456D02*
X52240313Y36592837D01*
X52240313Y36592837D02*
X52335551Y36545218D01*
X52335551Y36545218D02*
X52430789Y36545218D01*
X52430789Y36545218D02*
X52573646Y36592837D01*
X52573646Y36592837D02*
X53145075Y37164265D01*
X53145075Y37164265D02*
X53145075Y36545218D01*
X52145075Y35688075D02*
X52145075Y35878551D01*
X52145075Y35878551D02*
X52192694Y35973789D01*
X52192694Y35973789D02*
X52240313Y36021408D01*
X52240313Y36021408D02*
X52383170Y36116646D01*
X52383170Y36116646D02*
X52573646Y36164265D01*
X52573646Y36164265D02*
X52954598Y36164265D01*
X52954598Y36164265D02*
X53049836Y36116646D01*
X53049836Y36116646D02*
X53097456Y36069027D01*
X53097456Y36069027D02*
X53145075Y35973789D01*
X53145075Y35973789D02*
X53145075Y35783313D01*
X53145075Y35783313D02*
X53097456Y35688075D01*
X53097456Y35688075D02*
X53049836Y35640456D01*
X53049836Y35640456D02*
X52954598Y35592837D01*
X52954598Y35592837D02*
X52716503Y35592837D01*
X52716503Y35592837D02*
X52621265Y35640456D01*
X52621265Y35640456D02*
X52573646Y35688075D01*
X52573646Y35688075D02*
X52526027Y35783313D01*
X52526027Y35783313D02*
X52526027Y35973789D01*
X52526027Y35973789D02*
X52573646Y36069027D01*
X52573646Y36069027D02*
X52621265Y36116646D01*
X52621265Y36116646D02*
X52716503Y36164265D01*
X48650859Y36999408D02*
X48174668Y37332741D01*
X48650859Y37570836D02*
X47650859Y37570836D01*
X47650859Y37570836D02*
X47650859Y37189884D01*
X47650859Y37189884D02*
X47698478Y37094646D01*
X47698478Y37094646D02*
X47746097Y37047027D01*
X47746097Y37047027D02*
X47841335Y36999408D01*
X47841335Y36999408D02*
X47984192Y36999408D01*
X47984192Y36999408D02*
X48079430Y37047027D01*
X48079430Y37047027D02*
X48127049Y37094646D01*
X48127049Y37094646D02*
X48174668Y37189884D01*
X48174668Y37189884D02*
X48174668Y37570836D01*
X47746097Y36618455D02*
X47698478Y36570836D01*
X47698478Y36570836D02*
X47650859Y36475598D01*
X47650859Y36475598D02*
X47650859Y36237503D01*
X47650859Y36237503D02*
X47698478Y36142265D01*
X47698478Y36142265D02*
X47746097Y36094646D01*
X47746097Y36094646D02*
X47841335Y36047027D01*
X47841335Y36047027D02*
X47936573Y36047027D01*
X47936573Y36047027D02*
X48079430Y36094646D01*
X48079430Y36094646D02*
X48650859Y36666074D01*
X48650859Y36666074D02*
X48650859Y36047027D01*
X90250380Y37416858D02*
X89774189Y37750191D01*
X90250380Y37988286D02*
X89250380Y37988286D01*
X89250380Y37988286D02*
X89250380Y37607334D01*
X89250380Y37607334D02*
X89297999Y37512096D01*
X89297999Y37512096D02*
X89345618Y37464477D01*
X89345618Y37464477D02*
X89440856Y37416858D01*
X89440856Y37416858D02*
X89583713Y37416858D01*
X89583713Y37416858D02*
X89678951Y37464477D01*
X89678951Y37464477D02*
X89726570Y37512096D01*
X89726570Y37512096D02*
X89774189Y37607334D01*
X89774189Y37607334D02*
X89774189Y37988286D01*
X89345618Y37035905D02*
X89297999Y36988286D01*
X89297999Y36988286D02*
X89250380Y36893048D01*
X89250380Y36893048D02*
X89250380Y36654953D01*
X89250380Y36654953D02*
X89297999Y36559715D01*
X89297999Y36559715D02*
X89345618Y36512096D01*
X89345618Y36512096D02*
X89440856Y36464477D01*
X89440856Y36464477D02*
X89536094Y36464477D01*
X89536094Y36464477D02*
X89678951Y36512096D01*
X89678951Y36512096D02*
X90250380Y37083524D01*
X90250380Y37083524D02*
X90250380Y36464477D01*
X89678951Y35893048D02*
X89631332Y35988286D01*
X89631332Y35988286D02*
X89583713Y36035905D01*
X89583713Y36035905D02*
X89488475Y36083524D01*
X89488475Y36083524D02*
X89440856Y36083524D01*
X89440856Y36083524D02*
X89345618Y36035905D01*
X89345618Y36035905D02*
X89297999Y35988286D01*
X89297999Y35988286D02*
X89250380Y35893048D01*
X89250380Y35893048D02*
X89250380Y35702572D01*
X89250380Y35702572D02*
X89297999Y35607334D01*
X89297999Y35607334D02*
X89345618Y35559715D01*
X89345618Y35559715D02*
X89440856Y35512096D01*
X89440856Y35512096D02*
X89488475Y35512096D01*
X89488475Y35512096D02*
X89583713Y35559715D01*
X89583713Y35559715D02*
X89631332Y35607334D01*
X89631332Y35607334D02*
X89678951Y35702572D01*
X89678951Y35702572D02*
X89678951Y35893048D01*
X89678951Y35893048D02*
X89726570Y35988286D01*
X89726570Y35988286D02*
X89774189Y36035905D01*
X89774189Y36035905D02*
X89869427Y36083524D01*
X89869427Y36083524D02*
X90059903Y36083524D01*
X90059903Y36083524D02*
X90155141Y36035905D01*
X90155141Y36035905D02*
X90202761Y35988286D01*
X90202761Y35988286D02*
X90250380Y35893048D01*
X90250380Y35893048D02*
X90250380Y35702572D01*
X90250380Y35702572D02*
X90202761Y35607334D01*
X90202761Y35607334D02*
X90155141Y35559715D01*
X90155141Y35559715D02*
X90059903Y35512096D01*
X90059903Y35512096D02*
X89869427Y35512096D01*
X89869427Y35512096D02*
X89774189Y35559715D01*
X89774189Y35559715D02*
X89726570Y35607334D01*
X89726570Y35607334D02*
X89678951Y35702572D01*
X70242819Y81612858D02*
X69766628Y81946191D01*
X70242819Y82184286D02*
X69242819Y82184286D01*
X69242819Y82184286D02*
X69242819Y81803334D01*
X69242819Y81803334D02*
X69290438Y81708096D01*
X69290438Y81708096D02*
X69338057Y81660477D01*
X69338057Y81660477D02*
X69433295Y81612858D01*
X69433295Y81612858D02*
X69576152Y81612858D01*
X69576152Y81612858D02*
X69671390Y81660477D01*
X69671390Y81660477D02*
X69719009Y81708096D01*
X69719009Y81708096D02*
X69766628Y81803334D01*
X69766628Y81803334D02*
X69766628Y82184286D01*
X69338057Y81231905D02*
X69290438Y81184286D01*
X69290438Y81184286D02*
X69242819Y81089048D01*
X69242819Y81089048D02*
X69242819Y80850953D01*
X69242819Y80850953D02*
X69290438Y80755715D01*
X69290438Y80755715D02*
X69338057Y80708096D01*
X69338057Y80708096D02*
X69433295Y80660477D01*
X69433295Y80660477D02*
X69528533Y80660477D01*
X69528533Y80660477D02*
X69671390Y80708096D01*
X69671390Y80708096D02*
X70242819Y81279524D01*
X70242819Y81279524D02*
X70242819Y80660477D01*
X70242819Y79708096D02*
X70242819Y80279524D01*
X70242819Y79993810D02*
X69242819Y79993810D01*
X69242819Y79993810D02*
X69385676Y80089048D01*
X69385676Y80089048D02*
X69480914Y80184286D01*
X69480914Y80184286D02*
X69528533Y80279524D01*
X73112336Y37497599D02*
X73159956Y37545218D01*
X73159956Y37545218D02*
X73207575Y37688075D01*
X73207575Y37688075D02*
X73207575Y37783313D01*
X73207575Y37783313D02*
X73159956Y37926170D01*
X73159956Y37926170D02*
X73064717Y38021408D01*
X73064717Y38021408D02*
X72969479Y38069027D01*
X72969479Y38069027D02*
X72779003Y38116646D01*
X72779003Y38116646D02*
X72636146Y38116646D01*
X72636146Y38116646D02*
X72445670Y38069027D01*
X72445670Y38069027D02*
X72350432Y38021408D01*
X72350432Y38021408D02*
X72255194Y37926170D01*
X72255194Y37926170D02*
X72207575Y37783313D01*
X72207575Y37783313D02*
X72207575Y37688075D01*
X72207575Y37688075D02*
X72255194Y37545218D01*
X72255194Y37545218D02*
X72302813Y37497599D01*
X72540908Y36640456D02*
X73207575Y36640456D01*
X72159956Y36878551D02*
X72874241Y37116646D01*
X72874241Y37116646D02*
X72874241Y36497599D01*
X72302813Y36164265D02*
X72255194Y36116646D01*
X72255194Y36116646D02*
X72207575Y36021408D01*
X72207575Y36021408D02*
X72207575Y35783313D01*
X72207575Y35783313D02*
X72255194Y35688075D01*
X72255194Y35688075D02*
X72302813Y35640456D01*
X72302813Y35640456D02*
X72398051Y35592837D01*
X72398051Y35592837D02*
X72493289Y35592837D01*
X72493289Y35592837D02*
X72636146Y35640456D01*
X72636146Y35640456D02*
X73207575Y36211884D01*
X73207575Y36211884D02*
X73207575Y35592837D01*
X51562327Y81021376D02*
X51609947Y81068995D01*
X51609947Y81068995D02*
X51657566Y81211852D01*
X51657566Y81211852D02*
X51657566Y81307090D01*
X51657566Y81307090D02*
X51609947Y81449947D01*
X51609947Y81449947D02*
X51514708Y81545185D01*
X51514708Y81545185D02*
X51419470Y81592804D01*
X51419470Y81592804D02*
X51228994Y81640423D01*
X51228994Y81640423D02*
X51086137Y81640423D01*
X51086137Y81640423D02*
X50895661Y81592804D01*
X50895661Y81592804D02*
X50800423Y81545185D01*
X50800423Y81545185D02*
X50705185Y81449947D01*
X50705185Y81449947D02*
X50657566Y81307090D01*
X50657566Y81307090D02*
X50657566Y81211852D01*
X50657566Y81211852D02*
X50705185Y81068995D01*
X50705185Y81068995D02*
X50752804Y81021376D01*
X50752804Y80640423D02*
X50705185Y80592804D01*
X50705185Y80592804D02*
X50657566Y80497566D01*
X50657566Y80497566D02*
X50657566Y80259471D01*
X50657566Y80259471D02*
X50705185Y80164233D01*
X50705185Y80164233D02*
X50752804Y80116614D01*
X50752804Y80116614D02*
X50848042Y80068995D01*
X50848042Y80068995D02*
X50943280Y80068995D01*
X50943280Y80068995D02*
X51086137Y80116614D01*
X51086137Y80116614D02*
X51657566Y80688042D01*
X51657566Y80688042D02*
X51657566Y80068995D01*
X88775859Y37475599D02*
X88299668Y37808932D01*
X88775859Y38047027D02*
X87775859Y38047027D01*
X87775859Y38047027D02*
X87775859Y37666075D01*
X87775859Y37666075D02*
X87823478Y37570837D01*
X87823478Y37570837D02*
X87871097Y37523218D01*
X87871097Y37523218D02*
X87966335Y37475599D01*
X87966335Y37475599D02*
X88109192Y37475599D01*
X88109192Y37475599D02*
X88204430Y37523218D01*
X88204430Y37523218D02*
X88252049Y37570837D01*
X88252049Y37570837D02*
X88299668Y37666075D01*
X88299668Y37666075D02*
X88299668Y38047027D01*
X88775859Y36523218D02*
X88775859Y37094646D01*
X88775859Y36808932D02*
X87775859Y36808932D01*
X87775859Y36808932D02*
X87918716Y36904170D01*
X87918716Y36904170D02*
X88013954Y36999408D01*
X88013954Y36999408D02*
X88061573Y37094646D01*
X87775859Y35666075D02*
X87775859Y35856551D01*
X87775859Y35856551D02*
X87823478Y35951789D01*
X87823478Y35951789D02*
X87871097Y35999408D01*
X87871097Y35999408D02*
X88013954Y36094646D01*
X88013954Y36094646D02*
X88204430Y36142265D01*
X88204430Y36142265D02*
X88585382Y36142265D01*
X88585382Y36142265D02*
X88680620Y36094646D01*
X88680620Y36094646D02*
X88728240Y36047027D01*
X88728240Y36047027D02*
X88775859Y35951789D01*
X88775859Y35951789D02*
X88775859Y35761313D01*
X88775859Y35761313D02*
X88728240Y35666075D01*
X88728240Y35666075D02*
X88680620Y35618456D01*
X88680620Y35618456D02*
X88585382Y35570837D01*
X88585382Y35570837D02*
X88347287Y35570837D01*
X88347287Y35570837D02*
X88252049Y35618456D01*
X88252049Y35618456D02*
X88204430Y35666075D01*
X88204430Y35666075D02*
X88156811Y35761313D01*
X88156811Y35761313D02*
X88156811Y35951789D01*
X88156811Y35951789D02*
X88204430Y36047027D01*
X88204430Y36047027D02*
X88252049Y36094646D01*
X88252049Y36094646D02*
X88347287Y36142265D01*
X71624827Y59497583D02*
X71672447Y59545202D01*
X71672447Y59545202D02*
X71720066Y59688059D01*
X71720066Y59688059D02*
X71720066Y59783297D01*
X71720066Y59783297D02*
X71672447Y59926154D01*
X71672447Y59926154D02*
X71577208Y60021392D01*
X71577208Y60021392D02*
X71481970Y60069011D01*
X71481970Y60069011D02*
X71291494Y60116630D01*
X71291494Y60116630D02*
X71148637Y60116630D01*
X71148637Y60116630D02*
X70958161Y60069011D01*
X70958161Y60069011D02*
X70862923Y60021392D01*
X70862923Y60021392D02*
X70767685Y59926154D01*
X70767685Y59926154D02*
X70720066Y59783297D01*
X70720066Y59783297D02*
X70720066Y59688059D01*
X70720066Y59688059D02*
X70767685Y59545202D01*
X70767685Y59545202D02*
X70815304Y59497583D01*
X70720066Y59164249D02*
X70720066Y58545202D01*
X70720066Y58545202D02*
X71101018Y58878535D01*
X71101018Y58878535D02*
X71101018Y58735678D01*
X71101018Y58735678D02*
X71148637Y58640440D01*
X71148637Y58640440D02*
X71196256Y58592821D01*
X71196256Y58592821D02*
X71291494Y58545202D01*
X71291494Y58545202D02*
X71529589Y58545202D01*
X71529589Y58545202D02*
X71624827Y58592821D01*
X71624827Y58592821D02*
X71672447Y58640440D01*
X71672447Y58640440D02*
X71720066Y58735678D01*
X71720066Y58735678D02*
X71720066Y59021392D01*
X71720066Y59021392D02*
X71672447Y59116630D01*
X71672447Y59116630D02*
X71624827Y59164249D01*
X70720066Y58211868D02*
X70720066Y57545202D01*
X70720066Y57545202D02*
X71720066Y57973773D01*
X48650859Y14999424D02*
X48174668Y15332757D01*
X48650859Y15570852D02*
X47650859Y15570852D01*
X47650859Y15570852D02*
X47650859Y15189900D01*
X47650859Y15189900D02*
X47698478Y15094662D01*
X47698478Y15094662D02*
X47746097Y15047043D01*
X47746097Y15047043D02*
X47841335Y14999424D01*
X47841335Y14999424D02*
X47984192Y14999424D01*
X47984192Y14999424D02*
X48079430Y15047043D01*
X48079430Y15047043D02*
X48127049Y15094662D01*
X48127049Y15094662D02*
X48174668Y15189900D01*
X48174668Y15189900D02*
X48174668Y15570852D01*
X48650859Y14523233D02*
X48650859Y14332757D01*
X48650859Y14332757D02*
X48603240Y14237519D01*
X48603240Y14237519D02*
X48555620Y14189900D01*
X48555620Y14189900D02*
X48412763Y14094662D01*
X48412763Y14094662D02*
X48222287Y14047043D01*
X48222287Y14047043D02*
X47841335Y14047043D01*
X47841335Y14047043D02*
X47746097Y14094662D01*
X47746097Y14094662D02*
X47698478Y14142281D01*
X47698478Y14142281D02*
X47650859Y14237519D01*
X47650859Y14237519D02*
X47650859Y14427995D01*
X47650859Y14427995D02*
X47698478Y14523233D01*
X47698478Y14523233D02*
X47746097Y14570852D01*
X47746097Y14570852D02*
X47841335Y14618471D01*
X47841335Y14618471D02*
X48079430Y14618471D01*
X48079430Y14618471D02*
X48174668Y14570852D01*
X48174668Y14570852D02*
X48222287Y14523233D01*
X48222287Y14523233D02*
X48269906Y14427995D01*
X48269906Y14427995D02*
X48269906Y14237519D01*
X48269906Y14237519D02*
X48222287Y14142281D01*
X48222287Y14142281D02*
X48174668Y14094662D01*
X48174668Y14094662D02*
X48079430Y14047043D01*
X93174836Y59497583D02*
X93222456Y59545202D01*
X93222456Y59545202D02*
X93270075Y59688059D01*
X93270075Y59688059D02*
X93270075Y59783297D01*
X93270075Y59783297D02*
X93222456Y59926154D01*
X93222456Y59926154D02*
X93127217Y60021392D01*
X93127217Y60021392D02*
X93031979Y60069011D01*
X93031979Y60069011D02*
X92841503Y60116630D01*
X92841503Y60116630D02*
X92698646Y60116630D01*
X92698646Y60116630D02*
X92508170Y60069011D01*
X92508170Y60069011D02*
X92412932Y60021392D01*
X92412932Y60021392D02*
X92317694Y59926154D01*
X92317694Y59926154D02*
X92270075Y59783297D01*
X92270075Y59783297D02*
X92270075Y59688059D01*
X92270075Y59688059D02*
X92317694Y59545202D01*
X92317694Y59545202D02*
X92365313Y59497583D01*
X92270075Y58592821D02*
X92270075Y59069011D01*
X92270075Y59069011D02*
X92746265Y59116630D01*
X92746265Y59116630D02*
X92698646Y59069011D01*
X92698646Y59069011D02*
X92651027Y58973773D01*
X92651027Y58973773D02*
X92651027Y58735678D01*
X92651027Y58735678D02*
X92698646Y58640440D01*
X92698646Y58640440D02*
X92746265Y58592821D01*
X92746265Y58592821D02*
X92841503Y58545202D01*
X92841503Y58545202D02*
X93079598Y58545202D01*
X93079598Y58545202D02*
X93174836Y58592821D01*
X93174836Y58592821D02*
X93222456Y58640440D01*
X93222456Y58640440D02*
X93270075Y58735678D01*
X93270075Y58735678D02*
X93270075Y58973773D01*
X93270075Y58973773D02*
X93222456Y59069011D01*
X93222456Y59069011D02*
X93174836Y59116630D01*
X92270075Y58211868D02*
X92270075Y57545202D01*
X92270075Y57545202D02*
X93270075Y57973773D01*
X53049836Y81021376D02*
X53097456Y81068995D01*
X53097456Y81068995D02*
X53145075Y81211852D01*
X53145075Y81211852D02*
X53145075Y81307090D01*
X53145075Y81307090D02*
X53097456Y81449947D01*
X53097456Y81449947D02*
X53002217Y81545185D01*
X53002217Y81545185D02*
X52906979Y81592804D01*
X52906979Y81592804D02*
X52716503Y81640423D01*
X52716503Y81640423D02*
X52573646Y81640423D01*
X52573646Y81640423D02*
X52383170Y81592804D01*
X52383170Y81592804D02*
X52287932Y81545185D01*
X52287932Y81545185D02*
X52192694Y81449947D01*
X52192694Y81449947D02*
X52145075Y81307090D01*
X52145075Y81307090D02*
X52145075Y81211852D01*
X52145075Y81211852D02*
X52192694Y81068995D01*
X52192694Y81068995D02*
X52240313Y81021376D01*
X52478408Y80164233D02*
X53145075Y80164233D01*
X52097456Y80402328D02*
X52811741Y80640423D01*
X52811741Y80640423D02*
X52811741Y80021376D01*
X73112336Y59497583D02*
X73159956Y59545202D01*
X73159956Y59545202D02*
X73207575Y59688059D01*
X73207575Y59688059D02*
X73207575Y59783297D01*
X73207575Y59783297D02*
X73159956Y59926154D01*
X73159956Y59926154D02*
X73064717Y60021392D01*
X73064717Y60021392D02*
X72969479Y60069011D01*
X72969479Y60069011D02*
X72779003Y60116630D01*
X72779003Y60116630D02*
X72636146Y60116630D01*
X72636146Y60116630D02*
X72445670Y60069011D01*
X72445670Y60069011D02*
X72350432Y60021392D01*
X72350432Y60021392D02*
X72255194Y59926154D01*
X72255194Y59926154D02*
X72207575Y59783297D01*
X72207575Y59783297D02*
X72207575Y59688059D01*
X72207575Y59688059D02*
X72255194Y59545202D01*
X72255194Y59545202D02*
X72302813Y59497583D01*
X72540908Y58640440D02*
X73207575Y58640440D01*
X72159956Y58878535D02*
X72874241Y59116630D01*
X72874241Y59116630D02*
X72874241Y58497583D01*
X73207575Y57592821D02*
X73207575Y58164249D01*
X73207575Y57878535D02*
X72207575Y57878535D01*
X72207575Y57878535D02*
X72350432Y57973773D01*
X72350432Y57973773D02*
X72445670Y58069011D01*
X72445670Y58069011D02*
X72493289Y58164249D01*
X71624827Y37497599D02*
X71672447Y37545218D01*
X71672447Y37545218D02*
X71720066Y37688075D01*
X71720066Y37688075D02*
X71720066Y37783313D01*
X71720066Y37783313D02*
X71672447Y37926170D01*
X71672447Y37926170D02*
X71577208Y38021408D01*
X71577208Y38021408D02*
X71481970Y38069027D01*
X71481970Y38069027D02*
X71291494Y38116646D01*
X71291494Y38116646D02*
X71148637Y38116646D01*
X71148637Y38116646D02*
X70958161Y38069027D01*
X70958161Y38069027D02*
X70862923Y38021408D01*
X70862923Y38021408D02*
X70767685Y37926170D01*
X70767685Y37926170D02*
X70720066Y37783313D01*
X70720066Y37783313D02*
X70720066Y37688075D01*
X70720066Y37688075D02*
X70767685Y37545218D01*
X70767685Y37545218D02*
X70815304Y37497599D01*
X70720066Y37164265D02*
X70720066Y36545218D01*
X70720066Y36545218D02*
X71101018Y36878551D01*
X71101018Y36878551D02*
X71101018Y36735694D01*
X71101018Y36735694D02*
X71148637Y36640456D01*
X71148637Y36640456D02*
X71196256Y36592837D01*
X71196256Y36592837D02*
X71291494Y36545218D01*
X71291494Y36545218D02*
X71529589Y36545218D01*
X71529589Y36545218D02*
X71624827Y36592837D01*
X71624827Y36592837D02*
X71672447Y36640456D01*
X71672447Y36640456D02*
X71720066Y36735694D01*
X71720066Y36735694D02*
X71720066Y37021408D01*
X71720066Y37021408D02*
X71672447Y37116646D01*
X71672447Y37116646D02*
X71624827Y37164265D01*
X71148637Y35973789D02*
X71101018Y36069027D01*
X71101018Y36069027D02*
X71053399Y36116646D01*
X71053399Y36116646D02*
X70958161Y36164265D01*
X70958161Y36164265D02*
X70910542Y36164265D01*
X70910542Y36164265D02*
X70815304Y36116646D01*
X70815304Y36116646D02*
X70767685Y36069027D01*
X70767685Y36069027D02*
X70720066Y35973789D01*
X70720066Y35973789D02*
X70720066Y35783313D01*
X70720066Y35783313D02*
X70767685Y35688075D01*
X70767685Y35688075D02*
X70815304Y35640456D01*
X70815304Y35640456D02*
X70910542Y35592837D01*
X70910542Y35592837D02*
X70958161Y35592837D01*
X70958161Y35592837D02*
X71053399Y35640456D01*
X71053399Y35640456D02*
X71101018Y35688075D01*
X71101018Y35688075D02*
X71148637Y35783313D01*
X71148637Y35783313D02*
X71148637Y35973789D01*
X71148637Y35973789D02*
X71196256Y36069027D01*
X71196256Y36069027D02*
X71243875Y36116646D01*
X71243875Y36116646D02*
X71339113Y36164265D01*
X71339113Y36164265D02*
X71529589Y36164265D01*
X71529589Y36164265D02*
X71624827Y36116646D01*
X71624827Y36116646D02*
X71672447Y36069027D01*
X71672447Y36069027D02*
X71720066Y35973789D01*
X71720066Y35973789D02*
X71720066Y35783313D01*
X71720066Y35783313D02*
X71672447Y35688075D01*
X71672447Y35688075D02*
X71624827Y35640456D01*
X71624827Y35640456D02*
X71529589Y35592837D01*
X71529589Y35592837D02*
X71339113Y35592837D01*
X71339113Y35592837D02*
X71243875Y35640456D01*
X71243875Y35640456D02*
X71196256Y35688075D01*
X71196256Y35688075D02*
X71148637Y35783313D01*
X41037580Y81021376D02*
X41085200Y81068995D01*
X41085200Y81068995D02*
X41132819Y81211852D01*
X41132819Y81211852D02*
X41132819Y81307090D01*
X41132819Y81307090D02*
X41085200Y81449947D01*
X41085200Y81449947D02*
X40989961Y81545185D01*
X40989961Y81545185D02*
X40894723Y81592804D01*
X40894723Y81592804D02*
X40704247Y81640423D01*
X40704247Y81640423D02*
X40561390Y81640423D01*
X40561390Y81640423D02*
X40370914Y81592804D01*
X40370914Y81592804D02*
X40275676Y81545185D01*
X40275676Y81545185D02*
X40180438Y81449947D01*
X40180438Y81449947D02*
X40132819Y81307090D01*
X40132819Y81307090D02*
X40132819Y81211852D01*
X40132819Y81211852D02*
X40180438Y81068995D01*
X40180438Y81068995D02*
X40228057Y81021376D01*
X40132819Y80688042D02*
X40132819Y80068995D01*
X40132819Y80068995D02*
X40513771Y80402328D01*
X40513771Y80402328D02*
X40513771Y80259471D01*
X40513771Y80259471D02*
X40561390Y80164233D01*
X40561390Y80164233D02*
X40609009Y80116614D01*
X40609009Y80116614D02*
X40704247Y80068995D01*
X40704247Y80068995D02*
X40942342Y80068995D01*
X40942342Y80068995D02*
X41037580Y80116614D01*
X41037580Y80116614D02*
X41085200Y80164233D01*
X41085200Y80164233D02*
X41132819Y80259471D01*
X41132819Y80259471D02*
X41132819Y80545185D01*
X41132819Y80545185D02*
X41085200Y80640423D01*
X41085200Y80640423D02*
X41037580Y80688042D01*
X91687327Y81497567D02*
X91734947Y81545186D01*
X91734947Y81545186D02*
X91782566Y81688043D01*
X91782566Y81688043D02*
X91782566Y81783281D01*
X91782566Y81783281D02*
X91734947Y81926138D01*
X91734947Y81926138D02*
X91639708Y82021376D01*
X91639708Y82021376D02*
X91544470Y82068995D01*
X91544470Y82068995D02*
X91353994Y82116614D01*
X91353994Y82116614D02*
X91211137Y82116614D01*
X91211137Y82116614D02*
X91020661Y82068995D01*
X91020661Y82068995D02*
X90925423Y82021376D01*
X90925423Y82021376D02*
X90830185Y81926138D01*
X90830185Y81926138D02*
X90782566Y81783281D01*
X90782566Y81783281D02*
X90782566Y81688043D01*
X90782566Y81688043D02*
X90830185Y81545186D01*
X90830185Y81545186D02*
X90877804Y81497567D01*
X90782566Y80592805D02*
X90782566Y81068995D01*
X90782566Y81068995D02*
X91258756Y81116614D01*
X91258756Y81116614D02*
X91211137Y81068995D01*
X91211137Y81068995D02*
X91163518Y80973757D01*
X91163518Y80973757D02*
X91163518Y80735662D01*
X91163518Y80735662D02*
X91211137Y80640424D01*
X91211137Y80640424D02*
X91258756Y80592805D01*
X91258756Y80592805D02*
X91353994Y80545186D01*
X91353994Y80545186D02*
X91592089Y80545186D01*
X91592089Y80545186D02*
X91687327Y80592805D01*
X91687327Y80592805D02*
X91734947Y80640424D01*
X91734947Y80640424D02*
X91782566Y80735662D01*
X91782566Y80735662D02*
X91782566Y80973757D01*
X91782566Y80973757D02*
X91734947Y81068995D01*
X91734947Y81068995D02*
X91687327Y81116614D01*
X90877804Y80164233D02*
X90830185Y80116614D01*
X90830185Y80116614D02*
X90782566Y80021376D01*
X90782566Y80021376D02*
X90782566Y79783281D01*
X90782566Y79783281D02*
X90830185Y79688043D01*
X90830185Y79688043D02*
X90877804Y79640424D01*
X90877804Y79640424D02*
X90973042Y79592805D01*
X90973042Y79592805D02*
X91068280Y79592805D01*
X91068280Y79592805D02*
X91211137Y79640424D01*
X91211137Y79640424D02*
X91782566Y80211852D01*
X91782566Y80211852D02*
X91782566Y79592805D01*
X50118380Y15572858D02*
X49642189Y15906191D01*
X50118380Y16144286D02*
X49118380Y16144286D01*
X49118380Y16144286D02*
X49118380Y15763334D01*
X49118380Y15763334D02*
X49165999Y15668096D01*
X49165999Y15668096D02*
X49213618Y15620477D01*
X49213618Y15620477D02*
X49308856Y15572858D01*
X49308856Y15572858D02*
X49451713Y15572858D01*
X49451713Y15572858D02*
X49546951Y15620477D01*
X49546951Y15620477D02*
X49594570Y15668096D01*
X49594570Y15668096D02*
X49642189Y15763334D01*
X49642189Y15763334D02*
X49642189Y16144286D01*
X49213618Y15191905D02*
X49165999Y15144286D01*
X49165999Y15144286D02*
X49118380Y15049048D01*
X49118380Y15049048D02*
X49118380Y14810953D01*
X49118380Y14810953D02*
X49165999Y14715715D01*
X49165999Y14715715D02*
X49213618Y14668096D01*
X49213618Y14668096D02*
X49308856Y14620477D01*
X49308856Y14620477D02*
X49404094Y14620477D01*
X49404094Y14620477D02*
X49546951Y14668096D01*
X49546951Y14668096D02*
X50118380Y15239524D01*
X50118380Y15239524D02*
X50118380Y14620477D01*
X50118380Y14144286D02*
X50118380Y13953810D01*
X50118380Y13953810D02*
X50070761Y13858572D01*
X50070761Y13858572D02*
X50023141Y13810953D01*
X50023141Y13810953D02*
X49880284Y13715715D01*
X49880284Y13715715D02*
X49689808Y13668096D01*
X49689808Y13668096D02*
X49308856Y13668096D01*
X49308856Y13668096D02*
X49213618Y13715715D01*
X49213618Y13715715D02*
X49165999Y13763334D01*
X49165999Y13763334D02*
X49118380Y13858572D01*
X49118380Y13858572D02*
X49118380Y14049048D01*
X49118380Y14049048D02*
X49165999Y14144286D01*
X49165999Y14144286D02*
X49213618Y14191905D01*
X49213618Y14191905D02*
X49308856Y14239524D01*
X49308856Y14239524D02*
X49546951Y14239524D01*
X49546951Y14239524D02*
X49642189Y14191905D01*
X49642189Y14191905D02*
X49689808Y14144286D01*
X49689808Y14144286D02*
X49737427Y14049048D01*
X49737427Y14049048D02*
X49737427Y13858572D01*
X49737427Y13858572D02*
X49689808Y13763334D01*
X49689808Y13763334D02*
X49642189Y13715715D01*
X49642189Y13715715D02*
X49546951Y13668096D01*
X42437580Y80999376D02*
X42485200Y81046995D01*
X42485200Y81046995D02*
X42532819Y81189852D01*
X42532819Y81189852D02*
X42532819Y81285090D01*
X42532819Y81285090D02*
X42485200Y81427947D01*
X42485200Y81427947D02*
X42389961Y81523185D01*
X42389961Y81523185D02*
X42294723Y81570804D01*
X42294723Y81570804D02*
X42104247Y81618423D01*
X42104247Y81618423D02*
X41961390Y81618423D01*
X41961390Y81618423D02*
X41770914Y81570804D01*
X41770914Y81570804D02*
X41675676Y81523185D01*
X41675676Y81523185D02*
X41580438Y81427947D01*
X41580438Y81427947D02*
X41532819Y81285090D01*
X41532819Y81285090D02*
X41532819Y81189852D01*
X41532819Y81189852D02*
X41580438Y81046995D01*
X41580438Y81046995D02*
X41628057Y80999376D01*
X42532819Y80046995D02*
X42532819Y80618423D01*
X42532819Y80332709D02*
X41532819Y80332709D01*
X41532819Y80332709D02*
X41675676Y80427947D01*
X41675676Y80427947D02*
X41770914Y80523185D01*
X41770914Y80523185D02*
X41818533Y80618423D01*
X53049836Y15497615D02*
X53097456Y15545234D01*
X53097456Y15545234D02*
X53145075Y15688091D01*
X53145075Y15688091D02*
X53145075Y15783329D01*
X53145075Y15783329D02*
X53097456Y15926186D01*
X53097456Y15926186D02*
X53002217Y16021424D01*
X53002217Y16021424D02*
X52906979Y16069043D01*
X52906979Y16069043D02*
X52716503Y16116662D01*
X52716503Y16116662D02*
X52573646Y16116662D01*
X52573646Y16116662D02*
X52383170Y16069043D01*
X52383170Y16069043D02*
X52287932Y16021424D01*
X52287932Y16021424D02*
X52192694Y15926186D01*
X52192694Y15926186D02*
X52145075Y15783329D01*
X52145075Y15783329D02*
X52145075Y15688091D01*
X52145075Y15688091D02*
X52192694Y15545234D01*
X52192694Y15545234D02*
X52240313Y15497615D01*
X52240313Y15116662D02*
X52192694Y15069043D01*
X52192694Y15069043D02*
X52145075Y14973805D01*
X52145075Y14973805D02*
X52145075Y14735710D01*
X52145075Y14735710D02*
X52192694Y14640472D01*
X52192694Y14640472D02*
X52240313Y14592853D01*
X52240313Y14592853D02*
X52335551Y14545234D01*
X52335551Y14545234D02*
X52430789Y14545234D01*
X52430789Y14545234D02*
X52573646Y14592853D01*
X52573646Y14592853D02*
X53145075Y15164281D01*
X53145075Y15164281D02*
X53145075Y14545234D01*
X52145075Y14211900D02*
X52145075Y13592853D01*
X52145075Y13592853D02*
X52526027Y13926186D01*
X52526027Y13926186D02*
X52526027Y13783329D01*
X52526027Y13783329D02*
X52573646Y13688091D01*
X52573646Y13688091D02*
X52621265Y13640472D01*
X52621265Y13640472D02*
X52716503Y13592853D01*
X52716503Y13592853D02*
X52954598Y13592853D01*
X52954598Y13592853D02*
X53049836Y13640472D01*
X53049836Y13640472D02*
X53097456Y13688091D01*
X53097456Y13688091D02*
X53145075Y13783329D01*
X53145075Y13783329D02*
X53145075Y14069043D01*
X53145075Y14069043D02*
X53097456Y14164281D01*
X53097456Y14164281D02*
X53049836Y14211900D01*
X48650859Y80999376D02*
X48174668Y81332709D01*
X48650859Y81570804D02*
X47650859Y81570804D01*
X47650859Y81570804D02*
X47650859Y81189852D01*
X47650859Y81189852D02*
X47698478Y81094614D01*
X47698478Y81094614D02*
X47746097Y81046995D01*
X47746097Y81046995D02*
X47841335Y80999376D01*
X47841335Y80999376D02*
X47984192Y80999376D01*
X47984192Y80999376D02*
X48079430Y81046995D01*
X48079430Y81046995D02*
X48127049Y81094614D01*
X48127049Y81094614D02*
X48174668Y81189852D01*
X48174668Y81189852D02*
X48174668Y81570804D01*
X47650859Y80666042D02*
X47650859Y80046995D01*
X47650859Y80046995D02*
X48031811Y80380328D01*
X48031811Y80380328D02*
X48031811Y80237471D01*
X48031811Y80237471D02*
X48079430Y80142233D01*
X48079430Y80142233D02*
X48127049Y80094614D01*
X48127049Y80094614D02*
X48222287Y80046995D01*
X48222287Y80046995D02*
X48460382Y80046995D01*
X48460382Y80046995D02*
X48555620Y80094614D01*
X48555620Y80094614D02*
X48603240Y80142233D01*
X48603240Y80142233D02*
X48650859Y80237471D01*
X48650859Y80237471D02*
X48650859Y80523185D01*
X48650859Y80523185D02*
X48603240Y80618423D01*
X48603240Y80618423D02*
X48555620Y80666042D01*
X68713359Y59475583D02*
X68237168Y59808916D01*
X68713359Y60047011D02*
X67713359Y60047011D01*
X67713359Y60047011D02*
X67713359Y59666059D01*
X67713359Y59666059D02*
X67760978Y59570821D01*
X67760978Y59570821D02*
X67808597Y59523202D01*
X67808597Y59523202D02*
X67903835Y59475583D01*
X67903835Y59475583D02*
X68046692Y59475583D01*
X68046692Y59475583D02*
X68141930Y59523202D01*
X68141930Y59523202D02*
X68189549Y59570821D01*
X68189549Y59570821D02*
X68237168Y59666059D01*
X68237168Y59666059D02*
X68237168Y60047011D01*
X68713359Y58523202D02*
X68713359Y59094630D01*
X68713359Y58808916D02*
X67713359Y58808916D01*
X67713359Y58808916D02*
X67856216Y58904154D01*
X67856216Y58904154D02*
X67951454Y58999392D01*
X67951454Y58999392D02*
X67999073Y59094630D01*
X68713359Y57570821D02*
X68713359Y58142249D01*
X68713359Y57856535D02*
X67713359Y57856535D01*
X67713359Y57856535D02*
X67856216Y57951773D01*
X67856216Y57951773D02*
X67951454Y58047011D01*
X67951454Y58047011D02*
X67999073Y58142249D01*
X88775859Y15475615D02*
X88299668Y15808948D01*
X88775859Y16047043D02*
X87775859Y16047043D01*
X87775859Y16047043D02*
X87775859Y15666091D01*
X87775859Y15666091D02*
X87823478Y15570853D01*
X87823478Y15570853D02*
X87871097Y15523234D01*
X87871097Y15523234D02*
X87966335Y15475615D01*
X87966335Y15475615D02*
X88109192Y15475615D01*
X88109192Y15475615D02*
X88204430Y15523234D01*
X88204430Y15523234D02*
X88252049Y15570853D01*
X88252049Y15570853D02*
X88299668Y15666091D01*
X88299668Y15666091D02*
X88299668Y16047043D01*
X88775859Y14523234D02*
X88775859Y15094662D01*
X88775859Y14808948D02*
X87775859Y14808948D01*
X87775859Y14808948D02*
X87918716Y14904186D01*
X87918716Y14904186D02*
X88013954Y14999424D01*
X88013954Y14999424D02*
X88061573Y15094662D01*
X87775859Y14189900D02*
X87775859Y13523234D01*
X87775859Y13523234D02*
X88775859Y13951805D01*
X51562327Y15497615D02*
X51609947Y15545234D01*
X51609947Y15545234D02*
X51657566Y15688091D01*
X51657566Y15688091D02*
X51657566Y15783329D01*
X51657566Y15783329D02*
X51609947Y15926186D01*
X51609947Y15926186D02*
X51514708Y16021424D01*
X51514708Y16021424D02*
X51419470Y16069043D01*
X51419470Y16069043D02*
X51228994Y16116662D01*
X51228994Y16116662D02*
X51086137Y16116662D01*
X51086137Y16116662D02*
X50895661Y16069043D01*
X50895661Y16069043D02*
X50800423Y16021424D01*
X50800423Y16021424D02*
X50705185Y15926186D01*
X50705185Y15926186D02*
X50657566Y15783329D01*
X50657566Y15783329D02*
X50657566Y15688091D01*
X50657566Y15688091D02*
X50705185Y15545234D01*
X50705185Y15545234D02*
X50752804Y15497615D01*
X50752804Y15116662D02*
X50705185Y15069043D01*
X50705185Y15069043D02*
X50657566Y14973805D01*
X50657566Y14973805D02*
X50657566Y14735710D01*
X50657566Y14735710D02*
X50705185Y14640472D01*
X50705185Y14640472D02*
X50752804Y14592853D01*
X50752804Y14592853D02*
X50848042Y14545234D01*
X50848042Y14545234D02*
X50943280Y14545234D01*
X50943280Y14545234D02*
X51086137Y14592853D01*
X51086137Y14592853D02*
X51657566Y15164281D01*
X51657566Y15164281D02*
X51657566Y14545234D01*
X51657566Y13592853D02*
X51657566Y14164281D01*
X51657566Y13878567D02*
X50657566Y13878567D01*
X50657566Y13878567D02*
X50800423Y13973805D01*
X50800423Y13973805D02*
X50895661Y14069043D01*
X50895661Y14069043D02*
X50943280Y14164281D01*
X90308819Y59768858D02*
X89832628Y60102191D01*
X90308819Y60340286D02*
X89308819Y60340286D01*
X89308819Y60340286D02*
X89308819Y59959334D01*
X89308819Y59959334D02*
X89356438Y59864096D01*
X89356438Y59864096D02*
X89404057Y59816477D01*
X89404057Y59816477D02*
X89499295Y59768858D01*
X89499295Y59768858D02*
X89642152Y59768858D01*
X89642152Y59768858D02*
X89737390Y59816477D01*
X89737390Y59816477D02*
X89785009Y59864096D01*
X89785009Y59864096D02*
X89832628Y59959334D01*
X89832628Y59959334D02*
X89832628Y60340286D01*
X89404057Y59387905D02*
X89356438Y59340286D01*
X89356438Y59340286D02*
X89308819Y59245048D01*
X89308819Y59245048D02*
X89308819Y59006953D01*
X89308819Y59006953D02*
X89356438Y58911715D01*
X89356438Y58911715D02*
X89404057Y58864096D01*
X89404057Y58864096D02*
X89499295Y58816477D01*
X89499295Y58816477D02*
X89594533Y58816477D01*
X89594533Y58816477D02*
X89737390Y58864096D01*
X89737390Y58864096D02*
X90308819Y59435524D01*
X90308819Y59435524D02*
X90308819Y58816477D01*
X89308819Y57911715D02*
X89308819Y58387905D01*
X89308819Y58387905D02*
X89785009Y58435524D01*
X89785009Y58435524D02*
X89737390Y58387905D01*
X89737390Y58387905D02*
X89689771Y58292667D01*
X89689771Y58292667D02*
X89689771Y58054572D01*
X89689771Y58054572D02*
X89737390Y57959334D01*
X89737390Y57959334D02*
X89785009Y57911715D01*
X89785009Y57911715D02*
X89880247Y57864096D01*
X89880247Y57864096D02*
X90118342Y57864096D01*
X90118342Y57864096D02*
X90213580Y57911715D01*
X90213580Y57911715D02*
X90261200Y57959334D01*
X90261200Y57959334D02*
X90308819Y58054572D01*
X90308819Y58054572D02*
X90308819Y58292667D01*
X90308819Y58292667D02*
X90261200Y58387905D01*
X90261200Y58387905D02*
X90213580Y58435524D01*
X44042080Y81358858D02*
X44089700Y81406477D01*
X44089700Y81406477D02*
X44137319Y81549334D01*
X44137319Y81549334D02*
X44137319Y81644572D01*
X44137319Y81644572D02*
X44089700Y81787429D01*
X44089700Y81787429D02*
X43994461Y81882667D01*
X43994461Y81882667D02*
X43899223Y81930286D01*
X43899223Y81930286D02*
X43708747Y81977905D01*
X43708747Y81977905D02*
X43565890Y81977905D01*
X43565890Y81977905D02*
X43375414Y81930286D01*
X43375414Y81930286D02*
X43280176Y81882667D01*
X43280176Y81882667D02*
X43184938Y81787429D01*
X43184938Y81787429D02*
X43137319Y81644572D01*
X43137319Y81644572D02*
X43137319Y81549334D01*
X43137319Y81549334D02*
X43184938Y81406477D01*
X43184938Y81406477D02*
X43232557Y81358858D01*
X43137319Y80501715D02*
X43137319Y80692191D01*
X43137319Y80692191D02*
X43184938Y80787429D01*
X43184938Y80787429D02*
X43232557Y80835048D01*
X43232557Y80835048D02*
X43375414Y80930286D01*
X43375414Y80930286D02*
X43565890Y80977905D01*
X43565890Y80977905D02*
X43946842Y80977905D01*
X43946842Y80977905D02*
X44042080Y80930286D01*
X44042080Y80930286D02*
X44089700Y80882667D01*
X44089700Y80882667D02*
X44137319Y80787429D01*
X44137319Y80787429D02*
X44137319Y80596953D01*
X44137319Y80596953D02*
X44089700Y80501715D01*
X44089700Y80501715D02*
X44042080Y80454096D01*
X44042080Y80454096D02*
X43946842Y80406477D01*
X43946842Y80406477D02*
X43708747Y80406477D01*
X43708747Y80406477D02*
X43613509Y80454096D01*
X43613509Y80454096D02*
X43565890Y80501715D01*
X43565890Y80501715D02*
X43518271Y80596953D01*
X43518271Y80596953D02*
X43518271Y80787429D01*
X43518271Y80787429D02*
X43565890Y80882667D01*
X43565890Y80882667D02*
X43613509Y80930286D01*
X43613509Y80930286D02*
X43708747Y80977905D01*
X43137319Y79787429D02*
X43137319Y79692191D01*
X43137319Y79692191D02*
X43184938Y79596953D01*
X43184938Y79596953D02*
X43232557Y79549334D01*
X43232557Y79549334D02*
X43327795Y79501715D01*
X43327795Y79501715D02*
X43518271Y79454096D01*
X43518271Y79454096D02*
X43756366Y79454096D01*
X43756366Y79454096D02*
X43946842Y79501715D01*
X43946842Y79501715D02*
X44042080Y79549334D01*
X44042080Y79549334D02*
X44089700Y79596953D01*
X44089700Y79596953D02*
X44137319Y79692191D01*
X44137319Y79692191D02*
X44137319Y79787429D01*
X44137319Y79787429D02*
X44089700Y79882667D01*
X44089700Y79882667D02*
X44042080Y79930286D01*
X44042080Y79930286D02*
X43946842Y79977905D01*
X43946842Y79977905D02*
X43756366Y80025524D01*
X43756366Y80025524D02*
X43518271Y80025524D01*
X43518271Y80025524D02*
X43327795Y79977905D01*
X43327795Y79977905D02*
X43232557Y79930286D01*
X43232557Y79930286D02*
X43184938Y79882667D01*
X43184938Y79882667D02*
X43137319Y79787429D01*
X51562327Y59497583D02*
X51609947Y59545202D01*
X51609947Y59545202D02*
X51657566Y59688059D01*
X51657566Y59688059D02*
X51657566Y59783297D01*
X51657566Y59783297D02*
X51609947Y59926154D01*
X51609947Y59926154D02*
X51514708Y60021392D01*
X51514708Y60021392D02*
X51419470Y60069011D01*
X51419470Y60069011D02*
X51228994Y60116630D01*
X51228994Y60116630D02*
X51086137Y60116630D01*
X51086137Y60116630D02*
X50895661Y60069011D01*
X50895661Y60069011D02*
X50800423Y60021392D01*
X50800423Y60021392D02*
X50705185Y59926154D01*
X50705185Y59926154D02*
X50657566Y59783297D01*
X50657566Y59783297D02*
X50657566Y59688059D01*
X50657566Y59688059D02*
X50705185Y59545202D01*
X50705185Y59545202D02*
X50752804Y59497583D01*
X51657566Y58545202D02*
X51657566Y59116630D01*
X51657566Y58830916D02*
X50657566Y58830916D01*
X50657566Y58830916D02*
X50800423Y58926154D01*
X50800423Y58926154D02*
X50895661Y59021392D01*
X50895661Y59021392D02*
X50943280Y59116630D01*
X51086137Y57973773D02*
X51038518Y58069011D01*
X51038518Y58069011D02*
X50990899Y58116630D01*
X50990899Y58116630D02*
X50895661Y58164249D01*
X50895661Y58164249D02*
X50848042Y58164249D01*
X50848042Y58164249D02*
X50752804Y58116630D01*
X50752804Y58116630D02*
X50705185Y58069011D01*
X50705185Y58069011D02*
X50657566Y57973773D01*
X50657566Y57973773D02*
X50657566Y57783297D01*
X50657566Y57783297D02*
X50705185Y57688059D01*
X50705185Y57688059D02*
X50752804Y57640440D01*
X50752804Y57640440D02*
X50848042Y57592821D01*
X50848042Y57592821D02*
X50895661Y57592821D01*
X50895661Y57592821D02*
X50990899Y57640440D01*
X50990899Y57640440D02*
X51038518Y57688059D01*
X51038518Y57688059D02*
X51086137Y57783297D01*
X51086137Y57783297D02*
X51086137Y57973773D01*
X51086137Y57973773D02*
X51133756Y58069011D01*
X51133756Y58069011D02*
X51181375Y58116630D01*
X51181375Y58116630D02*
X51276613Y58164249D01*
X51276613Y58164249D02*
X51467089Y58164249D01*
X51467089Y58164249D02*
X51562327Y58116630D01*
X51562327Y58116630D02*
X51609947Y58069011D01*
X51609947Y58069011D02*
X51657566Y57973773D01*
X51657566Y57973773D02*
X51657566Y57783297D01*
X51657566Y57783297D02*
X51609947Y57688059D01*
X51609947Y57688059D02*
X51562327Y57640440D01*
X51562327Y57640440D02*
X51467089Y57592821D01*
X51467089Y57592821D02*
X51276613Y57592821D01*
X51276613Y57592821D02*
X51181375Y57640440D01*
X51181375Y57640440D02*
X51133756Y57688059D01*
X51133756Y57688059D02*
X51086137Y57783297D01*
X90308819Y15572858D02*
X89832628Y15906191D01*
X90308819Y16144286D02*
X89308819Y16144286D01*
X89308819Y16144286D02*
X89308819Y15763334D01*
X89308819Y15763334D02*
X89356438Y15668096D01*
X89356438Y15668096D02*
X89404057Y15620477D01*
X89404057Y15620477D02*
X89499295Y15572858D01*
X89499295Y15572858D02*
X89642152Y15572858D01*
X89642152Y15572858D02*
X89737390Y15620477D01*
X89737390Y15620477D02*
X89785009Y15668096D01*
X89785009Y15668096D02*
X89832628Y15763334D01*
X89832628Y15763334D02*
X89832628Y16144286D01*
X89308819Y15239524D02*
X89308819Y14620477D01*
X89308819Y14620477D02*
X89689771Y14953810D01*
X89689771Y14953810D02*
X89689771Y14810953D01*
X89689771Y14810953D02*
X89737390Y14715715D01*
X89737390Y14715715D02*
X89785009Y14668096D01*
X89785009Y14668096D02*
X89880247Y14620477D01*
X89880247Y14620477D02*
X90118342Y14620477D01*
X90118342Y14620477D02*
X90213580Y14668096D01*
X90213580Y14668096D02*
X90261200Y14715715D01*
X90261200Y14715715D02*
X90308819Y14810953D01*
X90308819Y14810953D02*
X90308819Y15096667D01*
X90308819Y15096667D02*
X90261200Y15191905D01*
X90261200Y15191905D02*
X90213580Y15239524D01*
X90308819Y13668096D02*
X90308819Y14239524D01*
X90308819Y13953810D02*
X89308819Y13953810D01*
X89308819Y13953810D02*
X89451676Y14049048D01*
X89451676Y14049048D02*
X89546914Y14144286D01*
X89546914Y14144286D02*
X89594533Y14239524D01*
X53049836Y59497583D02*
X53097456Y59545202D01*
X53097456Y59545202D02*
X53145075Y59688059D01*
X53145075Y59688059D02*
X53145075Y59783297D01*
X53145075Y59783297D02*
X53097456Y59926154D01*
X53097456Y59926154D02*
X53002217Y60021392D01*
X53002217Y60021392D02*
X52906979Y60069011D01*
X52906979Y60069011D02*
X52716503Y60116630D01*
X52716503Y60116630D02*
X52573646Y60116630D01*
X52573646Y60116630D02*
X52383170Y60069011D01*
X52383170Y60069011D02*
X52287932Y60021392D01*
X52287932Y60021392D02*
X52192694Y59926154D01*
X52192694Y59926154D02*
X52145075Y59783297D01*
X52145075Y59783297D02*
X52145075Y59688059D01*
X52145075Y59688059D02*
X52192694Y59545202D01*
X52192694Y59545202D02*
X52240313Y59497583D01*
X53145075Y58545202D02*
X53145075Y59116630D01*
X53145075Y58830916D02*
X52145075Y58830916D01*
X52145075Y58830916D02*
X52287932Y58926154D01*
X52287932Y58926154D02*
X52383170Y59021392D01*
X52383170Y59021392D02*
X52430789Y59116630D01*
X53145075Y58069011D02*
X53145075Y57878535D01*
X53145075Y57878535D02*
X53097456Y57783297D01*
X53097456Y57783297D02*
X53049836Y57735678D01*
X53049836Y57735678D02*
X52906979Y57640440D01*
X52906979Y57640440D02*
X52716503Y57592821D01*
X52716503Y57592821D02*
X52335551Y57592821D01*
X52335551Y57592821D02*
X52240313Y57640440D01*
X52240313Y57640440D02*
X52192694Y57688059D01*
X52192694Y57688059D02*
X52145075Y57783297D01*
X52145075Y57783297D02*
X52145075Y57973773D01*
X52145075Y57973773D02*
X52192694Y58069011D01*
X52192694Y58069011D02*
X52240313Y58116630D01*
X52240313Y58116630D02*
X52335551Y58164249D01*
X52335551Y58164249D02*
X52573646Y58164249D01*
X52573646Y58164249D02*
X52668884Y58116630D01*
X52668884Y58116630D02*
X52716503Y58069011D01*
X52716503Y58069011D02*
X52764122Y57973773D01*
X52764122Y57973773D02*
X52764122Y57783297D01*
X52764122Y57783297D02*
X52716503Y57688059D01*
X52716503Y57688059D02*
X52668884Y57640440D01*
X52668884Y57640440D02*
X52573646Y57592821D01*
X68713359Y15475615D02*
X68237168Y15808948D01*
X68713359Y16047043D02*
X67713359Y16047043D01*
X67713359Y16047043D02*
X67713359Y15666091D01*
X67713359Y15666091D02*
X67760978Y15570853D01*
X67760978Y15570853D02*
X67808597Y15523234D01*
X67808597Y15523234D02*
X67903835Y15475615D01*
X67903835Y15475615D02*
X68046692Y15475615D01*
X68046692Y15475615D02*
X68141930Y15523234D01*
X68141930Y15523234D02*
X68189549Y15570853D01*
X68189549Y15570853D02*
X68237168Y15666091D01*
X68237168Y15666091D02*
X68237168Y16047043D01*
X68713359Y14523234D02*
X68713359Y15094662D01*
X68713359Y14808948D02*
X67713359Y14808948D01*
X67713359Y14808948D02*
X67856216Y14904186D01*
X67856216Y14904186D02*
X67951454Y14999424D01*
X67951454Y14999424D02*
X67999073Y15094662D01*
X67713359Y14189900D02*
X67713359Y13570853D01*
X67713359Y13570853D02*
X68094311Y13904186D01*
X68094311Y13904186D02*
X68094311Y13761329D01*
X68094311Y13761329D02*
X68141930Y13666091D01*
X68141930Y13666091D02*
X68189549Y13618472D01*
X68189549Y13618472D02*
X68284787Y13570853D01*
X68284787Y13570853D02*
X68522882Y13570853D01*
X68522882Y13570853D02*
X68618120Y13618472D01*
X68618120Y13618472D02*
X68665740Y13666091D01*
X68665740Y13666091D02*
X68713359Y13761329D01*
X68713359Y13761329D02*
X68713359Y14047043D01*
X68713359Y14047043D02*
X68665740Y14142281D01*
X68665740Y14142281D02*
X68618120Y14189900D01*
X50176819Y81866858D02*
X49700628Y82200191D01*
X50176819Y82438286D02*
X49176819Y82438286D01*
X49176819Y82438286D02*
X49176819Y82057334D01*
X49176819Y82057334D02*
X49224438Y81962096D01*
X49224438Y81962096D02*
X49272057Y81914477D01*
X49272057Y81914477D02*
X49367295Y81866858D01*
X49367295Y81866858D02*
X49510152Y81866858D01*
X49510152Y81866858D02*
X49605390Y81914477D01*
X49605390Y81914477D02*
X49653009Y81962096D01*
X49653009Y81962096D02*
X49700628Y82057334D01*
X49700628Y82057334D02*
X49700628Y82438286D01*
X49272057Y81485905D02*
X49224438Y81438286D01*
X49224438Y81438286D02*
X49176819Y81343048D01*
X49176819Y81343048D02*
X49176819Y81104953D01*
X49176819Y81104953D02*
X49224438Y81009715D01*
X49224438Y81009715D02*
X49272057Y80962096D01*
X49272057Y80962096D02*
X49367295Y80914477D01*
X49367295Y80914477D02*
X49462533Y80914477D01*
X49462533Y80914477D02*
X49605390Y80962096D01*
X49605390Y80962096D02*
X50176819Y81533524D01*
X50176819Y81533524D02*
X50176819Y80914477D01*
X49176819Y80295429D02*
X49176819Y80200191D01*
X49176819Y80200191D02*
X49224438Y80104953D01*
X49224438Y80104953D02*
X49272057Y80057334D01*
X49272057Y80057334D02*
X49367295Y80009715D01*
X49367295Y80009715D02*
X49557771Y79962096D01*
X49557771Y79962096D02*
X49795866Y79962096D01*
X49795866Y79962096D02*
X49986342Y80009715D01*
X49986342Y80009715D02*
X50081580Y80057334D01*
X50081580Y80057334D02*
X50129200Y80104953D01*
X50129200Y80104953D02*
X50176819Y80200191D01*
X50176819Y80200191D02*
X50176819Y80295429D01*
X50176819Y80295429D02*
X50129200Y80390667D01*
X50129200Y80390667D02*
X50081580Y80438286D01*
X50081580Y80438286D02*
X49986342Y80485905D01*
X49986342Y80485905D02*
X49795866Y80533524D01*
X49795866Y80533524D02*
X49557771Y80533524D01*
X49557771Y80533524D02*
X49367295Y80485905D01*
X49367295Y80485905D02*
X49272057Y80438286D01*
X49272057Y80438286D02*
X49224438Y80390667D01*
X49224438Y80390667D02*
X49176819Y80295429D01*
X71624827Y15497615D02*
X71672447Y15545234D01*
X71672447Y15545234D02*
X71720066Y15688091D01*
X71720066Y15688091D02*
X71720066Y15783329D01*
X71720066Y15783329D02*
X71672447Y15926186D01*
X71672447Y15926186D02*
X71577208Y16021424D01*
X71577208Y16021424D02*
X71481970Y16069043D01*
X71481970Y16069043D02*
X71291494Y16116662D01*
X71291494Y16116662D02*
X71148637Y16116662D01*
X71148637Y16116662D02*
X70958161Y16069043D01*
X70958161Y16069043D02*
X70862923Y16021424D01*
X70862923Y16021424D02*
X70767685Y15926186D01*
X70767685Y15926186D02*
X70720066Y15783329D01*
X70720066Y15783329D02*
X70720066Y15688091D01*
X70720066Y15688091D02*
X70767685Y15545234D01*
X70767685Y15545234D02*
X70815304Y15497615D01*
X70720066Y15164281D02*
X70720066Y14545234D01*
X70720066Y14545234D02*
X71101018Y14878567D01*
X71101018Y14878567D02*
X71101018Y14735710D01*
X71101018Y14735710D02*
X71148637Y14640472D01*
X71148637Y14640472D02*
X71196256Y14592853D01*
X71196256Y14592853D02*
X71291494Y14545234D01*
X71291494Y14545234D02*
X71529589Y14545234D01*
X71529589Y14545234D02*
X71624827Y14592853D01*
X71624827Y14592853D02*
X71672447Y14640472D01*
X71672447Y14640472D02*
X71720066Y14735710D01*
X71720066Y14735710D02*
X71720066Y15021424D01*
X71720066Y15021424D02*
X71672447Y15116662D01*
X71672447Y15116662D02*
X71624827Y15164281D01*
X71720066Y13592853D02*
X71720066Y14164281D01*
X71720066Y13878567D02*
X70720066Y13878567D01*
X70720066Y13878567D02*
X70862923Y13973805D01*
X70862923Y13973805D02*
X70958161Y14069043D01*
X70958161Y14069043D02*
X71005780Y14164281D01*
X70242819Y15572858D02*
X69766628Y15906191D01*
X70242819Y16144286D02*
X69242819Y16144286D01*
X69242819Y16144286D02*
X69242819Y15763334D01*
X69242819Y15763334D02*
X69290438Y15668096D01*
X69290438Y15668096D02*
X69338057Y15620477D01*
X69338057Y15620477D02*
X69433295Y15572858D01*
X69433295Y15572858D02*
X69576152Y15572858D01*
X69576152Y15572858D02*
X69671390Y15620477D01*
X69671390Y15620477D02*
X69719009Y15668096D01*
X69719009Y15668096D02*
X69766628Y15763334D01*
X69766628Y15763334D02*
X69766628Y16144286D01*
X69242819Y15239524D02*
X69242819Y14620477D01*
X69242819Y14620477D02*
X69623771Y14953810D01*
X69623771Y14953810D02*
X69623771Y14810953D01*
X69623771Y14810953D02*
X69671390Y14715715D01*
X69671390Y14715715D02*
X69719009Y14668096D01*
X69719009Y14668096D02*
X69814247Y14620477D01*
X69814247Y14620477D02*
X70052342Y14620477D01*
X70052342Y14620477D02*
X70147580Y14668096D01*
X70147580Y14668096D02*
X70195200Y14715715D01*
X70195200Y14715715D02*
X70242819Y14810953D01*
X70242819Y14810953D02*
X70242819Y15096667D01*
X70242819Y15096667D02*
X70195200Y15191905D01*
X70195200Y15191905D02*
X70147580Y15239524D01*
X69242819Y14001429D02*
X69242819Y13906191D01*
X69242819Y13906191D02*
X69290438Y13810953D01*
X69290438Y13810953D02*
X69338057Y13763334D01*
X69338057Y13763334D02*
X69433295Y13715715D01*
X69433295Y13715715D02*
X69623771Y13668096D01*
X69623771Y13668096D02*
X69861866Y13668096D01*
X69861866Y13668096D02*
X70052342Y13715715D01*
X70052342Y13715715D02*
X70147580Y13763334D01*
X70147580Y13763334D02*
X70195200Y13810953D01*
X70195200Y13810953D02*
X70242819Y13906191D01*
X70242819Y13906191D02*
X70242819Y14001429D01*
X70242819Y14001429D02*
X70195200Y14096667D01*
X70195200Y14096667D02*
X70147580Y14144286D01*
X70147580Y14144286D02*
X70052342Y14191905D01*
X70052342Y14191905D02*
X69861866Y14239524D01*
X69861866Y14239524D02*
X69623771Y14239524D01*
X69623771Y14239524D02*
X69433295Y14191905D01*
X69433295Y14191905D02*
X69338057Y14144286D01*
X69338057Y14144286D02*
X69290438Y14096667D01*
X69290438Y14096667D02*
X69242819Y14001429D01*
X70187880Y37416858D02*
X69711689Y37750191D01*
X70187880Y37988286D02*
X69187880Y37988286D01*
X69187880Y37988286D02*
X69187880Y37607334D01*
X69187880Y37607334D02*
X69235499Y37512096D01*
X69235499Y37512096D02*
X69283118Y37464477D01*
X69283118Y37464477D02*
X69378356Y37416858D01*
X69378356Y37416858D02*
X69521213Y37416858D01*
X69521213Y37416858D02*
X69616451Y37464477D01*
X69616451Y37464477D02*
X69664070Y37512096D01*
X69664070Y37512096D02*
X69711689Y37607334D01*
X69711689Y37607334D02*
X69711689Y37988286D01*
X69283118Y37035905D02*
X69235499Y36988286D01*
X69235499Y36988286D02*
X69187880Y36893048D01*
X69187880Y36893048D02*
X69187880Y36654953D01*
X69187880Y36654953D02*
X69235499Y36559715D01*
X69235499Y36559715D02*
X69283118Y36512096D01*
X69283118Y36512096D02*
X69378356Y36464477D01*
X69378356Y36464477D02*
X69473594Y36464477D01*
X69473594Y36464477D02*
X69616451Y36512096D01*
X69616451Y36512096D02*
X70187880Y37083524D01*
X70187880Y37083524D02*
X70187880Y36464477D01*
X69187880Y36131143D02*
X69187880Y35464477D01*
X69187880Y35464477D02*
X70187880Y35893048D01*
X82562580Y59475583D02*
X82610200Y59523202D01*
X82610200Y59523202D02*
X82657819Y59666059D01*
X82657819Y59666059D02*
X82657819Y59761297D01*
X82657819Y59761297D02*
X82610200Y59904154D01*
X82610200Y59904154D02*
X82514961Y59999392D01*
X82514961Y59999392D02*
X82419723Y60047011D01*
X82419723Y60047011D02*
X82229247Y60094630D01*
X82229247Y60094630D02*
X82086390Y60094630D01*
X82086390Y60094630D02*
X81895914Y60047011D01*
X81895914Y60047011D02*
X81800676Y59999392D01*
X81800676Y59999392D02*
X81705438Y59904154D01*
X81705438Y59904154D02*
X81657819Y59761297D01*
X81657819Y59761297D02*
X81657819Y59666059D01*
X81657819Y59666059D02*
X81705438Y59523202D01*
X81705438Y59523202D02*
X81753057Y59475583D01*
X81991152Y58618440D02*
X82657819Y58618440D01*
X81610200Y58856535D02*
X82324485Y59094630D01*
X82324485Y59094630D02*
X82324485Y58475583D01*
X82657819Y58047011D02*
X82657819Y57856535D01*
X82657819Y57856535D02*
X82610200Y57761297D01*
X82610200Y57761297D02*
X82562580Y57713678D01*
X82562580Y57713678D02*
X82419723Y57618440D01*
X82419723Y57618440D02*
X82229247Y57570821D01*
X82229247Y57570821D02*
X81848295Y57570821D01*
X81848295Y57570821D02*
X81753057Y57618440D01*
X81753057Y57618440D02*
X81705438Y57666059D01*
X81705438Y57666059D02*
X81657819Y57761297D01*
X81657819Y57761297D02*
X81657819Y57951773D01*
X81657819Y57951773D02*
X81705438Y58047011D01*
X81705438Y58047011D02*
X81753057Y58094630D01*
X81753057Y58094630D02*
X81848295Y58142249D01*
X81848295Y58142249D02*
X82086390Y58142249D01*
X82086390Y58142249D02*
X82181628Y58094630D01*
X82181628Y58094630D02*
X82229247Y58047011D01*
X82229247Y58047011D02*
X82276866Y57951773D01*
X82276866Y57951773D02*
X82276866Y57761297D01*
X82276866Y57761297D02*
X82229247Y57666059D01*
X82229247Y57666059D02*
X82181628Y57618440D01*
X82181628Y57618440D02*
X82086390Y57570821D01*
X84170580Y59514858D02*
X84218200Y59562477D01*
X84218200Y59562477D02*
X84265819Y59705334D01*
X84265819Y59705334D02*
X84265819Y59800572D01*
X84265819Y59800572D02*
X84218200Y59943429D01*
X84218200Y59943429D02*
X84122961Y60038667D01*
X84122961Y60038667D02*
X84027723Y60086286D01*
X84027723Y60086286D02*
X83837247Y60133905D01*
X83837247Y60133905D02*
X83694390Y60133905D01*
X83694390Y60133905D02*
X83503914Y60086286D01*
X83503914Y60086286D02*
X83408676Y60038667D01*
X83408676Y60038667D02*
X83313438Y59943429D01*
X83313438Y59943429D02*
X83265819Y59800572D01*
X83265819Y59800572D02*
X83265819Y59705334D01*
X83265819Y59705334D02*
X83313438Y59562477D01*
X83313438Y59562477D02*
X83361057Y59514858D01*
X83265819Y59181524D02*
X83265819Y58514858D01*
X83265819Y58514858D02*
X84265819Y58943429D01*
X83265819Y57943429D02*
X83265819Y57848191D01*
X83265819Y57848191D02*
X83313438Y57752953D01*
X83313438Y57752953D02*
X83361057Y57705334D01*
X83361057Y57705334D02*
X83456295Y57657715D01*
X83456295Y57657715D02*
X83646771Y57610096D01*
X83646771Y57610096D02*
X83884866Y57610096D01*
X83884866Y57610096D02*
X84075342Y57657715D01*
X84075342Y57657715D02*
X84170580Y57705334D01*
X84170580Y57705334D02*
X84218200Y57752953D01*
X84218200Y57752953D02*
X84265819Y57848191D01*
X84265819Y57848191D02*
X84265819Y57943429D01*
X84265819Y57943429D02*
X84218200Y58038667D01*
X84218200Y58038667D02*
X84170580Y58086286D01*
X84170580Y58086286D02*
X84075342Y58133905D01*
X84075342Y58133905D02*
X83884866Y58181524D01*
X83884866Y58181524D02*
X83646771Y58181524D01*
X83646771Y58181524D02*
X83456295Y58133905D01*
X83456295Y58133905D02*
X83361057Y58086286D01*
X83361057Y58086286D02*
X83313438Y58038667D01*
X83313438Y58038667D02*
X83265819Y57943429D01*
X41037580Y59021392D02*
X41085200Y59069011D01*
X41085200Y59069011D02*
X41132819Y59211868D01*
X41132819Y59211868D02*
X41132819Y59307106D01*
X41132819Y59307106D02*
X41085200Y59449963D01*
X41085200Y59449963D02*
X40989961Y59545201D01*
X40989961Y59545201D02*
X40894723Y59592820D01*
X40894723Y59592820D02*
X40704247Y59640439D01*
X40704247Y59640439D02*
X40561390Y59640439D01*
X40561390Y59640439D02*
X40370914Y59592820D01*
X40370914Y59592820D02*
X40275676Y59545201D01*
X40275676Y59545201D02*
X40180438Y59449963D01*
X40180438Y59449963D02*
X40132819Y59307106D01*
X40132819Y59307106D02*
X40132819Y59211868D01*
X40132819Y59211868D02*
X40180438Y59069011D01*
X40180438Y59069011D02*
X40228057Y59021392D01*
X40132819Y58116630D02*
X40132819Y58592820D01*
X40132819Y58592820D02*
X40609009Y58640439D01*
X40609009Y58640439D02*
X40561390Y58592820D01*
X40561390Y58592820D02*
X40513771Y58497582D01*
X40513771Y58497582D02*
X40513771Y58259487D01*
X40513771Y58259487D02*
X40561390Y58164249D01*
X40561390Y58164249D02*
X40609009Y58116630D01*
X40609009Y58116630D02*
X40704247Y58069011D01*
X40704247Y58069011D02*
X40942342Y58069011D01*
X40942342Y58069011D02*
X41037580Y58116630D01*
X41037580Y58116630D02*
X41085200Y58164249D01*
X41085200Y58164249D02*
X41132819Y58259487D01*
X41132819Y58259487D02*
X41132819Y58497582D01*
X41132819Y58497582D02*
X41085200Y58592820D01*
X41085200Y58592820D02*
X41037580Y58640439D01*
X42437580Y59475583D02*
X42485200Y59523202D01*
X42485200Y59523202D02*
X42532819Y59666059D01*
X42532819Y59666059D02*
X42532819Y59761297D01*
X42532819Y59761297D02*
X42485200Y59904154D01*
X42485200Y59904154D02*
X42389961Y59999392D01*
X42389961Y59999392D02*
X42294723Y60047011D01*
X42294723Y60047011D02*
X42104247Y60094630D01*
X42104247Y60094630D02*
X41961390Y60094630D01*
X41961390Y60094630D02*
X41770914Y60047011D01*
X41770914Y60047011D02*
X41675676Y59999392D01*
X41675676Y59999392D02*
X41580438Y59904154D01*
X41580438Y59904154D02*
X41532819Y59761297D01*
X41532819Y59761297D02*
X41532819Y59666059D01*
X41532819Y59666059D02*
X41580438Y59523202D01*
X41580438Y59523202D02*
X41628057Y59475583D01*
X42532819Y58523202D02*
X42532819Y59094630D01*
X42532819Y58808916D02*
X41532819Y58808916D01*
X41532819Y58808916D02*
X41675676Y58904154D01*
X41675676Y58904154D02*
X41770914Y58999392D01*
X41770914Y58999392D02*
X41818533Y59094630D01*
X41532819Y58189868D02*
X41532819Y57523202D01*
X41532819Y57523202D02*
X42532819Y57951773D01*
X81162580Y59497583D02*
X81210200Y59545202D01*
X81210200Y59545202D02*
X81257819Y59688059D01*
X81257819Y59688059D02*
X81257819Y59783297D01*
X81257819Y59783297D02*
X81210200Y59926154D01*
X81210200Y59926154D02*
X81114961Y60021392D01*
X81114961Y60021392D02*
X81019723Y60069011D01*
X81019723Y60069011D02*
X80829247Y60116630D01*
X80829247Y60116630D02*
X80686390Y60116630D01*
X80686390Y60116630D02*
X80495914Y60069011D01*
X80495914Y60069011D02*
X80400676Y60021392D01*
X80400676Y60021392D02*
X80305438Y59926154D01*
X80305438Y59926154D02*
X80257819Y59783297D01*
X80257819Y59783297D02*
X80257819Y59688059D01*
X80257819Y59688059D02*
X80305438Y59545202D01*
X80305438Y59545202D02*
X80353057Y59497583D01*
X80591152Y58640440D02*
X81257819Y58640440D01*
X80210200Y58878535D02*
X80924485Y59116630D01*
X80924485Y59116630D02*
X80924485Y58497583D01*
X80257819Y57640440D02*
X80257819Y58116630D01*
X80257819Y58116630D02*
X80734009Y58164249D01*
X80734009Y58164249D02*
X80686390Y58116630D01*
X80686390Y58116630D02*
X80638771Y58021392D01*
X80638771Y58021392D02*
X80638771Y57783297D01*
X80638771Y57783297D02*
X80686390Y57688059D01*
X80686390Y57688059D02*
X80734009Y57640440D01*
X80734009Y57640440D02*
X80829247Y57592821D01*
X80829247Y57592821D02*
X81067342Y57592821D01*
X81067342Y57592821D02*
X81162580Y57640440D01*
X81162580Y57640440D02*
X81210200Y57688059D01*
X81210200Y57688059D02*
X81257819Y57783297D01*
X81257819Y57783297D02*
X81257819Y58021392D01*
X81257819Y58021392D02*
X81210200Y58116630D01*
X81210200Y58116630D02*
X81162580Y58164249D01*
X64108080Y59514858D02*
X64155700Y59562477D01*
X64155700Y59562477D02*
X64203319Y59705334D01*
X64203319Y59705334D02*
X64203319Y59800572D01*
X64203319Y59800572D02*
X64155700Y59943429D01*
X64155700Y59943429D02*
X64060461Y60038667D01*
X64060461Y60038667D02*
X63965223Y60086286D01*
X63965223Y60086286D02*
X63774747Y60133905D01*
X63774747Y60133905D02*
X63631890Y60133905D01*
X63631890Y60133905D02*
X63441414Y60086286D01*
X63441414Y60086286D02*
X63346176Y60038667D01*
X63346176Y60038667D02*
X63250938Y59943429D01*
X63250938Y59943429D02*
X63203319Y59800572D01*
X63203319Y59800572D02*
X63203319Y59705334D01*
X63203319Y59705334D02*
X63250938Y59562477D01*
X63250938Y59562477D02*
X63298557Y59514858D01*
X63203319Y58657715D02*
X63203319Y58848191D01*
X63203319Y58848191D02*
X63250938Y58943429D01*
X63250938Y58943429D02*
X63298557Y58991048D01*
X63298557Y58991048D02*
X63441414Y59086286D01*
X63441414Y59086286D02*
X63631890Y59133905D01*
X63631890Y59133905D02*
X64012842Y59133905D01*
X64012842Y59133905D02*
X64108080Y59086286D01*
X64108080Y59086286D02*
X64155700Y59038667D01*
X64155700Y59038667D02*
X64203319Y58943429D01*
X64203319Y58943429D02*
X64203319Y58752953D01*
X64203319Y58752953D02*
X64155700Y58657715D01*
X64155700Y58657715D02*
X64108080Y58610096D01*
X64108080Y58610096D02*
X64012842Y58562477D01*
X64012842Y58562477D02*
X63774747Y58562477D01*
X63774747Y58562477D02*
X63679509Y58610096D01*
X63679509Y58610096D02*
X63631890Y58657715D01*
X63631890Y58657715D02*
X63584271Y58752953D01*
X63584271Y58752953D02*
X63584271Y58943429D01*
X63584271Y58943429D02*
X63631890Y59038667D01*
X63631890Y59038667D02*
X63679509Y59086286D01*
X63679509Y59086286D02*
X63774747Y59133905D01*
X63203319Y57657715D02*
X63203319Y58133905D01*
X63203319Y58133905D02*
X63679509Y58181524D01*
X63679509Y58181524D02*
X63631890Y58133905D01*
X63631890Y58133905D02*
X63584271Y58038667D01*
X63584271Y58038667D02*
X63584271Y57800572D01*
X63584271Y57800572D02*
X63631890Y57705334D01*
X63631890Y57705334D02*
X63679509Y57657715D01*
X63679509Y57657715D02*
X63774747Y57610096D01*
X63774747Y57610096D02*
X64012842Y57610096D01*
X64012842Y57610096D02*
X64108080Y57657715D01*
X64108080Y57657715D02*
X64155700Y57705334D01*
X64155700Y57705334D02*
X64203319Y57800572D01*
X64203319Y57800572D02*
X64203319Y58038667D01*
X64203319Y58038667D02*
X64155700Y58133905D01*
X64155700Y58133905D02*
X64108080Y58181524D01*
X61100080Y59497583D02*
X61147700Y59545202D01*
X61147700Y59545202D02*
X61195319Y59688059D01*
X61195319Y59688059D02*
X61195319Y59783297D01*
X61195319Y59783297D02*
X61147700Y59926154D01*
X61147700Y59926154D02*
X61052461Y60021392D01*
X61052461Y60021392D02*
X60957223Y60069011D01*
X60957223Y60069011D02*
X60766747Y60116630D01*
X60766747Y60116630D02*
X60623890Y60116630D01*
X60623890Y60116630D02*
X60433414Y60069011D01*
X60433414Y60069011D02*
X60338176Y60021392D01*
X60338176Y60021392D02*
X60242938Y59926154D01*
X60242938Y59926154D02*
X60195319Y59783297D01*
X60195319Y59783297D02*
X60195319Y59688059D01*
X60195319Y59688059D02*
X60242938Y59545202D01*
X60242938Y59545202D02*
X60290557Y59497583D01*
X60290557Y59116630D02*
X60242938Y59069011D01*
X60242938Y59069011D02*
X60195319Y58973773D01*
X60195319Y58973773D02*
X60195319Y58735678D01*
X60195319Y58735678D02*
X60242938Y58640440D01*
X60242938Y58640440D02*
X60290557Y58592821D01*
X60290557Y58592821D02*
X60385795Y58545202D01*
X60385795Y58545202D02*
X60481033Y58545202D01*
X60481033Y58545202D02*
X60623890Y58592821D01*
X60623890Y58592821D02*
X61195319Y59164249D01*
X61195319Y59164249D02*
X61195319Y58545202D01*
X61195319Y58069011D02*
X61195319Y57878535D01*
X61195319Y57878535D02*
X61147700Y57783297D01*
X61147700Y57783297D02*
X61100080Y57735678D01*
X61100080Y57735678D02*
X60957223Y57640440D01*
X60957223Y57640440D02*
X60766747Y57592821D01*
X60766747Y57592821D02*
X60385795Y57592821D01*
X60385795Y57592821D02*
X60290557Y57640440D01*
X60290557Y57640440D02*
X60242938Y57688059D01*
X60242938Y57688059D02*
X60195319Y57783297D01*
X60195319Y57783297D02*
X60195319Y57973773D01*
X60195319Y57973773D02*
X60242938Y58069011D01*
X60242938Y58069011D02*
X60290557Y58116630D01*
X60290557Y58116630D02*
X60385795Y58164249D01*
X60385795Y58164249D02*
X60623890Y58164249D01*
X60623890Y58164249D02*
X60719128Y58116630D01*
X60719128Y58116630D02*
X60766747Y58069011D01*
X60766747Y58069011D02*
X60814366Y57973773D01*
X60814366Y57973773D02*
X60814366Y57783297D01*
X60814366Y57783297D02*
X60766747Y57688059D01*
X60766747Y57688059D02*
X60719128Y57640440D01*
X60719128Y57640440D02*
X60623890Y57592821D01*
X62500080Y59475583D02*
X62547700Y59523202D01*
X62547700Y59523202D02*
X62595319Y59666059D01*
X62595319Y59666059D02*
X62595319Y59761297D01*
X62595319Y59761297D02*
X62547700Y59904154D01*
X62547700Y59904154D02*
X62452461Y59999392D01*
X62452461Y59999392D02*
X62357223Y60047011D01*
X62357223Y60047011D02*
X62166747Y60094630D01*
X62166747Y60094630D02*
X62023890Y60094630D01*
X62023890Y60094630D02*
X61833414Y60047011D01*
X61833414Y60047011D02*
X61738176Y59999392D01*
X61738176Y59999392D02*
X61642938Y59904154D01*
X61642938Y59904154D02*
X61595319Y59761297D01*
X61595319Y59761297D02*
X61595319Y59666059D01*
X61595319Y59666059D02*
X61642938Y59523202D01*
X61642938Y59523202D02*
X61690557Y59475583D01*
X61595319Y59142249D02*
X61595319Y58523202D01*
X61595319Y58523202D02*
X61976271Y58856535D01*
X61976271Y58856535D02*
X61976271Y58713678D01*
X61976271Y58713678D02*
X62023890Y58618440D01*
X62023890Y58618440D02*
X62071509Y58570821D01*
X62071509Y58570821D02*
X62166747Y58523202D01*
X62166747Y58523202D02*
X62404842Y58523202D01*
X62404842Y58523202D02*
X62500080Y58570821D01*
X62500080Y58570821D02*
X62547700Y58618440D01*
X62547700Y58618440D02*
X62595319Y58713678D01*
X62595319Y58713678D02*
X62595319Y58999392D01*
X62595319Y58999392D02*
X62547700Y59094630D01*
X62547700Y59094630D02*
X62500080Y59142249D01*
X61595319Y58189868D02*
X61595319Y57570821D01*
X61595319Y57570821D02*
X61976271Y57904154D01*
X61976271Y57904154D02*
X61976271Y57761297D01*
X61976271Y57761297D02*
X62023890Y57666059D01*
X62023890Y57666059D02*
X62071509Y57618440D01*
X62071509Y57618440D02*
X62166747Y57570821D01*
X62166747Y57570821D02*
X62404842Y57570821D01*
X62404842Y57570821D02*
X62500080Y57618440D01*
X62500080Y57618440D02*
X62547700Y57666059D01*
X62547700Y57666059D02*
X62595319Y57761297D01*
X62595319Y57761297D02*
X62595319Y58047011D01*
X62595319Y58047011D02*
X62547700Y58142249D01*
X62547700Y58142249D02*
X62500080Y58189868D01*
X62500080Y37475599D02*
X62547700Y37523218D01*
X62547700Y37523218D02*
X62595319Y37666075D01*
X62595319Y37666075D02*
X62595319Y37761313D01*
X62595319Y37761313D02*
X62547700Y37904170D01*
X62547700Y37904170D02*
X62452461Y37999408D01*
X62452461Y37999408D02*
X62357223Y38047027D01*
X62357223Y38047027D02*
X62166747Y38094646D01*
X62166747Y38094646D02*
X62023890Y38094646D01*
X62023890Y38094646D02*
X61833414Y38047027D01*
X61833414Y38047027D02*
X61738176Y37999408D01*
X61738176Y37999408D02*
X61642938Y37904170D01*
X61642938Y37904170D02*
X61595319Y37761313D01*
X61595319Y37761313D02*
X61595319Y37666075D01*
X61595319Y37666075D02*
X61642938Y37523218D01*
X61642938Y37523218D02*
X61690557Y37475599D01*
X61595319Y37142265D02*
X61595319Y36523218D01*
X61595319Y36523218D02*
X61976271Y36856551D01*
X61976271Y36856551D02*
X61976271Y36713694D01*
X61976271Y36713694D02*
X62023890Y36618456D01*
X62023890Y36618456D02*
X62071509Y36570837D01*
X62071509Y36570837D02*
X62166747Y36523218D01*
X62166747Y36523218D02*
X62404842Y36523218D01*
X62404842Y36523218D02*
X62500080Y36570837D01*
X62500080Y36570837D02*
X62547700Y36618456D01*
X62547700Y36618456D02*
X62595319Y36713694D01*
X62595319Y36713694D02*
X62595319Y36999408D01*
X62595319Y36999408D02*
X62547700Y37094646D01*
X62547700Y37094646D02*
X62500080Y37142265D01*
X61928652Y35666075D02*
X62595319Y35666075D01*
X61547700Y35904170D02*
X62261985Y36142265D01*
X62261985Y36142265D02*
X62261985Y35523218D01*
X61100080Y37497599D02*
X61147700Y37545218D01*
X61147700Y37545218D02*
X61195319Y37688075D01*
X61195319Y37688075D02*
X61195319Y37783313D01*
X61195319Y37783313D02*
X61147700Y37926170D01*
X61147700Y37926170D02*
X61052461Y38021408D01*
X61052461Y38021408D02*
X60957223Y38069027D01*
X60957223Y38069027D02*
X60766747Y38116646D01*
X60766747Y38116646D02*
X60623890Y38116646D01*
X60623890Y38116646D02*
X60433414Y38069027D01*
X60433414Y38069027D02*
X60338176Y38021408D01*
X60338176Y38021408D02*
X60242938Y37926170D01*
X60242938Y37926170D02*
X60195319Y37783313D01*
X60195319Y37783313D02*
X60195319Y37688075D01*
X60195319Y37688075D02*
X60242938Y37545218D01*
X60242938Y37545218D02*
X60290557Y37497599D01*
X60195319Y37164265D02*
X60195319Y36545218D01*
X60195319Y36545218D02*
X60576271Y36878551D01*
X60576271Y36878551D02*
X60576271Y36735694D01*
X60576271Y36735694D02*
X60623890Y36640456D01*
X60623890Y36640456D02*
X60671509Y36592837D01*
X60671509Y36592837D02*
X60766747Y36545218D01*
X60766747Y36545218D02*
X61004842Y36545218D01*
X61004842Y36545218D02*
X61100080Y36592837D01*
X61100080Y36592837D02*
X61147700Y36640456D01*
X61147700Y36640456D02*
X61195319Y36735694D01*
X61195319Y36735694D02*
X61195319Y37021408D01*
X61195319Y37021408D02*
X61147700Y37116646D01*
X61147700Y37116646D02*
X61100080Y37164265D01*
X60195319Y35926170D02*
X60195319Y35830932D01*
X60195319Y35830932D02*
X60242938Y35735694D01*
X60242938Y35735694D02*
X60290557Y35688075D01*
X60290557Y35688075D02*
X60385795Y35640456D01*
X60385795Y35640456D02*
X60576271Y35592837D01*
X60576271Y35592837D02*
X60814366Y35592837D01*
X60814366Y35592837D02*
X61004842Y35640456D01*
X61004842Y35640456D02*
X61100080Y35688075D01*
X61100080Y35688075D02*
X61147700Y35735694D01*
X61147700Y35735694D02*
X61195319Y35830932D01*
X61195319Y35830932D02*
X61195319Y35926170D01*
X61195319Y35926170D02*
X61147700Y36021408D01*
X61147700Y36021408D02*
X61100080Y36069027D01*
X61100080Y36069027D02*
X61004842Y36116646D01*
X61004842Y36116646D02*
X60814366Y36164265D01*
X60814366Y36164265D02*
X60576271Y36164265D01*
X60576271Y36164265D02*
X60385795Y36116646D01*
X60385795Y36116646D02*
X60290557Y36069027D01*
X60290557Y36069027D02*
X60242938Y36021408D01*
X60242938Y36021408D02*
X60195319Y35926170D01*
X81162580Y37497599D02*
X81210200Y37545218D01*
X81210200Y37545218D02*
X81257819Y37688075D01*
X81257819Y37688075D02*
X81257819Y37783313D01*
X81257819Y37783313D02*
X81210200Y37926170D01*
X81210200Y37926170D02*
X81114961Y38021408D01*
X81114961Y38021408D02*
X81019723Y38069027D01*
X81019723Y38069027D02*
X80829247Y38116646D01*
X80829247Y38116646D02*
X80686390Y38116646D01*
X80686390Y38116646D02*
X80495914Y38069027D01*
X80495914Y38069027D02*
X80400676Y38021408D01*
X80400676Y38021408D02*
X80305438Y37926170D01*
X80305438Y37926170D02*
X80257819Y37783313D01*
X80257819Y37783313D02*
X80257819Y37688075D01*
X80257819Y37688075D02*
X80305438Y37545218D01*
X80305438Y37545218D02*
X80353057Y37497599D01*
X80591152Y36640456D02*
X81257819Y36640456D01*
X80210200Y36878551D02*
X80924485Y37116646D01*
X80924485Y37116646D02*
X80924485Y36497599D01*
X80257819Y35688075D02*
X80257819Y35878551D01*
X80257819Y35878551D02*
X80305438Y35973789D01*
X80305438Y35973789D02*
X80353057Y36021408D01*
X80353057Y36021408D02*
X80495914Y36116646D01*
X80495914Y36116646D02*
X80686390Y36164265D01*
X80686390Y36164265D02*
X81067342Y36164265D01*
X81067342Y36164265D02*
X81162580Y36116646D01*
X81162580Y36116646D02*
X81210200Y36069027D01*
X81210200Y36069027D02*
X81257819Y35973789D01*
X81257819Y35973789D02*
X81257819Y35783313D01*
X81257819Y35783313D02*
X81210200Y35688075D01*
X81210200Y35688075D02*
X81162580Y35640456D01*
X81162580Y35640456D02*
X81067342Y35592837D01*
X81067342Y35592837D02*
X80829247Y35592837D01*
X80829247Y35592837D02*
X80734009Y35640456D01*
X80734009Y35640456D02*
X80686390Y35688075D01*
X80686390Y35688075D02*
X80638771Y35783313D01*
X80638771Y35783313D02*
X80638771Y35973789D01*
X80638771Y35973789D02*
X80686390Y36069027D01*
X80686390Y36069027D02*
X80734009Y36116646D01*
X80734009Y36116646D02*
X80829247Y36164265D01*
X64111580Y37416858D02*
X64159200Y37464477D01*
X64159200Y37464477D02*
X64206819Y37607334D01*
X64206819Y37607334D02*
X64206819Y37702572D01*
X64206819Y37702572D02*
X64159200Y37845429D01*
X64159200Y37845429D02*
X64063961Y37940667D01*
X64063961Y37940667D02*
X63968723Y37988286D01*
X63968723Y37988286D02*
X63778247Y38035905D01*
X63778247Y38035905D02*
X63635390Y38035905D01*
X63635390Y38035905D02*
X63444914Y37988286D01*
X63444914Y37988286D02*
X63349676Y37940667D01*
X63349676Y37940667D02*
X63254438Y37845429D01*
X63254438Y37845429D02*
X63206819Y37702572D01*
X63206819Y37702572D02*
X63206819Y37607334D01*
X63206819Y37607334D02*
X63254438Y37464477D01*
X63254438Y37464477D02*
X63302057Y37416858D01*
X63206819Y36559715D02*
X63206819Y36750191D01*
X63206819Y36750191D02*
X63254438Y36845429D01*
X63254438Y36845429D02*
X63302057Y36893048D01*
X63302057Y36893048D02*
X63444914Y36988286D01*
X63444914Y36988286D02*
X63635390Y37035905D01*
X63635390Y37035905D02*
X64016342Y37035905D01*
X64016342Y37035905D02*
X64111580Y36988286D01*
X64111580Y36988286D02*
X64159200Y36940667D01*
X64159200Y36940667D02*
X64206819Y36845429D01*
X64206819Y36845429D02*
X64206819Y36654953D01*
X64206819Y36654953D02*
X64159200Y36559715D01*
X64159200Y36559715D02*
X64111580Y36512096D01*
X64111580Y36512096D02*
X64016342Y36464477D01*
X64016342Y36464477D02*
X63778247Y36464477D01*
X63778247Y36464477D02*
X63683009Y36512096D01*
X63683009Y36512096D02*
X63635390Y36559715D01*
X63635390Y36559715D02*
X63587771Y36654953D01*
X63587771Y36654953D02*
X63587771Y36845429D01*
X63587771Y36845429D02*
X63635390Y36940667D01*
X63635390Y36940667D02*
X63683009Y36988286D01*
X63683009Y36988286D02*
X63778247Y37035905D01*
X63206819Y35607334D02*
X63206819Y35797810D01*
X63206819Y35797810D02*
X63254438Y35893048D01*
X63254438Y35893048D02*
X63302057Y35940667D01*
X63302057Y35940667D02*
X63444914Y36035905D01*
X63444914Y36035905D02*
X63635390Y36083524D01*
X63635390Y36083524D02*
X64016342Y36083524D01*
X64016342Y36083524D02*
X64111580Y36035905D01*
X64111580Y36035905D02*
X64159200Y35988286D01*
X64159200Y35988286D02*
X64206819Y35893048D01*
X64206819Y35893048D02*
X64206819Y35702572D01*
X64206819Y35702572D02*
X64159200Y35607334D01*
X64159200Y35607334D02*
X64111580Y35559715D01*
X64111580Y35559715D02*
X64016342Y35512096D01*
X64016342Y35512096D02*
X63778247Y35512096D01*
X63778247Y35512096D02*
X63683009Y35559715D01*
X63683009Y35559715D02*
X63635390Y35607334D01*
X63635390Y35607334D02*
X63587771Y35702572D01*
X63587771Y35702572D02*
X63587771Y35893048D01*
X63587771Y35893048D02*
X63635390Y35988286D01*
X63635390Y35988286D02*
X63683009Y36035905D01*
X63683009Y36035905D02*
X63778247Y36083524D01*
X42437580Y37475599D02*
X42485200Y37523218D01*
X42485200Y37523218D02*
X42532819Y37666075D01*
X42532819Y37666075D02*
X42532819Y37761313D01*
X42532819Y37761313D02*
X42485200Y37904170D01*
X42485200Y37904170D02*
X42389961Y37999408D01*
X42389961Y37999408D02*
X42294723Y38047027D01*
X42294723Y38047027D02*
X42104247Y38094646D01*
X42104247Y38094646D02*
X41961390Y38094646D01*
X41961390Y38094646D02*
X41770914Y38047027D01*
X41770914Y38047027D02*
X41675676Y37999408D01*
X41675676Y37999408D02*
X41580438Y37904170D01*
X41580438Y37904170D02*
X41532819Y37761313D01*
X41532819Y37761313D02*
X41532819Y37666075D01*
X41532819Y37666075D02*
X41580438Y37523218D01*
X41580438Y37523218D02*
X41628057Y37475599D01*
X41628057Y37094646D02*
X41580438Y37047027D01*
X41580438Y37047027D02*
X41532819Y36951789D01*
X41532819Y36951789D02*
X41532819Y36713694D01*
X41532819Y36713694D02*
X41580438Y36618456D01*
X41580438Y36618456D02*
X41628057Y36570837D01*
X41628057Y36570837D02*
X41723295Y36523218D01*
X41723295Y36523218D02*
X41818533Y36523218D01*
X41818533Y36523218D02*
X41961390Y36570837D01*
X41961390Y36570837D02*
X42532819Y37142265D01*
X42532819Y37142265D02*
X42532819Y36523218D01*
X41628057Y36142265D02*
X41580438Y36094646D01*
X41580438Y36094646D02*
X41532819Y35999408D01*
X41532819Y35999408D02*
X41532819Y35761313D01*
X41532819Y35761313D02*
X41580438Y35666075D01*
X41580438Y35666075D02*
X41628057Y35618456D01*
X41628057Y35618456D02*
X41723295Y35570837D01*
X41723295Y35570837D02*
X41818533Y35570837D01*
X41818533Y35570837D02*
X41961390Y35618456D01*
X41961390Y35618456D02*
X42532819Y36189884D01*
X42532819Y36189884D02*
X42532819Y35570837D01*
X43846519Y37416858D02*
X43894139Y37464477D01*
X43894139Y37464477D02*
X43941758Y37607334D01*
X43941758Y37607334D02*
X43941758Y37702572D01*
X43941758Y37702572D02*
X43894139Y37845429D01*
X43894139Y37845429D02*
X43798900Y37940667D01*
X43798900Y37940667D02*
X43703662Y37988286D01*
X43703662Y37988286D02*
X43513186Y38035905D01*
X43513186Y38035905D02*
X43370329Y38035905D01*
X43370329Y38035905D02*
X43179853Y37988286D01*
X43179853Y37988286D02*
X43084615Y37940667D01*
X43084615Y37940667D02*
X42989377Y37845429D01*
X42989377Y37845429D02*
X42941758Y37702572D01*
X42941758Y37702572D02*
X42941758Y37607334D01*
X42941758Y37607334D02*
X42989377Y37464477D01*
X42989377Y37464477D02*
X43036996Y37416858D01*
X42941758Y36559715D02*
X42941758Y36750191D01*
X42941758Y36750191D02*
X42989377Y36845429D01*
X42989377Y36845429D02*
X43036996Y36893048D01*
X43036996Y36893048D02*
X43179853Y36988286D01*
X43179853Y36988286D02*
X43370329Y37035905D01*
X43370329Y37035905D02*
X43751281Y37035905D01*
X43751281Y37035905D02*
X43846519Y36988286D01*
X43846519Y36988286D02*
X43894139Y36940667D01*
X43894139Y36940667D02*
X43941758Y36845429D01*
X43941758Y36845429D02*
X43941758Y36654953D01*
X43941758Y36654953D02*
X43894139Y36559715D01*
X43894139Y36559715D02*
X43846519Y36512096D01*
X43846519Y36512096D02*
X43751281Y36464477D01*
X43751281Y36464477D02*
X43513186Y36464477D01*
X43513186Y36464477D02*
X43417948Y36512096D01*
X43417948Y36512096D02*
X43370329Y36559715D01*
X43370329Y36559715D02*
X43322710Y36654953D01*
X43322710Y36654953D02*
X43322710Y36845429D01*
X43322710Y36845429D02*
X43370329Y36940667D01*
X43370329Y36940667D02*
X43417948Y36988286D01*
X43417948Y36988286D02*
X43513186Y37035905D01*
X43036996Y36083524D02*
X42989377Y36035905D01*
X42989377Y36035905D02*
X42941758Y35940667D01*
X42941758Y35940667D02*
X42941758Y35702572D01*
X42941758Y35702572D02*
X42989377Y35607334D01*
X42989377Y35607334D02*
X43036996Y35559715D01*
X43036996Y35559715D02*
X43132234Y35512096D01*
X43132234Y35512096D02*
X43227472Y35512096D01*
X43227472Y35512096D02*
X43370329Y35559715D01*
X43370329Y35559715D02*
X43941758Y36131143D01*
X43941758Y36131143D02*
X43941758Y35512096D01*
X82562580Y37475599D02*
X82610200Y37523218D01*
X82610200Y37523218D02*
X82657819Y37666075D01*
X82657819Y37666075D02*
X82657819Y37761313D01*
X82657819Y37761313D02*
X82610200Y37904170D01*
X82610200Y37904170D02*
X82514961Y37999408D01*
X82514961Y37999408D02*
X82419723Y38047027D01*
X82419723Y38047027D02*
X82229247Y38094646D01*
X82229247Y38094646D02*
X82086390Y38094646D01*
X82086390Y38094646D02*
X81895914Y38047027D01*
X81895914Y38047027D02*
X81800676Y37999408D01*
X81800676Y37999408D02*
X81705438Y37904170D01*
X81705438Y37904170D02*
X81657819Y37761313D01*
X81657819Y37761313D02*
X81657819Y37666075D01*
X81657819Y37666075D02*
X81705438Y37523218D01*
X81705438Y37523218D02*
X81753057Y37475599D01*
X81657819Y36570837D02*
X81657819Y37047027D01*
X81657819Y37047027D02*
X82134009Y37094646D01*
X82134009Y37094646D02*
X82086390Y37047027D01*
X82086390Y37047027D02*
X82038771Y36951789D01*
X82038771Y36951789D02*
X82038771Y36713694D01*
X82038771Y36713694D02*
X82086390Y36618456D01*
X82086390Y36618456D02*
X82134009Y36570837D01*
X82134009Y36570837D02*
X82229247Y36523218D01*
X82229247Y36523218D02*
X82467342Y36523218D01*
X82467342Y36523218D02*
X82562580Y36570837D01*
X82562580Y36570837D02*
X82610200Y36618456D01*
X82610200Y36618456D02*
X82657819Y36713694D01*
X82657819Y36713694D02*
X82657819Y36951789D01*
X82657819Y36951789D02*
X82610200Y37047027D01*
X82610200Y37047027D02*
X82562580Y37094646D01*
X81657819Y35904170D02*
X81657819Y35808932D01*
X81657819Y35808932D02*
X81705438Y35713694D01*
X81705438Y35713694D02*
X81753057Y35666075D01*
X81753057Y35666075D02*
X81848295Y35618456D01*
X81848295Y35618456D02*
X82038771Y35570837D01*
X82038771Y35570837D02*
X82276866Y35570837D01*
X82276866Y35570837D02*
X82467342Y35618456D01*
X82467342Y35618456D02*
X82562580Y35666075D01*
X82562580Y35666075D02*
X82610200Y35713694D01*
X82610200Y35713694D02*
X82657819Y35808932D01*
X82657819Y35808932D02*
X82657819Y35904170D01*
X82657819Y35904170D02*
X82610200Y35999408D01*
X82610200Y35999408D02*
X82562580Y36047027D01*
X82562580Y36047027D02*
X82467342Y36094646D01*
X82467342Y36094646D02*
X82276866Y36142265D01*
X82276866Y36142265D02*
X82038771Y36142265D01*
X82038771Y36142265D02*
X81848295Y36094646D01*
X81848295Y36094646D02*
X81753057Y36047027D01*
X81753057Y36047027D02*
X81705438Y35999408D01*
X81705438Y35999408D02*
X81657819Y35904170D01*
X84174080Y37416858D02*
X84221700Y37464477D01*
X84221700Y37464477D02*
X84269319Y37607334D01*
X84269319Y37607334D02*
X84269319Y37702572D01*
X84269319Y37702572D02*
X84221700Y37845429D01*
X84221700Y37845429D02*
X84126461Y37940667D01*
X84126461Y37940667D02*
X84031223Y37988286D01*
X84031223Y37988286D02*
X83840747Y38035905D01*
X83840747Y38035905D02*
X83697890Y38035905D01*
X83697890Y38035905D02*
X83507414Y37988286D01*
X83507414Y37988286D02*
X83412176Y37940667D01*
X83412176Y37940667D02*
X83316938Y37845429D01*
X83316938Y37845429D02*
X83269319Y37702572D01*
X83269319Y37702572D02*
X83269319Y37607334D01*
X83269319Y37607334D02*
X83316938Y37464477D01*
X83316938Y37464477D02*
X83364557Y37416858D01*
X83269319Y36559715D02*
X83269319Y36750191D01*
X83269319Y36750191D02*
X83316938Y36845429D01*
X83316938Y36845429D02*
X83364557Y36893048D01*
X83364557Y36893048D02*
X83507414Y36988286D01*
X83507414Y36988286D02*
X83697890Y37035905D01*
X83697890Y37035905D02*
X84078842Y37035905D01*
X84078842Y37035905D02*
X84174080Y36988286D01*
X84174080Y36988286D02*
X84221700Y36940667D01*
X84221700Y36940667D02*
X84269319Y36845429D01*
X84269319Y36845429D02*
X84269319Y36654953D01*
X84269319Y36654953D02*
X84221700Y36559715D01*
X84221700Y36559715D02*
X84174080Y36512096D01*
X84174080Y36512096D02*
X84078842Y36464477D01*
X84078842Y36464477D02*
X83840747Y36464477D01*
X83840747Y36464477D02*
X83745509Y36512096D01*
X83745509Y36512096D02*
X83697890Y36559715D01*
X83697890Y36559715D02*
X83650271Y36654953D01*
X83650271Y36654953D02*
X83650271Y36845429D01*
X83650271Y36845429D02*
X83697890Y36940667D01*
X83697890Y36940667D02*
X83745509Y36988286D01*
X83745509Y36988286D02*
X83840747Y37035905D01*
X84269319Y35988286D02*
X84269319Y35797810D01*
X84269319Y35797810D02*
X84221700Y35702572D01*
X84221700Y35702572D02*
X84174080Y35654953D01*
X84174080Y35654953D02*
X84031223Y35559715D01*
X84031223Y35559715D02*
X83840747Y35512096D01*
X83840747Y35512096D02*
X83459795Y35512096D01*
X83459795Y35512096D02*
X83364557Y35559715D01*
X83364557Y35559715D02*
X83316938Y35607334D01*
X83316938Y35607334D02*
X83269319Y35702572D01*
X83269319Y35702572D02*
X83269319Y35893048D01*
X83269319Y35893048D02*
X83316938Y35988286D01*
X83316938Y35988286D02*
X83364557Y36035905D01*
X83364557Y36035905D02*
X83459795Y36083524D01*
X83459795Y36083524D02*
X83697890Y36083524D01*
X83697890Y36083524D02*
X83793128Y36035905D01*
X83793128Y36035905D02*
X83840747Y35988286D01*
X83840747Y35988286D02*
X83888366Y35893048D01*
X83888366Y35893048D02*
X83888366Y35702572D01*
X83888366Y35702572D02*
X83840747Y35607334D01*
X83840747Y35607334D02*
X83793128Y35559715D01*
X83793128Y35559715D02*
X83697890Y35512096D01*
X41037580Y37497599D02*
X41085200Y37545218D01*
X41085200Y37545218D02*
X41132819Y37688075D01*
X41132819Y37688075D02*
X41132819Y37783313D01*
X41132819Y37783313D02*
X41085200Y37926170D01*
X41085200Y37926170D02*
X40989961Y38021408D01*
X40989961Y38021408D02*
X40894723Y38069027D01*
X40894723Y38069027D02*
X40704247Y38116646D01*
X40704247Y38116646D02*
X40561390Y38116646D01*
X40561390Y38116646D02*
X40370914Y38069027D01*
X40370914Y38069027D02*
X40275676Y38021408D01*
X40275676Y38021408D02*
X40180438Y37926170D01*
X40180438Y37926170D02*
X40132819Y37783313D01*
X40132819Y37783313D02*
X40132819Y37688075D01*
X40132819Y37688075D02*
X40180438Y37545218D01*
X40180438Y37545218D02*
X40228057Y37497599D01*
X40228057Y37116646D02*
X40180438Y37069027D01*
X40180438Y37069027D02*
X40132819Y36973789D01*
X40132819Y36973789D02*
X40132819Y36735694D01*
X40132819Y36735694D02*
X40180438Y36640456D01*
X40180438Y36640456D02*
X40228057Y36592837D01*
X40228057Y36592837D02*
X40323295Y36545218D01*
X40323295Y36545218D02*
X40418533Y36545218D01*
X40418533Y36545218D02*
X40561390Y36592837D01*
X40561390Y36592837D02*
X41132819Y37164265D01*
X41132819Y37164265D02*
X41132819Y36545218D01*
X40132819Y35926170D02*
X40132819Y35830932D01*
X40132819Y35830932D02*
X40180438Y35735694D01*
X40180438Y35735694D02*
X40228057Y35688075D01*
X40228057Y35688075D02*
X40323295Y35640456D01*
X40323295Y35640456D02*
X40513771Y35592837D01*
X40513771Y35592837D02*
X40751866Y35592837D01*
X40751866Y35592837D02*
X40942342Y35640456D01*
X40942342Y35640456D02*
X41037580Y35688075D01*
X41037580Y35688075D02*
X41085200Y35735694D01*
X41085200Y35735694D02*
X41132819Y35830932D01*
X41132819Y35830932D02*
X41132819Y35926170D01*
X41132819Y35926170D02*
X41085200Y36021408D01*
X41085200Y36021408D02*
X41037580Y36069027D01*
X41037580Y36069027D02*
X40942342Y36116646D01*
X40942342Y36116646D02*
X40751866Y36164265D01*
X40751866Y36164265D02*
X40513771Y36164265D01*
X40513771Y36164265D02*
X40323295Y36116646D01*
X40323295Y36116646D02*
X40228057Y36069027D01*
X40228057Y36069027D02*
X40180438Y36021408D01*
X40180438Y36021408D02*
X40132819Y35926170D01*
X64158246Y15593701D02*
X64205866Y15641320D01*
X64205866Y15641320D02*
X64253485Y15784177D01*
X64253485Y15784177D02*
X64253485Y15879415D01*
X64253485Y15879415D02*
X64205866Y16022272D01*
X64205866Y16022272D02*
X64110627Y16117510D01*
X64110627Y16117510D02*
X64015389Y16165129D01*
X64015389Y16165129D02*
X63824913Y16212748D01*
X63824913Y16212748D02*
X63682056Y16212748D01*
X63682056Y16212748D02*
X63491580Y16165129D01*
X63491580Y16165129D02*
X63396342Y16117510D01*
X63396342Y16117510D02*
X63301104Y16022272D01*
X63301104Y16022272D02*
X63253485Y15879415D01*
X63253485Y15879415D02*
X63253485Y15784177D01*
X63253485Y15784177D02*
X63301104Y15641320D01*
X63301104Y15641320D02*
X63348723Y15593701D01*
X63253485Y14736558D02*
X63253485Y14927034D01*
X63253485Y14927034D02*
X63301104Y15022272D01*
X63301104Y15022272D02*
X63348723Y15069891D01*
X63348723Y15069891D02*
X63491580Y15165129D01*
X63491580Y15165129D02*
X63682056Y15212748D01*
X63682056Y15212748D02*
X64063008Y15212748D01*
X64063008Y15212748D02*
X64158246Y15165129D01*
X64158246Y15165129D02*
X64205866Y15117510D01*
X64205866Y15117510D02*
X64253485Y15022272D01*
X64253485Y15022272D02*
X64253485Y14831796D01*
X64253485Y14831796D02*
X64205866Y14736558D01*
X64205866Y14736558D02*
X64158246Y14688939D01*
X64158246Y14688939D02*
X64063008Y14641320D01*
X64063008Y14641320D02*
X63824913Y14641320D01*
X63824913Y14641320D02*
X63729675Y14688939D01*
X63729675Y14688939D02*
X63682056Y14736558D01*
X63682056Y14736558D02*
X63634437Y14831796D01*
X63634437Y14831796D02*
X63634437Y15022272D01*
X63634437Y15022272D02*
X63682056Y15117510D01*
X63682056Y15117510D02*
X63729675Y15165129D01*
X63729675Y15165129D02*
X63824913Y15212748D01*
X63253485Y14307986D02*
X63253485Y13641320D01*
X63253485Y13641320D02*
X64253485Y14069891D01*
X42429307Y15496458D02*
X42476927Y15544077D01*
X42476927Y15544077D02*
X42524546Y15686934D01*
X42524546Y15686934D02*
X42524546Y15782172D01*
X42524546Y15782172D02*
X42476927Y15925029D01*
X42476927Y15925029D02*
X42381688Y16020267D01*
X42381688Y16020267D02*
X42286450Y16067886D01*
X42286450Y16067886D02*
X42095974Y16115505D01*
X42095974Y16115505D02*
X41953117Y16115505D01*
X41953117Y16115505D02*
X41762641Y16067886D01*
X41762641Y16067886D02*
X41667403Y16020267D01*
X41667403Y16020267D02*
X41572165Y15925029D01*
X41572165Y15925029D02*
X41524546Y15782172D01*
X41524546Y15782172D02*
X41524546Y15686934D01*
X41524546Y15686934D02*
X41572165Y15544077D01*
X41572165Y15544077D02*
X41619784Y15496458D01*
X41619784Y15115505D02*
X41572165Y15067886D01*
X41572165Y15067886D02*
X41524546Y14972648D01*
X41524546Y14972648D02*
X41524546Y14734553D01*
X41524546Y14734553D02*
X41572165Y14639315D01*
X41572165Y14639315D02*
X41619784Y14591696D01*
X41619784Y14591696D02*
X41715022Y14544077D01*
X41715022Y14544077D02*
X41810260Y14544077D01*
X41810260Y14544077D02*
X41953117Y14591696D01*
X41953117Y14591696D02*
X42524546Y15163124D01*
X42524546Y15163124D02*
X42524546Y14544077D01*
X41524546Y13639315D02*
X41524546Y14115505D01*
X41524546Y14115505D02*
X42000736Y14163124D01*
X42000736Y14163124D02*
X41953117Y14115505D01*
X41953117Y14115505D02*
X41905498Y14020267D01*
X41905498Y14020267D02*
X41905498Y13782172D01*
X41905498Y13782172D02*
X41953117Y13686934D01*
X41953117Y13686934D02*
X42000736Y13639315D01*
X42000736Y13639315D02*
X42095974Y13591696D01*
X42095974Y13591696D02*
X42334069Y13591696D01*
X42334069Y13591696D02*
X42429307Y13639315D01*
X42429307Y13639315D02*
X42476927Y13686934D01*
X42476927Y13686934D02*
X42524546Y13782172D01*
X42524546Y13782172D02*
X42524546Y14020267D01*
X42524546Y14020267D02*
X42476927Y14115505D01*
X42476927Y14115505D02*
X42429307Y14163124D01*
X84224246Y15593701D02*
X84271866Y15641320D01*
X84271866Y15641320D02*
X84319485Y15784177D01*
X84319485Y15784177D02*
X84319485Y15879415D01*
X84319485Y15879415D02*
X84271866Y16022272D01*
X84271866Y16022272D02*
X84176627Y16117510D01*
X84176627Y16117510D02*
X84081389Y16165129D01*
X84081389Y16165129D02*
X83890913Y16212748D01*
X83890913Y16212748D02*
X83748056Y16212748D01*
X83748056Y16212748D02*
X83557580Y16165129D01*
X83557580Y16165129D02*
X83462342Y16117510D01*
X83462342Y16117510D02*
X83367104Y16022272D01*
X83367104Y16022272D02*
X83319485Y15879415D01*
X83319485Y15879415D02*
X83319485Y15784177D01*
X83319485Y15784177D02*
X83367104Y15641320D01*
X83367104Y15641320D02*
X83414723Y15593701D01*
X83319485Y14736558D02*
X83319485Y14927034D01*
X83319485Y14927034D02*
X83367104Y15022272D01*
X83367104Y15022272D02*
X83414723Y15069891D01*
X83414723Y15069891D02*
X83557580Y15165129D01*
X83557580Y15165129D02*
X83748056Y15212748D01*
X83748056Y15212748D02*
X84129008Y15212748D01*
X84129008Y15212748D02*
X84224246Y15165129D01*
X84224246Y15165129D02*
X84271866Y15117510D01*
X84271866Y15117510D02*
X84319485Y15022272D01*
X84319485Y15022272D02*
X84319485Y14831796D01*
X84319485Y14831796D02*
X84271866Y14736558D01*
X84271866Y14736558D02*
X84224246Y14688939D01*
X84224246Y14688939D02*
X84129008Y14641320D01*
X84129008Y14641320D02*
X83890913Y14641320D01*
X83890913Y14641320D02*
X83795675Y14688939D01*
X83795675Y14688939D02*
X83748056Y14736558D01*
X83748056Y14736558D02*
X83700437Y14831796D01*
X83700437Y14831796D02*
X83700437Y15022272D01*
X83700437Y15022272D02*
X83748056Y15117510D01*
X83748056Y15117510D02*
X83795675Y15165129D01*
X83795675Y15165129D02*
X83890913Y15212748D01*
X83748056Y14069891D02*
X83700437Y14165129D01*
X83700437Y14165129D02*
X83652818Y14212748D01*
X83652818Y14212748D02*
X83557580Y14260367D01*
X83557580Y14260367D02*
X83509961Y14260367D01*
X83509961Y14260367D02*
X83414723Y14212748D01*
X83414723Y14212748D02*
X83367104Y14165129D01*
X83367104Y14165129D02*
X83319485Y14069891D01*
X83319485Y14069891D02*
X83319485Y13879415D01*
X83319485Y13879415D02*
X83367104Y13784177D01*
X83367104Y13784177D02*
X83414723Y13736558D01*
X83414723Y13736558D02*
X83509961Y13688939D01*
X83509961Y13688939D02*
X83557580Y13688939D01*
X83557580Y13688939D02*
X83652818Y13736558D01*
X83652818Y13736558D02*
X83700437Y13784177D01*
X83700437Y13784177D02*
X83748056Y13879415D01*
X83748056Y13879415D02*
X83748056Y14069891D01*
X83748056Y14069891D02*
X83795675Y14165129D01*
X83795675Y14165129D02*
X83843294Y14212748D01*
X83843294Y14212748D02*
X83938532Y14260367D01*
X83938532Y14260367D02*
X84129008Y14260367D01*
X84129008Y14260367D02*
X84224246Y14212748D01*
X84224246Y14212748D02*
X84271866Y14165129D01*
X84271866Y14165129D02*
X84319485Y14069891D01*
X84319485Y14069891D02*
X84319485Y13879415D01*
X84319485Y13879415D02*
X84271866Y13784177D01*
X84271866Y13784177D02*
X84224246Y13736558D01*
X84224246Y13736558D02*
X84129008Y13688939D01*
X84129008Y13688939D02*
X83938532Y13688939D01*
X83938532Y13688939D02*
X83843294Y13736558D01*
X83843294Y13736558D02*
X83795675Y13784177D01*
X83795675Y13784177D02*
X83748056Y13879415D01*
X81154307Y15518458D02*
X81201927Y15566077D01*
X81201927Y15566077D02*
X81249546Y15708934D01*
X81249546Y15708934D02*
X81249546Y15804172D01*
X81249546Y15804172D02*
X81201927Y15947029D01*
X81201927Y15947029D02*
X81106688Y16042267D01*
X81106688Y16042267D02*
X81011450Y16089886D01*
X81011450Y16089886D02*
X80820974Y16137505D01*
X80820974Y16137505D02*
X80678117Y16137505D01*
X80678117Y16137505D02*
X80487641Y16089886D01*
X80487641Y16089886D02*
X80392403Y16042267D01*
X80392403Y16042267D02*
X80297165Y15947029D01*
X80297165Y15947029D02*
X80249546Y15804172D01*
X80249546Y15804172D02*
X80249546Y15708934D01*
X80249546Y15708934D02*
X80297165Y15566077D01*
X80297165Y15566077D02*
X80344784Y15518458D01*
X80249546Y14613696D02*
X80249546Y15089886D01*
X80249546Y15089886D02*
X80725736Y15137505D01*
X80725736Y15137505D02*
X80678117Y15089886D01*
X80678117Y15089886D02*
X80630498Y14994648D01*
X80630498Y14994648D02*
X80630498Y14756553D01*
X80630498Y14756553D02*
X80678117Y14661315D01*
X80678117Y14661315D02*
X80725736Y14613696D01*
X80725736Y14613696D02*
X80820974Y14566077D01*
X80820974Y14566077D02*
X81059069Y14566077D01*
X81059069Y14566077D02*
X81154307Y14613696D01*
X81154307Y14613696D02*
X81201927Y14661315D01*
X81201927Y14661315D02*
X81249546Y14756553D01*
X81249546Y14756553D02*
X81249546Y14994648D01*
X81249546Y14994648D02*
X81201927Y15089886D01*
X81201927Y15089886D02*
X81154307Y15137505D01*
X81249546Y14089886D02*
X81249546Y13899410D01*
X81249546Y13899410D02*
X81201927Y13804172D01*
X81201927Y13804172D02*
X81154307Y13756553D01*
X81154307Y13756553D02*
X81011450Y13661315D01*
X81011450Y13661315D02*
X80820974Y13613696D01*
X80820974Y13613696D02*
X80440022Y13613696D01*
X80440022Y13613696D02*
X80344784Y13661315D01*
X80344784Y13661315D02*
X80297165Y13708934D01*
X80297165Y13708934D02*
X80249546Y13804172D01*
X80249546Y13804172D02*
X80249546Y13994648D01*
X80249546Y13994648D02*
X80297165Y14089886D01*
X80297165Y14089886D02*
X80344784Y14137505D01*
X80344784Y14137505D02*
X80440022Y14185124D01*
X80440022Y14185124D02*
X80678117Y14185124D01*
X80678117Y14185124D02*
X80773355Y14137505D01*
X80773355Y14137505D02*
X80820974Y14089886D01*
X80820974Y14089886D02*
X80868593Y13994648D01*
X80868593Y13994648D02*
X80868593Y13804172D01*
X80868593Y13804172D02*
X80820974Y13708934D01*
X80820974Y13708934D02*
X80773355Y13661315D01*
X80773355Y13661315D02*
X80678117Y13613696D01*
X62491807Y15496458D02*
X62539427Y15544077D01*
X62539427Y15544077D02*
X62587046Y15686934D01*
X62587046Y15686934D02*
X62587046Y15782172D01*
X62587046Y15782172D02*
X62539427Y15925029D01*
X62539427Y15925029D02*
X62444188Y16020267D01*
X62444188Y16020267D02*
X62348950Y16067886D01*
X62348950Y16067886D02*
X62158474Y16115505D01*
X62158474Y16115505D02*
X62015617Y16115505D01*
X62015617Y16115505D02*
X61825141Y16067886D01*
X61825141Y16067886D02*
X61729903Y16020267D01*
X61729903Y16020267D02*
X61634665Y15925029D01*
X61634665Y15925029D02*
X61587046Y15782172D01*
X61587046Y15782172D02*
X61587046Y15686934D01*
X61587046Y15686934D02*
X61634665Y15544077D01*
X61634665Y15544077D02*
X61682284Y15496458D01*
X61587046Y15163124D02*
X61587046Y14544077D01*
X61587046Y14544077D02*
X61967998Y14877410D01*
X61967998Y14877410D02*
X61967998Y14734553D01*
X61967998Y14734553D02*
X62015617Y14639315D01*
X62015617Y14639315D02*
X62063236Y14591696D01*
X62063236Y14591696D02*
X62158474Y14544077D01*
X62158474Y14544077D02*
X62396569Y14544077D01*
X62396569Y14544077D02*
X62491807Y14591696D01*
X62491807Y14591696D02*
X62539427Y14639315D01*
X62539427Y14639315D02*
X62587046Y14734553D01*
X62587046Y14734553D02*
X62587046Y15020267D01*
X62587046Y15020267D02*
X62539427Y15115505D01*
X62539427Y15115505D02*
X62491807Y15163124D01*
X62587046Y14067886D02*
X62587046Y13877410D01*
X62587046Y13877410D02*
X62539427Y13782172D01*
X62539427Y13782172D02*
X62491807Y13734553D01*
X62491807Y13734553D02*
X62348950Y13639315D01*
X62348950Y13639315D02*
X62158474Y13591696D01*
X62158474Y13591696D02*
X61777522Y13591696D01*
X61777522Y13591696D02*
X61682284Y13639315D01*
X61682284Y13639315D02*
X61634665Y13686934D01*
X61634665Y13686934D02*
X61587046Y13782172D01*
X61587046Y13782172D02*
X61587046Y13972648D01*
X61587046Y13972648D02*
X61634665Y14067886D01*
X61634665Y14067886D02*
X61682284Y14115505D01*
X61682284Y14115505D02*
X61777522Y14163124D01*
X61777522Y14163124D02*
X62015617Y14163124D01*
X62015617Y14163124D02*
X62110855Y14115505D01*
X62110855Y14115505D02*
X62158474Y14067886D01*
X62158474Y14067886D02*
X62206093Y13972648D01*
X62206093Y13972648D02*
X62206093Y13782172D01*
X62206093Y13782172D02*
X62158474Y13686934D01*
X62158474Y13686934D02*
X62110855Y13639315D01*
X62110855Y13639315D02*
X62015617Y13591696D01*
X82554307Y15496458D02*
X82601927Y15544077D01*
X82601927Y15544077D02*
X82649546Y15686934D01*
X82649546Y15686934D02*
X82649546Y15782172D01*
X82649546Y15782172D02*
X82601927Y15925029D01*
X82601927Y15925029D02*
X82506688Y16020267D01*
X82506688Y16020267D02*
X82411450Y16067886D01*
X82411450Y16067886D02*
X82220974Y16115505D01*
X82220974Y16115505D02*
X82078117Y16115505D01*
X82078117Y16115505D02*
X81887641Y16067886D01*
X81887641Y16067886D02*
X81792403Y16020267D01*
X81792403Y16020267D02*
X81697165Y15925029D01*
X81697165Y15925029D02*
X81649546Y15782172D01*
X81649546Y15782172D02*
X81649546Y15686934D01*
X81649546Y15686934D02*
X81697165Y15544077D01*
X81697165Y15544077D02*
X81744784Y15496458D01*
X81649546Y14591696D02*
X81649546Y15067886D01*
X81649546Y15067886D02*
X82125736Y15115505D01*
X82125736Y15115505D02*
X82078117Y15067886D01*
X82078117Y15067886D02*
X82030498Y14972648D01*
X82030498Y14972648D02*
X82030498Y14734553D01*
X82030498Y14734553D02*
X82078117Y14639315D01*
X82078117Y14639315D02*
X82125736Y14591696D01*
X82125736Y14591696D02*
X82220974Y14544077D01*
X82220974Y14544077D02*
X82459069Y14544077D01*
X82459069Y14544077D02*
X82554307Y14591696D01*
X82554307Y14591696D02*
X82601927Y14639315D01*
X82601927Y14639315D02*
X82649546Y14734553D01*
X82649546Y14734553D02*
X82649546Y14972648D01*
X82649546Y14972648D02*
X82601927Y15067886D01*
X82601927Y15067886D02*
X82554307Y15115505D01*
X81649546Y13639315D02*
X81649546Y14115505D01*
X81649546Y14115505D02*
X82125736Y14163124D01*
X82125736Y14163124D02*
X82078117Y14115505D01*
X82078117Y14115505D02*
X82030498Y14020267D01*
X82030498Y14020267D02*
X82030498Y13782172D01*
X82030498Y13782172D02*
X82078117Y13686934D01*
X82078117Y13686934D02*
X82125736Y13639315D01*
X82125736Y13639315D02*
X82220974Y13591696D01*
X82220974Y13591696D02*
X82459069Y13591696D01*
X82459069Y13591696D02*
X82554307Y13639315D01*
X82554307Y13639315D02*
X82601927Y13686934D01*
X82601927Y13686934D02*
X82649546Y13782172D01*
X82649546Y13782172D02*
X82649546Y14020267D01*
X82649546Y14020267D02*
X82601927Y14115505D01*
X82601927Y14115505D02*
X82554307Y14163124D01*
X41029307Y15518458D02*
X41076927Y15566077D01*
X41076927Y15566077D02*
X41124546Y15708934D01*
X41124546Y15708934D02*
X41124546Y15804172D01*
X41124546Y15804172D02*
X41076927Y15947029D01*
X41076927Y15947029D02*
X40981688Y16042267D01*
X40981688Y16042267D02*
X40886450Y16089886D01*
X40886450Y16089886D02*
X40695974Y16137505D01*
X40695974Y16137505D02*
X40553117Y16137505D01*
X40553117Y16137505D02*
X40362641Y16089886D01*
X40362641Y16089886D02*
X40267403Y16042267D01*
X40267403Y16042267D02*
X40172165Y15947029D01*
X40172165Y15947029D02*
X40124546Y15804172D01*
X40124546Y15804172D02*
X40124546Y15708934D01*
X40124546Y15708934D02*
X40172165Y15566077D01*
X40172165Y15566077D02*
X40219784Y15518458D01*
X40219784Y15137505D02*
X40172165Y15089886D01*
X40172165Y15089886D02*
X40124546Y14994648D01*
X40124546Y14994648D02*
X40124546Y14756553D01*
X40124546Y14756553D02*
X40172165Y14661315D01*
X40172165Y14661315D02*
X40219784Y14613696D01*
X40219784Y14613696D02*
X40315022Y14566077D01*
X40315022Y14566077D02*
X40410260Y14566077D01*
X40410260Y14566077D02*
X40553117Y14613696D01*
X40553117Y14613696D02*
X41124546Y15185124D01*
X41124546Y15185124D02*
X41124546Y14566077D01*
X40124546Y14232743D02*
X40124546Y13566077D01*
X40124546Y13566077D02*
X41124546Y13994648D01*
X61091807Y15518458D02*
X61139427Y15566077D01*
X61139427Y15566077D02*
X61187046Y15708934D01*
X61187046Y15708934D02*
X61187046Y15804172D01*
X61187046Y15804172D02*
X61139427Y15947029D01*
X61139427Y15947029D02*
X61044188Y16042267D01*
X61044188Y16042267D02*
X60948950Y16089886D01*
X60948950Y16089886D02*
X60758474Y16137505D01*
X60758474Y16137505D02*
X60615617Y16137505D01*
X60615617Y16137505D02*
X60425141Y16089886D01*
X60425141Y16089886D02*
X60329903Y16042267D01*
X60329903Y16042267D02*
X60234665Y15947029D01*
X60234665Y15947029D02*
X60187046Y15804172D01*
X60187046Y15804172D02*
X60187046Y15708934D01*
X60187046Y15708934D02*
X60234665Y15566077D01*
X60234665Y15566077D02*
X60282284Y15518458D01*
X60520379Y14661315D02*
X61187046Y14661315D01*
X60139427Y14899410D02*
X60853712Y15137505D01*
X60853712Y15137505D02*
X60853712Y14518458D01*
X60187046Y14232743D02*
X60187046Y13613696D01*
X60187046Y13613696D02*
X60567998Y13947029D01*
X60567998Y13947029D02*
X60567998Y13804172D01*
X60567998Y13804172D02*
X60615617Y13708934D01*
X60615617Y13708934D02*
X60663236Y13661315D01*
X60663236Y13661315D02*
X60758474Y13613696D01*
X60758474Y13613696D02*
X60996569Y13613696D01*
X60996569Y13613696D02*
X61091807Y13661315D01*
X61091807Y13661315D02*
X61139427Y13708934D01*
X61139427Y13708934D02*
X61187046Y13804172D01*
X61187046Y13804172D02*
X61187046Y14089886D01*
X61187046Y14089886D02*
X61139427Y14185124D01*
X61139427Y14185124D02*
X61091807Y14232743D01*
X44033807Y15593701D02*
X44081427Y15641320D01*
X44081427Y15641320D02*
X44129046Y15784177D01*
X44129046Y15784177D02*
X44129046Y15879415D01*
X44129046Y15879415D02*
X44081427Y16022272D01*
X44081427Y16022272D02*
X43986188Y16117510D01*
X43986188Y16117510D02*
X43890950Y16165129D01*
X43890950Y16165129D02*
X43700474Y16212748D01*
X43700474Y16212748D02*
X43557617Y16212748D01*
X43557617Y16212748D02*
X43367141Y16165129D01*
X43367141Y16165129D02*
X43271903Y16117510D01*
X43271903Y16117510D02*
X43176665Y16022272D01*
X43176665Y16022272D02*
X43129046Y15879415D01*
X43129046Y15879415D02*
X43129046Y15784177D01*
X43129046Y15784177D02*
X43176665Y15641320D01*
X43176665Y15641320D02*
X43224284Y15593701D01*
X43129046Y14736558D02*
X43129046Y14927034D01*
X43129046Y14927034D02*
X43176665Y15022272D01*
X43176665Y15022272D02*
X43224284Y15069891D01*
X43224284Y15069891D02*
X43367141Y15165129D01*
X43367141Y15165129D02*
X43557617Y15212748D01*
X43557617Y15212748D02*
X43938569Y15212748D01*
X43938569Y15212748D02*
X44033807Y15165129D01*
X44033807Y15165129D02*
X44081427Y15117510D01*
X44081427Y15117510D02*
X44129046Y15022272D01*
X44129046Y15022272D02*
X44129046Y14831796D01*
X44129046Y14831796D02*
X44081427Y14736558D01*
X44081427Y14736558D02*
X44033807Y14688939D01*
X44033807Y14688939D02*
X43938569Y14641320D01*
X43938569Y14641320D02*
X43700474Y14641320D01*
X43700474Y14641320D02*
X43605236Y14688939D01*
X43605236Y14688939D02*
X43557617Y14736558D01*
X43557617Y14736558D02*
X43509998Y14831796D01*
X43509998Y14831796D02*
X43509998Y15022272D01*
X43509998Y15022272D02*
X43557617Y15117510D01*
X43557617Y15117510D02*
X43605236Y15165129D01*
X43605236Y15165129D02*
X43700474Y15212748D01*
X43129046Y14307986D02*
X43129046Y13688939D01*
X43129046Y13688939D02*
X43509998Y14022272D01*
X43509998Y14022272D02*
X43509998Y13879415D01*
X43509998Y13879415D02*
X43557617Y13784177D01*
X43557617Y13784177D02*
X43605236Y13736558D01*
X43605236Y13736558D02*
X43700474Y13688939D01*
X43700474Y13688939D02*
X43938569Y13688939D01*
X43938569Y13688939D02*
X44033807Y13736558D01*
X44033807Y13736558D02*
X44081427Y13784177D01*
X44081427Y13784177D02*
X44129046Y13879415D01*
X44129046Y13879415D02*
X44129046Y14165129D01*
X44129046Y14165129D02*
X44081427Y14260367D01*
X44081427Y14260367D02*
X44033807Y14307986D01*
X81154307Y81558458D02*
X81201927Y81606077D01*
X81201927Y81606077D02*
X81249546Y81748934D01*
X81249546Y81748934D02*
X81249546Y81844172D01*
X81249546Y81844172D02*
X81201927Y81987029D01*
X81201927Y81987029D02*
X81106688Y82082267D01*
X81106688Y82082267D02*
X81011450Y82129886D01*
X81011450Y82129886D02*
X80820974Y82177505D01*
X80820974Y82177505D02*
X80678117Y82177505D01*
X80678117Y82177505D02*
X80487641Y82129886D01*
X80487641Y82129886D02*
X80392403Y82082267D01*
X80392403Y82082267D02*
X80297165Y81987029D01*
X80297165Y81987029D02*
X80249546Y81844172D01*
X80249546Y81844172D02*
X80249546Y81748934D01*
X80249546Y81748934D02*
X80297165Y81606077D01*
X80297165Y81606077D02*
X80344784Y81558458D01*
X80582879Y80701315D02*
X81249546Y80701315D01*
X80201927Y80939410D02*
X80916212Y81177505D01*
X80916212Y81177505D02*
X80916212Y80558458D01*
X80582879Y79748934D02*
X81249546Y79748934D01*
X80201927Y79987029D02*
X80916212Y80225124D01*
X80916212Y80225124D02*
X80916212Y79606077D01*
X82554307Y81536458D02*
X82601927Y81584077D01*
X82601927Y81584077D02*
X82649546Y81726934D01*
X82649546Y81726934D02*
X82649546Y81822172D01*
X82649546Y81822172D02*
X82601927Y81965029D01*
X82601927Y81965029D02*
X82506688Y82060267D01*
X82506688Y82060267D02*
X82411450Y82107886D01*
X82411450Y82107886D02*
X82220974Y82155505D01*
X82220974Y82155505D02*
X82078117Y82155505D01*
X82078117Y82155505D02*
X81887641Y82107886D01*
X81887641Y82107886D02*
X81792403Y82060267D01*
X81792403Y82060267D02*
X81697165Y81965029D01*
X81697165Y81965029D02*
X81649546Y81822172D01*
X81649546Y81822172D02*
X81649546Y81726934D01*
X81649546Y81726934D02*
X81697165Y81584077D01*
X81697165Y81584077D02*
X81744784Y81536458D01*
X81982879Y80679315D02*
X82649546Y80679315D01*
X81601927Y80917410D02*
X82316212Y81155505D01*
X82316212Y81155505D02*
X82316212Y80536458D01*
X82078117Y80012648D02*
X82030498Y80107886D01*
X82030498Y80107886D02*
X81982879Y80155505D01*
X81982879Y80155505D02*
X81887641Y80203124D01*
X81887641Y80203124D02*
X81840022Y80203124D01*
X81840022Y80203124D02*
X81744784Y80155505D01*
X81744784Y80155505D02*
X81697165Y80107886D01*
X81697165Y80107886D02*
X81649546Y80012648D01*
X81649546Y80012648D02*
X81649546Y79822172D01*
X81649546Y79822172D02*
X81697165Y79726934D01*
X81697165Y79726934D02*
X81744784Y79679315D01*
X81744784Y79679315D02*
X81840022Y79631696D01*
X81840022Y79631696D02*
X81887641Y79631696D01*
X81887641Y79631696D02*
X81982879Y79679315D01*
X81982879Y79679315D02*
X82030498Y79726934D01*
X82030498Y79726934D02*
X82078117Y79822172D01*
X82078117Y79822172D02*
X82078117Y80012648D01*
X82078117Y80012648D02*
X82125736Y80107886D01*
X82125736Y80107886D02*
X82173355Y80155505D01*
X82173355Y80155505D02*
X82268593Y80203124D01*
X82268593Y80203124D02*
X82459069Y80203124D01*
X82459069Y80203124D02*
X82554307Y80155505D01*
X82554307Y80155505D02*
X82601927Y80107886D01*
X82601927Y80107886D02*
X82649546Y80012648D01*
X82649546Y80012648D02*
X82649546Y79822172D01*
X82649546Y79822172D02*
X82601927Y79726934D01*
X82601927Y79726934D02*
X82554307Y79679315D01*
X82554307Y79679315D02*
X82459069Y79631696D01*
X82459069Y79631696D02*
X82268593Y79631696D01*
X82268593Y79631696D02*
X82173355Y79679315D01*
X82173355Y79679315D02*
X82125736Y79726934D01*
X82125736Y79726934D02*
X82078117Y79822172D01*
X84165807Y81419749D02*
X84213427Y81467368D01*
X84213427Y81467368D02*
X84261046Y81610225D01*
X84261046Y81610225D02*
X84261046Y81705463D01*
X84261046Y81705463D02*
X84213427Y81848320D01*
X84213427Y81848320D02*
X84118188Y81943558D01*
X84118188Y81943558D02*
X84022950Y81991177D01*
X84022950Y81991177D02*
X83832474Y82038796D01*
X83832474Y82038796D02*
X83689617Y82038796D01*
X83689617Y82038796D02*
X83499141Y81991177D01*
X83499141Y81991177D02*
X83403903Y81943558D01*
X83403903Y81943558D02*
X83308665Y81848320D01*
X83308665Y81848320D02*
X83261046Y81705463D01*
X83261046Y81705463D02*
X83261046Y81610225D01*
X83261046Y81610225D02*
X83308665Y81467368D01*
X83308665Y81467368D02*
X83356284Y81419749D01*
X83261046Y81086415D02*
X83261046Y80419749D01*
X83261046Y80419749D02*
X84261046Y80848320D01*
X84261046Y79514987D02*
X84261046Y80086415D01*
X84261046Y79800701D02*
X83261046Y79800701D01*
X83261046Y79800701D02*
X83403903Y79895939D01*
X83403903Y79895939D02*
X83499141Y79991177D01*
X83499141Y79991177D02*
X83546760Y80086415D01*
X62539107Y81485658D02*
X62586727Y81533277D01*
X62586727Y81533277D02*
X62634346Y81676134D01*
X62634346Y81676134D02*
X62634346Y81771372D01*
X62634346Y81771372D02*
X62586727Y81914229D01*
X62586727Y81914229D02*
X62491488Y82009467D01*
X62491488Y82009467D02*
X62396250Y82057086D01*
X62396250Y82057086D02*
X62205774Y82104705D01*
X62205774Y82104705D02*
X62062917Y82104705D01*
X62062917Y82104705D02*
X61872441Y82057086D01*
X61872441Y82057086D02*
X61777203Y82009467D01*
X61777203Y82009467D02*
X61681965Y81914229D01*
X61681965Y81914229D02*
X61634346Y81771372D01*
X61634346Y81771372D02*
X61634346Y81676134D01*
X61634346Y81676134D02*
X61681965Y81533277D01*
X61681965Y81533277D02*
X61729584Y81485658D01*
X61634346Y81152324D02*
X61634346Y80533277D01*
X61634346Y80533277D02*
X62015298Y80866610D01*
X62015298Y80866610D02*
X62015298Y80723753D01*
X62015298Y80723753D02*
X62062917Y80628515D01*
X62062917Y80628515D02*
X62110536Y80580896D01*
X62110536Y80580896D02*
X62205774Y80533277D01*
X62205774Y80533277D02*
X62443869Y80533277D01*
X62443869Y80533277D02*
X62539107Y80580896D01*
X62539107Y80580896D02*
X62586727Y80628515D01*
X62586727Y80628515D02*
X62634346Y80723753D01*
X62634346Y80723753D02*
X62634346Y81009467D01*
X62634346Y81009467D02*
X62586727Y81104705D01*
X62586727Y81104705D02*
X62539107Y81152324D01*
X61729584Y80152324D02*
X61681965Y80104705D01*
X61681965Y80104705D02*
X61634346Y80009467D01*
X61634346Y80009467D02*
X61634346Y79771372D01*
X61634346Y79771372D02*
X61681965Y79676134D01*
X61681965Y79676134D02*
X61729584Y79628515D01*
X61729584Y79628515D02*
X61824822Y79580896D01*
X61824822Y79580896D02*
X61920060Y79580896D01*
X61920060Y79580896D02*
X62062917Y79628515D01*
X62062917Y79628515D02*
X62634346Y80199943D01*
X62634346Y80199943D02*
X62634346Y79580896D01*
X64147107Y81622949D02*
X64194727Y81670568D01*
X64194727Y81670568D02*
X64242346Y81813425D01*
X64242346Y81813425D02*
X64242346Y81908663D01*
X64242346Y81908663D02*
X64194727Y82051520D01*
X64194727Y82051520D02*
X64099488Y82146758D01*
X64099488Y82146758D02*
X64004250Y82194377D01*
X64004250Y82194377D02*
X63813774Y82241996D01*
X63813774Y82241996D02*
X63670917Y82241996D01*
X63670917Y82241996D02*
X63480441Y82194377D01*
X63480441Y82194377D02*
X63385203Y82146758D01*
X63385203Y82146758D02*
X63289965Y82051520D01*
X63289965Y82051520D02*
X63242346Y81908663D01*
X63242346Y81908663D02*
X63242346Y81813425D01*
X63242346Y81813425D02*
X63289965Y81670568D01*
X63289965Y81670568D02*
X63337584Y81622949D01*
X63242346Y80765806D02*
X63242346Y80956282D01*
X63242346Y80956282D02*
X63289965Y81051520D01*
X63289965Y81051520D02*
X63337584Y81099139D01*
X63337584Y81099139D02*
X63480441Y81194377D01*
X63480441Y81194377D02*
X63670917Y81241996D01*
X63670917Y81241996D02*
X64051869Y81241996D01*
X64051869Y81241996D02*
X64147107Y81194377D01*
X64147107Y81194377D02*
X64194727Y81146758D01*
X64194727Y81146758D02*
X64242346Y81051520D01*
X64242346Y81051520D02*
X64242346Y80861044D01*
X64242346Y80861044D02*
X64194727Y80765806D01*
X64194727Y80765806D02*
X64147107Y80718187D01*
X64147107Y80718187D02*
X64051869Y80670568D01*
X64051869Y80670568D02*
X63813774Y80670568D01*
X63813774Y80670568D02*
X63718536Y80718187D01*
X63718536Y80718187D02*
X63670917Y80765806D01*
X63670917Y80765806D02*
X63623298Y80861044D01*
X63623298Y80861044D02*
X63623298Y81051520D01*
X63623298Y81051520D02*
X63670917Y81146758D01*
X63670917Y81146758D02*
X63718536Y81194377D01*
X63718536Y81194377D02*
X63813774Y81241996D01*
X63575679Y79813425D02*
X64242346Y79813425D01*
X63194727Y80051520D02*
X63909012Y80289615D01*
X63909012Y80289615D02*
X63909012Y79670568D01*
X61139107Y81507658D02*
X61186727Y81555277D01*
X61186727Y81555277D02*
X61234346Y81698134D01*
X61234346Y81698134D02*
X61234346Y81793372D01*
X61234346Y81793372D02*
X61186727Y81936229D01*
X61186727Y81936229D02*
X61091488Y82031467D01*
X61091488Y82031467D02*
X60996250Y82079086D01*
X60996250Y82079086D02*
X60805774Y82126705D01*
X60805774Y82126705D02*
X60662917Y82126705D01*
X60662917Y82126705D02*
X60472441Y82079086D01*
X60472441Y82079086D02*
X60377203Y82031467D01*
X60377203Y82031467D02*
X60281965Y81936229D01*
X60281965Y81936229D02*
X60234346Y81793372D01*
X60234346Y81793372D02*
X60234346Y81698134D01*
X60234346Y81698134D02*
X60281965Y81555277D01*
X60281965Y81555277D02*
X60329584Y81507658D01*
X60329584Y81126705D02*
X60281965Y81079086D01*
X60281965Y81079086D02*
X60234346Y80983848D01*
X60234346Y80983848D02*
X60234346Y80745753D01*
X60234346Y80745753D02*
X60281965Y80650515D01*
X60281965Y80650515D02*
X60329584Y80602896D01*
X60329584Y80602896D02*
X60424822Y80555277D01*
X60424822Y80555277D02*
X60520060Y80555277D01*
X60520060Y80555277D02*
X60662917Y80602896D01*
X60662917Y80602896D02*
X61234346Y81174324D01*
X61234346Y81174324D02*
X61234346Y80555277D01*
X60662917Y79983848D02*
X60615298Y80079086D01*
X60615298Y80079086D02*
X60567679Y80126705D01*
X60567679Y80126705D02*
X60472441Y80174324D01*
X60472441Y80174324D02*
X60424822Y80174324D01*
X60424822Y80174324D02*
X60329584Y80126705D01*
X60329584Y80126705D02*
X60281965Y80079086D01*
X60281965Y80079086D02*
X60234346Y79983848D01*
X60234346Y79983848D02*
X60234346Y79793372D01*
X60234346Y79793372D02*
X60281965Y79698134D01*
X60281965Y79698134D02*
X60329584Y79650515D01*
X60329584Y79650515D02*
X60424822Y79602896D01*
X60424822Y79602896D02*
X60472441Y79602896D01*
X60472441Y79602896D02*
X60567679Y79650515D01*
X60567679Y79650515D02*
X60615298Y79698134D01*
X60615298Y79698134D02*
X60662917Y79793372D01*
X60662917Y79793372D02*
X60662917Y79983848D01*
X60662917Y79983848D02*
X60710536Y80079086D01*
X60710536Y80079086D02*
X60758155Y80126705D01*
X60758155Y80126705D02*
X60853393Y80174324D01*
X60853393Y80174324D02*
X61043869Y80174324D01*
X61043869Y80174324D02*
X61139107Y80126705D01*
X61139107Y80126705D02*
X61186727Y80079086D01*
X61186727Y80079086D02*
X61234346Y79983848D01*
X61234346Y79983848D02*
X61234346Y79793372D01*
X61234346Y79793372D02*
X61186727Y79698134D01*
X61186727Y79698134D02*
X61139107Y79650515D01*
X61139107Y79650515D02*
X61043869Y79602896D01*
X61043869Y79602896D02*
X60853393Y79602896D01*
X60853393Y79602896D02*
X60758155Y79650515D01*
X60758155Y79650515D02*
X60710536Y79698134D01*
X60710536Y79698134D02*
X60662917Y79793372D01*
X45415580Y56860258D02*
X45463200Y56907877D01*
X45463200Y56907877D02*
X45510819Y57050734D01*
X45510819Y57050734D02*
X45510819Y57145972D01*
X45510819Y57145972D02*
X45463200Y57288829D01*
X45463200Y57288829D02*
X45367961Y57384067D01*
X45367961Y57384067D02*
X45272723Y57431686D01*
X45272723Y57431686D02*
X45082247Y57479305D01*
X45082247Y57479305D02*
X44939390Y57479305D01*
X44939390Y57479305D02*
X44748914Y57431686D01*
X44748914Y57431686D02*
X44653676Y57384067D01*
X44653676Y57384067D02*
X44558438Y57288829D01*
X44558438Y57288829D02*
X44510819Y57145972D01*
X44510819Y57145972D02*
X44510819Y57050734D01*
X44510819Y57050734D02*
X44558438Y56907877D01*
X44558438Y56907877D02*
X44606057Y56860258D01*
X44510819Y56003115D02*
X44510819Y56193591D01*
X44510819Y56193591D02*
X44558438Y56288829D01*
X44558438Y56288829D02*
X44606057Y56336448D01*
X44606057Y56336448D02*
X44748914Y56431686D01*
X44748914Y56431686D02*
X44939390Y56479305D01*
X44939390Y56479305D02*
X45320342Y56479305D01*
X45320342Y56479305D02*
X45415580Y56431686D01*
X45415580Y56431686D02*
X45463200Y56384067D01*
X45463200Y56384067D02*
X45510819Y56288829D01*
X45510819Y56288829D02*
X45510819Y56098353D01*
X45510819Y56098353D02*
X45463200Y56003115D01*
X45463200Y56003115D02*
X45415580Y55955496D01*
X45415580Y55955496D02*
X45320342Y55907877D01*
X45320342Y55907877D02*
X45082247Y55907877D01*
X45082247Y55907877D02*
X44987009Y55955496D01*
X44987009Y55955496D02*
X44939390Y56003115D01*
X44939390Y56003115D02*
X44891771Y56098353D01*
X44891771Y56098353D02*
X44891771Y56288829D01*
X44891771Y56288829D02*
X44939390Y56384067D01*
X44939390Y56384067D02*
X44987009Y56431686D01*
X44987009Y56431686D02*
X45082247Y56479305D01*
X45510819Y54955496D02*
X45510819Y55526924D01*
X45510819Y55241210D02*
X44510819Y55241210D01*
X44510819Y55241210D02*
X44653676Y55336448D01*
X44653676Y55336448D02*
X44748914Y55431686D01*
X44748914Y55431686D02*
X44796533Y55526924D01*
%TO.C,C54*%
D12*
X90667747Y34089161D02*
X90667747Y34370321D01*
X91687747Y34089161D02*
X91687747Y34370321D01*
%TO.C,R23*%
X49049034Y55992467D02*
X49049034Y56466983D01*
X50094034Y55992467D02*
X50094034Y56466983D01*
%TO.C,R10*%
X67534571Y77992451D02*
X67534571Y78466967D01*
X68579571Y77992451D02*
X68579571Y78466967D01*
%TO.C,C35*%
X72086461Y12089177D02*
X72086461Y12370337D01*
X73106461Y12089177D02*
X73106461Y12370337D01*
%TO.C,R12*%
X67534571Y33992483D02*
X67534571Y34466999D01*
X68579571Y33992483D02*
X68579571Y34466999D01*
%TO.C,R24*%
X69111534Y55992467D02*
X69111534Y56466983D01*
X70156534Y55992467D02*
X70156534Y56466983D01*
%TO.C,C51*%
X92148961Y12089177D02*
X92148961Y12370337D01*
X93168961Y12089177D02*
X93168961Y12370337D01*
%TO.C,C56*%
X92148961Y78089129D02*
X92148961Y78370289D01*
X93168961Y78089129D02*
X93168961Y78370289D01*
%TO.C,R22*%
X89174034Y77992451D02*
X89174034Y78466967D01*
X90219034Y77992451D02*
X90219034Y78466967D01*
%TO.C,C58*%
X92148961Y34089161D02*
X92148961Y34370321D01*
X93168961Y34089161D02*
X93168961Y34370321D01*
%TO.C,R14*%
X87597071Y77992451D02*
X87597071Y78466967D01*
X88642071Y77992451D02*
X88642071Y78466967D01*
%TO.C,R15*%
X87597071Y55992467D02*
X87597071Y56466983D01*
X88642071Y55992467D02*
X88642071Y56466983D01*
%TO.C,C24*%
X50542747Y34089161D02*
X50542747Y34370321D01*
X51562747Y34089161D02*
X51562747Y34370321D01*
%TO.C,C40*%
X72086461Y78089129D02*
X72086461Y78370289D01*
X73106461Y78089129D02*
X73106461Y78370289D01*
%TO.C,R1*%
X47472071Y55992467D02*
X47472071Y56466983D01*
X48517071Y55992467D02*
X48517071Y56466983D01*
%TO.C,C53*%
X90667747Y56089145D02*
X90667747Y56370305D01*
X91687747Y56089145D02*
X91687747Y56370305D01*
%TO.C,R26*%
X49049034Y33992483D02*
X49049034Y34466999D01*
X50094034Y33992483D02*
X50094034Y34466999D01*
%TO.C,C36*%
X70605247Y78089129D02*
X70605247Y78370289D01*
X71625247Y78089129D02*
X71625247Y78370289D01*
%TO.C,C47*%
X90667747Y12089177D02*
X90667747Y12370337D01*
X91687747Y12089177D02*
X91687747Y12370337D01*
%TO.C,C26*%
X52023961Y34089161D02*
X52023961Y34370321D01*
X53043961Y34089161D02*
X53043961Y34370321D01*
%TO.C,R2*%
X47472071Y33992483D02*
X47472071Y34466999D01*
X48517071Y33992483D02*
X48517071Y34466999D01*
%TO.C,R28*%
X89174034Y33992483D02*
X89174034Y34466999D01*
X90219034Y33992483D02*
X90219034Y34466999D01*
%TO.C,R21*%
X69111534Y77992451D02*
X69111534Y78466967D01*
X70156534Y77992451D02*
X70156534Y78466967D01*
%TO.C,C42*%
X72086461Y34089161D02*
X72086461Y34370321D01*
X73106461Y34089161D02*
X73106461Y34370321D01*
%TO.C,C2*%
X50542747Y78089129D02*
X50542747Y78370289D01*
X51562747Y78089129D02*
X51562747Y78370289D01*
%TO.C,R16*%
X87597071Y33992483D02*
X87597071Y34466999D01*
X88642071Y33992483D02*
X88642071Y34466999D01*
%TO.C,C37*%
X70605247Y56089145D02*
X70605247Y56370305D01*
X71625247Y56089145D02*
X71625247Y56370305D01*
%TO.C,R9*%
X47472071Y11992499D02*
X47472071Y12467015D01*
X48517071Y11992499D02*
X48517071Y12467015D01*
%TO.C,C57*%
X92148961Y56089145D02*
X92148961Y56370305D01*
X93168961Y56089145D02*
X93168961Y56370305D01*
%TO.C,C4*%
X52023961Y78089129D02*
X52023961Y78370289D01*
X53043961Y78089129D02*
X53043961Y78370289D01*
%TO.C,C41*%
X72086461Y56089145D02*
X72086461Y56370305D01*
X73106461Y56089145D02*
X73106461Y56370305D01*
%TO.C,C38*%
X70605247Y34089161D02*
X70605247Y34370321D01*
X71625247Y34089161D02*
X71625247Y34370321D01*
%TO.C,C3*%
X40068000Y78089129D02*
X40068000Y78370289D01*
X41088000Y78089129D02*
X41088000Y78370289D01*
%TO.C,C52*%
X90667747Y78089129D02*
X90667747Y78370289D01*
X91687747Y78089129D02*
X91687747Y78370289D01*
%TO.C,R29*%
X49049034Y11992499D02*
X49049034Y12467015D01*
X50094034Y11992499D02*
X50094034Y12467015D01*
%TO.C,C1*%
X41568000Y78089129D02*
X41568000Y78370289D01*
X42588000Y78089129D02*
X42588000Y78370289D01*
%TO.C,C23*%
X52023961Y12089177D02*
X52023961Y12370337D01*
X53043961Y12089177D02*
X53043961Y12370337D01*
%TO.C,R3*%
X47472071Y77992451D02*
X47472071Y78466967D01*
X48517071Y77992451D02*
X48517071Y78466967D01*
%TO.C,R11*%
X67534571Y55992467D02*
X67534571Y56466983D01*
X68579571Y55992467D02*
X68579571Y56466983D01*
%TO.C,R17*%
X87597071Y11992499D02*
X87597071Y12467015D01*
X88642071Y11992499D02*
X88642071Y12467015D01*
%TO.C,C21*%
X50542747Y12089177D02*
X50542747Y12370337D01*
X51562747Y12089177D02*
X51562747Y12370337D01*
%TO.C,R25*%
X89174034Y55992467D02*
X89174034Y56466983D01*
X90219034Y55992467D02*
X90219034Y56466983D01*
%TO.C,C60*%
X43080473Y78089129D02*
X43080473Y78370289D01*
X44100473Y78089129D02*
X44100473Y78370289D01*
%TO.C,C18*%
X50542747Y56089145D02*
X50542747Y56370305D01*
X51562747Y56089145D02*
X51562747Y56370305D01*
%TO.C,R31*%
X89174034Y11992499D02*
X89174034Y12467015D01*
X90219034Y11992499D02*
X90219034Y12467015D01*
%TO.C,C19*%
X52023961Y56089145D02*
X52023961Y56370305D01*
X53043961Y56089145D02*
X53043961Y56370305D01*
%TO.C,R13*%
X67534571Y11992499D02*
X67534571Y12467015D01*
X68579571Y11992499D02*
X68579571Y12467015D01*
%TO.C,R20*%
X49049034Y77992451D02*
X49049034Y78466967D01*
X50094034Y77992451D02*
X50094034Y78466967D01*
%TO.C,C31*%
X70605247Y12089177D02*
X70605247Y12370337D01*
X71625247Y12089177D02*
X71625247Y12370337D01*
%TO.C,R30*%
X69111534Y11992499D02*
X69111534Y12467015D01*
X70156534Y11992499D02*
X70156534Y12467015D01*
%TO.C,R27*%
X69111534Y33992483D02*
X69111534Y34466999D01*
X70156534Y33992483D02*
X70156534Y34466999D01*
%TO.C,C49*%
X81693000Y56089145D02*
X81693000Y56370305D01*
X82713000Y56089145D02*
X82713000Y56370305D01*
%TO.C,C70*%
X83205473Y56089145D02*
X83205473Y56370305D01*
X84225473Y56089145D02*
X84225473Y56370305D01*
%TO.C,C5*%
X40068000Y56089145D02*
X40068000Y56370305D01*
X41088000Y56089145D02*
X41088000Y56370305D01*
%TO.C,C17*%
X41568000Y56089145D02*
X41568000Y56370305D01*
X42588000Y56089145D02*
X42588000Y56370305D01*
%TO.C,C45*%
X80193000Y56089145D02*
X80193000Y56370305D01*
X81213000Y56089145D02*
X81213000Y56370305D01*
%TO.C,C65*%
X63142973Y56089145D02*
X63142973Y56370305D01*
X64162973Y56089145D02*
X64162973Y56370305D01*
%TO.C,C29*%
X60130500Y56089145D02*
X60130500Y56370305D01*
X61150500Y56089145D02*
X61150500Y56370305D01*
%TO.C,C33*%
X61630500Y56089145D02*
X61630500Y56370305D01*
X62650500Y56089145D02*
X62650500Y56370305D01*
%TO.C,C34*%
X61630500Y34089161D02*
X61630500Y34370321D01*
X62650500Y34089161D02*
X62650500Y34370321D01*
%TO.C,C30*%
X60130500Y34089161D02*
X60130500Y34370321D01*
X61150500Y34089161D02*
X61150500Y34370321D01*
%TO.C,C46*%
X80193000Y34089161D02*
X80193000Y34370321D01*
X81213000Y34089161D02*
X81213000Y34370321D01*
%TO.C,C66*%
X63142973Y34089161D02*
X63142973Y34370321D01*
X64162973Y34089161D02*
X64162973Y34370321D01*
%TO.C,C22*%
X41568000Y34089161D02*
X41568000Y34370321D01*
X42588000Y34089161D02*
X42588000Y34370321D01*
%TO.C,C62*%
X43080473Y34089161D02*
X43080473Y34370321D01*
X44100473Y34089161D02*
X44100473Y34370321D01*
%TO.C,C50*%
X81693000Y34089161D02*
X81693000Y34370321D01*
X82713000Y34089161D02*
X82713000Y34370321D01*
%TO.C,C69*%
X83205473Y34089161D02*
X83205473Y34370321D01*
X84225473Y34089161D02*
X84225473Y34370321D01*
%TO.C,C20*%
X40068000Y34089161D02*
X40068000Y34370321D01*
X41088000Y34089161D02*
X41088000Y34370321D01*
%TO.C,C67*%
X63134700Y12110020D02*
X63134700Y12391180D01*
X64154700Y12110020D02*
X64154700Y12391180D01*
%TO.C,C25*%
X41559727Y12110020D02*
X41559727Y12391180D01*
X42579727Y12110020D02*
X42579727Y12391180D01*
%TO.C,C68*%
X83197200Y12110020D02*
X83197200Y12391180D01*
X84217200Y12110020D02*
X84217200Y12391180D01*
%TO.C,C59*%
X80184727Y12110020D02*
X80184727Y12391180D01*
X81204727Y12110020D02*
X81204727Y12391180D01*
%TO.C,C39*%
X61622227Y12110020D02*
X61622227Y12391180D01*
X62642227Y12110020D02*
X62642227Y12391180D01*
%TO.C,C55*%
X81684727Y12110020D02*
X81684727Y12391180D01*
X82704727Y12110020D02*
X82704727Y12391180D01*
%TO.C,C27*%
X40059727Y12110020D02*
X40059727Y12391180D01*
X41079727Y12110020D02*
X41079727Y12391180D01*
%TO.C,C43*%
X60122227Y12110020D02*
X60122227Y12391180D01*
X61142227Y12110020D02*
X61142227Y12391180D01*
%TO.C,C63*%
X43072200Y12110020D02*
X43072200Y12391180D01*
X44092200Y12110020D02*
X44092200Y12391180D01*
%TO.C,C44*%
X80184727Y78150020D02*
X80184727Y78431180D01*
X81204727Y78150020D02*
X81204727Y78431180D01*
%TO.C,C48*%
X81684727Y78150020D02*
X81684727Y78431180D01*
X82704727Y78150020D02*
X82704727Y78431180D01*
%TO.C,C71*%
X83197200Y78150020D02*
X83197200Y78431180D01*
X84217200Y78150020D02*
X84217200Y78431180D01*
%TO.C,C32*%
X61669527Y78099220D02*
X61669527Y78380380D01*
X62689527Y78099220D02*
X62689527Y78380380D01*
%TO.C,C64*%
X63182000Y78099220D02*
X63182000Y78380380D01*
X64202000Y78099220D02*
X64202000Y78380380D01*
%TO.C,C28*%
X60169527Y78099220D02*
X60169527Y78380380D01*
X61189527Y78099220D02*
X61189527Y78380380D01*
%TO.C,C61*%
X43116000Y56076820D02*
X43116000Y56357980D01*
X44136000Y56076820D02*
X44136000Y56357980D01*
%TD*%
M02*
