M48
; DRILL file KiCad 10.0.5 date 2026-09-12T01:20:40
; FORMAT={-:-/ absolute / metric / decimal}
; #@! TF.CreationDate,2026-09-12T01:20:40+02:00
; #@! TF.GenerationSoftware,Kicad,Pcbnew,10.0.5
; #@! TF.FileFunction,Plated,1,4,PTH
FMAT,2
METRIC
; #@! TA.AperFunction,Plated,PTH,ComponentDrill
T1C0.200
; #@! TA.AperFunction,Plated,PTH,ViaDrill
T2C0.300
; #@! TA.AperFunction,Plated,PTH,ViaDrill
T3C0.400
; #@! TA.AperFunction,Plated,PTH,ViaDrill
T4C0.500
; #@! TA.AperFunction,Plated,PTH,ComponentDrill
T5C1.000
; #@! TA.AperFunction,Plated,PTH,ComponentDrill
T6C1.200
%
G90
G05
T1
X10.637Y28.8
X11.387Y29.575
X11.387Y28.8
X11.387Y28.025
X12.438Y29.575
X12.438Y28.8
X12.438Y28.025
X13.188Y28.8
T2
X4.799Y30.85
X7.627Y19.366
X19.149Y30.85
X31.825Y86.75
X37.479Y4.922
X37.53Y6.04
X38.444Y49.728
X39.25Y66.25
X39.65Y65.2
X39.9Y44.4
X40.0Y45.4
X40.25Y67.1
X40.57Y13.821
X40.578Y79.8
X40.578Y76.7
X40.578Y57.8
X40.578Y54.7
X40.578Y35.8
X40.578Y32.7
X40.578Y10.7
X40.987Y72.0
X40.987Y50.0
X40.987Y28.0
X40.987Y6.0
X41.34Y24.836
X41.987Y74.15
X41.987Y30.162
X42.0Y52.2
X42.0Y8.2
X42.07Y13.821
X42.078Y79.8
X42.078Y57.8
X42.078Y35.8
X42.775Y22.4
X42.8Y23.5
X43.582Y13.821
X43.59Y79.8
X43.59Y57.8
X43.59Y35.8
X44.54Y76.906
X44.54Y54.906
X44.54Y32.906
X44.54Y10.906
X45.404Y78.176
X45.404Y76.347
X45.404Y34.176
X45.404Y32.347
X45.912Y74.112
X45.912Y52.112
X45.912Y30.112
X45.912Y8.112
X46.004Y77.576
X46.004Y33.576
X46.014Y71.855
X46.021Y56.176
X46.021Y12.176
X46.604Y76.874
X46.604Y54.874
X46.604Y32.874
X46.604Y10.874
X47.02Y79.202
X47.02Y57.202
X47.02Y35.202
X47.02Y13.202
X47.395Y76.535
X47.395Y54.536
X47.395Y32.536
X47.395Y10.536
X47.987Y73.155
X47.987Y69.9
X47.987Y51.155
X47.987Y47.85
X47.987Y29.155
X47.987Y25.9
X47.987Y7.155
X47.987Y3.8
X47.995Y79.8
X47.995Y57.8
X47.995Y35.8
X47.995Y13.8
X48.1Y74.455
X48.1Y52.455
X48.1Y30.455
X48.1Y8.455
X48.701Y76.651
X48.701Y54.651
X48.701Y32.651
X48.701Y10.651
X48.985Y74.353
X48.985Y52.353
X48.985Y30.353
X48.985Y8.353
X49.495Y76.75
X49.495Y54.75
X49.495Y32.75
X49.495Y10.75
X49.987Y72.0
X49.987Y50.0
X49.987Y28.0
X49.987Y6.0
X50.487Y74.35
X50.487Y52.2
X50.487Y30.2
X50.487Y8.2
X51.034Y57.8
X51.034Y35.8
X51.034Y13.8
X51.053Y79.8
X52.534Y79.8
X52.534Y57.8
X52.534Y35.8
X52.534Y13.8
X53.967Y22.358
X53.998Y88.327
X54.075Y66.375
X54.075Y44.375
X60.632Y13.821
X60.64Y76.7
X60.64Y57.8
X60.64Y54.7
X60.64Y35.8
X60.64Y32.7
X60.64Y10.7
X60.68Y79.81
X61.05Y72.0
X61.05Y50.0
X61.05Y28.0
X61.05Y6.0
X62.05Y74.2
X62.05Y52.1
X62.065Y30.15
X62.065Y8.15
X62.132Y13.821
X62.14Y57.8
X62.14Y35.8
X62.18Y79.81
X63.645Y13.821
X63.653Y57.8
X63.653Y35.8
X63.692Y79.81
X64.603Y76.906
X64.603Y54.906
X64.603Y32.906
X64.603Y10.906
X65.466Y78.176
X65.466Y76.347
X65.466Y34.176
X65.466Y32.347
X65.974Y74.112
X65.974Y52.112
X65.974Y30.112
X65.974Y8.112
X66.066Y77.576
X66.066Y33.576
X66.083Y56.176
X66.083Y12.176
X66.666Y76.874
X66.666Y54.874
X66.666Y32.874
X66.666Y10.874
X67.082Y79.202
X67.082Y57.202
X67.082Y35.202
X67.082Y13.202
X67.4Y3.05
X67.438Y69.9
X67.438Y47.9
X67.438Y25.9
X67.457Y76.535
X67.457Y54.536
X67.457Y32.536
X67.457Y10.536
X68.05Y73.155
X68.05Y51.155
X68.05Y29.155
X68.05Y7.155
X68.057Y79.8
X68.057Y57.8
X68.057Y35.8
X68.057Y13.8
X68.162Y52.455
X68.162Y30.455
X68.162Y8.455
X68.238Y47.9
X68.238Y25.9
X68.25Y69.9
X68.251Y74.455
X68.5Y3.8
X68.763Y76.651
X68.763Y54.651
X68.763Y32.651
X68.763Y10.651
X69.047Y74.353
X69.047Y52.353
X69.047Y30.353
X69.047Y8.353
X69.557Y76.75
X69.557Y54.75
X69.557Y32.75
X69.557Y10.75
X70.05Y72.0
X70.05Y50.0
X70.05Y28.0
X70.05Y6.0
X70.55Y74.2
X70.55Y52.2
X70.55Y30.2
X70.55Y8.2
X71.096Y79.8
X71.096Y57.8
X71.096Y35.8
X71.096Y13.8
X72.596Y79.8
X72.596Y57.8
X72.596Y35.8
X72.596Y13.8
X74.029Y22.358
X74.061Y88.327
X74.138Y66.375
X74.138Y44.375
X80.695Y79.861
X80.703Y76.7
X80.703Y57.8
X80.703Y54.7
X80.703Y32.7
X80.703Y10.7
X80.715Y35.8
X81.112Y72.0
X81.112Y50.0
X81.112Y28.0
X81.112Y6.0
X82.1Y8.15
X82.112Y74.138
X82.112Y52.188
X82.112Y30.15
X82.195Y79.861
X82.203Y57.8
X82.203Y35.8
X83.707Y79.861
X83.715Y57.8
X83.715Y35.8
X84.665Y76.906
X84.665Y54.906
X84.665Y32.906
X84.665Y10.906
X85.529Y78.176
X85.529Y76.347
X85.529Y34.176
X85.529Y32.347
X86.037Y74.112
X86.037Y52.112
X86.037Y30.112
X86.037Y8.112
X86.129Y77.576
X86.129Y33.576
X86.146Y56.176
X86.146Y12.176
X86.729Y76.874
X86.729Y54.874
X86.729Y32.874
X86.729Y10.874
X87.145Y79.202
X87.145Y57.202
X87.145Y35.202
X87.145Y13.202
X87.5Y69.9
X87.5Y47.9
X87.5Y25.9
X87.5Y2.95
X87.52Y76.535
X87.52Y54.536
X87.52Y32.536
X87.52Y10.536
X88.112Y73.155
X88.112Y70.5
X88.112Y50.038
X88.112Y48.5
X88.112Y28.038
X88.112Y26.5
X88.112Y6.038
X88.112Y4.5
X88.12Y79.8
X88.12Y57.8
X88.12Y35.8
X88.12Y13.8
X88.225Y74.455
X88.225Y52.455
X88.225Y30.455
X88.225Y8.455
X88.826Y76.651
X88.826Y54.651
X88.826Y32.651
X88.826Y10.651
X89.11Y74.353
X89.11Y52.353
X89.11Y30.353
X89.11Y8.353
X89.62Y76.75
X89.62Y54.75
X89.62Y32.75
X89.62Y10.75
X90.112Y72.0
X90.112Y50.0
X90.112Y28.0
X90.112Y6.0
X90.612Y74.2
X90.612Y52.2
X90.612Y30.2
X90.612Y8.2
X91.159Y79.8
X91.159Y57.8
X91.159Y35.8
X91.159Y13.8
X92.659Y79.8
X92.659Y57.8
X92.659Y35.8
X92.659Y13.8
X94.092Y22.358
X94.123Y88.327
X94.2Y66.375
X94.2Y44.375
X94.985Y79.2
X94.985Y57.196
X94.985Y35.199
X94.985Y13.254
X95.585Y70.505
X95.585Y49.648
X95.585Y27.525
T3
X9.7Y14.65
X9.7Y13.475
X9.7Y12.3
X36.75Y15.45
X37.8Y15.45
X38.85Y81.45
X38.85Y59.45
X38.85Y37.45
X38.85Y15.45
X53.375Y80.6
X53.375Y58.6
X53.375Y36.6
X53.375Y14.6
X58.912Y81.45
X58.912Y59.45
X58.912Y37.45
X58.912Y15.45
X73.45Y80.6
X73.45Y58.6
X73.45Y36.6
X73.45Y14.6
X78.975Y81.45
X78.975Y59.45
X78.975Y37.45
X78.975Y15.45
X93.513Y80.6
X93.513Y58.6
X93.513Y36.6
X93.513Y14.6
X96.306Y80.6
X96.306Y58.6
X96.306Y36.6
X96.306Y14.6
X97.271Y81.427
X97.271Y59.45
X97.271Y37.45
X97.271Y15.45
T4
X17.999Y38.7
T5
X4.209Y98.093
X4.209Y95.552
X4.209Y93.013
X4.209Y90.472
X4.209Y87.932
X4.209Y85.392
X4.209Y82.852
X4.209Y80.312
X4.209Y77.772
X4.209Y75.233
X4.209Y72.692
X4.209Y70.153
X4.209Y67.612
X4.209Y65.072
X4.209Y62.532
X4.209Y59.992
X4.209Y57.453
X4.209Y54.912
X4.209Y52.372
X4.209Y49.832
X21.989Y98.093
X21.989Y95.552
X21.989Y93.013
X21.989Y90.472
X21.989Y87.932
X21.989Y85.392
X21.989Y82.852
X21.989Y80.312
X21.989Y77.772
X21.989Y75.233
X21.989Y72.692
X21.989Y70.153
X21.989Y67.612
X21.989Y65.072
X21.989Y62.532
X21.989Y59.992
X21.989Y57.453
X21.989Y54.912
X21.989Y52.372
X21.989Y49.832
T6
X45.737Y90.455
X45.737Y68.455
X45.737Y46.455
X45.737Y24.455
X50.737Y88.355
X50.737Y66.355
X50.737Y44.355
X50.737Y22.355
X65.8Y90.455
X65.8Y68.455
X65.8Y46.455
X65.8Y24.455
X70.8Y88.355
X70.8Y66.355
X70.8Y44.355
X70.8Y22.355
X85.862Y90.455
X85.862Y68.455
X85.862Y46.455
X85.862Y24.455
X90.862Y88.355
X90.862Y66.355
X90.862Y44.355
X90.862Y22.355
M30
