%TF.GenerationSoftware,KiCad,Pcbnew,9.0.6*%
%TF.CreationDate,2026-07-16T23:14:13+02:00*%
%TF.ProjectId,oled_keyboard,6f6c6564-5f6b-4657-9962-6f6172642e6b,rev?*%
%TF.SameCoordinates,PX4e0ee90PY7c745a0*%
%TF.FileFunction,Paste,Bot*%
%TF.FilePolarity,Positive*%
%FSLAX46Y46*%
G04 Gerber Fmt 4.6, Leading zero omitted, Abs format (unit mm)*
G04 Created by KiCad (PCBNEW 9.0.6) date 2026-07-16 23:14:13*
%MOMM*%
%LPD*%
G01*
G04 APERTURE LIST*
G04 Aperture macros list*
%AMRoundRect*
0 Rectangle with rounded corners*
0 $1 Rounding radius*
0 $2 $3 $4 $5 $6 $7 $8 $9 X,Y pos of 4 corners*
0 Add a 4 corners polygon primitive as box body*
4,1,4,$2,$3,$4,$5,$6,$7,$8,$9,$2,$3,0*
0 Add four circle primitives for the rounded corners*
1,1,$1+$1,$2,$3*
1,1,$1+$1,$4,$5*
1,1,$1+$1,$6,$7*
1,1,$1+$1,$8,$9*
0 Add four rect primitives between the rounded corners*
20,1,$1+$1,$2,$3,$4,$5,0*
20,1,$1+$1,$4,$5,$6,$7,0*
20,1,$1+$1,$6,$7,$8,$9,0*
20,1,$1+$1,$8,$9,$2,$3,0*%
G04 Aperture macros list end*
%ADD10RoundRect,0.225000X0.250000X-0.225000X0.250000X0.225000X-0.250000X0.225000X-0.250000X-0.225000X0*%
%ADD11RoundRect,0.200000X0.275000X-0.200000X0.275000X0.200000X-0.275000X0.200000X-0.275000X-0.200000X0*%
G04 APERTURE END LIST*
D10*
%TO.C,C25*%
X38070749Y9900048D03*
X38070749Y11450048D03*
%TD*%
%TO.C,C29*%
X56623583Y53900016D03*
X56623583Y55450016D03*
%TD*%
%TO.C,C24*%
X46347166Y31900032D03*
X46347166Y33450032D03*
%TD*%
%TO.C,C20*%
X36597166Y31900032D03*
X36597166Y33450032D03*
%TD*%
%TO.C,C45*%
X76623583Y53900016D03*
X76623583Y55450016D03*
%TD*%
%TO.C,C33*%
X58123583Y53900016D03*
X58123583Y55450016D03*
%TD*%
%TO.C,C47*%
X87820749Y9900048D03*
X87820749Y11450048D03*
%TD*%
%TO.C,C18*%
X46373583Y53900016D03*
X46373583Y55450016D03*
%TD*%
%TO.C,C38*%
X66347166Y31900032D03*
X66347166Y33450032D03*
%TD*%
%TO.C,C19*%
X47873583Y53900016D03*
X47873583Y55450016D03*
%TD*%
%TO.C,C35*%
X67820749Y9900048D03*
X67820749Y11450048D03*
%TD*%
%TO.C,C26*%
X47847166Y31900032D03*
X47847166Y33450032D03*
%TD*%
%TO.C,C41*%
X66373583Y53900016D03*
X66373583Y55450016D03*
%TD*%
%TO.C,C3*%
X36650000Y75900000D03*
X36650000Y77450000D03*
%TD*%
D11*
%TO.C,R17*%
X84820749Y9850048D03*
X84820749Y11500048D03*
%TD*%
D10*
%TO.C,C23*%
X47820749Y9900048D03*
X47820749Y11450048D03*
%TD*%
%TO.C,C31*%
X66320749Y9900048D03*
X66320749Y11450048D03*
%TD*%
%TO.C,C43*%
X56570749Y9900048D03*
X56570749Y11450048D03*
%TD*%
%TO.C,C58*%
X87847166Y31900032D03*
X87847166Y33450032D03*
%TD*%
%TO.C,C48*%
X78150000Y75900000D03*
X78150000Y77450000D03*
%TD*%
%TO.C,C56*%
X87900000Y75900000D03*
X87900000Y77450000D03*
%TD*%
%TO.C,C52*%
X86400000Y75900000D03*
X86400000Y77450000D03*
%TD*%
%TO.C,C40*%
X66400000Y75900000D03*
X66400000Y77450000D03*
%TD*%
%TO.C,C22*%
X38097166Y31900032D03*
X38097166Y33450032D03*
%TD*%
%TO.C,C36*%
X67900000Y75900000D03*
X67900000Y77450000D03*
%TD*%
%TO.C,C55*%
X78070749Y9900048D03*
X78070749Y11450048D03*
%TD*%
%TO.C,C4*%
X47900000Y75900000D03*
X47900000Y77450000D03*
%TD*%
D11*
%TO.C,R10*%
X64900000Y75850000D03*
X64900000Y77500000D03*
%TD*%
D10*
%TO.C,C53*%
X86373583Y53900016D03*
X86373583Y55450016D03*
%TD*%
D11*
%TO.C,R13*%
X64820749Y9850048D03*
X64820749Y11500048D03*
%TD*%
D10*
%TO.C,C28*%
X56650000Y75900000D03*
X56650000Y77450000D03*
%TD*%
%TO.C,C49*%
X78123583Y53900016D03*
X78123583Y55450016D03*
%TD*%
%TO.C,C50*%
X78097166Y31900032D03*
X78097166Y33450032D03*
%TD*%
D11*
%TO.C,R1*%
X44873583Y53850016D03*
X44873583Y55500016D03*
%TD*%
%TO.C,R16*%
X84847166Y31850032D03*
X84847166Y33500032D03*
%TD*%
D10*
%TO.C,C21*%
X46320749Y9900048D03*
X46320749Y11450048D03*
%TD*%
%TO.C,C17*%
X38123583Y53900016D03*
X38123583Y55450016D03*
%TD*%
D11*
%TO.C,R3*%
X44900000Y75850000D03*
X44900000Y77500000D03*
%TD*%
D10*
%TO.C,C54*%
X86347166Y31900032D03*
X86347166Y33450032D03*
%TD*%
D11*
%TO.C,R2*%
X44847166Y31850032D03*
X44847166Y33500032D03*
%TD*%
D10*
%TO.C,C46*%
X76597166Y31900032D03*
X76597166Y33450032D03*
%TD*%
D11*
%TO.C,R15*%
X84873583Y53850016D03*
X84873583Y55500016D03*
%TD*%
D10*
%TO.C,C57*%
X87873583Y53900016D03*
X87873583Y55450016D03*
%TD*%
%TO.C,C1*%
X38150000Y75900000D03*
X38150000Y77450000D03*
%TD*%
D11*
%TO.C,R11*%
X64873583Y53850016D03*
X64873583Y55500016D03*
%TD*%
D10*
%TO.C,C51*%
X86320749Y9900048D03*
X86320749Y11450048D03*
%TD*%
%TO.C,C30*%
X56597166Y31900032D03*
X56597166Y33450032D03*
%TD*%
%TO.C,C32*%
X58150000Y75900000D03*
X58150000Y77450000D03*
%TD*%
%TO.C,C27*%
X36570749Y9900048D03*
X36570749Y11450048D03*
%TD*%
%TO.C,C59*%
X76570749Y9900048D03*
X76570749Y11450048D03*
%TD*%
D11*
%TO.C,R12*%
X64847166Y31850032D03*
X64847166Y33500032D03*
%TD*%
D10*
%TO.C,C39*%
X58070749Y9900048D03*
X58070749Y11450048D03*
%TD*%
%TO.C,C44*%
X76650000Y75900000D03*
X76650000Y77450000D03*
%TD*%
%TO.C,C2*%
X46400000Y75900000D03*
X46400000Y77450000D03*
%TD*%
%TO.C,C37*%
X67873583Y53900016D03*
X67873583Y55450016D03*
%TD*%
%TO.C,C34*%
X58097166Y31900032D03*
X58097166Y33450032D03*
%TD*%
D11*
%TO.C,R14*%
X84900000Y75850000D03*
X84900000Y77500000D03*
%TD*%
D10*
%TO.C,C42*%
X67847166Y31900032D03*
X67847166Y33450032D03*
%TD*%
%TO.C,C5*%
X36623583Y53900016D03*
X36623583Y55450016D03*
%TD*%
D11*
%TO.C,R9*%
X44820749Y9850048D03*
X44820749Y11500048D03*
%TD*%
M02*
