M48
; DRILL file {KiCad 9.0.6} date 2026-07-16T23:14:28+0200
; FORMAT={-:-/ absolute / metric / decimal}
; #@! TF.CreationDate,2026-07-16T23:14:28+02:00
; #@! TF.GenerationSoftware,Kicad,Pcbnew,9.0.6
; #@! TF.FileFunction,NonPlated,1,4,NPTH
FMAT,2
METRIC
; #@! TA.AperFunction,NonPlated,NPTH,ComponentDrill
T1C1.850
; #@! TA.AperFunction,NonPlated,NPTH,ComponentDrill
T2C1.900
; #@! TA.AperFunction,NonPlated,NPTH,ComponentDrill
T3C2.200
; #@! TA.AperFunction,NonPlated,NPTH,ComponentDrill
T4C2.700
; #@! TA.AperFunction,NonPlated,NPTH,ComponentDrill
T5C5.050
%
G90
G05
T1
X12.225Y94.932
X17.075Y94.932
T2
X35.571Y17.25
X35.597Y39.25
X35.624Y61.25
X35.65Y83.25
X46.571Y17.25
X46.597Y39.25
X46.624Y61.25
X46.65Y83.25
X55.571Y17.25
X55.597Y39.25
X55.624Y61.25
X55.65Y83.25
X66.571Y17.25
X66.597Y39.25
X66.624Y61.25
X66.65Y83.25
X75.571Y17.25
X75.597Y39.25
X75.624Y61.25
X75.65Y83.25
X86.571Y17.25
X86.597Y39.25
X86.624Y61.25
X86.65Y83.25
T3
X11.925Y97.962
X17.375Y97.962
T4
X30.15Y95.0
X30.15Y5.0
X95.0Y95.0
X95.0Y5.0
T5
X41.071Y17.25
X41.097Y39.25
X41.124Y61.25
X41.15Y83.25
X61.071Y17.25
X61.097Y39.25
X61.124Y61.25
X61.15Y83.25
X81.071Y17.25
X81.097Y39.25
X81.124Y61.25
X81.15Y83.25
M30
