%TF.GenerationSoftware,KiCad,Pcbnew,9.0.6*%
%TF.CreationDate,2026-07-16T23:14:13+02:00*%
%TF.ProjectId,oled_keyboard,6f6c6564-5f6b-4657-9962-6f6172642e6b,rev?*%
%TF.SameCoordinates,PX4e0ee90PY7c745a0*%
%TF.FileFunction,Legend,Top*%
%TF.FilePolarity,Positive*%
%FSLAX46Y46*%
G04 Gerber Fmt 4.6, Leading zero omitted, Abs format (unit mm)*
G04 Created by KiCad (PCBNEW 9.0.6) date 2026-07-16 23:14:13*
%MOMM*%
%LPD*%
G01*
G04 APERTURE LIST*
%ADD10C,0.100000*%
%ADD11C,0.150000*%
%ADD12C,0.120000*%
%ADD13C,0.127000*%
%ADD14C,0.200000*%
G04 APERTURE END LIST*
D10*
X4950000Y43850000D02*
X24950000Y43850000D01*
X24950000Y3850000D01*
X4950000Y3850000D01*
X4950000Y43850000D01*
D11*
X49483333Y27337705D02*
X49483333Y26766277D01*
X49483333Y26766277D02*
X49445238Y26651991D01*
X49445238Y26651991D02*
X49369047Y26575800D01*
X49369047Y26575800D02*
X49254762Y26537705D01*
X49254762Y26537705D02*
X49178571Y26537705D01*
X49788095Y27337705D02*
X50283333Y27337705D01*
X50283333Y27337705D02*
X50016667Y27032943D01*
X50016667Y27032943D02*
X50130952Y27032943D01*
X50130952Y27032943D02*
X50207143Y26994848D01*
X50207143Y26994848D02*
X50245238Y26956753D01*
X50245238Y26956753D02*
X50283333Y26880562D01*
X50283333Y26880562D02*
X50283333Y26690086D01*
X50283333Y26690086D02*
X50245238Y26613896D01*
X50245238Y26613896D02*
X50207143Y26575800D01*
X50207143Y26575800D02*
X50130952Y26537705D01*
X50130952Y26537705D02*
X49902381Y26537705D01*
X49902381Y26537705D02*
X49826190Y26575800D01*
X49826190Y26575800D02*
X49788095Y26613896D01*
X89702380Y49737705D02*
X89702380Y49166277D01*
X89702380Y49166277D02*
X89664285Y49051991D01*
X89664285Y49051991D02*
X89588094Y48975800D01*
X89588094Y48975800D02*
X89473809Y48937705D01*
X89473809Y48937705D02*
X89397618Y48937705D01*
X90502380Y48937705D02*
X90045237Y48937705D01*
X90273809Y48937705D02*
X90273809Y49737705D01*
X90273809Y49737705D02*
X90197618Y49623420D01*
X90197618Y49623420D02*
X90121428Y49547229D01*
X90121428Y49547229D02*
X90045237Y49509134D01*
X90997619Y49737705D02*
X91073809Y49737705D01*
X91073809Y49737705D02*
X91150000Y49699610D01*
X91150000Y49699610D02*
X91188095Y49661515D01*
X91188095Y49661515D02*
X91226190Y49585324D01*
X91226190Y49585324D02*
X91264285Y49432943D01*
X91264285Y49432943D02*
X91264285Y49242467D01*
X91264285Y49242467D02*
X91226190Y49090086D01*
X91226190Y49090086D02*
X91188095Y49013896D01*
X91188095Y49013896D02*
X91150000Y48975800D01*
X91150000Y48975800D02*
X91073809Y48937705D01*
X91073809Y48937705D02*
X90997619Y48937705D01*
X90997619Y48937705D02*
X90921428Y48975800D01*
X90921428Y48975800D02*
X90883333Y49013896D01*
X90883333Y49013896D02*
X90845238Y49090086D01*
X90845238Y49090086D02*
X90807142Y49242467D01*
X90807142Y49242467D02*
X90807142Y49432943D01*
X90807142Y49432943D02*
X90845238Y49585324D01*
X90845238Y49585324D02*
X90883333Y49661515D01*
X90883333Y49661515D02*
X90921428Y49699610D01*
X90921428Y49699610D02*
X90997619Y49737705D01*
X49683333Y49737705D02*
X49683333Y49166277D01*
X49683333Y49166277D02*
X49645238Y49051991D01*
X49645238Y49051991D02*
X49569047Y48975800D01*
X49569047Y48975800D02*
X49454762Y48937705D01*
X49454762Y48937705D02*
X49378571Y48937705D01*
X50026190Y49661515D02*
X50064286Y49699610D01*
X50064286Y49699610D02*
X50140476Y49737705D01*
X50140476Y49737705D02*
X50330952Y49737705D01*
X50330952Y49737705D02*
X50407143Y49699610D01*
X50407143Y49699610D02*
X50445238Y49661515D01*
X50445238Y49661515D02*
X50483333Y49585324D01*
X50483333Y49585324D02*
X50483333Y49509134D01*
X50483333Y49509134D02*
X50445238Y49394848D01*
X50445238Y49394848D02*
X49988095Y48937705D01*
X49988095Y48937705D02*
X50483333Y48937705D01*
X89702380Y27737705D02*
X89702380Y27166277D01*
X89702380Y27166277D02*
X89664285Y27051991D01*
X89664285Y27051991D02*
X89588094Y26975800D01*
X89588094Y26975800D02*
X89473809Y26937705D01*
X89473809Y26937705D02*
X89397618Y26937705D01*
X90502380Y26937705D02*
X90045237Y26937705D01*
X90273809Y26937705D02*
X90273809Y27737705D01*
X90273809Y27737705D02*
X90197618Y27623420D01*
X90197618Y27623420D02*
X90121428Y27547229D01*
X90121428Y27547229D02*
X90045237Y27509134D01*
X91264285Y26937705D02*
X90807142Y26937705D01*
X91035714Y26937705D02*
X91035714Y27737705D01*
X91035714Y27737705D02*
X90959523Y27623420D01*
X90959523Y27623420D02*
X90883333Y27547229D01*
X90883333Y27547229D02*
X90807142Y27509134D01*
X69683333Y27737705D02*
X69683333Y27166277D01*
X69683333Y27166277D02*
X69645238Y27051991D01*
X69645238Y27051991D02*
X69569047Y26975800D01*
X69569047Y26975800D02*
X69454762Y26937705D01*
X69454762Y26937705D02*
X69378571Y26937705D01*
X69988095Y27737705D02*
X70521429Y27737705D01*
X70521429Y27737705D02*
X70178571Y26937705D01*
X69683333Y49737705D02*
X69683333Y49166277D01*
X69683333Y49166277D02*
X69645238Y49051991D01*
X69645238Y49051991D02*
X69569047Y48975800D01*
X69569047Y48975800D02*
X69454762Y48937705D01*
X69454762Y48937705D02*
X69378571Y48937705D01*
X70407143Y49737705D02*
X70254762Y49737705D01*
X70254762Y49737705D02*
X70178571Y49699610D01*
X70178571Y49699610D02*
X70140476Y49661515D01*
X70140476Y49661515D02*
X70064286Y49547229D01*
X70064286Y49547229D02*
X70026190Y49394848D01*
X70026190Y49394848D02*
X70026190Y49090086D01*
X70026190Y49090086D02*
X70064286Y49013896D01*
X70064286Y49013896D02*
X70102381Y48975800D01*
X70102381Y48975800D02*
X70178571Y48937705D01*
X70178571Y48937705D02*
X70330952Y48937705D01*
X70330952Y48937705D02*
X70407143Y48975800D01*
X70407143Y48975800D02*
X70445238Y49013896D01*
X70445238Y49013896D02*
X70483333Y49090086D01*
X70483333Y49090086D02*
X70483333Y49280562D01*
X70483333Y49280562D02*
X70445238Y49356753D01*
X70445238Y49356753D02*
X70407143Y49394848D01*
X70407143Y49394848D02*
X70330952Y49432943D01*
X70330952Y49432943D02*
X70178571Y49432943D01*
X70178571Y49432943D02*
X70102381Y49394848D01*
X70102381Y49394848D02*
X70064286Y49356753D01*
X70064286Y49356753D02*
X70026190Y49280562D01*
X49444463Y19135229D02*
X49444463Y20135229D01*
X49444463Y20135229D02*
X49682558Y20135229D01*
X49682558Y20135229D02*
X49825415Y20087610D01*
X49825415Y20087610D02*
X49920653Y19992372D01*
X49920653Y19992372D02*
X49968272Y19897134D01*
X49968272Y19897134D02*
X50015891Y19706658D01*
X50015891Y19706658D02*
X50015891Y19563801D01*
X50015891Y19563801D02*
X49968272Y19373325D01*
X49968272Y19373325D02*
X49920653Y19278087D01*
X49920653Y19278087D02*
X49825415Y19182848D01*
X49825415Y19182848D02*
X49682558Y19135229D01*
X49682558Y19135229D02*
X49444463Y19135229D01*
X50968272Y19135229D02*
X50396844Y19135229D01*
X50682558Y19135229D02*
X50682558Y20135229D01*
X50682558Y20135229D02*
X50587320Y19992372D01*
X50587320Y19992372D02*
X50492082Y19897134D01*
X50492082Y19897134D02*
X50396844Y19849515D01*
X51587320Y20135229D02*
X51682558Y20135229D01*
X51682558Y20135229D02*
X51777796Y20087610D01*
X51777796Y20087610D02*
X51825415Y20039991D01*
X51825415Y20039991D02*
X51873034Y19944753D01*
X51873034Y19944753D02*
X51920653Y19754277D01*
X51920653Y19754277D02*
X51920653Y19516182D01*
X51920653Y19516182D02*
X51873034Y19325706D01*
X51873034Y19325706D02*
X51825415Y19230468D01*
X51825415Y19230468D02*
X51777796Y19182848D01*
X51777796Y19182848D02*
X51682558Y19135229D01*
X51682558Y19135229D02*
X51587320Y19135229D01*
X51587320Y19135229D02*
X51492082Y19182848D01*
X51492082Y19182848D02*
X51444463Y19230468D01*
X51444463Y19230468D02*
X51396844Y19325706D01*
X51396844Y19325706D02*
X51349225Y19516182D01*
X51349225Y19516182D02*
X51349225Y19754277D01*
X51349225Y19754277D02*
X51396844Y19944753D01*
X51396844Y19944753D02*
X51444463Y20039991D01*
X51444463Y20039991D02*
X51492082Y20087610D01*
X51492082Y20087610D02*
X51587320Y20135229D01*
X96988095Y4445181D02*
X96988095Y5445181D01*
X96988095Y4968991D02*
X97559523Y4968991D01*
X97559523Y4445181D02*
X97559523Y5445181D01*
X97988095Y5349943D02*
X98035714Y5397562D01*
X98035714Y5397562D02*
X98130952Y5445181D01*
X98130952Y5445181D02*
X98369047Y5445181D01*
X98369047Y5445181D02*
X98464285Y5397562D01*
X98464285Y5397562D02*
X98511904Y5349943D01*
X98511904Y5349943D02*
X98559523Y5254705D01*
X98559523Y5254705D02*
X98559523Y5159467D01*
X98559523Y5159467D02*
X98511904Y5016610D01*
X98511904Y5016610D02*
X97940476Y4445181D01*
X97940476Y4445181D02*
X98559523Y4445181D01*
X8321833Y29035420D02*
X8274214Y28987800D01*
X8274214Y28987800D02*
X8131357Y28940181D01*
X8131357Y28940181D02*
X8036119Y28940181D01*
X8036119Y28940181D02*
X7893262Y28987800D01*
X7893262Y28987800D02*
X7798024Y29083039D01*
X7798024Y29083039D02*
X7750405Y29178277D01*
X7750405Y29178277D02*
X7702786Y29368753D01*
X7702786Y29368753D02*
X7702786Y29511610D01*
X7702786Y29511610D02*
X7750405Y29702086D01*
X7750405Y29702086D02*
X7798024Y29797324D01*
X7798024Y29797324D02*
X7893262Y29892562D01*
X7893262Y29892562D02*
X8036119Y29940181D01*
X8036119Y29940181D02*
X8131357Y29940181D01*
X8131357Y29940181D02*
X8274214Y29892562D01*
X8274214Y29892562D02*
X8321833Y29844943D01*
X8893262Y29511610D02*
X8798024Y29559229D01*
X8798024Y29559229D02*
X8750405Y29606848D01*
X8750405Y29606848D02*
X8702786Y29702086D01*
X8702786Y29702086D02*
X8702786Y29749705D01*
X8702786Y29749705D02*
X8750405Y29844943D01*
X8750405Y29844943D02*
X8798024Y29892562D01*
X8798024Y29892562D02*
X8893262Y29940181D01*
X8893262Y29940181D02*
X9083738Y29940181D01*
X9083738Y29940181D02*
X9178976Y29892562D01*
X9178976Y29892562D02*
X9226595Y29844943D01*
X9226595Y29844943D02*
X9274214Y29749705D01*
X9274214Y29749705D02*
X9274214Y29702086D01*
X9274214Y29702086D02*
X9226595Y29606848D01*
X9226595Y29606848D02*
X9178976Y29559229D01*
X9178976Y29559229D02*
X9083738Y29511610D01*
X9083738Y29511610D02*
X8893262Y29511610D01*
X8893262Y29511610D02*
X8798024Y29463991D01*
X8798024Y29463991D02*
X8750405Y29416372D01*
X8750405Y29416372D02*
X8702786Y29321134D01*
X8702786Y29321134D02*
X8702786Y29130658D01*
X8702786Y29130658D02*
X8750405Y29035420D01*
X8750405Y29035420D02*
X8798024Y28987800D01*
X8798024Y28987800D02*
X8893262Y28940181D01*
X8893262Y28940181D02*
X9083738Y28940181D01*
X9083738Y28940181D02*
X9178976Y28987800D01*
X9178976Y28987800D02*
X9226595Y29035420D01*
X9226595Y29035420D02*
X9274214Y29130658D01*
X9274214Y29130658D02*
X9274214Y29321134D01*
X9274214Y29321134D02*
X9226595Y29416372D01*
X9226595Y29416372D02*
X9178976Y29463991D01*
X9178976Y29463991D02*
X9083738Y29511610D01*
X30491819Y58991143D02*
X30015628Y58657810D01*
X30491819Y58419715D02*
X29491819Y58419715D01*
X29491819Y58419715D02*
X29491819Y58800667D01*
X29491819Y58800667D02*
X29539438Y58895905D01*
X29539438Y58895905D02*
X29587057Y58943524D01*
X29587057Y58943524D02*
X29682295Y58991143D01*
X29682295Y58991143D02*
X29825152Y58991143D01*
X29825152Y58991143D02*
X29920390Y58943524D01*
X29920390Y58943524D02*
X29968009Y58895905D01*
X29968009Y58895905D02*
X30015628Y58800667D01*
X30015628Y58800667D02*
X30015628Y58419715D01*
X30491819Y59943524D02*
X30491819Y59372096D01*
X30491819Y59657810D02*
X29491819Y59657810D01*
X29491819Y59657810D02*
X29634676Y59562572D01*
X29634676Y59562572D02*
X29729914Y59467334D01*
X29729914Y59467334D02*
X29777533Y59372096D01*
X29920390Y60514953D02*
X29872771Y60419715D01*
X29872771Y60419715D02*
X29825152Y60372096D01*
X29825152Y60372096D02*
X29729914Y60324477D01*
X29729914Y60324477D02*
X29682295Y60324477D01*
X29682295Y60324477D02*
X29587057Y60372096D01*
X29587057Y60372096D02*
X29539438Y60419715D01*
X29539438Y60419715D02*
X29491819Y60514953D01*
X29491819Y60514953D02*
X29491819Y60705429D01*
X29491819Y60705429D02*
X29539438Y60800667D01*
X29539438Y60800667D02*
X29587057Y60848286D01*
X29587057Y60848286D02*
X29682295Y60895905D01*
X29682295Y60895905D02*
X29729914Y60895905D01*
X29729914Y60895905D02*
X29825152Y60848286D01*
X29825152Y60848286D02*
X29872771Y60800667D01*
X29872771Y60800667D02*
X29920390Y60705429D01*
X29920390Y60705429D02*
X29920390Y60514953D01*
X29920390Y60514953D02*
X29968009Y60419715D01*
X29968009Y60419715D02*
X30015628Y60372096D01*
X30015628Y60372096D02*
X30110866Y60324477D01*
X30110866Y60324477D02*
X30301342Y60324477D01*
X30301342Y60324477D02*
X30396580Y60372096D01*
X30396580Y60372096D02*
X30444200Y60419715D01*
X30444200Y60419715D02*
X30491819Y60514953D01*
X30491819Y60514953D02*
X30491819Y60705429D01*
X30491819Y60705429D02*
X30444200Y60800667D01*
X30444200Y60800667D02*
X30396580Y60848286D01*
X30396580Y60848286D02*
X30301342Y60895905D01*
X30301342Y60895905D02*
X30110866Y60895905D01*
X30110866Y60895905D02*
X30015628Y60848286D01*
X30015628Y60848286D02*
X29968009Y60800667D01*
X29968009Y60800667D02*
X29920390Y60705429D01*
X69290250Y61442816D02*
X69433107Y61395197D01*
X69433107Y61395197D02*
X69671202Y61395197D01*
X69671202Y61395197D02*
X69766440Y61442816D01*
X69766440Y61442816D02*
X69814059Y61490436D01*
X69814059Y61490436D02*
X69861678Y61585674D01*
X69861678Y61585674D02*
X69861678Y61680912D01*
X69861678Y61680912D02*
X69814059Y61776150D01*
X69814059Y61776150D02*
X69766440Y61823769D01*
X69766440Y61823769D02*
X69671202Y61871388D01*
X69671202Y61871388D02*
X69480726Y61919007D01*
X69480726Y61919007D02*
X69385488Y61966626D01*
X69385488Y61966626D02*
X69337869Y62014245D01*
X69337869Y62014245D02*
X69290250Y62109483D01*
X69290250Y62109483D02*
X69290250Y62204721D01*
X69290250Y62204721D02*
X69337869Y62299959D01*
X69337869Y62299959D02*
X69385488Y62347578D01*
X69385488Y62347578D02*
X69480726Y62395197D01*
X69480726Y62395197D02*
X69718821Y62395197D01*
X69718821Y62395197D02*
X69861678Y62347578D01*
X70195012Y62395197D02*
X70433107Y61395197D01*
X70433107Y61395197D02*
X70623583Y62109483D01*
X70623583Y62109483D02*
X70814059Y61395197D01*
X70814059Y61395197D02*
X71052155Y62395197D01*
X71909297Y62395197D02*
X71433107Y62395197D01*
X71433107Y62395197D02*
X71385488Y61919007D01*
X71385488Y61919007D02*
X71433107Y61966626D01*
X71433107Y61966626D02*
X71528345Y62014245D01*
X71528345Y62014245D02*
X71766440Y62014245D01*
X71766440Y62014245D02*
X71861678Y61966626D01*
X71861678Y61966626D02*
X71909297Y61919007D01*
X71909297Y61919007D02*
X71956916Y61823769D01*
X71956916Y61823769D02*
X71956916Y61585674D01*
X71956916Y61585674D02*
X71909297Y61490436D01*
X71909297Y61490436D02*
X71861678Y61442816D01*
X71861678Y61442816D02*
X71766440Y61395197D01*
X71766440Y61395197D02*
X71528345Y61395197D01*
X71528345Y61395197D02*
X71433107Y61442816D01*
X71433107Y61442816D02*
X71385488Y61490436D01*
X48761225Y17442848D02*
X48904082Y17395229D01*
X48904082Y17395229D02*
X49142177Y17395229D01*
X49142177Y17395229D02*
X49237415Y17442848D01*
X49237415Y17442848D02*
X49285034Y17490468D01*
X49285034Y17490468D02*
X49332653Y17585706D01*
X49332653Y17585706D02*
X49332653Y17680944D01*
X49332653Y17680944D02*
X49285034Y17776182D01*
X49285034Y17776182D02*
X49237415Y17823801D01*
X49237415Y17823801D02*
X49142177Y17871420D01*
X49142177Y17871420D02*
X48951701Y17919039D01*
X48951701Y17919039D02*
X48856463Y17966658D01*
X48856463Y17966658D02*
X48808844Y18014277D01*
X48808844Y18014277D02*
X48761225Y18109515D01*
X48761225Y18109515D02*
X48761225Y18204753D01*
X48761225Y18204753D02*
X48808844Y18299991D01*
X48808844Y18299991D02*
X48856463Y18347610D01*
X48856463Y18347610D02*
X48951701Y18395229D01*
X48951701Y18395229D02*
X49189796Y18395229D01*
X49189796Y18395229D02*
X49332653Y18347610D01*
X49665987Y18395229D02*
X49904082Y17395229D01*
X49904082Y17395229D02*
X50094558Y18109515D01*
X50094558Y18109515D02*
X50285034Y17395229D01*
X50285034Y17395229D02*
X50523130Y18395229D01*
X51427891Y17395229D02*
X50856463Y17395229D01*
X51142177Y17395229D02*
X51142177Y18395229D01*
X51142177Y18395229D02*
X51046939Y18252372D01*
X51046939Y18252372D02*
X50951701Y18157134D01*
X50951701Y18157134D02*
X50856463Y18109515D01*
X52046939Y18395229D02*
X52142177Y18395229D01*
X52142177Y18395229D02*
X52237415Y18347610D01*
X52237415Y18347610D02*
X52285034Y18299991D01*
X52285034Y18299991D02*
X52332653Y18204753D01*
X52332653Y18204753D02*
X52380272Y18014277D01*
X52380272Y18014277D02*
X52380272Y17776182D01*
X52380272Y17776182D02*
X52332653Y17585706D01*
X52332653Y17585706D02*
X52285034Y17490468D01*
X52285034Y17490468D02*
X52237415Y17442848D01*
X52237415Y17442848D02*
X52142177Y17395229D01*
X52142177Y17395229D02*
X52046939Y17395229D01*
X52046939Y17395229D02*
X51951701Y17442848D01*
X51951701Y17442848D02*
X51904082Y17490468D01*
X51904082Y17490468D02*
X51856463Y17585706D01*
X51856463Y17585706D02*
X51808844Y17776182D01*
X51808844Y17776182D02*
X51808844Y18014277D01*
X51808844Y18014277D02*
X51856463Y18204753D01*
X51856463Y18204753D02*
X51904082Y18299991D01*
X51904082Y18299991D02*
X51951701Y18347610D01*
X51951701Y18347610D02*
X52046939Y18395229D01*
X3688095Y47693181D02*
X4259523Y47693181D01*
X3973809Y46693181D02*
X3973809Y47693181D01*
X4592857Y46693181D02*
X4592857Y47693181D01*
X4592857Y47693181D02*
X4973809Y47693181D01*
X4973809Y47693181D02*
X5069047Y47645562D01*
X5069047Y47645562D02*
X5116666Y47597943D01*
X5116666Y47597943D02*
X5164285Y47502705D01*
X5164285Y47502705D02*
X5164285Y47359848D01*
X5164285Y47359848D02*
X5116666Y47264610D01*
X5116666Y47264610D02*
X5069047Y47216991D01*
X5069047Y47216991D02*
X4973809Y47169372D01*
X4973809Y47169372D02*
X4592857Y47169372D01*
X5735714Y47264610D02*
X5640476Y47312229D01*
X5640476Y47312229D02*
X5592857Y47359848D01*
X5592857Y47359848D02*
X5545238Y47455086D01*
X5545238Y47455086D02*
X5545238Y47502705D01*
X5545238Y47502705D02*
X5592857Y47597943D01*
X5592857Y47597943D02*
X5640476Y47645562D01*
X5640476Y47645562D02*
X5735714Y47693181D01*
X5735714Y47693181D02*
X5926190Y47693181D01*
X5926190Y47693181D02*
X6021428Y47645562D01*
X6021428Y47645562D02*
X6069047Y47597943D01*
X6069047Y47597943D02*
X6116666Y47502705D01*
X6116666Y47502705D02*
X6116666Y47455086D01*
X6116666Y47455086D02*
X6069047Y47359848D01*
X6069047Y47359848D02*
X6021428Y47312229D01*
X6021428Y47312229D02*
X5926190Y47264610D01*
X5926190Y47264610D02*
X5735714Y47264610D01*
X5735714Y47264610D02*
X5640476Y47216991D01*
X5640476Y47216991D02*
X5592857Y47169372D01*
X5592857Y47169372D02*
X5545238Y47074134D01*
X5545238Y47074134D02*
X5545238Y46883658D01*
X5545238Y46883658D02*
X5592857Y46788420D01*
X5592857Y46788420D02*
X5640476Y46740800D01*
X5640476Y46740800D02*
X5735714Y46693181D01*
X5735714Y46693181D02*
X5926190Y46693181D01*
X5926190Y46693181D02*
X6021428Y46740800D01*
X6021428Y46740800D02*
X6069047Y46788420D01*
X6069047Y46788420D02*
X6116666Y46883658D01*
X6116666Y46883658D02*
X6116666Y47074134D01*
X6116666Y47074134D02*
X6069047Y47169372D01*
X6069047Y47169372D02*
X6021428Y47216991D01*
X6021428Y47216991D02*
X5926190Y47264610D01*
X89263833Y39442832D02*
X89406690Y39395213D01*
X89406690Y39395213D02*
X89644785Y39395213D01*
X89644785Y39395213D02*
X89740023Y39442832D01*
X89740023Y39442832D02*
X89787642Y39490452D01*
X89787642Y39490452D02*
X89835261Y39585690D01*
X89835261Y39585690D02*
X89835261Y39680928D01*
X89835261Y39680928D02*
X89787642Y39776166D01*
X89787642Y39776166D02*
X89740023Y39823785D01*
X89740023Y39823785D02*
X89644785Y39871404D01*
X89644785Y39871404D02*
X89454309Y39919023D01*
X89454309Y39919023D02*
X89359071Y39966642D01*
X89359071Y39966642D02*
X89311452Y40014261D01*
X89311452Y40014261D02*
X89263833Y40109499D01*
X89263833Y40109499D02*
X89263833Y40204737D01*
X89263833Y40204737D02*
X89311452Y40299975D01*
X89311452Y40299975D02*
X89359071Y40347594D01*
X89359071Y40347594D02*
X89454309Y40395213D01*
X89454309Y40395213D02*
X89692404Y40395213D01*
X89692404Y40395213D02*
X89835261Y40347594D01*
X90168595Y40395213D02*
X90406690Y39395213D01*
X90406690Y39395213D02*
X90597166Y40109499D01*
X90597166Y40109499D02*
X90787642Y39395213D01*
X90787642Y39395213D02*
X91025738Y40395213D01*
X91454309Y39395213D02*
X91644785Y39395213D01*
X91644785Y39395213D02*
X91740023Y39442832D01*
X91740023Y39442832D02*
X91787642Y39490452D01*
X91787642Y39490452D02*
X91882880Y39633309D01*
X91882880Y39633309D02*
X91930499Y39823785D01*
X91930499Y39823785D02*
X91930499Y40204737D01*
X91930499Y40204737D02*
X91882880Y40299975D01*
X91882880Y40299975D02*
X91835261Y40347594D01*
X91835261Y40347594D02*
X91740023Y40395213D01*
X91740023Y40395213D02*
X91549547Y40395213D01*
X91549547Y40395213D02*
X91454309Y40347594D01*
X91454309Y40347594D02*
X91406690Y40299975D01*
X91406690Y40299975D02*
X91359071Y40204737D01*
X91359071Y40204737D02*
X91359071Y39966642D01*
X91359071Y39966642D02*
X91406690Y39871404D01*
X91406690Y39871404D02*
X91454309Y39823785D01*
X91454309Y39823785D02*
X91549547Y39776166D01*
X91549547Y39776166D02*
X91740023Y39776166D01*
X91740023Y39776166D02*
X91835261Y39823785D01*
X91835261Y39823785D02*
X91882880Y39871404D01*
X91882880Y39871404D02*
X91930499Y39966642D01*
X89947071Y41135213D02*
X89947071Y42135213D01*
X89947071Y42135213D02*
X90185166Y42135213D01*
X90185166Y42135213D02*
X90328023Y42087594D01*
X90328023Y42087594D02*
X90423261Y41992356D01*
X90423261Y41992356D02*
X90470880Y41897118D01*
X90470880Y41897118D02*
X90518499Y41706642D01*
X90518499Y41706642D02*
X90518499Y41563785D01*
X90518499Y41563785D02*
X90470880Y41373309D01*
X90470880Y41373309D02*
X90423261Y41278071D01*
X90423261Y41278071D02*
X90328023Y41182832D01*
X90328023Y41182832D02*
X90185166Y41135213D01*
X90185166Y41135213D02*
X89947071Y41135213D01*
X90994690Y41135213D02*
X91185166Y41135213D01*
X91185166Y41135213D02*
X91280404Y41182832D01*
X91280404Y41182832D02*
X91328023Y41230452D01*
X91328023Y41230452D02*
X91423261Y41373309D01*
X91423261Y41373309D02*
X91470880Y41563785D01*
X91470880Y41563785D02*
X91470880Y41944737D01*
X91470880Y41944737D02*
X91423261Y42039975D01*
X91423261Y42039975D02*
X91375642Y42087594D01*
X91375642Y42087594D02*
X91280404Y42135213D01*
X91280404Y42135213D02*
X91089928Y42135213D01*
X91089928Y42135213D02*
X90994690Y42087594D01*
X90994690Y42087594D02*
X90947071Y42039975D01*
X90947071Y42039975D02*
X90899452Y41944737D01*
X90899452Y41944737D02*
X90899452Y41706642D01*
X90899452Y41706642D02*
X90947071Y41611404D01*
X90947071Y41611404D02*
X90994690Y41563785D01*
X90994690Y41563785D02*
X91089928Y41516166D01*
X91089928Y41516166D02*
X91280404Y41516166D01*
X91280404Y41516166D02*
X91375642Y41563785D01*
X91375642Y41563785D02*
X91423261Y41611404D01*
X91423261Y41611404D02*
X91470880Y41706642D01*
X94688095Y81045181D02*
X95259523Y81045181D01*
X94973809Y80045181D02*
X94973809Y81045181D01*
X95592857Y80045181D02*
X95592857Y81045181D01*
X95592857Y81045181D02*
X95973809Y81045181D01*
X95973809Y81045181D02*
X96069047Y80997562D01*
X96069047Y80997562D02*
X96116666Y80949943D01*
X96116666Y80949943D02*
X96164285Y80854705D01*
X96164285Y80854705D02*
X96164285Y80711848D01*
X96164285Y80711848D02*
X96116666Y80616610D01*
X96116666Y80616610D02*
X96069047Y80568991D01*
X96069047Y80568991D02*
X95973809Y80521372D01*
X95973809Y80521372D02*
X95592857Y80521372D01*
X96640476Y80045181D02*
X96830952Y80045181D01*
X96830952Y80045181D02*
X96926190Y80092800D01*
X96926190Y80092800D02*
X96973809Y80140420D01*
X96973809Y80140420D02*
X97069047Y80283277D01*
X97069047Y80283277D02*
X97116666Y80473753D01*
X97116666Y80473753D02*
X97116666Y80854705D01*
X97116666Y80854705D02*
X97069047Y80949943D01*
X97069047Y80949943D02*
X97021428Y80997562D01*
X97021428Y80997562D02*
X96926190Y81045181D01*
X96926190Y81045181D02*
X96735714Y81045181D01*
X96735714Y81045181D02*
X96640476Y80997562D01*
X96640476Y80997562D02*
X96592857Y80949943D01*
X96592857Y80949943D02*
X96545238Y80854705D01*
X96545238Y80854705D02*
X96545238Y80616610D01*
X96545238Y80616610D02*
X96592857Y80521372D01*
X96592857Y80521372D02*
X96640476Y80473753D01*
X96640476Y80473753D02*
X96735714Y80426134D01*
X96735714Y80426134D02*
X96926190Y80426134D01*
X96926190Y80426134D02*
X97021428Y80473753D01*
X97021428Y80473753D02*
X97069047Y80521372D01*
X97069047Y80521372D02*
X97116666Y80616610D01*
X89444463Y19135229D02*
X89444463Y20135229D01*
X89444463Y20135229D02*
X89682558Y20135229D01*
X89682558Y20135229D02*
X89825415Y20087610D01*
X89825415Y20087610D02*
X89920653Y19992372D01*
X89920653Y19992372D02*
X89968272Y19897134D01*
X89968272Y19897134D02*
X90015891Y19706658D01*
X90015891Y19706658D02*
X90015891Y19563801D01*
X90015891Y19563801D02*
X89968272Y19373325D01*
X89968272Y19373325D02*
X89920653Y19278087D01*
X89920653Y19278087D02*
X89825415Y19182848D01*
X89825415Y19182848D02*
X89682558Y19135229D01*
X89682558Y19135229D02*
X89444463Y19135229D01*
X90968272Y19135229D02*
X90396844Y19135229D01*
X90682558Y19135229D02*
X90682558Y20135229D01*
X90682558Y20135229D02*
X90587320Y19992372D01*
X90587320Y19992372D02*
X90492082Y19897134D01*
X90492082Y19897134D02*
X90396844Y19849515D01*
X91349225Y20039991D02*
X91396844Y20087610D01*
X91396844Y20087610D02*
X91492082Y20135229D01*
X91492082Y20135229D02*
X91730177Y20135229D01*
X91730177Y20135229D02*
X91825415Y20087610D01*
X91825415Y20087610D02*
X91873034Y20039991D01*
X91873034Y20039991D02*
X91920653Y19944753D01*
X91920653Y19944753D02*
X91920653Y19849515D01*
X91920653Y19849515D02*
X91873034Y19706658D01*
X91873034Y19706658D02*
X91301606Y19135229D01*
X91301606Y19135229D02*
X91920653Y19135229D01*
X69947071Y41135213D02*
X69947071Y42135213D01*
X69947071Y42135213D02*
X70185166Y42135213D01*
X70185166Y42135213D02*
X70328023Y42087594D01*
X70328023Y42087594D02*
X70423261Y41992356D01*
X70423261Y41992356D02*
X70470880Y41897118D01*
X70470880Y41897118D02*
X70518499Y41706642D01*
X70518499Y41706642D02*
X70518499Y41563785D01*
X70518499Y41563785D02*
X70470880Y41373309D01*
X70470880Y41373309D02*
X70423261Y41278071D01*
X70423261Y41278071D02*
X70328023Y41182832D01*
X70328023Y41182832D02*
X70185166Y41135213D01*
X70185166Y41135213D02*
X69947071Y41135213D01*
X71089928Y41706642D02*
X70994690Y41754261D01*
X70994690Y41754261D02*
X70947071Y41801880D01*
X70947071Y41801880D02*
X70899452Y41897118D01*
X70899452Y41897118D02*
X70899452Y41944737D01*
X70899452Y41944737D02*
X70947071Y42039975D01*
X70947071Y42039975D02*
X70994690Y42087594D01*
X70994690Y42087594D02*
X71089928Y42135213D01*
X71089928Y42135213D02*
X71280404Y42135213D01*
X71280404Y42135213D02*
X71375642Y42087594D01*
X71375642Y42087594D02*
X71423261Y42039975D01*
X71423261Y42039975D02*
X71470880Y41944737D01*
X71470880Y41944737D02*
X71470880Y41897118D01*
X71470880Y41897118D02*
X71423261Y41801880D01*
X71423261Y41801880D02*
X71375642Y41754261D01*
X71375642Y41754261D02*
X71280404Y41706642D01*
X71280404Y41706642D02*
X71089928Y41706642D01*
X71089928Y41706642D02*
X70994690Y41659023D01*
X70994690Y41659023D02*
X70947071Y41611404D01*
X70947071Y41611404D02*
X70899452Y41516166D01*
X70899452Y41516166D02*
X70899452Y41325690D01*
X70899452Y41325690D02*
X70947071Y41230452D01*
X70947071Y41230452D02*
X70994690Y41182832D01*
X70994690Y41182832D02*
X71089928Y41135213D01*
X71089928Y41135213D02*
X71280404Y41135213D01*
X71280404Y41135213D02*
X71375642Y41182832D01*
X71375642Y41182832D02*
X71423261Y41230452D01*
X71423261Y41230452D02*
X71470880Y41325690D01*
X71470880Y41325690D02*
X71470880Y41516166D01*
X71470880Y41516166D02*
X71423261Y41611404D01*
X71423261Y41611404D02*
X71375642Y41659023D01*
X71375642Y41659023D02*
X71280404Y41706642D01*
X49683333Y71737705D02*
X49683333Y71166277D01*
X49683333Y71166277D02*
X49645238Y71051991D01*
X49645238Y71051991D02*
X49569047Y70975800D01*
X49569047Y70975800D02*
X49454762Y70937705D01*
X49454762Y70937705D02*
X49378571Y70937705D01*
X50483333Y70937705D02*
X50026190Y70937705D01*
X50254762Y70937705D02*
X50254762Y71737705D01*
X50254762Y71737705D02*
X50178571Y71623420D01*
X50178571Y71623420D02*
X50102381Y71547229D01*
X50102381Y71547229D02*
X50026190Y71509134D01*
X26686660Y49028396D02*
X27162850Y49028396D01*
X26591422Y48742681D02*
X26924755Y49742681D01*
X26924755Y49742681D02*
X27258088Y48742681D01*
X28115231Y48742681D02*
X27543803Y48742681D01*
X27829517Y48742681D02*
X27829517Y49742681D01*
X27829517Y49742681D02*
X27734279Y49599824D01*
X27734279Y49599824D02*
X27639041Y49504586D01*
X27639041Y49504586D02*
X27543803Y49456967D01*
X8183333Y24340420D02*
X8135714Y24292800D01*
X8135714Y24292800D02*
X7992857Y24245181D01*
X7992857Y24245181D02*
X7897619Y24245181D01*
X7897619Y24245181D02*
X7754762Y24292800D01*
X7754762Y24292800D02*
X7659524Y24388039D01*
X7659524Y24388039D02*
X7611905Y24483277D01*
X7611905Y24483277D02*
X7564286Y24673753D01*
X7564286Y24673753D02*
X7564286Y24816610D01*
X7564286Y24816610D02*
X7611905Y25007086D01*
X7611905Y25007086D02*
X7659524Y25102324D01*
X7659524Y25102324D02*
X7754762Y25197562D01*
X7754762Y25197562D02*
X7897619Y25245181D01*
X7897619Y25245181D02*
X7992857Y25245181D01*
X7992857Y25245181D02*
X8135714Y25197562D01*
X8135714Y25197562D02*
X8183333Y25149943D01*
X9040476Y25245181D02*
X8850000Y25245181D01*
X8850000Y25245181D02*
X8754762Y25197562D01*
X8754762Y25197562D02*
X8707143Y25149943D01*
X8707143Y25149943D02*
X8611905Y25007086D01*
X8611905Y25007086D02*
X8564286Y24816610D01*
X8564286Y24816610D02*
X8564286Y24435658D01*
X8564286Y24435658D02*
X8611905Y24340420D01*
X8611905Y24340420D02*
X8659524Y24292800D01*
X8659524Y24292800D02*
X8754762Y24245181D01*
X8754762Y24245181D02*
X8945238Y24245181D01*
X8945238Y24245181D02*
X9040476Y24292800D01*
X9040476Y24292800D02*
X9088095Y24340420D01*
X9088095Y24340420D02*
X9135714Y24435658D01*
X9135714Y24435658D02*
X9135714Y24673753D01*
X9135714Y24673753D02*
X9088095Y24768991D01*
X9088095Y24768991D02*
X9040476Y24816610D01*
X9040476Y24816610D02*
X8945238Y24864229D01*
X8945238Y24864229D02*
X8754762Y24864229D01*
X8754762Y24864229D02*
X8659524Y24816610D01*
X8659524Y24816610D02*
X8611905Y24768991D01*
X8611905Y24768991D02*
X8564286Y24673753D01*
X5815681Y16340420D02*
X5768062Y16292800D01*
X5768062Y16292800D02*
X5625205Y16245181D01*
X5625205Y16245181D02*
X5529967Y16245181D01*
X5529967Y16245181D02*
X5387110Y16292800D01*
X5387110Y16292800D02*
X5291872Y16388039D01*
X5291872Y16388039D02*
X5244253Y16483277D01*
X5244253Y16483277D02*
X5196634Y16673753D01*
X5196634Y16673753D02*
X5196634Y16816610D01*
X5196634Y16816610D02*
X5244253Y17007086D01*
X5244253Y17007086D02*
X5291872Y17102324D01*
X5291872Y17102324D02*
X5387110Y17197562D01*
X5387110Y17197562D02*
X5529967Y17245181D01*
X5529967Y17245181D02*
X5625205Y17245181D01*
X5625205Y17245181D02*
X5768062Y17197562D01*
X5768062Y17197562D02*
X5815681Y17149943D01*
X6768062Y16245181D02*
X6196634Y16245181D01*
X6482348Y16245181D02*
X6482348Y17245181D01*
X6482348Y17245181D02*
X6387110Y17102324D01*
X6387110Y17102324D02*
X6291872Y17007086D01*
X6291872Y17007086D02*
X6196634Y16959467D01*
X7625205Y16911848D02*
X7625205Y16245181D01*
X7387110Y17292800D02*
X7149015Y16578515D01*
X7149015Y16578515D02*
X7768062Y16578515D01*
X16618838Y27889500D02*
X16618838Y27240683D01*
X16618838Y27240683D02*
X16657004Y27164351D01*
X16657004Y27164351D02*
X16695170Y27126185D01*
X16695170Y27126185D02*
X16771501Y27088020D01*
X16771501Y27088020D02*
X16924164Y27088020D01*
X16924164Y27088020D02*
X17000495Y27126185D01*
X17000495Y27126185D02*
X17038661Y27164351D01*
X17038661Y27164351D02*
X17076827Y27240683D01*
X17076827Y27240683D02*
X17076827Y27889500D01*
X17878307Y27088020D02*
X17420318Y27088020D01*
X17649313Y27088020D02*
X17649313Y27889500D01*
X17649313Y27889500D02*
X17572981Y27775003D01*
X17572981Y27775003D02*
X17496650Y27698671D01*
X17496650Y27698671D02*
X17420318Y27660505D01*
X32388095Y94445181D02*
X32388095Y95445181D01*
X32388095Y94968991D02*
X32959523Y94968991D01*
X32959523Y94445181D02*
X32959523Y95445181D01*
X33864285Y95111848D02*
X33864285Y94445181D01*
X33626190Y95492800D02*
X33388095Y94778515D01*
X33388095Y94778515D02*
X34007142Y94778515D01*
X26870095Y3199181D02*
X27441523Y3199181D01*
X27155809Y2199181D02*
X27155809Y3199181D01*
X27774857Y2199181D02*
X27774857Y3199181D01*
X27774857Y3199181D02*
X28155809Y3199181D01*
X28155809Y3199181D02*
X28251047Y3151562D01*
X28251047Y3151562D02*
X28298666Y3103943D01*
X28298666Y3103943D02*
X28346285Y3008705D01*
X28346285Y3008705D02*
X28346285Y2865848D01*
X28346285Y2865848D02*
X28298666Y2770610D01*
X28298666Y2770610D02*
X28251047Y2722991D01*
X28251047Y2722991D02*
X28155809Y2675372D01*
X28155809Y2675372D02*
X27774857Y2675372D01*
X29298666Y2199181D02*
X28727238Y2199181D01*
X29012952Y2199181D02*
X29012952Y3199181D01*
X29012952Y3199181D02*
X28917714Y3056324D01*
X28917714Y3056324D02*
X28822476Y2961086D01*
X28822476Y2961086D02*
X28727238Y2913467D01*
X96988095Y94445181D02*
X96988095Y95445181D01*
X96988095Y94968991D02*
X97559523Y94968991D01*
X97559523Y94445181D02*
X97559523Y95445181D01*
X98559523Y94445181D02*
X97988095Y94445181D01*
X98273809Y94445181D02*
X98273809Y95445181D01*
X98273809Y95445181D02*
X98178571Y95302324D01*
X98178571Y95302324D02*
X98083333Y95207086D01*
X98083333Y95207086D02*
X97988095Y95159467D01*
X69483333Y5337705D02*
X69483333Y4766277D01*
X69483333Y4766277D02*
X69445238Y4651991D01*
X69445238Y4651991D02*
X69369047Y4575800D01*
X69369047Y4575800D02*
X69254762Y4537705D01*
X69254762Y4537705D02*
X69178571Y4537705D01*
X69978571Y4994848D02*
X69902381Y5032943D01*
X69902381Y5032943D02*
X69864286Y5071039D01*
X69864286Y5071039D02*
X69826190Y5147229D01*
X69826190Y5147229D02*
X69826190Y5185324D01*
X69826190Y5185324D02*
X69864286Y5261515D01*
X69864286Y5261515D02*
X69902381Y5299610D01*
X69902381Y5299610D02*
X69978571Y5337705D01*
X69978571Y5337705D02*
X70130952Y5337705D01*
X70130952Y5337705D02*
X70207143Y5299610D01*
X70207143Y5299610D02*
X70245238Y5261515D01*
X70245238Y5261515D02*
X70283333Y5185324D01*
X70283333Y5185324D02*
X70283333Y5147229D01*
X70283333Y5147229D02*
X70245238Y5071039D01*
X70245238Y5071039D02*
X70207143Y5032943D01*
X70207143Y5032943D02*
X70130952Y4994848D01*
X70130952Y4994848D02*
X69978571Y4994848D01*
X69978571Y4994848D02*
X69902381Y4956753D01*
X69902381Y4956753D02*
X69864286Y4918658D01*
X69864286Y4918658D02*
X69826190Y4842467D01*
X69826190Y4842467D02*
X69826190Y4690086D01*
X69826190Y4690086D02*
X69864286Y4613896D01*
X69864286Y4613896D02*
X69902381Y4575800D01*
X69902381Y4575800D02*
X69978571Y4537705D01*
X69978571Y4537705D02*
X70130952Y4537705D01*
X70130952Y4537705D02*
X70207143Y4575800D01*
X70207143Y4575800D02*
X70245238Y4613896D01*
X70245238Y4613896D02*
X70283333Y4690086D01*
X70283333Y4690086D02*
X70283333Y4842467D01*
X70283333Y4842467D02*
X70245238Y4918658D01*
X70245238Y4918658D02*
X70207143Y4956753D01*
X70207143Y4956753D02*
X70130952Y4994848D01*
X5815681Y19140420D02*
X5768062Y19092800D01*
X5768062Y19092800D02*
X5625205Y19045181D01*
X5625205Y19045181D02*
X5529967Y19045181D01*
X5529967Y19045181D02*
X5387110Y19092800D01*
X5387110Y19092800D02*
X5291872Y19188039D01*
X5291872Y19188039D02*
X5244253Y19283277D01*
X5244253Y19283277D02*
X5196634Y19473753D01*
X5196634Y19473753D02*
X5196634Y19616610D01*
X5196634Y19616610D02*
X5244253Y19807086D01*
X5244253Y19807086D02*
X5291872Y19902324D01*
X5291872Y19902324D02*
X5387110Y19997562D01*
X5387110Y19997562D02*
X5529967Y20045181D01*
X5529967Y20045181D02*
X5625205Y20045181D01*
X5625205Y20045181D02*
X5768062Y19997562D01*
X5768062Y19997562D02*
X5815681Y19949943D01*
X6768062Y19045181D02*
X6196634Y19045181D01*
X6482348Y19045181D02*
X6482348Y20045181D01*
X6482348Y20045181D02*
X6387110Y19902324D01*
X6387110Y19902324D02*
X6291872Y19807086D01*
X6291872Y19807086D02*
X6196634Y19759467D01*
X7672824Y20045181D02*
X7196634Y20045181D01*
X7196634Y20045181D02*
X7149015Y19568991D01*
X7149015Y19568991D02*
X7196634Y19616610D01*
X7196634Y19616610D02*
X7291872Y19664229D01*
X7291872Y19664229D02*
X7529967Y19664229D01*
X7529967Y19664229D02*
X7625205Y19616610D01*
X7625205Y19616610D02*
X7672824Y19568991D01*
X7672824Y19568991D02*
X7720443Y19473753D01*
X7720443Y19473753D02*
X7720443Y19235658D01*
X7720443Y19235658D02*
X7672824Y19140420D01*
X7672824Y19140420D02*
X7625205Y19092800D01*
X7625205Y19092800D02*
X7529967Y19045181D01*
X7529967Y19045181D02*
X7291872Y19045181D01*
X7291872Y19045181D02*
X7196634Y19092800D01*
X7196634Y19092800D02*
X7149015Y19140420D01*
X5815681Y21796392D02*
X5768062Y21748772D01*
X5768062Y21748772D02*
X5625205Y21701153D01*
X5625205Y21701153D02*
X5529967Y21701153D01*
X5529967Y21701153D02*
X5387110Y21748772D01*
X5387110Y21748772D02*
X5291872Y21844011D01*
X5291872Y21844011D02*
X5244253Y21939249D01*
X5244253Y21939249D02*
X5196634Y22129725D01*
X5196634Y22129725D02*
X5196634Y22272582D01*
X5196634Y22272582D02*
X5244253Y22463058D01*
X5244253Y22463058D02*
X5291872Y22558296D01*
X5291872Y22558296D02*
X5387110Y22653534D01*
X5387110Y22653534D02*
X5529967Y22701153D01*
X5529967Y22701153D02*
X5625205Y22701153D01*
X5625205Y22701153D02*
X5768062Y22653534D01*
X5768062Y22653534D02*
X5815681Y22605915D01*
X6768062Y21701153D02*
X6196634Y21701153D01*
X6482348Y21701153D02*
X6482348Y22701153D01*
X6482348Y22701153D02*
X6387110Y22558296D01*
X6387110Y22558296D02*
X6291872Y22463058D01*
X6291872Y22463058D02*
X6196634Y22415439D01*
X7625205Y22701153D02*
X7434729Y22701153D01*
X7434729Y22701153D02*
X7339491Y22653534D01*
X7339491Y22653534D02*
X7291872Y22605915D01*
X7291872Y22605915D02*
X7196634Y22463058D01*
X7196634Y22463058D02*
X7149015Y22272582D01*
X7149015Y22272582D02*
X7149015Y21891630D01*
X7149015Y21891630D02*
X7196634Y21796392D01*
X7196634Y21796392D02*
X7244253Y21748772D01*
X7244253Y21748772D02*
X7339491Y21701153D01*
X7339491Y21701153D02*
X7529967Y21701153D01*
X7529967Y21701153D02*
X7625205Y21748772D01*
X7625205Y21748772D02*
X7672824Y21796392D01*
X7672824Y21796392D02*
X7720443Y21891630D01*
X7720443Y21891630D02*
X7720443Y22129725D01*
X7720443Y22129725D02*
X7672824Y22224963D01*
X7672824Y22224963D02*
X7625205Y22272582D01*
X7625205Y22272582D02*
X7529967Y22320201D01*
X7529967Y22320201D02*
X7339491Y22320201D01*
X7339491Y22320201D02*
X7244253Y22272582D01*
X7244253Y22272582D02*
X7196634Y22224963D01*
X7196634Y22224963D02*
X7149015Y22129725D01*
X89684095Y14597181D02*
X90255523Y14597181D01*
X89969809Y13597181D02*
X89969809Y14597181D01*
X90588857Y13597181D02*
X90588857Y14597181D01*
X90588857Y14597181D02*
X90969809Y14597181D01*
X90969809Y14597181D02*
X91065047Y14549562D01*
X91065047Y14549562D02*
X91112666Y14501943D01*
X91112666Y14501943D02*
X91160285Y14406705D01*
X91160285Y14406705D02*
X91160285Y14263848D01*
X91160285Y14263848D02*
X91112666Y14168610D01*
X91112666Y14168610D02*
X91065047Y14120991D01*
X91065047Y14120991D02*
X90969809Y14073372D01*
X90969809Y14073372D02*
X90588857Y14073372D01*
X92065047Y14597181D02*
X91588857Y14597181D01*
X91588857Y14597181D02*
X91541238Y14120991D01*
X91541238Y14120991D02*
X91588857Y14168610D01*
X91588857Y14168610D02*
X91684095Y14216229D01*
X91684095Y14216229D02*
X91922190Y14216229D01*
X91922190Y14216229D02*
X92017428Y14168610D01*
X92017428Y14168610D02*
X92065047Y14120991D01*
X92065047Y14120991D02*
X92112666Y14025753D01*
X92112666Y14025753D02*
X92112666Y13787658D01*
X92112666Y13787658D02*
X92065047Y13692420D01*
X92065047Y13692420D02*
X92017428Y13644800D01*
X92017428Y13644800D02*
X91922190Y13597181D01*
X91922190Y13597181D02*
X91684095Y13597181D01*
X91684095Y13597181D02*
X91588857Y13644800D01*
X91588857Y13644800D02*
X91541238Y13692420D01*
X49483333Y5337705D02*
X49483333Y4766277D01*
X49483333Y4766277D02*
X49445238Y4651991D01*
X49445238Y4651991D02*
X49369047Y4575800D01*
X49369047Y4575800D02*
X49254762Y4537705D01*
X49254762Y4537705D02*
X49178571Y4537705D01*
X50207143Y5071039D02*
X50207143Y4537705D01*
X50016667Y5375800D02*
X49826190Y4804372D01*
X49826190Y4804372D02*
X50321429Y4804372D01*
X69444463Y19135229D02*
X69444463Y20135229D01*
X69444463Y20135229D02*
X69682558Y20135229D01*
X69682558Y20135229D02*
X69825415Y20087610D01*
X69825415Y20087610D02*
X69920653Y19992372D01*
X69920653Y19992372D02*
X69968272Y19897134D01*
X69968272Y19897134D02*
X70015891Y19706658D01*
X70015891Y19706658D02*
X70015891Y19563801D01*
X70015891Y19563801D02*
X69968272Y19373325D01*
X69968272Y19373325D02*
X69920653Y19278087D01*
X69920653Y19278087D02*
X69825415Y19182848D01*
X69825415Y19182848D02*
X69682558Y19135229D01*
X69682558Y19135229D02*
X69444463Y19135229D01*
X70968272Y19135229D02*
X70396844Y19135229D01*
X70682558Y19135229D02*
X70682558Y20135229D01*
X70682558Y20135229D02*
X70587320Y19992372D01*
X70587320Y19992372D02*
X70492082Y19897134D01*
X70492082Y19897134D02*
X70396844Y19849515D01*
X71920653Y19135229D02*
X71349225Y19135229D01*
X71634939Y19135229D02*
X71634939Y20135229D01*
X71634939Y20135229D02*
X71539701Y19992372D01*
X71539701Y19992372D02*
X71444463Y19897134D01*
X71444463Y19897134D02*
X71349225Y19849515D01*
X28902095Y10903181D02*
X29473523Y10903181D01*
X29187809Y9903181D02*
X29187809Y10903181D01*
X29806857Y9903181D02*
X29806857Y10903181D01*
X29806857Y10903181D02*
X30187809Y10903181D01*
X30187809Y10903181D02*
X30283047Y10855562D01*
X30283047Y10855562D02*
X30330666Y10807943D01*
X30330666Y10807943D02*
X30378285Y10712705D01*
X30378285Y10712705D02*
X30378285Y10569848D01*
X30378285Y10569848D02*
X30330666Y10474610D01*
X30330666Y10474610D02*
X30283047Y10426991D01*
X30283047Y10426991D02*
X30187809Y10379372D01*
X30187809Y10379372D02*
X29806857Y10379372D01*
X30711619Y10903181D02*
X31378285Y10903181D01*
X31378285Y10903181D02*
X30949714Y9903181D01*
X49947071Y41135213D02*
X49947071Y42135213D01*
X49947071Y42135213D02*
X50185166Y42135213D01*
X50185166Y42135213D02*
X50328023Y42087594D01*
X50328023Y42087594D02*
X50423261Y41992356D01*
X50423261Y41992356D02*
X50470880Y41897118D01*
X50470880Y41897118D02*
X50518499Y41706642D01*
X50518499Y41706642D02*
X50518499Y41563785D01*
X50518499Y41563785D02*
X50470880Y41373309D01*
X50470880Y41373309D02*
X50423261Y41278071D01*
X50423261Y41278071D02*
X50328023Y41182832D01*
X50328023Y41182832D02*
X50185166Y41135213D01*
X50185166Y41135213D02*
X49947071Y41135213D01*
X50851833Y42135213D02*
X51518499Y42135213D01*
X51518499Y42135213D02*
X51089928Y41135213D01*
X28902095Y15221181D02*
X29473523Y15221181D01*
X29187809Y14221181D02*
X29187809Y15221181D01*
X29806857Y14221181D02*
X29806857Y15221181D01*
X29806857Y15221181D02*
X30187809Y15221181D01*
X30187809Y15221181D02*
X30283047Y15173562D01*
X30283047Y15173562D02*
X30330666Y15125943D01*
X30330666Y15125943D02*
X30378285Y15030705D01*
X30378285Y15030705D02*
X30378285Y14887848D01*
X30378285Y14887848D02*
X30330666Y14792610D01*
X30330666Y14792610D02*
X30283047Y14744991D01*
X30283047Y14744991D02*
X30187809Y14697372D01*
X30187809Y14697372D02*
X29806857Y14697372D01*
X31235428Y15221181D02*
X31044952Y15221181D01*
X31044952Y15221181D02*
X30949714Y15173562D01*
X30949714Y15173562D02*
X30902095Y15125943D01*
X30902095Y15125943D02*
X30806857Y14983086D01*
X30806857Y14983086D02*
X30759238Y14792610D01*
X30759238Y14792610D02*
X30759238Y14411658D01*
X30759238Y14411658D02*
X30806857Y14316420D01*
X30806857Y14316420D02*
X30854476Y14268800D01*
X30854476Y14268800D02*
X30949714Y14221181D01*
X30949714Y14221181D02*
X31140190Y14221181D01*
X31140190Y14221181D02*
X31235428Y14268800D01*
X31235428Y14268800D02*
X31283047Y14316420D01*
X31283047Y14316420D02*
X31330666Y14411658D01*
X31330666Y14411658D02*
X31330666Y14649753D01*
X31330666Y14649753D02*
X31283047Y14744991D01*
X31283047Y14744991D02*
X31235428Y14792610D01*
X31235428Y14792610D02*
X31140190Y14840229D01*
X31140190Y14840229D02*
X30949714Y14840229D01*
X30949714Y14840229D02*
X30854476Y14792610D01*
X30854476Y14792610D02*
X30806857Y14744991D01*
X30806857Y14744991D02*
X30759238Y14649753D01*
X89999905Y85135181D02*
X89999905Y86135181D01*
X89999905Y86135181D02*
X90238000Y86135181D01*
X90238000Y86135181D02*
X90380857Y86087562D01*
X90380857Y86087562D02*
X90476095Y85992324D01*
X90476095Y85992324D02*
X90523714Y85897086D01*
X90523714Y85897086D02*
X90571333Y85706610D01*
X90571333Y85706610D02*
X90571333Y85563753D01*
X90571333Y85563753D02*
X90523714Y85373277D01*
X90523714Y85373277D02*
X90476095Y85278039D01*
X90476095Y85278039D02*
X90380857Y85182800D01*
X90380857Y85182800D02*
X90238000Y85135181D01*
X90238000Y85135181D02*
X89999905Y85135181D01*
X90904667Y86135181D02*
X91523714Y86135181D01*
X91523714Y86135181D02*
X91190381Y85754229D01*
X91190381Y85754229D02*
X91333238Y85754229D01*
X91333238Y85754229D02*
X91428476Y85706610D01*
X91428476Y85706610D02*
X91476095Y85658991D01*
X91476095Y85658991D02*
X91523714Y85563753D01*
X91523714Y85563753D02*
X91523714Y85325658D01*
X91523714Y85325658D02*
X91476095Y85230420D01*
X91476095Y85230420D02*
X91428476Y85182800D01*
X91428476Y85182800D02*
X91333238Y85135181D01*
X91333238Y85135181D02*
X91047524Y85135181D01*
X91047524Y85135181D02*
X90952286Y85182800D01*
X90952286Y85182800D02*
X90904667Y85230420D01*
X69999905Y85135181D02*
X69999905Y86135181D01*
X69999905Y86135181D02*
X70238000Y86135181D01*
X70238000Y86135181D02*
X70380857Y86087562D01*
X70380857Y86087562D02*
X70476095Y85992324D01*
X70476095Y85992324D02*
X70523714Y85897086D01*
X70523714Y85897086D02*
X70571333Y85706610D01*
X70571333Y85706610D02*
X70571333Y85563753D01*
X70571333Y85563753D02*
X70523714Y85373277D01*
X70523714Y85373277D02*
X70476095Y85278039D01*
X70476095Y85278039D02*
X70380857Y85182800D01*
X70380857Y85182800D02*
X70238000Y85135181D01*
X70238000Y85135181D02*
X69999905Y85135181D01*
X70952286Y86039943D02*
X70999905Y86087562D01*
X70999905Y86087562D02*
X71095143Y86135181D01*
X71095143Y86135181D02*
X71333238Y86135181D01*
X71333238Y86135181D02*
X71428476Y86087562D01*
X71428476Y86087562D02*
X71476095Y86039943D01*
X71476095Y86039943D02*
X71523714Y85944705D01*
X71523714Y85944705D02*
X71523714Y85849467D01*
X71523714Y85849467D02*
X71476095Y85706610D01*
X71476095Y85706610D02*
X70904667Y85135181D01*
X70904667Y85135181D02*
X71523714Y85135181D01*
X49973488Y63135197D02*
X49973488Y64135197D01*
X49973488Y64135197D02*
X50211583Y64135197D01*
X50211583Y64135197D02*
X50354440Y64087578D01*
X50354440Y64087578D02*
X50449678Y63992340D01*
X50449678Y63992340D02*
X50497297Y63897102D01*
X50497297Y63897102D02*
X50544916Y63706626D01*
X50544916Y63706626D02*
X50544916Y63563769D01*
X50544916Y63563769D02*
X50497297Y63373293D01*
X50497297Y63373293D02*
X50449678Y63278055D01*
X50449678Y63278055D02*
X50354440Y63182816D01*
X50354440Y63182816D02*
X50211583Y63135197D01*
X50211583Y63135197D02*
X49973488Y63135197D01*
X51402059Y63801864D02*
X51402059Y63135197D01*
X51163964Y64182816D02*
X50925869Y63468531D01*
X50925869Y63468531D02*
X51544916Y63468531D01*
X9183333Y32679420D02*
X9135714Y32631800D01*
X9135714Y32631800D02*
X8992857Y32584181D01*
X8992857Y32584181D02*
X8897619Y32584181D01*
X8897619Y32584181D02*
X8754762Y32631800D01*
X8754762Y32631800D02*
X8659524Y32727039D01*
X8659524Y32727039D02*
X8611905Y32822277D01*
X8611905Y32822277D02*
X8564286Y33012753D01*
X8564286Y33012753D02*
X8564286Y33155610D01*
X8564286Y33155610D02*
X8611905Y33346086D01*
X8611905Y33346086D02*
X8659524Y33441324D01*
X8659524Y33441324D02*
X8754762Y33536562D01*
X8754762Y33536562D02*
X8897619Y33584181D01*
X8897619Y33584181D02*
X8992857Y33584181D01*
X8992857Y33584181D02*
X9135714Y33536562D01*
X9135714Y33536562D02*
X9183333Y33488943D01*
X9659524Y32584181D02*
X9850000Y32584181D01*
X9850000Y32584181D02*
X9945238Y32631800D01*
X9945238Y32631800D02*
X9992857Y32679420D01*
X9992857Y32679420D02*
X10088095Y32822277D01*
X10088095Y32822277D02*
X10135714Y33012753D01*
X10135714Y33012753D02*
X10135714Y33393705D01*
X10135714Y33393705D02*
X10088095Y33488943D01*
X10088095Y33488943D02*
X10040476Y33536562D01*
X10040476Y33536562D02*
X9945238Y33584181D01*
X9945238Y33584181D02*
X9754762Y33584181D01*
X9754762Y33584181D02*
X9659524Y33536562D01*
X9659524Y33536562D02*
X9611905Y33488943D01*
X9611905Y33488943D02*
X9564286Y33393705D01*
X9564286Y33393705D02*
X9564286Y33155610D01*
X9564286Y33155610D02*
X9611905Y33060372D01*
X9611905Y33060372D02*
X9659524Y33012753D01*
X9659524Y33012753D02*
X9754762Y32965134D01*
X9754762Y32965134D02*
X9945238Y32965134D01*
X9945238Y32965134D02*
X10040476Y33012753D01*
X10040476Y33012753D02*
X10088095Y33060372D01*
X10088095Y33060372D02*
X10135714Y33155610D01*
X20728142Y30393420D02*
X20680523Y30345800D01*
X20680523Y30345800D02*
X20537666Y30298181D01*
X20537666Y30298181D02*
X20442428Y30298181D01*
X20442428Y30298181D02*
X20299571Y30345800D01*
X20299571Y30345800D02*
X20204333Y30441039D01*
X20204333Y30441039D02*
X20156714Y30536277D01*
X20156714Y30536277D02*
X20109095Y30726753D01*
X20109095Y30726753D02*
X20109095Y30869610D01*
X20109095Y30869610D02*
X20156714Y31060086D01*
X20156714Y31060086D02*
X20204333Y31155324D01*
X20204333Y31155324D02*
X20299571Y31250562D01*
X20299571Y31250562D02*
X20442428Y31298181D01*
X20442428Y31298181D02*
X20537666Y31298181D01*
X20537666Y31298181D02*
X20680523Y31250562D01*
X20680523Y31250562D02*
X20728142Y31202943D01*
X21680523Y30298181D02*
X21109095Y30298181D01*
X21394809Y30298181D02*
X21394809Y31298181D01*
X21394809Y31298181D02*
X21299571Y31155324D01*
X21299571Y31155324D02*
X21204333Y31060086D01*
X21204333Y31060086D02*
X21109095Y31012467D01*
X22061476Y31202943D02*
X22109095Y31250562D01*
X22109095Y31250562D02*
X22204333Y31298181D01*
X22204333Y31298181D02*
X22442428Y31298181D01*
X22442428Y31298181D02*
X22537666Y31250562D01*
X22537666Y31250562D02*
X22585285Y31202943D01*
X22585285Y31202943D02*
X22632904Y31107705D01*
X22632904Y31107705D02*
X22632904Y31012467D01*
X22632904Y31012467D02*
X22585285Y30869610D01*
X22585285Y30869610D02*
X22013857Y30298181D01*
X22013857Y30298181D02*
X22632904Y30298181D01*
X69316667Y83442800D02*
X69459524Y83395181D01*
X69459524Y83395181D02*
X69697619Y83395181D01*
X69697619Y83395181D02*
X69792857Y83442800D01*
X69792857Y83442800D02*
X69840476Y83490420D01*
X69840476Y83490420D02*
X69888095Y83585658D01*
X69888095Y83585658D02*
X69888095Y83680896D01*
X69888095Y83680896D02*
X69840476Y83776134D01*
X69840476Y83776134D02*
X69792857Y83823753D01*
X69792857Y83823753D02*
X69697619Y83871372D01*
X69697619Y83871372D02*
X69507143Y83918991D01*
X69507143Y83918991D02*
X69411905Y83966610D01*
X69411905Y83966610D02*
X69364286Y84014229D01*
X69364286Y84014229D02*
X69316667Y84109467D01*
X69316667Y84109467D02*
X69316667Y84204705D01*
X69316667Y84204705D02*
X69364286Y84299943D01*
X69364286Y84299943D02*
X69411905Y84347562D01*
X69411905Y84347562D02*
X69507143Y84395181D01*
X69507143Y84395181D02*
X69745238Y84395181D01*
X69745238Y84395181D02*
X69888095Y84347562D01*
X70221429Y84395181D02*
X70459524Y83395181D01*
X70459524Y83395181D02*
X70650000Y84109467D01*
X70650000Y84109467D02*
X70840476Y83395181D01*
X70840476Y83395181D02*
X71078572Y84395181D01*
X71411905Y84299943D02*
X71459524Y84347562D01*
X71459524Y84347562D02*
X71554762Y84395181D01*
X71554762Y84395181D02*
X71792857Y84395181D01*
X71792857Y84395181D02*
X71888095Y84347562D01*
X71888095Y84347562D02*
X71935714Y84299943D01*
X71935714Y84299943D02*
X71983333Y84204705D01*
X71983333Y84204705D02*
X71983333Y84109467D01*
X71983333Y84109467D02*
X71935714Y83966610D01*
X71935714Y83966610D02*
X71364286Y83395181D01*
X71364286Y83395181D02*
X71983333Y83395181D01*
X20698296Y25210757D02*
X20364963Y25686948D01*
X20126868Y25210757D02*
X20126868Y26210757D01*
X20126868Y26210757D02*
X20507820Y26210757D01*
X20507820Y26210757D02*
X20603058Y26163138D01*
X20603058Y26163138D02*
X20650677Y26115519D01*
X20650677Y26115519D02*
X20698296Y26020281D01*
X20698296Y26020281D02*
X20698296Y25877424D01*
X20698296Y25877424D02*
X20650677Y25782186D01*
X20650677Y25782186D02*
X20603058Y25734567D01*
X20603058Y25734567D02*
X20507820Y25686948D01*
X20507820Y25686948D02*
X20126868Y25686948D01*
X21031630Y26210757D02*
X21698296Y26210757D01*
X21698296Y26210757D02*
X21269725Y25210757D01*
X17783333Y32645181D02*
X17450000Y33121372D01*
X17211905Y32645181D02*
X17211905Y33645181D01*
X17211905Y33645181D02*
X17592857Y33645181D01*
X17592857Y33645181D02*
X17688095Y33597562D01*
X17688095Y33597562D02*
X17735714Y33549943D01*
X17735714Y33549943D02*
X17783333Y33454705D01*
X17783333Y33454705D02*
X17783333Y33311848D01*
X17783333Y33311848D02*
X17735714Y33216610D01*
X17735714Y33216610D02*
X17688095Y33168991D01*
X17688095Y33168991D02*
X17592857Y33121372D01*
X17592857Y33121372D02*
X17211905Y33121372D01*
X18354762Y33216610D02*
X18259524Y33264229D01*
X18259524Y33264229D02*
X18211905Y33311848D01*
X18211905Y33311848D02*
X18164286Y33407086D01*
X18164286Y33407086D02*
X18164286Y33454705D01*
X18164286Y33454705D02*
X18211905Y33549943D01*
X18211905Y33549943D02*
X18259524Y33597562D01*
X18259524Y33597562D02*
X18354762Y33645181D01*
X18354762Y33645181D02*
X18545238Y33645181D01*
X18545238Y33645181D02*
X18640476Y33597562D01*
X18640476Y33597562D02*
X18688095Y33549943D01*
X18688095Y33549943D02*
X18735714Y33454705D01*
X18735714Y33454705D02*
X18735714Y33407086D01*
X18735714Y33407086D02*
X18688095Y33311848D01*
X18688095Y33311848D02*
X18640476Y33264229D01*
X18640476Y33264229D02*
X18545238Y33216610D01*
X18545238Y33216610D02*
X18354762Y33216610D01*
X18354762Y33216610D02*
X18259524Y33168991D01*
X18259524Y33168991D02*
X18211905Y33121372D01*
X18211905Y33121372D02*
X18164286Y33026134D01*
X18164286Y33026134D02*
X18164286Y32835658D01*
X18164286Y32835658D02*
X18211905Y32740420D01*
X18211905Y32740420D02*
X18259524Y32692800D01*
X18259524Y32692800D02*
X18354762Y32645181D01*
X18354762Y32645181D02*
X18545238Y32645181D01*
X18545238Y32645181D02*
X18640476Y32692800D01*
X18640476Y32692800D02*
X18688095Y32740420D01*
X18688095Y32740420D02*
X18735714Y32835658D01*
X18735714Y32835658D02*
X18735714Y33026134D01*
X18735714Y33026134D02*
X18688095Y33121372D01*
X18688095Y33121372D02*
X18640476Y33168991D01*
X18640476Y33168991D02*
X18545238Y33216610D01*
X69263833Y39442832D02*
X69406690Y39395213D01*
X69406690Y39395213D02*
X69644785Y39395213D01*
X69644785Y39395213D02*
X69740023Y39442832D01*
X69740023Y39442832D02*
X69787642Y39490452D01*
X69787642Y39490452D02*
X69835261Y39585690D01*
X69835261Y39585690D02*
X69835261Y39680928D01*
X69835261Y39680928D02*
X69787642Y39776166D01*
X69787642Y39776166D02*
X69740023Y39823785D01*
X69740023Y39823785D02*
X69644785Y39871404D01*
X69644785Y39871404D02*
X69454309Y39919023D01*
X69454309Y39919023D02*
X69359071Y39966642D01*
X69359071Y39966642D02*
X69311452Y40014261D01*
X69311452Y40014261D02*
X69263833Y40109499D01*
X69263833Y40109499D02*
X69263833Y40204737D01*
X69263833Y40204737D02*
X69311452Y40299975D01*
X69311452Y40299975D02*
X69359071Y40347594D01*
X69359071Y40347594D02*
X69454309Y40395213D01*
X69454309Y40395213D02*
X69692404Y40395213D01*
X69692404Y40395213D02*
X69835261Y40347594D01*
X70168595Y40395213D02*
X70406690Y39395213D01*
X70406690Y39395213D02*
X70597166Y40109499D01*
X70597166Y40109499D02*
X70787642Y39395213D01*
X70787642Y39395213D02*
X71025738Y40395213D01*
X71549547Y39966642D02*
X71454309Y40014261D01*
X71454309Y40014261D02*
X71406690Y40061880D01*
X71406690Y40061880D02*
X71359071Y40157118D01*
X71359071Y40157118D02*
X71359071Y40204737D01*
X71359071Y40204737D02*
X71406690Y40299975D01*
X71406690Y40299975D02*
X71454309Y40347594D01*
X71454309Y40347594D02*
X71549547Y40395213D01*
X71549547Y40395213D02*
X71740023Y40395213D01*
X71740023Y40395213D02*
X71835261Y40347594D01*
X71835261Y40347594D02*
X71882880Y40299975D01*
X71882880Y40299975D02*
X71930499Y40204737D01*
X71930499Y40204737D02*
X71930499Y40157118D01*
X71930499Y40157118D02*
X71882880Y40061880D01*
X71882880Y40061880D02*
X71835261Y40014261D01*
X71835261Y40014261D02*
X71740023Y39966642D01*
X71740023Y39966642D02*
X71549547Y39966642D01*
X71549547Y39966642D02*
X71454309Y39919023D01*
X71454309Y39919023D02*
X71406690Y39871404D01*
X71406690Y39871404D02*
X71359071Y39776166D01*
X71359071Y39776166D02*
X71359071Y39585690D01*
X71359071Y39585690D02*
X71406690Y39490452D01*
X71406690Y39490452D02*
X71454309Y39442832D01*
X71454309Y39442832D02*
X71549547Y39395213D01*
X71549547Y39395213D02*
X71740023Y39395213D01*
X71740023Y39395213D02*
X71835261Y39442832D01*
X71835261Y39442832D02*
X71882880Y39490452D01*
X71882880Y39490452D02*
X71930499Y39585690D01*
X71930499Y39585690D02*
X71930499Y39776166D01*
X71930499Y39776166D02*
X71882880Y39871404D01*
X71882880Y39871404D02*
X71835261Y39919023D01*
X71835261Y39919023D02*
X71740023Y39966642D01*
X89683333Y71737705D02*
X89683333Y71166277D01*
X89683333Y71166277D02*
X89645238Y71051991D01*
X89645238Y71051991D02*
X89569047Y70975800D01*
X89569047Y70975800D02*
X89454762Y70937705D01*
X89454762Y70937705D02*
X89378571Y70937705D01*
X90102381Y70937705D02*
X90254762Y70937705D01*
X90254762Y70937705D02*
X90330952Y70975800D01*
X90330952Y70975800D02*
X90369048Y71013896D01*
X90369048Y71013896D02*
X90445238Y71128181D01*
X90445238Y71128181D02*
X90483333Y71280562D01*
X90483333Y71280562D02*
X90483333Y71585324D01*
X90483333Y71585324D02*
X90445238Y71661515D01*
X90445238Y71661515D02*
X90407143Y71699610D01*
X90407143Y71699610D02*
X90330952Y71737705D01*
X90330952Y71737705D02*
X90178571Y71737705D01*
X90178571Y71737705D02*
X90102381Y71699610D01*
X90102381Y71699610D02*
X90064286Y71661515D01*
X90064286Y71661515D02*
X90026190Y71585324D01*
X90026190Y71585324D02*
X90026190Y71394848D01*
X90026190Y71394848D02*
X90064286Y71318658D01*
X90064286Y71318658D02*
X90102381Y71280562D01*
X90102381Y71280562D02*
X90178571Y71242467D01*
X90178571Y71242467D02*
X90330952Y71242467D01*
X90330952Y71242467D02*
X90407143Y71280562D01*
X90407143Y71280562D02*
X90445238Y71318658D01*
X90445238Y71318658D02*
X90483333Y71394848D01*
X30988095Y2245181D02*
X30988095Y3245181D01*
X30988095Y2768991D02*
X31559523Y2768991D01*
X31559523Y2245181D02*
X31559523Y3245181D01*
X31940476Y3245181D02*
X32559523Y3245181D01*
X32559523Y3245181D02*
X32226190Y2864229D01*
X32226190Y2864229D02*
X32369047Y2864229D01*
X32369047Y2864229D02*
X32464285Y2816610D01*
X32464285Y2816610D02*
X32511904Y2768991D01*
X32511904Y2768991D02*
X32559523Y2673753D01*
X32559523Y2673753D02*
X32559523Y2435658D01*
X32559523Y2435658D02*
X32511904Y2340420D01*
X32511904Y2340420D02*
X32464285Y2292800D01*
X32464285Y2292800D02*
X32369047Y2245181D01*
X32369047Y2245181D02*
X32083333Y2245181D01*
X32083333Y2245181D02*
X31988095Y2292800D01*
X31988095Y2292800D02*
X31940476Y2340420D01*
X15983333Y16245181D02*
X15650000Y16721372D01*
X15411905Y16245181D02*
X15411905Y17245181D01*
X15411905Y17245181D02*
X15792857Y17245181D01*
X15792857Y17245181D02*
X15888095Y17197562D01*
X15888095Y17197562D02*
X15935714Y17149943D01*
X15935714Y17149943D02*
X15983333Y17054705D01*
X15983333Y17054705D02*
X15983333Y16911848D01*
X15983333Y16911848D02*
X15935714Y16816610D01*
X15935714Y16816610D02*
X15888095Y16768991D01*
X15888095Y16768991D02*
X15792857Y16721372D01*
X15792857Y16721372D02*
X15411905Y16721372D01*
X16888095Y17245181D02*
X16411905Y17245181D01*
X16411905Y17245181D02*
X16364286Y16768991D01*
X16364286Y16768991D02*
X16411905Y16816610D01*
X16411905Y16816610D02*
X16507143Y16864229D01*
X16507143Y16864229D02*
X16745238Y16864229D01*
X16745238Y16864229D02*
X16840476Y16816610D01*
X16840476Y16816610D02*
X16888095Y16768991D01*
X16888095Y16768991D02*
X16935714Y16673753D01*
X16935714Y16673753D02*
X16935714Y16435658D01*
X16935714Y16435658D02*
X16888095Y16340420D01*
X16888095Y16340420D02*
X16840476Y16292800D01*
X16840476Y16292800D02*
X16745238Y16245181D01*
X16745238Y16245181D02*
X16507143Y16245181D01*
X16507143Y16245181D02*
X16411905Y16292800D01*
X16411905Y16292800D02*
X16364286Y16340420D01*
X49316667Y83442800D02*
X49459524Y83395181D01*
X49459524Y83395181D02*
X49697619Y83395181D01*
X49697619Y83395181D02*
X49792857Y83442800D01*
X49792857Y83442800D02*
X49840476Y83490420D01*
X49840476Y83490420D02*
X49888095Y83585658D01*
X49888095Y83585658D02*
X49888095Y83680896D01*
X49888095Y83680896D02*
X49840476Y83776134D01*
X49840476Y83776134D02*
X49792857Y83823753D01*
X49792857Y83823753D02*
X49697619Y83871372D01*
X49697619Y83871372D02*
X49507143Y83918991D01*
X49507143Y83918991D02*
X49411905Y83966610D01*
X49411905Y83966610D02*
X49364286Y84014229D01*
X49364286Y84014229D02*
X49316667Y84109467D01*
X49316667Y84109467D02*
X49316667Y84204705D01*
X49316667Y84204705D02*
X49364286Y84299943D01*
X49364286Y84299943D02*
X49411905Y84347562D01*
X49411905Y84347562D02*
X49507143Y84395181D01*
X49507143Y84395181D02*
X49745238Y84395181D01*
X49745238Y84395181D02*
X49888095Y84347562D01*
X50221429Y84395181D02*
X50459524Y83395181D01*
X50459524Y83395181D02*
X50650000Y84109467D01*
X50650000Y84109467D02*
X50840476Y83395181D01*
X50840476Y83395181D02*
X51078572Y84395181D01*
X51983333Y83395181D02*
X51411905Y83395181D01*
X51697619Y83395181D02*
X51697619Y84395181D01*
X51697619Y84395181D02*
X51602381Y84252324D01*
X51602381Y84252324D02*
X51507143Y84157086D01*
X51507143Y84157086D02*
X51411905Y84109467D01*
X28332819Y58991143D02*
X27856628Y58657810D01*
X28332819Y58419715D02*
X27332819Y58419715D01*
X27332819Y58419715D02*
X27332819Y58800667D01*
X27332819Y58800667D02*
X27380438Y58895905D01*
X27380438Y58895905D02*
X27428057Y58943524D01*
X27428057Y58943524D02*
X27523295Y58991143D01*
X27523295Y58991143D02*
X27666152Y58991143D01*
X27666152Y58991143D02*
X27761390Y58943524D01*
X27761390Y58943524D02*
X27809009Y58895905D01*
X27809009Y58895905D02*
X27856628Y58800667D01*
X27856628Y58800667D02*
X27856628Y58419715D01*
X28332819Y59943524D02*
X28332819Y59372096D01*
X28332819Y59657810D02*
X27332819Y59657810D01*
X27332819Y59657810D02*
X27475676Y59562572D01*
X27475676Y59562572D02*
X27570914Y59467334D01*
X27570914Y59467334D02*
X27618533Y59372096D01*
X28332819Y60419715D02*
X28332819Y60610191D01*
X28332819Y60610191D02*
X28285200Y60705429D01*
X28285200Y60705429D02*
X28237580Y60753048D01*
X28237580Y60753048D02*
X28094723Y60848286D01*
X28094723Y60848286D02*
X27904247Y60895905D01*
X27904247Y60895905D02*
X27523295Y60895905D01*
X27523295Y60895905D02*
X27428057Y60848286D01*
X27428057Y60848286D02*
X27380438Y60800667D01*
X27380438Y60800667D02*
X27332819Y60705429D01*
X27332819Y60705429D02*
X27332819Y60514953D01*
X27332819Y60514953D02*
X27380438Y60419715D01*
X27380438Y60419715D02*
X27428057Y60372096D01*
X27428057Y60372096D02*
X27523295Y60324477D01*
X27523295Y60324477D02*
X27761390Y60324477D01*
X27761390Y60324477D02*
X27856628Y60372096D01*
X27856628Y60372096D02*
X27904247Y60419715D01*
X27904247Y60419715D02*
X27951866Y60514953D01*
X27951866Y60514953D02*
X27951866Y60705429D01*
X27951866Y60705429D02*
X27904247Y60800667D01*
X27904247Y60800667D02*
X27856628Y60848286D01*
X27856628Y60848286D02*
X27761390Y60895905D01*
X89973488Y63135197D02*
X89973488Y64135197D01*
X89973488Y64135197D02*
X90211583Y64135197D01*
X90211583Y64135197D02*
X90354440Y64087578D01*
X90354440Y64087578D02*
X90449678Y63992340D01*
X90449678Y63992340D02*
X90497297Y63897102D01*
X90497297Y63897102D02*
X90544916Y63706626D01*
X90544916Y63706626D02*
X90544916Y63563769D01*
X90544916Y63563769D02*
X90497297Y63373293D01*
X90497297Y63373293D02*
X90449678Y63278055D01*
X90449678Y63278055D02*
X90354440Y63182816D01*
X90354440Y63182816D02*
X90211583Y63135197D01*
X90211583Y63135197D02*
X89973488Y63135197D01*
X91402059Y64135197D02*
X91211583Y64135197D01*
X91211583Y64135197D02*
X91116345Y64087578D01*
X91116345Y64087578D02*
X91068726Y64039959D01*
X91068726Y64039959D02*
X90973488Y63897102D01*
X90973488Y63897102D02*
X90925869Y63706626D01*
X90925869Y63706626D02*
X90925869Y63325674D01*
X90925869Y63325674D02*
X90973488Y63230436D01*
X90973488Y63230436D02*
X91021107Y63182816D01*
X91021107Y63182816D02*
X91116345Y63135197D01*
X91116345Y63135197D02*
X91306821Y63135197D01*
X91306821Y63135197D02*
X91402059Y63182816D01*
X91402059Y63182816D02*
X91449678Y63230436D01*
X91449678Y63230436D02*
X91497297Y63325674D01*
X91497297Y63325674D02*
X91497297Y63563769D01*
X91497297Y63563769D02*
X91449678Y63659007D01*
X91449678Y63659007D02*
X91402059Y63706626D01*
X91402059Y63706626D02*
X91306821Y63754245D01*
X91306821Y63754245D02*
X91116345Y63754245D01*
X91116345Y63754245D02*
X91021107Y63706626D01*
X91021107Y63706626D02*
X90973488Y63659007D01*
X90973488Y63659007D02*
X90925869Y63563769D01*
X93952095Y14597181D02*
X94523523Y14597181D01*
X94237809Y13597181D02*
X94237809Y14597181D01*
X94856857Y13597181D02*
X94856857Y14597181D01*
X94856857Y14597181D02*
X95237809Y14597181D01*
X95237809Y14597181D02*
X95333047Y14549562D01*
X95333047Y14549562D02*
X95380666Y14501943D01*
X95380666Y14501943D02*
X95428285Y14406705D01*
X95428285Y14406705D02*
X95428285Y14263848D01*
X95428285Y14263848D02*
X95380666Y14168610D01*
X95380666Y14168610D02*
X95333047Y14120991D01*
X95333047Y14120991D02*
X95237809Y14073372D01*
X95237809Y14073372D02*
X94856857Y14073372D01*
X96285428Y14263848D02*
X96285428Y13597181D01*
X96047333Y14644800D02*
X95809238Y13930515D01*
X95809238Y13930515D02*
X96428285Y13930515D01*
X23691975Y47693181D02*
X24263403Y47693181D01*
X23977689Y46693181D02*
X23977689Y47693181D01*
X24596737Y46693181D02*
X24596737Y47693181D01*
X24596737Y47693181D02*
X24977689Y47693181D01*
X24977689Y47693181D02*
X25072927Y47645562D01*
X25072927Y47645562D02*
X25120546Y47597943D01*
X25120546Y47597943D02*
X25168165Y47502705D01*
X25168165Y47502705D02*
X25168165Y47359848D01*
X25168165Y47359848D02*
X25120546Y47264610D01*
X25120546Y47264610D02*
X25072927Y47216991D01*
X25072927Y47216991D02*
X24977689Y47169372D01*
X24977689Y47169372D02*
X24596737Y47169372D01*
X25549118Y47597943D02*
X25596737Y47645562D01*
X25596737Y47645562D02*
X25691975Y47693181D01*
X25691975Y47693181D02*
X25930070Y47693181D01*
X25930070Y47693181D02*
X26025308Y47645562D01*
X26025308Y47645562D02*
X26072927Y47597943D01*
X26072927Y47597943D02*
X26120546Y47502705D01*
X26120546Y47502705D02*
X26120546Y47407467D01*
X26120546Y47407467D02*
X26072927Y47264610D01*
X26072927Y47264610D02*
X25501499Y46693181D01*
X25501499Y46693181D02*
X26120546Y46693181D01*
X49290250Y61442816D02*
X49433107Y61395197D01*
X49433107Y61395197D02*
X49671202Y61395197D01*
X49671202Y61395197D02*
X49766440Y61442816D01*
X49766440Y61442816D02*
X49814059Y61490436D01*
X49814059Y61490436D02*
X49861678Y61585674D01*
X49861678Y61585674D02*
X49861678Y61680912D01*
X49861678Y61680912D02*
X49814059Y61776150D01*
X49814059Y61776150D02*
X49766440Y61823769D01*
X49766440Y61823769D02*
X49671202Y61871388D01*
X49671202Y61871388D02*
X49480726Y61919007D01*
X49480726Y61919007D02*
X49385488Y61966626D01*
X49385488Y61966626D02*
X49337869Y62014245D01*
X49337869Y62014245D02*
X49290250Y62109483D01*
X49290250Y62109483D02*
X49290250Y62204721D01*
X49290250Y62204721D02*
X49337869Y62299959D01*
X49337869Y62299959D02*
X49385488Y62347578D01*
X49385488Y62347578D02*
X49480726Y62395197D01*
X49480726Y62395197D02*
X49718821Y62395197D01*
X49718821Y62395197D02*
X49861678Y62347578D01*
X50195012Y62395197D02*
X50433107Y61395197D01*
X50433107Y61395197D02*
X50623583Y62109483D01*
X50623583Y62109483D02*
X50814059Y61395197D01*
X50814059Y61395197D02*
X51052155Y62395197D01*
X51861678Y62061864D02*
X51861678Y61395197D01*
X51623583Y62442816D02*
X51385488Y61728531D01*
X51385488Y61728531D02*
X52004535Y61728531D01*
X7774142Y35473420D02*
X7726523Y35425800D01*
X7726523Y35425800D02*
X7583666Y35378181D01*
X7583666Y35378181D02*
X7488428Y35378181D01*
X7488428Y35378181D02*
X7345571Y35425800D01*
X7345571Y35425800D02*
X7250333Y35521039D01*
X7250333Y35521039D02*
X7202714Y35616277D01*
X7202714Y35616277D02*
X7155095Y35806753D01*
X7155095Y35806753D02*
X7155095Y35949610D01*
X7155095Y35949610D02*
X7202714Y36140086D01*
X7202714Y36140086D02*
X7250333Y36235324D01*
X7250333Y36235324D02*
X7345571Y36330562D01*
X7345571Y36330562D02*
X7488428Y36378181D01*
X7488428Y36378181D02*
X7583666Y36378181D01*
X7583666Y36378181D02*
X7726523Y36330562D01*
X7726523Y36330562D02*
X7774142Y36282943D01*
X8726523Y35378181D02*
X8155095Y35378181D01*
X8440809Y35378181D02*
X8440809Y36378181D01*
X8440809Y36378181D02*
X8345571Y36235324D01*
X8345571Y36235324D02*
X8250333Y36140086D01*
X8250333Y36140086D02*
X8155095Y36092467D01*
X9345571Y36378181D02*
X9440809Y36378181D01*
X9440809Y36378181D02*
X9536047Y36330562D01*
X9536047Y36330562D02*
X9583666Y36282943D01*
X9583666Y36282943D02*
X9631285Y36187705D01*
X9631285Y36187705D02*
X9678904Y35997229D01*
X9678904Y35997229D02*
X9678904Y35759134D01*
X9678904Y35759134D02*
X9631285Y35568658D01*
X9631285Y35568658D02*
X9583666Y35473420D01*
X9583666Y35473420D02*
X9536047Y35425800D01*
X9536047Y35425800D02*
X9440809Y35378181D01*
X9440809Y35378181D02*
X9345571Y35378181D01*
X9345571Y35378181D02*
X9250333Y35425800D01*
X9250333Y35425800D02*
X9202714Y35473420D01*
X9202714Y35473420D02*
X9155095Y35568658D01*
X9155095Y35568658D02*
X9107476Y35759134D01*
X9107476Y35759134D02*
X9107476Y35997229D01*
X9107476Y35997229D02*
X9155095Y36187705D01*
X9155095Y36187705D02*
X9202714Y36282943D01*
X9202714Y36282943D02*
X9250333Y36330562D01*
X9250333Y36330562D02*
X9345571Y36378181D01*
X89290250Y61442816D02*
X89433107Y61395197D01*
X89433107Y61395197D02*
X89671202Y61395197D01*
X89671202Y61395197D02*
X89766440Y61442816D01*
X89766440Y61442816D02*
X89814059Y61490436D01*
X89814059Y61490436D02*
X89861678Y61585674D01*
X89861678Y61585674D02*
X89861678Y61680912D01*
X89861678Y61680912D02*
X89814059Y61776150D01*
X89814059Y61776150D02*
X89766440Y61823769D01*
X89766440Y61823769D02*
X89671202Y61871388D01*
X89671202Y61871388D02*
X89480726Y61919007D01*
X89480726Y61919007D02*
X89385488Y61966626D01*
X89385488Y61966626D02*
X89337869Y62014245D01*
X89337869Y62014245D02*
X89290250Y62109483D01*
X89290250Y62109483D02*
X89290250Y62204721D01*
X89290250Y62204721D02*
X89337869Y62299959D01*
X89337869Y62299959D02*
X89385488Y62347578D01*
X89385488Y62347578D02*
X89480726Y62395197D01*
X89480726Y62395197D02*
X89718821Y62395197D01*
X89718821Y62395197D02*
X89861678Y62347578D01*
X90195012Y62395197D02*
X90433107Y61395197D01*
X90433107Y61395197D02*
X90623583Y62109483D01*
X90623583Y62109483D02*
X90814059Y61395197D01*
X90814059Y61395197D02*
X91052155Y62395197D01*
X91861678Y62395197D02*
X91671202Y62395197D01*
X91671202Y62395197D02*
X91575964Y62347578D01*
X91575964Y62347578D02*
X91528345Y62299959D01*
X91528345Y62299959D02*
X91433107Y62157102D01*
X91433107Y62157102D02*
X91385488Y61966626D01*
X91385488Y61966626D02*
X91385488Y61585674D01*
X91385488Y61585674D02*
X91433107Y61490436D01*
X91433107Y61490436D02*
X91480726Y61442816D01*
X91480726Y61442816D02*
X91575964Y61395197D01*
X91575964Y61395197D02*
X91766440Y61395197D01*
X91766440Y61395197D02*
X91861678Y61442816D01*
X91861678Y61442816D02*
X91909297Y61490436D01*
X91909297Y61490436D02*
X91956916Y61585674D01*
X91956916Y61585674D02*
X91956916Y61823769D01*
X91956916Y61823769D02*
X91909297Y61919007D01*
X91909297Y61919007D02*
X91861678Y61966626D01*
X91861678Y61966626D02*
X91766440Y62014245D01*
X91766440Y62014245D02*
X91575964Y62014245D01*
X91575964Y62014245D02*
X91480726Y61966626D01*
X91480726Y61966626D02*
X91433107Y61919007D01*
X91433107Y61919007D02*
X91385488Y61823769D01*
X19680333Y35378181D02*
X19204143Y35378181D01*
X19204143Y35378181D02*
X19204143Y36378181D01*
X20537476Y35378181D02*
X19966048Y35378181D01*
X20251762Y35378181D02*
X20251762Y36378181D01*
X20251762Y36378181D02*
X20156524Y36235324D01*
X20156524Y36235324D02*
X20061286Y36140086D01*
X20061286Y36140086D02*
X19966048Y36092467D01*
X17383333Y19943886D02*
X17050000Y20420077D01*
X16811905Y19943886D02*
X16811905Y20943886D01*
X16811905Y20943886D02*
X17192857Y20943886D01*
X17192857Y20943886D02*
X17288095Y20896267D01*
X17288095Y20896267D02*
X17335714Y20848648D01*
X17335714Y20848648D02*
X17383333Y20753410D01*
X17383333Y20753410D02*
X17383333Y20610553D01*
X17383333Y20610553D02*
X17335714Y20515315D01*
X17335714Y20515315D02*
X17288095Y20467696D01*
X17288095Y20467696D02*
X17192857Y20420077D01*
X17192857Y20420077D02*
X16811905Y20420077D01*
X18240476Y20610553D02*
X18240476Y19943886D01*
X18002381Y20991505D02*
X17764286Y20277220D01*
X17764286Y20277220D02*
X18383333Y20277220D01*
X49874905Y85135181D02*
X49874905Y86135181D01*
X49874905Y86135181D02*
X50113000Y86135181D01*
X50113000Y86135181D02*
X50255857Y86087562D01*
X50255857Y86087562D02*
X50351095Y85992324D01*
X50351095Y85992324D02*
X50398714Y85897086D01*
X50398714Y85897086D02*
X50446333Y85706610D01*
X50446333Y85706610D02*
X50446333Y85563753D01*
X50446333Y85563753D02*
X50398714Y85373277D01*
X50398714Y85373277D02*
X50351095Y85278039D01*
X50351095Y85278039D02*
X50255857Y85182800D01*
X50255857Y85182800D02*
X50113000Y85135181D01*
X50113000Y85135181D02*
X49874905Y85135181D01*
X51398714Y85135181D02*
X50827286Y85135181D01*
X51113000Y85135181D02*
X51113000Y86135181D01*
X51113000Y86135181D02*
X51017762Y85992324D01*
X51017762Y85992324D02*
X50922524Y85897086D01*
X50922524Y85897086D02*
X50827286Y85849467D01*
X89316667Y83442800D02*
X89459524Y83395181D01*
X89459524Y83395181D02*
X89697619Y83395181D01*
X89697619Y83395181D02*
X89792857Y83442800D01*
X89792857Y83442800D02*
X89840476Y83490420D01*
X89840476Y83490420D02*
X89888095Y83585658D01*
X89888095Y83585658D02*
X89888095Y83680896D01*
X89888095Y83680896D02*
X89840476Y83776134D01*
X89840476Y83776134D02*
X89792857Y83823753D01*
X89792857Y83823753D02*
X89697619Y83871372D01*
X89697619Y83871372D02*
X89507143Y83918991D01*
X89507143Y83918991D02*
X89411905Y83966610D01*
X89411905Y83966610D02*
X89364286Y84014229D01*
X89364286Y84014229D02*
X89316667Y84109467D01*
X89316667Y84109467D02*
X89316667Y84204705D01*
X89316667Y84204705D02*
X89364286Y84299943D01*
X89364286Y84299943D02*
X89411905Y84347562D01*
X89411905Y84347562D02*
X89507143Y84395181D01*
X89507143Y84395181D02*
X89745238Y84395181D01*
X89745238Y84395181D02*
X89888095Y84347562D01*
X90221429Y84395181D02*
X90459524Y83395181D01*
X90459524Y83395181D02*
X90650000Y84109467D01*
X90650000Y84109467D02*
X90840476Y83395181D01*
X90840476Y83395181D02*
X91078572Y84395181D01*
X91364286Y84395181D02*
X91983333Y84395181D01*
X91983333Y84395181D02*
X91650000Y84014229D01*
X91650000Y84014229D02*
X91792857Y84014229D01*
X91792857Y84014229D02*
X91888095Y83966610D01*
X91888095Y83966610D02*
X91935714Y83918991D01*
X91935714Y83918991D02*
X91983333Y83823753D01*
X91983333Y83823753D02*
X91983333Y83585658D01*
X91983333Y83585658D02*
X91935714Y83490420D01*
X91935714Y83490420D02*
X91888095Y83442800D01*
X91888095Y83442800D02*
X91792857Y83395181D01*
X91792857Y83395181D02*
X91507143Y83395181D01*
X91507143Y83395181D02*
X91411905Y83442800D01*
X91411905Y83442800D02*
X91364286Y83490420D01*
X14183333Y21645181D02*
X13850000Y22121372D01*
X13611905Y21645181D02*
X13611905Y22645181D01*
X13611905Y22645181D02*
X13992857Y22645181D01*
X13992857Y22645181D02*
X14088095Y22597562D01*
X14088095Y22597562D02*
X14135714Y22549943D01*
X14135714Y22549943D02*
X14183333Y22454705D01*
X14183333Y22454705D02*
X14183333Y22311848D01*
X14183333Y22311848D02*
X14135714Y22216610D01*
X14135714Y22216610D02*
X14088095Y22168991D01*
X14088095Y22168991D02*
X13992857Y22121372D01*
X13992857Y22121372D02*
X13611905Y22121372D01*
X15040476Y22645181D02*
X14850000Y22645181D01*
X14850000Y22645181D02*
X14754762Y22597562D01*
X14754762Y22597562D02*
X14707143Y22549943D01*
X14707143Y22549943D02*
X14611905Y22407086D01*
X14611905Y22407086D02*
X14564286Y22216610D01*
X14564286Y22216610D02*
X14564286Y21835658D01*
X14564286Y21835658D02*
X14611905Y21740420D01*
X14611905Y21740420D02*
X14659524Y21692800D01*
X14659524Y21692800D02*
X14754762Y21645181D01*
X14754762Y21645181D02*
X14945238Y21645181D01*
X14945238Y21645181D02*
X15040476Y21692800D01*
X15040476Y21692800D02*
X15088095Y21740420D01*
X15088095Y21740420D02*
X15135714Y21835658D01*
X15135714Y21835658D02*
X15135714Y22073753D01*
X15135714Y22073753D02*
X15088095Y22168991D01*
X15088095Y22168991D02*
X15040476Y22216610D01*
X15040476Y22216610D02*
X14945238Y22264229D01*
X14945238Y22264229D02*
X14754762Y22264229D01*
X14754762Y22264229D02*
X14659524Y22216610D01*
X14659524Y22216610D02*
X14611905Y22168991D01*
X14611905Y22168991D02*
X14564286Y22073753D01*
X69973488Y63135197D02*
X69973488Y64135197D01*
X69973488Y64135197D02*
X70211583Y64135197D01*
X70211583Y64135197D02*
X70354440Y64087578D01*
X70354440Y64087578D02*
X70449678Y63992340D01*
X70449678Y63992340D02*
X70497297Y63897102D01*
X70497297Y63897102D02*
X70544916Y63706626D01*
X70544916Y63706626D02*
X70544916Y63563769D01*
X70544916Y63563769D02*
X70497297Y63373293D01*
X70497297Y63373293D02*
X70449678Y63278055D01*
X70449678Y63278055D02*
X70354440Y63182816D01*
X70354440Y63182816D02*
X70211583Y63135197D01*
X70211583Y63135197D02*
X69973488Y63135197D01*
X71449678Y64135197D02*
X70973488Y64135197D01*
X70973488Y64135197D02*
X70925869Y63659007D01*
X70925869Y63659007D02*
X70973488Y63706626D01*
X70973488Y63706626D02*
X71068726Y63754245D01*
X71068726Y63754245D02*
X71306821Y63754245D01*
X71306821Y63754245D02*
X71402059Y63706626D01*
X71402059Y63706626D02*
X71449678Y63659007D01*
X71449678Y63659007D02*
X71497297Y63563769D01*
X71497297Y63563769D02*
X71497297Y63325674D01*
X71497297Y63325674D02*
X71449678Y63230436D01*
X71449678Y63230436D02*
X71402059Y63182816D01*
X71402059Y63182816D02*
X71306821Y63135197D01*
X71306821Y63135197D02*
X71068726Y63135197D01*
X71068726Y63135197D02*
X70973488Y63182816D01*
X70973488Y63182816D02*
X70925869Y63230436D01*
X69683333Y71737705D02*
X69683333Y71166277D01*
X69683333Y71166277D02*
X69645238Y71051991D01*
X69645238Y71051991D02*
X69569047Y70975800D01*
X69569047Y70975800D02*
X69454762Y70937705D01*
X69454762Y70937705D02*
X69378571Y70937705D01*
X70445238Y71737705D02*
X70064286Y71737705D01*
X70064286Y71737705D02*
X70026190Y71356753D01*
X70026190Y71356753D02*
X70064286Y71394848D01*
X70064286Y71394848D02*
X70140476Y71432943D01*
X70140476Y71432943D02*
X70330952Y71432943D01*
X70330952Y71432943D02*
X70407143Y71394848D01*
X70407143Y71394848D02*
X70445238Y71356753D01*
X70445238Y71356753D02*
X70483333Y71280562D01*
X70483333Y71280562D02*
X70483333Y71090086D01*
X70483333Y71090086D02*
X70445238Y71013896D01*
X70445238Y71013896D02*
X70407143Y70975800D01*
X70407143Y70975800D02*
X70330952Y70937705D01*
X70330952Y70937705D02*
X70140476Y70937705D01*
X70140476Y70937705D02*
X70064286Y70975800D01*
X70064286Y70975800D02*
X70026190Y71013896D01*
X49263833Y39442832D02*
X49406690Y39395213D01*
X49406690Y39395213D02*
X49644785Y39395213D01*
X49644785Y39395213D02*
X49740023Y39442832D01*
X49740023Y39442832D02*
X49787642Y39490452D01*
X49787642Y39490452D02*
X49835261Y39585690D01*
X49835261Y39585690D02*
X49835261Y39680928D01*
X49835261Y39680928D02*
X49787642Y39776166D01*
X49787642Y39776166D02*
X49740023Y39823785D01*
X49740023Y39823785D02*
X49644785Y39871404D01*
X49644785Y39871404D02*
X49454309Y39919023D01*
X49454309Y39919023D02*
X49359071Y39966642D01*
X49359071Y39966642D02*
X49311452Y40014261D01*
X49311452Y40014261D02*
X49263833Y40109499D01*
X49263833Y40109499D02*
X49263833Y40204737D01*
X49263833Y40204737D02*
X49311452Y40299975D01*
X49311452Y40299975D02*
X49359071Y40347594D01*
X49359071Y40347594D02*
X49454309Y40395213D01*
X49454309Y40395213D02*
X49692404Y40395213D01*
X49692404Y40395213D02*
X49835261Y40347594D01*
X50168595Y40395213D02*
X50406690Y39395213D01*
X50406690Y39395213D02*
X50597166Y40109499D01*
X50597166Y40109499D02*
X50787642Y39395213D01*
X50787642Y39395213D02*
X51025738Y40395213D01*
X51311452Y40395213D02*
X51978118Y40395213D01*
X51978118Y40395213D02*
X51549547Y39395213D01*
X68761225Y17442848D02*
X68904082Y17395229D01*
X68904082Y17395229D02*
X69142177Y17395229D01*
X69142177Y17395229D02*
X69237415Y17442848D01*
X69237415Y17442848D02*
X69285034Y17490468D01*
X69285034Y17490468D02*
X69332653Y17585706D01*
X69332653Y17585706D02*
X69332653Y17680944D01*
X69332653Y17680944D02*
X69285034Y17776182D01*
X69285034Y17776182D02*
X69237415Y17823801D01*
X69237415Y17823801D02*
X69142177Y17871420D01*
X69142177Y17871420D02*
X68951701Y17919039D01*
X68951701Y17919039D02*
X68856463Y17966658D01*
X68856463Y17966658D02*
X68808844Y18014277D01*
X68808844Y18014277D02*
X68761225Y18109515D01*
X68761225Y18109515D02*
X68761225Y18204753D01*
X68761225Y18204753D02*
X68808844Y18299991D01*
X68808844Y18299991D02*
X68856463Y18347610D01*
X68856463Y18347610D02*
X68951701Y18395229D01*
X68951701Y18395229D02*
X69189796Y18395229D01*
X69189796Y18395229D02*
X69332653Y18347610D01*
X69665987Y18395229D02*
X69904082Y17395229D01*
X69904082Y17395229D02*
X70094558Y18109515D01*
X70094558Y18109515D02*
X70285034Y17395229D01*
X70285034Y17395229D02*
X70523130Y18395229D01*
X71427891Y17395229D02*
X70856463Y17395229D01*
X71142177Y17395229D02*
X71142177Y18395229D01*
X71142177Y18395229D02*
X71046939Y18252372D01*
X71046939Y18252372D02*
X70951701Y18157134D01*
X70951701Y18157134D02*
X70856463Y18109515D01*
X72380272Y17395229D02*
X71808844Y17395229D01*
X72094558Y17395229D02*
X72094558Y18395229D01*
X72094558Y18395229D02*
X71999320Y18252372D01*
X71999320Y18252372D02*
X71904082Y18157134D01*
X71904082Y18157134D02*
X71808844Y18109515D01*
X73540476Y25192800D02*
X73683333Y25145181D01*
X73683333Y25145181D02*
X73921428Y25145181D01*
X73921428Y25145181D02*
X74016666Y25192800D01*
X74016666Y25192800D02*
X74064285Y25240420D01*
X74064285Y25240420D02*
X74111904Y25335658D01*
X74111904Y25335658D02*
X74111904Y25430896D01*
X74111904Y25430896D02*
X74064285Y25526134D01*
X74064285Y25526134D02*
X74016666Y25573753D01*
X74016666Y25573753D02*
X73921428Y25621372D01*
X73921428Y25621372D02*
X73730952Y25668991D01*
X73730952Y25668991D02*
X73635714Y25716610D01*
X73635714Y25716610D02*
X73588095Y25764229D01*
X73588095Y25764229D02*
X73540476Y25859467D01*
X73540476Y25859467D02*
X73540476Y25954705D01*
X73540476Y25954705D02*
X73588095Y26049943D01*
X73588095Y26049943D02*
X73635714Y26097562D01*
X73635714Y26097562D02*
X73730952Y26145181D01*
X73730952Y26145181D02*
X73969047Y26145181D01*
X73969047Y26145181D02*
X74111904Y26097562D01*
X74445238Y26145181D02*
X74683333Y25145181D01*
X74683333Y25145181D02*
X74873809Y25859467D01*
X74873809Y25859467D02*
X75064285Y25145181D01*
X75064285Y25145181D02*
X75302381Y26145181D01*
X76207142Y25145181D02*
X75635714Y25145181D01*
X75921428Y25145181D02*
X75921428Y26145181D01*
X75921428Y26145181D02*
X75826190Y26002324D01*
X75826190Y26002324D02*
X75730952Y25907086D01*
X75730952Y25907086D02*
X75635714Y25859467D01*
X76588095Y26049943D02*
X76635714Y26097562D01*
X76635714Y26097562D02*
X76730952Y26145181D01*
X76730952Y26145181D02*
X76969047Y26145181D01*
X76969047Y26145181D02*
X77064285Y26097562D01*
X77064285Y26097562D02*
X77111904Y26049943D01*
X77111904Y26049943D02*
X77159523Y25954705D01*
X77159523Y25954705D02*
X77159523Y25859467D01*
X77159523Y25859467D02*
X77111904Y25716610D01*
X77111904Y25716610D02*
X76540476Y25145181D01*
X76540476Y25145181D02*
X77159523Y25145181D01*
X7707142Y37140420D02*
X7659523Y37092800D01*
X7659523Y37092800D02*
X7516666Y37045181D01*
X7516666Y37045181D02*
X7421428Y37045181D01*
X7421428Y37045181D02*
X7278571Y37092800D01*
X7278571Y37092800D02*
X7183333Y37188039D01*
X7183333Y37188039D02*
X7135714Y37283277D01*
X7135714Y37283277D02*
X7088095Y37473753D01*
X7088095Y37473753D02*
X7088095Y37616610D01*
X7088095Y37616610D02*
X7135714Y37807086D01*
X7135714Y37807086D02*
X7183333Y37902324D01*
X7183333Y37902324D02*
X7278571Y37997562D01*
X7278571Y37997562D02*
X7421428Y38045181D01*
X7421428Y38045181D02*
X7516666Y38045181D01*
X7516666Y38045181D02*
X7659523Y37997562D01*
X7659523Y37997562D02*
X7707142Y37949943D01*
X8659523Y37045181D02*
X8088095Y37045181D01*
X8373809Y37045181D02*
X8373809Y38045181D01*
X8373809Y38045181D02*
X8278571Y37902324D01*
X8278571Y37902324D02*
X8183333Y37807086D01*
X8183333Y37807086D02*
X8088095Y37759467D01*
X9611904Y37045181D02*
X9040476Y37045181D01*
X9326190Y37045181D02*
X9326190Y38045181D01*
X9326190Y38045181D02*
X9230952Y37902324D01*
X9230952Y37902324D02*
X9135714Y37807086D01*
X9135714Y37807086D02*
X9040476Y37759467D01*
X20720515Y21866629D02*
X20672896Y21819009D01*
X20672896Y21819009D02*
X20530039Y21771390D01*
X20530039Y21771390D02*
X20434801Y21771390D01*
X20434801Y21771390D02*
X20291944Y21819009D01*
X20291944Y21819009D02*
X20196706Y21914248D01*
X20196706Y21914248D02*
X20149087Y22009486D01*
X20149087Y22009486D02*
X20101468Y22199962D01*
X20101468Y22199962D02*
X20101468Y22342819D01*
X20101468Y22342819D02*
X20149087Y22533295D01*
X20149087Y22533295D02*
X20196706Y22628533D01*
X20196706Y22628533D02*
X20291944Y22723771D01*
X20291944Y22723771D02*
X20434801Y22771390D01*
X20434801Y22771390D02*
X20530039Y22771390D01*
X20530039Y22771390D02*
X20672896Y22723771D01*
X20672896Y22723771D02*
X20720515Y22676152D01*
X21672896Y21771390D02*
X21101468Y21771390D01*
X21387182Y21771390D02*
X21387182Y22771390D01*
X21387182Y22771390D02*
X21291944Y22628533D01*
X21291944Y22628533D02*
X21196706Y22533295D01*
X21196706Y22533295D02*
X21101468Y22485676D01*
X22006230Y22771390D02*
X22625277Y22771390D01*
X22625277Y22771390D02*
X22291944Y22390438D01*
X22291944Y22390438D02*
X22434801Y22390438D01*
X22434801Y22390438D02*
X22530039Y22342819D01*
X22530039Y22342819D02*
X22577658Y22295200D01*
X22577658Y22295200D02*
X22625277Y22199962D01*
X22625277Y22199962D02*
X22625277Y21961867D01*
X22625277Y21961867D02*
X22577658Y21866629D01*
X22577658Y21866629D02*
X22530039Y21819009D01*
X22530039Y21819009D02*
X22434801Y21771390D01*
X22434801Y21771390D02*
X22149087Y21771390D01*
X22149087Y21771390D02*
X22053849Y21819009D01*
X22053849Y21819009D02*
X22006230Y21866629D01*
X430025Y3444326D02*
X1001453Y3444326D01*
X715739Y2444326D02*
X715739Y3444326D01*
X1334787Y2444326D02*
X1334787Y3444326D01*
X1334787Y3444326D02*
X1715739Y3444326D01*
X1715739Y3444326D02*
X1810977Y3396707D01*
X1810977Y3396707D02*
X1858596Y3349088D01*
X1858596Y3349088D02*
X1906215Y3253850D01*
X1906215Y3253850D02*
X1906215Y3110993D01*
X1906215Y3110993D02*
X1858596Y3015755D01*
X1858596Y3015755D02*
X1810977Y2968136D01*
X1810977Y2968136D02*
X1715739Y2920517D01*
X1715739Y2920517D02*
X1334787Y2920517D01*
X2239549Y3444326D02*
X2858596Y3444326D01*
X2858596Y3444326D02*
X2525263Y3063374D01*
X2525263Y3063374D02*
X2668120Y3063374D01*
X2668120Y3063374D02*
X2763358Y3015755D01*
X2763358Y3015755D02*
X2810977Y2968136D01*
X2810977Y2968136D02*
X2858596Y2872898D01*
X2858596Y2872898D02*
X2858596Y2634803D01*
X2858596Y2634803D02*
X2810977Y2539565D01*
X2810977Y2539565D02*
X2763358Y2491945D01*
X2763358Y2491945D02*
X2668120Y2444326D01*
X2668120Y2444326D02*
X2382406Y2444326D01*
X2382406Y2444326D02*
X2287168Y2491945D01*
X2287168Y2491945D02*
X2239549Y2539565D01*
X89421631Y5095657D02*
X89421631Y4524229D01*
X89421631Y4524229D02*
X89383536Y4409943D01*
X89383536Y4409943D02*
X89307345Y4333752D01*
X89307345Y4333752D02*
X89193060Y4295657D01*
X89193060Y4295657D02*
X89116869Y4295657D01*
X90221631Y4295657D02*
X89764488Y4295657D01*
X89993060Y4295657D02*
X89993060Y5095657D01*
X89993060Y5095657D02*
X89916869Y4981372D01*
X89916869Y4981372D02*
X89840679Y4905181D01*
X89840679Y4905181D02*
X89764488Y4867086D01*
X90526393Y5019467D02*
X90564489Y5057562D01*
X90564489Y5057562D02*
X90640679Y5095657D01*
X90640679Y5095657D02*
X90831155Y5095657D01*
X90831155Y5095657D02*
X90907346Y5057562D01*
X90907346Y5057562D02*
X90945441Y5019467D01*
X90945441Y5019467D02*
X90983536Y4943276D01*
X90983536Y4943276D02*
X90983536Y4867086D01*
X90983536Y4867086D02*
X90945441Y4752800D01*
X90945441Y4752800D02*
X90488298Y4295657D01*
X90488298Y4295657D02*
X90983536Y4295657D01*
X20698296Y23540420D02*
X20650677Y23492800D01*
X20650677Y23492800D02*
X20507820Y23445181D01*
X20507820Y23445181D02*
X20412582Y23445181D01*
X20412582Y23445181D02*
X20269725Y23492800D01*
X20269725Y23492800D02*
X20174487Y23588039D01*
X20174487Y23588039D02*
X20126868Y23683277D01*
X20126868Y23683277D02*
X20079249Y23873753D01*
X20079249Y23873753D02*
X20079249Y24016610D01*
X20079249Y24016610D02*
X20126868Y24207086D01*
X20126868Y24207086D02*
X20174487Y24302324D01*
X20174487Y24302324D02*
X20269725Y24397562D01*
X20269725Y24397562D02*
X20412582Y24445181D01*
X20412582Y24445181D02*
X20507820Y24445181D01*
X20507820Y24445181D02*
X20650677Y24397562D01*
X20650677Y24397562D02*
X20698296Y24349943D01*
X21031630Y24445181D02*
X21698296Y24445181D01*
X21698296Y24445181D02*
X21269725Y23445181D01*
D12*
%TO.C,D10*%
X49670749Y20640048D02*
X49670749Y24500048D01*
X49670749Y20640048D02*
X51670749Y20640048D01*
X51670749Y20640048D02*
X51670749Y24500048D01*
%TO.C,C8*%
X8629080Y31335000D02*
X8347920Y31335000D01*
X8629080Y30315000D02*
X8347920Y30315000D01*
%TO.C,R18*%
X29485054Y62703097D02*
X29485054Y62228581D01*
X30530054Y62703097D02*
X30530054Y62228581D01*
%TO.C,SW5*%
X53523583Y68850016D02*
X53523583Y53650016D01*
X53523583Y53650016D02*
X68723583Y53650016D01*
X68723583Y68850016D02*
X53523583Y68850016D01*
X68723583Y53650016D02*
X68723583Y68850016D01*
%TO.C,SW10*%
X33470749Y24850048D02*
X33470749Y9650048D01*
X33470749Y9650048D02*
X48670749Y9650048D01*
X48670749Y24850048D02*
X33470749Y24850048D01*
X48670749Y9650048D02*
X48670749Y24850048D01*
%TO.C,TP8*%
X6400000Y45000000D02*
G75*
G02*
X3500000Y45000000I-1450000J0D01*
G01*
X3500000Y45000000D02*
G75*
G02*
X6400000Y45000000I1450000J0D01*
G01*
D13*
%TO.C,J6*%
X53273583Y52600016D02*
X53623583Y52600016D01*
X53273583Y49300016D02*
X53273583Y52600016D01*
X53623583Y49300016D02*
X53273583Y49300016D01*
X68623583Y49300016D02*
X68973583Y49300016D01*
X68973583Y52600016D02*
X68623583Y52600016D01*
X68973583Y49300016D02*
X68973583Y52600016D01*
D14*
X65977583Y53615016D02*
G75*
G02*
X65777583Y53615016I-100000J0D01*
G01*
X65777583Y53615016D02*
G75*
G02*
X65977583Y53615016I100000J0D01*
G01*
D12*
%TO.C,SW9*%
X73497166Y46850032D02*
X73497166Y31650032D01*
X73497166Y31650032D02*
X88697166Y31650032D01*
X88697166Y46850032D02*
X73497166Y46850032D01*
X88697166Y31650032D02*
X88697166Y46850032D01*
%TO.C,D9*%
X89697166Y42640032D02*
X89697166Y46500032D01*
X89697166Y42640032D02*
X91697166Y42640032D01*
X91697166Y42640032D02*
X91697166Y46500032D01*
%TO.C,TP9*%
X94100000Y80500000D02*
G75*
G02*
X91200000Y80500000I-1450000J0D01*
G01*
X91200000Y80500000D02*
G75*
G02*
X94100000Y80500000I1450000J0D01*
G01*
%TO.C,D12*%
X89670749Y20640048D02*
X89670749Y24500048D01*
X89670749Y20640048D02*
X91670749Y20640048D01*
X91670749Y20640048D02*
X91670749Y24500048D01*
%TO.C,D8*%
X69697166Y42640032D02*
X69697166Y46500032D01*
X69697166Y42640032D02*
X71697166Y42640032D01*
X71697166Y42640032D02*
X71697166Y46500032D01*
D13*
%TO.C,J1*%
X33300000Y74600000D02*
X33650000Y74600000D01*
X33300000Y71300000D02*
X33300000Y74600000D01*
X33650000Y71300000D02*
X33300000Y71300000D01*
X48650000Y71300000D02*
X49000000Y71300000D01*
X49000000Y74600000D02*
X48650000Y74600000D01*
X49000000Y71300000D02*
X49000000Y74600000D01*
D14*
X46004000Y75615000D02*
G75*
G02*
X45804000Y75615000I-100000J0D01*
G01*
X45804000Y75615000D02*
G75*
G02*
X46004000Y75615000I100000J0D01*
G01*
D12*
%TO.C,A1*%
X4040000Y97032500D02*
X3560000Y97032500D01*
X4040000Y97032500D02*
X4040000Y96612500D01*
X4040000Y94492500D02*
X4040000Y94072500D01*
X4040000Y91952500D02*
X4040000Y91532500D01*
X4040000Y89412500D02*
X4040000Y88992500D01*
X4040000Y86872500D02*
X4040000Y86452500D01*
X4040000Y84332500D02*
X4040000Y83912500D01*
X4040000Y81792500D02*
X4040000Y81372500D01*
X4040000Y79252500D02*
X4040000Y78832500D01*
X4040000Y76712500D02*
X4040000Y76292500D01*
X4040000Y74172500D02*
X4040000Y73752500D01*
X4040000Y71632500D02*
X4040000Y71212500D01*
X4040000Y69092500D02*
X4040000Y68672500D01*
X4040000Y66552500D02*
X4040000Y66132500D01*
X4040000Y64012500D02*
X4040000Y63592500D01*
X4040000Y61472500D02*
X4040000Y61052500D01*
X4040000Y58932500D02*
X4040000Y58512500D01*
X4040000Y56392500D02*
X4040000Y55972500D01*
X4040000Y53852500D02*
X4040000Y53432500D01*
X4040000Y51312500D02*
X4040000Y50892500D01*
X4070324Y99152500D02*
X3560000Y99152500D01*
X4380000Y99152437D02*
X4380000Y99509500D01*
X4380000Y97032500D02*
X4380000Y96612500D01*
X4380000Y94492500D02*
X4380000Y94072500D01*
X4380000Y91952500D02*
X4380000Y91532500D01*
X4380000Y89412500D02*
X4380000Y88992500D01*
X4380000Y86872500D02*
X4380000Y86452500D01*
X4380000Y84332500D02*
X4380000Y83912500D01*
X4380000Y81792500D02*
X4380000Y81372500D01*
X4380000Y79252500D02*
X4380000Y78832500D01*
X4380000Y76712500D02*
X4380000Y76292500D01*
X4380000Y74172500D02*
X4380000Y73752500D01*
X4380000Y71632500D02*
X4380000Y71212500D01*
X4380000Y69092500D02*
X4380000Y68672500D01*
X4380000Y66552500D02*
X4380000Y66132500D01*
X4380000Y64012500D02*
X4380000Y63592500D01*
X4380000Y61472500D02*
X4380000Y61052500D01*
X4380000Y58932500D02*
X4380000Y58512500D01*
X4380000Y56392500D02*
X4380000Y55972500D01*
X4380000Y53852500D02*
X4380000Y53432500D01*
X4380000Y51312500D02*
X4380000Y50892500D01*
X4380000Y48772563D02*
X4380000Y48415500D01*
X4650000Y99572500D02*
X7140000Y99572500D01*
X4650000Y48352500D02*
X8487939Y48352500D01*
X7140000Y99572500D02*
X7140000Y98658980D01*
X7140000Y99572500D02*
X8487940Y99572500D01*
X7140000Y96266020D02*
X7140000Y51658980D01*
X7140000Y49266020D02*
X7140000Y48352500D01*
X9412061Y99572500D02*
X10415000Y99572500D01*
X10415000Y99572500D02*
X18885000Y99572500D01*
X10750000Y99572500D02*
X10750000Y98656500D01*
X10750000Y96268500D02*
X10750000Y95052500D01*
X10750000Y95052500D02*
X11046090Y95052500D01*
X11050000Y48352500D02*
X9412061Y48352500D01*
X13403910Y95052500D02*
X15896090Y95052500D01*
X18250000Y48352500D02*
X11050000Y48352500D01*
X18253910Y95052500D02*
X18550000Y95052500D01*
X18550000Y99572500D02*
X18550000Y98656500D01*
X18550000Y96268500D02*
X18550000Y95052500D01*
X18885000Y99572500D02*
X19887939Y99572500D01*
X19887939Y48352500D02*
X18250000Y48352500D01*
X20812061Y99572500D02*
X22160000Y99572500D01*
X20812061Y48352500D02*
X24650000Y48352500D01*
X22160000Y99572500D02*
X22160000Y98658980D01*
X22160000Y96266020D02*
X22160000Y51658980D01*
X22160000Y49266020D02*
X22160000Y48352500D01*
X24650000Y99572500D02*
X22160000Y99572500D01*
X24920000Y99152437D02*
X24920000Y99509500D01*
X24920000Y97032500D02*
X24920000Y96612500D01*
X24920000Y94492500D02*
X24920000Y94072500D01*
X24920000Y91952500D02*
X24920000Y91532500D01*
X24920000Y89412500D02*
X24920000Y88992500D01*
X24920000Y86872500D02*
X24920000Y86452500D01*
X24920000Y84332500D02*
X24920000Y83912500D01*
X24920000Y81792500D02*
X24920000Y81372500D01*
X24920000Y79252500D02*
X24920000Y78832500D01*
X24920000Y76712500D02*
X24920000Y76292500D01*
X24920000Y74172500D02*
X24920000Y73752500D01*
X24920000Y71632500D02*
X24920000Y71212500D01*
X24920000Y69092500D02*
X24920000Y68672500D01*
X24920000Y66552500D02*
X24920000Y66132500D01*
X24920000Y64012500D02*
X24920000Y63592500D01*
X24920000Y61472500D02*
X24920000Y61052500D01*
X24920000Y58932500D02*
X24920000Y58512500D01*
X24920000Y56392500D02*
X24920000Y55972500D01*
X24920000Y53852500D02*
X24920000Y53432500D01*
X24920000Y51312500D02*
X24920000Y50892500D01*
X24920000Y48772563D02*
X24920000Y48415500D01*
X25260000Y97032500D02*
X25260000Y96612500D01*
X25260000Y94492500D02*
X25260000Y94072500D01*
X25260000Y91952500D02*
X25260000Y91532500D01*
X25260000Y89412500D02*
X25260000Y88992500D01*
X25260000Y86872500D02*
X25260000Y86452500D01*
X25260000Y84332500D02*
X25260000Y83912500D01*
X25260000Y81792500D02*
X25260000Y81372500D01*
X25260000Y79252500D02*
X25260000Y78832500D01*
X25260000Y76712500D02*
X25260000Y76292500D01*
X25260000Y74172500D02*
X25260000Y73752500D01*
X25260000Y71632500D02*
X25260000Y71212500D01*
X25260000Y69092500D02*
X25260000Y68672500D01*
X25260000Y66552500D02*
X25260000Y66132500D01*
X25260000Y64012500D02*
X25260000Y63592500D01*
X25260000Y61472500D02*
X25260000Y61052500D01*
X25260000Y58932500D02*
X25260000Y58512500D01*
X25260000Y56392500D02*
X25260000Y55972500D01*
X25260000Y53852500D02*
X25260000Y53432500D01*
X25260000Y51312500D02*
X25260000Y50892500D01*
X4070324Y99152500D02*
G75*
G02*
X4650000Y99572500I579692J-190051D01*
G01*
X4650000Y48352500D02*
G75*
G02*
X4070324Y48772563I1J610002D01*
G01*
X24650000Y99572500D02*
G75*
G02*
X25229676Y99152437I0J-610000D01*
G01*
X25229676Y48772563D02*
G75*
G02*
X24650000Y48352431I-579676J189837D01*
G01*
D13*
%TO.C,J10*%
X73273583Y52600016D02*
X73623583Y52600016D01*
X73273583Y49300016D02*
X73273583Y52600016D01*
X73623583Y49300016D02*
X73273583Y49300016D01*
X88623583Y49300016D02*
X88973583Y49300016D01*
X88973583Y52600016D02*
X88623583Y52600016D01*
X88973583Y49300016D02*
X88973583Y52600016D01*
D14*
X85977583Y53615016D02*
G75*
G02*
X85777583Y53615016I-100000J0D01*
G01*
X85777583Y53615016D02*
G75*
G02*
X85977583Y53615016I100000J0D01*
G01*
D13*
%TO.C,J7*%
X53247166Y30600032D02*
X53597166Y30600032D01*
X53247166Y27300032D02*
X53247166Y30600032D01*
X53597166Y27300032D02*
X53247166Y27300032D01*
X68597166Y27300032D02*
X68947166Y27300032D01*
X68947166Y30600032D02*
X68597166Y30600032D01*
X68947166Y27300032D02*
X68947166Y30600032D01*
D14*
X65951166Y31615032D02*
G75*
G02*
X65751166Y31615032I-100000J0D01*
G01*
X65751166Y31615032D02*
G75*
G02*
X65951166Y31615032I100000J0D01*
G01*
D12*
%TO.C,C6*%
X10879080Y25310000D02*
X10597920Y25310000D01*
X10879080Y24290000D02*
X10597920Y24290000D01*
D13*
%TO.C,J11*%
X73247166Y30600032D02*
X73597166Y30600032D01*
X73247166Y27300032D02*
X73247166Y30600032D01*
X73597166Y27300032D02*
X73247166Y27300032D01*
X88597166Y27300032D02*
X88947166Y27300032D01*
X88947166Y30600032D02*
X88597166Y30600032D01*
X88947166Y27300032D02*
X88947166Y30600032D01*
D14*
X85951166Y31615032D02*
G75*
G02*
X85751166Y31615032I-100000J0D01*
G01*
X85751166Y31615032D02*
G75*
G02*
X85951166Y31615032I100000J0D01*
G01*
D12*
%TO.C,C14*%
X10674752Y17685000D02*
X9252248Y17685000D01*
X10674752Y15865000D02*
X9252248Y15865000D01*
D13*
%TO.C,U1*%
X11213500Y30550000D02*
X11213500Y29900000D01*
X11213500Y27700000D02*
X11213500Y27050000D01*
X11213500Y27050000D02*
X11363500Y27050000D01*
X11363500Y30550000D02*
X11213500Y30550000D01*
X15563500Y30550000D02*
X15713500Y30550000D01*
X15713500Y30550000D02*
X15713500Y29900000D01*
X15713500Y27700000D02*
X15713500Y27050000D01*
X15713500Y27050000D02*
X15563500Y27050000D01*
D14*
X16563500Y29550000D02*
G75*
G02*
X16363500Y29550000I-100000J0D01*
G01*
X16363500Y29550000D02*
G75*
G02*
X16563500Y29550000I100000J0D01*
G01*
D12*
%TO.C,TP1*%
X26400000Y2750000D02*
G75*
G02*
X23500000Y2750000I-1450000J0D01*
G01*
X23500000Y2750000D02*
G75*
G02*
X26400000Y2750000I1450000J0D01*
G01*
D13*
%TO.C,J8*%
X53220749Y8600048D02*
X53570749Y8600048D01*
X53220749Y5300048D02*
X53220749Y8600048D01*
X53570749Y5300048D02*
X53220749Y5300048D01*
X68570749Y5300048D02*
X68920749Y5300048D01*
X68920749Y8600048D02*
X68570749Y8600048D01*
X68920749Y5300048D02*
X68920749Y8600048D01*
D14*
X65924749Y9615048D02*
G75*
G02*
X65724749Y9615048I-100000J0D01*
G01*
X65724749Y9615048D02*
G75*
G02*
X65924749Y9615048I100000J0D01*
G01*
D12*
%TO.C,C15*%
X10674752Y20435000D02*
X9252248Y20435000D01*
X10674752Y18615000D02*
X9252248Y18615000D01*
%TO.C,C16*%
X10674752Y23185000D02*
X9252248Y23185000D01*
X10674752Y21365000D02*
X9252248Y21365000D01*
%TO.C,TP5*%
X92200000Y16700000D02*
G75*
G02*
X89300000Y16700000I-1450000J0D01*
G01*
X89300000Y16700000D02*
G75*
G02*
X92200000Y16700000I1450000J0D01*
G01*
D13*
%TO.C,J4*%
X33220749Y8600048D02*
X33570749Y8600048D01*
X33220749Y5300048D02*
X33220749Y8600048D01*
X33570749Y5300048D02*
X33220749Y5300048D01*
X48570749Y5300048D02*
X48920749Y5300048D01*
X48920749Y8600048D02*
X48570749Y8600048D01*
X48920749Y5300048D02*
X48920749Y8600048D01*
D14*
X45924749Y9615048D02*
G75*
G02*
X45724749Y9615048I-100000J0D01*
G01*
X45724749Y9615048D02*
G75*
G02*
X45924749Y9615048I100000J0D01*
G01*
D12*
%TO.C,D11*%
X69670749Y20640048D02*
X69670749Y24500048D01*
X69670749Y20640048D02*
X71670749Y20640048D01*
X71670749Y20640048D02*
X71670749Y24500048D01*
%TO.C,TP7*%
X28479811Y10611496D02*
G75*
G02*
X25579811Y10611496I-1450000J0D01*
G01*
X25579811Y10611496D02*
G75*
G02*
X28479811Y10611496I1450000J0D01*
G01*
%TO.C,D7*%
X49697166Y42640032D02*
X49697166Y46500032D01*
X49697166Y42640032D02*
X51697166Y42640032D01*
X51697166Y42640032D02*
X51697166Y46500032D01*
%TO.C,TP6*%
X28479811Y14691339D02*
G75*
G02*
X25579811Y14691339I-1450000J0D01*
G01*
X25579811Y14691339D02*
G75*
G02*
X28479811Y14691339I1450000J0D01*
G01*
%TO.C,D3*%
X89750000Y86640000D02*
X89750000Y90500000D01*
X89750000Y86640000D02*
X91750000Y86640000D01*
X91750000Y86640000D02*
X91750000Y90500000D01*
%TO.C,D2*%
X69750000Y86640000D02*
X69750000Y90500000D01*
X69750000Y86640000D02*
X71750000Y86640000D01*
X71750000Y86640000D02*
X71750000Y90500000D01*
%TO.C,D4*%
X49723583Y64640016D02*
X49723583Y68500016D01*
X49723583Y64640016D02*
X51723583Y64640016D01*
X51723583Y64640016D02*
X51723583Y68500016D01*
%TO.C,C9*%
X11572920Y33560000D02*
X11854080Y33560000D01*
X11572920Y32540000D02*
X11854080Y32540000D01*
%TO.C,C12*%
X18322920Y31335000D02*
X18604080Y31335000D01*
X18322920Y30315000D02*
X18604080Y30315000D01*
%TO.C,SW2*%
X53550000Y90850000D02*
X53550000Y75650000D01*
X53550000Y75650000D02*
X68750000Y75650000D01*
X68750000Y90850000D02*
X53550000Y90850000D01*
X68750000Y75650000D02*
X68750000Y90850000D01*
%TO.C,R7*%
X18666258Y26201500D02*
X18191742Y26201500D01*
X18666258Y25156500D02*
X18191742Y25156500D01*
%TO.C,R8*%
X15226242Y33572500D02*
X15700758Y33572500D01*
X15226242Y32527500D02*
X15700758Y32527500D01*
%TO.C,SW8*%
X53497166Y46850032D02*
X53497166Y31650032D01*
X53497166Y31650032D02*
X68697166Y31650032D01*
X68697166Y46850032D02*
X53497166Y46850032D01*
X68697166Y31650032D02*
X68697166Y46850032D01*
D13*
%TO.C,J9*%
X73300000Y74600000D02*
X73650000Y74600000D01*
X73300000Y71300000D02*
X73300000Y74600000D01*
X73650000Y71300000D02*
X73300000Y71300000D01*
X88650000Y71300000D02*
X89000000Y71300000D01*
X89000000Y74600000D02*
X88650000Y74600000D01*
X89000000Y71300000D02*
X89000000Y74600000D01*
D14*
X86004000Y75615000D02*
G75*
G02*
X85804000Y75615000I-100000J0D01*
G01*
X85804000Y75615000D02*
G75*
G02*
X86004000Y75615000I100000J0D01*
G01*
D12*
%TO.C,R5*%
X13941000Y17537258D02*
X13941000Y17062742D01*
X14986000Y17537258D02*
X14986000Y17062742D01*
%TO.C,SW1*%
X33550000Y90850000D02*
X33550000Y75650000D01*
X33550000Y75650000D02*
X48750000Y75650000D01*
X48750000Y90850000D02*
X33550000Y90850000D01*
X48750000Y75650000D02*
X48750000Y90850000D01*
%TO.C,R19*%
X27330471Y62691176D02*
X27330471Y62216660D01*
X28375471Y62691176D02*
X28375471Y62216660D01*
%TO.C,D6*%
X89723583Y64640016D02*
X89723583Y68500016D01*
X89723583Y64640016D02*
X91723583Y64640016D01*
X91723583Y64640016D02*
X91723583Y68500016D01*
%TO.C,TP4*%
X96600000Y16700000D02*
G75*
G02*
X93700000Y16700000I-1450000J0D01*
G01*
X93700000Y16700000D02*
G75*
G02*
X96600000Y16700000I1450000J0D01*
G01*
%TO.C,TP2*%
X26403880Y45000000D02*
G75*
G02*
X23503880Y45000000I-1450000J0D01*
G01*
X23503880Y45000000D02*
G75*
G02*
X26403880Y45000000I1450000J0D01*
G01*
%TO.C,SW4*%
X33523583Y68850016D02*
X33523583Y53650016D01*
X33523583Y53650016D02*
X48723583Y53650016D01*
X48723583Y68850016D02*
X33523583Y68850016D01*
X48723583Y53650016D02*
X48723583Y68850016D01*
%TO.C,C10*%
X11072920Y36310000D02*
X11354080Y36310000D01*
X11072920Y35290000D02*
X11354080Y35290000D01*
%TO.C,SW6*%
X73523583Y68850016D02*
X73523583Y53650016D01*
X73523583Y53650016D02*
X88723583Y53650016D01*
X88723583Y68850016D02*
X73523583Y68850016D01*
X88723583Y53650016D02*
X88723583Y68850016D01*
D13*
%TO.C,J3*%
X33247166Y30600032D02*
X33597166Y30600032D01*
X33247166Y27300032D02*
X33247166Y30600032D01*
X33597166Y27300032D02*
X33247166Y27300032D01*
X48597166Y27300032D02*
X48947166Y27300032D01*
X48947166Y30600032D02*
X48597166Y30600032D01*
X48947166Y27300032D02*
X48947166Y30600032D01*
D14*
X45951166Y31615032D02*
G75*
G02*
X45751166Y31615032I-100000J0D01*
G01*
X45751166Y31615032D02*
G75*
G02*
X45951166Y31615032I100000J0D01*
G01*
D12*
%TO.C,L1*%
X14363500Y39300000D02*
X14363500Y35300000D01*
X18563500Y39300000D02*
X18563500Y35300000D01*
%TO.C,R4*%
X15450758Y21072500D02*
X14976242Y21072500D01*
X15450758Y20027500D02*
X14976242Y20027500D01*
%TO.C,D1*%
X49625000Y86640000D02*
X49625000Y90500000D01*
X49625000Y86640000D02*
X51625000Y86640000D01*
X51625000Y86640000D02*
X51625000Y90500000D01*
%TO.C,SW3*%
X73550000Y90850000D02*
X73550000Y75650000D01*
X73550000Y75650000D02*
X88750000Y75650000D01*
X88750000Y90850000D02*
X73550000Y90850000D01*
X88750000Y75650000D02*
X88750000Y90850000D01*
%TO.C,R6*%
X13941000Y23837742D02*
X13941000Y24312258D01*
X14986000Y23837742D02*
X14986000Y24312258D01*
%TO.C,D5*%
X69723583Y64640016D02*
X69723583Y68500016D01*
X69723583Y64640016D02*
X71723583Y64640016D01*
X71723583Y64640016D02*
X71723583Y68500016D01*
D13*
%TO.C,J5*%
X53300000Y74600000D02*
X53650000Y74600000D01*
X53300000Y71300000D02*
X53300000Y74600000D01*
X53650000Y71300000D02*
X53300000Y71300000D01*
X68650000Y71300000D02*
X69000000Y71300000D01*
X69000000Y74600000D02*
X68650000Y74600000D01*
X69000000Y71300000D02*
X69000000Y74600000D01*
D14*
X66004000Y75615000D02*
G75*
G02*
X65804000Y75615000I-100000J0D01*
G01*
X65804000Y75615000D02*
G75*
G02*
X66004000Y75615000I100000J0D01*
G01*
D13*
%TO.C,J2*%
X33273583Y52600016D02*
X33623583Y52600016D01*
X33273583Y49300016D02*
X33273583Y52600016D01*
X33623583Y49300016D02*
X33273583Y49300016D01*
X48623583Y49300016D02*
X48973583Y49300016D01*
X48973583Y52600016D02*
X48623583Y52600016D01*
X48973583Y49300016D02*
X48973583Y52600016D01*
D14*
X45977583Y53615016D02*
G75*
G02*
X45777583Y53615016I-100000J0D01*
G01*
X45777583Y53615016D02*
G75*
G02*
X45977583Y53615016I100000J0D01*
G01*
D12*
%TO.C,SW7*%
X33497166Y46850032D02*
X33497166Y31650032D01*
X33497166Y31650032D02*
X48697166Y31650032D01*
X48697166Y46850032D02*
X33497166Y46850032D01*
X48697166Y31650032D02*
X48697166Y46850032D01*
%TO.C,SW11*%
X53470749Y24850048D02*
X53470749Y9650048D01*
X53470749Y9650048D02*
X68670749Y9650048D01*
X68670749Y24850048D02*
X53470749Y24850048D01*
X68670749Y9650048D02*
X68670749Y24850048D01*
%TO.C,SW12*%
X73470749Y24850048D02*
X73470749Y9650048D01*
X73470749Y9650048D02*
X88670749Y9650048D01*
X88670749Y24850048D02*
X73470749Y24850048D01*
X88670749Y9650048D02*
X88670749Y24850048D01*
%TO.C,C11*%
X11072920Y38060000D02*
X11354080Y38060000D01*
X11072920Y37040000D02*
X11354080Y37040000D01*
%TO.C,C13*%
X18288420Y22768000D02*
X18569580Y22768000D01*
X18288420Y21748000D02*
X18569580Y21748000D01*
%TO.C,TP3*%
X6400000Y2750000D02*
G75*
G02*
X3500000Y2750000I-1450000J0D01*
G01*
X3500000Y2750000D02*
G75*
G02*
X6400000Y2750000I1450000J0D01*
G01*
D13*
%TO.C,J12*%
X73220749Y8600048D02*
X73570749Y8600048D01*
X73220749Y5300048D02*
X73220749Y8600048D01*
X73570749Y5300048D02*
X73220749Y5300048D01*
X88570749Y5300048D02*
X88920749Y5300048D01*
X88920749Y8600048D02*
X88570749Y8600048D01*
X88920749Y5300048D02*
X88920749Y8600048D01*
D14*
X85924749Y9615048D02*
G75*
G02*
X85724749Y9615048I-100000J0D01*
G01*
X85724749Y9615048D02*
G75*
G02*
X85924749Y9615048I100000J0D01*
G01*
D12*
%TO.C,C7*%
X18288420Y24439000D02*
X18569580Y24439000D01*
X18288420Y23419000D02*
X18569580Y23419000D01*
%TD*%
M02*
