%TF.GenerationSoftware,KiCad,Pcbnew,9.0.6*%
%TF.CreationDate,2026-07-16T23:14:13+02:00*%
%TF.ProjectId,oled_keyboard,6f6c6564-5f6b-4657-9962-6f6172642e6b,rev?*%
%TF.SameCoordinates,PX4e0ee90PY7c745a0*%
%TF.FileFunction,Soldermask,Bot*%
%TF.FilePolarity,Negative*%
%FSLAX46Y46*%
G04 Gerber Fmt 4.6, Leading zero omitted, Abs format (unit mm)*
G04 Created by KiCad (PCBNEW 9.0.6) date 2026-07-16 23:14:13*
%MOMM*%
%LPD*%
G01*
G04 APERTURE LIST*
G04 Aperture macros list*
%AMRoundRect*
0 Rectangle with rounded corners*
0 $1 Rounding radius*
0 $2 $3 $4 $5 $6 $7 $8 $9 X,Y pos of 4 corners*
0 Add a 4 corners polygon primitive as box body*
4,1,4,$2,$3,$4,$5,$6,$7,$8,$9,$2,$3,0*
0 Add four circle primitives for the rounded corners*
1,1,$1+$1,$2,$3*
1,1,$1+$1,$4,$5*
1,1,$1+$1,$6,$7*
1,1,$1+$1,$8,$9*
0 Add four rect primitives between the rounded corners*
20,1,$1+$1,$2,$3,$4,$5,0*
20,1,$1+$1,$4,$5,$6,$7,0*
20,1,$1+$1,$6,$7,$8,$9,0*
20,1,$1+$1,$8,$9,$2,$3,0*%
%AMFreePoly0*
4,1,37,0.603843,0.796157,0.639018,0.796157,0.711114,0.766294,0.766294,0.711114,0.796157,0.639018,0.796157,0.603843,0.800000,0.600000,0.800000,-0.600000,0.796157,-0.603843,0.796157,-0.639018,0.766294,-0.711114,0.711114,-0.766294,0.639018,-0.796157,0.603843,-0.796157,0.600000,-0.800000,0.000000,-0.800000,0.000000,-0.796148,-0.078414,-0.796148,-0.232228,-0.765552,-0.377117,-0.705537,
-0.507515,-0.618408,-0.618408,-0.507515,-0.705537,-0.377117,-0.765552,-0.232228,-0.796148,-0.078414,-0.796148,0.078414,-0.765552,0.232228,-0.705537,0.377117,-0.618408,0.507515,-0.507515,0.618408,-0.377117,0.705537,-0.232228,0.765552,-0.078414,0.796148,0.000000,0.796148,0.000000,0.800000,0.600000,0.800000,0.603843,0.796157,0.603843,0.796157,$1*%
%AMFreePoly1*
4,1,37,0.000000,0.796148,0.078414,0.796148,0.232228,0.765552,0.377117,0.705537,0.507515,0.618408,0.618408,0.507515,0.705537,0.377117,0.765552,0.232228,0.796148,0.078414,0.796148,-0.078414,0.765552,-0.232228,0.705537,-0.377117,0.618408,-0.507515,0.507515,-0.618408,0.377117,-0.705537,0.232228,-0.765552,0.078414,-0.796148,0.000000,-0.796148,0.000000,-0.800000,-0.600000,-0.800000,
-0.603843,-0.796157,-0.639018,-0.796157,-0.711114,-0.766294,-0.766294,-0.711114,-0.796157,-0.639018,-0.796157,-0.603843,-0.800000,-0.600000,-0.800000,0.600000,-0.796157,0.603843,-0.796157,0.639018,-0.766294,0.711114,-0.711114,0.766294,-0.639018,0.796157,-0.603843,0.796157,-0.600000,0.800000,0.000000,0.800000,0.000000,0.796148,0.000000,0.796148,$1*%
G04 Aperture macros list end*
%ADD10C,2.700000*%
%ADD11C,1.900000*%
%ADD12C,5.050000*%
%ADD13C,2.200000*%
%ADD14C,1.850000*%
%ADD15RoundRect,0.200000X-0.600000X-0.600000X0.600000X-0.600000X0.600000X0.600000X-0.600000X0.600000X0*%
%ADD16C,1.600000*%
%ADD17FreePoly0,0.000000*%
%ADD18FreePoly1,0.000000*%
%ADD19C,0.504000*%
%ADD20RoundRect,0.225000X0.250000X-0.225000X0.250000X0.225000X-0.250000X0.225000X-0.250000X-0.225000X0*%
%ADD21RoundRect,0.200000X0.275000X-0.200000X0.275000X0.200000X-0.275000X0.200000X-0.275000X-0.200000X0*%
G04 APERTURE END LIST*
D10*
%TO.C,H2*%
X95000000Y5000000D03*
%TD*%
D11*
%TO.C,SW5*%
X55623583Y61250016D03*
D12*
X61123583Y61250016D03*
D11*
X66623583Y61250016D03*
D13*
X61123583Y67150016D03*
X66123583Y65050016D03*
%TD*%
D11*
%TO.C,SW10*%
X35570749Y17250048D03*
D12*
X41070749Y17250048D03*
D11*
X46570749Y17250048D03*
D13*
X41070749Y23150048D03*
X46070749Y21050048D03*
%TD*%
D11*
%TO.C,SW9*%
X75597166Y39250032D03*
D12*
X81097166Y39250032D03*
D11*
X86597166Y39250032D03*
D13*
X81097166Y45150032D03*
X86097166Y43050032D03*
%TD*%
%TO.C,A1*%
X11925000Y97962500D03*
D14*
X12225000Y94932500D03*
X17075000Y94932500D03*
D13*
X17375000Y97962500D03*
D15*
X5760000Y98092500D03*
D16*
X5760000Y95552500D03*
D17*
X5760000Y93012500D03*
D16*
X5760000Y90472500D03*
X5760000Y87932500D03*
X5760000Y85392500D03*
X5760000Y82852500D03*
D17*
X5760000Y80312500D03*
D16*
X5760000Y77772500D03*
X5760000Y75232500D03*
X5760000Y72692500D03*
X5760000Y70152500D03*
D17*
X5760000Y67612500D03*
D16*
X5760000Y65072500D03*
X5760000Y62532500D03*
X5760000Y59992500D03*
X5760000Y57452500D03*
D17*
X5760000Y54912500D03*
D16*
X5760000Y52372500D03*
X5760000Y49832500D03*
X23540000Y49832500D03*
X23540000Y52372500D03*
D18*
X23540000Y54912500D03*
D16*
X23540000Y57452500D03*
X23540000Y59992500D03*
X23540000Y62532500D03*
X23540000Y65072500D03*
D18*
X23540000Y67612500D03*
D16*
X23540000Y70152500D03*
X23540000Y72692500D03*
X23540000Y75232500D03*
X23540000Y77772500D03*
D18*
X23540000Y80312500D03*
D16*
X23540000Y82852500D03*
X23540000Y85392500D03*
X23540000Y87932500D03*
X23540000Y90472500D03*
D18*
X23540000Y93012500D03*
D16*
X23540000Y95552500D03*
X23540000Y98092500D03*
%TD*%
D19*
%TO.C,U1*%
X14738500Y28800000D03*
X13988500Y29575000D03*
X13988500Y28800000D03*
X13988500Y28025000D03*
X12938500Y29575000D03*
X12938500Y28800000D03*
X12938500Y28025000D03*
X12188500Y28800000D03*
%TD*%
D10*
%TO.C,H4*%
X30150000Y95000000D03*
%TD*%
%TO.C,H1*%
X95000000Y95000000D03*
%TD*%
D11*
%TO.C,SW2*%
X55650000Y83250000D03*
D12*
X61150000Y83250000D03*
D11*
X66650000Y83250000D03*
D13*
X61150000Y89150000D03*
X66150000Y87050000D03*
%TD*%
D11*
%TO.C,SW8*%
X55597166Y39250032D03*
D12*
X61097166Y39250032D03*
D11*
X66597166Y39250032D03*
D13*
X61097166Y45150032D03*
X66097166Y43050032D03*
%TD*%
D10*
%TO.C,H3*%
X30150000Y5000000D03*
%TD*%
D11*
%TO.C,SW1*%
X35650000Y83250000D03*
D12*
X41150000Y83250000D03*
D11*
X46650000Y83250000D03*
D13*
X41150000Y89150000D03*
X46150000Y87050000D03*
%TD*%
D11*
%TO.C,SW4*%
X35623583Y61250016D03*
D12*
X41123583Y61250016D03*
D11*
X46623583Y61250016D03*
D13*
X41123583Y67150016D03*
X46123583Y65050016D03*
%TD*%
D11*
%TO.C,SW6*%
X75623583Y61250016D03*
D12*
X81123583Y61250016D03*
D11*
X86623583Y61250016D03*
D13*
X81123583Y67150016D03*
X86123583Y65050016D03*
%TD*%
D11*
%TO.C,SW3*%
X75650000Y83250000D03*
D12*
X81150000Y83250000D03*
D11*
X86650000Y83250000D03*
D13*
X81150000Y89150000D03*
X86150000Y87050000D03*
%TD*%
D11*
%TO.C,SW7*%
X35597166Y39250032D03*
D12*
X41097166Y39250032D03*
D11*
X46597166Y39250032D03*
D13*
X41097166Y45150032D03*
X46097166Y43050032D03*
%TD*%
D11*
%TO.C,SW11*%
X55570749Y17250048D03*
D12*
X61070749Y17250048D03*
D11*
X66570749Y17250048D03*
D13*
X61070749Y23150048D03*
X66070749Y21050048D03*
%TD*%
D11*
%TO.C,SW12*%
X75570749Y17250048D03*
D12*
X81070749Y17250048D03*
D11*
X86570749Y17250048D03*
D13*
X81070749Y23150048D03*
X86070749Y21050048D03*
%TD*%
D20*
%TO.C,C25*%
X38070749Y9900048D03*
X38070749Y11450048D03*
%TD*%
%TO.C,C29*%
X56623583Y53900016D03*
X56623583Y55450016D03*
%TD*%
%TO.C,C24*%
X46347166Y31900032D03*
X46347166Y33450032D03*
%TD*%
%TO.C,C20*%
X36597166Y31900032D03*
X36597166Y33450032D03*
%TD*%
%TO.C,C45*%
X76623583Y53900016D03*
X76623583Y55450016D03*
%TD*%
%TO.C,C33*%
X58123583Y53900016D03*
X58123583Y55450016D03*
%TD*%
%TO.C,C47*%
X87820749Y9900048D03*
X87820749Y11450048D03*
%TD*%
%TO.C,C18*%
X46373583Y53900016D03*
X46373583Y55450016D03*
%TD*%
%TO.C,C38*%
X66347166Y31900032D03*
X66347166Y33450032D03*
%TD*%
%TO.C,C19*%
X47873583Y53900016D03*
X47873583Y55450016D03*
%TD*%
%TO.C,C35*%
X67820749Y9900048D03*
X67820749Y11450048D03*
%TD*%
%TO.C,C26*%
X47847166Y31900032D03*
X47847166Y33450032D03*
%TD*%
%TO.C,C41*%
X66373583Y53900016D03*
X66373583Y55450016D03*
%TD*%
%TO.C,C3*%
X36650000Y75900000D03*
X36650000Y77450000D03*
%TD*%
D21*
%TO.C,R17*%
X84820749Y9850048D03*
X84820749Y11500048D03*
%TD*%
D20*
%TO.C,C23*%
X47820749Y9900048D03*
X47820749Y11450048D03*
%TD*%
%TO.C,C31*%
X66320749Y9900048D03*
X66320749Y11450048D03*
%TD*%
%TO.C,C43*%
X56570749Y9900048D03*
X56570749Y11450048D03*
%TD*%
%TO.C,C58*%
X87847166Y31900032D03*
X87847166Y33450032D03*
%TD*%
%TO.C,C48*%
X78150000Y75900000D03*
X78150000Y77450000D03*
%TD*%
%TO.C,C56*%
X87900000Y75900000D03*
X87900000Y77450000D03*
%TD*%
%TO.C,C52*%
X86400000Y75900000D03*
X86400000Y77450000D03*
%TD*%
%TO.C,C40*%
X66400000Y75900000D03*
X66400000Y77450000D03*
%TD*%
%TO.C,C22*%
X38097166Y31900032D03*
X38097166Y33450032D03*
%TD*%
%TO.C,C36*%
X67900000Y75900000D03*
X67900000Y77450000D03*
%TD*%
%TO.C,C55*%
X78070749Y9900048D03*
X78070749Y11450048D03*
%TD*%
%TO.C,C4*%
X47900000Y75900000D03*
X47900000Y77450000D03*
%TD*%
D21*
%TO.C,R10*%
X64900000Y75850000D03*
X64900000Y77500000D03*
%TD*%
D20*
%TO.C,C53*%
X86373583Y53900016D03*
X86373583Y55450016D03*
%TD*%
D21*
%TO.C,R13*%
X64820749Y9850048D03*
X64820749Y11500048D03*
%TD*%
D20*
%TO.C,C28*%
X56650000Y75900000D03*
X56650000Y77450000D03*
%TD*%
%TO.C,C49*%
X78123583Y53900016D03*
X78123583Y55450016D03*
%TD*%
%TO.C,C50*%
X78097166Y31900032D03*
X78097166Y33450032D03*
%TD*%
D21*
%TO.C,R1*%
X44873583Y53850016D03*
X44873583Y55500016D03*
%TD*%
%TO.C,R16*%
X84847166Y31850032D03*
X84847166Y33500032D03*
%TD*%
D20*
%TO.C,C21*%
X46320749Y9900048D03*
X46320749Y11450048D03*
%TD*%
%TO.C,C17*%
X38123583Y53900016D03*
X38123583Y55450016D03*
%TD*%
D21*
%TO.C,R3*%
X44900000Y75850000D03*
X44900000Y77500000D03*
%TD*%
D20*
%TO.C,C54*%
X86347166Y31900032D03*
X86347166Y33450032D03*
%TD*%
D21*
%TO.C,R2*%
X44847166Y31850032D03*
X44847166Y33500032D03*
%TD*%
D20*
%TO.C,C46*%
X76597166Y31900032D03*
X76597166Y33450032D03*
%TD*%
D21*
%TO.C,R15*%
X84873583Y53850016D03*
X84873583Y55500016D03*
%TD*%
D20*
%TO.C,C57*%
X87873583Y53900016D03*
X87873583Y55450016D03*
%TD*%
%TO.C,C1*%
X38150000Y75900000D03*
X38150000Y77450000D03*
%TD*%
D21*
%TO.C,R11*%
X64873583Y53850016D03*
X64873583Y55500016D03*
%TD*%
D20*
%TO.C,C51*%
X86320749Y9900048D03*
X86320749Y11450048D03*
%TD*%
%TO.C,C30*%
X56597166Y31900032D03*
X56597166Y33450032D03*
%TD*%
%TO.C,C32*%
X58150000Y75900000D03*
X58150000Y77450000D03*
%TD*%
%TO.C,C27*%
X36570749Y9900048D03*
X36570749Y11450048D03*
%TD*%
%TO.C,C59*%
X76570749Y9900048D03*
X76570749Y11450048D03*
%TD*%
D21*
%TO.C,R12*%
X64847166Y31850032D03*
X64847166Y33500032D03*
%TD*%
D20*
%TO.C,C39*%
X58070749Y9900048D03*
X58070749Y11450048D03*
%TD*%
%TO.C,C44*%
X76650000Y75900000D03*
X76650000Y77450000D03*
%TD*%
%TO.C,C2*%
X46400000Y75900000D03*
X46400000Y77450000D03*
%TD*%
%TO.C,C37*%
X67873583Y53900016D03*
X67873583Y55450016D03*
%TD*%
%TO.C,C34*%
X58097166Y31900032D03*
X58097166Y33450032D03*
%TD*%
D21*
%TO.C,R14*%
X84900000Y75850000D03*
X84900000Y77500000D03*
%TD*%
D20*
%TO.C,C42*%
X67847166Y31900032D03*
X67847166Y33450032D03*
%TD*%
%TO.C,C5*%
X36623583Y53900016D03*
X36623583Y55450016D03*
%TD*%
D21*
%TO.C,R9*%
X44820749Y9850048D03*
X44820749Y11500048D03*
%TD*%
M02*
