M48
; DRILL file {KiCad 9.0.6} date 2026-07-16T23:14:28+0200
; FORMAT={-:-/ absolute / metric / decimal}
; #@! TF.CreationDate,2026-07-16T23:14:28+02:00
; #@! TF.GenerationSoftware,Kicad,Pcbnew,9.0.6
; #@! TF.FileFunction,Plated,1,4,PTH
FMAT,2
METRIC
; #@! TA.AperFunction,Plated,PTH,ComponentDrill
T1C0.200
; #@! TA.AperFunction,Plated,PTH,ViaDrill
T2C0.300
; #@! TA.AperFunction,Plated,PTH,ViaDrill
T3C0.500
; #@! TA.AperFunction,Plated,PTH,ComponentDrill
T4C1.000
; #@! TA.AperFunction,Plated,PTH,ComponentDrill
T5C1.200
%
G90
G05
T1
X12.188Y28.8
X12.938Y29.575
X12.938Y28.8
X12.938Y28.025
X13.989Y29.575
X13.989Y28.8
X13.989Y28.025
X14.739Y28.8
T2
X6.35Y30.85
X9.178Y19.366
X20.7Y30.85
X30.0Y46.049
X30.439Y7.397
X30.45Y65.072
X30.45Y51.5
X30.45Y48.2
X30.45Y29.5
X30.45Y27.25
X30.45Y26.4
X30.45Y8.25
X30.55Y73.85
X30.55Y69.75
X30.55Y68.9
X31.092Y9.258
X31.35Y75.233
X31.65Y42.5
X31.699Y20.5
X32.3Y53.75
X32.3Y32.802
X32.3Y10.802
X32.9Y76.187
X32.9Y32.202
X32.9Y10.202
X32.901Y53.0
X35.396Y13.1
X35.422Y35.1
X35.449Y57.1
X35.475Y79.1
X36.821Y7.1
X36.847Y29.1
X36.874Y51.1
X36.9Y73.1
X37.721Y6.95
X37.747Y28.95
X37.774Y50.95
X37.8Y72.95
X39.374Y11.401
X39.4Y34.07
X39.427Y55.401
X39.453Y78.07
X40.2Y33.403
X40.253Y77.403
X40.347Y12.068
X40.4Y56.068
X40.421Y7.15
X40.447Y29.15
X40.474Y51.15
X40.5Y73.15
X41.3Y7.035
X41.327Y29.035
X41.353Y51.035
X41.356Y10.802
X41.379Y73.035
X41.382Y32.802
X41.409Y54.802
X41.435Y76.802
X42.122Y10.201
X42.148Y32.201
X42.175Y54.201
X42.201Y76.201
X42.421Y7.15
X42.447Y29.15
X42.474Y51.15
X42.5Y73.15
X43.107Y6.739
X43.133Y28.739
X43.16Y50.739
X43.186Y72.739
X44.501Y6.68
X44.528Y28.68
X44.554Y50.68
X44.581Y72.68
X45.921Y6.95
X45.947Y28.95
X45.974Y50.95
X46.0Y72.95
X46.821Y14.0
X46.847Y36.0
X46.874Y58.0
X46.9Y80.0
X55.396Y13.1
X55.422Y35.1
X55.449Y57.1
X55.475Y79.1
X56.821Y7.1
X56.847Y29.1
X56.874Y51.1
X56.9Y73.1
X57.721Y6.95
X57.747Y28.95
X57.774Y50.95
X57.8Y72.95
X59.374Y11.401
X59.4Y34.07
X59.427Y55.401
X59.453Y78.07
X60.2Y33.403
X60.253Y77.403
X60.347Y12.068
X60.4Y56.068
X60.421Y7.15
X60.447Y29.15
X60.474Y51.15
X60.5Y73.15
X61.3Y7.035
X61.327Y29.035
X61.353Y51.035
X61.356Y10.802
X61.379Y73.035
X61.382Y32.802
X61.409Y54.802
X61.435Y76.802
X62.122Y10.201
X62.148Y32.201
X62.175Y54.201
X62.201Y76.201
X62.421Y7.15
X62.447Y29.15
X62.474Y51.15
X62.5Y73.15
X63.107Y6.739
X63.133Y28.739
X63.16Y50.739
X63.186Y72.739
X64.501Y6.68
X64.528Y28.68
X64.554Y50.68
X64.581Y72.68
X65.921Y6.95
X65.947Y28.95
X65.974Y50.95
X66.0Y72.95
X66.821Y14.0
X66.847Y36.0
X66.874Y58.0
X66.9Y80.0
X75.396Y13.1
X75.422Y35.1
X75.449Y57.1
X75.475Y79.1
X76.821Y7.1
X76.847Y29.1
X76.874Y51.1
X76.9Y73.1
X77.721Y6.95
X77.747Y28.95
X77.774Y50.95
X77.8Y72.95
X79.374Y11.401
X79.4Y34.07
X79.427Y55.401
X79.453Y78.07
X80.2Y33.403
X80.253Y77.403
X80.347Y12.068
X80.4Y56.068
X80.421Y7.15
X80.447Y29.15
X80.474Y51.15
X80.5Y73.15
X81.3Y7.035
X81.327Y29.035
X81.353Y51.035
X81.356Y10.802
X81.379Y73.035
X81.382Y32.802
X81.409Y54.802
X81.435Y76.802
X82.122Y10.201
X82.148Y32.201
X82.175Y54.201
X82.201Y76.201
X82.421Y7.15
X82.447Y29.15
X82.474Y51.15
X82.5Y73.15
X83.107Y6.739
X83.133Y28.739
X83.16Y50.739
X83.186Y72.739
X84.501Y6.68
X84.528Y28.68
X84.554Y50.68
X84.581Y72.68
X85.921Y6.95
X85.947Y28.95
X85.974Y50.95
X86.0Y72.95
X86.847Y36.0
X86.874Y58.0
X86.9Y80.0
X90.097Y13.1
X91.024Y57.1
X91.05Y79.1
X91.05Y35.1
X91.85Y14.014
X91.874Y58.0
X91.9Y80.0
X91.9Y36.0
T3
X19.55Y38.7
T4
X5.76Y98.093
X5.76Y95.552
X5.76Y93.013
X5.76Y90.472
X5.76Y87.932
X5.76Y85.392
X5.76Y82.852
X5.76Y80.312
X5.76Y77.772
X5.76Y75.233
X5.76Y72.692
X5.76Y70.153
X5.76Y67.612
X5.76Y65.072
X5.76Y62.532
X5.76Y59.992
X5.76Y57.453
X5.76Y54.912
X5.76Y52.372
X5.76Y49.832
X23.54Y98.093
X23.54Y95.552
X23.54Y93.013
X23.54Y90.472
X23.54Y87.932
X23.54Y85.392
X23.54Y82.852
X23.54Y80.312
X23.54Y77.772
X23.54Y75.233
X23.54Y72.692
X23.54Y70.153
X23.54Y67.612
X23.54Y65.072
X23.54Y62.532
X23.54Y59.992
X23.54Y57.453
X23.54Y54.912
X23.54Y52.372
X23.54Y49.832
T5
X41.071Y23.15
X41.097Y45.15
X41.124Y67.15
X41.15Y89.15
X46.071Y21.05
X46.097Y43.05
X46.124Y65.05
X46.15Y87.05
X61.071Y23.15
X61.097Y45.15
X61.124Y67.15
X61.15Y89.15
X66.071Y21.05
X66.097Y43.05
X66.124Y65.05
X66.15Y87.05
X81.071Y23.15
X81.097Y45.15
X81.124Y67.15
X81.15Y89.15
X86.071Y21.05
X86.097Y43.05
X86.124Y65.05
X86.15Y87.05
M30
