%TF.GenerationSoftware,KiCad,Pcbnew,9.0.6*%
%TF.CreationDate,2026-03-28T13:54:32+01:00*%
%TF.ProjectId,oled_keyboard,6f6c6564-5f6b-4657-9962-6f6172642e6b,rev?*%
%TF.SameCoordinates,Original*%
%TF.FileFunction,Soldermask,Top*%
%TF.FilePolarity,Negative*%
%FSLAX46Y46*%
G04 Gerber Fmt 4.6, Leading zero omitted, Abs format (unit mm)*
G04 Created by KiCad (PCBNEW 9.0.6) date 2026-03-28 13:54:32*
%MOMM*%
%LPD*%
G01*
G04 APERTURE LIST*
G04 Aperture macros list*
%AMRoundRect*
0 Rectangle with rounded corners*
0 $1 Rounding radius*
0 $2 $3 $4 $5 $6 $7 $8 $9 X,Y pos of 4 corners*
0 Add a 4 corners polygon primitive as box body*
4,1,4,$2,$3,$4,$5,$6,$7,$8,$9,$2,$3,0*
0 Add four circle primitives for the rounded corners*
1,1,$1+$1,$2,$3*
1,1,$1+$1,$4,$5*
1,1,$1+$1,$6,$7*
1,1,$1+$1,$8,$9*
0 Add four rect primitives between the rounded corners*
20,1,$1+$1,$2,$3,$4,$5,0*
20,1,$1+$1,$4,$5,$6,$7,0*
20,1,$1+$1,$6,$7,$8,$9,0*
20,1,$1+$1,$8,$9,$2,$3,0*%
%AMFreePoly0*
4,1,505,-0.203634,2.555678,-0.202053,2.555421,-0.199231,2.554726,-0.198634,2.554678,-0.197053,2.554421,-0.194231,2.553726,-0.193634,2.553678,-0.192053,2.553421,-0.176164,2.549509,-0.173164,2.548509,-0.166423,2.545994,-0.165768,2.545723,-0.159148,2.542704,-0.157464,2.541862,-0.157608,2.541572,-0.146835,2.536534,-0.144880,2.535327,-0.140541,2.531895,-0.136165,2.529249,-0.134865,2.528313,
-0.133109,2.526820,-0.132165,2.526249,-0.130865,2.525313,-0.118339,2.514661,-0.110339,2.506661,-0.099687,2.494135,-0.098751,2.492835,-0.098179,2.491890,-0.096687,2.490135,-0.095751,2.488835,-0.093104,2.484458,-0.089673,2.480120,-0.088466,2.478165,-0.083427,2.467391,-0.083138,2.467536,-0.082296,2.465852,-0.079277,2.459232,-0.079006,2.458577,-0.076491,2.451836,-0.075491,2.448836,
-0.071579,2.432947,-0.071322,2.431366,-0.071273,2.430768,-0.070579,2.427947,-0.070322,2.426366,-0.070273,2.425768,-0.069579,2.422947,-0.069322,2.421366,-0.068000,2.405000,-0.068000,2.032000,0.068000,2.032000,0.068000,2.405000,0.069322,2.421366,0.069579,2.422947,0.070273,2.425768,0.070322,2.426366,0.070579,2.427947,0.071273,2.430768,0.071322,2.431366,0.071579,2.432947,
0.075491,2.448836,0.076491,2.451836,0.079006,2.458577,0.079277,2.459232,0.082296,2.465852,0.083138,2.467536,0.083427,2.467391,0.088466,2.478165,0.089673,2.480120,0.093104,2.484458,0.095751,2.488835,0.096687,2.490135,0.098179,2.491890,0.098751,2.492835,0.099687,2.494135,0.110339,2.506661,0.118339,2.514661,0.130865,2.525313,0.132165,2.526249,0.133109,2.526820,
0.134865,2.528313,0.136165,2.529249,0.140541,2.531895,0.144880,2.535327,0.146835,2.536534,0.157608,2.541572,0.157464,2.541862,0.159148,2.542704,0.165768,2.545723,0.166423,2.545994,0.173164,2.548509,0.176164,2.549509,0.192053,2.553421,0.193634,2.553678,0.194231,2.553726,0.197053,2.554421,0.198634,2.554678,0.199231,2.554726,0.202053,2.555421,0.203634,2.555678,
0.220000,2.557000,0.330000,2.557000,0.346366,2.555678,0.347947,2.555421,0.350768,2.554726,0.351366,2.554678,0.352947,2.554421,0.355768,2.553726,0.356366,2.553678,0.357947,2.553421,0.373836,2.549509,0.376836,2.548509,0.383577,2.545994,0.384232,2.545723,0.390852,2.542704,0.392536,2.541862,0.392391,2.541572,0.403165,2.536534,0.405120,2.535327,0.409458,2.531895,
0.413835,2.529249,0.415135,2.528313,0.416890,2.526820,0.417835,2.526249,0.419135,2.525313,0.431661,2.514661,0.439661,2.506661,0.450313,2.494135,0.451249,2.492835,0.451820,2.491890,0.453313,2.490135,0.454249,2.488835,0.456895,2.484458,0.460327,2.480120,0.461534,2.478165,0.466572,2.467391,0.466862,2.467536,0.467704,2.465852,0.470723,2.459232,0.470994,2.458577,
0.473509,2.451836,0.474509,2.448836,0.478421,2.432947,0.478678,2.431366,0.478726,2.430768,0.479421,2.427947,0.479678,2.426366,0.479726,2.425768,0.480421,2.422947,0.480678,2.421366,0.482000,2.405000,0.482000,1.632000,0.980000,1.632000,0.996366,1.630678,0.997947,1.630421,1.000768,1.629726,1.001366,1.629678,1.002947,1.629421,1.005768,1.628726,1.006366,1.628678,
1.007947,1.628421,1.013719,1.627000,1.025000,1.627000,1.084954,1.607520,1.122008,1.556520,1.127000,1.525000,1.127000,1.513718,1.128421,1.507947,1.128678,1.506366,1.128726,1.505768,1.129421,1.502947,1.129678,1.501366,1.129726,1.500768,1.130421,1.497947,1.130678,1.496366,1.132000,1.480000,1.132000,-1.480000,1.130678,-1.496366,1.130421,-1.497947,1.129726,-1.500768,
1.129678,-1.501366,1.129421,-1.502947,1.128726,-1.505768,1.128678,-1.506366,1.128421,-1.507947,1.127000,-1.513718,1.127000,-1.525000,1.107520,-1.584954,1.056520,-1.622008,1.025000,-1.627000,1.013719,-1.627000,1.007947,-1.628421,1.006366,-1.628678,1.005768,-1.628726,1.002947,-1.629421,1.001366,-1.629678,1.000768,-1.629726,0.997947,-1.630421,0.996366,-1.630678,0.980000,-1.632000,
0.482000,-1.632000,0.482000,-2.405000,0.480678,-2.421366,0.480421,-2.422947,0.479726,-2.425768,0.479678,-2.426366,0.479421,-2.427947,0.478726,-2.430768,0.478678,-2.431366,0.478421,-2.432947,0.474509,-2.448836,0.473509,-2.451836,0.470994,-2.458577,0.470723,-2.459232,0.467704,-2.465852,0.466862,-2.467536,0.466572,-2.467391,0.461534,-2.478165,0.460327,-2.480120,0.456895,-2.484458,
0.454249,-2.488835,0.453313,-2.490135,0.451820,-2.491890,0.451249,-2.492835,0.450313,-2.494135,0.439661,-2.506661,0.431661,-2.514661,0.419135,-2.525313,0.417835,-2.526249,0.416890,-2.526820,0.415135,-2.528313,0.413835,-2.529249,0.409458,-2.531895,0.405120,-2.535327,0.403165,-2.536534,0.392391,-2.541572,0.392536,-2.541862,0.390852,-2.542704,0.384232,-2.545723,0.383577,-2.545994,
0.376836,-2.548509,0.373836,-2.549509,0.357947,-2.553421,0.356366,-2.553678,0.355768,-2.553726,0.352947,-2.554421,0.351366,-2.554678,0.350768,-2.554726,0.347947,-2.555421,0.346366,-2.555678,0.330000,-2.557000,0.220000,-2.557000,0.203634,-2.555678,0.202053,-2.555421,0.199231,-2.554726,0.198634,-2.554678,0.197053,-2.554421,0.194231,-2.553726,0.193634,-2.553678,0.192053,-2.553421,
0.176164,-2.549509,0.173164,-2.548509,0.166423,-2.545994,0.165768,-2.545723,0.159148,-2.542704,0.157464,-2.541862,0.157608,-2.541572,0.146835,-2.536534,0.144880,-2.535327,0.140541,-2.531895,0.136165,-2.529249,0.134865,-2.528313,0.133109,-2.526820,0.132165,-2.526249,0.130865,-2.525313,0.118339,-2.514661,0.110339,-2.506661,0.099687,-2.494135,0.098751,-2.492835,0.098179,-2.491890,
0.096687,-2.490135,0.095751,-2.488835,0.093104,-2.484458,0.089673,-2.480120,0.088466,-2.478165,0.083427,-2.467391,0.083138,-2.467536,0.082296,-2.465852,0.079277,-2.459232,0.079006,-2.458577,0.076491,-2.451836,0.075491,-2.448836,0.071579,-2.432947,0.071322,-2.431366,0.071273,-2.430768,0.070579,-2.427947,0.070322,-2.426366,0.070273,-2.425768,0.069579,-2.422947,0.069322,-2.421366,
0.068000,-2.405000,0.068000,-2.032000,-0.068000,-2.032000,-0.068000,-2.405000,-0.069322,-2.421366,-0.069579,-2.422947,-0.070273,-2.425768,-0.070322,-2.426366,-0.070579,-2.427947,-0.071273,-2.430768,-0.071322,-2.431366,-0.071579,-2.432947,-0.075491,-2.448836,-0.076491,-2.451836,-0.079006,-2.458577,-0.079277,-2.459232,-0.082296,-2.465852,-0.083138,-2.467536,-0.083427,-2.467391,-0.088466,-2.478165,
-0.089673,-2.480120,-0.093104,-2.484458,-0.095751,-2.488835,-0.096687,-2.490135,-0.098179,-2.491890,-0.098751,-2.492835,-0.099687,-2.494135,-0.110339,-2.506661,-0.118339,-2.514661,-0.130865,-2.525313,-0.132165,-2.526249,-0.133109,-2.526820,-0.134865,-2.528313,-0.136165,-2.529249,-0.140541,-2.531895,-0.144880,-2.535327,-0.146835,-2.536534,-0.157608,-2.541572,-0.157464,-2.541862,-0.159148,-2.542704,
-0.165768,-2.545723,-0.166423,-2.545994,-0.173164,-2.548509,-0.176164,-2.549509,-0.192053,-2.553421,-0.193634,-2.553678,-0.194231,-2.553726,-0.197053,-2.554421,-0.198634,-2.554678,-0.199231,-2.554726,-0.202053,-2.555421,-0.203634,-2.555678,-0.220000,-2.557000,-0.330000,-2.557000,-0.346366,-2.555678,-0.347947,-2.555421,-0.350768,-2.554726,-0.351366,-2.554678,-0.352947,-2.554421,-0.355768,-2.553726,
-0.356366,-2.553678,-0.357947,-2.553421,-0.373836,-2.549509,-0.376836,-2.548509,-0.383577,-2.545994,-0.384232,-2.545723,-0.390852,-2.542704,-0.392536,-2.541862,-0.392391,-2.541572,-0.403165,-2.536534,-0.405120,-2.535327,-0.409458,-2.531895,-0.413835,-2.529249,-0.415135,-2.528313,-0.416890,-2.526820,-0.417835,-2.526249,-0.419135,-2.525313,-0.431661,-2.514661,-0.439661,-2.506661,-0.450313,-2.494135,
-0.451249,-2.492835,-0.451820,-2.491890,-0.453313,-2.490135,-0.454249,-2.488835,-0.456895,-2.484458,-0.460327,-2.480120,-0.461534,-2.478165,-0.466572,-2.467391,-0.466862,-2.467536,-0.467704,-2.465852,-0.470723,-2.459232,-0.470994,-2.458577,-0.473509,-2.451836,-0.474509,-2.448836,-0.478421,-2.432947,-0.478678,-2.431366,-0.478726,-2.430768,-0.479421,-2.427947,-0.479678,-2.426366,-0.479726,-2.425768,
-0.480421,-2.422947,-0.480678,-2.421366,-0.482000,-2.405000,-0.482000,-1.632000,-0.980000,-1.632000,-0.996366,-1.630678,-0.997947,-1.630421,-1.000768,-1.629726,-1.001366,-1.629678,-1.002947,-1.629421,-1.005768,-1.628726,-1.006366,-1.628678,-1.007947,-1.628421,-1.013719,-1.627000,-1.025000,-1.627000,-1.084954,-1.607520,-1.122008,-1.556520,-1.127000,-1.525000,-1.127000,-1.513718,-1.128421,-1.507947,
-1.128678,-1.506366,-1.128726,-1.505768,-1.129421,-1.502947,-1.129678,-1.501366,-1.129726,-1.500768,-1.130421,-1.497947,-1.130678,-1.496366,-1.132000,-1.480000,-1.132000,1.480000,-1.130678,1.496366,-1.130421,1.497947,-1.129726,1.500768,-1.129678,1.501366,-1.129421,1.502947,-1.128726,1.505768,-1.128678,1.506366,-1.128421,1.507947,-1.127000,1.513718,-1.127000,1.525000,-1.107520,1.584954,
-1.056520,1.622008,-1.025000,1.627000,-1.013719,1.627000,-1.007947,1.628421,-1.006366,1.628678,-1.005768,1.628726,-1.002947,1.629421,-1.001366,1.629678,-1.000768,1.629726,-0.997947,1.630421,-0.996366,1.630678,-0.980000,1.632000,-0.482000,1.632000,-0.482000,2.405000,-0.480678,2.421366,-0.480421,2.422947,-0.479726,2.425768,-0.479678,2.426366,-0.479421,2.427947,-0.478726,2.430768,
-0.478678,2.431366,-0.478421,2.432947,-0.474509,2.448836,-0.473509,2.451836,-0.470994,2.458577,-0.470723,2.459232,-0.467704,2.465852,-0.466862,2.467536,-0.466572,2.467391,-0.461534,2.478165,-0.460327,2.480120,-0.456895,2.484458,-0.454249,2.488835,-0.453313,2.490135,-0.451820,2.491890,-0.451249,2.492835,-0.450313,2.494135,-0.439661,2.506661,-0.431661,2.514661,-0.419135,2.525313,
-0.417835,2.526249,-0.416890,2.526820,-0.415135,2.528313,-0.413835,2.529249,-0.409458,2.531895,-0.405120,2.535327,-0.403165,2.536534,-0.392391,2.541572,-0.392536,2.541862,-0.390852,2.542704,-0.384232,2.545723,-0.383577,2.545994,-0.376836,2.548509,-0.373836,2.549509,-0.357947,2.553421,-0.356366,2.553678,-0.355768,2.553726,-0.352947,2.554421,-0.351366,2.554678,-0.350768,2.554726,
-0.347947,2.555421,-0.346366,2.555678,-0.330000,2.557000,-0.220000,2.557000,-0.203634,2.555678,-0.203634,2.555678,$1*%
%AMFreePoly1*
4,1,37,0.800000,0.796148,0.878414,0.796148,1.032228,0.765552,1.177117,0.705537,1.307515,0.618408,1.418408,0.507515,1.505537,0.377117,1.565552,0.232228,1.596148,0.078414,1.596148,-0.078414,1.565552,-0.232228,1.505537,-0.377117,1.418408,-0.507515,1.307515,-0.618408,1.177117,-0.705537,1.032228,-0.765552,0.878414,-0.796148,0.800000,-0.796148,0.800000,-0.800000,-1.400000,-0.800000,
-1.403843,-0.796157,-1.439018,-0.796157,-1.511114,-0.766294,-1.566294,-0.711114,-1.596157,-0.639018,-1.596157,-0.603843,-1.600000,-0.600000,-1.600000,0.600000,-1.596157,0.603843,-1.596157,0.639018,-1.566294,0.711114,-1.511114,0.766294,-1.439018,0.796157,-1.403843,0.796157,-1.400000,0.800000,0.800000,0.800000,0.800000,0.796148,0.800000,0.796148,$1*%
%AMFreePoly2*
4,1,37,1.403843,0.796157,1.439018,0.796157,1.511114,0.766294,1.566294,0.711114,1.596157,0.639018,1.596157,0.603843,1.600000,0.600000,1.600000,-0.600000,1.596157,-0.603843,1.596157,-0.639018,1.566294,-0.711114,1.511114,-0.766294,1.439018,-0.796157,1.403843,-0.796157,1.400000,-0.800000,-0.800000,-0.800000,-0.800000,-0.796148,-0.878414,-0.796148,-1.032228,-0.765552,-1.177117,-0.705537,
-1.307515,-0.618408,-1.418408,-0.507515,-1.505537,-0.377117,-1.565552,-0.232228,-1.596148,-0.078414,-1.596148,0.078414,-1.565552,0.232228,-1.505537,0.377117,-1.418408,0.507515,-1.307515,0.618408,-1.177117,0.705537,-1.032228,0.765552,-0.878414,0.796148,-0.800000,0.796148,-0.800000,0.800000,1.400000,0.800000,1.403843,0.796157,1.403843,0.796157,$1*%
%AMFreePoly3*
4,1,37,0.603843,0.796157,0.639018,0.796157,0.711114,0.766294,0.766294,0.711114,0.796157,0.639018,0.796157,0.603843,0.800000,0.600000,0.800000,-0.600000,0.796157,-0.603843,0.796157,-0.639018,0.766294,-0.711114,0.711114,-0.766294,0.639018,-0.796157,0.603843,-0.796157,0.600000,-0.800000,0.000000,-0.800000,0.000000,-0.796148,-0.078414,-0.796148,-0.232228,-0.765552,-0.377117,-0.705537,
-0.507515,-0.618408,-0.618408,-0.507515,-0.705537,-0.377117,-0.765552,-0.232228,-0.796148,-0.078414,-0.796148,0.078414,-0.765552,0.232228,-0.705537,0.377117,-0.618408,0.507515,-0.507515,0.618408,-0.377117,0.705537,-0.232228,0.765552,-0.078414,0.796148,0.000000,0.796148,0.000000,0.800000,0.600000,0.800000,0.603843,0.796157,0.603843,0.796157,$1*%
%AMFreePoly4*
4,1,37,0.000000,0.796148,0.078414,0.796148,0.232228,0.765552,0.377117,0.705537,0.507515,0.618408,0.618408,0.507515,0.705537,0.377117,0.765552,0.232228,0.796148,0.078414,0.796148,-0.078414,0.765552,-0.232228,0.705537,-0.377117,0.618408,-0.507515,0.507515,-0.618408,0.377117,-0.705537,0.232228,-0.765552,0.078414,-0.796148,0.000000,-0.796148,0.000000,-0.800000,-0.600000,-0.800000,
-0.603843,-0.796157,-0.639018,-0.796157,-0.711114,-0.766294,-0.766294,-0.711114,-0.796157,-0.639018,-0.796157,-0.603843,-0.800000,-0.600000,-0.800000,0.600000,-0.796157,0.603843,-0.796157,0.639018,-0.766294,0.711114,-0.711114,0.766294,-0.639018,0.796157,-0.603843,0.796157,-0.600000,0.800000,0.000000,0.800000,0.000000,0.796148,0.000000,0.796148,$1*%
G04 Aperture macros list end*
%ADD10C,0.010000*%
%ADD11R,3.000000X3.000000*%
%ADD12RoundRect,0.093240X-0.308760X0.128760X-0.308760X-0.128760X0.308760X-0.128760X0.308760X0.128760X0*%
%ADD13RoundRect,0.093240X-0.128760X0.308760X-0.128760X-0.308760X0.128760X-0.308760X0.128760X0.308760X0*%
%ADD14FreePoly0,270.000000*%
%ADD15C,0.704000*%
%ADD16RoundRect,0.102000X-0.950000X-1.100000X0.950000X-1.100000X0.950000X1.100000X-0.950000X1.100000X0*%
%ADD17RoundRect,0.102000X-0.150000X-0.650000X0.150000X-0.650000X0.150000X0.650000X-0.150000X0.650000X0*%
%ADD18C,1.900000*%
%ADD19C,2.600000*%
%ADD20C,5.050000*%
%ADD21C,2.200000*%
%ADD22RoundRect,0.225000X-0.225000X-0.250000X0.225000X-0.250000X0.225000X0.250000X-0.225000X0.250000X0*%
%ADD23RoundRect,0.250000X0.300000X-0.300000X0.300000X0.300000X-0.300000X0.300000X-0.300000X-0.300000X0*%
%ADD24RoundRect,0.225000X0.225000X0.250000X-0.225000X0.250000X-0.225000X-0.250000X0.225000X-0.250000X0*%
%ADD25RoundRect,0.200000X0.200000X0.275000X-0.200000X0.275000X-0.200000X-0.275000X0.200000X-0.275000X0*%
%ADD26C,1.850000*%
%ADD27FreePoly1,0.000000*%
%ADD28RoundRect,0.200000X-0.600000X-0.600000X0.600000X-0.600000X0.600000X0.600000X-0.600000X0.600000X0*%
%ADD29RoundRect,0.800000X-0.800000X-0.000010X0.800000X-0.000010X0.800000X0.000010X-0.800000X0.000010X0*%
%ADD30C,1.600000*%
%ADD31FreePoly2,0.000000*%
%ADD32FreePoly3,0.000000*%
%ADD33FreePoly4,0.000000*%
%ADD34RoundRect,0.250000X0.325000X0.650000X-0.325000X0.650000X-0.325000X-0.650000X0.325000X-0.650000X0*%
%ADD35RoundRect,0.200000X-0.200000X-0.275000X0.200000X-0.275000X0.200000X0.275000X-0.200000X0.275000X0*%
%ADD36RoundRect,0.200000X-0.275000X0.200000X-0.275000X-0.200000X0.275000X-0.200000X0.275000X0.200000X0*%
%ADD37R,3.700000X1.200000*%
%ADD38RoundRect,0.200000X0.275000X-0.200000X0.275000X0.200000X-0.275000X0.200000X-0.275000X-0.200000X0*%
G04 APERTURE END LIST*
D10*
%TO.C,U1*%
X189924500Y-100903000D02*
X189932500Y-100904000D01*
X189940500Y-100905000D01*
X189947500Y-100907000D01*
X189955500Y-100909000D01*
X189962500Y-100912000D01*
X189970500Y-100915000D01*
X189977500Y-100919000D01*
X189984500Y-100922000D01*
X189991500Y-100927000D01*
X189997500Y-100931000D01*
X190004500Y-100936000D01*
X190010500Y-100941000D01*
X190015500Y-100947000D01*
X190021500Y-100952000D01*
X190026500Y-100958000D01*
X190031500Y-100965000D01*
X190035500Y-100971000D01*
X190040500Y-100978000D01*
X190043500Y-100985000D01*
X190047500Y-100992000D01*
X190050500Y-101000000D01*
X190053500Y-101007000D01*
X190055500Y-101015000D01*
X190057500Y-101022000D01*
X190058500Y-101030000D01*
X190059500Y-101038000D01*
X190060500Y-101046000D01*
X190060500Y-101054000D01*
X190060500Y-101551000D01*
X190060500Y-101552000D01*
X190061500Y-101552000D01*
X190834500Y-101552000D01*
X190842500Y-101552000D01*
X190850500Y-101553000D01*
X190858500Y-101554000D01*
X190866500Y-101555000D01*
X190873500Y-101557000D01*
X190881500Y-101559000D01*
X190888500Y-101562000D01*
X190896500Y-101565000D01*
X190903500Y-101569000D01*
X190910500Y-101572000D01*
X190917500Y-101577000D01*
X190923500Y-101581000D01*
X190930500Y-101586000D01*
X190936500Y-101591000D01*
X190941500Y-101597000D01*
X190947500Y-101602000D01*
X190952500Y-101608000D01*
X190957500Y-101615000D01*
X190961500Y-101621000D01*
X190966500Y-101628000D01*
X190969500Y-101635000D01*
X190973500Y-101642000D01*
X190976500Y-101650000D01*
X190979500Y-101657000D01*
X190981500Y-101665000D01*
X190983500Y-101672000D01*
X190984500Y-101680000D01*
X190985500Y-101688000D01*
X190986500Y-101696000D01*
X190986500Y-101704000D01*
X190986500Y-101804000D01*
X190986500Y-101812000D01*
X190985500Y-101820000D01*
X190984500Y-101828000D01*
X190983500Y-101836000D01*
X190981500Y-101843000D01*
X190979500Y-101851000D01*
X190976500Y-101858000D01*
X190973500Y-101866000D01*
X190969500Y-101873000D01*
X190966500Y-101880000D01*
X190961500Y-101887000D01*
X190957500Y-101893000D01*
X190952500Y-101900000D01*
X190947500Y-101906000D01*
X190941500Y-101911000D01*
X190936500Y-101917000D01*
X190930500Y-101922000D01*
X190923500Y-101927000D01*
X190917500Y-101931000D01*
X190910500Y-101936000D01*
X190903500Y-101939000D01*
X190896500Y-101943000D01*
X190888500Y-101946000D01*
X190881500Y-101949000D01*
X190873500Y-101951000D01*
X190866500Y-101953000D01*
X190858500Y-101954000D01*
X190850500Y-101955000D01*
X190842500Y-101956000D01*
X190834500Y-101956000D01*
X190461500Y-101956000D01*
X190461500Y-102101000D01*
X190461500Y-102102000D01*
X190836500Y-102102000D01*
X190844500Y-102102000D01*
X190852500Y-102103000D01*
X190859500Y-102104000D01*
X190867500Y-102105000D01*
X190875500Y-102107000D01*
X190882500Y-102109000D01*
X190890500Y-102112000D01*
X190897500Y-102115000D01*
X190904500Y-102118000D01*
X190911500Y-102122000D01*
X190918500Y-102126000D01*
X190924500Y-102131000D01*
X190930500Y-102135000D01*
X190936500Y-102141000D01*
X190942500Y-102146000D01*
X190947500Y-102152000D01*
X190953500Y-102158000D01*
X190957500Y-102164000D01*
X190962500Y-102170000D01*
X190966500Y-102177000D01*
X190970500Y-102184000D01*
X190973500Y-102191000D01*
X190976500Y-102198000D01*
X190979500Y-102206000D01*
X190981500Y-102213000D01*
X190983500Y-102221000D01*
X190984500Y-102229000D01*
X190985500Y-102236000D01*
X190986500Y-102244000D01*
X190986500Y-102252000D01*
X190986500Y-102355000D01*
X190986500Y-102363000D01*
X190985500Y-102371000D01*
X190984500Y-102379000D01*
X190983500Y-102386000D01*
X190981500Y-102394000D01*
X190979500Y-102402000D01*
X190976500Y-102409000D01*
X190973500Y-102416000D01*
X190970500Y-102424000D01*
X190966500Y-102430000D01*
X190962500Y-102437000D01*
X190957500Y-102444000D01*
X190952500Y-102450000D01*
X190947500Y-102456000D01*
X190942500Y-102462000D01*
X190936500Y-102467000D01*
X190930500Y-102472000D01*
X190924500Y-102477000D01*
X190917500Y-102482000D01*
X190910500Y-102486000D01*
X190904500Y-102490000D01*
X190896500Y-102493000D01*
X190889500Y-102496000D01*
X190882500Y-102499000D01*
X190874500Y-102501000D01*
X190866500Y-102503000D01*
X190859500Y-102504000D01*
X190851500Y-102505000D01*
X190843500Y-102506000D01*
X190835500Y-102506000D01*
X190061500Y-102506000D01*
X190061500Y-103004000D01*
X190061500Y-103012000D01*
X190060500Y-103020000D01*
X190059500Y-103028000D01*
X190058500Y-103036000D01*
X190056500Y-103043000D01*
X190054500Y-103051000D01*
X190051500Y-103058000D01*
X190048500Y-103066000D01*
X190044500Y-103073000D01*
X190041500Y-103080000D01*
X190036500Y-103087000D01*
X190032500Y-103093000D01*
X190027500Y-103100000D01*
X190022500Y-103106000D01*
X190016500Y-103111000D01*
X190011500Y-103117000D01*
X190005500Y-103122000D01*
X189998500Y-103127000D01*
X189992500Y-103131000D01*
X189985500Y-103136000D01*
X189978500Y-103139000D01*
X189971500Y-103143000D01*
X189963500Y-103146000D01*
X189956500Y-103149000D01*
X189948500Y-103151000D01*
X189941500Y-103153000D01*
X189933500Y-103154000D01*
X189925500Y-103155000D01*
X189917500Y-103156000D01*
X189909500Y-103156000D01*
X186958500Y-103156000D01*
X186950500Y-103156000D01*
X186942500Y-103155000D01*
X186935500Y-103154000D01*
X186927500Y-103153000D01*
X186919500Y-103151000D01*
X186912500Y-103149000D01*
X186904500Y-103146000D01*
X186897500Y-103143000D01*
X186890500Y-103140000D01*
X186883500Y-103136000D01*
X186876500Y-103132000D01*
X186870500Y-103127000D01*
X186864500Y-103123000D01*
X186858500Y-103117000D01*
X186852500Y-103112000D01*
X186847500Y-103106000D01*
X186841500Y-103100000D01*
X186837500Y-103094000D01*
X186832500Y-103088000D01*
X186828500Y-103081000D01*
X186824500Y-103074000D01*
X186821500Y-103067000D01*
X186818500Y-103060000D01*
X186815500Y-103052000D01*
X186813500Y-103045000D01*
X186811500Y-103037000D01*
X186810500Y-103029000D01*
X186809500Y-103022000D01*
X186808500Y-103014000D01*
X186808500Y-103006000D01*
X186808500Y-102507000D01*
X186808500Y-102506000D01*
X186807500Y-102506000D01*
X186033500Y-102506000D01*
X186025500Y-102506000D01*
X186017500Y-102505000D01*
X186010500Y-102504000D01*
X186002500Y-102503000D01*
X185994500Y-102501000D01*
X185987500Y-102499000D01*
X185979500Y-102496000D01*
X185972500Y-102493000D01*
X185965500Y-102490000D01*
X185958500Y-102486000D01*
X185951500Y-102482000D01*
X185945500Y-102477000D01*
X185939500Y-102473000D01*
X185933500Y-102467000D01*
X185927500Y-102462000D01*
X185922500Y-102456000D01*
X185916500Y-102450000D01*
X185912500Y-102444000D01*
X185907500Y-102438000D01*
X185903500Y-102431000D01*
X185899500Y-102424000D01*
X185896500Y-102417000D01*
X185893500Y-102410000D01*
X185890500Y-102402000D01*
X185888500Y-102395000D01*
X185886500Y-102387000D01*
X185885500Y-102379000D01*
X185884500Y-102372000D01*
X185883500Y-102364000D01*
X185883500Y-102356000D01*
X185883500Y-102251000D01*
X185883500Y-102243000D01*
X185884500Y-102235000D01*
X185885500Y-102228000D01*
X185886500Y-102220000D01*
X185888500Y-102212000D01*
X185890500Y-102205000D01*
X185893500Y-102198000D01*
X185896500Y-102190000D01*
X185899500Y-102183000D01*
X185903500Y-102176000D01*
X185907500Y-102170000D01*
X185911500Y-102163000D01*
X185916500Y-102157000D01*
X185921500Y-102151000D01*
X185927500Y-102146000D01*
X185932500Y-102140000D01*
X185938500Y-102135000D01*
X185944500Y-102130000D01*
X185951500Y-102126000D01*
X185957500Y-102122000D01*
X185964500Y-102118000D01*
X185971500Y-102115000D01*
X185979500Y-102112000D01*
X185986500Y-102109000D01*
X185993500Y-102107000D01*
X186001500Y-102105000D01*
X186009500Y-102104000D01*
X186016500Y-102103000D01*
X186024500Y-102102000D01*
X186032500Y-102102000D01*
X186407500Y-102102000D01*
X186407500Y-101957000D01*
X186407500Y-101956000D01*
X186406500Y-101956000D01*
X186033500Y-101956000D01*
X186025500Y-101956000D01*
X186017500Y-101955000D01*
X186010500Y-101954000D01*
X186002500Y-101953000D01*
X185994500Y-101951000D01*
X185987500Y-101949000D01*
X185979500Y-101946000D01*
X185972500Y-101943000D01*
X185965500Y-101940000D01*
X185958500Y-101936000D01*
X185951500Y-101932000D01*
X185945500Y-101927000D01*
X185939500Y-101923000D01*
X185933500Y-101917000D01*
X185927500Y-101912000D01*
X185922500Y-101906000D01*
X185916500Y-101900000D01*
X185912500Y-101894000D01*
X185907500Y-101888000D01*
X185903500Y-101881000D01*
X185899500Y-101874000D01*
X185896500Y-101867000D01*
X185893500Y-101860000D01*
X185890500Y-101852000D01*
X185888500Y-101845000D01*
X185886500Y-101837000D01*
X185885500Y-101829000D01*
X185884500Y-101822000D01*
X185883500Y-101814000D01*
X185883500Y-101806000D01*
X185883500Y-101700000D01*
X185883500Y-101692000D01*
X185884500Y-101685000D01*
X185885500Y-101677000D01*
X185886500Y-101669000D01*
X185888500Y-101662000D01*
X185890500Y-101654000D01*
X185893500Y-101647000D01*
X185896500Y-101640000D01*
X185899500Y-101633000D01*
X185903500Y-101626000D01*
X185907500Y-101619000D01*
X185911500Y-101613000D01*
X185916500Y-101607000D01*
X185921500Y-101601000D01*
X185926500Y-101595000D01*
X185932500Y-101590000D01*
X185938500Y-101585000D01*
X185944500Y-101580000D01*
X185950500Y-101576000D01*
X185957500Y-101572000D01*
X185964500Y-101568000D01*
X185971500Y-101565000D01*
X185978500Y-101562000D01*
X185985500Y-101559000D01*
X185993500Y-101557000D01*
X186000500Y-101555000D01*
X186008500Y-101554000D01*
X186016500Y-101553000D01*
X186023500Y-101552000D01*
X186031500Y-101552000D01*
X186807500Y-101552000D01*
X186807500Y-101054000D01*
X186807500Y-101046000D01*
X186808500Y-101038000D01*
X186809500Y-101030000D01*
X186810500Y-101022000D01*
X186812500Y-101015000D01*
X186814500Y-101007000D01*
X186817500Y-101000000D01*
X186820500Y-100992000D01*
X186824500Y-100985000D01*
X186827500Y-100978000D01*
X186832500Y-100971000D01*
X186836500Y-100965000D01*
X186841500Y-100958000D01*
X186846500Y-100952000D01*
X186852500Y-100947000D01*
X186857500Y-100941000D01*
X186863500Y-100936000D01*
X186870500Y-100931000D01*
X186876500Y-100927000D01*
X186883500Y-100922000D01*
X186890500Y-100919000D01*
X186897500Y-100915000D01*
X186905500Y-100912000D01*
X186912500Y-100909000D01*
X186920500Y-100907000D01*
X186927500Y-100905000D01*
X186935500Y-100904000D01*
X186943500Y-100903000D01*
X186951500Y-100902000D01*
X186959500Y-100902000D01*
X189908500Y-100902000D01*
X189916500Y-100902000D01*
X189924500Y-100903000D01*
G36*
X189924500Y-100903000D02*
G01*
X189932500Y-100904000D01*
X189940500Y-100905000D01*
X189947500Y-100907000D01*
X189955500Y-100909000D01*
X189962500Y-100912000D01*
X189970500Y-100915000D01*
X189977500Y-100919000D01*
X189984500Y-100922000D01*
X189991500Y-100927000D01*
X189997500Y-100931000D01*
X190004500Y-100936000D01*
X190010500Y-100941000D01*
X190015500Y-100947000D01*
X190021500Y-100952000D01*
X190026500Y-100958000D01*
X190031500Y-100965000D01*
X190035500Y-100971000D01*
X190040500Y-100978000D01*
X190043500Y-100985000D01*
X190047500Y-100992000D01*
X190050500Y-101000000D01*
X190053500Y-101007000D01*
X190055500Y-101015000D01*
X190057500Y-101022000D01*
X190058500Y-101030000D01*
X190059500Y-101038000D01*
X190060500Y-101046000D01*
X190060500Y-101054000D01*
X190060500Y-101551000D01*
X190060500Y-101552000D01*
X190061500Y-101552000D01*
X190834500Y-101552000D01*
X190842500Y-101552000D01*
X190850500Y-101553000D01*
X190858500Y-101554000D01*
X190866500Y-101555000D01*
X190873500Y-101557000D01*
X190881500Y-101559000D01*
X190888500Y-101562000D01*
X190896500Y-101565000D01*
X190903500Y-101569000D01*
X190910500Y-101572000D01*
X190917500Y-101577000D01*
X190923500Y-101581000D01*
X190930500Y-101586000D01*
X190936500Y-101591000D01*
X190941500Y-101597000D01*
X190947500Y-101602000D01*
X190952500Y-101608000D01*
X190957500Y-101615000D01*
X190961500Y-101621000D01*
X190966500Y-101628000D01*
X190969500Y-101635000D01*
X190973500Y-101642000D01*
X190976500Y-101650000D01*
X190979500Y-101657000D01*
X190981500Y-101665000D01*
X190983500Y-101672000D01*
X190984500Y-101680000D01*
X190985500Y-101688000D01*
X190986500Y-101696000D01*
X190986500Y-101704000D01*
X190986500Y-101804000D01*
X190986500Y-101812000D01*
X190985500Y-101820000D01*
X190984500Y-101828000D01*
X190983500Y-101836000D01*
X190981500Y-101843000D01*
X190979500Y-101851000D01*
X190976500Y-101858000D01*
X190973500Y-101866000D01*
X190969500Y-101873000D01*
X190966500Y-101880000D01*
X190961500Y-101887000D01*
X190957500Y-101893000D01*
X190952500Y-101900000D01*
X190947500Y-101906000D01*
X190941500Y-101911000D01*
X190936500Y-101917000D01*
X190930500Y-101922000D01*
X190923500Y-101927000D01*
X190917500Y-101931000D01*
X190910500Y-101936000D01*
X190903500Y-101939000D01*
X190896500Y-101943000D01*
X190888500Y-101946000D01*
X190881500Y-101949000D01*
X190873500Y-101951000D01*
X190866500Y-101953000D01*
X190858500Y-101954000D01*
X190850500Y-101955000D01*
X190842500Y-101956000D01*
X190834500Y-101956000D01*
X190461500Y-101956000D01*
X190461500Y-102101000D01*
X190461500Y-102102000D01*
X190836500Y-102102000D01*
X190844500Y-102102000D01*
X190852500Y-102103000D01*
X190859500Y-102104000D01*
X190867500Y-102105000D01*
X190875500Y-102107000D01*
X190882500Y-102109000D01*
X190890500Y-102112000D01*
X190897500Y-102115000D01*
X190904500Y-102118000D01*
X190911500Y-102122000D01*
X190918500Y-102126000D01*
X190924500Y-102131000D01*
X190930500Y-102135000D01*
X190936500Y-102141000D01*
X190942500Y-102146000D01*
X190947500Y-102152000D01*
X190953500Y-102158000D01*
X190957500Y-102164000D01*
X190962500Y-102170000D01*
X190966500Y-102177000D01*
X190970500Y-102184000D01*
X190973500Y-102191000D01*
X190976500Y-102198000D01*
X190979500Y-102206000D01*
X190981500Y-102213000D01*
X190983500Y-102221000D01*
X190984500Y-102229000D01*
X190985500Y-102236000D01*
X190986500Y-102244000D01*
X190986500Y-102252000D01*
X190986500Y-102355000D01*
X190986500Y-102363000D01*
X190985500Y-102371000D01*
X190984500Y-102379000D01*
X190983500Y-102386000D01*
X190981500Y-102394000D01*
X190979500Y-102402000D01*
X190976500Y-102409000D01*
X190973500Y-102416000D01*
X190970500Y-102424000D01*
X190966500Y-102430000D01*
X190962500Y-102437000D01*
X190957500Y-102444000D01*
X190952500Y-102450000D01*
X190947500Y-102456000D01*
X190942500Y-102462000D01*
X190936500Y-102467000D01*
X190930500Y-102472000D01*
X190924500Y-102477000D01*
X190917500Y-102482000D01*
X190910500Y-102486000D01*
X190904500Y-102490000D01*
X190896500Y-102493000D01*
X190889500Y-102496000D01*
X190882500Y-102499000D01*
X190874500Y-102501000D01*
X190866500Y-102503000D01*
X190859500Y-102504000D01*
X190851500Y-102505000D01*
X190843500Y-102506000D01*
X190835500Y-102506000D01*
X190061500Y-102506000D01*
X190061500Y-103004000D01*
X190061500Y-103012000D01*
X190060500Y-103020000D01*
X190059500Y-103028000D01*
X190058500Y-103036000D01*
X190056500Y-103043000D01*
X190054500Y-103051000D01*
X190051500Y-103058000D01*
X190048500Y-103066000D01*
X190044500Y-103073000D01*
X190041500Y-103080000D01*
X190036500Y-103087000D01*
X190032500Y-103093000D01*
X190027500Y-103100000D01*
X190022500Y-103106000D01*
X190016500Y-103111000D01*
X190011500Y-103117000D01*
X190005500Y-103122000D01*
X189998500Y-103127000D01*
X189992500Y-103131000D01*
X189985500Y-103136000D01*
X189978500Y-103139000D01*
X189971500Y-103143000D01*
X189963500Y-103146000D01*
X189956500Y-103149000D01*
X189948500Y-103151000D01*
X189941500Y-103153000D01*
X189933500Y-103154000D01*
X189925500Y-103155000D01*
X189917500Y-103156000D01*
X189909500Y-103156000D01*
X186958500Y-103156000D01*
X186950500Y-103156000D01*
X186942500Y-103155000D01*
X186935500Y-103154000D01*
X186927500Y-103153000D01*
X186919500Y-103151000D01*
X186912500Y-103149000D01*
X186904500Y-103146000D01*
X186897500Y-103143000D01*
X186890500Y-103140000D01*
X186883500Y-103136000D01*
X186876500Y-103132000D01*
X186870500Y-103127000D01*
X186864500Y-103123000D01*
X186858500Y-103117000D01*
X186852500Y-103112000D01*
X186847500Y-103106000D01*
X186841500Y-103100000D01*
X186837500Y-103094000D01*
X186832500Y-103088000D01*
X186828500Y-103081000D01*
X186824500Y-103074000D01*
X186821500Y-103067000D01*
X186818500Y-103060000D01*
X186815500Y-103052000D01*
X186813500Y-103045000D01*
X186811500Y-103037000D01*
X186810500Y-103029000D01*
X186809500Y-103022000D01*
X186808500Y-103014000D01*
X186808500Y-103006000D01*
X186808500Y-102507000D01*
X186808500Y-102506000D01*
X186807500Y-102506000D01*
X186033500Y-102506000D01*
X186025500Y-102506000D01*
X186017500Y-102505000D01*
X186010500Y-102504000D01*
X186002500Y-102503000D01*
X185994500Y-102501000D01*
X185987500Y-102499000D01*
X185979500Y-102496000D01*
X185972500Y-102493000D01*
X185965500Y-102490000D01*
X185958500Y-102486000D01*
X185951500Y-102482000D01*
X185945500Y-102477000D01*
X185939500Y-102473000D01*
X185933500Y-102467000D01*
X185927500Y-102462000D01*
X185922500Y-102456000D01*
X185916500Y-102450000D01*
X185912500Y-102444000D01*
X185907500Y-102438000D01*
X185903500Y-102431000D01*
X185899500Y-102424000D01*
X185896500Y-102417000D01*
X185893500Y-102410000D01*
X185890500Y-102402000D01*
X185888500Y-102395000D01*
X185886500Y-102387000D01*
X185885500Y-102379000D01*
X185884500Y-102372000D01*
X185883500Y-102364000D01*
X185883500Y-102356000D01*
X185883500Y-102251000D01*
X185883500Y-102243000D01*
X185884500Y-102235000D01*
X185885500Y-102228000D01*
X185886500Y-102220000D01*
X185888500Y-102212000D01*
X185890500Y-102205000D01*
X185893500Y-102198000D01*
X185896500Y-102190000D01*
X185899500Y-102183000D01*
X185903500Y-102176000D01*
X185907500Y-102170000D01*
X185911500Y-102163000D01*
X185916500Y-102157000D01*
X185921500Y-102151000D01*
X185927500Y-102146000D01*
X185932500Y-102140000D01*
X185938500Y-102135000D01*
X185944500Y-102130000D01*
X185951500Y-102126000D01*
X185957500Y-102122000D01*
X185964500Y-102118000D01*
X185971500Y-102115000D01*
X185979500Y-102112000D01*
X185986500Y-102109000D01*
X185993500Y-102107000D01*
X186001500Y-102105000D01*
X186009500Y-102104000D01*
X186016500Y-102103000D01*
X186024500Y-102102000D01*
X186032500Y-102102000D01*
X186407500Y-102102000D01*
X186407500Y-101957000D01*
X186407500Y-101956000D01*
X186406500Y-101956000D01*
X186033500Y-101956000D01*
X186025500Y-101956000D01*
X186017500Y-101955000D01*
X186010500Y-101954000D01*
X186002500Y-101953000D01*
X185994500Y-101951000D01*
X185987500Y-101949000D01*
X185979500Y-101946000D01*
X185972500Y-101943000D01*
X185965500Y-101940000D01*
X185958500Y-101936000D01*
X185951500Y-101932000D01*
X185945500Y-101927000D01*
X185939500Y-101923000D01*
X185933500Y-101917000D01*
X185927500Y-101912000D01*
X185922500Y-101906000D01*
X185916500Y-101900000D01*
X185912500Y-101894000D01*
X185907500Y-101888000D01*
X185903500Y-101881000D01*
X185899500Y-101874000D01*
X185896500Y-101867000D01*
X185893500Y-101860000D01*
X185890500Y-101852000D01*
X185888500Y-101845000D01*
X185886500Y-101837000D01*
X185885500Y-101829000D01*
X185884500Y-101822000D01*
X185883500Y-101814000D01*
X185883500Y-101806000D01*
X185883500Y-101700000D01*
X185883500Y-101692000D01*
X185884500Y-101685000D01*
X185885500Y-101677000D01*
X185886500Y-101669000D01*
X185888500Y-101662000D01*
X185890500Y-101654000D01*
X185893500Y-101647000D01*
X185896500Y-101640000D01*
X185899500Y-101633000D01*
X185903500Y-101626000D01*
X185907500Y-101619000D01*
X185911500Y-101613000D01*
X185916500Y-101607000D01*
X185921500Y-101601000D01*
X185926500Y-101595000D01*
X185932500Y-101590000D01*
X185938500Y-101585000D01*
X185944500Y-101580000D01*
X185950500Y-101576000D01*
X185957500Y-101572000D01*
X185964500Y-101568000D01*
X185971500Y-101565000D01*
X185978500Y-101562000D01*
X185985500Y-101559000D01*
X185993500Y-101557000D01*
X186000500Y-101555000D01*
X186008500Y-101554000D01*
X186016500Y-101553000D01*
X186023500Y-101552000D01*
X186031500Y-101552000D01*
X186807500Y-101552000D01*
X186807500Y-101054000D01*
X186807500Y-101046000D01*
X186808500Y-101038000D01*
X186809500Y-101030000D01*
X186810500Y-101022000D01*
X186812500Y-101015000D01*
X186814500Y-101007000D01*
X186817500Y-101000000D01*
X186820500Y-100992000D01*
X186824500Y-100985000D01*
X186827500Y-100978000D01*
X186832500Y-100971000D01*
X186836500Y-100965000D01*
X186841500Y-100958000D01*
X186846500Y-100952000D01*
X186852500Y-100947000D01*
X186857500Y-100941000D01*
X186863500Y-100936000D01*
X186870500Y-100931000D01*
X186876500Y-100927000D01*
X186883500Y-100922000D01*
X186890500Y-100919000D01*
X186897500Y-100915000D01*
X186905500Y-100912000D01*
X186912500Y-100909000D01*
X186920500Y-100907000D01*
X186927500Y-100905000D01*
X186935500Y-100904000D01*
X186943500Y-100903000D01*
X186951500Y-100902000D01*
X186959500Y-100902000D01*
X189908500Y-100902000D01*
X189916500Y-100902000D01*
X189924500Y-100903000D01*
G37*
%TD*%
D11*
%TO.C,TP3*%
X202870651Y-136810955D03*
%TD*%
%TO.C,TP2*%
X202870651Y-93810955D03*
%TD*%
%TO.C,TP1*%
X177870651Y-136810955D03*
%TD*%
D12*
%TO.C,U1*%
X190584500Y-101279000D03*
D13*
X190184500Y-100379000D03*
X189684500Y-100379000D03*
X189184500Y-100379000D03*
X188684500Y-100379000D03*
X188184500Y-100379000D03*
X187684500Y-100379000D03*
X187184500Y-100379000D03*
X186684500Y-100379000D03*
D12*
X186284500Y-101279000D03*
X186284500Y-102779000D03*
D13*
X186684500Y-103679000D03*
X187184500Y-103679000D03*
X187684500Y-103679000D03*
X188184500Y-103679000D03*
X188684500Y-103679000D03*
X189184500Y-103679000D03*
X189684500Y-103679000D03*
X190184500Y-103679000D03*
D12*
X190584500Y-102779000D03*
D14*
X188434500Y-102029000D03*
D15*
X189709500Y-102029000D03*
X188959500Y-101254000D03*
X188959500Y-102029000D03*
X188959500Y-102804000D03*
X187909500Y-101254000D03*
X187909500Y-102029000D03*
X187909500Y-102804000D03*
X187159500Y-102029000D03*
%TD*%
D16*
%TO.C,J2*%
X105384500Y-87186000D03*
X91984500Y-87186000D03*
D17*
X103434500Y-90436000D03*
X102934500Y-90436000D03*
X102434500Y-90436000D03*
X101934500Y-90436000D03*
X101434500Y-90436000D03*
X100934500Y-90436000D03*
X100434500Y-90436000D03*
X99934500Y-90436000D03*
X99434500Y-90436000D03*
X98934500Y-90436000D03*
X98434500Y-90436000D03*
X97934500Y-90436000D03*
X97434500Y-90436000D03*
X96934500Y-90436000D03*
X96434500Y-90436000D03*
X95934500Y-90436000D03*
X95434500Y-90436000D03*
X94934500Y-90436000D03*
X94434500Y-90436000D03*
X93934500Y-90436000D03*
%TD*%
D18*
%TO.C,SW4*%
X93184500Y-72836000D03*
D19*
X93684500Y-77986000D03*
D20*
X98684500Y-72836000D03*
D18*
X104184500Y-72836000D03*
D21*
X98684500Y-66936000D03*
X103684500Y-69036000D03*
%TD*%
D22*
%TO.C,C41*%
X130250000Y-94767000D03*
X131800000Y-94767000D03*
%TD*%
D23*
%TO.C,D5*%
X135309500Y-71636000D03*
X135309500Y-68836000D03*
%TD*%
%TO.C,D6*%
X162309500Y-71636000D03*
X162309500Y-68836000D03*
%TD*%
D22*
%TO.C,C37*%
X130250000Y-93267000D03*
X131800000Y-93267000D03*
%TD*%
D24*
%TO.C,C8*%
X184234500Y-100004000D03*
X182684500Y-100004000D03*
%TD*%
D17*
%TO.C,J11*%
X147934500Y-121983500D03*
X148434500Y-121983500D03*
X148934500Y-121983500D03*
X149434500Y-121983500D03*
X149934500Y-121983500D03*
X150434500Y-121983500D03*
X150934500Y-121983500D03*
X151434500Y-121983500D03*
X151934500Y-121983500D03*
X152434500Y-121983500D03*
X152934500Y-121983500D03*
X153434500Y-121983500D03*
X153934500Y-121983500D03*
X154434500Y-121983500D03*
X154934500Y-121983500D03*
X155434500Y-121983500D03*
X155934500Y-121983500D03*
X156434500Y-121983500D03*
X156934500Y-121983500D03*
X157434500Y-121983500D03*
D16*
X145984500Y-118733500D03*
X159384500Y-118733500D03*
%TD*%
D25*
%TO.C,R9*%
X101515000Y-156362000D03*
X99865000Y-156362000D03*
%TD*%
D22*
%TO.C,C25*%
X103225000Y-156362000D03*
X104775000Y-156362000D03*
%TD*%
D23*
%TO.C,D8*%
X135309500Y-103183500D03*
X135309500Y-100383500D03*
%TD*%
D24*
%TO.C,C46*%
X147935000Y-124814500D03*
X146385000Y-124814500D03*
%TD*%
D22*
%TO.C,C57*%
X157250000Y-93267000D03*
X158800000Y-93267000D03*
%TD*%
D23*
%TO.C,D12*%
X162284500Y-134731000D03*
X162284500Y-131931000D03*
%TD*%
D22*
%TO.C,C50*%
X149735000Y-124814500D03*
X151285000Y-124814500D03*
%TD*%
%TO.C,C43*%
X130250000Y-156362000D03*
X131800000Y-156362000D03*
%TD*%
D17*
%TO.C,J8*%
X120959500Y-153531000D03*
X121459500Y-153531000D03*
X121959500Y-153531000D03*
X122459500Y-153531000D03*
X122959500Y-153531000D03*
X123459500Y-153531000D03*
X123959500Y-153531000D03*
X124459500Y-153531000D03*
X124959500Y-153531000D03*
X125459500Y-153531000D03*
X125959500Y-153531000D03*
X126459500Y-153531000D03*
X126959500Y-153531000D03*
X127459500Y-153531000D03*
X127959500Y-153531000D03*
X128459500Y-153531000D03*
X128959500Y-153531000D03*
X129459500Y-153531000D03*
X129959500Y-153531000D03*
X130459500Y-153531000D03*
D16*
X119009500Y-150281000D03*
X132409500Y-150281000D03*
%TD*%
D24*
%TO.C,C47*%
X147935000Y-156362000D03*
X146385000Y-156362000D03*
%TD*%
D21*
%TO.C,A1*%
X184599500Y-32429000D03*
D26*
X184899500Y-35459000D03*
X189749500Y-35459000D03*
D21*
X190049500Y-32429000D03*
D27*
X177634500Y-32299000D03*
D28*
X178434500Y-32299000D03*
D29*
X177634500Y-34839000D03*
D30*
X178434500Y-34839000D03*
D31*
X177634500Y-37379000D03*
D32*
X178434500Y-37379000D03*
D29*
X177634500Y-39919000D03*
D30*
X178434500Y-39919000D03*
D29*
X177634500Y-42459000D03*
D30*
X178434500Y-42459000D03*
D29*
X177634500Y-44999000D03*
D30*
X178434500Y-44999000D03*
D29*
X177634500Y-47539000D03*
D30*
X178434500Y-47539000D03*
D31*
X177634500Y-50079000D03*
D32*
X178434500Y-50079000D03*
D29*
X177634500Y-52619000D03*
D30*
X178434500Y-52619000D03*
D29*
X177634500Y-55159000D03*
D30*
X178434500Y-55159000D03*
D29*
X177634500Y-57699000D03*
D30*
X178434500Y-57699000D03*
D29*
X177634500Y-60239000D03*
D30*
X178434500Y-60239000D03*
D31*
X177634500Y-62779000D03*
D32*
X178434500Y-62779000D03*
D29*
X177634500Y-65319000D03*
D30*
X178434500Y-65319000D03*
D29*
X177634500Y-67859000D03*
D30*
X178434500Y-67859000D03*
D29*
X177634500Y-70399000D03*
D30*
X178434500Y-70399000D03*
D29*
X177634500Y-72939000D03*
D30*
X178434500Y-72939000D03*
D31*
X177634500Y-75479000D03*
D32*
X178434500Y-75479000D03*
D29*
X177634500Y-78019000D03*
D30*
X178434500Y-78019000D03*
D29*
X177634500Y-80559000D03*
D30*
X178434500Y-80559000D03*
X196214500Y-80559000D03*
D29*
X197014500Y-80559000D03*
D30*
X196214500Y-78019000D03*
D29*
X197014500Y-78019000D03*
D33*
X196214500Y-75479000D03*
D27*
X197014500Y-75479000D03*
D30*
X196214500Y-72939000D03*
D29*
X197014500Y-72939000D03*
D30*
X196214500Y-70399000D03*
D29*
X197014500Y-70399000D03*
D30*
X196214500Y-67859000D03*
D29*
X197014500Y-67859000D03*
D30*
X196214500Y-65319000D03*
D29*
X197014500Y-65319000D03*
D33*
X196214500Y-62779000D03*
D27*
X197014500Y-62779000D03*
D30*
X196214500Y-60239000D03*
D29*
X197014500Y-60239000D03*
D30*
X196214500Y-57699000D03*
D29*
X197014500Y-57699000D03*
D30*
X196214500Y-55159000D03*
D29*
X197014500Y-55159000D03*
D30*
X196214500Y-52619000D03*
D29*
X197014500Y-52619000D03*
D33*
X196214500Y-50079000D03*
D27*
X197014500Y-50079000D03*
D30*
X196214500Y-47539000D03*
D29*
X197014500Y-47539000D03*
D30*
X196214500Y-44999000D03*
D29*
X197014500Y-44999000D03*
D30*
X196214500Y-42459000D03*
D29*
X197014500Y-42459000D03*
D30*
X196214500Y-39919000D03*
D29*
X197014500Y-39919000D03*
D33*
X196214500Y-37379000D03*
D27*
X197014500Y-37379000D03*
D30*
X196214500Y-34839000D03*
D29*
X197014500Y-34839000D03*
D30*
X196214500Y-32299000D03*
D29*
X197014500Y-32299000D03*
%TD*%
D17*
%TO.C,J6*%
X120959500Y-90436000D03*
X121459500Y-90436000D03*
X121959500Y-90436000D03*
X122459500Y-90436000D03*
X122959500Y-90436000D03*
X123459500Y-90436000D03*
X123959500Y-90436000D03*
X124459500Y-90436000D03*
X124959500Y-90436000D03*
X125459500Y-90436000D03*
X125959500Y-90436000D03*
X126459500Y-90436000D03*
X126959500Y-90436000D03*
X127459500Y-90436000D03*
X127959500Y-90436000D03*
X128459500Y-90436000D03*
X128959500Y-90436000D03*
X129459500Y-90436000D03*
X129959500Y-90436000D03*
X130459500Y-90436000D03*
D16*
X119009500Y-87186000D03*
X132409500Y-87186000D03*
%TD*%
D25*
%TO.C,R15*%
X155540000Y-93267000D03*
X153890000Y-93267000D03*
%TD*%
D18*
%TO.C,SW11*%
X120209500Y-135931000D03*
D19*
X120709500Y-141081000D03*
D20*
X125709500Y-135931000D03*
D18*
X131209500Y-135931000D03*
D21*
X125709500Y-130031000D03*
X130709500Y-132131000D03*
%TD*%
D18*
%TO.C,SW1*%
X93184500Y-41288500D03*
D19*
X93684500Y-46438500D03*
D20*
X98684500Y-41288500D03*
D18*
X104184500Y-41288500D03*
D21*
X98684500Y-35388500D03*
X103684500Y-37488500D03*
%TD*%
D25*
%TO.C,R13*%
X128540000Y-156362000D03*
X126890000Y-156362000D03*
%TD*%
D24*
%TO.C,C6*%
X186484500Y-106029000D03*
X184934500Y-106029000D03*
%TD*%
D22*
%TO.C,C55*%
X157225000Y-156362000D03*
X158775000Y-156362000D03*
%TD*%
%TO.C,C39*%
X130250000Y-157862000D03*
X131800000Y-157862000D03*
%TD*%
D18*
%TO.C,SW5*%
X120209500Y-72836000D03*
D19*
X120709500Y-77986000D03*
D20*
X125709500Y-72836000D03*
D18*
X131209500Y-72836000D03*
D21*
X125709500Y-66936000D03*
X130709500Y-69036000D03*
%TD*%
D22*
%TO.C,C35*%
X122760000Y-156362000D03*
X124310000Y-156362000D03*
%TD*%
%TO.C,C26*%
X103225000Y-124814500D03*
X104775000Y-124814500D03*
%TD*%
D18*
%TO.C,SW9*%
X147184500Y-104383500D03*
D19*
X147684500Y-109533500D03*
D20*
X152684500Y-104383500D03*
D18*
X158184500Y-104383500D03*
D21*
X152684500Y-98483500D03*
X157684500Y-100583500D03*
%TD*%
D22*
%TO.C,C22*%
X95735000Y-124814500D03*
X97285000Y-124814500D03*
%TD*%
D34*
%TO.C,C14*%
X186409500Y-114054000D03*
X183459500Y-114054000D03*
%TD*%
D22*
%TO.C,C58*%
X157225000Y-124814500D03*
X158775000Y-124814500D03*
%TD*%
D23*
%TO.C,D9*%
X162284500Y-103183500D03*
X162284500Y-100383500D03*
%TD*%
D25*
%TO.C,R1*%
X101515000Y-93267000D03*
X99865000Y-93267000D03*
%TD*%
D34*
%TO.C,C15*%
X186409500Y-111304000D03*
X183459500Y-111304000D03*
%TD*%
D24*
%TO.C,C5*%
X93935000Y-93267000D03*
X92385000Y-93267000D03*
%TD*%
D34*
%TO.C,C16*%
X186409500Y-108554000D03*
X183459500Y-108554000D03*
%TD*%
D24*
%TO.C,C28*%
X120935000Y-61719500D03*
X119385000Y-61719500D03*
%TD*%
D22*
%TO.C,C1*%
X95735000Y-61719500D03*
X97285000Y-61719500D03*
%TD*%
D18*
%TO.C,SW3*%
X147184500Y-41288500D03*
D19*
X147684500Y-46438500D03*
D20*
X152684500Y-41288500D03*
D18*
X158184500Y-41288500D03*
D21*
X152684500Y-35388500D03*
X157684500Y-37488500D03*
%TD*%
D25*
%TO.C,R17*%
X155515000Y-156362000D03*
X153865000Y-156362000D03*
%TD*%
D22*
%TO.C,C19*%
X103225000Y-93267000D03*
X104775000Y-93267000D03*
%TD*%
%TO.C,C53*%
X157250000Y-94767000D03*
X158800000Y-94767000D03*
%TD*%
%TO.C,C42*%
X130250000Y-124814500D03*
X131800000Y-124814500D03*
%TD*%
D23*
%TO.C,D11*%
X135309500Y-134731000D03*
X135309500Y-131931000D03*
%TD*%
D25*
%TO.C,R16*%
X155515000Y-124814500D03*
X153865000Y-124814500D03*
%TD*%
%TO.C,R10*%
X128515000Y-61719500D03*
X126865000Y-61719500D03*
%TD*%
D24*
%TO.C,C29*%
X120960000Y-93267000D03*
X119410000Y-93267000D03*
%TD*%
D22*
%TO.C,C17*%
X95735000Y-93267000D03*
X97285000Y-93267000D03*
%TD*%
%TO.C,C34*%
X122760000Y-124814500D03*
X124310000Y-124814500D03*
%TD*%
%TO.C,C33*%
X122760000Y-93267000D03*
X124310000Y-93267000D03*
%TD*%
%TO.C,C59*%
X157225000Y-157862000D03*
X158775000Y-157862000D03*
%TD*%
%TO.C,C32*%
X122735000Y-61719500D03*
X124285000Y-61719500D03*
%TD*%
%TO.C,C9*%
X185909500Y-97779000D03*
X187459500Y-97779000D03*
%TD*%
D17*
%TO.C,J7*%
X120959500Y-121983500D03*
X121459500Y-121983500D03*
X121959500Y-121983500D03*
X122459500Y-121983500D03*
X122959500Y-121983500D03*
X123459500Y-121983500D03*
X123959500Y-121983500D03*
X124459500Y-121983500D03*
X124959500Y-121983500D03*
X125459500Y-121983500D03*
X125959500Y-121983500D03*
X126459500Y-121983500D03*
X126959500Y-121983500D03*
X127459500Y-121983500D03*
X127959500Y-121983500D03*
X128459500Y-121983500D03*
X128959500Y-121983500D03*
X129459500Y-121983500D03*
X129959500Y-121983500D03*
X130459500Y-121983500D03*
D16*
X119009500Y-118733500D03*
X132409500Y-118733500D03*
%TD*%
D22*
%TO.C,C12*%
X192659500Y-100004000D03*
X194209500Y-100004000D03*
%TD*%
D18*
%TO.C,SW8*%
X120209500Y-104383500D03*
D19*
X120709500Y-109533500D03*
D20*
X125709500Y-104383500D03*
D18*
X131209500Y-104383500D03*
D21*
X125709500Y-98483500D03*
X130709500Y-100583500D03*
%TD*%
D17*
%TO.C,J5*%
X120934500Y-58888500D03*
X121434500Y-58888500D03*
X121934500Y-58888500D03*
X122434500Y-58888500D03*
X122934500Y-58888500D03*
X123434500Y-58888500D03*
X123934500Y-58888500D03*
X124434500Y-58888500D03*
X124934500Y-58888500D03*
X125434500Y-58888500D03*
X125934500Y-58888500D03*
X126434500Y-58888500D03*
X126934500Y-58888500D03*
X127434500Y-58888500D03*
X127934500Y-58888500D03*
X128434500Y-58888500D03*
X128934500Y-58888500D03*
X129434500Y-58888500D03*
X129934500Y-58888500D03*
X130434500Y-58888500D03*
D16*
X118984500Y-55638500D03*
X132384500Y-55638500D03*
%TD*%
D25*
%TO.C,R11*%
X128540000Y-93267000D03*
X126890000Y-93267000D03*
%TD*%
D24*
%TO.C,C21*%
X93935000Y-156362000D03*
X92385000Y-156362000D03*
%TD*%
D17*
%TO.C,J4*%
X93934500Y-153531000D03*
X94434500Y-153531000D03*
X94934500Y-153531000D03*
X95434500Y-153531000D03*
X95934500Y-153531000D03*
X96434500Y-153531000D03*
X96934500Y-153531000D03*
X97434500Y-153531000D03*
X97934500Y-153531000D03*
X98434500Y-153531000D03*
X98934500Y-153531000D03*
X99434500Y-153531000D03*
X99934500Y-153531000D03*
X100434500Y-153531000D03*
X100934500Y-153531000D03*
X101434500Y-153531000D03*
X101934500Y-153531000D03*
X102434500Y-153531000D03*
X102934500Y-153531000D03*
X103434500Y-153531000D03*
D16*
X91984500Y-150281000D03*
X105384500Y-150281000D03*
%TD*%
D24*
%TO.C,C30*%
X120960000Y-124814500D03*
X119410000Y-124814500D03*
%TD*%
D23*
%TO.C,D3*%
X162284500Y-40088500D03*
X162284500Y-37288500D03*
%TD*%
D22*
%TO.C,C56*%
X157225000Y-61719500D03*
X158775000Y-61719500D03*
%TD*%
%TO.C,C51*%
X149735000Y-156362000D03*
X151285000Y-156362000D03*
%TD*%
%TO.C,C18*%
X103225000Y-94767000D03*
X104775000Y-94767000D03*
%TD*%
D18*
%TO.C,SW2*%
X120184500Y-41288500D03*
D19*
X120684500Y-46438500D03*
D20*
X125684500Y-41288500D03*
D18*
X131184500Y-41288500D03*
D21*
X125684500Y-35388500D03*
X130684500Y-37488500D03*
%TD*%
D25*
%TO.C,R7*%
X194225000Y-105150000D03*
X192575000Y-105150000D03*
%TD*%
D35*
%TO.C,R8*%
X189609500Y-97779000D03*
X191259500Y-97779000D03*
%TD*%
D18*
%TO.C,SW7*%
X93184500Y-104383500D03*
D19*
X93684500Y-109533500D03*
D20*
X98684500Y-104383500D03*
D18*
X104184500Y-104383500D03*
D21*
X98684500Y-98483500D03*
X103684500Y-100583500D03*
%TD*%
D22*
%TO.C,C24*%
X103225000Y-126314500D03*
X104775000Y-126314500D03*
%TD*%
D25*
%TO.C,R14*%
X155515000Y-61719500D03*
X153865000Y-61719500D03*
%TD*%
%TO.C,R2*%
X101515000Y-124814500D03*
X99865000Y-124814500D03*
%TD*%
D22*
%TO.C,C54*%
X157225000Y-126314500D03*
X158775000Y-126314500D03*
%TD*%
D18*
%TO.C,SW12*%
X147184500Y-135931000D03*
D19*
X147684500Y-141081000D03*
D20*
X152684500Y-135931000D03*
D18*
X158184500Y-135931000D03*
D21*
X152684500Y-130031000D03*
X157684500Y-132131000D03*
%TD*%
D24*
%TO.C,C45*%
X147960000Y-93267000D03*
X146410000Y-93267000D03*
%TD*%
D36*
%TO.C,R5*%
X189434500Y-112704000D03*
X189434500Y-114354000D03*
%TD*%
D17*
%TO.C,J10*%
X147959500Y-90436000D03*
X148459500Y-90436000D03*
X148959500Y-90436000D03*
X149459500Y-90436000D03*
X149959500Y-90436000D03*
X150459500Y-90436000D03*
X150959500Y-90436000D03*
X151459500Y-90436000D03*
X151959500Y-90436000D03*
X152459500Y-90436000D03*
X152959500Y-90436000D03*
X153459500Y-90436000D03*
X153959500Y-90436000D03*
X154459500Y-90436000D03*
X154959500Y-90436000D03*
X155459500Y-90436000D03*
X155959500Y-90436000D03*
X156459500Y-90436000D03*
X156959500Y-90436000D03*
X157459500Y-90436000D03*
D16*
X146009500Y-87186000D03*
X159409500Y-87186000D03*
%TD*%
D17*
%TO.C,J12*%
X147934500Y-153531000D03*
X148434500Y-153531000D03*
X148934500Y-153531000D03*
X149434500Y-153531000D03*
X149934500Y-153531000D03*
X150434500Y-153531000D03*
X150934500Y-153531000D03*
X151434500Y-153531000D03*
X151934500Y-153531000D03*
X152434500Y-153531000D03*
X152934500Y-153531000D03*
X153434500Y-153531000D03*
X153934500Y-153531000D03*
X154434500Y-153531000D03*
X154934500Y-153531000D03*
X155434500Y-153531000D03*
X155934500Y-153531000D03*
X156434500Y-153531000D03*
X156934500Y-153531000D03*
X157434500Y-153531000D03*
D16*
X145984500Y-150281000D03*
X159384500Y-150281000D03*
%TD*%
D24*
%TO.C,C3*%
X93935000Y-61719500D03*
X92385000Y-61719500D03*
%TD*%
D22*
%TO.C,C40*%
X130225000Y-63219500D03*
X131775000Y-63219500D03*
%TD*%
%TO.C,C36*%
X130225000Y-61719500D03*
X131775000Y-61719500D03*
%TD*%
D17*
%TO.C,J9*%
X147934500Y-58888500D03*
X148434500Y-58888500D03*
X148934500Y-58888500D03*
X149434500Y-58888500D03*
X149934500Y-58888500D03*
X150434500Y-58888500D03*
X150934500Y-58888500D03*
X151434500Y-58888500D03*
X151934500Y-58888500D03*
X152434500Y-58888500D03*
X152934500Y-58888500D03*
X153434500Y-58888500D03*
X153934500Y-58888500D03*
X154434500Y-58888500D03*
X154934500Y-58888500D03*
X155434500Y-58888500D03*
X155934500Y-58888500D03*
X156434500Y-58888500D03*
X156934500Y-58888500D03*
X157434500Y-58888500D03*
D16*
X145984500Y-55638500D03*
X159384500Y-55638500D03*
%TD*%
D22*
%TO.C,C49*%
X149760000Y-93267000D03*
X151310000Y-93267000D03*
%TD*%
%TO.C,C10*%
X185409500Y-95029000D03*
X186959500Y-95029000D03*
%TD*%
D23*
%TO.C,D10*%
X108284500Y-134731000D03*
X108284500Y-131931000D03*
%TD*%
D37*
%TO.C,L1*%
X191434500Y-92129000D03*
X191434500Y-94929000D03*
%TD*%
D25*
%TO.C,R4*%
X191009500Y-110279000D03*
X189359500Y-110279000D03*
%TD*%
D23*
%TO.C,D2*%
X135284500Y-40088500D03*
X135284500Y-37288500D03*
%TD*%
%TO.C,D7*%
X108284500Y-103183500D03*
X108284500Y-100383500D03*
%TD*%
D25*
%TO.C,R12*%
X128540000Y-124814500D03*
X126890000Y-124814500D03*
%TD*%
D23*
%TO.C,D1*%
X108284500Y-40088500D03*
X108284500Y-37288500D03*
%TD*%
D18*
%TO.C,SW10*%
X93184500Y-135931000D03*
D19*
X93684500Y-141081000D03*
D20*
X98684500Y-135931000D03*
D18*
X104184500Y-135931000D03*
D21*
X98684500Y-130031000D03*
X103684500Y-132131000D03*
%TD*%
D38*
%TO.C,R6*%
X189434500Y-107579000D03*
X189434500Y-105929000D03*
%TD*%
D18*
%TO.C,SW6*%
X147209500Y-72836000D03*
D19*
X147709500Y-77986000D03*
D20*
X152709500Y-72836000D03*
D18*
X158209500Y-72836000D03*
D21*
X152709500Y-66936000D03*
X157709500Y-69036000D03*
%TD*%
D17*
%TO.C,J1*%
X93934500Y-58888500D03*
X94434500Y-58888500D03*
X94934500Y-58888500D03*
X95434500Y-58888500D03*
X95934500Y-58888500D03*
X96434500Y-58888500D03*
X96934500Y-58888500D03*
X97434500Y-58888500D03*
X97934500Y-58888500D03*
X98434500Y-58888500D03*
X98934500Y-58888500D03*
X99434500Y-58888500D03*
X99934500Y-58888500D03*
X100434500Y-58888500D03*
X100934500Y-58888500D03*
X101434500Y-58888500D03*
X101934500Y-58888500D03*
X102434500Y-58888500D03*
X102934500Y-58888500D03*
X103434500Y-58888500D03*
D16*
X91984500Y-55638500D03*
X105384500Y-55638500D03*
%TD*%
D17*
%TO.C,J3*%
X93934500Y-121983500D03*
X94434500Y-121983500D03*
X94934500Y-121983500D03*
X95434500Y-121983500D03*
X95934500Y-121983500D03*
X96434500Y-121983500D03*
X96934500Y-121983500D03*
X97434500Y-121983500D03*
X97934500Y-121983500D03*
X98434500Y-121983500D03*
X98934500Y-121983500D03*
X99434500Y-121983500D03*
X99934500Y-121983500D03*
X100434500Y-121983500D03*
X100934500Y-121983500D03*
X101434500Y-121983500D03*
X101934500Y-121983500D03*
X102434500Y-121983500D03*
X102934500Y-121983500D03*
X103434500Y-121983500D03*
D16*
X91984500Y-118733500D03*
X105384500Y-118733500D03*
%TD*%
D23*
%TO.C,D4*%
X108284500Y-71636000D03*
X108284500Y-68836000D03*
%TD*%
D22*
%TO.C,C52*%
X157225000Y-63219500D03*
X158775000Y-63219500D03*
%TD*%
%TO.C,C38*%
X130250000Y-126314500D03*
X131800000Y-126314500D03*
%TD*%
%TO.C,C4*%
X103225000Y-61719500D03*
X104775000Y-61719500D03*
%TD*%
D25*
%TO.C,R3*%
X101515000Y-61719500D03*
X99865000Y-61719500D03*
%TD*%
D24*
%TO.C,C31*%
X120960000Y-156362000D03*
X119410000Y-156362000D03*
%TD*%
D22*
%TO.C,C11*%
X185409500Y-93279000D03*
X186959500Y-93279000D03*
%TD*%
%TO.C,C13*%
X192625000Y-108571000D03*
X194175000Y-108571000D03*
%TD*%
%TO.C,C48*%
X149735000Y-61719500D03*
X151285000Y-61719500D03*
%TD*%
%TO.C,C2*%
X103225000Y-63219500D03*
X104775000Y-63219500D03*
%TD*%
D24*
%TO.C,C20*%
X93935000Y-124814500D03*
X92385000Y-124814500D03*
%TD*%
%TO.C,C44*%
X147935000Y-61719500D03*
X146385000Y-61719500D03*
%TD*%
D22*
%TO.C,C27*%
X103225000Y-157862000D03*
X104775000Y-157862000D03*
%TD*%
%TO.C,C7*%
X192625000Y-106900000D03*
X194175000Y-106900000D03*
%TD*%
%TO.C,C23*%
X95735000Y-156362000D03*
X97285000Y-156362000D03*
%TD*%
M02*
